<svg xmlns="http://www.w3.org/2000/svg" width="56" height="56" viewBox="0 0 56 56" fill="none">
    <title>A circular badge saying 'Verified License' with a tick-marked shield inside</title>
    <path d="M28 0C12.5353 0 0 12.5353 0 28C0 43.4647 12.5353 56 28 56C43.4647 56 56 43.4647 56 28C56 12.5353 43.463 0 28 0ZM28 43.92C19.2065 43.92 12.08 36.7918 12.08 28C12.08 19.2082 19.2082 12.08 28 12.08C36.7935 12.08 43.92 19.2082 43.92 28C43.92 36.7918 36.7918 43.92 28 43.92Z" fill="#0070CC"/>
    <path opacity="0.2" d="M2 28.5H10" stroke="#0070CC" stroke-width="2.57143" stroke-linecap="round"/>
    <path opacity="0.2" d="M46 28.5H54" stroke="#0070CC" stroke-width="2.57143" stroke-linecap="round"/>
    <path fill-rule="evenodd" clip-rule="evenodd" d="M18.664 19.5993C21.7193 18.4358 24.9345 17.8527 28.15 17.85V38.846C28.13 38.8444 28.11 38.8425 28.09 38.8401C27.8826 38.8403 27.6778 38.7942 27.4905 38.7051C24.0888 37.2055 19.3684 34.491 17.66 28.2074C17.3 27.65 17.66 21.009 17.66 21.009C17.6625 20.3737 18.0648 19.8089 18.664 19.5993ZM37.6361 19.5993C34.5808 18.4358 31.3656 17.8527 28.1501 17.85V38.846C28.1701 38.8444 28.1901 38.8425 28.2101 38.8401C28.4175 38.8403 28.6223 38.7942 28.8095 38.7051C32.2113 37.2055 36.9317 34.491 38.6401 28.2074C39.0001 27.65 38.6401 21.009 38.6401 21.009C38.6376 20.3737 38.2353 19.8089 37.6361 19.5993Z" fill="#0070CC"/>
    <path d="M15.8163 12.6594L15.784 12.6846C15.6402 12.8016 15.4373 12.812 15.2822 12.7105L12.0685 10.9657C12.0154 10.9403 11.9686 10.9036 11.9312 10.8582C11.873 10.7834 11.8471 10.6885 11.8594 10.5946C11.8718 10.5007 11.9212 10.4156 11.9967 10.3584C12.1235 10.2514 12.3055 10.2401 12.4446 10.3307L15.2037 11.9071L14.2921 8.83384C14.2481 8.68831 14.2976 8.53071 14.4167 8.43633C14.4883 8.37661 14.5808 8.3481 14.6736 8.35719C14.7664 8.36627 14.8516 8.41219 14.9102 8.48466C14.9413 8.52689 14.964 8.57468 14.9771 8.62545L15.9595 12.1726C16.0233 12.3487 15.9653 12.5458 15.8163 12.6594Z" fill="white" stroke="white" stroke-width="0.5"/>
    <path d="M20.7405 9.67791L18.5715 10.724C18.4852 10.7674 18.385 10.7739 18.2938 10.7421C18.2026 10.7103 18.1281 10.6429 18.0875 10.5552L16.6249 7.52295C16.5817 7.43657 16.5753 7.33636 16.6072 7.24518C16.639 7.15399 16.7065 7.07959 16.7941 7.03894L18.9364 6.00541C19.0965 5.93007 19.2874 5.99673 19.3658 6.15532C19.4031 6.2321 19.4083 6.32059 19.3801 6.40118C19.352 6.48178 19.2929 6.54783 19.2159 6.58471L17.3944 7.46309L17.8567 8.42129L19.4412 7.65709C19.6033 7.58132 19.7962 7.65062 19.873 7.81224C19.9475 7.97135 19.8794 8.16076 19.7206 8.23602L18.1358 9.00019L18.6132 9.98994L20.461 9.09896C20.621 9.02344 20.8121 9.09014 20.8904 9.24887C20.9276 9.3256 20.9327 9.41402 20.9046 9.49455C20.8765 9.57508 20.8174 9.64107 20.7405 9.67791Z" fill="white" stroke="white" stroke-width="0.5"/>
    <path d="M25.0507 8.50428C24.9136 8.53837 24.7686 8.49961 24.6668 8.40167L23.412 7.39195L22.5301 7.59719L22.7791 8.66714C22.8218 8.85955 22.7016 9.05048 22.5097 9.09514C22.3177 9.13979 22.1256 9.02151 22.079 8.83L21.3082 5.51753C21.2849 5.42385 21.3005 5.32472 21.3515 5.24276C21.4025 5.16079 21.4846 5.10299 21.5789 5.08255L23.0019 4.75159C23.4171 4.63045 23.8633 4.6775 24.2441 4.88257C24.5175 5.06278 24.7082 5.34423 24.774 5.66498L24.7768 5.67654C24.9276 6.23326 24.6647 6.81905 24.1485 7.0764L25.1351 7.86091C25.2216 7.91667 25.2844 8.00252 25.3113 8.10187C25.3504 8.28495 25.2338 8.46511 25.0507 8.50428Z" fill="white" stroke="white" stroke-width="0.5"/>
    <path d="M27.1142 8.32987C27.0188 8.33711 26.9246 8.3056 26.8527 8.24246C26.7809 8.17931 26.7375 8.08987 26.7325 7.99435L26.5395 4.56421C26.5284 4.36605 26.68 4.19639 26.8782 4.18527C27.0764 4.17415 27.246 4.32577 27.2571 4.52394L27.4501 7.95408C27.456 8.0486 27.4238 8.14154 27.3606 8.21215C27.2975 8.28276 27.2088 8.32515 27.1142 8.32987H27.1142Z" fill="white" stroke="white" stroke-width="0.5"/>
    <path d="M32.0815 5.09695L30.0649 4.88822L29.9501 5.99809L31.7051 6.17986C31.8848 6.19843 32.0155 6.35923 31.997 6.53902C31.9784 6.71881 31.8176 6.84951 31.6378 6.83094L29.8825 6.64917L29.7448 7.98004C29.7224 8.17571 29.5466 8.31685 29.3507 8.2965C29.1548 8.27615 29.0118 8.1019 29.03 7.90579L29.3802 4.52363C29.3886 4.42747 29.4357 4.33882 29.5106 4.27796C29.5855 4.21709 29.6819 4.18922 29.7777 4.20072L32.1491 4.44623C32.2658 4.45784 32.3673 4.53096 32.4152 4.6379C32.4632 4.74484 32.4503 4.86927 32.3813 4.96408C32.3124 5.05888 32.1981 5.10957 32.0815 5.09696V5.09695Z" fill="white" stroke="white" stroke-width="0.5"/>
    <path d="M34.9083 5.43592L34.0075 8.75013C33.9543 8.94031 33.7577 9.05198 33.5672 9.00021C33.3766 8.94844 33.2636 8.75261 33.314 8.56171L34.2151 5.2475C34.2685 5.05779 34.4649 4.94656 34.6551 4.99826C34.8452 5.04996 34.9582 5.24528 34.9082 5.43592H34.9083Z" fill="white" stroke="white" stroke-width="0.5"/>
    <path d="M38.6287 8.37188C38.7901 8.44872 38.8593 8.64133 38.7838 8.80337C38.7086 8.96217 38.5192 9.03028 38.3601 8.95571L36.7623 8.22128L36.3035 9.21909L38.1667 10.0757C38.3266 10.1511 38.3967 10.3407 38.3243 10.502C38.2889 10.5796 38.224 10.6399 38.144 10.6694C38.064 10.699 37.9755 10.6955 37.8981 10.6596L35.7113 9.65407C35.6229 9.61521 35.5541 9.54218 35.5206 9.45167C35.4871 9.36117 35.4917 9.26094 35.5334 9.17391L36.9392 6.11641C36.9782 6.02803 37.0513 5.95921 37.1418 5.92569C37.2324 5.89216 37.3327 5.89679 37.4198 5.93853L39.58 6.93177C39.7401 7.00696 39.8104 7.19662 39.7379 7.358C39.7025 7.43561 39.6376 7.49588 39.5576 7.52547C39.4776 7.55505 39.3891 7.5515 39.3117 7.5156L37.475 6.6712L37.0309 7.63748L38.6287 8.37188Z" fill="white" stroke="white" stroke-width="0.5"/>
    <path d="M43.3998 12.0465L43.3925 12.0559C43.0466 12.5028 42.5313 12.7869 41.9688 12.8408C41.4063 12.8948 40.8464 12.7139 40.4218 12.341L39.5025 11.6287C39.4253 11.5707 39.375 11.4839 39.3628 11.3882C39.3507 11.2925 39.3778 11.1959 39.4381 11.1205L41.4995 8.46013C41.5574 8.38284 41.6443 8.33236 41.7401 8.32022C41.836 8.30807 41.9326 8.33531 42.008 8.39569L42.927 9.10806C43.3947 9.42318 43.711 9.91797 43.8005 10.4748C43.8901 11.0315 43.7451 11.6006 43.3998 12.0465H43.3998Z" fill="white" stroke="white" stroke-width="0.5"/>
    <path d="M42.526 9.62536L41.8889 9.13116L40.1851 11.3299L40.8225 11.8237C41.1049 12.0738 41.4801 12.1926 41.855 12.1507C42.23 12.1087 42.5696 11.9098 42.7897 11.6034L42.7967 11.594C43.0397 11.3038 43.1488 10.9246 43.0973 10.5497C43.0457 10.1748 42.8382 9.83913 42.526 9.62536Z" fill="#0070CC" stroke="white" stroke-width="0.5"/>
    <path d="M24.0722 5.87023C23.9727 5.44365 23.6109 5.28184 23.0933 5.40232L22.0745 5.63942L22.3855 6.9766L23.4099 6.73846C23.9107 6.62184 24.1688 6.28597 24.0746 5.88181L24.0722 5.87023Z" fill="#0070CC" stroke="white" stroke-width="0.5"/>
    <path d="M16.22 44.7968L14.4965 47.3818L16.0372 48.4091C16.1854 48.5101 16.2246 48.7116 16.1251 48.8608C16.0256 49.01 15.8246 49.0513 15.6743 48.9533L13.8374 47.7286C13.7562 47.6764 13.6997 47.5934 13.6808 47.4988C13.6618 47.4041 13.6821 47.3058 13.7369 47.2264L15.6225 44.3983C15.7333 44.2352 15.9548 44.192 16.1188 44.3014C16.2828 44.4108 16.328 44.6319 16.22 44.7968L16.22 44.7968Z" fill="white" stroke="white" stroke-width="0.5"/>
    <path d="M19.7513 46.7983L18.2968 49.9133C18.2118 50.0915 17.999 50.1679 17.8201 50.0843C17.6412 50.0007 17.5632 49.7885 17.6454 49.6089L19.0995 46.4943C19.1844 46.316 19.3972 46.2394 19.5763 46.3229C19.7553 46.4064 19.8334 46.6187 19.7513 46.7983Z" fill="white" stroke="white" stroke-width="0.5"/>
    <path d="M24.3589 48.6784C24.3198 48.8068 24.2126 48.9028 24.0806 48.9274C23.9487 48.952 23.814 48.9011 23.7313 48.7953C23.5342 48.4947 23.2348 48.2757 22.8886 48.1789C22.5277 48.0859 22.1445 48.1429 21.8264 48.3371C21.5083 48.5313 21.2823 48.8461 21.2002 49.2097L21.1971 49.2209C21.0785 49.5753 21.1089 49.9626 21.2811 50.2942C21.4533 50.6259 21.7527 50.8735 22.1108 50.9804C22.4743 51.0881 22.8654 51.051 23.2021 50.8767C23.2738 50.8418 23.3558 50.8344 23.4326 50.8557C23.6099 50.9065 23.7151 51.0886 23.6704 51.2676C23.6434 51.3625 23.5773 51.4413 23.4886 51.4844C23 51.7337 22.4331 51.7812 21.9098 51.6168C21.37 51.4735 20.9116 51.1173 20.6396 50.6296C20.3675 50.142 20.3052 49.5648 20.4668 49.0303L20.47 49.0191C20.6089 48.472 20.965 48.0052 21.4559 47.7267C21.9469 47.4482 22.5303 47.3821 23.0711 47.5436C23.5651 47.6633 24.0006 47.9542 24.3004 48.3646C24.3677 48.4544 24.3893 48.5704 24.3589 48.6784Z" fill="white" stroke="white" stroke-width="0.5"/>
    <path d="M28.3355 48.9635L26.3171 48.8461L26.2554 49.908L28.0115 50.0099C28.1898 50.0227 28.3244 50.1769 28.313 50.3553C28.3009 50.5306 28.1493 50.663 27.974 50.6516L26.218 50.5496L26.1542 51.6462L28.202 51.7653C28.3785 51.7771 28.5129 51.9283 28.5039 52.105C28.4992 52.1901 28.4608 52.2699 28.397 52.3265C28.3333 52.3832 28.2496 52.4121 28.1645 52.4069L25.7613 52.2671C25.6648 52.2631 25.5742 52.2201 25.51 52.148C25.4458 52.076 25.4135 51.981 25.4205 51.8847L25.6159 48.5246C25.62 48.4281 25.6631 48.3374 25.7352 48.2732C25.8073 48.209 25.9024 48.1767 25.9987 48.1838L28.3729 48.3218C28.5495 48.3337 28.684 48.4848 28.6752 48.6615C28.6704 48.7467 28.6319 48.8265 28.5681 48.8831C28.5043 48.9398 28.4206 48.9687 28.3355 48.9635Z" fill="white" stroke="white" stroke-width="0.5"/>
    <path d="M33.6018 51.8599L33.5731 51.8644C33.4213 51.8844 33.2696 51.8263 33.17 51.71L30.6652 49.3529L31.0736 51.9138C31.1024 52.1056 30.9712 52.2848 30.7797 52.3153C30.5882 52.3459 30.4078 52.2164 30.3755 52.0252L29.8358 48.6395C29.8202 48.5446 29.8432 48.4474 29.8996 48.3695C29.9561 48.2916 30.0413 48.2395 30.1364 48.2248L30.2113 48.2129C30.3619 48.1918 30.5131 48.2477 30.6137 48.3618L33.0488 50.6526L32.6534 48.1727C32.6246 47.9809 32.7557 47.8016 32.9472 47.7711C33.1388 47.7405 33.3192 47.87 33.3514 48.0613L33.8918 51.4529C33.9086 51.5455 33.8873 51.6409 33.8327 51.7176C33.7781 51.7942 33.6948 51.8455 33.6018 51.8599Z" fill="white" stroke="white" stroke-width="0.5"/>
    <path d="M37.4274 50.6803C36.9114 50.8845 36.3429 50.9146 35.8083 50.7661C35.6661 50.7306 35.5635 50.607 35.5547 50.4607C35.546 50.3144 35.6332 50.1794 35.7701 50.1273C35.8391 50.0968 35.9164 50.0907 35.9893 50.1098C36.3868 50.2451 36.8193 50.2349 37.2099 50.0811C37.6235 49.9182 37.8074 49.6195 37.6957 49.3365L37.6915 49.3256C37.5843 49.0535 37.3738 48.9666 36.6026 49.0826C35.7148 49.2062 35.1635 49.147 34.8868 48.4455L34.8823 48.4346C34.7693 48.1057 34.7984 47.7445 34.9624 47.4378C35.1264 47.131 35.4107 46.9064 35.747 46.8176C36.1728 46.6396 36.643 46.5968 37.094 46.6951C37.2094 46.7141 37.3056 46.7939 37.3458 46.9038C37.3783 46.9869 37.3762 47.0796 37.3399 47.1612C37.3037 47.2428 37.2363 47.3065 37.1528 47.3381C37.0916 47.3629 37.0245 47.3697 36.9595 47.3577C36.6314 47.2781 36.2869 47.298 35.9701 47.4148C35.5782 47.5692 35.4294 47.8606 35.5278 48.111L35.5323 48.1219C35.6479 48.4154 35.8735 48.4774 36.6765 48.3618C37.5588 48.2403 38.0858 48.3653 38.3349 48.9964L38.3391 49.0073C38.4628 49.3498 38.4339 49.729 38.2596 50.0489C38.0853 50.3687 37.7824 50.5986 37.4274 50.6803V50.6803Z" fill="white" stroke="white" stroke-width="0.5"/>
    <path d="M40.7875 48.9946C40.7073 49.0485 40.6087 49.0676 40.5142 49.0475C40.4197 49.0275 40.3373 48.97 40.2859 48.8882L38.4514 46.0639C38.3976 45.9837 38.3785 45.8851 38.3985 45.7906C38.4186 45.6961 38.4761 45.6138 38.5579 45.5624L40.5535 44.2662C40.7027 44.171 40.9007 44.2129 40.9986 44.3604C41.0452 44.4319 41.0615 44.5191 41.0437 44.6026C41.026 44.6861 40.9757 44.7591 40.9041 44.8055L39.2075 45.9074L39.7871 46.7997L41.263 45.8412C41.4143 45.7456 41.6143 45.79 41.711 45.9406C41.805 46.0892 41.7614 46.2858 41.6132 46.3805L40.1374 47.3391L40.7363 48.2609L42.4573 47.143C42.6066 47.0479 42.8045 47.09 42.9021 47.2375C42.9488 47.309 42.9651 47.3961 42.9473 47.4796C42.9296 47.5631 42.8793 47.6361 42.8075 47.6823L40.7875 48.9946Z" fill="white" stroke="white" stroke-width="0.5"/>
    <path d="M25.5072 27.7929C25.1166 27.4024 24.4835 27.4024 24.0929 27.7929C23.7024 28.1834 23.7024 28.8166 24.0929 29.2071L26.8 31.9142L32.5072 26.2071C32.8977 25.8166 32.8977 25.1834 32.5072 24.7929C32.1166 24.4024 31.4835 24.4024 31.0929 24.7929L26.8 29.0858L25.5072 27.7929Z" fill="white"/>
</svg>
