<svg xmlns="http://www.w3.org/2000/svg" xmlns:xlink="http://www.w3.org/1999/xlink" width="40" zoomAndPan="magnify" viewBox="0 0 30 30.000001" height="40" preserveAspectRatio="xMidYMid meet" version="1.0"><defs><g/><clipPath id="b0bebc3bc5"><path d="M 0.484375 0 L 29.515625 0 L 29.515625 29.03125 L 0.484375 29.03125 Z M 0.484375 0 " clip-rule="nonzero"/></clipPath><clipPath id="97fd9a2133"><path d="M 1.425781 0.945312 L 28.574219 0.945312 L 28.574219 28.089844 L 1.425781 28.089844 Z M 1.425781 0.945312 " clip-rule="nonzero"/></clipPath><clipPath id="9e6d5a7fd6"><path d="M 15 0.945312 C 7.503906 0.945312 1.425781 7.019531 1.425781 14.515625 C 1.425781 22.011719 7.503906 28.089844 15 28.089844 C 22.496094 28.089844 28.574219 22.011719 28.574219 14.515625 C 28.574219 7.019531 22.496094 0.945312 15 0.945312 Z M 15 0.945312 " clip-rule="nonzero"/></clipPath><clipPath id="d70a147921"><path d="M 6.292969 5.8125 L 23.707031 5.8125 L 23.707031 23.222656 L 6.292969 23.222656 Z M 6.292969 5.8125 " clip-rule="nonzero"/></clipPath><clipPath id="5ea7e654fa"><path d="M 15 5.8125 C 10.191406 5.8125 6.292969 9.707031 6.292969 14.515625 C 6.292969 19.324219 10.191406 23.222656 15 23.222656 C 19.808594 23.222656 23.707031 19.324219 23.707031 14.515625 C 23.707031 9.707031 19.808594 5.8125 15 5.8125 Z M 15 5.8125 " clip-rule="nonzero"/></clipPath><clipPath id="c10f69f58b"><path d="M 10.757812 8.757812 L 19.46875 8.757812 L 19.46875 20.371094 L 10.757812 20.371094 Z M 10.757812 8.757812 " clip-rule="nonzero"/></clipPath><clipPath id="7b6bc8e06e"><path d="M 11 8.757812 L 19.46875 8.757812 L 19.46875 18 L 11 18 Z M 11 8.757812 " clip-rule="nonzero"/></clipPath><clipPath id="7c8d410ea4"><path d="M 10.757812 10 L 17 10 L 17 19 L 10.757812 19 Z M 10.757812 10 " clip-rule="nonzero"/></clipPath><clipPath id="b394eb0669"><path d="M 12 9 L 19 9 L 19 20.371094 L 12 20.371094 Z M 12 9 " clip-rule="nonzero"/></clipPath><clipPath id="e64a8a7f6d"><path d="M 2.753906 15.160156 L 4.933594 15.160156 L 4.933594 17.335938 L 2.753906 17.335938 Z M 2.753906 15.160156 " clip-rule="nonzero"/></clipPath><clipPath id="8a53e4b678"><path d="M 25.253906 15.160156 L 27.433594 15.160156 L 27.433594 17.335938 L 25.253906 17.335938 Z M 25.253906 15.160156 " clip-rule="nonzero"/></clipPath></defs><g clip-path="url(#b0bebc3bc5)"><path fill="#ffffff" d="M 0.484375 0 L 29.515625 0 L 29.515625 29.03125 L 0.484375 29.03125 Z M 0.484375 0 " fill-opacity="1" fill-rule="nonzero"/><path fill="#fefefe" d="M 0.484375 0 L 29.515625 0 L 29.515625 29.03125 L 0.484375 29.03125 Z M 0.484375 0 " fill-opacity="1" fill-rule="nonzero"/></g><g clip-path="url(#97fd9a2133)"><g clip-path="url(#9e6d5a7fd6)"><path fill="#eb6362" d="M 1.425781 0.945312 L 28.574219 0.945312 L 28.574219 28.089844 L 1.425781 28.089844 Z M 1.425781 0.945312 " fill-opacity="1" fill-rule="nonzero"/></g></g><g clip-path="url(#d70a147921)"><g clip-path="url(#5ea7e654fa)"><path fill="#eb6362" d="M 6.292969 5.8125 L 23.707031 5.8125 L 23.707031 23.222656 L 6.292969 23.222656 Z M 6.292969 5.8125 " fill-opacity="1" fill-rule="nonzero"/></g></g><g clip-path="url(#c10f69f58b)"><path fill="#3c3c3b" d="M 19.464844 13.28125 C 19.464844 13.273438 19.464844 13.261719 19.464844 13.253906 C 19.464844 13.234375 19.464844 13.21875 19.460938 13.203125 C 19.460938 13.195312 19.460938 13.1875 19.460938 13.175781 C 19.457031 13.152344 19.457031 13.128906 19.453125 13.101562 C 19.449219 13.078125 19.445312 13.050781 19.441406 13.023438 C 19.324219 12.429688 19.082031 11.859375 18.839844 11.332031 C 18.382812 10.355469 17.449219 9.199219 16.183594 8.898438 C 15.988281 8.851562 15.792969 8.816406 15.601562 8.792969 C 15.410156 8.769531 15.222656 8.757812 15.042969 8.761719 C 14.996094 8.761719 14.953125 8.761719 14.90625 8.765625 C 14.871094 8.765625 14.835938 8.765625 14.800781 8.769531 C 14.792969 8.769531 14.785156 8.769531 14.773438 8.773438 C 14.746094 8.773438 14.71875 8.777344 14.691406 8.78125 C 14.683594 8.78125 14.675781 8.78125 14.667969 8.78125 C 14.636719 8.785156 14.601562 8.789062 14.566406 8.792969 C 14.5625 8.796875 14.554688 8.796875 14.546875 8.796875 C 14.519531 8.800781 14.492188 8.804688 14.464844 8.808594 C 14.457031 8.8125 14.449219 8.8125 14.4375 8.8125 C 14.40625 8.820312 14.371094 8.828125 14.339844 8.832031 C 14.316406 8.839844 14.289062 8.84375 14.261719 8.851562 C 14.257812 8.851562 14.253906 8.851562 14.25 8.851562 C 14.222656 8.859375 14.199219 8.867188 14.171875 8.875 C 14.160156 8.875 14.148438 8.878906 14.136719 8.882812 C 14.097656 8.894531 14.0625 8.90625 14.023438 8.917969 C 14.023438 8.917969 14.023438 8.917969 14.019531 8.917969 C 13.980469 8.929688 13.9375 8.945312 13.898438 8.960938 C 13.882812 8.964844 13.867188 8.96875 13.851562 8.976562 C 13.824219 8.984375 13.796875 8.996094 13.773438 9.003906 C 13.761719 9.007812 13.753906 9.011719 13.742188 9.015625 C 13.734375 9.019531 13.722656 9.023438 13.714844 9.027344 C 13.695312 9.035156 13.671875 9.042969 13.652344 9.050781 C 13.644531 9.050781 13.640625 9.054688 13.632812 9.058594 C 13.617188 9.0625 13.601562 9.070312 13.589844 9.074219 C 13.570312 9.082031 13.550781 9.089844 13.535156 9.097656 C 13.53125 9.097656 13.53125 9.101562 13.527344 9.101562 C 13.507812 9.109375 13.488281 9.117188 13.464844 9.128906 C 13.449219 9.132812 13.433594 9.140625 13.417969 9.148438 C 13.394531 9.15625 13.371094 9.167969 13.347656 9.179688 C 13.335938 9.1875 13.320312 9.191406 13.308594 9.199219 C 13.285156 9.210938 13.257812 9.222656 13.230469 9.234375 C 13.222656 9.238281 13.214844 9.242188 13.203125 9.25 C 13.175781 9.261719 13.148438 9.277344 13.121094 9.292969 C 13.117188 9.292969 13.113281 9.292969 13.113281 9.296875 C 13.066406 9.320312 13.019531 9.34375 12.976562 9.371094 C 12.972656 9.371094 12.96875 9.375 12.964844 9.375 C 12.960938 9.378906 12.960938 9.378906 12.957031 9.378906 C 12.953125 9.382812 12.949219 9.382812 12.945312 9.386719 C 12.855469 9.4375 12.769531 9.492188 12.683594 9.546875 C 12.675781 9.550781 12.664062 9.558594 12.65625 9.566406 C 12.613281 9.59375 12.574219 9.621094 12.53125 9.652344 C 12.527344 9.652344 12.527344 9.65625 12.523438 9.65625 C 12.496094 9.675781 12.46875 9.695312 12.441406 9.714844 C 12.441406 9.71875 12.441406 9.71875 12.441406 9.71875 C 12.410156 9.742188 12.378906 9.765625 12.351562 9.789062 C 12.34375 9.792969 12.335938 9.800781 12.328125 9.804688 C 12.324219 9.808594 12.320312 9.8125 12.316406 9.8125 C 12.28125 9.84375 12.242188 9.875 12.207031 9.910156 C 11.675781 10.371094 11.296875 10.945312 11.074219 11.613281 C 10.808594 12.402344 10.761719 13.304688 10.9375 14.214844 C 11.195312 15.554688 11.902344 16.625 12.875 17.160156 C 12.910156 17.179688 12.945312 17.199219 12.980469 17.214844 C 12.988281 17.222656 13 17.226562 13.011719 17.230469 C 13.035156 17.242188 13.0625 17.253906 13.085938 17.265625 C 13.097656 17.273438 13.109375 17.277344 13.125 17.28125 C 13.148438 17.292969 13.171875 17.304688 13.195312 17.3125 C 13.207031 17.320312 13.222656 17.324219 13.234375 17.328125 C 13.257812 17.339844 13.285156 17.347656 13.308594 17.359375 C 13.320312 17.363281 13.335938 17.367188 13.347656 17.371094 C 13.375 17.382812 13.398438 17.390625 13.425781 17.398438 C 13.4375 17.402344 13.449219 17.40625 13.460938 17.410156 C 13.488281 17.417969 13.519531 17.429688 13.546875 17.4375 C 13.558594 17.4375 13.566406 17.441406 13.578125 17.445312 C 13.609375 17.453125 13.640625 17.460938 13.675781 17.472656 C 13.679688 17.472656 13.6875 17.472656 13.695312 17.476562 C 13.734375 17.484375 13.773438 17.496094 13.816406 17.503906 C 13.832031 17.785156 13.84375 18.070312 13.855469 18.351562 C 13.84375 18.355469 13.835938 18.363281 13.828125 18.371094 C 13.828125 18.371094 13.824219 18.371094 13.824219 18.371094 C 13.824219 18.375 13.820312 18.375 13.820312 18.378906 C 13.820312 18.378906 13.816406 18.378906 13.816406 18.382812 C 13.816406 18.382812 13.816406 18.386719 13.8125 18.386719 C 13.8125 18.390625 13.8125 18.390625 13.8125 18.394531 C 13.808594 18.394531 13.808594 18.398438 13.808594 18.398438 C 13.808594 18.402344 13.808594 18.40625 13.808594 18.40625 C 13.808594 18.410156 13.808594 18.410156 13.808594 18.410156 C 13.804688 18.414062 13.804688 18.417969 13.804688 18.425781 C 13.824219 18.644531 13.828125 18.828125 13.785156 19.023438 C 13.78125 19.042969 13.777344 19.066406 13.773438 19.089844 C 13.769531 19.101562 13.765625 19.109375 13.765625 19.121094 C 13.761719 19.125 13.761719 19.128906 13.761719 19.132812 C 13.761719 19.140625 13.757812 19.148438 13.757812 19.15625 C 13.753906 19.160156 13.753906 19.167969 13.753906 19.171875 C 13.75 19.179688 13.75 19.183594 13.75 19.191406 C 13.746094 19.199219 13.746094 19.203125 13.746094 19.210938 C 13.746094 19.214844 13.742188 19.222656 13.742188 19.226562 C 13.738281 19.242188 13.738281 19.253906 13.734375 19.265625 C 13.734375 19.269531 13.734375 19.277344 13.730469 19.28125 C 13.730469 19.289062 13.730469 19.296875 13.730469 19.304688 C 13.726562 19.308594 13.726562 19.3125 13.726562 19.316406 C 13.726562 19.324219 13.722656 19.332031 13.722656 19.339844 C 13.722656 19.34375 13.722656 19.347656 13.722656 19.355469 C 13.722656 19.363281 13.71875 19.371094 13.71875 19.378906 C 13.71875 19.382812 13.71875 19.382812 13.71875 19.386719 C 13.714844 19.417969 13.714844 19.445312 13.714844 19.472656 C 13.714844 19.476562 13.714844 19.480469 13.714844 19.484375 C 13.714844 19.492188 13.714844 19.5 13.71875 19.507812 C 13.71875 19.511719 13.71875 19.515625 13.71875 19.519531 C 13.71875 19.527344 13.71875 19.535156 13.71875 19.542969 C 13.722656 19.546875 13.722656 19.550781 13.722656 19.550781 C 13.722656 19.570312 13.726562 19.589844 13.730469 19.605469 C 13.730469 19.617188 13.730469 19.628906 13.730469 19.636719 C 13.730469 19.65625 13.730469 19.675781 13.726562 19.691406 C 13.726562 19.703125 13.726562 19.71875 13.722656 19.730469 C 13.722656 19.746094 13.71875 19.761719 13.71875 19.777344 C 13.71875 19.789062 13.714844 19.804688 13.714844 19.816406 C 13.710938 19.832031 13.710938 19.847656 13.707031 19.863281 C 13.707031 19.875 13.703125 19.890625 13.699219 19.902344 C 13.699219 19.917969 13.695312 19.933594 13.691406 19.949219 C 13.691406 19.960938 13.6875 19.972656 13.683594 19.988281 C 13.679688 20.003906 13.675781 20.019531 13.671875 20.035156 C 13.671875 20.046875 13.667969 20.058594 13.664062 20.070312 C 13.660156 20.089844 13.65625 20.109375 13.648438 20.125 C 13.648438 20.136719 13.644531 20.144531 13.640625 20.15625 C 13.632812 20.183594 13.625 20.210938 13.617188 20.238281 C 13.609375 20.261719 13.613281 20.285156 13.628906 20.300781 C 13.644531 20.320312 13.664062 20.332031 13.6875 20.328125 C 13.800781 20.320312 13.910156 20.328125 14.023438 20.335938 C 14.089844 20.339844 14.15625 20.34375 14.226562 20.34375 C 14.25 20.34375 14.269531 20.332031 14.28125 20.316406 C 14.296875 20.300781 14.300781 20.28125 14.296875 20.257812 C 14.292969 20.238281 14.289062 20.214844 14.285156 20.195312 C 14.285156 20.191406 14.28125 20.1875 14.28125 20.179688 C 14.28125 20.164062 14.277344 20.144531 14.277344 20.125 C 14.273438 20.117188 14.273438 20.109375 14.273438 20.101562 C 14.273438 20.089844 14.273438 20.078125 14.273438 20.066406 C 14.273438 20.050781 14.273438 20.03125 14.273438 20.015625 C 14.273438 20.011719 14.273438 20.003906 14.273438 20 C 14.273438 19.976562 14.273438 19.949219 14.277344 19.925781 C 14.292969 19.933594 14.308594 19.945312 14.324219 19.953125 C 14.324219 19.957031 14.324219 19.957031 14.324219 19.957031 C 14.328125 19.960938 14.335938 19.964844 14.339844 19.964844 C 14.339844 19.96875 14.339844 19.96875 14.339844 19.96875 C 14.34375 19.972656 14.347656 19.976562 14.351562 19.980469 C 14.355469 19.980469 14.355469 19.980469 14.355469 19.980469 C 14.359375 19.984375 14.363281 19.988281 14.367188 19.992188 C 14.367188 19.992188 14.367188 19.996094 14.371094 19.996094 C 14.375 20 14.378906 20.003906 14.382812 20.007812 C 14.382812 20.007812 14.382812 20.007812 14.382812 20.011719 C 14.398438 20.023438 14.414062 20.042969 14.425781 20.0625 C 14.429688 20.0625 14.429688 20.0625 14.429688 20.0625 C 14.433594 20.070312 14.4375 20.074219 14.441406 20.078125 C 14.445312 20.082031 14.445312 20.082031 14.445312 20.085938 C 14.449219 20.089844 14.453125 20.09375 14.457031 20.101562 C 14.460938 20.101562 14.460938 20.105469 14.460938 20.105469 C 14.464844 20.109375 14.46875 20.117188 14.472656 20.121094 C 14.476562 20.125 14.476562 20.125 14.480469 20.128906 C 14.484375 20.132812 14.488281 20.140625 14.492188 20.144531 C 14.492188 20.148438 14.492188 20.148438 14.496094 20.152344 C 14.5 20.160156 14.503906 20.164062 14.507812 20.171875 C 14.511719 20.171875 14.511719 20.175781 14.515625 20.175781 C 14.519531 20.183594 14.527344 20.195312 14.53125 20.203125 L 14.535156 20.207031 C 14.558594 20.238281 14.582031 20.273438 14.621094 20.300781 C 14.671875 20.335938 14.730469 20.34375 14.78125 20.351562 C 14.890625 20.363281 15.054688 20.371094 15.210938 20.371094 C 15.320312 20.371094 15.425781 20.367188 15.5 20.359375 C 15.519531 20.355469 15.574219 20.347656 15.601562 20.300781 C 15.617188 20.277344 15.617188 20.253906 15.617188 20.238281 C 15.621094 20.128906 15.566406 20.019531 15.476562 19.953125 C 15.4375 19.925781 15.394531 19.90625 15.359375 19.890625 L 15.183594 19.8125 C 15.050781 19.75 14.917969 19.625 14.789062 19.445312 C 14.78125 19.433594 14.773438 19.421875 14.765625 19.410156 C 14.765625 19.40625 14.761719 19.402344 14.761719 19.398438 C 14.753906 19.386719 14.75 19.378906 14.746094 19.371094 C 14.742188 19.367188 14.742188 19.363281 14.738281 19.359375 C 14.734375 19.347656 14.730469 19.339844 14.726562 19.328125 C 14.722656 19.324219 14.722656 19.324219 14.722656 19.320312 C 14.71875 19.308594 14.710938 19.296875 14.707031 19.285156 C 14.707031 19.28125 14.707031 19.277344 14.703125 19.273438 C 14.703125 19.265625 14.699219 19.253906 14.695312 19.246094 C 14.695312 19.242188 14.691406 19.238281 14.691406 19.230469 C 14.6875 19.222656 14.6875 19.214844 14.683594 19.203125 C 14.683594 19.199219 14.683594 19.195312 14.683594 19.195312 C 14.679688 19.179688 14.675781 19.167969 14.675781 19.15625 C 14.675781 19.152344 14.675781 19.144531 14.671875 19.140625 C 14.671875 19.132812 14.671875 19.125 14.671875 19.117188 C 14.667969 19.113281 14.667969 19.105469 14.667969 19.101562 C 14.667969 19.09375 14.667969 19.085938 14.664062 19.078125 C 14.664062 19.070312 14.664062 19.066406 14.664062 19.058594 C 14.664062 19.046875 14.664062 19.035156 14.664062 19.023438 C 14.664062 19.019531 14.664062 19.011719 14.664062 19.003906 C 14.660156 19 14.660156 18.992188 14.660156 18.984375 C 14.660156 18.980469 14.660156 18.96875 14.660156 18.964844 C 14.660156 18.957031 14.660156 18.953125 14.660156 18.949219 C 14.660156 18.941406 14.660156 18.929688 14.660156 18.921875 C 14.664062 18.929688 14.667969 18.941406 14.671875 18.949219 C 14.671875 18.949219 14.671875 18.949219 14.675781 18.949219 C 14.675781 18.960938 14.679688 18.96875 14.683594 18.980469 C 14.691406 19.007812 14.703125 19.035156 14.710938 19.066406 C 14.734375 19.117188 14.753906 19.171875 14.746094 19.210938 C 14.738281 19.25 14.765625 19.285156 14.804688 19.292969 C 14.808594 19.292969 14.8125 19.292969 14.816406 19.292969 C 14.847656 19.292969 14.878906 19.269531 14.886719 19.234375 C 14.898438 19.15625 14.871094 19.082031 14.84375 19.015625 C 14.835938 18.992188 14.824219 18.964844 14.820312 18.945312 C 14.816406 18.9375 14.816406 18.929688 14.816406 18.925781 C 14.863281 18.933594 14.914062 18.9375 14.964844 18.933594 C 15.003906 18.925781 15.03125 18.890625 15.027344 18.855469 C 15.019531 18.816406 14.984375 18.789062 14.945312 18.792969 C 14.9375 18.796875 14.925781 18.796875 14.917969 18.796875 C 14.910156 18.796875 14.90625 18.796875 14.902344 18.796875 C 14.898438 18.796875 14.894531 18.796875 14.890625 18.792969 C 14.875 18.792969 14.863281 18.792969 14.851562 18.789062 C 14.886719 18.777344 14.917969 18.761719 14.945312 18.738281 C 14.949219 18.738281 14.949219 18.738281 14.949219 18.738281 C 14.957031 18.730469 14.964844 18.726562 14.972656 18.71875 C 14.972656 18.714844 14.976562 18.714844 14.976562 18.714844 C 14.984375 18.707031 14.992188 18.699219 14.996094 18.691406 C 15 18.691406 15 18.6875 15.003906 18.683594 C 15.007812 18.679688 15.011719 18.671875 15.015625 18.664062 C 15.019531 18.660156 15.019531 18.65625 15.023438 18.652344 C 15.027344 18.644531 15.027344 18.640625 15.03125 18.636719 C 15.035156 18.625 15.039062 18.617188 15.042969 18.605469 C 15.058594 18.539062 15.042969 18.472656 14.996094 18.4375 C 14.957031 18.40625 14.90625 18.398438 14.855469 18.410156 C 14.84375 18.410156 14.832031 18.414062 14.824219 18.417969 C 14.820312 18.417969 14.816406 18.421875 14.8125 18.421875 C 14.808594 18.425781 14.800781 18.425781 14.792969 18.429688 C 14.792969 18.433594 14.789062 18.433594 14.785156 18.4375 C 14.777344 18.4375 14.773438 18.441406 14.769531 18.445312 C 14.765625 18.449219 14.761719 18.449219 14.757812 18.453125 C 14.753906 18.457031 14.75 18.460938 14.746094 18.460938 C 14.742188 18.464844 14.738281 18.46875 14.734375 18.46875 C 14.730469 18.472656 14.726562 18.476562 14.722656 18.480469 C 14.71875 18.484375 14.714844 18.484375 14.714844 18.488281 C 14.710938 18.492188 14.707031 18.496094 14.703125 18.5 C 14.699219 18.503906 14.695312 18.503906 14.695312 18.507812 C 14.691406 18.511719 14.6875 18.515625 14.683594 18.519531 C 14.683594 18.519531 14.679688 18.523438 14.679688 18.527344 C 14.679688 18.507812 14.679688 18.488281 14.679688 18.46875 C 14.675781 18.421875 14.675781 18.339844 14.597656 18.289062 C 14.597656 18.167969 14.597656 18.046875 14.601562 17.929688 C 14.601562 17.902344 14.601562 17.878906 14.601562 17.851562 C 14.601562 17.84375 14.601562 17.835938 14.601562 17.828125 C 14.601562 17.804688 14.601562 17.785156 14.601562 17.761719 C 14.601562 17.75 14.601562 17.738281 14.601562 17.730469 C 14.605469 17.710938 14.605469 17.691406 14.605469 17.671875 C 14.605469 17.644531 14.605469 17.617188 14.605469 17.589844 C 14.625 17.589844 14.640625 17.589844 14.660156 17.589844 C 15.089844 17.589844 15.539062 17.527344 15.996094 17.402344 C 16.003906 17.402344 16.011719 17.398438 16.019531 17.398438 C 16.03125 17.554688 16.039062 17.710938 16.046875 17.871094 C 16.046875 17.875 16.046875 17.875 16.046875 17.878906 C 16.054688 18.039062 16.0625 18.195312 16.066406 18.355469 C 16.0625 18.355469 16.0625 18.359375 16.058594 18.359375 C 16.058594 18.359375 16.058594 18.363281 16.058594 18.363281 C 16.054688 18.363281 16.050781 18.367188 16.050781 18.367188 C 16.050781 18.367188 16.046875 18.367188 16.046875 18.367188 C 16.042969 18.371094 16.039062 18.375 16.039062 18.382812 C 16.035156 18.382812 16.035156 18.382812 16.035156 18.382812 C 16.035156 18.386719 16.035156 18.386719 16.035156 18.390625 C 16.03125 18.390625 16.03125 18.394531 16.03125 18.394531 C 16.03125 18.398438 16.027344 18.398438 16.027344 18.398438 C 16.027344 18.402344 16.027344 18.40625 16.027344 18.40625 C 16.027344 18.410156 16.027344 18.410156 16.027344 18.414062 C 16.027344 18.417969 16.027344 18.421875 16.027344 18.425781 C 16.042969 18.644531 16.046875 18.828125 16.007812 19.023438 C 16 19.046875 15.996094 19.066406 15.992188 19.089844 C 15.988281 19.101562 15.988281 19.109375 15.984375 19.121094 C 15.984375 19.125 15.980469 19.128906 15.980469 19.136719 C 15.980469 19.140625 15.976562 19.148438 15.976562 19.15625 C 15.976562 19.160156 15.972656 19.167969 15.972656 19.171875 C 15.972656 19.179688 15.96875 19.1875 15.96875 19.191406 C 15.96875 19.199219 15.964844 19.203125 15.964844 19.210938 C 15.964844 19.214844 15.960938 19.222656 15.960938 19.226562 C 15.960938 19.242188 15.957031 19.253906 15.953125 19.265625 C 15.953125 19.269531 15.953125 19.277344 15.953125 19.28125 C 15.949219 19.289062 15.949219 19.296875 15.949219 19.304688 C 15.949219 19.308594 15.945312 19.3125 15.945312 19.316406 C 15.945312 19.324219 15.945312 19.332031 15.941406 19.339844 C 15.941406 19.34375 15.941406 19.351562 15.941406 19.355469 C 15.941406 19.363281 15.941406 19.371094 15.9375 19.378906 C 15.9375 19.382812 15.9375 19.386719 15.9375 19.386719 C 15.9375 19.417969 15.933594 19.445312 15.933594 19.472656 C 15.933594 19.476562 15.933594 19.480469 15.933594 19.484375 C 15.933594 19.492188 15.9375 19.5 15.9375 19.507812 C 15.9375 19.511719 15.9375 19.515625 15.9375 19.519531 C 15.9375 19.527344 15.9375 19.535156 15.941406 19.542969 C 15.941406 19.546875 15.941406 19.550781 15.941406 19.554688 C 15.945312 19.570312 15.945312 19.589844 15.953125 19.605469 C 15.953125 19.617188 15.949219 19.628906 15.949219 19.636719 C 15.949219 19.65625 15.949219 19.675781 15.945312 19.691406 C 15.945312 19.707031 15.945312 19.71875 15.941406 19.730469 C 15.941406 19.746094 15.941406 19.761719 15.9375 19.777344 C 15.9375 19.792969 15.933594 19.804688 15.933594 19.816406 C 15.929688 19.832031 15.929688 19.847656 15.925781 19.863281 C 15.925781 19.875 15.921875 19.890625 15.921875 19.902344 C 15.917969 19.917969 15.914062 19.933594 15.910156 19.949219 C 15.910156 19.960938 15.90625 19.976562 15.902344 19.988281 C 15.902344 20.003906 15.898438 20.019531 15.894531 20.035156 C 15.890625 20.046875 15.886719 20.058594 15.882812 20.070312 C 15.878906 20.089844 15.875 20.109375 15.871094 20.125 C 15.867188 20.136719 15.863281 20.144531 15.863281 20.15625 C 15.855469 20.183594 15.84375 20.210938 15.835938 20.238281 C 15.828125 20.261719 15.832031 20.285156 15.847656 20.304688 C 15.863281 20.320312 15.886719 20.332031 15.910156 20.328125 C 16.019531 20.320312 16.128906 20.328125 16.246094 20.335938 C 16.308594 20.339844 16.378906 20.34375 16.445312 20.34375 C 16.46875 20.34375 16.488281 20.335938 16.5 20.316406 C 16.515625 20.300781 16.519531 20.28125 16.515625 20.257812 C 16.511719 20.238281 16.507812 20.21875 16.503906 20.195312 C 16.503906 20.191406 16.503906 20.1875 16.5 20.183594 C 16.5 20.164062 16.496094 20.144531 16.496094 20.125 C 16.496094 20.117188 16.492188 20.109375 16.492188 20.101562 C 16.492188 20.089844 16.492188 20.078125 16.492188 20.066406 C 16.492188 20.050781 16.492188 20.03125 16.492188 20.015625 C 16.492188 20.011719 16.492188 20.007812 16.492188 20 C 16.492188 19.976562 16.496094 19.949219 16.496094 19.925781 C 16.511719 19.933594 16.527344 19.945312 16.542969 19.957031 C 16.542969 19.957031 16.542969 19.957031 16.546875 19.957031 C 16.550781 19.960938 16.554688 19.964844 16.558594 19.96875 C 16.566406 19.972656 16.566406 19.976562 16.574219 19.980469 C 16.578125 19.984375 16.582031 19.988281 16.585938 19.992188 C 16.585938 19.996094 16.589844 19.996094 16.589844 19.996094 C 16.59375 20 16.597656 20.003906 16.601562 20.007812 C 16.601562 20.007812 16.601562 20.011719 16.601562 20.011719 C 16.617188 20.027344 16.632812 20.042969 16.648438 20.0625 C 16.652344 20.070312 16.65625 20.074219 16.660156 20.082031 C 16.664062 20.082031 16.664062 20.082031 16.664062 20.085938 C 16.667969 20.089844 16.671875 20.09375 16.675781 20.101562 C 16.679688 20.101562 16.679688 20.105469 16.683594 20.105469 C 16.6875 20.113281 16.6875 20.117188 16.691406 20.121094 C 16.695312 20.125 16.695312 20.128906 16.699219 20.128906 C 16.703125 20.132812 16.707031 20.140625 16.710938 20.144531 C 16.710938 20.148438 16.714844 20.152344 16.714844 20.152344 C 16.71875 20.160156 16.722656 20.164062 16.726562 20.171875 C 16.730469 20.171875 16.730469 20.175781 16.734375 20.179688 C 16.738281 20.1875 16.746094 20.195312 16.75 20.203125 L 16.753906 20.207031 C 16.777344 20.238281 16.800781 20.273438 16.839844 20.300781 C 16.890625 20.335938 16.949219 20.347656 17 20.351562 C 17.109375 20.363281 17.277344 20.371094 17.433594 20.371094 C 17.542969 20.371094 17.644531 20.367188 17.71875 20.359375 C 17.738281 20.355469 17.792969 20.351562 17.824219 20.300781 C 17.835938 20.28125 17.839844 20.257812 17.839844 20.238281 C 17.839844 20.128906 17.785156 20.023438 17.695312 19.957031 C 17.65625 19.925781 17.617188 19.90625 17.578125 19.890625 L 17.40625 19.8125 C 17.269531 19.75 17.136719 19.628906 17.011719 19.445312 C 17.003906 19.433594 16.996094 19.421875 16.988281 19.410156 C 16.984375 19.40625 16.984375 19.402344 16.980469 19.398438 C 16.976562 19.390625 16.96875 19.378906 16.964844 19.371094 C 16.964844 19.367188 16.960938 19.363281 16.960938 19.359375 C 16.953125 19.351562 16.949219 19.339844 16.945312 19.328125 C 16.945312 19.328125 16.941406 19.324219 16.941406 19.324219 C 16.9375 19.308594 16.933594 19.296875 16.929688 19.285156 C 16.925781 19.28125 16.925781 19.277344 16.921875 19.273438 C 16.921875 19.265625 16.917969 19.257812 16.914062 19.246094 C 16.914062 19.242188 16.914062 19.238281 16.910156 19.234375 C 16.910156 19.222656 16.90625 19.214844 16.90625 19.207031 C 16.902344 19.203125 16.902344 19.199219 16.902344 19.195312 C 16.898438 19.183594 16.898438 19.171875 16.894531 19.15625 C 16.894531 19.152344 16.894531 19.148438 16.894531 19.144531 C 16.890625 19.136719 16.890625 19.128906 16.890625 19.117188 C 16.890625 19.113281 16.886719 19.109375 16.886719 19.101562 C 16.886719 19.09375 16.886719 19.085938 16.886719 19.078125 C 16.886719 19.074219 16.882812 19.066406 16.882812 19.0625 C 16.882812 19.050781 16.882812 19.039062 16.882812 19.027344 C 16.882812 19.019531 16.882812 19.011719 16.882812 19.003906 C 16.882812 19 16.882812 18.992188 16.882812 18.988281 C 16.882812 18.980469 16.882812 18.972656 16.882812 18.964844 C 16.882812 18.960938 16.882812 18.953125 16.882812 18.949219 C 16.882812 18.941406 16.882812 18.933594 16.882812 18.925781 C 16.886719 18.933594 16.890625 18.941406 16.894531 18.949219 C 16.894531 18.949219 16.894531 18.953125 16.894531 18.953125 C 16.898438 18.960938 16.898438 18.972656 16.902344 18.980469 C 16.910156 19.007812 16.921875 19.039062 16.933594 19.066406 C 16.953125 19.121094 16.972656 19.171875 16.964844 19.214844 C 16.957031 19.25 16.984375 19.285156 17.023438 19.292969 C 17.027344 19.292969 17.03125 19.292969 17.035156 19.292969 C 17.070312 19.292969 17.097656 19.269531 17.105469 19.234375 C 17.117188 19.15625 17.089844 19.082031 17.066406 19.019531 C 17.054688 18.992188 17.046875 18.96875 17.039062 18.945312 C 17.039062 18.9375 17.035156 18.933594 17.035156 18.925781 C 17.082031 18.9375 17.132812 18.9375 17.183594 18.933594 C 17.222656 18.929688 17.25 18.894531 17.246094 18.855469 C 17.242188 18.816406 17.207031 18.789062 17.167969 18.796875 C 17.15625 18.796875 17.144531 18.796875 17.136719 18.796875 C 17.132812 18.796875 17.125 18.796875 17.121094 18.796875 C 17.117188 18.796875 17.113281 18.796875 17.109375 18.796875 C 17.09375 18.796875 17.082031 18.792969 17.070312 18.789062 C 17.105469 18.777344 17.140625 18.761719 17.167969 18.742188 C 17.167969 18.742188 17.167969 18.742188 17.167969 18.738281 C 17.175781 18.734375 17.183594 18.726562 17.191406 18.71875 C 17.195312 18.71875 17.195312 18.714844 17.195312 18.714844 C 17.203125 18.707031 17.210938 18.699219 17.214844 18.695312 C 17.21875 18.691406 17.21875 18.6875 17.222656 18.683594 C 17.226562 18.679688 17.230469 18.671875 17.234375 18.667969 C 17.238281 18.660156 17.242188 18.65625 17.242188 18.652344 C 17.246094 18.648438 17.25 18.640625 17.25 18.636719 C 17.257812 18.628906 17.257812 18.617188 17.261719 18.605469 C 17.28125 18.539062 17.261719 18.472656 17.214844 18.4375 C 17.179688 18.40625 17.128906 18.398438 17.074219 18.410156 C 17.0625 18.410156 17.054688 18.414062 17.042969 18.417969 C 17.039062 18.417969 17.035156 18.421875 17.035156 18.421875 C 17.027344 18.425781 17.019531 18.429688 17.015625 18.429688 C 17.011719 18.433594 17.007812 18.433594 17.003906 18.4375 C 17 18.441406 16.992188 18.441406 16.988281 18.445312 C 16.984375 18.449219 16.980469 18.449219 16.976562 18.453125 C 16.972656 18.457031 16.96875 18.460938 16.964844 18.460938 C 16.960938 18.464844 16.957031 18.46875 16.953125 18.46875 C 16.949219 18.472656 16.945312 18.476562 16.941406 18.480469 C 16.941406 18.484375 16.9375 18.484375 16.933594 18.488281 C 16.929688 18.492188 16.925781 18.496094 16.921875 18.5 C 16.921875 18.503906 16.917969 18.503906 16.914062 18.507812 C 16.910156 18.511719 16.90625 18.515625 16.90625 18.519531 C 16.902344 18.519531 16.898438 18.523438 16.898438 18.527344 C 16.898438 18.507812 16.898438 18.488281 16.898438 18.46875 C 16.898438 18.464844 16.898438 18.464844 16.898438 18.460938 C 16.898438 18.457031 16.898438 18.457031 16.898438 18.457031 C 16.898438 18.453125 16.898438 18.453125 16.898438 18.449219 C 16.898438 18.449219 16.898438 18.449219 16.898438 18.445312 C 16.898438 18.445312 16.898438 18.441406 16.898438 18.441406 C 16.898438 18.4375 16.898438 18.4375 16.894531 18.433594 C 16.894531 18.433594 16.894531 18.429688 16.894531 18.429688 C 16.894531 18.425781 16.894531 18.425781 16.894531 18.421875 C 16.894531 18.421875 16.894531 18.417969 16.894531 18.417969 C 16.894531 18.417969 16.894531 18.414062 16.894531 18.414062 C 16.894531 18.410156 16.894531 18.410156 16.894531 18.40625 C 16.894531 18.40625 16.890625 18.402344 16.890625 18.402344 C 16.890625 18.398438 16.890625 18.398438 16.890625 18.394531 C 16.890625 18.394531 16.890625 18.390625 16.890625 18.390625 C 16.890625 18.386719 16.886719 18.386719 16.886719 18.382812 C 16.886719 18.378906 16.886719 18.378906 16.886719 18.375 C 16.886719 18.375 16.882812 18.371094 16.882812 18.371094 C 16.882812 18.367188 16.882812 18.367188 16.882812 18.363281 C 16.878906 18.363281 16.878906 18.359375 16.878906 18.359375 C 16.878906 18.355469 16.875 18.355469 16.875 18.351562 C 16.875 18.351562 16.875 18.347656 16.871094 18.347656 C 16.871094 18.34375 16.871094 18.34375 16.871094 18.339844 C 16.867188 18.339844 16.867188 18.335938 16.867188 18.335938 C 16.863281 18.332031 16.863281 18.332031 16.863281 18.328125 C 16.859375 18.328125 16.859375 18.328125 16.855469 18.324219 C 16.855469 18.324219 16.855469 18.320312 16.851562 18.320312 C 16.851562 18.316406 16.847656 18.316406 16.847656 18.3125 C 16.847656 18.3125 16.84375 18.308594 16.84375 18.308594 C 16.839844 18.304688 16.835938 18.300781 16.832031 18.300781 C 16.84375 18 16.859375 17.675781 16.875 17.386719 C 16.875 17.363281 16.878906 17.335938 16.878906 17.3125 C 16.878906 17.308594 16.878906 17.308594 16.878906 17.304688 C 16.882812 17.28125 16.882812 17.253906 16.882812 17.230469 C 16.886719 17.179688 16.890625 17.132812 16.890625 17.085938 C 16.898438 17.082031 16.910156 17.078125 16.917969 17.074219 C 16.921875 17.070312 16.929688 17.066406 16.933594 17.066406 C 16.945312 17.058594 16.953125 17.054688 16.964844 17.050781 C 16.996094 17.039062 17.027344 17.023438 17.054688 17.007812 C 17.070312 17 17.085938 16.992188 17.097656 16.988281 C 17.101562 16.988281 17.101562 16.988281 17.101562 16.988281 C 17.144531 16.964844 17.1875 16.941406 17.230469 16.921875 C 17.269531 16.898438 17.308594 16.878906 17.34375 16.859375 C 17.355469 16.851562 17.367188 16.847656 17.378906 16.839844 C 17.402344 16.824219 17.429688 16.8125 17.453125 16.796875 C 17.46875 16.789062 17.484375 16.777344 17.5 16.769531 C 17.519531 16.757812 17.535156 16.746094 17.554688 16.738281 C 17.574219 16.722656 17.59375 16.710938 17.609375 16.699219 C 17.625 16.691406 17.636719 16.683594 17.652344 16.675781 C 17.664062 16.667969 17.675781 16.660156 17.6875 16.652344 C 17.730469 16.625 17.765625 16.597656 17.804688 16.570312 C 17.808594 16.570312 17.808594 16.570312 17.8125 16.566406 C 17.847656 16.539062 17.886719 16.511719 17.921875 16.484375 C 17.925781 16.484375 17.925781 16.484375 17.925781 16.480469 C 17.964844 16.453125 18 16.425781 18.035156 16.398438 C 18.035156 16.394531 18.039062 16.394531 18.039062 16.394531 C 18.074219 16.367188 18.109375 16.335938 18.144531 16.304688 C 18.144531 16.304688 18.148438 16.300781 18.152344 16.300781 C 18.199219 16.257812 18.246094 16.214844 18.292969 16.167969 C 18.296875 16.164062 18.300781 16.160156 18.304688 16.15625 C 18.324219 16.136719 18.34375 16.121094 18.359375 16.101562 C 18.363281 16.097656 18.367188 16.09375 18.371094 16.089844 C 18.390625 16.066406 18.414062 16.046875 18.433594 16.023438 C 18.4375 16.019531 18.441406 16.015625 18.445312 16.011719 C 18.460938 15.992188 18.476562 15.976562 18.492188 15.957031 C 18.492188 15.957031 18.496094 15.953125 18.5 15.949219 C 18.503906 15.945312 18.503906 15.941406 18.507812 15.941406 C 18.527344 15.917969 18.542969 15.894531 18.5625 15.875 C 18.921875 15.429688 19.074219 14.96875 19.191406 14.539062 C 19.214844 14.441406 19.246094 14.335938 19.277344 14.238281 C 19.285156 14.210938 19.292969 14.1875 19.300781 14.164062 C 19.300781 14.160156 19.300781 14.15625 19.304688 14.152344 C 19.304688 14.148438 19.304688 14.148438 19.304688 14.144531 C 19.3125 14.128906 19.316406 14.113281 19.320312 14.09375 C 19.324219 14.085938 19.324219 14.078125 19.328125 14.070312 C 19.328125 14.070312 19.328125 14.070312 19.328125 14.066406 C 19.332031 14.050781 19.335938 14.035156 19.34375 14.023438 C 19.34375 14.023438 19.34375 14.023438 19.34375 14.019531 C 19.34375 14.011719 19.347656 14.003906 19.347656 13.996094 C 19.351562 13.996094 19.351562 13.992188 19.351562 13.992188 C 19.355469 13.976562 19.359375 13.964844 19.363281 13.949219 C 19.363281 13.941406 19.367188 13.929688 19.371094 13.921875 C 19.371094 13.917969 19.371094 13.917969 19.371094 13.917969 C 19.375 13.90625 19.378906 13.890625 19.382812 13.878906 C 19.382812 13.878906 19.382812 13.875 19.382812 13.875 C 19.382812 13.867188 19.386719 13.855469 19.390625 13.847656 C 19.390625 13.847656 19.390625 13.84375 19.390625 13.84375 C 19.394531 13.832031 19.394531 13.816406 19.398438 13.804688 C 19.402344 13.792969 19.40625 13.78125 19.40625 13.773438 C 19.410156 13.757812 19.414062 13.746094 19.414062 13.730469 C 19.414062 13.730469 19.414062 13.730469 19.417969 13.730469 C 19.417969 13.71875 19.421875 13.710938 19.421875 13.699219 C 19.425781 13.683594 19.429688 13.671875 19.429688 13.65625 C 19.433594 13.644531 19.433594 13.636719 19.4375 13.625 C 19.4375 13.609375 19.441406 13.597656 19.441406 13.582031 C 19.445312 13.570312 19.445312 13.5625 19.445312 13.550781 C 19.449219 13.535156 19.449219 13.523438 19.453125 13.507812 C 19.453125 13.5 19.453125 13.488281 19.457031 13.476562 C 19.457031 13.460938 19.457031 13.449219 19.460938 13.433594 C 19.460938 13.421875 19.460938 13.414062 19.460938 13.402344 C 19.460938 13.386719 19.460938 13.375 19.464844 13.359375 C 19.464844 13.347656 19.464844 13.339844 19.464844 13.328125 C 19.464844 13.3125 19.464844 13.296875 19.464844 13.28125 Z M 14.753906 18.65625 C 14.761719 18.644531 14.773438 18.636719 14.777344 18.628906 C 14.816406 18.578125 14.851562 18.550781 14.886719 18.546875 C 14.890625 18.542969 14.894531 18.542969 14.898438 18.542969 C 14.902344 18.542969 14.90625 18.542969 14.90625 18.542969 C 14.90625 18.546875 14.910156 18.558594 14.90625 18.570312 C 14.894531 18.609375 14.851562 18.644531 14.796875 18.660156 C 14.773438 18.667969 14.753906 18.671875 14.734375 18.675781 C 14.742188 18.667969 14.75 18.660156 14.753906 18.65625 Z M 16.972656 18.65625 C 16.984375 18.644531 16.992188 18.632812 16.996094 18.628906 C 17.035156 18.578125 17.070312 18.550781 17.105469 18.546875 C 17.113281 18.542969 17.117188 18.542969 17.121094 18.542969 C 17.125 18.542969 17.125 18.542969 17.125 18.542969 C 17.128906 18.546875 17.128906 18.558594 17.125 18.570312 C 17.117188 18.609375 17.074219 18.644531 17.019531 18.660156 C 16.996094 18.667969 16.972656 18.671875 16.957031 18.675781 C 16.964844 18.667969 16.96875 18.660156 16.972656 18.65625 Z M 15.582031 13.988281 C 15.546875 13.972656 15.515625 13.941406 15.480469 13.90625 C 15.460938 13.886719 15.4375 13.867188 15.417969 13.847656 C 15.339844 13.785156 15.253906 13.75 15.171875 13.714844 C 15.097656 13.683594 15.027344 13.652344 14.96875 13.605469 C 14.820312 13.488281 14.769531 13.285156 14.730469 13.0625 C 14.707031 12.933594 14.679688 12.796875 14.695312 12.664062 C 14.710938 12.527344 14.773438 12.414062 14.863281 12.355469 C 15.023438 12.25 15.238281 12.203125 15.453125 12.203125 C 15.703125 12.203125 15.960938 12.269531 16.136719 12.402344 C 16.214844 12.460938 16.265625 12.511719 16.296875 12.566406 C 16.359375 12.664062 16.375 12.785156 16.378906 12.890625 C 16.402344 13.183594 16.363281 13.417969 16.265625 13.609375 C 16.257812 13.625 16.25 13.644531 16.238281 13.660156 C 16.234375 13.664062 16.234375 13.667969 16.230469 13.671875 C 16.222656 13.683594 16.214844 13.695312 16.207031 13.707031 C 16.203125 13.710938 16.203125 13.714844 16.199219 13.71875 C 16.1875 13.730469 16.179688 13.746094 16.167969 13.757812 C 16.167969 13.757812 16.164062 13.761719 16.164062 13.761719 C 16.152344 13.777344 16.140625 13.789062 16.125 13.804688 C 16.117188 13.8125 16.105469 13.816406 16.09375 13.824219 C 16.085938 13.832031 16.074219 13.839844 16.0625 13.847656 C 16.058594 13.847656 16.058594 13.851562 16.054688 13.851562 C 16.042969 13.859375 16.03125 13.867188 16.019531 13.875 C 16.019531 13.875 16.015625 13.878906 16.015625 13.878906 C 16.003906 13.886719 15.992188 13.894531 15.980469 13.902344 C 15.96875 13.910156 15.953125 13.917969 15.941406 13.925781 C 15.941406 13.925781 15.9375 13.925781 15.9375 13.929688 C 15.925781 13.933594 15.914062 13.941406 15.902344 13.949219 C 15.886719 13.957031 15.875 13.960938 15.863281 13.964844 C 15.863281 13.96875 15.863281 13.96875 15.859375 13.96875 C 15.847656 13.972656 15.835938 13.980469 15.824219 13.984375 C 15.824219 13.984375 15.820312 13.984375 15.820312 13.984375 C 15.808594 13.988281 15.796875 13.992188 15.785156 13.996094 C 15.773438 14 15.761719 14 15.75 14.003906 C 15.738281 14.003906 15.726562 14.007812 15.714844 14.007812 C 15.660156 14.011719 15.617188 14.003906 15.582031 13.988281 Z M 15.582031 13.988281 " fill-opacity="1" fill-rule="nonzero"/></g><g clip-path="url(#7b6bc8e06e)"><path fill="#e7688b" d="M 19.300781 13.050781 C 19.1875 12.46875 18.949219 11.910156 18.707031 11.390625 C 18.269531 10.441406 17.367188 9.324219 16.152344 9.03125 C 15.386719 8.847656 14.667969 8.855469 14.070312 9.046875 C 13.441406 9.25 12.902344 9.53125 12.457031 9.882812 C 12.417969 9.992188 12.417969 10.109375 12.417969 10.234375 C 12.417969 10.398438 12.417969 10.570312 12.316406 10.726562 C 12.1875 10.925781 12.027344 11.09375 11.878906 11.253906 C 11.652344 11.496094 11.4375 11.726562 11.324219 12.03125 C 11.136719 12.574219 11.503906 13.035156 11.890625 13.414062 C 12.085938 13.582031 12.144531 13.859375 12.054688 14.152344 C 11.851562 14.816406 11.894531 15.359375 12.191406 15.765625 C 12.472656 16.15625 12.882812 16.167969 13.316406 16.179688 C 13.484375 16.183594 13.65625 16.191406 13.828125 16.214844 C 14.035156 16.246094 14.089844 16.355469 14.148438 16.476562 C 14.164062 16.511719 14.179688 16.546875 14.203125 16.582031 C 14.296875 16.742188 14.433594 16.871094 14.59375 16.957031 C 14.699219 17.011719 14.863281 17.074219 15.042969 17.050781 C 15.140625 17.042969 15.230469 17.019531 15.316406 16.996094 C 15.46875 16.957031 15.621094 16.914062 15.804688 16.9375 C 15.875 16.945312 15.941406 16.953125 16.011719 16.960938 C 16.242188 16.992188 16.480469 17.023438 16.707031 17.003906 C 16.71875 17.003906 16.726562 17 16.738281 17 C 16.882812 16.9375 17.027344 16.871094 17.167969 16.796875 C 17.320312 16.714844 17.46875 16.628906 17.601562 16.539062 C 17.613281 16.527344 17.625 16.515625 17.632812 16.503906 C 17.648438 16.484375 17.671875 16.476562 17.695312 16.476562 C 17.996094 16.269531 18.25 16.039062 18.453125 15.789062 C 18.734375 15.4375 18.886719 15.085938 19.003906 14.679688 C 19.023438 14.625 19.039062 14.566406 19.054688 14.503906 C 19.082031 14.402344 19.113281 14.296875 19.144531 14.195312 C 19.160156 14.148438 19.171875 14.101562 19.1875 14.054688 C 19.285156 13.722656 19.367188 13.386719 19.300781 13.050781 Z M 15.492188 9.113281 C 15.574219 9.097656 15.660156 9.117188 15.726562 9.164062 C 15.757812 9.1875 15.765625 9.230469 15.742188 9.261719 C 15.730469 9.28125 15.707031 9.292969 15.6875 9.292969 C 15.671875 9.292969 15.65625 9.289062 15.644531 9.277344 C 15.609375 9.253906 15.5625 9.242188 15.515625 9.25 C 15.480469 9.257812 15.441406 9.234375 15.433594 9.195312 C 15.425781 9.160156 15.453125 9.121094 15.492188 9.113281 Z M 15.425781 9.894531 C 15.535156 9.820312 15.683594 9.777344 15.828125 9.773438 C 15.886719 9.773438 16.351562 9.847656 16.394531 10.027344 C 16.402344 10.054688 16.402344 10.109375 16.34375 10.164062 C 16.308594 10.199219 16.257812 10.210938 16.21875 10.21875 C 16.0625 10.253906 15.90625 10.269531 15.746094 10.269531 C 15.664062 10.269531 15.582031 10.265625 15.503906 10.253906 C 15.347656 10.238281 15.304688 10.167969 15.292969 10.125 C 15.273438 10.046875 15.324219 9.964844 15.425781 9.894531 Z M 16.175781 10.457031 C 16.171875 10.492188 16.140625 10.519531 16.105469 10.519531 C 16.101562 10.519531 16.101562 10.519531 16.097656 10.519531 C 16 10.511719 15.902344 10.496094 15.808594 10.472656 C 15.769531 10.464844 15.746094 10.425781 15.757812 10.386719 C 15.765625 10.351562 15.804688 10.328125 15.84375 10.335938 C 15.929688 10.359375 16.019531 10.375 16.109375 10.382812 C 16.148438 10.386719 16.179688 10.417969 16.175781 10.457031 Z M 15.277344 10.464844 C 15.289062 10.425781 15.320312 10.390625 15.355469 10.375 C 15.40625 10.347656 15.460938 10.355469 15.507812 10.363281 C 15.535156 10.367188 15.558594 10.390625 15.5625 10.414062 C 15.582031 10.433594 15.597656 10.460938 15.597656 10.484375 C 15.605469 10.535156 15.574219 10.585938 15.523438 10.609375 C 15.496094 10.625 15.46875 10.628906 15.445312 10.628906 C 15.433594 10.628906 15.425781 10.628906 15.417969 10.625 C 15.359375 10.621094 15.316406 10.601562 15.292969 10.5625 C 15.273438 10.53125 15.269531 10.496094 15.277344 10.464844 Z M 15.234375 11.0625 L 15.484375 10.941406 C 15.46875 10.914062 15.449219 10.886719 15.4375 10.859375 C 15.417969 10.824219 15.429688 10.785156 15.464844 10.765625 C 15.5 10.746094 15.542969 10.761719 15.5625 10.792969 C 15.578125 10.824219 15.59375 10.851562 15.613281 10.878906 C 15.699219 10.839844 15.800781 10.796875 15.910156 10.800781 C 15.925781 10.800781 15.949219 10.804688 15.972656 10.820312 C 15.996094 10.835938 16.007812 10.855469 16.015625 10.871094 C 16.050781 10.953125 16.039062 11.03125 16.027344 11.105469 C 16.023438 11.140625 16.019531 11.175781 16.019531 11.210938 C 16.019531 11.25 15.992188 11.28125 15.953125 11.28125 C 15.949219 11.28125 15.949219 11.28125 15.949219 11.28125 C 15.910156 11.28125 15.878906 11.253906 15.878906 11.214844 C 15.875 11.171875 15.882812 11.125 15.886719 11.085938 C 15.898438 11.027344 15.90625 10.980469 15.890625 10.941406 C 15.890625 10.941406 15.886719 10.941406 15.886719 10.941406 C 15.808594 10.941406 15.726562 10.980469 15.65625 11.011719 L 15.296875 11.1875 C 15.261719 11.203125 15.21875 11.1875 15.203125 11.15625 C 15.183594 11.121094 15.199219 11.078125 15.234375 11.0625 Z M 15.164062 10.527344 C 15.15625 10.570312 15.128906 10.609375 15.089844 10.628906 C 15.066406 10.640625 15.042969 10.644531 15.015625 10.644531 C 14.984375 10.644531 14.953125 10.640625 14.917969 10.625 C 14.90625 10.617188 14.863281 10.601562 14.851562 10.558594 C 14.84375 10.535156 14.84375 10.511719 14.851562 10.488281 C 14.875 10.425781 14.941406 10.382812 15.007812 10.386719 C 15.03125 10.386719 15.054688 10.394531 15.074219 10.40625 C 15.09375 10.402344 15.117188 10.410156 15.132812 10.425781 C 15.160156 10.453125 15.171875 10.492188 15.164062 10.527344 Z M 14.457031 9.558594 C 14.527344 9.5625 14.59375 9.546875 14.65625 9.519531 C 14.691406 9.5 14.734375 9.515625 14.753906 9.550781 C 14.769531 9.585938 14.753906 9.625 14.71875 9.644531 C 14.644531 9.679688 14.5625 9.699219 14.476562 9.699219 C 14.46875 9.699219 14.457031 9.699219 14.449219 9.699219 C 14.410156 9.695312 14.378906 9.664062 14.382812 9.625 C 14.382812 9.585938 14.417969 9.554688 14.457031 9.558594 Z M 14.195312 10.332031 C 14.152344 10.328125 14.105469 10.320312 14.0625 10.292969 C 13.996094 10.246094 13.992188 10.191406 13.992188 10.160156 C 14.011719 9.976562 14.464844 9.847656 14.523438 9.839844 C 14.667969 9.824219 14.824219 9.851562 14.9375 9.910156 C 15.050781 9.964844 15.109375 10.042969 15.097656 10.121094 C 15.09375 10.164062 15.0625 10.242188 14.910156 10.277344 C 14.734375 10.316406 14.558594 10.339844 14.378906 10.339844 C 14.316406 10.339844 14.257812 10.335938 14.195312 10.332031 Z M 14.351562 10.734375 C 14.347656 10.734375 14.34375 10.734375 14.339844 10.734375 C 14.308594 10.734375 14.277344 10.710938 14.269531 10.679688 C 14.265625 10.640625 14.292969 10.605469 14.328125 10.597656 C 14.441406 10.582031 14.542969 10.511719 14.597656 10.417969 C 14.617188 10.382812 14.660156 10.371094 14.695312 10.390625 C 14.730469 10.410156 14.742188 10.453125 14.722656 10.488281 C 14.644531 10.617188 14.503906 10.710938 14.351562 10.734375 Z M 16.816406 13.371094 C 16.722656 13.609375 16.476562 13.753906 16.300781 13.855469 C 16.265625 13.878906 16.222656 13.90625 16.175781 13.9375 C 16.035156 14.035156 15.878906 14.144531 15.722656 14.144531 C 15.707031 14.144531 15.695312 14.148438 15.683594 14.148438 C 15.621094 14.148438 15.566406 14.136719 15.519531 14.113281 C 15.460938 14.085938 15.417969 14.042969 15.378906 14.003906 C 15.359375 13.984375 15.34375 13.96875 15.324219 13.953125 C 15.265625 13.902344 15.191406 13.875 15.117188 13.839844 C 15.035156 13.804688 14.953125 13.773438 14.882812 13.714844 C 14.675781 13.554688 14.625 13.273438 14.589844 13.089844 L 14.589844 13.078125 C 14.542969 12.828125 14.503906 12.609375 14.589844 12.339844 C 14.648438 12.144531 14.765625 11.992188 14.914062 11.910156 C 14.988281 11.867188 15.066406 11.84375 15.144531 11.824219 C 15.402344 11.746094 15.699219 11.660156 15.996094 11.683594 C 16.246094 11.703125 16.480469 11.808594 16.625 11.96875 C 16.671875 12.023438 16.710938 12.082031 16.734375 12.144531 C 16.789062 12.269531 16.796875 12.402344 16.808594 12.527344 C 16.8125 12.566406 16.8125 12.605469 16.816406 12.644531 C 16.824219 12.691406 16.832031 12.746094 16.839844 12.796875 C 16.867188 12.988281 16.894531 13.183594 16.816406 13.371094 Z M 16.816406 13.371094 " fill-opacity="1" fill-rule="nonzero"/></g><path fill="#f6f6f6" d="M 14.207031 10.191406 C 14.183594 10.191406 14.15625 10.1875 14.144531 10.179688 C 14.140625 10.175781 14.136719 10.171875 14.136719 10.171875 C 14.164062 10.109375 14.457031 9.988281 14.539062 9.980469 C 14.542969 9.976562 14.550781 9.976562 14.554688 9.976562 C 14.535156 10.039062 14.546875 10.109375 14.589844 10.167969 C 14.597656 10.171875 14.601562 10.179688 14.609375 10.1875 C 14.476562 10.203125 14.339844 10.203125 14.207031 10.191406 Z M 15.8125 9.9375 C 15.816406 9.929688 15.816406 9.921875 15.820312 9.914062 C 15.707031 9.917969 15.589844 9.953125 15.507812 10.007812 C 15.441406 10.050781 15.429688 10.085938 15.433594 10.089844 C 15.433594 10.089844 15.445312 10.109375 15.519531 10.117188 C 15.640625 10.128906 15.765625 10.132812 15.890625 10.125 C 15.828125 10.070312 15.800781 10 15.8125 9.9375 Z M 12.878906 14.980469 C 12.84375 14.96875 12.800781 14.984375 12.785156 15.019531 C 12.746094 15.105469 12.730469 15.207031 12.738281 15.300781 C 12.742188 15.339844 12.773438 15.367188 12.8125 15.367188 C 12.8125 15.367188 12.816406 15.367188 12.816406 15.363281 C 12.855469 15.363281 12.882812 15.328125 12.882812 15.289062 C 12.875 15.214844 12.886719 15.140625 12.917969 15.074219 C 12.933594 15.039062 12.914062 14.996094 12.878906 14.980469 Z M 12.792969 11.8125 C 12.800781 11.8125 12.808594 11.808594 12.816406 11.804688 C 12.855469 11.792969 12.871094 11.75 12.859375 11.714844 C 12.816406 11.609375 12.78125 11.496094 12.757812 11.382812 C 12.75 11.347656 12.714844 11.320312 12.675781 11.328125 C 12.636719 11.335938 12.613281 11.371094 12.621094 11.410156 C 12.644531 11.53125 12.679688 11.652344 12.726562 11.765625 C 12.738281 11.792969 12.765625 11.8125 12.792969 11.8125 Z M 18.101562 11.800781 L 18.421875 11.9375 C 18.429688 11.941406 18.441406 11.941406 18.449219 11.941406 C 18.476562 11.941406 18.503906 11.925781 18.515625 11.902344 C 18.53125 11.867188 18.511719 11.824219 18.476562 11.808594 L 18.15625 11.675781 C 18.121094 11.660156 18.078125 11.675781 18.0625 11.710938 C 18.046875 11.746094 18.066406 11.785156 18.101562 11.800781 Z M 16.988281 11.214844 C 16.953125 11.195312 16.910156 11.210938 16.890625 11.242188 L 16.734375 11.535156 C 16.714844 11.570312 16.730469 11.609375 16.765625 11.628906 C 16.773438 11.632812 16.785156 11.636719 16.796875 11.636719 C 16.820312 11.636719 16.847656 11.625 16.859375 11.601562 L 17.015625 11.308594 C 17.035156 11.273438 17.023438 11.230469 16.988281 11.214844 Z M 13.863281 11.144531 C 13.871094 11.109375 13.847656 11.070312 13.8125 11.058594 C 13.742188 11.039062 13.675781 11.003906 13.625 10.953125 C 13.59375 10.925781 13.550781 10.929688 13.523438 10.957031 C 13.496094 10.984375 13.496094 11.027344 13.523438 11.054688 C 13.59375 11.121094 13.679688 11.167969 13.773438 11.195312 C 13.78125 11.195312 13.785156 11.195312 13.792969 11.195312 C 13.824219 11.195312 13.851562 11.175781 13.863281 11.144531 Z M 11.992188 11.988281 C 11.960938 11.964844 11.917969 11.972656 11.894531 12.003906 C 11.828125 12.089844 11.769531 12.1875 11.722656 12.289062 C 11.707031 12.320312 11.722656 12.363281 11.757812 12.378906 C 11.765625 12.382812 11.777344 12.386719 11.785156 12.386719 C 11.8125 12.386719 11.839844 12.371094 11.851562 12.347656 C 11.894531 12.253906 11.949219 12.167969 12.007812 12.082031 C 12.03125 12.050781 12.027344 12.007812 11.992188 11.988281 Z M 13.261719 13.683594 C 13.1875 13.640625 13.128906 13.578125 13.082031 13.507812 C 13.0625 13.472656 13.019531 13.460938 12.984375 13.484375 C 12.953125 13.503906 12.941406 13.546875 12.960938 13.578125 C 13.019531 13.667969 13.097656 13.746094 13.191406 13.800781 C 13.203125 13.808594 13.214844 13.8125 13.226562 13.8125 C 13.25 13.8125 13.273438 13.800781 13.289062 13.777344 C 13.308594 13.746094 13.296875 13.703125 13.261719 13.683594 Z M 14.070312 12.867188 L 13.867188 13.011719 C 13.835938 13.035156 13.832031 13.078125 13.855469 13.109375 C 13.867188 13.128906 13.890625 13.136719 13.910156 13.136719 C 13.925781 13.136719 13.941406 13.132812 13.953125 13.125 L 14.152344 12.980469 C 14.183594 12.957031 14.191406 12.914062 14.167969 12.882812 C 14.144531 12.851562 14.101562 12.84375 14.070312 12.867188 Z M 15.1875 15.128906 C 15.203125 15.128906 15.21875 15.125 15.234375 15.113281 C 15.261719 15.085938 15.265625 15.042969 15.238281 15.015625 C 15.175781 14.941406 15.144531 14.84375 15.152344 14.75 C 15.15625 14.710938 15.125 14.675781 15.085938 14.675781 C 15.046875 14.671875 15.015625 14.699219 15.011719 14.738281 C 14.996094 14.867188 15.042969 15.007812 15.132812 15.105469 C 15.148438 15.121094 15.167969 15.128906 15.1875 15.128906 Z M 14.761719 16.03125 L 14.425781 16.015625 C 14.386719 16.015625 14.351562 16.042969 14.351562 16.082031 C 14.347656 16.121094 14.378906 16.152344 14.417969 16.15625 L 14.753906 16.171875 C 14.753906 16.171875 14.757812 16.171875 14.757812 16.171875 C 14.796875 16.171875 14.828125 16.140625 14.828125 16.105469 C 14.832031 16.066406 14.800781 16.03125 14.761719 16.03125 Z M 17.101562 16.058594 C 17.0625 16.046875 17.023438 16.070312 17.011719 16.105469 C 16.976562 16.222656 16.957031 16.34375 16.957031 16.46875 C 16.953125 16.503906 16.984375 16.539062 17.023438 16.539062 C 17.023438 16.539062 17.027344 16.539062 17.027344 16.539062 C 17.066406 16.539062 17.097656 16.507812 17.097656 16.46875 C 17.097656 16.359375 17.117188 16.25 17.148438 16.148438 C 17.160156 16.109375 17.136719 16.070312 17.101562 16.058594 Z M 18.097656 13.988281 C 18.058594 13.980469 18.019531 14.007812 18.011719 14.042969 L 17.914062 14.558594 C 17.910156 14.597656 17.933594 14.632812 17.972656 14.640625 C 17.976562 14.640625 17.980469 14.640625 17.984375 14.640625 C 18.019531 14.640625 18.046875 14.617188 18.054688 14.585938 L 18.152344 14.070312 C 18.160156 14.03125 18.132812 13.996094 18.097656 13.988281 Z M 18.59375 13.394531 C 18.507812 13.335938 18.414062 13.289062 18.3125 13.253906 C 18.277344 13.242188 18.234375 13.257812 18.222656 13.292969 C 18.207031 13.332031 18.226562 13.371094 18.265625 13.382812 C 18.351562 13.417969 18.4375 13.460938 18.515625 13.511719 C 18.527344 13.519531 18.542969 13.523438 18.554688 13.523438 C 18.578125 13.523438 18.601562 13.511719 18.613281 13.492188 C 18.636719 13.460938 18.628906 13.417969 18.59375 13.394531 Z M 17.339844 13.847656 C 17.332031 13.8125 17.296875 13.785156 17.257812 13.792969 C 17.21875 13.796875 17.195312 13.835938 17.199219 13.871094 C 17.222656 14.007812 17.296875 14.136719 17.402344 14.226562 C 17.414062 14.238281 17.429688 14.246094 17.449219 14.246094 C 17.46875 14.246094 17.488281 14.238281 17.5 14.222656 C 17.527344 14.195312 17.523438 14.148438 17.496094 14.125 C 17.414062 14.050781 17.359375 13.953125 17.339844 13.847656 Z M 17.003906 15.355469 C 17.03125 15.355469 17.058594 15.339844 17.070312 15.3125 L 17.144531 15.140625 C 17.160156 15.105469 17.144531 15.0625 17.109375 15.046875 C 17.070312 15.03125 17.03125 15.046875 17.015625 15.082031 L 16.9375 15.257812 C 16.921875 15.292969 16.941406 15.332031 16.976562 15.347656 C 16.984375 15.351562 16.996094 15.355469 17.003906 15.355469 Z M 17.21875 10.8125 C 17.230469 10.835938 17.257812 10.847656 17.28125 10.847656 C 17.292969 10.847656 17.304688 10.84375 17.316406 10.839844 C 17.351562 10.820312 17.363281 10.777344 17.34375 10.746094 C 17.296875 10.65625 17.238281 10.574219 17.175781 10.496094 C 17.152344 10.46875 17.109375 10.460938 17.078125 10.484375 C 17.046875 10.507812 17.039062 10.554688 17.066406 10.582031 C 17.121094 10.65625 17.175781 10.730469 17.21875 10.8125 Z M 15.375 16.585938 C 15.328125 16.550781 15.289062 16.507812 15.257812 16.457031 C 15.234375 16.425781 15.191406 16.414062 15.160156 16.4375 C 15.125 16.457031 15.117188 16.5 15.136719 16.53125 C 15.179688 16.59375 15.230469 16.648438 15.289062 16.695312 C 15.300781 16.707031 15.316406 16.710938 15.332031 16.710938 C 15.355469 16.710938 15.375 16.703125 15.386719 16.683594 C 15.414062 16.652344 15.40625 16.609375 15.375 16.585938 Z M 15.375 16.585938 " fill-opacity="1" fill-rule="nonzero"/><g clip-path="url(#7c8d410ea4)"><path fill="#e3a575" d="M 14.789062 12.238281 C 14.785156 12.238281 14.785156 12.242188 14.78125 12.242188 C 14.832031 12.148438 14.902344 12.074219 14.984375 12.03125 C 15.042969 11.996094 15.113281 11.976562 15.183594 11.957031 C 15.414062 11.886719 15.65625 11.820312 15.894531 11.820312 C 15.925781 11.820312 15.957031 11.820312 15.984375 11.820312 C 16.199219 11.835938 16.398438 11.925781 16.515625 12.0625 C 16.554688 12.105469 16.582031 12.152344 16.605469 12.199219 C 16.648438 12.304688 16.65625 12.417969 16.667969 12.539062 C 16.667969 12.578125 16.671875 12.617188 16.675781 12.65625 C 16.679688 12.710938 16.6875 12.761719 16.695312 12.816406 C 16.722656 12.996094 16.75 13.167969 16.6875 13.320312 C 16.636719 13.441406 16.539062 13.535156 16.417969 13.617188 C 16.507812 13.414062 16.542969 13.171875 16.523438 12.878906 C 16.511719 12.757812 16.496094 12.617188 16.417969 12.496094 C 16.375 12.425781 16.316406 12.359375 16.226562 12.292969 C 15.84375 12.007812 15.1875 11.980469 14.789062 12.238281 Z M 16.160156 17.355469 C 16.179688 17.683594 16.195312 18.015625 16.210938 18.34375 C 16.304688 18.339844 16.433594 18.328125 16.46875 18.324219 C 16.480469 18.3125 16.5 18.304688 16.519531 18.304688 C 16.523438 18.304688 16.53125 18.304688 16.535156 18.304688 C 16.539062 18.300781 16.546875 18.300781 16.550781 18.296875 C 16.589844 18.277344 16.640625 18.257812 16.691406 18.253906 C 16.703125 17.964844 16.71875 17.65625 16.734375 17.378906 C 16.738281 17.296875 16.742188 17.21875 16.746094 17.148438 C 16.554688 17.226562 16.359375 17.296875 16.160156 17.355469 Z M 15.992188 17.101562 C 15.925781 17.089844 15.855469 17.082031 15.789062 17.074219 C 15.632812 17.058594 15.496094 17.09375 15.355469 17.128906 C 15.261719 17.152344 15.164062 17.179688 15.058594 17.191406 C 15.027344 17.195312 15 17.195312 14.96875 17.195312 C 14.824219 17.195312 14.671875 17.15625 14.527344 17.078125 C 14.34375 16.980469 14.1875 16.835938 14.078125 16.652344 C 14.054688 16.609375 14.035156 16.570312 14.019531 16.535156 C 13.964844 16.425781 13.941406 16.371094 13.804688 16.355469 C 13.644531 16.328125 13.472656 16.324219 13.3125 16.320312 C 12.863281 16.304688 12.398438 16.292969 12.078125 15.847656 C 11.753906 15.402344 11.699219 14.820312 11.921875 14.113281 C 11.957031 13.996094 12.015625 13.707031 11.796875 13.515625 C 11.792969 13.515625 11.792969 13.515625 11.792969 13.511719 C 11.375 13.105469 10.980469 12.605469 11.191406 11.984375 C 11.3125 11.652344 11.546875 11.402344 11.773438 11.160156 C 11.921875 11.003906 12.074219 10.839844 12.195312 10.652344 C 12.277344 10.527344 12.277344 10.386719 12.277344 10.234375 C 12.277344 10.164062 12.277344 10.097656 12.28125 10.027344 C 11.78125 10.46875 11.421875 11.015625 11.207031 11.65625 C 10.953125 12.425781 10.90625 13.300781 11.078125 14.191406 C 11.328125 15.488281 12.007812 16.527344 12.945312 17.039062 C 13.207031 17.183594 13.5 17.292969 13.808594 17.359375 C 13.800781 17.289062 13.796875 17.21875 13.792969 17.148438 C 13.792969 17.109375 13.820312 17.078125 13.859375 17.074219 C 13.898438 17.074219 13.933594 17.101562 13.933594 17.140625 C 13.9375 17.148438 13.9375 17.152344 13.9375 17.160156 C 13.960938 17.554688 13.980469 17.949219 13.996094 18.34375 C 14.089844 18.339844 14.214844 18.332031 14.246094 18.328125 C 14.261719 18.3125 14.277344 18.304688 14.300781 18.304688 C 14.304688 18.304688 14.308594 18.304688 14.3125 18.304688 C 14.320312 18.300781 14.324219 18.300781 14.332031 18.296875 C 14.367188 18.28125 14.410156 18.261719 14.457031 18.253906 C 14.457031 17.90625 14.464844 17.5625 14.472656 17.292969 C 14.472656 17.289062 14.476562 17.28125 14.476562 17.277344 C 14.484375 17.246094 14.511719 17.222656 14.546875 17.222656 C 14.585938 17.226562 14.617188 17.257812 14.617188 17.296875 C 14.613281 17.34375 14.613281 17.398438 14.609375 17.449219 C 15.042969 17.453125 15.496094 17.394531 15.960938 17.269531 C 16.097656 17.234375 16.234375 17.191406 16.371094 17.144531 C 16.242188 17.132812 16.117188 17.117188 15.992188 17.101562 Z M 15.992188 17.101562 " fill-opacity="1" fill-rule="nonzero"/></g><g clip-path="url(#b394eb0669)"><path fill="#f4c524" d="M 12.472656 12.6875 C 12.46875 12.648438 12.496094 12.613281 12.535156 12.609375 L 12.953125 12.566406 C 12.992188 12.5625 13.023438 12.589844 13.027344 12.628906 C 13.03125 12.667969 13.003906 12.699219 12.964844 12.703125 L 12.550781 12.746094 C 12.546875 12.75 12.546875 12.75 12.542969 12.75 C 12.507812 12.75 12.476562 12.722656 12.472656 12.6875 Z M 17.765625 11.136719 C 17.765625 11.136719 17.765625 11.136719 17.769531 11.136719 C 17.808594 11.136719 17.835938 11.101562 17.835938 11.0625 C 17.832031 10.996094 17.847656 10.925781 17.882812 10.863281 C 17.898438 10.828125 17.886719 10.785156 17.851562 10.769531 C 17.816406 10.75 17.773438 10.765625 17.757812 10.796875 C 17.710938 10.882812 17.691406 10.976562 17.695312 11.070312 C 17.695312 11.109375 17.726562 11.136719 17.765625 11.136719 Z M 13.703125 12.398438 C 13.742188 12.394531 13.765625 12.355469 13.757812 12.316406 C 13.742188 12.226562 13.742188 12.132812 13.761719 12.042969 C 13.769531 12.003906 13.742188 11.96875 13.707031 11.960938 C 13.667969 11.953125 13.628906 11.976562 13.621094 12.015625 C 13.601562 12.121094 13.597656 12.234375 13.621094 12.34375 C 13.625 12.378906 13.65625 12.402344 13.691406 12.402344 C 13.695312 12.402344 13.699219 12.402344 13.703125 12.398438 Z M 14.15625 15.085938 C 14.148438 15.050781 14.113281 15.023438 14.074219 15.03125 C 13.949219 15.050781 13.824219 15.089844 13.707031 15.140625 C 13.671875 15.15625 13.65625 15.199219 13.671875 15.234375 C 13.683594 15.257812 13.710938 15.273438 13.738281 15.273438 C 13.746094 15.273438 13.757812 15.273438 13.765625 15.269531 C 13.871094 15.222656 13.984375 15.1875 14.097656 15.167969 C 14.136719 15.160156 14.164062 15.125 14.15625 15.085938 Z M 14.097656 14.050781 C 14.109375 14.050781 14.121094 14.046875 14.132812 14.039062 C 14.167969 14.019531 14.175781 13.976562 14.15625 13.945312 C 14.136719 13.914062 14.136719 13.871094 14.152344 13.84375 C 14.171875 13.808594 14.15625 13.765625 14.121094 13.746094 C 14.089844 13.730469 14.046875 13.742188 14.027344 13.777344 C 13.988281 13.851562 13.992188 13.945312 14.035156 14.019531 C 14.050781 14.039062 14.074219 14.050781 14.097656 14.050781 Z M 12.976562 14.371094 C 12.84375 14.359375 12.703125 14.339844 12.570312 14.316406 C 12.53125 14.308594 12.496094 14.332031 12.488281 14.371094 C 12.480469 14.40625 12.503906 14.445312 12.542969 14.453125 C 12.683594 14.480469 12.824219 14.5 12.964844 14.511719 C 12.96875 14.511719 12.96875 14.511719 12.972656 14.511719 C 13.007812 14.511719 13.039062 14.484375 13.042969 14.445312 C 13.046875 14.410156 13.015625 14.375 12.976562 14.371094 Z M 16.460938 15.019531 C 16.464844 15.023438 16.46875 15.023438 16.472656 15.023438 C 16.507812 15.023438 16.535156 15 16.542969 14.964844 C 16.554688 14.894531 16.59375 14.832031 16.644531 14.78125 C 16.675781 14.757812 16.675781 14.710938 16.652344 14.683594 C 16.625 14.65625 16.578125 14.652344 16.550781 14.679688 C 16.472656 14.75 16.421875 14.839844 16.402344 14.941406 C 16.394531 14.976562 16.421875 15.015625 16.460938 15.019531 Z M 16.195312 16.089844 C 16.191406 16.050781 16.152344 16.027344 16.117188 16.03125 C 15.992188 16.050781 15.863281 16.058594 15.738281 16.058594 C 15.699219 16.058594 15.667969 16.085938 15.667969 16.125 C 15.664062 16.164062 15.695312 16.195312 15.734375 16.195312 C 15.757812 16.195312 15.777344 16.195312 15.796875 16.195312 C 15.910156 16.195312 16.027344 16.1875 16.140625 16.167969 C 16.175781 16.164062 16.203125 16.125 16.195312 16.089844 Z M 18.003906 15.253906 C 17.867188 15.28125 17.738281 15.332031 17.617188 15.40625 C 17.585938 15.425781 17.574219 15.46875 17.597656 15.503906 C 17.609375 15.523438 17.632812 15.535156 17.65625 15.535156 C 17.667969 15.535156 17.683594 15.53125 17.691406 15.523438 C 17.796875 15.460938 17.914062 15.414062 18.035156 15.390625 C 18.070312 15.382812 18.097656 15.347656 18.089844 15.308594 C 18.082031 15.269531 18.042969 15.246094 18.003906 15.253906 Z M 18.851562 12.660156 C 18.8125 12.652344 18.773438 12.679688 18.769531 12.714844 C 18.753906 12.8125 18.75 12.910156 18.753906 13.007812 C 18.757812 13.046875 18.789062 13.074219 18.824219 13.074219 C 18.828125 13.074219 18.828125 13.074219 18.828125 13.074219 C 18.867188 13.070312 18.898438 13.039062 18.894531 13 C 18.890625 12.914062 18.894531 12.824219 18.910156 12.738281 C 18.914062 12.699219 18.886719 12.664062 18.851562 12.660156 Z M 17.746094 13.273438 C 17.75 13.277344 17.757812 13.277344 17.761719 13.277344 C 17.792969 13.277344 17.824219 13.253906 17.832031 13.222656 C 17.84375 13.15625 17.890625 13.097656 17.949219 13.0625 C 17.984375 13.042969 17.996094 13 17.976562 12.96875 C 17.957031 12.933594 17.914062 12.921875 17.878906 12.941406 C 17.785156 12.996094 17.714844 13.085938 17.691406 13.191406 C 17.683594 13.230469 17.707031 13.265625 17.746094 13.273438 Z M 13.152344 10.011719 L 12.917969 10.269531 C 12.890625 10.296875 12.894531 10.339844 12.921875 10.367188 C 12.9375 10.378906 12.953125 10.382812 12.96875 10.382812 C 12.988281 10.382812 13.007812 10.375 13.023438 10.359375 L 13.257812 10.101562 C 13.285156 10.074219 13.28125 10.03125 13.253906 10.003906 C 13.222656 9.980469 13.179688 9.980469 13.152344 10.011719 Z M 17.019531 9.796875 C 17.089844 9.828125 17.15625 9.867188 17.21875 9.914062 C 17.230469 9.925781 17.246094 9.929688 17.261719 9.929688 C 17.28125 9.929688 17.304688 9.921875 17.316406 9.902344 C 17.339844 9.875 17.335938 9.828125 17.304688 9.804688 C 17.234375 9.75 17.160156 9.707031 17.078125 9.671875 C 17.042969 9.65625 17 9.671875 16.984375 9.707031 C 16.96875 9.742188 16.984375 9.78125 17.019531 9.796875 Z M 18.695312 14.347656 C 18.675781 14.316406 18.628906 14.308594 18.597656 14.328125 C 18.566406 14.351562 18.558594 14.394531 18.578125 14.425781 L 18.683594 14.574219 C 18.695312 14.59375 18.71875 14.601562 18.742188 14.601562 C 18.753906 14.601562 18.769531 14.597656 18.78125 14.589844 C 18.8125 14.570312 18.820312 14.527344 18.800781 14.496094 Z M 15.933594 15.441406 C 15.945312 15.460938 15.96875 15.472656 15.992188 15.472656 C 16.003906 15.472656 16.019531 15.46875 16.03125 15.460938 C 16.0625 15.4375 16.070312 15.394531 16.050781 15.363281 C 15.984375 15.273438 15.910156 15.1875 15.832031 15.109375 C 15.804688 15.082031 15.757812 15.085938 15.730469 15.113281 C 15.703125 15.140625 15.703125 15.183594 15.730469 15.210938 C 15.804688 15.28125 15.875 15.359375 15.933594 15.441406 Z M 17.335938 12.257812 C 17.347656 12.265625 17.359375 12.269531 17.375 12.269531 C 17.398438 12.269531 17.421875 12.257812 17.433594 12.238281 C 17.492188 12.152344 17.542969 12.058594 17.585938 11.964844 C 17.601562 11.929688 17.585938 11.890625 17.550781 11.875 C 17.515625 11.859375 17.472656 11.875 17.457031 11.910156 C 17.417969 11.996094 17.371094 12.082031 17.316406 12.164062 C 17.292969 12.195312 17.304688 12.238281 17.335938 12.257812 Z M 14.242188 12.019531 C 14.257812 12.019531 14.269531 12.015625 14.285156 12.003906 L 14.574219 11.792969 C 14.605469 11.769531 14.609375 11.726562 14.585938 11.695312 C 14.5625 11.664062 14.519531 11.660156 14.488281 11.683594 L 14.199219 11.894531 C 14.167969 11.917969 14.160156 11.960938 14.183594 11.992188 C 14.199219 12.007812 14.21875 12.019531 14.242188 12.019531 Z M 14.140625 19.875 C 14.101562 19.863281 14.054688 19.855469 14.003906 19.847656 C 13.945312 19.839844 13.898438 19.820312 13.859375 19.792969 C 13.84375 19.925781 13.816406 20.058594 13.78125 20.1875 C 13.867188 20.1875 13.949219 20.191406 14.03125 20.195312 C 14.070312 20.199219 14.105469 20.199219 14.140625 20.203125 C 14.125 20.09375 14.125 19.984375 14.140625 19.875 Z M 14.570312 19.535156 C 14.589844 19.511719 14.617188 19.492188 14.644531 19.480469 C 14.625 19.449219 14.613281 19.421875 14.597656 19.394531 C 14.5625 19.394531 14.523438 19.417969 14.503906 19.449219 C 14.5 19.449219 14.5 19.449219 14.5 19.449219 C 14.519531 19.476562 14.539062 19.503906 14.5625 19.527344 C 14.566406 19.53125 14.566406 19.53125 14.570312 19.535156 Z M 14.960938 19.835938 C 14.9375 19.820312 14.914062 19.800781 14.890625 19.777344 C 14.867188 19.785156 14.84375 19.796875 14.824219 19.816406 C 14.84375 19.835938 14.867188 19.855469 14.886719 19.878906 C 14.910156 19.863281 14.933594 19.847656 14.960938 19.835938 Z M 15.390625 20.066406 C 15.363281 20.046875 15.332031 20.03125 15.296875 20.015625 L 15.125 19.9375 C 15.121094 19.933594 15.117188 19.933594 15.113281 19.933594 C 14.964844 19.964844 14.835938 20.074219 14.777344 20.210938 C 14.785156 20.210938 14.789062 20.210938 14.796875 20.214844 C 14.96875 20.230469 15.304688 20.238281 15.476562 20.222656 C 15.472656 20.160156 15.441406 20.101562 15.390625 20.066406 Z M 14.730469 19.710938 C 14.746094 19.695312 14.765625 19.683594 14.789062 19.671875 C 14.765625 19.648438 14.746094 19.621094 14.726562 19.59375 C 14.703125 19.605469 14.679688 19.621094 14.664062 19.640625 C 14.664062 19.640625 14.667969 19.644531 14.667969 19.644531 C 14.6875 19.667969 14.710938 19.691406 14.730469 19.710938 Z M 14.535156 18.472656 C 14.535156 18.421875 14.53125 18.410156 14.519531 18.40625 C 14.484375 18.382812 14.457031 18.390625 14.390625 18.421875 C 14.386719 18.425781 14.378906 18.429688 14.371094 18.429688 C 14.371094 18.464844 14.371094 18.5 14.375 18.539062 C 14.386719 18.539062 14.398438 18.539062 14.410156 18.542969 C 14.457031 18.554688 14.5 18.578125 14.535156 18.597656 C 14.535156 18.554688 14.539062 18.511719 14.535156 18.472656 Z M 14.457031 19.621094 C 14.257812 19.402344 14.25 19.164062 14.242188 18.929688 C 14.242188 18.910156 14.242188 18.890625 14.238281 18.871094 C 14.179688 18.835938 14.140625 18.785156 14.136719 18.726562 C 14.128906 18.660156 14.167969 18.59375 14.230469 18.558594 C 14.230469 18.527344 14.230469 18.496094 14.230469 18.46875 C 14.195312 18.46875 14.140625 18.472656 14.066406 18.480469 C 14.019531 18.480469 13.980469 18.484375 13.953125 18.484375 C 13.964844 18.664062 13.96875 18.855469 13.925781 19.054688 C 13.921875 19.074219 13.914062 19.097656 13.910156 19.121094 C 13.875 19.28125 13.816406 19.519531 13.898438 19.636719 C 13.925781 19.675781 13.964844 19.699219 14.027344 19.710938 C 14.367188 19.765625 14.445312 19.835938 14.648438 20.125 L 14.652344 20.128906 C 14.652344 20.128906 14.65625 20.132812 14.65625 20.136719 C 14.6875 20.074219 14.726562 20.015625 14.777344 19.964844 C 14.703125 19.890625 14.628906 19.8125 14.5625 19.738281 C 14.527344 19.699219 14.492188 19.660156 14.457031 19.621094 Z M 14.386719 19.03125 C 14.429688 19.015625 14.476562 19.007812 14.519531 19.003906 C 14.519531 18.964844 14.519531 18.929688 14.519531 18.890625 C 14.484375 18.902344 14.445312 18.910156 14.40625 18.910156 C 14.398438 18.910156 14.390625 18.910156 14.382812 18.910156 C 14.382812 18.914062 14.382812 18.917969 14.382812 18.921875 C 14.382812 18.960938 14.386719 18.996094 14.386719 19.03125 Z M 14.511719 18.746094 C 14.5 18.738281 14.488281 18.730469 14.476562 18.722656 C 14.441406 18.707031 14.410156 18.6875 14.375 18.679688 C 14.378906 18.707031 14.378906 18.738281 14.378906 18.769531 C 14.425781 18.773438 14.46875 18.765625 14.511719 18.746094 Z M 14.550781 19.261719 C 14.542969 19.222656 14.535156 19.179688 14.53125 19.140625 C 14.484375 19.144531 14.441406 19.15625 14.402344 19.171875 C 14.402344 19.171875 14.402344 19.171875 14.402344 19.175781 C 14.410156 19.222656 14.421875 19.269531 14.433594 19.316406 C 14.46875 19.289062 14.507812 19.269531 14.550781 19.261719 Z M 16.363281 19.875 C 16.320312 19.863281 16.277344 19.855469 16.222656 19.847656 C 16.167969 19.839844 16.121094 19.820312 16.082031 19.792969 C 16.066406 19.925781 16.039062 20.058594 16 20.1875 C 16.085938 20.1875 16.171875 20.191406 16.253906 20.195312 C 16.289062 20.199219 16.324219 20.199219 16.363281 20.203125 C 16.347656 20.09375 16.347656 19.984375 16.363281 19.875 Z M 17.613281 20.066406 C 17.585938 20.046875 17.550781 20.03125 17.519531 20.015625 L 17.34375 19.9375 C 17.339844 19.933594 17.335938 19.933594 17.335938 19.933594 C 17.1875 19.964844 17.054688 20.074219 16.996094 20.210938 C 17.003906 20.210938 17.011719 20.210938 17.019531 20.214844 C 17.1875 20.230469 17.523438 20.238281 17.695312 20.222656 C 17.691406 20.160156 17.660156 20.101562 17.613281 20.066406 Z M 16.949219 19.710938 C 16.96875 19.695312 16.988281 19.683594 17.007812 19.671875 C 16.988281 19.648438 16.96875 19.621094 16.945312 19.59375 C 16.921875 19.605469 16.902344 19.621094 16.882812 19.640625 C 16.886719 19.640625 16.886719 19.640625 16.890625 19.644531 C 16.910156 19.667969 16.929688 19.691406 16.949219 19.710938 Z M 17.105469 19.878906 C 17.128906 19.863281 17.15625 19.847656 17.183594 19.835938 C 17.160156 19.820312 17.136719 19.800781 17.113281 19.777344 C 17.089844 19.785156 17.066406 19.796875 17.046875 19.816406 C 17.066406 19.835938 17.085938 19.859375 17.105469 19.878906 Z M 16.722656 19.449219 C 16.738281 19.476562 16.761719 19.503906 16.785156 19.527344 C 16.785156 19.53125 16.789062 19.53125 16.789062 19.535156 C 16.8125 19.511719 16.835938 19.492188 16.863281 19.480469 C 16.847656 19.449219 16.832031 19.421875 16.820312 19.394531 C 16.78125 19.394531 16.746094 19.417969 16.722656 19.449219 Z M 16.59375 18.429688 C 16.59375 18.464844 16.59375 18.5 16.59375 18.539062 C 16.605469 18.539062 16.617188 18.542969 16.632812 18.542969 C 16.679688 18.554688 16.71875 18.578125 16.757812 18.597656 C 16.757812 18.554688 16.757812 18.511719 16.757812 18.472656 C 16.757812 18.421875 16.75 18.410156 16.742188 18.40625 C 16.707031 18.382812 16.679688 18.390625 16.613281 18.421875 C 16.605469 18.425781 16.597656 18.429688 16.59375 18.429688 Z M 16.679688 19.621094 C 16.480469 19.402344 16.46875 19.164062 16.460938 18.929688 C 16.460938 18.910156 16.460938 18.890625 16.460938 18.871094 C 16.402344 18.835938 16.363281 18.785156 16.355469 18.726562 C 16.347656 18.660156 16.386719 18.59375 16.453125 18.558594 C 16.453125 18.527344 16.453125 18.496094 16.449219 18.46875 C 16.414062 18.46875 16.359375 18.472656 16.285156 18.480469 C 16.238281 18.480469 16.203125 18.484375 16.175781 18.484375 C 16.1875 18.664062 16.1875 18.855469 16.144531 19.054688 C 16.140625 19.074219 16.136719 19.097656 16.132812 19.121094 C 16.09375 19.28125 16.039062 19.519531 16.117188 19.636719 C 16.144531 19.675781 16.1875 19.699219 16.246094 19.710938 C 16.589844 19.765625 16.664062 19.835938 16.867188 20.125 L 16.871094 20.128906 C 16.875 20.128906 16.875 20.132812 16.875 20.136719 C 16.90625 20.074219 16.949219 20.015625 16.996094 19.964844 C 16.921875 19.890625 16.851562 19.8125 16.78125 19.734375 C 16.75 19.699219 16.714844 19.660156 16.679688 19.621094 Z M 16.609375 19.03125 C 16.652344 19.015625 16.695312 19.007812 16.742188 19.003906 C 16.738281 18.964844 16.738281 18.929688 16.742188 18.890625 C 16.703125 18.902344 16.664062 18.910156 16.625 18.910156 C 16.617188 18.910156 16.609375 18.910156 16.605469 18.910156 C 16.605469 18.914062 16.605469 18.917969 16.605469 18.921875 C 16.605469 18.960938 16.605469 18.996094 16.609375 19.03125 Z M 16.734375 18.746094 C 16.71875 18.738281 16.707031 18.730469 16.695312 18.722656 C 16.664062 18.707031 16.628906 18.6875 16.597656 18.679688 C 16.597656 18.707031 16.597656 18.738281 16.597656 18.769531 C 16.644531 18.773438 16.691406 18.765625 16.734375 18.746094 Z M 16.625 19.171875 C 16.625 19.171875 16.625 19.171875 16.621094 19.175781 C 16.628906 19.222656 16.640625 19.269531 16.65625 19.316406 C 16.691406 19.289062 16.730469 19.269531 16.773438 19.261719 C 16.761719 19.222656 16.753906 19.179688 16.75 19.140625 C 16.707031 19.144531 16.664062 19.15625 16.625 19.171875 Z M 16.625 19.171875 " fill-opacity="1" fill-rule="nonzero"/></g><g clip-path="url(#e64a8a7f6d)"><path fill="#000000" d="M 3.75 15.160156 C 3.652344 15.976562 3.574219 16.054688 2.753906 16.152344 C 2.757812 16.152344 2.757812 16.152344 2.761719 16.152344 C 3.574219 16.246094 3.652344 16.328125 3.75 17.144531 C 3.84375 16.324219 3.921875 16.246094 4.742188 16.152344 C 3.921875 16.054688 3.84375 15.976562 3.75 15.160156 Z M 3.75 15.160156 " fill-opacity="1" fill-rule="nonzero"/></g><g fill="#000000" fill-opacity="1"><g transform="translate(4.808023, 13.420098)"><g><path d="M -0.730469 -1.910156 C -0.71875 -2.175781 -0.816406 -2.414062 -1.140625 -2.496094 C -1.4375 -2.570312 -1.730469 -2.441406 -1.847656 -1.972656 L -2.15625 -0.742188 L 0.046875 -0.191406 L 0.351562 -1.398438 C 0.46875 -1.867188 0.300781 -2.167969 -0.0703125 -2.261719 C -0.421875 -2.347656 -0.617188 -2.175781 -0.730469 -1.910156 Z M -1.503906 -1.726562 C -1.453125 -1.9375 -1.339844 -1.988281 -1.171875 -1.945312 C -1.011719 -1.90625 -0.925781 -1.796875 -0.980469 -1.578125 L -1.121094 -1.019531 L -1.648438 -1.152344 Z M -0.0625 -1.382812 L -0.210938 -0.792969 L -0.785156 -0.933594 L -0.644531 -1.496094 C -0.582031 -1.738281 -0.449219 -1.796875 -0.273438 -1.753906 C -0.109375 -1.714844 -0.0078125 -1.605469 -0.0625 -1.382812 Z M -0.0625 -1.382812 "/></g></g></g><g fill="#000000" fill-opacity="1"><g transform="translate(5.340655, 11.335265)"><g><path d="M -1.046875 -2.191406 L -1.417969 -2.359375 L -1.984375 -1.125 L -1.609375 -0.953125 L -1.4375 -1.335938 L -0.117188 -0.734375 L -0.292969 -0.351562 L 0.0820312 -0.179688 L 0.648438 -1.417969 L 0.269531 -1.589844 L 0.0976562 -1.207031 L -1.21875 -1.808594 Z M -1.046875 -2.191406 "/></g></g></g><g fill="#000000" fill-opacity="1"><g transform="translate(5.941957, 9.863345)"><g><path d="M 0.773438 -0.964844 C 1.058594 -1.355469 1.015625 -1.675781 0.851562 -1.910156 L 1.203125 -1.652344 L 1.464844 -2.011719 L 0.488281 -2.722656 L -0.277344 -1.671875 L -0.0078125 -1.472656 L 0.472656 -2.125 C 0.675781 -1.925781 0.777344 -1.660156 0.511719 -1.296875 C 0.242188 -0.925781 -0.09375 -0.929688 -0.507812 -1.230469 C -0.941406 -1.546875 -1.011719 -1.875 -0.746094 -2.242188 C -0.523438 -2.546875 -0.285156 -2.601562 -0.0546875 -2.476562 L 0.253906 -2.898438 C -0.160156 -3.152344 -0.625 -3.097656 -1.070312 -2.484375 C -1.578125 -1.792969 -1.363281 -1.183594 -0.828125 -0.792969 C -0.296875 -0.40625 0.335938 -0.359375 0.773438 -0.964844 Z M 0.773438 -0.964844 "/></g></g></g><g fill="#000000" fill-opacity="1"><g transform="translate(7.497422, 7.834438)"><g/></g></g><g fill="#000000" fill-opacity="1"><g transform="translate(7.982342, 7.269002)"><g><path d="M 0.652344 -1.9375 C 0.828125 -2.136719 0.90625 -2.382812 0.707031 -2.652344 C 0.523438 -2.898438 0.21875 -2.984375 -0.171875 -2.699219 L -1.191406 -1.945312 L 0.160156 -0.117188 L 1.160156 -0.855469 C 1.546875 -1.144531 1.609375 -1.484375 1.382812 -1.789062 C 1.167969 -2.082031 0.90625 -2.070312 0.652344 -1.9375 Z M -0.0625 -2.289062 C 0.109375 -2.417969 0.226562 -2.386719 0.332031 -2.246094 C 0.429688 -2.113281 0.425781 -1.976562 0.246094 -1.84375 L -0.21875 -1.5 L -0.539062 -1.9375 Z M 0.828125 -1.105469 L 0.339844 -0.746094 L -0.0117188 -1.21875 L 0.453125 -1.5625 C 0.652344 -1.710938 0.796875 -1.671875 0.90625 -1.527344 C 1.003906 -1.394531 1.015625 -1.246094 0.828125 -1.105469 Z M 0.828125 -1.105469 "/></g></g></g><g fill="#000000" fill-opacity="1"><g transform="translate(9.718767, 5.998023)"><g><path d="M 0.585938 -2.355469 L 0.40625 -2.722656 L -0.816406 -2.128906 L -0.636719 -1.761719 L -0.257812 -1.945312 L 0.375 -0.640625 L -0.00390625 -0.457031 L 0.179688 -0.0859375 L 1.398438 -0.683594 L 1.21875 -1.054688 L 0.839844 -0.871094 L 0.207031 -2.171875 Z M 0.585938 -2.355469 "/></g></g></g><g fill="#000000" fill-opacity="1"><g transform="translate(11.143225, 5.264011)"><g><path d="M 1.4375 -2.761719 L -0.503906 -2.21875 L -0.394531 -1.824219 L 0.328125 -2.023438 L 0.828125 -0.230469 L 1.328125 -0.371094 L 0.828125 -2.164062 L 1.546875 -2.367188 Z M 1.4375 -2.761719 "/></g></g></g><g fill="#000000" fill-opacity="1"><g transform="translate(13.133309, 4.693106)"><g><path d="M 0.683594 -0.464844 L 0.644531 -1.015625 L 1.800781 -1.105469 L 1.773438 -1.488281 L 0.613281 -1.402344 L 0.578125 -1.910156 L 1.835938 -2.003906 L 1.808594 -2.414062 L 0.0273438 -2.28125 L 0.199219 -0.015625 L 1.984375 -0.148438 L 1.953125 -0.558594 Z M 0.683594 -0.464844 "/></g></g></g><g fill="#000000" fill-opacity="1"><g transform="translate(15.169536, 4.5773)"><g/></g></g><g fill="#000000" fill-opacity="1"><g transform="translate(15.90915, 4.551616)"><g><path d="M 1.742188 -1.945312 L 0.675781 -2.179688 L 0.195312 0.0429688 L 1.261719 0.273438 C 1.984375 0.429688 2.425781 -0.0273438 2.550781 -0.613281 C 2.679688 -1.199219 2.464844 -1.789062 1.742188 -1.945312 Z M 1.234375 -0.15625 L 0.789062 -0.25 L 1.09375 -1.667969 L 1.542969 -1.570312 C 1.992188 -1.472656 2.128906 -1.203125 2.023438 -0.726562 C 1.921875 -0.257812 1.691406 -0.0546875 1.234375 -0.15625 Z M 1.234375 -0.15625 "/></g></g></g><g fill="#000000" fill-opacity="1"><g transform="translate(18.162549, 5.004296)"><g><path d="M 1.195312 0.636719 C 1.980469 1.015625 2.515625 0.644531 2.789062 0.0820312 C 3.054688 -0.472656 3.011719 -1.136719 2.226562 -1.515625 C 1.441406 -1.890625 0.898438 -1.511719 0.628906 -0.957031 C 0.359375 -0.390625 0.410156 0.261719 1.195312 0.636719 Z M 1.121094 -0.71875 C 1.335938 -1.171875 1.59375 -1.347656 2.042969 -1.132812 C 2.492188 -0.914062 2.519531 -0.605469 2.300781 -0.152344 C 2.085938 0.292969 1.828125 0.46875 1.378906 0.253906 C 0.929688 0.0390625 0.90625 -0.273438 1.121094 -0.71875 Z M 1.121094 -0.71875 "/></g></g></g><g fill="#000000" fill-opacity="1"><g transform="translate(20.42443, 6.071632)"><g><path d="M 2.910156 -0.550781 L 1.703125 0.917969 C 1.746094 0.804688 1.785156 0.6875 1.816406 0.585938 L 2.257812 -1.085938 L 1.59375 -1.628906 L 0.152344 0.125 L 0.539062 0.441406 L 1.742188 -1.027344 C 1.695312 -0.914062 1.65625 -0.796875 1.621094 -0.675781 L 1.1875 0.976562 L 1.855469 1.519531 L 3.292969 -0.234375 Z M 2.910156 -0.550781 "/></g></g></g><g fill="#000000" fill-opacity="1"><g transform="translate(22.290439, 7.587505)"><g><path d="M 0.789062 -0.371094 C 0.316406 -0.0078125 0.28125 0.453125 0.695312 0.992188 C 1.113281 1.527344 1.566406 1.605469 2.035156 1.242188 L 3.160156 0.375 L 2.84375 -0.0351562 L 1.777344 0.789062 C 1.425781 1.058594 1.234375 0.996094 1.03125 0.730469 C 0.828125 0.464844 0.8125 0.265625 1.160156 -0.00390625 L 2.230469 -0.828125 L 1.914062 -1.238281 Z M 0.789062 -0.371094 "/></g></g></g><g fill="#000000" fill-opacity="1"><g transform="translate(23.664611, 9.350427)"><g><path d="M 2.96875 0.933594 L 2.097656 -0.882812 L 1.726562 -0.703125 L 2.050781 -0.03125 L 0.371094 0.777344 L 0.597656 1.242188 L 2.273438 0.4375 L 2.597656 1.113281 Z M 2.96875 0.933594 "/></g></g></g><g fill="#000000" fill-opacity="1"><g transform="translate(24.577234, 11.204876)"><g><path d="M 0.757812 -0.0507812 C 0.359375 0.0664062 0.0429688 0.410156 0.222656 1.132812 C 0.394531 1.824219 0.742188 2.023438 1.175781 1.914062 C 1.5625 1.820312 1.71875 1.539062 1.65625 1.082031 L 1.597656 0.605469 C 1.570312 0.417969 1.648438 0.320312 1.777344 0.285156 C 1.949219 0.242188 2.09375 0.359375 2.164062 0.628906 C 2.234375 0.917969 2.136719 1.097656 1.9375 1.175781 L 2.0625 1.667969 C 2.445312 1.546875 2.699219 1.195312 2.535156 0.535156 C 2.378906 -0.0859375 2.019531 -0.3125 1.621094 -0.214844 C 1.257812 -0.121094 1.097656 0.148438 1.148438 0.550781 L 1.207031 1.054688 C 1.226562 1.257812 1.167969 1.378906 1 1.417969 C 0.824219 1.464844 0.679688 1.382812 0.597656 1.046875 C 0.511719 0.699219 0.648438 0.511719 0.878906 0.4375 Z M 0.757812 -0.0507812 "/></g></g></g><g fill="#000000" fill-opacity="1"><g transform="translate(4.196367, 19.583955)"><g><path d="M 0.046875 0.09375 L 0.953125 -0.390625 L 1.109375 -0.109375 C 1.191406 0.0546875 1.207031 0.195312 1.15625 0.3125 C 1.113281 0.4375 1.023438 0.535156 0.890625 0.609375 C 0.753906 0.679688 0.625 0.703125 0.5 0.671875 C 0.382812 0.640625 0.285156 0.539062 0.203125 0.375 Z M 0.203125 0.15625 L 0.296875 0.328125 C 0.335938 0.421875 0.382812 0.484375 0.4375 0.515625 C 0.5 0.546875 0.5625 0.554688 0.625 0.546875 C 0.695312 0.546875 0.769531 0.53125 0.84375 0.5 C 0.914062 0.457031 0.972656 0.40625 1.015625 0.34375 C 1.054688 0.289062 1.078125 0.234375 1.078125 0.171875 C 1.078125 0.117188 1.054688 0.046875 1.015625 -0.046875 L 0.921875 -0.21875 Z M 0.203125 0.15625 "/></g></g></g><g fill="#000000" fill-opacity="1"><g transform="translate(5.159812, 21.24972)"><g><path d="M 0.0625 0.09375 L 0.890625 -0.515625 L 1.28125 0 L 1.1875 0.0625 L 0.875 -0.359375 L 0.59375 -0.140625 L 0.875 0.234375 L 0.796875 0.28125 L 0.515625 -0.09375 L 0.21875 0.125 L 0.53125 0.546875 L 0.453125 0.609375 Z M 0.0625 0.09375 "/></g></g></g><g fill="#000000" fill-opacity="1"><g transform="translate(6.239266, 22.597359)"><g><path d="M 0.078125 0.078125 L 0.8125 -0.640625 L 0.90625 -0.546875 L 0.234375 0.109375 L 0.5625 0.4375 L 0.5 0.5 Z M 0.078125 0.078125 "/></g></g></g><g fill="#000000" fill-opacity="1"><g transform="translate(7.452434, 23.731274)"><g><path d="M 0.078125 0.0625 L 0.71875 -0.75 L 0.828125 -0.671875 L 0.1875 0.140625 Z M 0.078125 0.0625 "/></g></g></g><g fill="#000000" fill-opacity="1"><g transform="translate(8.443497, 24.471969)"><g><path d="M 0.46875 0.296875 C 0.375 0.242188 0.304688 0.179688 0.265625 0.109375 C 0.234375 0.0351562 0.21875 -0.046875 0.21875 -0.140625 C 0.226562 -0.234375 0.257812 -0.320312 0.3125 -0.40625 C 0.363281 -0.5 0.425781 -0.566406 0.5 -0.609375 C 0.582031 -0.660156 0.664062 -0.6875 0.75 -0.6875 C 0.832031 -0.695312 0.921875 -0.675781 1.015625 -0.625 C 1.109375 -0.5625 1.171875 -0.484375 1.203125 -0.390625 C 1.242188 -0.304688 1.25 -0.21875 1.21875 -0.125 L 1.109375 -0.1875 C 1.128906 -0.257812 1.128906 -0.320312 1.109375 -0.375 C 1.085938 -0.425781 1.039062 -0.476562 0.96875 -0.53125 C 0.90625 -0.5625 0.835938 -0.578125 0.765625 -0.578125 C 0.691406 -0.578125 0.628906 -0.550781 0.578125 -0.5 C 0.523438 -0.457031 0.476562 -0.398438 0.4375 -0.328125 C 0.382812 -0.253906 0.351562 -0.179688 0.34375 -0.109375 C 0.332031 -0.046875 0.34375 0.0078125 0.375 0.0625 C 0.414062 0.125 0.46875 0.171875 0.53125 0.203125 C 0.601562 0.253906 0.671875 0.273438 0.734375 0.265625 C 0.796875 0.253906 0.847656 0.226562 0.890625 0.1875 L 1 0.25 C 0.925781 0.3125 0.84375 0.347656 0.75 0.359375 C 0.65625 0.378906 0.5625 0.359375 0.46875 0.296875 Z M 0.46875 0.296875 "/></g></g></g><g fill="#000000" fill-opacity="1"><g transform="translate(10.16039, 25.39866)"><g><path d="M 0.09375 0.046875 L 0.5 -0.90625 L 0.625 -0.859375 L 0.21875 0.09375 Z M 0.09375 0.046875 "/></g></g></g><g fill="#000000" fill-opacity="1"><g transform="translate(11.312482, 25.854914)"><g><path d="M 0.5625 0.171875 C 0.457031 0.140625 0.375 0.09375 0.3125 0.03125 C 0.257812 -0.03125 0.21875 -0.101562 0.1875 -0.1875 C 0.164062 -0.28125 0.171875 -0.378906 0.203125 -0.484375 C 0.222656 -0.578125 0.265625 -0.65625 0.328125 -0.71875 C 0.398438 -0.789062 0.476562 -0.835938 0.5625 -0.859375 C 0.644531 -0.890625 0.738281 -0.890625 0.84375 -0.859375 C 0.9375 -0.835938 1.007812 -0.789062 1.0625 -0.71875 C 1.125 -0.65625 1.164062 -0.578125 1.1875 -0.484375 C 1.207031 -0.398438 1.207031 -0.3125 1.1875 -0.21875 C 1.15625 -0.113281 1.109375 -0.03125 1.046875 0.03125 C 0.984375 0.101562 0.910156 0.148438 0.828125 0.171875 C 0.742188 0.191406 0.65625 0.191406 0.5625 0.171875 Z M 0.59375 0.0625 C 0.65625 0.0820312 0.71875 0.0820312 0.78125 0.0625 C 0.84375 0.0507812 0.894531 0.0195312 0.9375 -0.03125 C 0.988281 -0.0820312 1.03125 -0.15625 1.0625 -0.25 C 1.082031 -0.332031 1.082031 -0.40625 1.0625 -0.46875 C 1.050781 -0.53125 1.019531 -0.585938 0.96875 -0.640625 C 0.925781 -0.691406 0.875 -0.726562 0.8125 -0.75 C 0.738281 -0.769531 0.664062 -0.769531 0.59375 -0.75 C 0.53125 -0.726562 0.476562 -0.691406 0.4375 -0.640625 C 0.394531 -0.597656 0.363281 -0.535156 0.34375 -0.453125 C 0.3125 -0.359375 0.300781 -0.273438 0.3125 -0.203125 C 0.320312 -0.140625 0.351562 -0.0820312 0.40625 -0.03125 C 0.457031 0.0078125 0.519531 0.0390625 0.59375 0.0625 Z M 0.59375 0.0625 "/></g></g></g><g fill="#000000" fill-opacity="1"><g transform="translate(13.31778, 26.31878)"><g><path d="M 0.484375 0.0625 C 0.410156 0.0507812 0.34375 0.03125 0.28125 0 C 0.226562 -0.03125 0.1875 -0.078125 0.15625 -0.140625 C 0.132812 -0.203125 0.125 -0.273438 0.125 -0.359375 L 0.203125 -1.015625 L 0.328125 -1.015625 L 0.25 -0.359375 C 0.25 -0.265625 0.269531 -0.191406 0.3125 -0.140625 C 0.351562 -0.0859375 0.414062 -0.0546875 0.5 -0.046875 C 0.570312 -0.0351562 0.632812 -0.0507812 0.6875 -0.09375 C 0.738281 -0.132812 0.765625 -0.203125 0.765625 -0.296875 L 0.84375 -0.953125 L 0.96875 -0.9375 L 0.890625 -0.28125 C 0.890625 -0.195312 0.867188 -0.125 0.828125 -0.0625 C 0.785156 -0.0078125 0.734375 0.0234375 0.671875 0.046875 C 0.617188 0.0664062 0.554688 0.0703125 0.484375 0.0625 Z M 0.484375 0.0625 "/></g></g></g><g fill="#000000" fill-opacity="1"><g transform="translate(15.17919, 26.438601)"><g><path d="M 0.4375 0 C 0.363281 0 0.296875 -0.0078125 0.234375 -0.03125 C 0.179688 -0.0507812 0.132812 -0.0859375 0.09375 -0.140625 C 0.0625 -0.191406 0.046875 -0.25 0.046875 -0.3125 L 0.171875 -0.328125 C 0.171875 -0.285156 0.179688 -0.242188 0.203125 -0.203125 C 0.234375 -0.171875 0.265625 -0.144531 0.296875 -0.125 C 0.335938 -0.113281 0.382812 -0.109375 0.4375 -0.109375 C 0.507812 -0.117188 0.5625 -0.140625 0.59375 -0.171875 C 0.625 -0.203125 0.640625 -0.242188 0.640625 -0.296875 C 0.640625 -0.335938 0.628906 -0.367188 0.609375 -0.390625 C 0.597656 -0.410156 0.578125 -0.425781 0.546875 -0.4375 C 0.515625 -0.457031 0.476562 -0.472656 0.4375 -0.484375 C 0.394531 -0.492188 0.347656 -0.503906 0.296875 -0.515625 C 0.222656 -0.546875 0.164062 -0.578125 0.125 -0.609375 C 0.0820312 -0.648438 0.0625 -0.703125 0.0625 -0.765625 C 0.0507812 -0.816406 0.0546875 -0.863281 0.078125 -0.90625 C 0.109375 -0.957031 0.148438 -0.992188 0.203125 -1.015625 C 0.253906 -1.046875 0.3125 -1.0625 0.375 -1.0625 C 0.4375 -1.070312 0.492188 -1.0625 0.546875 -1.03125 C 0.597656 -1.007812 0.632812 -0.976562 0.65625 -0.9375 C 0.6875 -0.894531 0.707031 -0.847656 0.71875 -0.796875 L 0.59375 -0.796875 C 0.59375 -0.816406 0.582031 -0.84375 0.5625 -0.875 C 0.539062 -0.90625 0.515625 -0.925781 0.484375 -0.9375 C 0.453125 -0.945312 0.414062 -0.953125 0.375 -0.953125 C 0.3125 -0.953125 0.265625 -0.9375 0.234375 -0.90625 C 0.203125 -0.882812 0.191406 -0.847656 0.203125 -0.796875 C 0.203125 -0.742188 0.210938 -0.707031 0.234375 -0.6875 C 0.253906 -0.664062 0.285156 -0.644531 0.328125 -0.625 C 0.378906 -0.613281 0.4375 -0.601562 0.5 -0.59375 C 0.539062 -0.570312 0.582031 -0.550781 0.625 -0.53125 C 0.675781 -0.507812 0.710938 -0.476562 0.734375 -0.4375 C 0.753906 -0.40625 0.765625 -0.359375 0.765625 -0.296875 C 0.765625 -0.253906 0.753906 -0.207031 0.734375 -0.15625 C 0.710938 -0.113281 0.675781 -0.078125 0.625 -0.046875 C 0.570312 -0.0234375 0.507812 -0.0078125 0.4375 0 Z M 0.4375 0 "/></g></g></g><g fill="#000000" fill-opacity="1"><g transform="translate(16.912701, 26.28463)"><g/></g></g><g fill="#000000" fill-opacity="1"><g transform="translate(18.171739, 26.023671)"><g><path d="M 0.109375 -0.03125 L -0.203125 -1.015625 L 0.09375 -1.109375 C 0.269531 -1.171875 0.410156 -1.164062 0.515625 -1.09375 C 0.617188 -1.03125 0.695312 -0.921875 0.75 -0.765625 C 0.800781 -0.617188 0.800781 -0.488281 0.75 -0.375 C 0.695312 -0.269531 0.582031 -0.1875 0.40625 -0.125 Z M 0.1875 -0.1875 L 0.375 -0.234375 C 0.46875 -0.265625 0.535156 -0.300781 0.578125 -0.34375 C 0.628906 -0.394531 0.65625 -0.453125 0.65625 -0.515625 C 0.664062 -0.585938 0.660156 -0.660156 0.640625 -0.734375 C 0.617188 -0.816406 0.582031 -0.882812 0.53125 -0.9375 C 0.488281 -1 0.429688 -1.03125 0.359375 -1.03125 C 0.296875 -1.039062 0.21875 -1.03125 0.125 -1 L -0.0625 -0.953125 Z M 0.1875 -0.1875 "/></g></g></g><g fill="#000000" fill-opacity="1"><g transform="translate(19.989329, 25.371787)"><g><path d="M 0.515625 -0.25 C 0.421875 -0.195312 0.332031 -0.171875 0.25 -0.171875 C 0.175781 -0.179688 0.0976562 -0.210938 0.015625 -0.265625 C -0.0664062 -0.316406 -0.128906 -0.390625 -0.171875 -0.484375 C -0.222656 -0.578125 -0.242188 -0.671875 -0.234375 -0.765625 C -0.234375 -0.859375 -0.210938 -0.941406 -0.171875 -1.015625 C -0.128906 -1.085938 -0.0625 -1.148438 0.03125 -1.203125 C 0.125 -1.242188 0.210938 -1.257812 0.296875 -1.25 C 0.378906 -1.25 0.457031 -1.222656 0.53125 -1.171875 C 0.601562 -1.117188 0.664062 -1.046875 0.71875 -0.953125 C 0.757812 -0.859375 0.78125 -0.765625 0.78125 -0.671875 C 0.789062 -0.578125 0.769531 -0.492188 0.71875 -0.421875 C 0.675781 -0.347656 0.609375 -0.289062 0.515625 -0.25 Z M 0.46875 -0.34375 C 0.53125 -0.375 0.582031 -0.414062 0.625 -0.46875 C 0.664062 -0.53125 0.679688 -0.59375 0.671875 -0.65625 C 0.671875 -0.726562 0.648438 -0.804688 0.609375 -0.890625 C 0.566406 -0.960938 0.519531 -1.019531 0.46875 -1.0625 C 0.414062 -1.101562 0.351562 -1.125 0.28125 -1.125 C 0.21875 -1.132812 0.15625 -1.125 0.09375 -1.09375 C 0.03125 -1.0625 -0.015625 -1.015625 -0.046875 -0.953125 C -0.0859375 -0.898438 -0.109375 -0.835938 -0.109375 -0.765625 C -0.109375 -0.691406 -0.0859375 -0.617188 -0.046875 -0.546875 C -0.00390625 -0.460938 0.0390625 -0.398438 0.09375 -0.359375 C 0.15625 -0.328125 0.21875 -0.304688 0.28125 -0.296875 C 0.34375 -0.296875 0.40625 -0.3125 0.46875 -0.34375 Z M 0.46875 -0.34375 "/></g></g></g><g fill="#000000" fill-opacity="1"><g transform="translate(21.782339, 24.359017)"><g><path d="M 0.09375 -0.0625 L -0.515625 -0.890625 L -0.421875 -0.96875 L 0.5 -0.625 L 0.015625 -1.296875 L 0.109375 -1.375 L 0.71875 -0.546875 L 0.625 -0.46875 L -0.3125 -0.796875 L 0.1875 -0.140625 Z M 0.09375 -0.0625 "/></g></g></g><g fill="#000000" fill-opacity="1"><g transform="translate(23.273837, 23.155303)"><g><path d="M 0.359375 -0.328125 C 0.304688 -0.273438 0.25 -0.238281 0.1875 -0.21875 C 0.125 -0.195312 0.0625 -0.191406 0 -0.203125 C -0.0703125 -0.222656 -0.140625 -0.265625 -0.203125 -0.328125 L -0.671875 -0.78125 L -0.578125 -0.875 L -0.109375 -0.421875 C -0.046875 -0.347656 0.015625 -0.3125 0.078125 -0.3125 C 0.148438 -0.3125 0.21875 -0.34375 0.28125 -0.40625 C 0.332031 -0.457031 0.351562 -0.515625 0.34375 -0.578125 C 0.34375 -0.648438 0.3125 -0.722656 0.25 -0.796875 L -0.21875 -1.25 L -0.140625 -1.328125 L 0.328125 -0.875 C 0.390625 -0.8125 0.429688 -0.75 0.453125 -0.6875 C 0.472656 -0.625 0.472656 -0.5625 0.453125 -0.5 C 0.441406 -0.4375 0.410156 -0.378906 0.359375 -0.328125 Z M 0.359375 -0.328125 "/></g></g></g><g fill="#000000" fill-opacity="1"><g transform="translate(24.521267, 21.769187)"><g><path d="M 0.203125 -0.28125 L -0.546875 -0.8125 L -0.71875 -0.5625 L -0.8125 -0.625 L -0.390625 -1.234375 L -0.296875 -1.171875 L -0.484375 -0.90625 L 0.265625 -0.375 Z M 0.203125 -0.28125 "/></g></g></g><g fill="#000000" fill-opacity="1"><g transform="translate(25.47182, 20.333104)"><g><path d="M 0.21875 -0.390625 C 0.1875 -0.328125 0.144531 -0.273438 0.09375 -0.234375 C 0.0390625 -0.191406 -0.0078125 -0.164062 -0.0625 -0.15625 C -0.125 -0.15625 -0.1875 -0.171875 -0.25 -0.203125 L -0.1875 -0.3125 C -0.144531 -0.289062 -0.101562 -0.28125 -0.0625 -0.28125 C -0.03125 -0.28125 0 -0.289062 0.03125 -0.3125 C 0.0703125 -0.34375 0.101562 -0.382812 0.125 -0.4375 C 0.15625 -0.5 0.160156 -0.550781 0.140625 -0.59375 C 0.128906 -0.644531 0.101562 -0.679688 0.0625 -0.703125 C 0.0195312 -0.722656 -0.0078125 -0.726562 -0.03125 -0.71875 C -0.0507812 -0.71875 -0.078125 -0.707031 -0.109375 -0.6875 C -0.140625 -0.664062 -0.171875 -0.640625 -0.203125 -0.609375 C -0.242188 -0.578125 -0.269531 -0.550781 -0.28125 -0.53125 C -0.351562 -0.46875 -0.414062 -0.425781 -0.46875 -0.40625 C -0.519531 -0.394531 -0.578125 -0.398438 -0.640625 -0.421875 C -0.679688 -0.453125 -0.710938 -0.488281 -0.734375 -0.53125 C -0.765625 -0.570312 -0.78125 -0.625 -0.78125 -0.6875 C -0.78125 -0.75 -0.769531 -0.804688 -0.75 -0.859375 C -0.71875 -0.910156 -0.675781 -0.953125 -0.625 -0.984375 C -0.570312 -1.015625 -0.519531 -1.035156 -0.46875 -1.046875 C -0.425781 -1.054688 -0.382812 -1.046875 -0.34375 -1.015625 L -0.40625 -0.90625 C -0.414062 -0.914062 -0.4375 -0.921875 -0.46875 -0.921875 C -0.507812 -0.921875 -0.539062 -0.910156 -0.5625 -0.890625 C -0.59375 -0.878906 -0.617188 -0.851562 -0.640625 -0.8125 C -0.660156 -0.757812 -0.664062 -0.707031 -0.65625 -0.65625 C -0.65625 -0.613281 -0.628906 -0.582031 -0.578125 -0.5625 C -0.535156 -0.539062 -0.5 -0.535156 -0.46875 -0.546875 C -0.4375 -0.554688 -0.40625 -0.578125 -0.375 -0.609375 C -0.34375 -0.640625 -0.300781 -0.679688 -0.25 -0.734375 C -0.21875 -0.765625 -0.179688 -0.789062 -0.140625 -0.8125 C -0.109375 -0.84375 -0.0664062 -0.859375 -0.015625 -0.859375 C 0.0234375 -0.859375 0.0703125 -0.84375 0.125 -0.8125 C 0.15625 -0.789062 0.1875 -0.757812 0.21875 -0.71875 C 0.25 -0.675781 0.265625 -0.625 0.265625 -0.5625 C 0.265625 -0.507812 0.25 -0.453125 0.21875 -0.390625 Z M 0.21875 -0.390625 "/></g></g></g><g clip-path="url(#8a53e4b678)"><path fill="#000000" d="M 26.246094 15.160156 C 26.148438 15.976562 26.070312 16.054688 25.253906 16.152344 C 25.257812 16.152344 25.257812 16.152344 25.257812 16.152344 C 26.070312 16.246094 26.148438 16.328125 26.246094 17.144531 C 26.34375 16.324219 26.421875 16.246094 27.238281 16.152344 C 26.421875 16.054688 26.34375 15.976562 26.246094 15.160156 Z M 26.246094 15.160156 " fill-opacity="1" fill-rule="nonzero"/></g></svg>