<svg xmlns="http://www.w3.org/2000/svg" xmlns:xlink="http://www.w3.org/1999/xlink" width="40" zoomAndPan="magnify" viewBox="0 0 30 30.000001" height="40" preserveAspectRatio="xMidYMid meet" version="1.0"><defs><g/><clipPath id="c3c207ac3f"><path d="M 0.484375 0 L 29.515625 0 L 29.515625 29.03125 L 0.484375 29.03125 Z M 0.484375 0 " clip-rule="nonzero"/></clipPath><clipPath id="1ae115e64d"><path d="M 4.125 0 L 25.875 0 L 25.875 21.75 L 4.125 21.75 Z M 4.125 0 " clip-rule="nonzero"/></clipPath><clipPath id="5359a5b964"><path d="M 15 0 C 8.996094 0 4.125 4.867188 4.125 10.875 C 4.125 16.878906 8.996094 21.75 15 21.75 C 21.003906 21.75 25.875 16.878906 25.875 10.875 C 25.875 4.867188 21.003906 0 15 0 Z M 15 0 " clip-rule="nonzero"/></clipPath><clipPath id="0c4a08b7a0"><path d="M 4.125 0 L 25.867188 0 L 25.867188 21.738281 L 4.125 21.738281 Z M 4.125 0 " clip-rule="nonzero"/></clipPath><clipPath id="33bbe753f9"><path d="M 14.996094 0 C 8.992188 0 4.125 4.867188 4.125 10.871094 C 4.125 16.875 8.992188 21.738281 14.996094 21.738281 C 21 21.738281 25.867188 16.875 25.867188 10.871094 C 25.867188 4.867188 21 0 14.996094 0 Z M 14.996094 0 " clip-rule="nonzero"/></clipPath><clipPath id="855745e709"><path d="M 5.589844 11 L 24.460938 11 L 24.460938 15 L 5.589844 15 Z M 5.589844 11 " clip-rule="nonzero"/></clipPath><clipPath id="67315edb2d"><path d="M 5.589844 7 L 24.460938 7 L 24.460938 11 L 5.589844 11 Z M 5.589844 7 " clip-rule="nonzero"/></clipPath><clipPath id="a3cd81abbf"><path d="M 2.113281 1.558594 L 28 1.558594 L 28 29 L 2.113281 29 Z M 2.113281 1.558594 " clip-rule="nonzero"/></clipPath><clipPath id="5b15aa4b26"><path d="M 2.769531 12.886719 L 27.25 12.886719 L 27.25 18.929688 L 2.769531 18.929688 Z M 2.769531 12.886719 " clip-rule="nonzero"/></clipPath><clipPath id="f566b97f49"><path d="M 26.398438 12.886719 L 3.601562 12.886719 C 3.601562 13.34375 3.230469 13.714844 2.769531 13.714844 L 2.769531 18.097656 C 3.226562 18.097656 3.601562 18.46875 3.601562 18.929688 L 26.398438 18.929688 C 26.398438 18.472656 26.769531 18.097656 27.230469 18.097656 L 27.230469 13.714844 C 26.773438 13.714844 26.398438 13.347656 26.398438 12.886719 Z M 26.398438 12.886719 " clip-rule="nonzero"/></clipPath></defs><g clip-path="url(#c3c207ac3f)"><path fill="#ffffff" d="M 0.484375 0 L 29.515625 0 L 29.515625 29.03125 L 0.484375 29.03125 Z M 0.484375 0 " fill-opacity="1" fill-rule="nonzero"/><path fill="#fdf8e1" d="M 0.484375 0 L 29.515625 0 L 29.515625 29.03125 L 0.484375 29.03125 Z M 0.484375 0 " fill-opacity="1" fill-rule="nonzero"/></g><g clip-path="url(#1ae115e64d)"><g clip-path="url(#5359a5b964)"><path fill="#f4edcc" d="M 4.125 0 L 25.875 0 L 25.875 21.75 L 4.125 21.75 Z M 4.125 0 " fill-opacity="1" fill-rule="nonzero"/></g></g><g clip-path="url(#0c4a08b7a0)"><g clip-path="url(#33bbe753f9)"><path stroke-linecap="butt" transform="matrix(0.725806, 0, 0, 0.725806, 4.125737, 0.00000193548)" fill="none" stroke-linejoin="miter" d="M 14.976938 -0.00000266667 C 6.704888 -0.00000266667 -0.0010148 6.705901 -0.0010148 14.97795 C -0.0010148 23.249999 6.704888 29.95052 14.976938 29.95052 C 23.248987 29.95052 29.95489 23.249999 29.95489 14.97795 C 29.95489 6.705901 23.248987 -0.00000266667 14.976938 -0.00000266667 Z M 14.976938 -0.00000266667 " stroke="#263940" stroke-width="2" stroke-opacity="1" stroke-miterlimit="4"/></g></g><g clip-path="url(#855745e709)"><path fill="#d96e30" d="M 23.902344 14.1875 C 24.273438 13.175781 24.457031 12.128906 24.460938 11.050781 L 5.589844 11.050781 C 5.59375 12.128906 5.777344 13.175781 6.148438 14.191406 Z M 23.902344 14.1875 " fill-opacity="1" fill-rule="nonzero"/></g><g clip-path="url(#67315edb2d)"><path fill="#d96e30" d="M 23.820312 7.617188 L 6.226562 7.617188 C 5.832031 8.628906 5.621094 9.675781 5.59375 10.757812 L 24.460938 10.757812 C 24.429688 9.675781 24.21875 8.628906 23.820312 7.617188 Z M 23.820312 7.617188 " fill-opacity="1" fill-rule="nonzero"/></g><path fill="#d98d30" d="M 8.640625 17.90625 C 9.074219 18.300781 9.535156 18.652344 10.035156 18.960938 C 10.53125 19.265625 11.054688 19.527344 11.597656 19.738281 C 12.144531 19.949219 12.707031 20.109375 13.28125 20.214844 C 13.859375 20.324219 14.4375 20.378906 15.023438 20.378906 C 15.609375 20.378906 16.191406 20.324219 16.769531 20.214844 C 17.34375 20.109375 17.90625 19.949219 18.449219 19.738281 C 18.996094 19.527344 19.519531 19.265625 20.015625 18.960938 C 20.511719 18.652344 20.976562 18.300781 21.410156 17.90625 Z M 8.640625 17.90625 " fill-opacity="1" fill-rule="nonzero"/><path fill="#d98d30" d="M 6.257812 14.476562 C 6.734375 15.664062 7.429688 16.710938 8.335938 17.617188 L 21.714844 17.617188 C 22.621094 16.710938 23.316406 15.664062 23.792969 14.476562 Z M 6.257812 14.476562 " fill-opacity="1" fill-rule="nonzero"/><path fill="#bf372a" d="M 6.347656 7.328125 L 23.703125 7.328125 C 23.183594 6.128906 22.445312 5.082031 21.484375 4.1875 L 8.566406 4.1875 C 7.605469 5.082031 6.867188 6.128906 6.347656 7.328125 Z M 6.347656 7.328125 " fill-opacity="1" fill-rule="nonzero"/><path fill="#bf372a" d="M 21.160156 3.898438 C 20.734375 3.539062 20.285156 3.21875 19.800781 2.9375 C 19.320312 2.65625 18.820312 2.421875 18.296875 2.230469 C 17.773438 2.035156 17.234375 1.890625 16.6875 1.792969 C 16.136719 1.695312 15.582031 1.648438 15.023438 1.648438 C 14.46875 1.648438 13.914062 1.695312 13.363281 1.792969 C 12.816406 1.890625 12.277344 2.035156 11.753906 2.230469 C 11.230469 2.421875 10.730469 2.65625 10.246094 2.9375 C 9.765625 3.21875 9.3125 3.539062 8.890625 3.898438 Z M 21.160156 3.898438 " fill-opacity="1" fill-rule="nonzero"/><g clip-path="url(#a3cd81abbf)"><path fill="#263940" d="M 27.289062 12.265625 L 23.910156 12.265625 C 23.773438 12.207031 23.703125 12.070312 23.824219 12 C 23.878906 11.96875 23.957031 11.960938 24.03125 11.957031 C 24.257812 11.941406 24.480469 11.929688 24.703125 11.925781 C 24.632812 11.859375 24.523438 11.816406 24.417969 11.773438 C 24.148438 11.664062 23.878906 11.554688 23.609375 11.445312 C 23.972656 11.375 24.335938 11.371094 24.703125 11.429688 L 23.960938 11.082031 C 24.144531 11.125 24.371094 11.074219 24.476562 10.964844 L 23.90625 10.878906 L 24.066406 10.78125 C 23.945312 10.800781 23.832031 10.78125 23.722656 10.726562 L 24.203125 10.597656 C 24 10.601562 23.777344 10.566406 23.65625 10.457031 C 23.535156 10.347656 23.589844 10.160156 23.785156 10.128906 C 23.859375 10.117188 23.941406 10.125 24.011719 10.105469 C 24.011719 10.105469 23.507812 9.917969 23.476562 9.777344 C 23.441406 9.640625 23.683594 9.496094 23.875 9.558594 C 23.824219 9.472656 23.683594 9.414062 23.542969 9.429688 C 23.644531 9.417969 23.71875 9.34375 23.6875 9.28125 C 23.578125 9.285156 23.476562 9.269531 23.375 9.226562 C 23.332031 9.195312 23.375 9.144531 23.433594 9.121094 C 23.488281 9.097656 23.554688 9.082031 23.59375 9.050781 C 23.671875 8.976562 23.554688 8.875 23.429688 8.835938 C 23.304688 8.792969 23.152344 8.757812 23.117188 8.667969 L 23.472656 8.644531 C 23.558594 8.558594 23.433594 8.445312 23.304688 8.386719 C 23.175781 8.328125 23.019531 8.261719 23.015625 8.15625 L 23.375 8.121094 C 23.242188 8.039062 23.109375 7.960938 22.980469 7.882812 C 22.945312 7.863281 22.910156 7.84375 22.882812 7.816406 C 22.835938 7.769531 22.824219 7.714844 22.808594 7.660156 C 22.746094 7.371094 22.679688 7.082031 22.617188 6.792969 C 22.601562 7.109375 22.5 7.535156 22.074219 7.691406 L 22.292969 7.753906 C 22.246094 7.851562 22.144531 7.941406 22.007812 7.992188 C 22.121094 8.007812 22.210938 8.0625 22.242188 8.132812 C 22.070312 8.230469 21.886719 8.300781 21.691406 8.339844 C 21.8125 8.375 21.921875 8.425781 22.027344 8.492188 C 21.964844 8.542969 21.945312 8.621094 21.6875 8.675781 C 21.78125 8.710938 21.988281 8.734375 22.132812 8.765625 C 22.125 8.773438 22.121094 8.78125 22.117188 8.789062 C 21.851562 8.789062 21.664062 8.917969 21.457031 9.054688 C 21.578125 9.050781 21.796875 9.027344 21.808594 9.109375 C 21.824219 9.1875 21.457031 9.207031 21.359375 9.304688 C 21.425781 9.292969 21.582031 9.335938 21.667969 9.378906 C 21.726562 9.355469 21.78125 9.339844 21.84375 9.328125 C 21.890625 9.316406 21.941406 9.308594 21.996094 9.300781 C 22.039062 9.292969 22.082031 9.292969 22.128906 9.300781 C 22.125 9.3125 22.125 9.324219 22.125 9.335938 C 22.117188 9.339844 22.109375 9.339844 22.097656 9.34375 C 22.066406 9.351562 22.023438 9.351562 21.988281 9.359375 C 21.9375 9.367188 21.890625 9.386719 21.851562 9.417969 C 21.832031 9.4375 21.816406 9.464844 21.808594 9.492188 C 21.804688 9.507812 21.800781 9.519531 21.804688 9.53125 C 21.808594 9.550781 21.832031 9.566406 21.84375 9.585938 C 21.851562 9.601562 21.855469 9.625 21.824219 9.636719 C 21.753906 9.597656 21.691406 9.546875 21.636719 9.488281 C 21.472656 9.550781 21.21875 9.644531 21.101562 9.78125 C 21.128906 9.765625 21.480469 9.539062 21.460938 9.847656 C 21.417969 9.855469 21.378906 9.867188 21.339844 9.882812 L 20.792969 9.800781 L 20.988281 9.679688 C 20.839844 9.703125 20.695312 9.679688 20.5625 9.613281 C 20.761719 9.5625 20.960938 9.507812 21.160156 9.453125 C 20.90625 9.457031 20.632812 9.414062 20.480469 9.28125 C 20.332031 9.148438 20.394531 8.914062 20.640625 8.871094 C 20.730469 8.855469 20.832031 8.867188 20.917969 8.84375 C 20.917969 8.84375 20.296875 8.609375 20.253906 8.4375 C 20.214844 8.265625 20.511719 8.089844 20.75 8.164062 C 20.691406 8.058594 20.511719 7.988281 20.339844 8 C 20.464844 7.992188 20.554688 7.898438 20.519531 7.820312 C 20.386719 7.824219 20.253906 7.804688 20.128906 7.75 C 20.078125 7.710938 20.132812 7.648438 20.203125 7.617188 C 20.269531 7.589844 20.355469 7.574219 20.402344 7.53125 C 20.5 7.4375 20.351562 7.316406 20.199219 7.265625 C 20.046875 7.214844 19.855469 7.167969 19.816406 7.058594 L 20.253906 7.03125 C 20.359375 6.921875 20.207031 6.785156 20.046875 6.710938 C 19.886719 6.636719 19.691406 6.554688 19.6875 6.425781 L 20.132812 6.378906 C 19.96875 6.28125 19.804688 6.183594 19.640625 6.085938 C 19.597656 6.0625 19.554688 6.035156 19.519531 6 C 19.460938 5.945312 19.445312 5.875 19.429688 5.808594 C 19.351562 5.449219 19.269531 5.089844 19.191406 4.730469 C 19.171875 5.128906 19.046875 5.652344 18.519531 5.84375 L 18.789062 5.925781 C 18.734375 6.046875 18.605469 6.15625 18.4375 6.222656 C 18.570312 6.238281 18.6875 6.308594 18.726562 6.394531 C 18.511719 6.519531 18.285156 6.601562 18.042969 6.648438 C 18.191406 6.691406 18.332031 6.757812 18.457031 6.84375 C 18.382812 6.902344 18.355469 6.996094 18.039062 7.066406 C 18.152344 7.113281 18.410156 7.140625 18.585938 7.179688 C 18.578125 7.1875 18.574219 7.199219 18.570312 7.207031 C 18.238281 7.210938 18.007812 7.367188 17.75 7.535156 C 17.902344 7.53125 18.171875 7.507812 18.1875 7.605469 L 18.1875 7.609375 C 17.960938 7.609375 17.734375 7.625 17.507812 7.65625 C 17.328125 7.625 17.164062 7.566406 17.050781 7.464844 C 16.859375 7.292969 16.941406 6.988281 17.261719 6.933594 C 17.378906 6.914062 17.507812 6.929688 17.621094 6.902344 C 17.621094 6.902344 16.816406 6.59375 16.761719 6.371094 C 16.703125 6.148438 17.09375 5.917969 17.402344 6.019531 C 17.324219 5.878906 17.09375 5.785156 16.871094 5.804688 C 17.03125 5.792969 17.152344 5.671875 17.105469 5.570312 C 16.929688 5.578125 16.757812 5.546875 16.597656 5.480469 C 16.53125 5.425781 16.601562 5.34375 16.691406 5.308594 C 16.777344 5.269531 16.890625 5.25 16.949219 5.195312 C 17.078125 5.074219 16.886719 4.917969 16.6875 4.851562 C 16.488281 4.785156 16.242188 4.722656 16.1875 4.582031 L 16.757812 4.542969 C 16.894531 4.402344 16.695312 4.226562 16.488281 4.128906 C 16.285156 4.03125 16.027344 3.925781 16.019531 3.757812 L 16.601562 3.699219 C 16.386719 3.570312 16.175781 3.445312 15.964844 3.316406 C 15.90625 3.289062 15.855469 3.25 15.808594 3.207031 C 15.730469 3.136719 15.710938 3.042969 15.691406 2.957031 C 15.585938 2.492188 15.484375 2.023438 15.378906 1.558594 C 15.351562 2.074219 15.195312 2.757812 14.507812 3.003906 L 14.859375 3.109375 C 14.785156 3.265625 14.617188 3.410156 14.398438 3.496094 C 14.574219 3.515625 14.730469 3.605469 14.777344 3.71875 C 14.5 3.878906 14.207031 3.992188 13.894531 4.054688 C 14.085938 4.109375 14.265625 4.191406 14.433594 4.300781 C 14.332031 4.378906 14.300781 4.503906 13.886719 4.59375 C 14.035156 4.652344 14.371094 4.691406 14.597656 4.738281 C 14.589844 4.75 14.585938 4.761719 14.578125 4.773438 C 14.148438 4.78125 13.851562 4.984375 13.511719 5.203125 C 13.707031 5.195312 14.0625 5.164062 14.082031 5.292969 C 14.101562 5.421875 13.511719 5.449219 13.359375 5.605469 C 13.460938 5.589844 13.710938 5.660156 13.855469 5.730469 C 13.945312 5.691406 14.039062 5.664062 14.132812 5.644531 C 14.210938 5.628906 14.292969 5.613281 14.378906 5.601562 C 14.449219 5.59375 14.542969 5.589844 14.59375 5.601562 C 14.589844 5.621094 14.589844 5.640625 14.589844 5.660156 C 14.574219 5.664062 14.5625 5.667969 14.546875 5.671875 C 14.492188 5.683594 14.429688 5.6875 14.371094 5.699219 C 14.265625 5.714844 14.191406 5.753906 14.148438 5.792969 C 14.117188 5.824219 14.09375 5.867188 14.082031 5.914062 C 14.074219 5.933594 14.070312 5.953125 14.074219 5.976562 C 14.082031 6.003906 14.117188 6.035156 14.132812 6.0625 C 14.152344 6.089844 14.152344 6.125 14.101562 6.148438 C 13.992188 6.078125 13.890625 6 13.800781 5.90625 C 13.535156 6.007812 13.132812 6.152344 12.945312 6.378906 C 12.988281 6.351562 13.554688 5.988281 13.519531 6.480469 C 13.128906 6.5625 12.917969 6.808594 12.566406 6.976562 C 12.902344 7.09375 12.867188 7.160156 13.234375 7.222656 C 12.660156 7.382812 12.566406 7.488281 12.144531 7.789062 C 12.425781 7.660156 12.722656 7.578125 13.03125 7.542969 C 13.355469 7.496094 13.71875 7.511719 13.886719 7.699219 C 13.589844 7.871094 13.453125 7.902344 13.074219 7.835938 C 12.882812 7.914062 12.679688 7.992188 12.503906 8.070312 C 12.40625 8.015625 12.304688 7.992188 12.195312 8.003906 C 12.320312 7.992188 12.414062 7.902344 12.375 7.820312 C 12.242188 7.828125 12.109375 7.804688 11.984375 7.753906 C 11.933594 7.710938 11.988281 7.648438 12.058594 7.621094 C 12.125 7.589844 12.210938 7.574219 12.257812 7.53125 C 12.355469 7.441406 12.207031 7.320312 12.054688 7.269531 C 11.902344 7.21875 11.710938 7.171875 11.671875 7.058594 L 12.109375 7.03125 C 12.214844 6.921875 12.0625 6.785156 11.902344 6.710938 C 11.742188 6.636719 11.546875 6.558594 11.542969 6.429688 L 11.988281 6.382812 C 11.824219 6.285156 11.660156 6.1875 11.496094 6.089844 C 11.453125 6.066406 11.414062 6.039062 11.375 6.003906 C 11.320312 5.949219 11.300781 5.878906 11.289062 5.808594 C 11.207031 5.449219 11.128906 5.09375 11.046875 4.734375 C 11.027344 5.132812 10.902344 5.65625 10.375 5.847656 L 10.644531 5.925781 C 10.589844 6.050781 10.460938 6.15625 10.292969 6.226562 C 10.429688 6.242188 10.542969 6.3125 10.582031 6.398438 C 10.371094 6.519531 10.144531 6.605469 9.902344 6.652344 C 10.050781 6.695312 10.1875 6.757812 10.316406 6.84375 C 10.242188 6.90625 10.214844 7 9.898438 7.070312 C 10.011719 7.113281 10.269531 7.144531 10.445312 7.183594 C 10.4375 7.191406 10.433594 7.199219 10.429688 7.210938 C 10.097656 7.214844 9.867188 7.371094 9.609375 7.539062 C 9.761719 7.535156 10.03125 7.507812 10.046875 7.609375 C 10.0625 7.707031 9.609375 7.730469 9.488281 7.851562 C 9.570312 7.839844 9.761719 7.890625 9.871094 7.945312 C 9.941406 7.917969 10.011719 7.894531 10.085938 7.878906 C 10.148438 7.867188 10.210938 7.859375 10.273438 7.847656 C 10.332031 7.84375 10.402344 7.835938 10.441406 7.847656 C 10.441406 7.863281 10.4375 7.875 10.4375 7.890625 C 10.425781 7.894531 10.414062 7.898438 10.40625 7.898438 C 10.363281 7.910156 10.3125 7.914062 10.269531 7.921875 C 10.203125 7.929688 10.148438 7.953125 10.097656 7.992188 C 10.070312 8.019531 10.054688 8.050781 10.046875 8.085938 C 10.039062 8.101562 10.035156 8.117188 10.039062 8.136719 C 10.046875 8.160156 10.074219 8.179688 10.085938 8.203125 C 10.101562 8.222656 10.101562 8.25 10.0625 8.265625 C 9.976562 8.214844 9.898438 8.152344 9.832031 8.082031 C 9.625 8.160156 9.3125 8.273438 9.167969 8.445312 C 9.167969 8.445312 9.640625 8.128906 9.613281 8.523438 C 9.3125 8.585938 9.148438 8.777344 8.878906 8.90625 C 9.136719 8.996094 9.109375 9.046875 9.394531 9.09375 C 9.136719 9.167969 9.003906 9.226562 8.875 9.304688 C 8.871094 9.296875 8.871094 9.289062 8.867188 9.28125 C 8.757812 9.289062 8.652344 9.269531 8.550781 9.226562 C 8.511719 9.195312 8.554688 9.144531 8.609375 9.121094 C 8.664062 9.097656 8.734375 9.085938 8.773438 9.050781 C 8.851562 8.976562 8.730469 8.875 8.605469 8.835938 C 8.484375 8.796875 8.328125 8.757812 8.296875 8.667969 L 8.652344 8.644531 C 8.738281 8.558594 8.613281 8.449219 8.484375 8.386719 C 8.355469 8.328125 8.199219 8.261719 8.195312 8.160156 L 8.554688 8.121094 C 8.421875 8.042969 8.289062 7.964844 8.15625 7.882812 C 8.121094 7.867188 8.089844 7.84375 8.058594 7.816406 C 8.019531 7.773438 7.996094 7.71875 7.988281 7.660156 C 7.925781 7.371094 7.859375 7.082031 7.796875 6.792969 C 7.777344 7.113281 7.679688 7.535156 7.253906 7.691406 L 7.472656 7.753906 C 7.425781 7.855469 7.324219 7.941406 7.1875 7.996094 C 7.296875 8.007812 7.390625 8.0625 7.421875 8.132812 C 7.25 8.234375 7.066406 8.300781 6.871094 8.339844 C 6.992188 8.375 7.101562 8.425781 7.207031 8.492188 C 7.144531 8.542969 7.125 8.621094 6.867188 8.675781 C 6.960938 8.710938 7.167969 8.734375 7.308594 8.765625 C 7.308594 8.765625 7.296875 8.789062 7.296875 8.789062 C 7.03125 8.792969 6.84375 8.917969 6.632812 9.054688 C 6.757812 9.050781 6.976562 9.03125 6.988281 9.109375 C 7.003906 9.1875 6.632812 9.207031 6.539062 9.304688 C 6.605469 9.292969 6.757812 9.335938 6.847656 9.382812 C 6.902344 9.355469 6.960938 9.339844 7.019531 9.328125 C 7.070312 9.316406 7.121094 9.308594 7.171875 9.304688 C 7.214844 9.292969 7.261719 9.292969 7.304688 9.304688 C 7.304688 9.3125 7.304688 9.324219 7.304688 9.335938 C 7.292969 9.339844 7.285156 9.34375 7.277344 9.34375 C 7.246094 9.351562 7.203125 9.355469 7.167969 9.359375 C 7.117188 9.367188 7.070312 9.386719 7.03125 9.417969 C 7.007812 9.441406 6.996094 9.464844 6.988281 9.492188 C 6.984375 9.507812 6.980469 9.519531 6.984375 9.535156 C 6.988281 9.550781 7.011719 9.570312 7.023438 9.585938 C 7.035156 9.605469 7.03125 9.625 7 9.640625 C 6.933594 9.597656 6.871094 9.546875 6.816406 9.488281 C 6.648438 9.550781 6.398438 9.644531 6.28125 9.78125 C 6.308594 9.765625 6.660156 9.539062 6.640625 9.847656 C 6.398438 9.898438 6.265625 10.050781 6.046875 10.152344 C 6.257812 10.226562 6.234375 10.269531 6.460938 10.304688 C 6.105469 10.40625 6.046875 10.46875 5.785156 10.660156 C 5.960938 10.578125 6.144531 10.527344 6.335938 10.503906 C 6.535156 10.476562 6.761719 10.488281 6.867188 10.601562 C 6.679688 10.710938 6.597656 10.730469 6.363281 10.6875 C 6.132812 10.785156 5.863281 10.871094 5.765625 10.988281 C 5.886719 10.984375 6.140625 10.921875 6.246094 10.957031 C 6.351562 10.996094 6.28125 11.050781 6.21875 11.117188 C 6.128906 11.214844 5.777344 11.351562 5.777344 11.351562 C 5.917969 11.410156 6 11.414062 6.089844 11.433594 C 6.183594 11.449219 6.289062 11.511719 6.238281 11.566406 C 5.929688 11.550781 5.617188 11.640625 5.414062 11.792969 C 5.59375 11.773438 5.761719 11.800781 5.921875 11.878906 C 5.949219 11.886719 5.960938 11.90625 5.957031 11.933594 C 5.945312 11.984375 5.851562 11.988281 5.777344 11.988281 C 5.589844 11.992188 5.40625 12.050781 5.292969 12.148438 C 5.523438 12.074219 5.824219 12.132812 5.976562 12.265625 L 2.699219 12.265625 C 2.539062 12.265625 2.402344 12.324219 2.289062 12.4375 C 2.175781 12.550781 2.117188 12.6875 2.117188 12.851562 L 2.117188 18.976562 C 2.117188 19.136719 2.175781 19.273438 2.289062 19.386719 C 2.402344 19.5 2.539062 19.558594 2.699219 19.558594 L 4.648438 19.558594 L 4.648438 22.507812 C 4.648438 22.957031 4.84375 23.292969 5.234375 23.515625 L 14.414062 28.816406 C 14.800781 29.039062 15.191406 29.039062 15.578125 28.816406 L 24.757812 23.515625 C 25.144531 23.292969 25.339844 22.957031 25.339844 22.507812 L 25.339844 19.558594 L 27.289062 19.558594 C 27.453125 19.558594 27.589844 19.5 27.703125 19.386719 C 27.816406 19.273438 27.875 19.136719 27.875 18.976562 L 27.875 12.851562 C 27.875 12.6875 27.816406 12.550781 27.703125 12.4375 C 27.589844 12.324219 27.453125 12.265625 27.289062 12.265625 Z M 24.175781 21.832031 C 24.175781 22.28125 23.980469 22.617188 23.589844 22.84375 L 15.578125 27.46875 C 15.191406 27.691406 14.800781 27.691406 14.414062 27.46875 L 6.398438 22.84375 C 6.011719 22.617188 5.816406 22.28125 5.816406 21.832031 L 5.816406 19.558594 L 7.214844 19.558594 L 7.214844 21.023438 C 7.214844 21.472656 7.410156 21.808594 7.800781 22.03125 L 14.414062 25.851562 C 14.800781 26.078125 15.191406 26.078125 15.578125 25.851562 L 22.191406 22.035156 C 22.582031 21.808594 22.773438 21.472656 22.773438 21.023438 L 22.773438 19.558594 L 24.175781 19.558594 Z M 24.175781 21.832031 " fill-opacity="1" fill-rule="nonzero"/></g><path fill="#f4edcc" d="M 6.617188 12.25 C 7.070312 12.21875 7.523438 12.199219 7.976562 12.175781 C 8.429688 12.148438 8.882812 12.132812 9.335938 12.117188 C 9.789062 12.105469 10.246094 12.054688 10.699219 12.082031 C 10.925781 12.09375 11.152344 12.113281 11.378906 12.136719 C 11.609375 12.160156 11.835938 12.199219 12.058594 12.25 L 12.058594 12.285156 C 11.835938 12.335938 11.609375 12.375 11.378906 12.398438 C 11.152344 12.425781 10.925781 12.445312 10.699219 12.453125 C 10.246094 12.480469 9.789062 12.433594 9.335938 12.417969 C 8.882812 12.398438 8.429688 12.382812 7.976562 12.363281 C 7.523438 12.339844 7.070312 12.316406 6.617188 12.285156 Z M 6.617188 12.25 " fill-opacity="1" fill-rule="nonzero"/><path fill="#f4edcc" d="M 23.375 12.285156 C 22.921875 12.316406 22.46875 12.335938 22.015625 12.359375 C 21.5625 12.386719 21.105469 12.402344 20.652344 12.414062 C 20.199219 12.429688 19.746094 12.480469 19.292969 12.453125 C 19.066406 12.441406 18.839844 12.421875 18.613281 12.398438 C 18.382812 12.375 18.15625 12.335938 17.929688 12.285156 L 17.929688 12.246094 C 18.15625 12.195312 18.382812 12.160156 18.613281 12.136719 C 18.839844 12.109375 19.066406 12.089844 19.292969 12.082031 C 19.746094 12.054688 20.199219 12.101562 20.652344 12.117188 C 21.105469 12.132812 21.5625 12.152344 22.015625 12.171875 C 22.46875 12.195312 22.921875 12.21875 23.375 12.246094 Z M 23.375 12.285156 " fill-opacity="1" fill-rule="nonzero"/><path fill="#f4edcc" d="M 21.644531 19.566406 C 21.089844 19.609375 20.535156 19.628906 19.980469 19.664062 L 18.320312 19.71875 C 17.765625 19.738281 17.210938 19.742188 16.65625 19.753906 L 14.996094 19.761719 C 13.886719 19.757812 12.78125 19.753906 11.671875 19.714844 L 10.011719 19.660156 C 9.457031 19.628906 8.902344 19.609375 8.347656 19.566406 L 8.347656 19.542969 L 14.996094 19.53125 L 21.644531 19.542969 Z M 21.644531 19.566406 " fill-opacity="1" fill-rule="nonzero"/><g clip-path="url(#5b15aa4b26)"><g clip-path="url(#f566b97f49)"><path fill="#f4edcc" d="M 2.769531 12.886719 L 27.226562 12.886719 L 27.226562 18.929688 L 2.769531 18.929688 Z M 2.769531 12.886719 " fill-opacity="1" fill-rule="nonzero"/></g></g><g fill="#263940" fill-opacity="1"><g transform="translate(4.565611, 16.390243)"><g><path d="M 2.328125 0 L 1.5625 0 L 1.5 -0.40625 L 1.5 -0.421875 L 1.125 -0.421875 L 0.8125 -0.40625 L 0.75 0 L 0 0 L 0.75 -2.453125 L 1.65625 -2.453125 Z M 1.375 -0.96875 L 1.21875 -1.765625 L 1.171875 -1.765625 L 0.953125 -0.96875 Z M 1.375 -0.96875 "/></g></g></g><g fill="#263940" fill-opacity="1"><g transform="translate(7.124482, 16.390243)"><g><path d="M 1.703125 -0.5625 L 1.65625 0 L 0.203125 0 L 0.25 -0.71875 L 0.203125 -2.453125 L 0.984375 -2.453125 L 0.9375 -0.796875 L 0.953125 -0.625 L 1.671875 -0.625 Z M 1.703125 -0.5625 "/></g></g></g><g fill="#263940" fill-opacity="1"><g transform="translate(9.02191, 16.390243)"><g><path d="M 1.328125 -2.46875 C 1.691406 -2.46875 1.96875 -2.367188 2.15625 -2.171875 C 2.351562 -1.972656 2.453125 -1.691406 2.453125 -1.328125 C 2.453125 -0.890625 2.335938 -0.550781 2.109375 -0.3125 C 1.890625 -0.0820312 1.570312 0.03125 1.15625 0.03125 C 0.882812 0.03125 0.578125 0.0195312 0.234375 0 L 0.265625 -0.71875 L 0.234375 -2.453125 Z M 1.296875 -0.53125 C 1.410156 -0.53125 1.5 -0.578125 1.5625 -0.671875 C 1.625 -0.765625 1.65625 -0.921875 1.65625 -1.140625 C 1.65625 -1.328125 1.640625 -1.472656 1.609375 -1.578125 C 1.585938 -1.679688 1.550781 -1.753906 1.5 -1.796875 C 1.445312 -1.847656 1.367188 -1.875 1.265625 -1.875 C 1.171875 -1.875 1.078125 -1.867188 0.984375 -1.859375 L 0.953125 -0.796875 L 0.96875 -0.5625 C 1.113281 -0.539062 1.222656 -0.53125 1.296875 -0.53125 Z M 1.296875 -0.53125 "/></g></g></g><g fill="#263940" fill-opacity="1"><g transform="translate(11.724408, 16.390243)"><g><path d="M 1.953125 -0.609375 L 2 -0.546875 L 1.953125 0 L 0.234375 0 L 0.265625 -0.71875 L 0.234375 -2.453125 L 1.984375 -2.453125 L 2.015625 -2.390625 L 1.96875 -1.84375 L 1.375 -1.859375 L 0.984375 -1.859375 L 0.96875 -1.515625 L 1.34375 -1.515625 L 1.75 -1.53125 L 1.78125 -1.484375 L 1.734375 -0.921875 L 1.296875 -0.9375 L 0.953125 -0.9375 L 0.953125 -0.796875 L 0.96875 -0.578125 L 1.328125 -0.578125 Z M 1.953125 -0.609375 "/></g></g></g><g fill="#263940" fill-opacity="1"><g transform="translate(13.958228, 16.390243)"><g><path d="M 2.421875 -0.796875 L 2.453125 0 L 1.625 0 L 0.9375 -1.3125 L 0.890625 -1.3125 L 0.890625 -0.890625 L 0.921875 0 L 0.234375 0 L 0.265625 -0.71875 L 0.234375 -2.453125 L 1.046875 -2.453125 L 1.734375 -1.140625 L 1.78125 -1.140625 L 1.765625 -2.421875 L 2.453125 -2.46875 Z M 2.421875 -0.796875 "/></g></g></g><g fill="#263940" fill-opacity="1"><g transform="translate(16.830812, 16.390243)"><g><path d="M 2.328125 0 L 1.5625 0 L 1.5 -0.40625 L 1.5 -0.421875 L 1.125 -0.421875 L 0.8125 -0.40625 L 0.75 0 L 0 0 L 0.75 -2.453125 L 1.65625 -2.453125 Z M 1.375 -0.96875 L 1.21875 -1.765625 L 1.171875 -1.765625 L 0.953125 -0.96875 Z M 1.375 -0.96875 "/></g></g></g><g fill="#263940" fill-opacity="1"><g transform="translate(19.389684, 16.390243)"><g><path d="M 0.953125 -0.796875 L 0.984375 0 L 0.234375 0 L 0.265625 -0.71875 L 0.234375 -2.453125 L 1 -2.453125 Z M 0.953125 -0.796875 "/></g></g></g><g fill="#263940" fill-opacity="1"><g transform="translate(20.814653, 16.390243)"><g><path d="M 1.84375 -0.96875 C 2.019531 -0.6875 2.195312 -0.421875 2.375 -0.171875 L 2.375 -0.09375 C 2.113281 -0.0195312 1.859375 0.0234375 1.609375 0.046875 L 1.53125 -0.015625 L 1.5 -0.109375 C 1.476562 -0.148438 1.4375 -0.234375 1.375 -0.359375 C 1.3125 -0.492188 1.257812 -0.617188 1.21875 -0.734375 L 0.953125 -0.734375 L 0.984375 0 L 0.234375 0 L 0.265625 -0.71875 L 0.234375 -2.453125 L 1.390625 -2.453125 C 1.660156 -2.453125 1.867188 -2.382812 2.015625 -2.25 C 2.171875 -2.125 2.25 -1.9375 2.25 -1.6875 C 2.25 -1.550781 2.210938 -1.414062 2.140625 -1.28125 C 2.066406 -1.15625 1.96875 -1.050781 1.84375 -0.96875 Z M 1.453125 -1.625 C 1.453125 -1.71875 1.425781 -1.789062 1.375 -1.84375 C 1.320312 -1.894531 1.238281 -1.921875 1.125 -1.921875 L 0.984375 -1.90625 L 0.96875 -1.28125 L 1.25 -1.265625 C 1.3125 -1.296875 1.359375 -1.335938 1.390625 -1.390625 C 1.429688 -1.453125 1.453125 -1.53125 1.453125 -1.625 Z M 1.453125 -1.625 "/></g></g></g><g fill="#263940" fill-opacity="1"><g transform="translate(23.388642, 16.390243)"><g><path d="M 1.953125 -0.609375 L 2 -0.546875 L 1.953125 0 L 0.234375 0 L 0.265625 -0.71875 L 0.234375 -2.453125 L 1.984375 -2.453125 L 2.015625 -2.390625 L 1.96875 -1.84375 L 1.375 -1.859375 L 0.984375 -1.859375 L 0.96875 -1.515625 L 1.34375 -1.515625 L 1.75 -1.53125 L 1.78125 -1.484375 L 1.734375 -0.921875 L 1.296875 -0.9375 L 0.953125 -0.9375 L 0.953125 -0.796875 L 0.96875 -0.578125 L 1.328125 -0.578125 Z M 1.953125 -0.609375 "/></g></g></g><g fill="#263940" fill-opacity="1"><g transform="translate(5.25823, 18.08561)"><g><path d="M 0.609375 -0.847656 C 0.78125 -0.847656 0.898438 -0.730469 0.898438 -0.527344 C 0.898438 -0.324219 0.78125 -0.203125 0.609375 -0.203125 C 0.4375 -0.203125 0.320312 -0.324219 0.320312 -0.527344 C 0.320312 -0.730469 0.4375 -0.847656 0.609375 -0.847656 Z M 0.609375 -1.078125 C 0.292969 -1.078125 0.0664062 -0.855469 0.0664062 -0.527344 C 0.0664062 -0.195312 0.292969 0.0234375 0.609375 0.0234375 C 0.925781 0.0234375 1.15625 -0.195312 1.15625 -0.527344 C 1.15625 -0.855469 0.925781 -1.078125 0.609375 -1.078125 Z M 0.609375 -1.078125 "/></g></g></g><g fill="#263940" fill-opacity="1"><g transform="translate(6.566323, 18.08561)"><g><path d="M 0.101562 -0.421875 C 0.101562 -0.113281 0.292969 0.0234375 0.589844 0.0234375 C 0.886719 0.0234375 1.074219 -0.121094 1.074219 -0.421875 L 1.074219 -1.050781 L 0.820312 -1.050781 L 0.820312 -0.421875 C 0.820312 -0.273438 0.730469 -0.203125 0.589844 -0.203125 C 0.449219 -0.203125 0.355469 -0.273438 0.355469 -0.421875 L 0.355469 -1.050781 L 0.101562 -1.050781 Z M 0.101562 -0.421875 "/></g></g></g><g fill="#263940" fill-opacity="1"><g transform="translate(7.831113, 18.08561)"><g><path d="M 0.015625 -1.050781 L 0.015625 -0.824219 L 0.347656 -0.824219 L 0.347656 0 L 0.601562 0 L 0.601562 -0.824219 L 0.933594 -0.824219 L 0.933594 -1.050781 Z M 0.015625 -1.050781 "/></g></g></g><g fill="#263940" fill-opacity="1"><g transform="translate(8.868565, 18.08561)"><g><path d="M 0.101562 0 L 0.621094 0 C 0.921875 0 1.136719 -0.210938 1.136719 -0.527344 C 1.136719 -0.847656 0.921875 -1.050781 0.621094 -1.050781 L 0.101562 -1.050781 Z M 0.355469 -0.230469 L 0.355469 -0.824219 L 0.578125 -0.824219 C 0.753906 -0.824219 0.878906 -0.714844 0.878906 -0.527344 C 0.878906 -0.339844 0.753906 -0.230469 0.578125 -0.230469 Z M 0.355469 -0.230469 "/></g></g></g><g fill="#263940" fill-opacity="1"><g transform="translate(10.155006, 18.08561)"><g><path d="M 0.609375 -0.847656 C 0.78125 -0.847656 0.898438 -0.730469 0.898438 -0.527344 C 0.898438 -0.324219 0.78125 -0.203125 0.609375 -0.203125 C 0.4375 -0.203125 0.320312 -0.324219 0.320312 -0.527344 C 0.320312 -0.730469 0.4375 -0.847656 0.609375 -0.847656 Z M 0.609375 -1.078125 C 0.292969 -1.078125 0.0664062 -0.855469 0.0664062 -0.527344 C 0.0664062 -0.195312 0.292969 0.0234375 0.609375 0.0234375 C 0.925781 0.0234375 1.15625 -0.195312 1.15625 -0.527344 C 1.15625 -0.855469 0.925781 -1.078125 0.609375 -1.078125 Z M 0.609375 -1.078125 "/></g></g></g><g fill="#263940" fill-opacity="1"><g transform="translate(11.463099, 18.08561)"><g><path d="M 0.609375 -0.847656 C 0.78125 -0.847656 0.898438 -0.730469 0.898438 -0.527344 C 0.898438 -0.324219 0.78125 -0.203125 0.609375 -0.203125 C 0.4375 -0.203125 0.320312 -0.324219 0.320312 -0.527344 C 0.320312 -0.730469 0.4375 -0.847656 0.609375 -0.847656 Z M 0.609375 -1.078125 C 0.292969 -1.078125 0.0664062 -0.855469 0.0664062 -0.527344 C 0.0664062 -0.195312 0.292969 0.0234375 0.609375 0.0234375 C 0.925781 0.0234375 1.15625 -0.195312 1.15625 -0.527344 C 1.15625 -0.855469 0.925781 -1.078125 0.609375 -1.078125 Z M 0.609375 -1.078125 "/></g></g></g><g fill="#263940" fill-opacity="1"><g transform="translate(12.771192, 18.08561)"><g><path d="M 0.101562 0 L 0.355469 0 L 0.355469 -0.398438 L 0.550781 -0.398438 L 0.714844 0 L 0.984375 0 L 0.796875 -0.453125 C 0.878906 -0.507812 0.921875 -0.605469 0.921875 -0.726562 C 0.921875 -0.921875 0.804688 -1.050781 0.59375 -1.050781 L 0.101562 -1.050781 Z M 0.355469 -0.597656 L 0.355469 -0.851562 L 0.539062 -0.851562 C 0.621094 -0.851562 0.667969 -0.808594 0.667969 -0.726562 C 0.667969 -0.640625 0.621094 -0.597656 0.539062 -0.597656 Z M 0.355469 -0.597656 "/></g></g></g><g fill="#263940" fill-opacity="1"><g transform="translate(13.868186, 18.08561)"><g/></g></g><g fill="#263940" fill-opacity="1"><g transform="translate(14.312036, 18.08561)"><g><path d="M 0.402344 -1.050781 L 0.015625 0 L 0.285156 0 L 0.359375 -0.207031 L 0.761719 -0.207031 L 0.832031 0 L 1.105469 0 L 0.714844 -1.050781 Z M 0.679688 -0.4375 L 0.4375 -0.4375 L 0.558594 -0.785156 Z M 0.679688 -0.4375 "/></g></g></g><g fill="#263940" fill-opacity="1"><g transform="translate(15.520894, 18.08561)"><g><path d="M 0.101562 0 L 0.621094 0 C 0.921875 0 1.136719 -0.210938 1.136719 -0.527344 C 1.136719 -0.847656 0.921875 -1.050781 0.621094 -1.050781 L 0.101562 -1.050781 Z M 0.355469 -0.230469 L 0.355469 -0.824219 L 0.578125 -0.824219 C 0.753906 -0.824219 0.878906 -0.714844 0.878906 -0.527344 C 0.878906 -0.339844 0.753906 -0.230469 0.578125 -0.230469 Z M 0.355469 -0.230469 "/></g></g></g><g fill="#263940" fill-opacity="1"><g transform="translate(16.807334, 18.08561)"><g><path d="M 0.015625 -1.050781 L 0.402344 0 L 0.71875 0 L 1.105469 -1.050781 L 0.832031 -1.050781 L 0.558594 -0.265625 L 0.285156 -1.050781 Z M 0.015625 -1.050781 "/></g></g></g><g fill="#263940" fill-opacity="1"><g transform="translate(18.016192, 18.08561)"><g><path d="M 0.101562 -1.050781 L 0.101562 0 L 0.921875 0 L 0.921875 -0.199219 L 0.355469 -0.199219 L 0.355469 -0.425781 L 0.78125 -0.425781 L 0.78125 -0.628906 L 0.355469 -0.628906 L 0.355469 -0.851562 L 0.921875 -0.851562 L 0.921875 -1.050781 Z M 0.101562 -1.050781 "/></g></g></g><g fill="#263940" fill-opacity="1"><g transform="translate(19.091534, 18.08561)"><g><path d="M 0.101562 0 L 0.355469 0 L 0.355469 -0.613281 L 0.875 0 L 1.074219 0 L 1.074219 -1.050781 L 0.820312 -1.050781 L 0.820312 -0.4375 L 0.300781 -1.050781 L 0.101562 -1.050781 Z M 0.101562 0 "/></g></g></g><g fill="#263940" fill-opacity="1"><g transform="translate(20.356324, 18.08561)"><g><path d="M 0.015625 -1.050781 L 0.015625 -0.824219 L 0.347656 -0.824219 L 0.347656 0 L 0.601562 0 L 0.601562 -0.824219 L 0.933594 -0.824219 L 0.933594 -1.050781 Z M 0.015625 -1.050781 "/></g></g></g><g fill="#263940" fill-opacity="1"><g transform="translate(21.393776, 18.08561)"><g><path d="M 0.101562 -0.421875 C 0.101562 -0.113281 0.292969 0.0234375 0.589844 0.0234375 C 0.886719 0.0234375 1.074219 -0.121094 1.074219 -0.421875 L 1.074219 -1.050781 L 0.820312 -1.050781 L 0.820312 -0.421875 C 0.820312 -0.273438 0.730469 -0.203125 0.589844 -0.203125 C 0.449219 -0.203125 0.355469 -0.273438 0.355469 -0.421875 L 0.355469 -1.050781 L 0.101562 -1.050781 Z M 0.101562 -0.421875 "/></g></g></g><g fill="#263940" fill-opacity="1"><g transform="translate(22.658566, 18.08561)"><g><path d="M 0.101562 0 L 0.355469 0 L 0.355469 -0.398438 L 0.550781 -0.398438 L 0.714844 0 L 0.984375 0 L 0.796875 -0.453125 C 0.878906 -0.507812 0.921875 -0.605469 0.921875 -0.726562 C 0.921875 -0.921875 0.804688 -1.050781 0.59375 -1.050781 L 0.101562 -1.050781 Z M 0.355469 -0.597656 L 0.355469 -0.851562 L 0.539062 -0.851562 C 0.621094 -0.851562 0.667969 -0.808594 0.667969 -0.726562 C 0.667969 -0.640625 0.621094 -0.597656 0.539062 -0.597656 Z M 0.355469 -0.597656 "/></g></g></g><g fill="#263940" fill-opacity="1"><g transform="translate(23.755561, 18.08561)"><g><path d="M 0.101562 -1.050781 L 0.101562 0 L 0.921875 0 L 0.921875 -0.199219 L 0.355469 -0.199219 L 0.355469 -0.425781 L 0.78125 -0.425781 L 0.78125 -0.628906 L 0.355469 -0.628906 L 0.355469 -0.851562 L 0.921875 -0.851562 L 0.921875 -1.050781 Z M 0.101562 -1.050781 "/></g></g></g><g fill="#f4edcc" fill-opacity="1"><g transform="translate(11.229053, 21.885602)"><g><path d="M 0.902344 -0.515625 C 0.824219 -0.296875 0.640625 -0.214844 0.503906 -0.214844 C 0.367188 -0.214844 0.234375 -0.296875 0.234375 -0.410156 C 0.234375 -0.433594 0.238281 -0.464844 0.246094 -0.492188 L 0.464844 -1.097656 C 0.503906 -1.210938 0.574219 -1.226562 0.617188 -1.226562 C 0.65625 -1.226562 0.683594 -1.203125 0.683594 -1.152344 C 0.683594 -1.125 0.675781 -1.097656 0.664062 -1.0625 C 0.65625 -1.050781 0.65625 -1.039062 0.65625 -1.027344 C 0.65625 -0.964844 0.714844 -0.914062 0.78125 -0.914062 C 0.839844 -0.914062 0.910156 -0.957031 0.941406 -1.070312 C 0.953125 -1.113281 0.957031 -1.15625 0.957031 -1.191406 C 0.957031 -1.382812 0.808594 -1.492188 0.613281 -1.492188 C 0.484375 -1.492188 0.292969 -1.441406 0.199219 -1.183594 L -0.015625 -0.570312 C -0.03125 -0.515625 -0.0429688 -0.457031 -0.0429688 -0.40625 C -0.0429688 -0.179688 0.164062 0 0.460938 0 C 0.699219 0 1 -0.121094 1.105469 -0.457031 C 1.109375 -0.472656 1.109375 -0.484375 1.109375 -0.496094 C 1.109375 -0.554688 1.054688 -0.589844 1.003906 -0.589844 C 0.957031 -0.589844 0.914062 -0.566406 0.902344 -0.515625 Z M 0.902344 -0.515625 "/></g></g></g><g fill="#f4edcc" fill-opacity="1"><g transform="translate(12.103357, 21.885602)"><g><path d="M 1.078125 -0.582031 C 1.027344 -0.582031 0.976562 -0.550781 0.957031 -0.484375 C 0.886719 -0.273438 0.78125 -0.203125 0.703125 -0.203125 C 0.671875 -0.203125 0.65625 -0.21875 0.65625 -0.246094 C 0.65625 -0.261719 0.660156 -0.277344 0.664062 -0.296875 L 0.855469 -0.855469 C 0.863281 -0.875 0.867188 -0.894531 0.867188 -0.910156 C 0.867188 -0.984375 0.804688 -1.027344 0.742188 -1.027344 C 0.695312 -1.027344 0.644531 -1.003906 0.617188 -0.960938 C 0.582031 -0.984375 0.511719 -1.007812 0.425781 -1.007812 C 0.3125 -1.007812 0.1875 -0.945312 0.144531 -0.8125 L -0.0195312 -0.351562 C -0.0273438 -0.320312 -0.0351562 -0.289062 -0.0351562 -0.257812 C -0.0351562 -0.117188 0.078125 0 0.230469 0 C 0.3125 0 0.394531 -0.0351562 0.457031 -0.09375 C 0.511719 -0.015625 0.632812 0 0.683594 0 C 0.828125 0 1.019531 -0.0703125 1.128906 -0.351562 C 1.152344 -0.417969 1.171875 -0.460938 1.171875 -0.492188 C 1.171875 -0.550781 1.125 -0.582031 1.078125 -0.582031 Z M 0.511719 -0.597656 L 0.429688 -0.34375 C 0.390625 -0.230469 0.328125 -0.203125 0.289062 -0.203125 C 0.253906 -0.203125 0.234375 -0.226562 0.234375 -0.269531 C 0.234375 -0.289062 0.238281 -0.3125 0.242188 -0.328125 L 0.355469 -0.671875 C 0.386719 -0.777344 0.433594 -0.789062 0.460938 -0.789062 C 0.496094 -0.789062 0.53125 -0.757812 0.53125 -0.699219 C 0.53125 -0.671875 0.523438 -0.640625 0.511719 -0.597656 Z M 0.511719 -0.597656 "/></g></g></g><g fill="#f4edcc" fill-opacity="1"><g transform="translate(13.039496, 21.885602)"><g><path d="M 0.234375 -0.28125 L 0.597656 -1.324219 C 0.601562 -1.34375 0.605469 -1.367188 0.605469 -1.382812 C 0.605469 -1.449219 0.542969 -1.492188 0.492188 -1.492188 C 0.429688 -1.492188 0.386719 -1.453125 0.355469 -1.378906 L 0 -0.355469 C -0.015625 -0.316406 -0.0195312 -0.28125 -0.0195312 -0.246094 C -0.0195312 -0.0859375 0.109375 0 0.261719 0 C 0.425781 0 0.628906 -0.101562 0.75 -0.457031 C 0.753906 -0.472656 0.753906 -0.484375 0.753906 -0.492188 C 0.753906 -0.546875 0.707031 -0.585938 0.652344 -0.585938 C 0.609375 -0.585938 0.5625 -0.5625 0.539062 -0.5 C 0.460938 -0.292969 0.363281 -0.203125 0.28125 -0.203125 C 0.246094 -0.203125 0.226562 -0.226562 0.226562 -0.25 C 0.226562 -0.257812 0.230469 -0.269531 0.234375 -0.28125 Z M 0.234375 -0.28125 "/></g></g></g><g fill="#f4edcc" fill-opacity="1"><g transform="translate(13.553092, 21.885602)"><g><path d="M 0.460938 -1.167969 C 0.539062 -1.167969 0.601562 -1.230469 0.601562 -1.308594 C 0.601562 -1.386719 0.539062 -1.449219 0.460938 -1.449219 C 0.386719 -1.449219 0.320312 -1.386719 0.320312 -1.308594 C 0.320312 -1.230469 0.386719 -1.167969 0.460938 -1.167969 Z M 0.230469 -0.289062 L 0.417969 -0.828125 C 0.425781 -0.851562 0.433594 -0.875 0.433594 -0.894531 C 0.433594 -0.96875 0.378906 -1.007812 0.320312 -1.007812 C 0.265625 -1.007812 0.210938 -0.96875 0.183594 -0.890625 C 0.128906 -0.726562 0.0546875 -0.523438 0 -0.363281 C -0.0117188 -0.328125 -0.0234375 -0.285156 -0.0234375 -0.253906 C -0.0234375 -0.09375 0.109375 0 0.269531 0 C 0.4375 0 0.621094 -0.101562 0.742188 -0.457031 C 0.746094 -0.46875 0.746094 -0.480469 0.746094 -0.488281 C 0.746094 -0.542969 0.695312 -0.574219 0.644531 -0.574219 C 0.597656 -0.574219 0.550781 -0.550781 0.53125 -0.5 C 0.449219 -0.273438 0.359375 -0.203125 0.289062 -0.203125 C 0.25 -0.203125 0.226562 -0.230469 0.226562 -0.261719 C 0.226562 -0.269531 0.226562 -0.28125 0.230469 -0.289062 Z M 0.230469 -0.289062 "/></g></g></g><g fill="#f4edcc" fill-opacity="1"><g transform="translate(14.061534, 21.885602)"><g><path d="M 0.167969 -0.804688 L -0.289062 0.488281 C -0.296875 0.507812 -0.300781 0.527344 -0.300781 0.542969 C -0.300781 0.613281 -0.242188 0.660156 -0.175781 0.660156 C -0.125 0.660156 -0.0703125 0.628906 -0.0429688 0.546875 L 0.433594 -0.804688 L 0.558594 -0.804688 C 0.640625 -0.808594 0.675781 -0.867188 0.675781 -0.914062 C 0.675781 -0.964844 0.640625 -1.007812 0.578125 -1.007812 L 0.507812 -1.007812 L 0.601562 -1.277344 C 0.617188 -1.320312 0.648438 -1.34375 0.679688 -1.34375 C 0.714844 -1.34375 0.726562 -1.324219 0.726562 -1.296875 C 0.726562 -1.285156 0.726562 -1.273438 0.722656 -1.261719 C 0.714844 -1.246094 0.710938 -1.230469 0.710938 -1.214844 C 0.710938 -1.15625 0.769531 -1.113281 0.828125 -1.113281 C 0.882812 -1.113281 0.941406 -1.148438 0.960938 -1.230469 C 0.964844 -1.253906 0.96875 -1.277344 0.96875 -1.300781 C 0.96875 -1.453125 0.851562 -1.566406 0.703125 -1.566406 C 0.554688 -1.566406 0.410156 -1.484375 0.347656 -1.304688 L 0.242188 -1.007812 L 0.199219 -1.007812 C 0.0898438 -1.007812 0.046875 -0.949219 0.046875 -0.894531 C 0.046875 -0.84375 0.078125 -0.804688 0.132812 -0.804688 Z M 0.167969 -0.804688 "/></g></g></g><g fill="#f4edcc" fill-opacity="1"><g transform="translate(14.645553, 21.885602)"><g><path d="M 0.726562 -0.359375 C 0.726562 -0.355469 0.726562 -0.386719 0.71875 -0.417969 C 0.730469 -0.425781 0.742188 -0.441406 0.753906 -0.457031 C 0.785156 -0.5 0.835938 -0.648438 0.835938 -0.714844 C 0.835938 -0.890625 0.691406 -1.007812 0.503906 -1.007812 C 0.34375 -1.007812 0.191406 -0.917969 0.136719 -0.765625 L 0.0117188 -0.414062 C -0.00390625 -0.371094 -0.0117188 -0.328125 -0.0117188 -0.289062 C -0.0117188 -0.109375 0.144531 0 0.316406 0 C 0.453125 0 0.574219 -0.0429688 0.644531 -0.167969 C 0.675781 -0.15625 0.714844 -0.152344 0.75 -0.152344 C 0.953125 -0.152344 1.113281 -0.296875 1.167969 -0.476562 C 1.175781 -0.496094 1.179688 -0.511719 1.179688 -0.527344 C 1.179688 -0.59375 1.132812 -0.628906 1.082031 -0.628906 C 1.035156 -0.628906 0.988281 -0.601562 0.96875 -0.539062 C 0.929688 -0.429688 0.851562 -0.355469 0.75 -0.355469 C 0.742188 -0.355469 0.734375 -0.355469 0.726562 -0.359375 Z M 0.566406 -0.625 C 0.5625 -0.609375 0.554688 -0.59375 0.554688 -0.582031 C 0.460938 -0.589844 0.375 -0.511719 0.375 -0.410156 C 0.378906 -0.351562 0.40625 -0.320312 0.441406 -0.292969 C 0.417969 -0.234375 0.367188 -0.203125 0.3125 -0.203125 C 0.246094 -0.203125 0.230469 -0.246094 0.230469 -0.285156 C 0.230469 -0.320312 0.238281 -0.351562 0.246094 -0.367188 L 0.367188 -0.714844 C 0.386719 -0.773438 0.449219 -0.804688 0.5 -0.804688 C 0.554688 -0.804688 0.589844 -0.769531 0.589844 -0.730469 C 0.589844 -0.699219 0.578125 -0.660156 0.566406 -0.625 Z M 0.566406 -0.625 "/></g></g></g><g fill="#f4edcc" fill-opacity="1"><g transform="translate(15.57654, 21.885602)"><g><path d="M 0.871094 -0.5 C 0.804688 -0.328125 0.71875 -0.203125 0.644531 -0.203125 C 0.621094 -0.203125 0.609375 -0.226562 0.609375 -0.25 C 0.609375 -0.261719 0.613281 -0.273438 0.617188 -0.289062 L 0.71875 -0.570312 C 0.726562 -0.605469 0.734375 -0.636719 0.734375 -0.664062 C 0.734375 -0.828125 0.527344 -0.898438 0.433594 -0.925781 C 0.4375 -0.941406 0.441406 -0.957031 0.441406 -0.96875 C 0.441406 -1.046875 0.371094 -1.113281 0.292969 -1.113281 C 0.191406 -1.113281 0.128906 -1.027344 0.128906 -0.925781 C 0.128906 -0.882812 0.144531 -0.839844 0.171875 -0.804688 L 0.046875 -0.46875 C 0.0429688 -0.453125 0.0429688 -0.441406 0.0429688 -0.429688 C 0.0429688 -0.371094 0.0859375 -0.34375 0.136719 -0.34375 C 0.183594 -0.34375 0.234375 -0.371094 0.253906 -0.425781 L 0.351562 -0.683594 C 0.398438 -0.667969 0.460938 -0.65625 0.460938 -0.597656 C 0.460938 -0.589844 0.460938 -0.578125 0.457031 -0.566406 L 0.382812 -0.355469 C 0.367188 -0.316406 0.359375 -0.28125 0.359375 -0.246094 C 0.359375 -0.0976562 0.480469 0 0.621094 0 C 0.808594 0 0.980469 -0.167969 1.082031 -0.457031 C 1.085938 -0.46875 1.085938 -0.476562 1.085938 -0.484375 C 1.085938 -0.535156 1.027344 -0.570312 0.972656 -0.570312 C 0.929688 -0.570312 0.886719 -0.550781 0.871094 -0.5 Z M 0.871094 -0.5 "/></g></g></g><g fill="#f4edcc" fill-opacity="1"><g transform="translate(16.423361, 21.885602)"><g><path d="M 0.957031 -0.496094 C 0.882812 -0.289062 0.789062 -0.203125 0.707031 -0.203125 C 0.675781 -0.203125 0.660156 -0.21875 0.660156 -0.25 C 0.660156 -0.261719 0.664062 -0.273438 0.667969 -0.292969 L 0.800781 -0.671875 C 0.8125 -0.707031 0.820312 -0.738281 0.820312 -0.769531 C 0.820312 -0.90625 0.703125 -1.007812 0.566406 -1.007812 C 0.5 -1.007812 0.445312 -0.992188 0.402344 -0.960938 C 0.390625 -0.992188 0.347656 -1.007812 0.300781 -1.007812 C 0.253906 -1.007812 0.207031 -0.984375 0.191406 -0.9375 L -0.0976562 -0.136719 C -0.101562 -0.121094 -0.101562 -0.105469 -0.101562 -0.09375 C -0.101562 -0.0273438 -0.0546875 0.00390625 0 0.00390625 C 0.0625 0.00390625 0.128906 -0.0351562 0.15625 -0.113281 C 0.214844 -0.277344 0.300781 -0.511719 0.355469 -0.679688 C 0.402344 -0.765625 0.464844 -0.804688 0.511719 -0.804688 C 0.542969 -0.804688 0.566406 -0.785156 0.566406 -0.753906 C 0.566406 -0.742188 0.5625 -0.726562 0.554688 -0.710938 L 0.429688 -0.355469 C 0.417969 -0.316406 0.410156 -0.277344 0.410156 -0.242188 C 0.410156 -0.0859375 0.539062 0 0.683594 0 C 0.859375 0 1.046875 -0.117188 1.167969 -0.453125 C 1.171875 -0.46875 1.175781 -0.480469 1.175781 -0.492188 C 1.175781 -0.546875 1.125 -0.578125 1.074219 -0.578125 C 1.027344 -0.578125 0.976562 -0.550781 0.957031 -0.496094 Z M 0.957031 -0.496094 "/></g></g></g><g fill="#f4edcc" fill-opacity="1"><g transform="translate(17.3595, 21.885602)"><g><path d="M 0.460938 -1.167969 C 0.539062 -1.167969 0.601562 -1.230469 0.601562 -1.308594 C 0.601562 -1.386719 0.539062 -1.449219 0.460938 -1.449219 C 0.386719 -1.449219 0.320312 -1.386719 0.320312 -1.308594 C 0.320312 -1.230469 0.386719 -1.167969 0.460938 -1.167969 Z M 0.230469 -0.289062 L 0.417969 -0.828125 C 0.425781 -0.851562 0.433594 -0.875 0.433594 -0.894531 C 0.433594 -0.96875 0.378906 -1.007812 0.320312 -1.007812 C 0.265625 -1.007812 0.210938 -0.96875 0.183594 -0.890625 C 0.128906 -0.726562 0.0546875 -0.523438 0 -0.363281 C -0.0117188 -0.328125 -0.0234375 -0.285156 -0.0234375 -0.253906 C -0.0234375 -0.09375 0.109375 0 0.269531 0 C 0.4375 0 0.621094 -0.101562 0.742188 -0.457031 C 0.746094 -0.46875 0.746094 -0.480469 0.746094 -0.488281 C 0.746094 -0.542969 0.695312 -0.574219 0.644531 -0.574219 C 0.597656 -0.574219 0.550781 -0.550781 0.53125 -0.5 C 0.449219 -0.273438 0.359375 -0.203125 0.289062 -0.203125 C 0.25 -0.203125 0.226562 -0.230469 0.226562 -0.261719 C 0.226562 -0.269531 0.226562 -0.28125 0.230469 -0.289062 Z M 0.230469 -0.289062 "/></g></g></g><g fill="#f4edcc" fill-opacity="1"><g transform="translate(17.867943, 21.885602)"><g><path d="M 1.078125 -0.582031 C 1.027344 -0.582031 0.976562 -0.550781 0.957031 -0.484375 C 0.886719 -0.273438 0.78125 -0.203125 0.703125 -0.203125 C 0.671875 -0.203125 0.65625 -0.21875 0.65625 -0.246094 C 0.65625 -0.261719 0.660156 -0.277344 0.664062 -0.296875 L 0.855469 -0.855469 C 0.863281 -0.875 0.867188 -0.894531 0.867188 -0.910156 C 0.867188 -0.984375 0.804688 -1.027344 0.742188 -1.027344 C 0.695312 -1.027344 0.644531 -1.003906 0.617188 -0.960938 C 0.582031 -0.984375 0.511719 -1.007812 0.425781 -1.007812 C 0.3125 -1.007812 0.1875 -0.945312 0.144531 -0.8125 L -0.0195312 -0.351562 C -0.0273438 -0.320312 -0.0351562 -0.289062 -0.0351562 -0.257812 C -0.0351562 -0.117188 0.078125 0 0.230469 0 C 0.3125 0 0.394531 -0.0351562 0.457031 -0.09375 C 0.511719 -0.015625 0.632812 0 0.683594 0 C 0.828125 0 1.019531 -0.0703125 1.128906 -0.351562 C 1.152344 -0.417969 1.171875 -0.460938 1.171875 -0.492188 C 1.171875 -0.550781 1.125 -0.582031 1.078125 -0.582031 Z M 0.511719 -0.597656 L 0.429688 -0.34375 C 0.390625 -0.230469 0.328125 -0.203125 0.289062 -0.203125 C 0.253906 -0.203125 0.234375 -0.226562 0.234375 -0.269531 C 0.234375 -0.289062 0.238281 -0.3125 0.242188 -0.328125 L 0.355469 -0.671875 C 0.386719 -0.777344 0.433594 -0.789062 0.460938 -0.789062 C 0.496094 -0.789062 0.53125 -0.757812 0.53125 -0.699219 C 0.53125 -0.671875 0.523438 -0.640625 0.511719 -0.597656 Z M 0.511719 -0.597656 "/></g></g></g><g fill="#f4edcc" fill-opacity="1"><g transform="translate(13.230514, 24.239381)"><g><path d="M 0.726562 -0.65625 C 0.757812 -0.675781 0.773438 -0.6875 0.773438 -0.722656 L 0.773438 -1.125 C 0.773438 -1.289062 0.683594 -1.375 0.527344 -1.375 L 0.332031 -1.375 C 0.171875 -1.375 0.0859375 -1.289062 0.0859375 -1.125 L 0.0859375 -0.945312 C 0.0859375 -0.925781 0.09375 -0.917969 0.113281 -0.917969 L 0.292969 -0.917969 C 0.308594 -0.917969 0.320312 -0.925781 0.320312 -0.945312 L 0.320312 -1.078125 C 0.320312 -1.125 0.34375 -1.148438 0.386719 -1.148438 L 0.472656 -1.148438 C 0.511719 -1.148438 0.539062 -1.125 0.539062 -1.078125 L 0.539062 -0.824219 L 0.128906 -0.605469 C 0.0976562 -0.585938 0.0859375 -0.574219 0.0859375 -0.542969 L 0.0859375 -0.0351562 C 0.0859375 -0.0117188 0.0976562 0 0.121094 0 L 0.738281 0 C 0.761719 0 0.773438 -0.0117188 0.773438 -0.0351562 L 0.773438 -0.296875 C 0.773438 -0.320312 0.761719 -0.332031 0.738281 -0.332031 L 0.574219 -0.332031 C 0.550781 -0.332031 0.539062 -0.320312 0.539062 -0.296875 L 0.539062 -0.226562 L 0.355469 -0.226562 C 0.332031 -0.226562 0.320312 -0.238281 0.320312 -0.261719 L 0.320312 -0.410156 C 0.320312 -0.429688 0.328125 -0.441406 0.34375 -0.453125 Z M 0.726562 -0.65625 "/></g></g></g><g fill="#f4edcc" fill-opacity="1"><g transform="translate(14.123713, 24.239381)"><g><path d="M 0.0859375 -0.246094 C 0.0859375 -0.0859375 0.171875 0 0.332031 0 L 0.527344 0 C 0.6875 0 0.773438 -0.0859375 0.773438 -0.246094 L 0.773438 -1.125 C 0.773438 -1.289062 0.6875 -1.375 0.527344 -1.375 L 0.332031 -1.375 C 0.171875 -1.375 0.0859375 -1.289062 0.0859375 -1.125 Z M 0.382812 -0.222656 C 0.339844 -0.222656 0.3125 -0.242188 0.3125 -0.289062 L 0.3125 -1.085938 C 0.3125 -1.128906 0.339844 -1.152344 0.382812 -1.152344 L 0.484375 -1.152344 C 0.527344 -1.152344 0.550781 -1.128906 0.550781 -1.085938 L 0.550781 -0.289062 C 0.550781 -0.242188 0.527344 -0.222656 0.484375 -0.222656 Z M 0.382812 -0.222656 "/></g></g></g><g fill="#f4edcc" fill-opacity="1"><g transform="translate(15.016911, 24.239381)"><g><path d="M 0.726562 -0.65625 C 0.757812 -0.675781 0.773438 -0.6875 0.773438 -0.722656 L 0.773438 -1.125 C 0.773438 -1.289062 0.683594 -1.375 0.527344 -1.375 L 0.332031 -1.375 C 0.171875 -1.375 0.0859375 -1.289062 0.0859375 -1.125 L 0.0859375 -0.945312 C 0.0859375 -0.925781 0.09375 -0.917969 0.113281 -0.917969 L 0.292969 -0.917969 C 0.308594 -0.917969 0.320312 -0.925781 0.320312 -0.945312 L 0.320312 -1.078125 C 0.320312 -1.125 0.34375 -1.148438 0.386719 -1.148438 L 0.472656 -1.148438 C 0.511719 -1.148438 0.539062 -1.125 0.539062 -1.078125 L 0.539062 -0.824219 L 0.128906 -0.605469 C 0.0976562 -0.585938 0.0859375 -0.574219 0.0859375 -0.542969 L 0.0859375 -0.0351562 C 0.0859375 -0.0117188 0.0976562 0 0.121094 0 L 0.738281 0 C 0.761719 0 0.773438 -0.0117188 0.773438 -0.0351562 L 0.773438 -0.296875 C 0.773438 -0.320312 0.761719 -0.332031 0.738281 -0.332031 L 0.574219 -0.332031 C 0.550781 -0.332031 0.539062 -0.320312 0.539062 -0.296875 L 0.539062 -0.226562 L 0.355469 -0.226562 C 0.332031 -0.226562 0.320312 -0.238281 0.320312 -0.261719 L 0.320312 -0.410156 C 0.320312 -0.429688 0.328125 -0.441406 0.34375 -0.453125 Z M 0.726562 -0.65625 "/></g></g></g><g fill="#f4edcc" fill-opacity="1"><g transform="translate(15.910109, 24.239381)"><g><path d="M 0.726562 -0.65625 C 0.757812 -0.675781 0.773438 -0.6875 0.773438 -0.722656 L 0.773438 -1.125 C 0.773438 -1.289062 0.683594 -1.375 0.527344 -1.375 L 0.332031 -1.375 C 0.171875 -1.375 0.0859375 -1.289062 0.0859375 -1.125 L 0.0859375 -0.945312 C 0.0859375 -0.925781 0.09375 -0.917969 0.113281 -0.917969 L 0.292969 -0.917969 C 0.308594 -0.917969 0.320312 -0.925781 0.320312 -0.945312 L 0.320312 -1.078125 C 0.320312 -1.125 0.34375 -1.148438 0.386719 -1.148438 L 0.472656 -1.148438 C 0.511719 -1.148438 0.539062 -1.125 0.539062 -1.078125 L 0.539062 -0.824219 L 0.128906 -0.605469 C 0.0976562 -0.585938 0.0859375 -0.574219 0.0859375 -0.542969 L 0.0859375 -0.0351562 C 0.0859375 -0.0117188 0.0976562 0 0.121094 0 L 0.738281 0 C 0.761719 0 0.773438 -0.0117188 0.773438 -0.0351562 L 0.773438 -0.296875 C 0.773438 -0.320312 0.761719 -0.332031 0.738281 -0.332031 L 0.574219 -0.332031 C 0.550781 -0.332031 0.539062 -0.320312 0.539062 -0.296875 L 0.539062 -0.226562 L 0.355469 -0.226562 C 0.332031 -0.226562 0.320312 -0.238281 0.320312 -0.261719 L 0.320312 -0.410156 C 0.320312 -0.429688 0.328125 -0.441406 0.34375 -0.453125 Z M 0.726562 -0.65625 "/></g></g></g><path stroke-linecap="round" transform="matrix(0.725806, 0, 0, 0.725806, 11.317943, 22.059453)" fill="none" stroke-linejoin="miter" d="M 0.498403 0.499336 L 9.647709 0.499336 " stroke="#f4edcc" stroke-width="1" stroke-opacity="1" stroke-miterlimit="4"/></svg>