<svg xmlns="http://www.w3.org/2000/svg" xmlns:xlink="http://www.w3.org/1999/xlink" width="40" zoomAndPan="magnify" viewBox="0 0 30 30.000001" height="40" preserveAspectRatio="xMidYMid meet" version="1.0"><defs><g/><clipPath id="7c3cc7e082"><path d="M 0.484375 0 L 29.515625 0 L 29.515625 29.03125 L 0.484375 29.03125 Z M 0.484375 0 " clip-rule="nonzero"/></clipPath><clipPath id="b71f1ff4f7"><path d="M 1.585938 1.101562 L 28.414062 1.101562 L 28.414062 27.933594 L 1.585938 27.933594 Z M 1.585938 1.101562 " clip-rule="nonzero"/></clipPath><clipPath id="dc0809ee00"><path d="M 15 1.101562 C 7.589844 1.101562 1.585938 7.105469 1.585938 14.515625 C 1.585938 21.925781 7.589844 27.933594 15 27.933594 C 22.410156 27.933594 28.414062 21.925781 28.414062 14.515625 C 28.414062 7.105469 22.410156 1.101562 15 1.101562 Z M 15 1.101562 " clip-rule="nonzero"/></clipPath><clipPath id="66cc3f0732"><path d="M 2.476562 1.992188 L 27.523438 1.992188 L 27.523438 27.039062 L 2.476562 27.039062 Z M 2.476562 1.992188 " clip-rule="nonzero"/></clipPath><clipPath id="e221196b1f"><path d="M 15 1.992188 C 8.082031 1.992188 2.476562 7.601562 2.476562 14.515625 C 2.476562 21.433594 8.082031 27.039062 15 27.039062 C 21.917969 27.039062 27.523438 21.433594 27.523438 14.515625 C 27.523438 7.601562 21.917969 1.992188 15 1.992188 Z M 15 1.992188 " clip-rule="nonzero"/></clipPath><clipPath id="3a60bfc22d"><path d="M 6.828125 6.34375 L 23.523438 6.34375 L 23.523438 23 L 6.828125 23 Z M 6.828125 6.34375 " clip-rule="nonzero"/></clipPath><clipPath id="6d67e5722d"><path d="M 0.484375 10 L 12 10 L 12 20 L 0.484375 20 Z M 0.484375 10 " clip-rule="nonzero"/></clipPath><clipPath id="ff1a39e2e3"><path d="M 0.484375 13 L 12 13 L 12 24 L 0.484375 24 Z M 0.484375 13 " clip-rule="nonzero"/></clipPath><clipPath id="056ce4b043"><path d="M 18 10 L 29.515625 10 L 29.515625 20 L 18 20 Z M 18 10 " clip-rule="nonzero"/></clipPath><clipPath id="4dc060bbae"><path d="M 18 13 L 29.515625 13 L 29.515625 24 L 18 24 Z M 18 13 " clip-rule="nonzero"/></clipPath></defs><g clip-path="url(#7c3cc7e082)"><path fill="#ffffff" d="M 0.484375 0 L 29.515625 0 L 29.515625 29.03125 L 0.484375 29.03125 Z M 0.484375 0 " fill-opacity="1" fill-rule="nonzero"/><path fill="#ffffff" d="M 0.484375 0 L 29.515625 0 L 29.515625 29.03125 L 0.484375 29.03125 Z M 0.484375 0 " fill-opacity="1" fill-rule="nonzero"/></g><g clip-path="url(#b71f1ff4f7)"><g clip-path="url(#dc0809ee00)"><path fill="#402300" d="M 1.585938 1.101562 L 28.414062 1.101562 L 28.414062 27.933594 L 1.585938 27.933594 Z M 1.585938 1.101562 " fill-opacity="1" fill-rule="nonzero"/></g></g><g clip-path="url(#66cc3f0732)"><g clip-path="url(#e221196b1f)"><path fill="#402300" d="M 2.476562 1.992188 L 27.523438 1.992188 L 27.523438 27.039062 L 2.476562 27.039062 Z M 2.476562 1.992188 " fill-opacity="1" fill-rule="nonzero"/></g></g><g clip-path="url(#3a60bfc22d)"><path fill="#bf8138" d="M 15.003906 11.113281 C 15.65625 11.113281 16.308594 11.214844 16.917969 11.421875 C 16.96875 10.933594 17.296875 10.496094 17.792969 10.328125 C 18.46875 10.101562 19.199219 10.464844 19.425781 11.140625 C 19.613281 11.699219 19.394531 12.296875 18.929688 12.613281 C 20.902344 14.457031 19.4375 16.960938 19.703125 18.570312 L 19.6875 18.570312 C 19.707031 18.652344 19.734375 18.738281 19.761719 18.828125 C 19.765625 18.839844 19.769531 18.847656 19.769531 18.855469 C 19.839844 19.058594 19.921875 19.292969 20.003906 19.550781 L 20.019531 19.535156 C 21.304688 18.25 22.097656 16.476562 22.097656 14.515625 C 22.097656 12.554688 21.304688 10.78125 20.019531 9.496094 C 18.734375 8.210938 16.960938 7.417969 15 7.417969 C 13.039062 7.417969 11.265625 8.210938 9.980469 9.496094 C 8.695312 10.78125 7.902344 12.554688 7.902344 14.515625 C 7.902344 16.476562 8.695312 18.25 9.980469 19.535156 L 10 19.554688 C 10.082031 19.308594 10.164062 19.074219 10.238281 18.855469 C 10.769531 17.269531 8.988281 14.570312 11.078125 12.613281 C 10.617188 12.292969 10.398438 11.695312 10.585938 11.140625 C 10.8125 10.464844 11.542969 10.101562 12.21875 10.328125 C 12.714844 10.492188 13.042969 10.933594 13.089844 11.421875 C 13.703125 11.214844 14.351562 11.113281 15.003906 11.113281 Z M 20.777344 20.292969 C 19.300781 21.769531 17.257812 22.6875 15 22.6875 C 12.742188 22.6875 10.699219 21.769531 9.222656 20.292969 C 7.742188 18.816406 6.828125 16.773438 6.828125 14.515625 C 6.828125 12.257812 7.742188 10.214844 9.222656 8.738281 C 10.699219 7.257812 12.742188 6.34375 15 6.34375 C 17.257812 6.34375 19.300781 7.257812 20.777344 8.738281 C 22.253906 10.214844 23.171875 12.257812 23.171875 14.515625 C 23.171875 16.773438 22.253906 18.816406 20.777344 20.292969 Z M 20.777344 20.292969 " fill-opacity="1" fill-rule="evenodd"/></g><path fill="#eeb51d" d="M 16.523438 15.230469 C 16.808594 16.445312 16.5 17.953125 15.011719 17.960938 C 13.511719 17.96875 13.195312 16.457031 13.484375 15.230469 C 13.867188 13.597656 16.144531 13.597656 16.523438 15.230469 Z M 16.523438 15.230469 " fill-opacity="1" fill-rule="evenodd"/><path fill="#402300" d="M 14.429688 14.726562 C 14.511719 14.691406 15.003906 14.691406 15.003906 14.691406 C 15.003906 14.691406 15.496094 14.691406 15.578125 14.726562 C 15.707031 14.78125 15.445312 15.191406 15.183594 15.332031 L 15.183594 16.175781 L 14.828125 16.175781 L 14.828125 15.324219 C 14.542969 15.175781 14.304688 14.78125 14.429688 14.726562 Z M 12.484375 14.429688 C 12.21875 14.429688 12.003906 14.730469 12.003906 15.101562 C 12.003906 15.46875 12.21875 15.769531 12.484375 15.769531 C 12.75 15.769531 12.964844 15.472656 12.964844 15.101562 C 12.964844 14.730469 12.75 14.429688 12.484375 14.429688 Z M 17.496094 14.429688 C 17.230469 14.429688 17.015625 14.730469 17.015625 15.101562 C 17.015625 15.46875 17.230469 15.769531 17.496094 15.769531 C 17.761719 15.769531 17.980469 15.472656 17.980469 15.101562 C 17.980469 14.730469 17.761719 14.429688 17.496094 14.429688 Z M 12.0625 11.085938 C 11.753906 10.980469 11.417969 11.148438 11.3125 11.460938 C 11.207031 11.769531 11.375 12.105469 11.6875 12.210938 C 11.996094 12.316406 12.335938 12.148438 12.4375 11.835938 C 12.542969 11.523438 12.375 11.191406 12.0625 11.085938 Z M 18.441406 11.109375 C 18.132812 11.003906 17.796875 11.171875 17.691406 11.484375 C 17.585938 11.792969 17.753906 12.132812 18.066406 12.234375 C 18.375 12.339844 18.710938 12.171875 18.816406 11.863281 C 18.917969 11.550781 18.753906 11.214844 18.441406 11.109375 Z M 18.441406 11.109375 " fill-opacity="1" fill-rule="nonzero"/><path fill="#eeb51d" d="M 15.984375 16.929688 C 16.089844 16.929688 16.179688 17.019531 16.179688 17.128906 L 16.179688 18.085938 C 16.179688 18.195312 16.089844 18.28125 15.984375 18.28125 C 15.875 18.28125 15.789062 18.195312 15.789062 18.085938 C 15.785156 17.980469 15.699219 17.894531 15.589844 17.894531 C 15.484375 17.894531 15.394531 17.980469 15.394531 18.089844 L 15.394531 18.8125 C 15.394531 18.921875 15.308594 19.007812 15.199219 19.007812 C 15.089844 19.007812 15.003906 18.921875 15.003906 18.8125 L 15.003906 17.46875 C 15.003906 17.359375 15.089844 17.273438 15.199219 17.273438 C 15.308594 17.273438 15.394531 17.359375 15.394531 17.46875 L 15.394531 17.890625 C 15.539062 17.859375 15.667969 17.8125 15.789062 17.75 L 15.789062 17.128906 C 15.789062 17.019531 15.875 16.929688 15.984375 16.929688 Z M 15.984375 18.570312 C 15.875 18.570312 15.789062 18.660156 15.789062 18.765625 L 15.789062 19.042969 C 15.789062 19.152344 15.875 19.238281 15.984375 19.238281 C 16.089844 19.238281 16.179688 19.152344 16.179688 19.042969 L 16.179688 18.765625 C 16.179688 18.660156 16.089844 18.570312 15.984375 18.570312 Z M 15.984375 18.570312 " fill-opacity="1" fill-rule="evenodd"/><g fill="#402300" fill-opacity="1"><g transform="translate(4.777594, 20.143633)"><g><path d="M 1.082031 1.523438 L 1.414062 1.988281 L 3.472656 0.527344 L 3.140625 0.0585938 L 2.351562 0.621094 L 1.777344 -0.1875 L 2.570312 -0.75 L 2.238281 -1.214844 L 0.175781 0.246094 L 0.507812 0.714844 L 1.339844 0.125 L 1.910156 0.933594 Z M 1.082031 1.523438 "/></g></g></g><g fill="#402300" fill-opacity="1"><g transform="translate(7.126525, 23.137566)"><g><path d="M 0.0273438 0.0195312 L 0.523438 0.378906 L 0.917969 0.125 L 1.730469 0.71875 L 1.609375 1.171875 L 2.105469 1.53125 L 2.78125 -1.101562 L 2.324219 -1.433594 Z M 1.300781 -0.152344 L 2.132812 -0.691406 L 1.878906 0.265625 Z M 1.300781 -0.152344 "/></g></g></g><g fill="#402300" fill-opacity="1"><g transform="translate(10.213017, 25.180975)"><g><path d="M 0.289062 0.0898438 L 0.835938 0.261719 L 1.296875 -1.21875 L 1.898438 0.59375 L 2.363281 0.738281 L 3.117188 -1.675781 L 2.574219 -1.84375 L 2.113281 -0.375 L 1.507812 -2.175781 L 1.042969 -2.324219 Z M 0.289062 0.0898438 "/></g></g></g><g fill="#402300" fill-opacity="1"><g transform="translate(13.954099, 26.172308)"><g><path d="M 1.503906 -0.0117188 C 2.292969 -0.0429688 2.828125 -0.609375 2.796875 -1.378906 C 2.765625 -2.152344 2.183594 -2.671875 1.394531 -2.636719 C 0.605469 -2.605469 0.0703125 -2.042969 0.101562 -1.269531 C 0.136719 -0.496094 0.710938 0.0195312 1.503906 -0.0117188 Z M 0.6875 -1.292969 C 0.667969 -1.746094 0.96875 -2.074219 1.417969 -2.09375 C 1.867188 -2.113281 2.191406 -1.8125 2.210938 -1.355469 C 2.230469 -0.902344 1.929688 -0.574219 1.480469 -0.554688 C 1.03125 -0.539062 0.707031 -0.839844 0.6875 -1.292969 Z M 0.6875 -1.292969 "/></g></g></g><g fill="#402300" fill-opacity="1"><g transform="translate(18.013566, 25.788079)"><g><path d="M 0.933594 -0.367188 L 1.457031 -0.574219 L 1.433594 -3.28125 L 0.863281 -3.058594 L 0.894531 -1.242188 L 0.320312 -1.875 L -0.320312 -2.589844 L -0.894531 -2.363281 Z M 0.933594 -0.367188 "/></g></g></g><g fill="#402300" fill-opacity="1"><g transform="translate(21.285904, 24.305949)"><g><path d="M 0.238281 -0.1875 L 1.570312 -1.246094 L 1.269531 -1.625 L 0.382812 -0.925781 L 0.0390625 -1.359375 L 0.816406 -1.972656 L 0.519531 -2.351562 L -0.257812 -1.734375 L -0.582031 -2.144531 L 0.269531 -2.820312 L -0.03125 -3.203125 L -1.332031 -2.167969 Z M 0.238281 -0.1875 "/></g></g></g><g fill="#402300" fill-opacity="1"><g transform="translate(23.725979, 22.214757)"><g><path d="M 0.171875 -0.25 L 0.5 -0.71875 L -0.144531 -1.167969 L 0.0703125 -1.480469 L 0.976562 -1.402344 L 1.355469 -1.949219 L 0.335938 -2.019531 C 0.398438 -2.34375 0.273438 -2.644531 -0.03125 -2.859375 C -0.472656 -3.164062 -0.957031 -3.054688 -1.285156 -2.578125 L -1.902344 -1.691406 Z M -0.546875 -1.441406 L -1.175781 -1.878906 L -0.925781 -2.234375 C -0.765625 -2.46875 -0.5625 -2.519531 -0.359375 -2.378906 C -0.15625 -2.238281 -0.136719 -2.03125 -0.296875 -1.800781 Z M -0.546875 -1.441406 "/></g></g></g><g fill="#402300" fill-opacity="1"><g transform="translate(5.828002, 13.222644)"><g><path d="M 0.570312 -1.777344 L 0.746094 -2.324219 L -1.660156 -3.097656 L -1.835938 -2.550781 L -0.914062 -2.253906 L -1.214844 -1.3125 L -2.140625 -1.605469 L -2.316406 -1.058594 L 0.09375 -0.289062 L 0.269531 -0.835938 L -0.703125 -1.144531 L -0.398438 -2.089844 Z M 0.570312 -1.777344 "/></g></g></g><g fill="#402300" fill-opacity="1"><g transform="translate(6.737931, 10.421278)"><g><path d="M 0.9375 -1.175781 C 1.410156 -1.808594 1.3125 -2.582031 0.691406 -3.042969 C 0.0742188 -3.503906 -0.695312 -3.378906 -1.167969 -2.746094 C -1.640625 -2.113281 -1.539062 -1.34375 -0.921875 -0.878906 C -0.300781 -0.417969 0.464844 -0.539062 0.9375 -1.175781 Z M -0.570312 -1.347656 C -0.933594 -1.621094 -1 -2.0625 -0.730469 -2.417969 C -0.460938 -2.78125 -0.0234375 -2.84375 0.339844 -2.570312 C 0.703125 -2.296875 0.769531 -1.863281 0.5 -1.5 C 0.234375 -1.140625 -0.207031 -1.078125 -0.570312 -1.347656 Z M -0.570312 -1.347656 "/></g></g></g><g fill="#402300" fill-opacity="1"><g transform="translate(8.692224, 7.885826)"><g><path d="M 0.25 -0.171875 L 0.722656 -0.492188 L -0.148438 -1.773438 L 1.644531 -1.121094 L 2.046875 -1.394531 L 0.625 -3.484375 L 0.152344 -3.164062 L 1.019531 -1.890625 L -0.769531 -2.535156 L -1.171875 -2.261719 Z M 0.25 -0.171875 "/></g></g></g><g fill="#402300" fill-opacity="1"><g transform="translate(11.220899, 6.256851)"><g><path d="M 0.289062 -0.0898438 L 1.910156 -0.601562 L 1.765625 -1.066406 L 0.6875 -0.726562 L 0.519531 -1.253906 L 1.46875 -1.554688 L 1.324219 -2.011719 L 0.375 -1.710938 L 0.21875 -2.210938 L 1.257812 -2.539062 L 1.113281 -3 L -0.46875 -2.503906 Z M 0.289062 -0.0898438 "/></g></g></g><g fill="#402300" fill-opacity="1"><g transform="translate(13.54959, 5.53726)"><g><path d="M 0.964844 -0.0234375 L 1.539062 -0.0390625 L 1.515625 -0.929688 L 2.398438 -2.589844 L 1.746094 -2.574219 L 1.453125 -1.980469 L 1.214844 -1.515625 L 0.949219 -1.96875 L 0.621094 -2.542969 L -0.03125 -2.527344 L 0.941406 -0.910156 Z M 0.964844 -0.0234375 "/></g></g></g><g fill="#402300" fill-opacity="1"><g transform="translate(16.353567, 5.58615)"><g/></g></g><g fill="#402300" fill-opacity="1"><g transform="translate(17.513797, 5.753308)"><g><path d="M 0.277344 0.117188 L 1.371094 0.585938 C 1.84375 0.785156 2.273438 0.664062 2.441406 0.269531 C 2.546875 0.0234375 2.5 -0.234375 2.324219 -0.421875 C 2.542969 -0.449219 2.722656 -0.589844 2.816406 -0.808594 C 2.980469 -1.191406 2.78125 -1.5625 2.308594 -1.761719 L 1.269531 -2.207031 Z M 0.980469 -0.078125 L 1.21875 -0.636719 L 1.707031 -0.425781 C 1.917969 -0.335938 1.992188 -0.183594 1.917969 -0.0078125 C 1.84375 0.167969 1.679688 0.222656 1.46875 0.132812 Z M 1.386719 -1.039062 L 1.613281 -1.566406 L 2.050781 -1.378906 C 2.253906 -1.292969 2.328125 -1.152344 2.253906 -0.980469 C 2.183594 -0.8125 2.03125 -0.765625 1.828125 -0.851562 Z M 1.386719 -1.039062 "/></g></g></g><g fill="#402300" fill-opacity="1"><g transform="translate(20.004945, 6.875427)"><g><path d="M 0.234375 0.191406 L 1.554688 1.261719 L 1.863281 0.882812 L 0.984375 0.171875 L 1.332031 -0.257812 L 2.105469 0.367188 L 2.40625 -0.00390625 L 1.636719 -0.628906 L 1.964844 -1.035156 L 2.8125 -0.347656 L 3.117188 -0.726562 L 1.828125 -1.773438 Z M 0.234375 0.191406 "/></g></g></g><g fill="#402300" fill-opacity="1"><g transform="translate(21.891913, 8.410242)"><g><path d="M 0.0195312 0.0273438 L 0.367188 0.53125 L 0.824219 0.425781 L 1.390625 1.25 L 1.128906 1.636719 L 1.476562 2.144531 L 2.988281 -0.117188 L 2.667969 -0.582031 Z M 1.277344 0.289062 L 2.242188 0.0585938 L 1.683594 0.875 Z M 1.277344 0.289062 "/></g></g></g><g fill="#402300" fill-opacity="1"><g transform="translate(23.480122, 10.786506)"><g><path d="M 0.0898438 0.289062 L 0.257812 0.839844 L 1.011719 0.605469 L 1.125 0.96875 L 0.503906 1.632812 L 0.703125 2.265625 L 1.386719 1.507812 C 1.601562 1.757812 1.917969 1.84375 2.273438 1.734375 C 2.785156 1.574219 2.996094 1.125 2.824219 0.574219 L 2.503906 -0.457031 Z M 1.472656 0.453125 L 2.203125 0.226562 L 2.332031 0.644531 C 2.414062 0.914062 2.332031 1.105469 2.097656 1.179688 C 1.863281 1.253906 1.683594 1.140625 1.601562 0.871094 Z M 1.472656 0.453125 "/></g></g></g><g clip-path="url(#6d67e5722d)"><path stroke-linecap="butt" transform="matrix(0.723237, 0.0610233, -0.0610233, 0.723237, 2.251647, 14.119489)" fill="none" stroke-linejoin="miter" d="M 0.00201355 0.498947 L 6.883203 0.50166 " stroke="#bf8138" stroke-width="1" stroke-opacity="1" stroke-miterlimit="4"/></g><g clip-path="url(#ff1a39e2e3)"><path stroke-linecap="butt" transform="matrix(0.673869, -0.26962, 0.26962, 0.673869, 2.769699, 19.02441)" fill="none" stroke-linejoin="miter" d="M 0.00123581 0.503369 L 6.884118 0.498008 " stroke="#bf8138" stroke-width="1" stroke-opacity="1" stroke-miterlimit="4"/></g><g clip-path="url(#056ce4b043)"><path stroke-linecap="butt" transform="matrix(0.72278, -0.0662136, 0.0662136, 0.72278, 22.769114, 14.557099)" fill="none" stroke-linejoin="miter" d="M -0.00191007 0.499105 L 6.88354 0.497554 " stroke="#bf8138" stroke-width="1" stroke-opacity="1" stroke-miterlimit="4"/></g><g clip-path="url(#4dc060bbae)"><path stroke-linecap="butt" transform="matrix(0.673941, 0.269441, -0.269441, 0.673941, 22.590969, 17.153218)" fill="none" stroke-linejoin="miter" d="M 0.000025372 0.497159 L 6.880908 0.499355 " stroke="#bf8138" stroke-width="1" stroke-opacity="1" stroke-miterlimit="4"/></g><g fill="#402300" fill-opacity="1"><g transform="translate(3.199731, 17.300694)"><g><path d="M 0.105469 -0.0195312 L 0.699219 -0.121094 L 0.667969 -0.292969 L 0.273438 -0.222656 L 0.242188 -0.414062 L 0.585938 -0.476562 L 0.558594 -0.644531 L 0.210938 -0.582031 L 0.179688 -0.765625 L 0.558594 -0.832031 L 0.527344 -1 L -0.046875 -0.898438 Z M 0.105469 -0.0195312 "/></g></g></g><g fill="#402300" fill-opacity="1"><g transform="translate(3.998532, 17.160585)"><g><path d="M 0.414062 -0.0546875 C 0.625 -0.0898438 0.734375 -0.214844 0.707031 -0.378906 C 0.679688 -0.519531 0.574219 -0.585938 0.347656 -0.597656 C 0.207031 -0.605469 0.15625 -0.632812 0.144531 -0.6875 C 0.136719 -0.742188 0.179688 -0.789062 0.265625 -0.804688 C 0.355469 -0.820312 0.421875 -0.78125 0.433594 -0.703125 L 0.625 -0.734375 C 0.59375 -0.914062 0.441406 -1.003906 0.234375 -0.964844 C 0.03125 -0.929688 -0.078125 -0.808594 -0.0507812 -0.648438 C -0.0234375 -0.503906 0.0898438 -0.4375 0.300781 -0.429688 C 0.429688 -0.425781 0.492188 -0.398438 0.503906 -0.335938 C 0.515625 -0.277344 0.46875 -0.234375 0.386719 -0.21875 C 0.289062 -0.203125 0.21875 -0.238281 0.203125 -0.324219 L 0.0078125 -0.289062 C 0.0390625 -0.109375 0.195312 -0.015625 0.414062 -0.0546875 Z M 0.414062 -0.0546875 "/></g></g></g><g fill="#402300" fill-opacity="1"><g transform="translate(4.841289, 17.012767)"><g><path d="M 0.316406 -0.0546875 L 0.515625 -0.0898438 L 0.394531 -0.78125 L 0.675781 -0.832031 L 0.640625 -1.019531 L -0.117188 -0.886719 L -0.0820312 -0.699219 L 0.195312 -0.746094 Z M 0.316406 -0.0546875 "/></g></g></g><g fill="#402300" fill-opacity="1"><g transform="translate(5.711677, 16.860103)"><g><path d="M 0.105469 -0.0195312 L 0.453125 -0.078125 C 0.730469 -0.128906 0.886719 -0.339844 0.839844 -0.601562 C 0.792969 -0.863281 0.578125 -1.007812 0.300781 -0.960938 L -0.046875 -0.898438 Z M 0.273438 -0.238281 L 0.183594 -0.75 L 0.324219 -0.773438 C 0.484375 -0.800781 0.609375 -0.71875 0.636719 -0.566406 C 0.664062 -0.410156 0.574219 -0.289062 0.417969 -0.261719 Z M 0.273438 -0.238281 "/></g></g></g><g fill="#402300" fill-opacity="1"><g transform="translate(23.480356, 16.704974)"><g><path d="M 0.0625 0.0117188 L 0.722656 0.132812 L 0.753906 -0.0390625 L 0.410156 -0.105469 L 0.601562 -0.21875 C 0.742188 -0.296875 0.800781 -0.386719 0.820312 -0.484375 C 0.851562 -0.652344 0.742188 -0.789062 0.554688 -0.824219 C 0.363281 -0.859375 0.21875 -0.765625 0.179688 -0.570312 L 0.359375 -0.535156 C 0.382812 -0.625 0.441406 -0.667969 0.519531 -0.652344 C 0.597656 -0.640625 0.640625 -0.582031 0.625 -0.507812 C 0.617188 -0.457031 0.578125 -0.414062 0.511719 -0.371094 L 0.0898438 -0.128906 Z M 0.0625 0.0117188 "/></g></g></g><g fill="#402300" fill-opacity="1"><g transform="translate(24.324243, 16.860911)"><g><path d="M 0.4375 0.0976562 C 0.671875 0.140625 0.847656 -0.00390625 0.898438 -0.289062 C 0.953125 -0.574219 0.839844 -0.769531 0.605469 -0.8125 C 0.371094 -0.859375 0.195312 -0.710938 0.144531 -0.425781 C 0.0898438 -0.144531 0.203125 0.0546875 0.4375 0.0976562 Z M 0.335938 -0.390625 C 0.371094 -0.566406 0.453125 -0.65625 0.574219 -0.636719 C 0.691406 -0.613281 0.738281 -0.5 0.703125 -0.324219 C 0.671875 -0.148438 0.585938 -0.0585938 0.46875 -0.078125 C 0.351562 -0.101562 0.304688 -0.21875 0.335938 -0.390625 Z M 0.335938 -0.390625 "/></g></g></g><g fill="#402300" fill-opacity="1"><g transform="translate(25.240853, 17.030287)"><g><path d="M 0.0625 0.0117188 L 0.722656 0.132812 L 0.753906 -0.0390625 L 0.410156 -0.105469 L 0.601562 -0.21875 C 0.742188 -0.296875 0.800781 -0.386719 0.820312 -0.484375 C 0.851562 -0.652344 0.742188 -0.789062 0.554688 -0.824219 C 0.363281 -0.859375 0.21875 -0.765625 0.179688 -0.570312 L 0.359375 -0.535156 C 0.382812 -0.625 0.441406 -0.667969 0.519531 -0.652344 C 0.597656 -0.640625 0.640625 -0.582031 0.625 -0.507812 C 0.617188 -0.457031 0.578125 -0.414062 0.511719 -0.371094 L 0.0898438 -0.128906 Z M 0.0625 0.0117188 "/></g></g></g><g fill="#402300" fill-opacity="1"><g transform="translate(26.084739, 17.186224)"><g><path d="M 0.234375 0.0429688 L 0.429688 0.078125 L 0.59375 -0.796875 L 0.441406 -0.824219 L 0.417969 -0.78125 C 0.386719 -0.71875 0.34375 -0.703125 0.261719 -0.71875 L 0.171875 -0.734375 L 0.140625 -0.558594 L 0.339844 -0.523438 Z M 0.234375 0.0429688 "/></g></g></g></svg>