<svg xmlns="http://www.w3.org/2000/svg" xmlns:xlink="http://www.w3.org/1999/xlink" width="40" zoomAndPan="magnify" viewBox="0 0 30 30.000001" height="40" preserveAspectRatio="xMidYMid meet" version="1.0"><defs><g/><clipPath id="07a2c35eec"><path d="M 0.484375 0 L 29.515625 0 L 29.515625 29.03125 L 0.484375 29.03125 Z M 0.484375 0 " clip-rule="nonzero"/></clipPath><clipPath id="0da05d4383"><path d="M 1.136719 0.652344 L 28.863281 0.652344 L 28.863281 28.378906 L 1.136719 28.378906 Z M 1.136719 0.652344 " clip-rule="nonzero"/></clipPath><clipPath id="cdb915b6d6"><path d="M 15 0.652344 C 7.34375 0.652344 1.136719 6.859375 1.136719 14.515625 C 1.136719 22.171875 7.34375 28.378906 15 28.378906 C 22.65625 28.378906 28.863281 22.171875 28.863281 14.515625 C 28.863281 6.859375 22.65625 0.652344 15 0.652344 Z M 15 0.652344 " clip-rule="nonzero"/></clipPath><clipPath id="c3c25059b4"><path d="M 5.964844 5.484375 L 24.035156 5.484375 L 24.035156 23.550781 L 5.964844 23.550781 Z M 5.964844 5.484375 " clip-rule="nonzero"/></clipPath><clipPath id="a58830c894"><path d="M 15 5.484375 C 10.011719 5.484375 5.964844 9.527344 5.964844 14.515625 C 5.964844 19.503906 10.011719 23.550781 15 23.550781 C 19.988281 23.550781 24.035156 19.503906 24.035156 14.515625 C 24.035156 9.527344 19.988281 5.484375 15 5.484375 Z M 15 5.484375 " clip-rule="nonzero"/></clipPath><clipPath id="90102a2614"><path d="M 3.207031 14.964844 L 4.230469 14.964844 L 4.230469 15.984375 L 3.207031 15.984375 Z M 3.207031 14.964844 " clip-rule="nonzero"/></clipPath><clipPath id="68ab784c4f"><path d="M 3.71875 14.964844 C 3.4375 14.964844 3.207031 15.191406 3.207031 15.472656 C 3.207031 15.757812 3.4375 15.984375 3.71875 15.984375 C 4.003906 15.984375 4.230469 15.757812 4.230469 15.472656 C 4.230469 15.191406 4.003906 14.964844 3.71875 14.964844 Z M 3.71875 14.964844 " clip-rule="nonzero"/></clipPath><clipPath id="2fad1edb05"><path d="M 25.769531 14.964844 L 26.792969 14.964844 L 26.792969 15.984375 L 25.769531 15.984375 Z M 25.769531 14.964844 " clip-rule="nonzero"/></clipPath><clipPath id="8e722bc547"><path d="M 26.28125 14.964844 C 25.996094 14.964844 25.769531 15.191406 25.769531 15.472656 C 25.769531 15.757812 25.996094 15.984375 26.28125 15.984375 C 26.5625 15.984375 26.792969 15.757812 26.792969 15.472656 C 26.792969 15.191406 26.5625 14.964844 26.28125 14.964844 Z M 26.28125 14.964844 " clip-rule="nonzero"/></clipPath><clipPath id="51065e2eb0"><path d="M 10.03125 8.332031 L 20 8.332031 L 20 19.945312 L 10.03125 19.945312 Z M 10.03125 8.332031 " clip-rule="nonzero"/></clipPath><clipPath id="4eed149f0b"><path d="M 10.03125 8.332031 L 20 8.332031 L 20 19.945312 L 10.03125 19.945312 Z M 10.03125 8.332031 " clip-rule="nonzero"/></clipPath></defs><g clip-path="url(#07a2c35eec)"><path fill="#ffffff" d="M 0.484375 0 L 29.515625 0 L 29.515625 29.03125 L 0.484375 29.03125 Z M 0.484375 0 " fill-opacity="1" fill-rule="nonzero"/><path fill="#fafaf8" d="M 0.484375 0 L 29.515625 0 L 29.515625 29.03125 L 0.484375 29.03125 Z M 0.484375 0 " fill-opacity="1" fill-rule="nonzero"/></g><g clip-path="url(#0da05d4383)"><g clip-path="url(#cdb915b6d6)"><path fill="#005e18" d="M 1.136719 0.652344 L 28.863281 0.652344 L 28.863281 28.378906 L 1.136719 28.378906 Z M 1.136719 0.652344 " fill-opacity="1" fill-rule="nonzero"/></g></g><g clip-path="url(#c3c25059b4)"><g clip-path="url(#a58830c894)"><path fill="#005e18" d="M 5.964844 5.484375 L 24.035156 5.484375 L 24.035156 23.550781 L 5.964844 23.550781 Z M 5.964844 5.484375 " fill-opacity="1" fill-rule="nonzero"/></g></g><g clip-path="url(#90102a2614)"><g clip-path="url(#68ab784c4f)"><path fill="#005e18" d="M 3.207031 14.964844 L 4.230469 14.964844 L 4.230469 15.984375 L 3.207031 15.984375 Z M 3.207031 14.964844 " fill-opacity="1" fill-rule="nonzero"/></g></g><g clip-path="url(#2fad1edb05)"><g clip-path="url(#8e722bc547)"><path fill="#005e18" d="M 25.769531 14.964844 L 26.792969 14.964844 L 26.792969 15.984375 L 25.769531 15.984375 Z M 25.769531 14.964844 " fill-opacity="1" fill-rule="nonzero"/></g></g><g clip-path="url(#51065e2eb0)"><path fill="#a6a6a6" d="M 19.257812 14.203125 C 18.847656 14.542969 18.289062 14.75 17.738281 14.832031 C 18.054688 15.121094 18.273438 15.546875 18 15.949219 C 17.972656 15.996094 17.9375 16.039062 17.898438 16.074219 C 18.121094 16.691406 18.28125 17.3125 18.242188 17.96875 C 18.566406 18.140625 18.871094 18.382812 19.09375 18.679688 C 19.253906 18.894531 19.460938 19.3125 19.136719 19.496094 C 18.867188 19.644531 18.453125 19.453125 18.195312 19.355469 C 17.867188 19.230469 17.546875 19.089844 17.242188 18.925781 C 16.046875 19.527344 14.617188 19.570312 13.390625 19.039062 C 13.070312 19.207031 12.726562 19.328125 12.382812 19.425781 C 12.144531 19.496094 11.769531 19.644531 11.550781 19.457031 C 11.316406 19.257812 11.480469 18.898438 11.636719 18.703125 C 11.851562 18.441406 12.167969 18.300781 12.46875 18.15625 C 12.472656 18.074219 12.476562 17.988281 12.480469 17.902344 C 12.472656 17.902344 12.46875 17.902344 12.464844 17.902344 C 11.863281 17.761719 11.3125 17.445312 10.882812 17.003906 C 10.503906 16.613281 10.1875 16.105469 10.082031 15.566406 C 10.03125 15.316406 10.039062 15.035156 10.199219 14.828125 C 10.332031 14.652344 10.5625 14.535156 10.785156 14.59375 C 11.023438 14.65625 11.152344 14.894531 11.195312 15.121094 C 11.253906 15.457031 11.160156 15.796875 11.324219 16.113281 C 11.582031 16.621094 12.109375 16.933594 12.539062 17.292969 C 12.589844 16.929688 12.671875 16.574219 12.796875 16.230469 C 12.636719 16.132812 12.503906 16 12.429688 15.8125 C 12.246094 15.382812 12.535156 15.035156 12.851562 14.777344 C 12.234375 14.652344 11.632812 14.433594 11.234375 13.925781 C 10.730469 13.28125 10.886719 12.449219 11.179688 11.75 C 11.300781 11.460938 11.441406 11.175781 11.601562 10.90625 C 11.605469 10.519531 11.378906 10.222656 11.269531 9.867188 C 11.191406 9.617188 11.195312 9.308594 11.386719 9.113281 C 11.601562 8.898438 11.925781 8.933594 12.191406 8.992188 C 12.550781 9.070312 12.894531 9.199219 13.234375 9.335938 C 13.875 9.011719 14.605469 8.863281 15.351562 8.863281 C 16.027344 8.902344 16.703125 9.023438 17.324219 9.292969 C 17.605469 9.027344 17.925781 8.8125 18.28125 8.660156 C 18.546875 8.550781 18.875 8.472656 19.085938 8.722656 C 19.285156 8.957031 19.277344 9.34375 19.277344 9.632812 C 19.273438 10.035156 19.207031 10.429688 19.09375 10.8125 C 19.351562 11.203125 19.554688 11.628906 19.707031 12.070312 C 19.964844 12.832031 19.910156 13.664062 19.257812 14.203125 Z M 19.257812 14.203125 " fill-opacity="1" fill-rule="nonzero"/></g><path fill="#ffbc6c" d="M 17.40625 16.371094 C 17.335938 16.886719 17.101562 17.390625 16.707031 17.730469 C 16.296875 18.082031 15.753906 18.28125 15.214844 18.269531 C 14.261719 18.253906 13.378906 17.535156 13.167969 16.609375 C 13.179688 16.617188 13.191406 16.621094 13.207031 16.625 C 13.335938 16.65625 13.441406 16.574219 13.519531 16.476562 C 13.589844 16.488281 13.660156 16.5 13.726562 16.507812 C 13.78125 16.515625 13.839844 16.519531 13.894531 16.519531 C 13.871094 16.738281 13.828125 16.976562 13.957031 17.171875 C 14.054688 17.316406 14.230469 17.359375 14.378906 17.269531 C 14.566406 17.15625 14.625 16.917969 14.652344 16.71875 C 14.664062 16.628906 14.6875 16.027344 14.863281 16.089844 C 14.953125 16.121094 14.972656 16.378906 15.019531 16.457031 C 15.109375 16.605469 15.25 16.621094 15.394531 16.523438 C 15.464844 16.476562 15.511719 16.398438 15.582031 16.351562 C 15.777344 16.214844 15.828125 16.515625 15.851562 16.652344 C 15.882812 16.847656 15.921875 17.054688 16.085938 17.183594 C 16.246094 17.308594 16.433594 17.25 16.550781 17.097656 C 16.675781 16.9375 16.703125 16.71875 16.722656 16.519531 C 16.941406 16.507812 17.171875 16.445312 17.367188 16.386719 C 17.378906 16.382812 17.394531 16.375 17.40625 16.371094 Z M 17.40625 16.371094 " fill-opacity="1" fill-rule="nonzero"/><path fill="#b54324" d="M 17.273438 15.359375 C 17.113281 14.960938 16.839844 14.625 16.464844 14.402344 C 16.335938 14.449219 16.210938 14.492188 16.082031 14.539062 C 16.039062 14.550781 15.996094 14.519531 15.980469 14.480469 C 15.953125 14.394531 15.925781 14.308594 15.894531 14.222656 C 15.886719 14.195312 15.894531 14.167969 15.910156 14.152344 C 15.628906 14.074219 15.335938 14.046875 15.046875 14.074219 C 15.089844 14.105469 15.132812 14.136719 15.171875 14.167969 C 15.21875 14.199219 15.222656 14.25 15.191406 14.292969 C 15.132812 14.367188 15.078125 14.4375 15.023438 14.511719 C 15 14.535156 14.949219 14.539062 14.925781 14.523438 C 14.785156 14.425781 14.648438 14.324219 14.511719 14.222656 C 13.988281 14.4375 13.554688 14.839844 13.34375 15.363281 C 13.722656 15.4375 14.160156 15.417969 14.347656 15.824219 C 14.425781 15.988281 14.417969 16.195312 14.304688 16.34375 C 14.242188 16.429688 14.152344 16.476562 14.058594 16.5 C 14.042969 16.628906 14.019531 16.761719 14.03125 16.890625 C 14.042969 17.003906 14.09375 17.175781 14.242188 17.152344 C 14.339844 17.136719 14.40625 17.019531 14.441406 16.9375 C 14.535156 16.703125 14.492188 16.433594 14.570312 16.195312 C 14.609375 16.066406 14.714844 15.886719 14.875 15.917969 C 15.023438 15.949219 15.078125 16.132812 15.117188 16.253906 C 15.144531 16.339844 15.152344 16.453125 15.28125 16.40625 C 15.371094 16.375 15.4375 16.253906 15.515625 16.199219 C 15.667969 16.085938 15.820312 16.144531 15.914062 16.304688 C 16.039062 16.523438 15.960938 16.925781 16.203125 17.070312 C 16.453125 17.21875 16.535156 16.734375 16.558594 16.519531 C 16.550781 16.519531 16.539062 16.515625 16.527344 16.515625 C 16.019531 16.457031 15.996094 15.851562 16.355469 15.582031 C 16.410156 15.539062 16.46875 15.507812 16.53125 15.480469 C 16.53125 15.476562 16.527344 15.472656 16.523438 15.46875 C 16.460938 15.363281 16.402344 15.253906 16.335938 15.152344 C 16.3125 15.117188 16.320312 15.085938 16.339844 15.0625 C 16.347656 15.054688 16.355469 15.046875 16.363281 15.039062 C 16.445312 14.988281 16.523438 14.9375 16.605469 14.882812 C 16.640625 14.859375 16.695312 14.875 16.714844 14.914062 C 16.792969 15.050781 16.871094 15.1875 16.949219 15.324219 C 16.960938 15.347656 16.960938 15.371094 16.953125 15.390625 C 17.058594 15.378906 17.167969 15.371094 17.273438 15.359375 Z M 14.480469 15.332031 C 14.390625 15.371094 14.304688 15.410156 14.21875 15.449219 C 14.167969 15.472656 14.121094 15.453125 14.101562 15.402344 C 14.019531 15.191406 13.9375 14.984375 13.855469 14.777344 C 13.839844 14.734375 13.875 14.691406 13.914062 14.679688 C 14 14.644531 14.085938 14.613281 14.171875 14.582031 C 14.203125 14.570312 14.25 14.589844 14.261719 14.621094 C 14.351562 14.816406 14.421875 15.023438 14.507812 15.21875 C 14.511719 15.226562 14.511719 15.234375 14.515625 15.238281 C 14.527344 15.273438 14.523438 15.3125 14.480469 15.332031 Z M 15.84375 15.195312 C 15.820312 15.285156 15.796875 15.375 15.773438 15.464844 C 15.761719 15.507812 15.714844 15.527344 15.675781 15.519531 C 15.460938 15.480469 15.253906 15.421875 15.042969 15.378906 C 14.996094 15.371094 14.980469 15.335938 14.984375 15.300781 C 14.984375 15.292969 14.984375 15.289062 14.984375 15.28125 C 15 15.1875 15.019531 15.09375 15.035156 15 C 15.042969 14.953125 15.09375 14.933594 15.136719 14.941406 C 15.351562 14.992188 15.570312 15.046875 15.785156 15.097656 C 15.828125 15.109375 15.851562 15.15625 15.84375 15.195312 Z M 13.167969 16.398438 C 13.222656 16.414062 13.277344 16.429688 13.335938 16.441406 C 13.300781 16.464844 13.265625 16.480469 13.226562 16.460938 C 13.203125 16.449219 13.183594 16.425781 13.167969 16.398438 Z M 13.167969 16.398438 " fill-opacity="1" fill-rule="nonzero"/><path fill="#eb6362" d="M 13.332031 13.21875 C 13.332031 13.347656 13.117188 13.453125 12.847656 13.453125 C 12.582031 13.453125 12.363281 13.347656 12.363281 13.21875 C 12.363281 13.089844 12.582031 12.984375 12.847656 12.984375 C 13.117188 12.984375 13.332031 13.089844 13.332031 13.21875 Z M 14.550781 14.054688 C 14.683594 14.148438 14.8125 14.25 14.949219 14.34375 C 14.972656 14.3125 14.996094 14.28125 15.019531 14.25 C 14.886719 14.152344 14.75 14.050781 14.617188 13.949219 C 14.59375 13.984375 14.570312 14.019531 14.550781 14.054688 Z M 16.539062 14.078125 C 16.382812 14.136719 16.226562 14.1875 16.074219 14.246094 C 16.085938 14.285156 16.097656 14.320312 16.109375 14.355469 C 16.269531 14.300781 16.425781 14.246094 16.585938 14.191406 C 16.570312 14.152344 16.554688 14.113281 16.539062 14.078125 Z M 14.039062 14.804688 C 14.101562 14.960938 14.160156 15.113281 14.222656 15.269531 C 14.257812 15.253906 14.296875 15.238281 14.335938 15.21875 C 14.269531 15.066406 14.214844 14.914062 14.148438 14.761719 C 14.113281 14.777344 14.074219 14.789062 14.039062 14.804688 Z M 16.617188 15.066406 C 16.585938 15.089844 16.550781 15.113281 16.515625 15.132812 C 16.566406 15.21875 16.617188 15.304688 16.664062 15.386719 C 16.671875 15.40625 16.675781 15.421875 16.675781 15.4375 C 16.71875 15.425781 16.765625 15.417969 16.8125 15.410156 C 16.8125 15.40625 16.8125 15.40625 16.808594 15.402344 C 16.746094 15.292969 16.683594 15.179688 16.617188 15.066406 Z M 18.648438 9.304688 C 18.382812 9.078125 18.074219 9.402344 17.902344 9.601562 C 18.167969 9.777344 18.40625 9.980469 18.621094 10.210938 C 18.644531 10.078125 18.671875 9.945312 18.695312 9.816406 C 18.722656 9.648438 18.796875 9.433594 18.648438 9.304688 Z M 15.15625 15.238281 C 15.316406 15.273438 15.476562 15.3125 15.636719 15.347656 C 15.648438 15.308594 15.65625 15.273438 15.664062 15.234375 C 15.503906 15.195312 15.339844 15.15625 15.175781 15.117188 C 15.171875 15.160156 15.164062 15.199219 15.15625 15.238281 Z M 11.917969 9.609375 C 11.734375 9.777344 11.890625 10.097656 12 10.332031 C 12.011719 10.316406 12.023438 10.300781 12.039062 10.285156 C 12.21875 10.066406 12.417969 9.875 12.632812 9.710938 C 12.429688 9.566406 12.136719 9.414062 11.917969 9.609375 Z M 15.222656 13.066406 C 15.300781 13.109375 15.359375 13.074219 15.417969 13.015625 C 15.4375 12.996094 15.480469 12.960938 15.476562 12.933594 C 15.472656 12.898438 15.425781 12.902344 15.386719 12.898438 C 15.328125 12.890625 15.210938 12.878906 15.160156 12.917969 C 15.085938 12.972656 15.164062 13.035156 15.222656 13.066406 Z M 17.925781 12.984375 C 17.65625 12.984375 17.441406 13.089844 17.441406 13.21875 C 17.441406 13.347656 17.65625 13.453125 17.925781 13.453125 C 18.191406 13.453125 18.410156 13.347656 18.410156 13.21875 C 18.410156 13.089844 18.191406 12.984375 17.925781 12.984375 Z M 17.925781 12.984375 " fill-opacity="1" fill-rule="nonzero"/><g clip-path="url(#4eed149f0b)"><path fill="#000000" d="M 14.261719 14.621094 C 14.25 14.589844 14.203125 14.570312 14.171875 14.582031 C 14.085938 14.613281 14 14.644531 13.914062 14.679688 C 13.875 14.691406 13.839844 14.734375 13.855469 14.777344 C 13.9375 14.984375 14.019531 15.191406 14.097656 15.402344 C 14.121094 15.453125 14.167969 15.472656 14.21875 15.449219 C 14.304688 15.410156 14.390625 15.371094 14.480469 15.332031 C 14.523438 15.3125 14.527344 15.273438 14.515625 15.238281 C 14.511719 15.234375 14.511719 15.226562 14.507812 15.21875 C 14.421875 15.023438 14.351562 14.816406 14.261719 14.621094 Z M 14.222656 15.269531 C 14.160156 15.113281 14.101562 14.960938 14.039062 14.804688 C 14.074219 14.789062 14.113281 14.777344 14.148438 14.761719 C 14.214844 14.914062 14.269531 15.066406 14.335938 15.21875 C 14.296875 15.238281 14.257812 15.253906 14.222656 15.269531 Z M 15.042969 15.378906 C 15.253906 15.421875 15.460938 15.480469 15.675781 15.519531 C 15.714844 15.527344 15.761719 15.507812 15.773438 15.464844 C 15.796875 15.375 15.820312 15.285156 15.84375 15.199219 C 15.851562 15.15625 15.828125 15.109375 15.785156 15.097656 C 15.570312 15.046875 15.351562 14.996094 15.136719 14.941406 C 15.097656 14.933594 15.042969 14.953125 15.035156 15 C 15.019531 15.09375 15 15.1875 14.984375 15.28125 C 14.984375 15.289062 14.984375 15.292969 14.984375 15.300781 C 14.980469 15.335938 14.996094 15.371094 15.042969 15.378906 Z M 15.175781 15.117188 C 15.339844 15.15625 15.503906 15.195312 15.664062 15.234375 C 15.65625 15.273438 15.648438 15.308594 15.636719 15.347656 C 15.476562 15.3125 15.316406 15.273438 15.15625 15.238281 C 15.164062 15.199219 15.171875 15.160156 15.175781 15.117188 Z M 19.707031 12.070312 C 19.554688 11.628906 19.351562 11.203125 19.09375 10.8125 C 19.207031 10.429688 19.273438 10.035156 19.277344 9.632812 C 19.277344 9.34375 19.285156 8.957031 19.085938 8.722656 C 18.875 8.472656 18.546875 8.550781 18.28125 8.660156 C 17.925781 8.8125 17.605469 9.027344 17.324219 9.292969 C 16.703125 9.023438 16.027344 8.902344 15.351562 8.863281 C 14.605469 8.863281 13.875 9.011719 13.234375 9.335938 C 12.894531 9.199219 12.550781 9.070312 12.191406 8.992188 C 11.925781 8.9375 11.601562 8.898438 11.386719 9.113281 C 11.191406 9.308594 11.191406 9.617188 11.269531 9.867188 C 11.378906 10.222656 11.605469 10.519531 11.601562 10.90625 C 11.441406 11.175781 11.300781 11.460938 11.179688 11.75 C 10.886719 12.449219 10.730469 13.28125 11.234375 13.925781 C 11.632812 14.433594 12.234375 14.652344 12.851562 14.777344 C 12.535156 15.035156 12.25 15.382812 12.429688 15.8125 C 12.503906 16 12.636719 16.132812 12.796875 16.230469 C 12.671875 16.570312 12.589844 16.929688 12.539062 17.292969 C 12.109375 16.933594 11.582031 16.621094 11.324219 16.113281 C 11.164062 15.796875 11.253906 15.457031 11.195312 15.121094 C 11.152344 14.894531 11.023438 14.65625 10.785156 14.59375 C 10.5625 14.535156 10.335938 14.652344 10.199219 14.828125 C 10.039062 15.035156 10.03125 15.316406 10.082031 15.566406 C 10.1875 16.105469 10.503906 16.613281 10.882812 17.003906 C 11.3125 17.445312 11.863281 17.761719 12.464844 17.902344 C 12.46875 17.902344 12.476562 17.902344 12.480469 17.902344 C 12.476562 17.988281 12.472656 18.074219 12.46875 18.15625 C 12.167969 18.300781 11.851562 18.441406 11.636719 18.703125 C 11.480469 18.898438 11.316406 19.257812 11.550781 19.457031 C 11.769531 19.644531 12.144531 19.496094 12.382812 19.425781 C 12.726562 19.328125 13.070312 19.203125 13.390625 19.039062 C 14.617188 19.570312 16.046875 19.527344 17.242188 18.925781 C 17.550781 19.089844 17.871094 19.230469 18.195312 19.355469 C 18.453125 19.453125 18.867188 19.644531 19.136719 19.496094 C 19.460938 19.3125 19.253906 18.894531 19.09375 18.679688 C 18.871094 18.382812 18.566406 18.144531 18.242188 17.96875 C 18.28125 17.3125 18.121094 16.691406 17.898438 16.074219 C 17.9375 16.039062 17.972656 15.996094 18 15.949219 C 18.273438 15.546875 18.054688 15.125 17.738281 14.832031 C 18.289062 14.75 18.847656 14.542969 19.257812 14.203125 C 19.910156 13.664062 19.964844 12.832031 19.707031 12.070312 Z M 19.035156 8.949219 C 19.140625 9.210938 19.125 9.542969 19.109375 9.820312 C 19.09375 10.101562 19.046875 10.371094 18.976562 10.640625 C 18.90625 10.542969 18.832031 10.449219 18.753906 10.359375 C 18.757812 10.351562 18.761719 10.347656 18.761719 10.335938 C 18.808594 10.089844 18.871094 9.835938 18.894531 9.582031 C 18.910156 9.414062 18.867188 9.253906 18.722656 9.15625 C 18.359375 8.910156 17.988281 9.25 17.765625 9.515625 C 17.703125 9.480469 17.644531 9.449219 17.582031 9.414062 C 17.550781 9.398438 17.515625 9.382812 17.480469 9.363281 C 17.816406 9.0625 18.785156 8.339844 19.035156 8.949219 Z M 18.695312 9.816406 C 18.667969 9.949219 18.644531 10.078125 18.621094 10.210938 C 18.40625 9.980469 18.167969 9.777344 17.902344 9.601562 C 18.074219 9.402344 18.382812 9.078125 18.648438 9.304688 C 18.796875 9.433594 18.722656 9.648438 18.695312 9.816406 Z M 11.574219 10.171875 C 11.449219 9.910156 11.273438 9.570312 11.453125 9.289062 C 11.640625 8.996094 12.066406 9.125 12.335938 9.195312 C 12.582031 9.257812 12.816406 9.34375 13.050781 9.433594 C 12.953125 9.488281 12.859375 9.550781 12.769531 9.613281 C 12.503906 9.414062 12.144531 9.242188 11.839844 9.464844 C 11.503906 9.71875 11.761719 10.167969 11.890625 10.472656 C 11.839844 10.539062 11.792969 10.609375 11.746094 10.679688 C 11.714844 10.503906 11.648438 10.335938 11.574219 10.171875 Z M 12.632812 9.710938 C 12.417969 9.875 12.21875 10.066406 12.039062 10.285156 C 12.023438 10.300781 12.011719 10.316406 12 10.332031 C 11.890625 10.097656 11.734375 9.777344 11.917969 9.609375 C 12.136719 9.414062 12.429688 9.566406 12.632812 9.710938 Z M 12.625 15.847656 C 12.355469 15.421875 12.738281 15.054688 13.0625 14.820312 C 13.183594 14.839844 13.308594 14.859375 13.429688 14.878906 C 13.332031 15.015625 13.25 15.164062 13.1875 15.328125 C 13.15625 15.316406 13.125 15.304688 13.097656 15.292969 C 13.003906 15.253906 12.917969 15.390625 13.015625 15.433594 C 13.078125 15.460938 13.140625 15.480469 13.203125 15.5 C 13.207031 15.5 13.210938 15.503906 13.214844 15.503906 C 13.296875 15.527344 13.386719 15.546875 13.476562 15.558594 C 13.632812 15.574219 13.789062 15.574219 13.933594 15.640625 C 14.121094 15.730469 14.289062 15.921875 14.226562 16.140625 C 14.191406 16.273438 14.09375 16.332031 13.980469 16.351562 C 13.976562 16.351562 13.96875 16.351562 13.964844 16.351562 C 13.871094 16.363281 13.765625 16.351562 13.679688 16.339844 C 13.300781 16.277344 12.847656 16.195312 12.625 15.847656 Z M 14.925781 14.523438 C 14.949219 14.539062 15 14.535156 15.023438 14.511719 C 15.078125 14.4375 15.132812 14.367188 15.191406 14.292969 C 15.222656 14.25 15.21875 14.199219 15.171875 14.167969 C 15.132812 14.136719 15.089844 14.105469 15.046875 14.074219 C 15.335938 14.046875 15.632812 14.074219 15.910156 14.152344 C 15.894531 14.167969 15.886719 14.195312 15.894531 14.222656 C 15.925781 14.308594 15.953125 14.394531 15.984375 14.480469 C 15.996094 14.519531 16.039062 14.550781 16.082031 14.539062 C 16.210938 14.492188 16.339844 14.449219 16.464844 14.402344 C 16.839844 14.625 17.113281 14.960938 17.273438 15.359375 C 17.167969 15.371094 17.0625 15.378906 16.953125 15.390625 C 16.960938 15.371094 16.964844 15.347656 16.949219 15.324219 C 16.871094 15.1875 16.792969 15.050781 16.714844 14.914062 C 16.695312 14.875 16.640625 14.859375 16.605469 14.882812 C 16.527344 14.9375 16.445312 14.988281 16.363281 15.039062 C 16.355469 15.046875 16.347656 15.054688 16.34375 15.0625 C 16.320312 15.082031 16.3125 15.117188 16.335938 15.152344 C 16.402344 15.253906 16.464844 15.363281 16.523438 15.46875 C 16.527344 15.472656 16.53125 15.480469 16.53125 15.480469 C 16.472656 15.507812 16.410156 15.539062 16.355469 15.582031 C 15.996094 15.851562 16.019531 16.457031 16.527344 16.515625 C 16.539062 16.515625 16.550781 16.519531 16.5625 16.519531 C 16.535156 16.734375 16.453125 17.21875 16.203125 17.070312 C 15.960938 16.925781 16.039062 16.523438 15.914062 16.304688 C 15.824219 16.144531 15.667969 16.085938 15.515625 16.199219 C 15.4375 16.253906 15.371094 16.375 15.28125 16.40625 C 15.152344 16.453125 15.144531 16.339844 15.117188 16.253906 C 15.078125 16.132812 15.023438 15.949219 14.878906 15.917969 C 14.714844 15.886719 14.613281 16.066406 14.570312 16.195312 C 14.496094 16.433594 14.535156 16.703125 14.441406 16.9375 C 14.40625 17.019531 14.34375 17.136719 14.242188 17.152344 C 14.09375 17.175781 14.042969 17.003906 14.03125 16.890625 C 14.019531 16.761719 14.042969 16.628906 14.058594 16.5 C 14.152344 16.476562 14.242188 16.429688 14.308594 16.34375 C 14.417969 16.195312 14.425781 15.988281 14.351562 15.824219 C 14.160156 15.417969 13.726562 15.4375 13.34375 15.363281 C 13.554688 14.839844 13.992188 14.4375 14.511719 14.222656 C 14.648438 14.324219 14.785156 14.425781 14.925781 14.523438 Z M 14.550781 14.054688 C 14.570312 14.019531 14.59375 13.984375 14.617188 13.949219 C 14.75 14.050781 14.886719 14.152344 15.019531 14.25 C 14.996094 14.28125 14.972656 14.3125 14.949219 14.34375 C 14.8125 14.25 14.683594 14.148438 14.550781 14.054688 Z M 16.074219 14.246094 C 16.226562 14.1875 16.382812 14.136719 16.539062 14.078125 C 16.554688 14.113281 16.570312 14.152344 16.585938 14.191406 C 16.425781 14.246094 16.269531 14.300781 16.109375 14.355469 C 16.097656 14.320312 16.085938 14.285156 16.074219 14.246094 Z M 16.664062 15.386719 C 16.617188 15.304688 16.566406 15.21875 16.515625 15.132812 C 16.550781 15.113281 16.582031 15.089844 16.617188 15.066406 C 16.683594 15.179688 16.746094 15.292969 16.808594 15.402344 C 16.808594 15.40625 16.8125 15.40625 16.8125 15.410156 C 16.765625 15.417969 16.71875 15.425781 16.675781 15.4375 C 16.675781 15.421875 16.671875 15.40625 16.664062 15.386719 Z M 13.207031 16.625 C 13.335938 16.65625 13.441406 16.574219 13.519531 16.476562 C 13.589844 16.488281 13.660156 16.5 13.726562 16.507812 C 13.78125 16.515625 13.839844 16.519531 13.894531 16.519531 C 13.871094 16.738281 13.828125 16.976562 13.957031 17.171875 C 14.054688 17.316406 14.230469 17.359375 14.382812 17.269531 C 14.566406 17.15625 14.628906 16.917969 14.652344 16.71875 C 14.667969 16.628906 14.6875 16.027344 14.863281 16.089844 C 14.953125 16.121094 14.972656 16.378906 15.019531 16.457031 C 15.109375 16.605469 15.25 16.621094 15.394531 16.523438 C 15.464844 16.476562 15.511719 16.398438 15.582031 16.351562 C 15.777344 16.214844 15.828125 16.515625 15.851562 16.652344 C 15.882812 16.847656 15.921875 17.054688 16.089844 17.183594 C 16.246094 17.308594 16.433594 17.25 16.550781 17.097656 C 16.675781 16.9375 16.703125 16.71875 16.722656 16.519531 C 16.941406 16.507812 17.171875 16.445312 17.367188 16.386719 C 17.378906 16.382812 17.394531 16.375 17.410156 16.371094 C 17.335938 16.886719 17.101562 17.390625 16.707031 17.730469 C 16.296875 18.082031 15.753906 18.28125 15.214844 18.269531 C 14.261719 18.253906 13.378906 17.53125 13.167969 16.609375 C 13.179688 16.617188 13.191406 16.621094 13.207031 16.625 Z M 13.167969 16.398438 C 13.222656 16.414062 13.277344 16.429688 13.335938 16.441406 C 13.300781 16.464844 13.265625 16.480469 13.226562 16.460938 C 13.203125 16.449219 13.183594 16.425781 13.167969 16.398438 Z M 10.351562 15.90625 C 10.253906 15.652344 10.164062 15.359375 10.242188 15.089844 C 10.332031 14.796875 10.71875 14.59375 10.929688 14.886719 C 11.109375 15.132812 11.035156 15.460938 11.058594 15.742188 C 11.074219 15.976562 11.164062 16.191406 11.300781 16.382812 C 11.628906 16.828125 12.105469 17.121094 12.515625 17.484375 C 12.507812 17.570312 12.5 17.65625 12.492188 17.742188 C 11.539062 17.515625 10.714844 16.820312 10.351562 15.90625 Z M 18.078125 18.015625 C 18.074219 18.023438 18.078125 18.035156 18.078125 18.042969 C 18.085938 18.066406 18.101562 18.082031 18.121094 18.089844 C 18.398438 18.230469 18.652344 18.417969 18.859375 18.648438 C 18.964844 18.765625 19.074219 18.90625 19.121094 19.058594 C 19.207031 19.324219 19.011719 19.410156 18.785156 19.367188 C 18.3125 19.285156 17.839844 19.0625 17.414062 18.835938 C 17.414062 18.832031 17.414062 18.832031 17.417969 18.832031 C 17.507812 18.78125 17.425781 18.640625 17.335938 18.691406 C 16.09375 19.390625 14.539062 19.4375 13.261719 18.800781 C 13.167969 18.753906 13.085938 18.894531 13.179688 18.941406 C 13.1875 18.945312 13.195312 18.949219 13.203125 18.953125 C 13.003906 19.046875 12.796875 19.125 12.589844 19.195312 C 12.355469 19.269531 12.078125 19.382812 11.828125 19.382812 C 11.359375 19.378906 11.722656 18.816406 11.898438 18.667969 C 12.101562 18.496094 12.351562 18.394531 12.585938 18.277344 C 12.621094 18.261719 12.632812 18.230469 12.628906 18.203125 C 12.648438 17.566406 12.722656 16.914062 12.9375 16.308594 C 12.945312 16.3125 12.953125 16.316406 12.960938 16.320312 C 12.960938 16.324219 12.960938 16.332031 12.960938 16.339844 C 13.035156 17.210938 13.644531 17.960938 14.449219 18.28125 C 15.304688 18.621094 16.355469 18.367188 16.976562 17.695312 C 17.328125 17.316406 17.523438 16.808594 17.578125 16.300781 C 17.644531 16.269531 17.710938 16.234375 17.769531 16.1875 C 17.976562 16.785156 18.125 17.378906 18.078125 18.015625 Z M 17.773438 15.972656 C 17.613281 16.136719 17.394531 16.21875 17.175781 16.269531 C 16.972656 16.320312 16.722656 16.390625 16.511719 16.351562 C 16.230469 16.292969 16.199219 15.964844 16.378906 15.777344 C 16.5 15.648438 16.664062 15.59375 16.835938 15.570312 C 17.117188 15.527344 17.425781 15.527344 17.695312 15.410156 C 17.789062 15.371094 17.707031 15.230469 17.613281 15.269531 C 17.554688 15.296875 17.496094 15.3125 17.4375 15.328125 C 17.371094 15.164062 17.289062 15.011719 17.191406 14.871094 C 17.300781 14.871094 17.410156 14.867188 17.519531 14.855469 C 17.878906 15.128906 18.148438 15.589844 17.773438 15.972656 Z M 17.546875 14.695312 C 17.542969 14.695312 17.539062 14.695312 17.535156 14.695312 C 17.378906 14.710938 17.222656 14.714844 17.074219 14.707031 C 17.070312 14.707031 17.070312 14.707031 17.066406 14.707031 C 16.949219 14.566406 16.8125 14.441406 16.660156 14.335938 C 16.675781 14.328125 16.695312 14.324219 16.710938 14.316406 C 16.75 14.304688 16.785156 14.257812 16.769531 14.21875 C 16.734375 14.128906 16.695312 14.039062 16.660156 13.953125 C 16.65625 13.945312 16.652344 13.941406 16.648438 13.933594 C 16.636719 13.902344 16.605469 13.878906 16.558594 13.894531 C 16.421875 13.953125 16.277344 14 16.136719 14.050781 C 15.730469 13.910156 15.289062 13.867188 14.863281 13.933594 C 14.789062 13.878906 14.710938 13.820312 14.636719 13.765625 C 14.601562 13.738281 14.550781 13.761719 14.527344 13.792969 C 14.472656 13.875 14.421875 13.953125 14.367188 14.035156 C 14.347656 14.0625 14.351562 14.089844 14.367188 14.113281 C 14.046875 14.261719 13.765625 14.46875 13.542969 14.734375 C 12.84375 14.632812 12.074219 14.515625 11.539062 14.019531 C 10.90625 13.433594 11.011719 12.582031 11.308594 11.855469 C 11.703125 10.894531 12.308594 10 13.242188 9.5 C 13.253906 9.496094 13.265625 9.488281 13.277344 9.480469 C 13.277344 9.480469 13.28125 9.476562 13.28125 9.476562 C 13.921875 9.144531 14.640625 9.027344 15.351562 9.023438 C 16.539062 9.097656 17.714844 9.449219 18.535156 10.347656 C 18.882812 10.726562 19.148438 11.171875 19.359375 11.640625 C 19.675781 12.335938 19.917969 13.210938 19.375 13.863281 C 18.953125 14.363281 18.222656 14.628906 17.546875 14.695312 Z M 16.164062 13.378906 C 15.921875 13.621094 15.539062 13.535156 15.429688 13.210938 C 15.515625 13.167969 15.585938 13.085938 15.625 13.007812 C 15.65625 12.945312 15.652344 12.875 15.613281 12.820312 C 15.558594 12.753906 15.46875 12.746094 15.386719 12.734375 C 15.238281 12.722656 14.992188 12.742188 14.949219 12.917969 C 14.914062 13.058594 15.070312 13.1875 15.199219 13.234375 C 15.070312 13.5 14.753906 13.597656 14.484375 13.441406 C 14.394531 13.390625 14.3125 13.53125 14.402344 13.582031 C 14.738281 13.777344 15.132812 13.664062 15.316406 13.355469 C 15.503906 13.710938 15.972656 13.796875 16.277344 13.496094 C 16.351562 13.421875 16.238281 13.304688 16.164062 13.378906 Z M 15.417969 13.015625 C 15.359375 13.074219 15.300781 13.109375 15.222656 13.066406 C 15.164062 13.035156 15.085938 12.972656 15.160156 12.917969 C 15.210938 12.878906 15.328125 12.890625 15.386719 12.898438 C 15.425781 12.902344 15.472656 12.898438 15.476562 12.933594 C 15.480469 12.960938 15.4375 12.996094 15.417969 13.015625 Z M 17.546875 12.371094 C 17.601562 12.585938 17.453125 12.828125 17.222656 12.847656 C 16.972656 12.867188 16.800781 12.628906 16.832031 12.398438 C 16.84375 12.296875 17 12.339844 16.984375 12.441406 C 16.96875 12.570312 17.09375 12.707031 17.226562 12.683594 C 17.347656 12.660156 17.421875 12.527344 17.394531 12.414062 C 17.367188 12.3125 17.523438 12.269531 17.546875 12.371094 Z M 13.941406 12.398438 C 13.972656 12.628906 13.800781 12.867188 13.550781 12.847656 C 13.320312 12.828125 13.171875 12.585938 13.222656 12.371094 C 13.25 12.269531 13.40625 12.3125 13.378906 12.414062 C 13.351562 12.527344 13.425781 12.660156 13.546875 12.683594 C 13.679688 12.707031 13.804688 12.570312 13.789062 12.441406 C 13.773438 12.339844 13.929688 12.296875 13.941406 12.398438 Z M 13.941406 12.398438 " fill-opacity="1" fill-rule="nonzero"/></g><g fill="#000000" fill-opacity="1"><g transform="translate(4.866118, 13.028387)"><g><path d="M -2.359375 -0.484375 L -2.203125 -1.140625 L -1.34375 -1.4375 L -1.96875 -2.109375 L -1.8125 -2.75 L -0.734375 -1.5625 L 0.3125 -1.3125 L 0.1875 -0.78125 L -0.859375 -1.03125 Z M -2.359375 -0.484375 "/></g></g></g><g fill="#000000" fill-opacity="1"><g transform="translate(5.376115, 10.943354)"><g><path d="M -1.28125 -2.875 L 0.125 -2.203125 C 0.394531 -2.066406 0.5625 -1.894531 0.625 -1.6875 C 0.6875 -1.476562 0.648438 -1.234375 0.515625 -0.953125 C 0.378906 -0.679688 0.207031 -0.503906 0 -0.421875 C -0.195312 -0.335938 -0.429688 -0.363281 -0.703125 -0.5 L -2.109375 -1.171875 L -1.859375 -1.671875 L -0.59375 -1.0625 C -0.414062 -0.976562 -0.285156 -0.945312 -0.203125 -0.96875 C -0.117188 -0.988281 -0.046875 -1.0625 0.015625 -1.1875 C 0.078125 -1.320312 0.0859375 -1.429688 0.046875 -1.515625 C 0.015625 -1.597656 -0.0859375 -1.679688 -0.265625 -1.765625 L -1.53125 -2.375 Z M -1.28125 -2.875 "/></g></g></g><g fill="#000000" fill-opacity="1"><g transform="translate(6.284303, 8.986864)"><g><path d="M 1.390625 -1.671875 L 0.203125 -2.484375 L 0.96875 -1.203125 L 0.765625 -0.953125 L -0.640625 -1.453125 L 0.375 -0.453125 L 0.03125 -0.03125 L -1.6875 -1.734375 L -1.328125 -2.1875 L 0.09375 -1.703125 L -0.640625 -3.015625 L -0.265625 -3.453125 L 1.734375 -2.09375 Z M 1.390625 -1.671875 "/></g></g></g><g fill="#000000" fill-opacity="1"><g transform="translate(8.018216, 6.882948)"><g><path d="M 1.78125 -1.25 L 0.859375 -2.328125 L 1.25 -0.90625 L 0.984375 -0.71875 L -0.21875 -1.5625 L -0.234375 -1.5625 L 0.484375 -0.34375 L 0.03125 -0.03125 L -1.171875 -2.125 L -0.703125 -2.453125 L 0.546875 -1.625 L 0.1875 -3.078125 L 0.65625 -3.40625 L 2.21875 -1.5625 Z M 1.78125 -1.25 "/></g></g></g><g fill="#000000" fill-opacity="1"><g transform="translate(10.276081, 5.333949)"><g><path d="M -0.984375 -2.203125 L -0.359375 -2.453125 L 0.390625 -1.921875 L 0.578125 -2.8125 L 1.1875 -3.046875 L 0.859375 -1.5 L 1.25 -0.5 L 0.734375 -0.296875 L 0.34375 -1.296875 Z M -0.984375 -2.203125 "/></g></g></g><g fill="#000000" fill-opacity="1"><g transform="translate(12.326958, 4.581826)"><g/></g></g><g fill="#000000" fill-opacity="1"><g transform="translate(13.151013, 4.363426)"><g><path d="M -0.171875 -1.90625 L -0.21875 -2.390625 L 1.46875 -2.5625 L 1.515625 -2.078125 L 0.953125 -2.015625 L 1.140625 -0.109375 L 0.59375 -0.0625 L 0.40625 -1.96875 Z M -0.171875 -1.90625 "/></g></g></g><g fill="#000000" fill-opacity="1"><g transform="translate(14.889015, 4.166501)"><g><path d="M 1.640625 -2.25 L 2.359375 0.234375 L 1.765625 0.171875 L 1.640625 -0.328125 L 0.734375 -0.421875 L 0.515625 0.046875 L -0.078125 0 L 1.125 -2.296875 Z M 1.515625 -0.828125 L 1.3125 -1.546875 L 0.96875 -0.875 Z M 1.515625 -0.828125 "/></g></g></g><g fill="#000000" fill-opacity="1"><g transform="translate(17.156502, 4.39246)"><g><path d="M 2.25 0.75 L 1.53125 0.515625 L 1.015625 -0.734375 L 0.6875 0.234375 L 0.15625 0.046875 L 0.921875 -2.234375 L 1.453125 -2.046875 L 1.140625 -1.109375 L 2.234375 -1.796875 L 2.875 -1.578125 L 1.59375 -0.8125 Z M 2.25 0.75 "/></g></g></g><g fill="#000000" fill-opacity="1"><g transform="translate(19.325553, 5.100994)"><g><path d="M 0.6875 -0.984375 C 0.875 -1.285156 1.128906 -1.472656 1.453125 -1.546875 C 1.785156 -1.617188 2.097656 -1.570312 2.390625 -1.40625 C 2.671875 -1.226562 2.847656 -0.972656 2.921875 -0.640625 C 3.003906 -0.304688 2.953125 0.0078125 2.765625 0.3125 C 2.578125 0.613281 2.316406 0.800781 1.984375 0.875 C 1.648438 0.957031 1.34375 0.90625 1.0625 0.71875 C 0.757812 0.53125 0.570312 0.273438 0.5 -0.046875 C 0.4375 -0.367188 0.5 -0.679688 0.6875 -0.984375 Z M 1.203125 -0.671875 C 1.128906 -0.566406 1.082031 -0.457031 1.0625 -0.34375 C 1.039062 -0.226562 1.050781 -0.113281 1.09375 0 C 1.132812 0.101562 1.21875 0.191406 1.34375 0.265625 C 1.507812 0.378906 1.675781 0.40625 1.84375 0.34375 C 2.007812 0.28125 2.144531 0.164062 2.25 0 C 2.351562 -0.164062 2.394531 -0.335938 2.375 -0.515625 C 2.363281 -0.691406 2.273438 -0.835938 2.109375 -0.953125 C 1.929688 -1.054688 1.757812 -1.078125 1.59375 -1.015625 C 1.4375 -0.953125 1.304688 -0.835938 1.203125 -0.671875 Z M 1.203125 -0.671875 "/></g></g></g><g fill="#000000" fill-opacity="1"><g transform="translate(21.470747, 6.46827)"><g><path d="M 1.640625 -1.765625 L 2.109375 -1.296875 L 1.921875 -0.390625 L 2.8125 -0.578125 L 3.28125 -0.125 L 1.71875 0.1875 L 0.953125 0.953125 L 0.5625 0.5625 L 1.328125 -0.203125 Z M 1.640625 -1.765625 "/></g></g></g><g fill="#000000" fill-opacity="1"><g transform="translate(22.988542, 7.982135)"><g><path d="M 2.78125 -0.109375 L 1.28125 2 L 0.953125 1.5 L 1.265625 1.09375 L 0.78125 0.3125 L 0.28125 0.4375 L -0.046875 -0.0625 L 2.515625 -0.546875 Z M 1.578125 0.6875 L 2.015625 0.078125 L 1.28125 0.21875 Z M 1.578125 0.6875 "/></g></g></g><g fill="#000000" fill-opacity="1"><g transform="translate(24.212773, 9.904089)"><g><path d="M 0.796875 2.234375 L 0.546875 1.515625 L 1.1875 0.328125 L 0.234375 0.671875 L 0.0625 0.15625 L 2.328125 -0.65625 L 2.5 -0.140625 L 1.578125 0.1875 L 2.78125 0.640625 L 3.015625 1.28125 L 1.609375 0.75 Z M 0.796875 2.234375 "/></g></g></g><g fill="#000000" fill-opacity="1"><g transform="translate(24.940157, 12.112069)"><g><path d="M 2.484375 0.265625 L 0.125 0.703125 L 0.03125 0.171875 L 2.390625 -0.265625 Z M 2.484375 0.265625 "/></g></g></g><g fill="#000000" fill-opacity="1"><g transform="translate(4.193561, 19.042663)"><g><path d="M 0.15625 0.375 C 0.113281 0.269531 0.101562 0.175781 0.125 0.09375 C 0.15625 0.0078125 0.222656 -0.0507812 0.328125 -0.09375 L 0.421875 0.078125 C 0.367188 0.0976562 0.332031 0.125 0.3125 0.15625 C 0.300781 0.195312 0.304688 0.242188 0.328125 0.296875 C 0.347656 0.335938 0.375 0.363281 0.40625 0.375 C 0.445312 0.394531 0.488281 0.394531 0.53125 0.375 L 1.28125 0.03125 L 1.375 0.203125 L 0.625 0.546875 C 0.519531 0.597656 0.425781 0.609375 0.34375 0.578125 C 0.269531 0.546875 0.207031 0.476562 0.15625 0.375 Z M 0.15625 0.375 "/></g></g></g><g fill="#000000" fill-opacity="1"><g transform="translate(5.085701, 20.758796)"><g><path d="M 0.015625 0.03125 L 1.203125 -0.28125 L 1.34375 -0.09375 L 0.65625 0.921875 L 0.515625 0.734375 L 0.6875 0.5 L 0.421875 0.140625 L 0.15625 0.21875 Z M 0.59375 0.078125 L 0.796875 0.359375 L 1.078125 -0.0625 Z M 0.59375 0.078125 "/></g></g></g><g fill="#000000" fill-opacity="1"><g transform="translate(6.446782, 22.508246)"><g><path d="M 0.078125 0.078125 L 0.890625 -0.75 L 1.203125 -0.453125 C 1.265625 -0.378906 1.304688 -0.3125 1.328125 -0.25 C 1.347656 -0.195312 1.351562 -0.132812 1.34375 -0.0625 C 1.332031 0 1.300781 0.0546875 1.25 0.109375 C 1.195312 0.148438 1.140625 0.175781 1.078125 0.1875 C 1.015625 0.195312 0.953125 0.191406 0.890625 0.171875 C 0.828125 0.160156 0.765625 0.117188 0.703125 0.046875 L 0.546875 -0.09375 L 0.234375 0.234375 Z M 0.671875 -0.21875 L 0.8125 -0.078125 C 0.863281 -0.0234375 0.910156 0 0.953125 0 C 1.003906 0 1.050781 -0.015625 1.09375 -0.046875 C 1.132812 -0.0976562 1.148438 -0.144531 1.140625 -0.1875 C 1.140625 -0.226562 1.113281 -0.273438 1.0625 -0.328125 L 0.921875 -0.46875 Z M 0.671875 -0.21875 "/></g></g></g><g fill="#000000" fill-opacity="1"><g transform="translate(7.981416, 23.884164)"><g><path d="M 0.03125 0.015625 L 1.03125 -0.6875 L 1.21875 -0.5625 L 0.9375 0.625 L 0.75 0.5 L 0.8125 0.234375 L 0.4375 -0.015625 L 0.21875 0.140625 Z M 0.59375 -0.125 L 0.875 0.0625 L 1 -0.4375 Z M 0.59375 -0.125 "/></g></g></g><g fill="#000000" fill-opacity="1"><g transform="translate(9.878316, 25.039557)"><g><path d="M 0.09375 0.046875 L 0.546875 -1.015625 L 0.75 -0.9375 L 0.953125 0.03125 L 1.265625 -0.71875 L 1.453125 -0.640625 L 1 0.421875 L 0.8125 0.34375 L 0.609375 -0.625 L 0.296875 0.125 Z M 0.09375 0.046875 "/></g></g></g><g fill="#000000" fill-opacity="1"><g transform="translate(11.988296, 25.819163)"><g><path d="M 0.109375 0.03125 L 0.359375 -1.09375 L 1.109375 -0.9375 L 1.078125 -0.765625 L 0.53125 -0.875 L 0.453125 -0.578125 L 0.9375 -0.484375 L 0.90625 -0.3125 L 0.421875 -0.40625 L 0.34375 -0.09375 L 0.890625 0.015625 L 0.859375 0.1875 Z M 0.109375 0.03125 "/></g></g></g><g fill="#000000" fill-opacity="1"><g transform="translate(13.965446, 26.169343)"><g><path d="M 0.515625 0.046875 C 0.421875 0.0351562 0.34375 0.0195312 0.28125 0 C 0.21875 -0.03125 0.171875 -0.078125 0.140625 -0.140625 C 0.109375 -0.203125 0.09375 -0.269531 0.09375 -0.34375 L 0.3125 -0.328125 C 0.3125 -0.273438 0.328125 -0.226562 0.359375 -0.1875 C 0.390625 -0.15625 0.4375 -0.132812 0.5 -0.125 C 0.5625 -0.125 0.609375 -0.132812 0.640625 -0.15625 C 0.679688 -0.1875 0.703125 -0.226562 0.703125 -0.28125 C 0.703125 -0.320312 0.6875 -0.351562 0.65625 -0.375 C 0.632812 -0.40625 0.597656 -0.429688 0.546875 -0.453125 C 0.503906 -0.472656 0.457031 -0.492188 0.40625 -0.515625 C 0.3125 -0.546875 0.238281 -0.585938 0.1875 -0.640625 C 0.144531 -0.703125 0.128906 -0.769531 0.140625 -0.84375 C 0.140625 -0.914062 0.15625 -0.972656 0.1875 -1.015625 C 0.226562 -1.054688 0.28125 -1.085938 0.34375 -1.109375 C 0.40625 -1.140625 0.472656 -1.15625 0.546875 -1.15625 C 0.628906 -1.144531 0.695312 -1.125 0.75 -1.09375 C 0.800781 -1.070312 0.84375 -1.035156 0.875 -0.984375 C 0.90625 -0.929688 0.925781 -0.867188 0.9375 -0.796875 L 0.703125 -0.8125 C 0.703125 -0.851562 0.6875 -0.890625 0.65625 -0.921875 C 0.625 -0.953125 0.582031 -0.972656 0.53125 -0.984375 C 0.488281 -0.984375 0.453125 -0.972656 0.421875 -0.953125 C 0.390625 -0.929688 0.375 -0.894531 0.375 -0.84375 C 0.363281 -0.8125 0.367188 -0.78125 0.390625 -0.75 C 0.410156 -0.726562 0.441406 -0.707031 0.484375 -0.6875 C 0.523438 -0.664062 0.570312 -0.648438 0.625 -0.640625 C 0.6875 -0.617188 0.738281 -0.59375 0.78125 -0.5625 C 0.832031 -0.539062 0.867188 -0.503906 0.890625 -0.453125 C 0.921875 -0.398438 0.9375 -0.34375 0.9375 -0.28125 C 0.9375 -0.21875 0.914062 -0.160156 0.875 -0.109375 C 0.84375 -0.0664062 0.796875 -0.03125 0.734375 0 C 0.671875 0.03125 0.597656 0.046875 0.515625 0.046875 Z M 0.515625 0.046875 "/></g></g></g><g fill="#000000" fill-opacity="1"><g transform="translate(16.004822, 26.173932)"><g><path d="M 0.109375 -0.015625 L -0.03125 -1.15625 L 0.734375 -1.25 L 0.75 -1.09375 L 0.203125 -1.03125 L 0.25 -0.71875 L 0.734375 -0.765625 L 0.75 -0.59375 L 0.265625 -0.546875 L 0.3125 -0.21875 L 0.859375 -0.28125 L 0.875 -0.109375 Z M 0.109375 -0.015625 "/></g></g></g><g fill="#000000" fill-opacity="1"><g transform="translate(17.969758, 25.829837)"><g/></g></g><g fill="#000000" fill-opacity="1"><g transform="translate(19.331538, 25.393529)"><g><path d="M 0.09375 -0.046875 L -0.375 -1.109375 L 0.3125 -1.40625 L 0.390625 -1.25 L -0.09375 -1.03125 L 0.03125 -0.734375 L 0.4375 -0.921875 L 0.5 -0.765625 L 0.09375 -0.578125 L 0.296875 -0.125 Z M 0.09375 -0.046875 "/></g></g></g><g fill="#000000" fill-opacity="1"><g transform="translate(21.100737, 24.527444)"><g><path d="M 0.5625 -0.359375 C 0.46875 -0.285156 0.367188 -0.242188 0.265625 -0.234375 C 0.160156 -0.234375 0.0625 -0.253906 -0.03125 -0.296875 C -0.125 -0.347656 -0.203125 -0.425781 -0.265625 -0.53125 C -0.328125 -0.625 -0.363281 -0.71875 -0.375 -0.8125 C -0.382812 -0.914062 -0.363281 -1.007812 -0.3125 -1.09375 C -0.269531 -1.1875 -0.203125 -1.269531 -0.109375 -1.34375 C -0.015625 -1.40625 0.078125 -1.441406 0.171875 -1.453125 C 0.273438 -1.460938 0.367188 -1.441406 0.453125 -1.390625 C 0.546875 -1.347656 0.625 -1.28125 0.6875 -1.1875 C 0.75 -1.082031 0.785156 -0.976562 0.796875 -0.875 C 0.816406 -0.78125 0.804688 -0.6875 0.765625 -0.59375 C 0.722656 -0.5 0.65625 -0.421875 0.5625 -0.359375 Z M 0.453125 -0.515625 C 0.546875 -0.578125 0.597656 -0.65625 0.609375 -0.75 C 0.617188 -0.851562 0.585938 -0.957031 0.515625 -1.0625 C 0.441406 -1.15625 0.359375 -1.210938 0.265625 -1.234375 C 0.171875 -1.265625 0.078125 -1.25 -0.015625 -1.1875 C -0.109375 -1.113281 -0.160156 -1.03125 -0.171875 -0.9375 C -0.179688 -0.84375 -0.148438 -0.75 -0.078125 -0.65625 C -0.00390625 -0.550781 0.078125 -0.484375 0.171875 -0.453125 C 0.265625 -0.421875 0.359375 -0.441406 0.453125 -0.515625 Z M 0.453125 -0.515625 "/></g></g></g><g fill="#000000" fill-opacity="1"><g transform="translate(22.999618, 23.098738)"><g><path d="M 0.46875 -0.453125 C 0.394531 -0.367188 0.304688 -0.3125 0.203125 -0.28125 C 0.109375 -0.257812 0.0078125 -0.265625 -0.09375 -0.296875 C -0.195312 -0.328125 -0.289062 -0.382812 -0.375 -0.46875 C -0.457031 -0.539062 -0.507812 -0.625 -0.53125 -0.71875 C -0.5625 -0.820312 -0.5625 -0.921875 -0.53125 -1.015625 C -0.507812 -1.109375 -0.460938 -1.195312 -0.390625 -1.28125 C -0.304688 -1.363281 -0.210938 -1.421875 -0.109375 -1.453125 C -0.015625 -1.484375 0.078125 -1.484375 0.171875 -1.453125 C 0.265625 -1.421875 0.351562 -1.367188 0.4375 -1.296875 C 0.519531 -1.210938 0.578125 -1.117188 0.609375 -1.015625 C 0.648438 -0.921875 0.65625 -0.820312 0.625 -0.71875 C 0.601562 -0.625 0.550781 -0.535156 0.46875 -0.453125 Z M 0.328125 -0.59375 C 0.410156 -0.675781 0.445312 -0.765625 0.4375 -0.859375 C 0.425781 -0.953125 0.375 -1.046875 0.28125 -1.140625 C 0.195312 -1.222656 0.109375 -1.265625 0.015625 -1.265625 C -0.078125 -1.273438 -0.164062 -1.238281 -0.25 -1.15625 C -0.320312 -1.070312 -0.351562 -0.984375 -0.34375 -0.890625 C -0.34375 -0.796875 -0.300781 -0.707031 -0.21875 -0.625 C -0.125 -0.53125 -0.03125 -0.476562 0.0625 -0.46875 C 0.164062 -0.46875 0.253906 -0.507812 0.328125 -0.59375 Z M 0.328125 -0.59375 "/></g></g></g><g fill="#000000" fill-opacity="1"><g transform="translate(24.568211, 21.318183)"><g><path d="M 0.0625 -0.09375 L -0.90625 -0.71875 L -0.6875 -1.0625 C -0.613281 -1.175781 -0.535156 -1.253906 -0.453125 -1.296875 C -0.367188 -1.335938 -0.273438 -1.351562 -0.171875 -1.34375 C -0.078125 -1.34375 0.015625 -1.3125 0.109375 -1.25 C 0.203125 -1.1875 0.273438 -1.109375 0.328125 -1.015625 C 0.378906 -0.929688 0.398438 -0.84375 0.390625 -0.75 C 0.390625 -0.65625 0.351562 -0.550781 0.28125 -0.4375 Z M 0.015625 -0.375 L 0.109375 -0.515625 C 0.160156 -0.585938 0.1875 -0.660156 0.1875 -0.734375 C 0.195312 -0.804688 0.1875 -0.867188 0.15625 -0.921875 C 0.125 -0.972656 0.0703125 -1.019531 0 -1.0625 C -0.0703125 -1.101562 -0.140625 -1.128906 -0.203125 -1.140625 C -0.265625 -1.148438 -0.328125 -1.140625 -0.390625 -1.109375 C -0.453125 -1.078125 -0.507812 -1.023438 -0.5625 -0.953125 L -0.65625 -0.8125 Z M 0.015625 -0.375 "/></g></g></g><g fill="#000000" fill-opacity="1"><g transform="translate(25.674871, 19.393485)"><g/></g></g></svg>