<svg xmlns="http://www.w3.org/2000/svg" xmlns:xlink="http://www.w3.org/1999/xlink" width="40" zoomAndPan="magnify" viewBox="0 0 30 30.000001" height="40" preserveAspectRatio="xMidYMid meet" version="1.0"><defs><g/><clipPath id="35b5f7750e"><path d="M 0.484375 0 L 29.515625 0 L 29.515625 29.03125 L 0.484375 29.03125 Z M 0.484375 0 " clip-rule="nonzero"/></clipPath><clipPath id="d97d8b2c1b"><path d="M 1.429688 0.945312 L 28.570312 0.945312 L 28.570312 28.085938 L 1.429688 28.085938 Z M 1.429688 0.945312 " clip-rule="nonzero"/></clipPath><clipPath id="91adcfa013"><path d="M 15.570312 1.179688 L 16.371094 1.8125 C 16.726562 2.09375 17.199219 2.167969 17.621094 2.011719 L 18.578125 1.65625 C 18.976562 1.507812 19.425781 1.65625 19.664062 2.007812 L 20.230469 2.859375 C 20.480469 3.234375 20.90625 3.449219 21.359375 3.433594 L 22.378906 3.390625 C 22.804688 3.375 23.183594 3.652344 23.300781 4.0625 L 23.574219 5.042969 C 23.699219 5.480469 24.039062 5.816406 24.472656 5.941406 L 25.453125 6.214844 C 25.863281 6.332031 26.140625 6.714844 26.125 7.136719 L 26.082031 8.160156 C 26.066406 8.609375 26.28125 9.035156 26.65625 9.285156 L 27.507812 9.851562 C 27.859375 10.089844 28.007812 10.539062 27.859375 10.9375 L 27.503906 11.894531 C 27.347656 12.316406 27.425781 12.792969 27.703125 13.144531 L 28.335938 13.945312 C 28.597656 14.28125 28.597656 14.75 28.335938 15.085938 L 27.703125 15.886719 C 27.425781 16.242188 27.347656 16.714844 27.503906 17.136719 L 27.859375 18.09375 C 28.007812 18.496094 27.859375 18.941406 27.507812 19.179688 L 26.65625 19.746094 C 26.28125 19.996094 26.066406 20.421875 26.082031 20.875 L 26.125 21.894531 C 26.140625 22.320312 25.863281 22.699219 25.453125 22.816406 L 24.472656 23.09375 C 24.039062 23.214844 23.699219 23.554688 23.574219 23.988281 L 23.300781 24.96875 C 23.183594 25.378906 22.804688 25.65625 22.378906 25.640625 L 21.359375 25.597656 C 20.90625 25.582031 20.480469 25.800781 20.230469 26.175781 L 19.664062 27.023438 C 19.425781 27.378906 18.976562 27.523438 18.578125 27.375 L 17.621094 27.023438 C 17.199219 26.867188 16.726562 26.941406 16.371094 27.21875 L 15.570312 27.851562 C 15.234375 28.117188 14.765625 28.117188 14.429688 27.851562 L 13.628906 27.21875 C 13.273438 26.941406 12.800781 26.867188 12.378906 27.023438 L 11.421875 27.375 C 11.023438 27.523438 10.574219 27.378906 10.335938 27.023438 L 9.769531 26.175781 C 9.519531 25.800781 9.09375 25.582031 8.640625 25.597656 L 7.621094 25.640625 C 7.195312 25.65625 6.816406 25.378906 6.699219 24.96875 L 6.425781 23.988281 C 6.300781 23.554688 5.960938 23.214844 5.527344 23.09375 L 4.546875 22.816406 C 4.136719 22.699219 3.859375 22.320312 3.875 21.894531 L 3.917969 20.875 C 3.933594 20.421875 3.71875 19.996094 3.34375 19.746094 L 2.492188 19.179688 C 2.140625 18.941406 1.992188 18.496094 2.140625 18.09375 L 2.496094 17.136719 C 2.652344 16.714844 2.574219 16.242188 2.296875 15.886719 L 1.664062 15.085938 C 1.402344 14.75 1.402344 14.28125 1.664062 13.945312 L 2.296875 13.144531 C 2.574219 12.792969 2.652344 12.316406 2.496094 11.894531 L 2.140625 10.9375 C 1.992188 10.539062 2.140625 10.089844 2.492188 9.851562 L 3.34375 9.285156 C 3.71875 9.035156 3.933594 8.609375 3.917969 8.160156 L 3.875 7.136719 C 3.859375 6.714844 4.136719 6.332031 4.546875 6.214844 L 5.527344 5.941406 C 5.960938 5.816406 6.300781 5.480469 6.425781 5.042969 L 6.699219 4.0625 C 6.816406 3.652344 7.195312 3.375 7.621094 3.390625 L 8.640625 3.433594 C 9.09375 3.449219 9.519531 3.234375 9.769531 2.859375 L 10.335938 2.007812 C 10.574219 1.65625 11.023438 1.507812 11.421875 1.65625 L 12.378906 2.011719 C 12.800781 2.167969 13.273438 2.09375 13.628906 1.8125 L 14.429688 1.179688 C 14.765625 0.917969 15.234375 0.917969 15.570312 1.179688 Z M 15.570312 1.179688 " clip-rule="nonzero"/></clipPath><clipPath id="f0c620833f"><path d="M 2.894531 2.414062 L 27.105469 2.414062 L 27.105469 26.621094 L 2.894531 26.621094 Z M 2.894531 2.414062 " clip-rule="nonzero"/></clipPath><clipPath id="ad32e724fb"><path d="M 15 2.414062 C 8.316406 2.414062 2.894531 7.832031 2.894531 14.515625 C 2.894531 21.199219 8.316406 26.621094 15 26.621094 C 21.683594 26.621094 27.105469 21.199219 27.105469 14.515625 C 27.105469 7.832031 21.683594 2.414062 15 2.414062 Z M 15 2.414062 " clip-rule="nonzero"/></clipPath><clipPath id="75b3d1f3cd"><path d="M 18.628906 10.484375 L 29.515625 10.484375 L 29.515625 15.769531 L 18.628906 15.769531 Z M 18.628906 10.484375 " clip-rule="nonzero"/></clipPath><clipPath id="0cf1625e2f"><path d="M 18.628906 10.484375 L 29.515625 10.484375 L 27.8125 13.128906 L 29.515625 15.769531 L 18.628906 15.769531 Z M 18.628906 10.484375 " clip-rule="nonzero"/></clipPath><clipPath id="25a7b0123b"><path d="M 0.484375 10.929688 L 11.371094 10.929688 L 11.371094 16.214844 L 0.484375 16.214844 Z M 0.484375 10.929688 " clip-rule="nonzero"/></clipPath><clipPath id="9fc358c905"><path d="M 11.371094 16.214844 L 0.484375 16.214844 L 2.183594 13.570312 L 0.484375 10.929688 L 11.371094 10.929688 Z M 11.371094 16.214844 " clip-rule="nonzero"/></clipPath><clipPath id="3de33f0d95"><path d="M 7.878906 7.394531 L 22.121094 7.394531 L 22.121094 21.636719 L 7.878906 21.636719 Z M 7.878906 7.394531 " clip-rule="nonzero"/></clipPath><clipPath id="0345e2f5d8"><path d="M 15 7.394531 C 11.066406 7.394531 7.878906 10.582031 7.878906 14.515625 C 7.878906 18.449219 11.066406 21.636719 15 21.636719 C 18.933594 21.636719 22.121094 18.449219 22.121094 14.515625 C 22.121094 10.582031 18.933594 7.394531 15 7.394531 Z M 15 7.394531 " clip-rule="nonzero"/></clipPath><clipPath id="b66437769c"><path d="M 8 9 L 21 9 L 21 16 L 8 16 Z M 8 9 " clip-rule="nonzero"/></clipPath><clipPath id="2ce18e2ea3"><path d="M 10.792969 6.339844 L 23.25 10.269531 L 19.320312 22.730469 L 6.859375 18.796875 Z M 10.792969 6.339844 " clip-rule="nonzero"/></clipPath><clipPath id="22bfe968ea"><path d="M 10.792969 6.339844 L 23.25 10.269531 L 19.320312 22.730469 L 6.859375 18.796875 Z M 10.792969 6.339844 " clip-rule="nonzero"/></clipPath><clipPath id="d83da2b145"><path d="M 8 11 L 21 11 L 21 19 L 8 19 Z M 8 11 " clip-rule="nonzero"/></clipPath><clipPath id="2f436ae2d6"><path d="M 10.792969 6.339844 L 23.25 10.269531 L 19.320312 22.730469 L 6.859375 18.796875 Z M 10.792969 6.339844 " clip-rule="nonzero"/></clipPath><clipPath id="6e63dbf8e5"><path d="M 10.792969 6.339844 L 23.25 10.269531 L 19.320312 22.730469 L 6.859375 18.796875 Z M 10.792969 6.339844 " clip-rule="nonzero"/></clipPath><clipPath id="90899dc10c"><path d="M 7 9 L 21 9 L 21 20 L 7 20 Z M 7 9 " clip-rule="nonzero"/></clipPath><clipPath id="434fa22a0e"><path d="M 10.792969 6.339844 L 23.25 10.269531 L 19.320312 22.730469 L 6.859375 18.796875 Z M 10.792969 6.339844 " clip-rule="nonzero"/></clipPath><clipPath id="2d5e9912de"><path d="M 10.792969 6.339844 L 23.25 10.269531 L 19.320312 22.730469 L 6.859375 18.796875 Z M 10.792969 6.339844 " clip-rule="nonzero"/></clipPath></defs><g clip-path="url(#35b5f7750e)"><path fill="#ffffff" d="M 0.484375 0 L 29.515625 0 L 29.515625 29.03125 L 0.484375 29.03125 Z M 0.484375 0 " fill-opacity="1" fill-rule="nonzero"/><path fill="#970cef" d="M 0.484375 0 L 29.515625 0 L 29.515625 29.03125 L 0.484375 29.03125 Z M 0.484375 0 " fill-opacity="1" fill-rule="nonzero"/></g><g clip-path="url(#d97d8b2c1b)"><g clip-path="url(#91adcfa013)"><path fill="#ffe213" d="M 1.214844 0.730469 L 28.785156 0.730469 L 28.785156 28.300781 L 1.214844 28.300781 Z M 1.214844 0.730469 " fill-opacity="1" fill-rule="nonzero"/></g></g><g clip-path="url(#f0c620833f)"><g clip-path="url(#ad32e724fb)"><path fill="#ffffff" d="M 2.894531 2.414062 L 27.105469 2.414062 L 27.105469 26.621094 L 2.894531 26.621094 Z M 2.894531 2.414062 " fill-opacity="1" fill-rule="nonzero"/></g></g><g clip-path="url(#75b3d1f3cd)"><g clip-path="url(#0cf1625e2f)"><path fill="#ffe213" d="M 18.628906 15.769531 L 18.628906 10.484375 L 29.511719 10.484375 L 29.511719 15.769531 Z M 18.628906 15.769531 " fill-opacity="1" fill-rule="nonzero"/></g></g><g clip-path="url(#25a7b0123b)"><g clip-path="url(#9fc358c905)"><path fill="#ffe213" d="M 11.371094 10.929688 L 11.371094 16.214844 L 0.484375 16.214844 L 0.484375 10.929688 Z M 11.371094 10.929688 " fill-opacity="1" fill-rule="nonzero"/></g></g><g clip-path="url(#3de33f0d95)"><g clip-path="url(#0345e2f5d8)"><path fill="#ffe213" d="M 7.878906 7.394531 L 22.121094 7.394531 L 22.121094 21.636719 L 7.878906 21.636719 Z M 7.878906 7.394531 " fill-opacity="1" fill-rule="nonzero"/></g></g><g clip-path="url(#b66437769c)"><g clip-path="url(#2ce18e2ea3)"><g clip-path="url(#22bfe968ea)"><path fill="#000000" d="M 20.796875 9.996094 L 20.390625 11.246094 C 20.390625 11.246094 20.09375 11.394531 19.8125 11.410156 C 19.523438 11.421875 19.070312 11.328125 19.070312 11.328125 L 19.332031 9.398438 C 19.332031 9.398438 20.027344 9.488281 20.476562 9.515625 C 20.714844 9.53125 20.871094 9.769531 20.796875 9.996094 Z M 8.289062 14.992188 C 8.066406 15.023438 7.964844 15.542969 8.035156 15.617188 C 8.109375 15.691406 8.300781 15.976562 8.566406 15.957031 C 8.828125 15.9375 8.90625 15.25 8.90625 15.25 C 8.90625 15.25 8.421875 14.882812 8.289062 14.992188 Z M 8.289062 14.992188 " fill-opacity="1" fill-rule="nonzero"/></g></g></g><g clip-path="url(#d83da2b145)"><g clip-path="url(#2f436ae2d6)"><g clip-path="url(#6e63dbf8e5)"><path fill="#ffd64c" d="M 19.046875 16.945312 C 16.195312 19.5 10.710938 20.003906 8.597656 16.289062 L 8.285156 15.867188 C 8.363281 15.925781 8.460938 15.964844 8.5625 15.957031 C 8.796875 15.9375 8.886719 15.382812 8.902344 15.273438 C 8.945312 15.277344 8.988281 15.285156 9.035156 15.296875 C 9.953125 15.480469 12.625 16.414062 14.980469 15.179688 C 17.339844 13.941406 19.039062 11.359375 19.039062 11.359375 C 19.039062 11.359375 19.050781 11.347656 19.070312 11.328125 C 19.109375 11.335938 19.535156 11.421875 19.8125 11.410156 C 20.054688 11.398438 20.308594 11.285156 20.371094 11.257812 C 20.476562 11.480469 21.789062 14.492188 19.046875 16.945312 Z M 19.046875 16.945312 " fill-opacity="1" fill-rule="nonzero"/></g></g></g><g clip-path="url(#90899dc10c)"><g clip-path="url(#434fa22a0e)"><g clip-path="url(#2d5e9912de)"><path fill="#000000" d="M 13.011719 17.84375 C 13.011719 17.917969 12.96875 17.976562 12.882812 18.019531 C 12.8125 18.054688 12.722656 18.074219 12.632812 18.070312 C 12.566406 18.070312 12.507812 18.0625 12.453125 18.046875 C 12.332031 18.007812 12.25 17.929688 12.253906 17.835938 C 12.253906 17.765625 12.296875 17.703125 12.386719 17.660156 C 12.453125 17.625 12.542969 17.605469 12.636719 17.609375 C 12.726562 17.609375 12.816406 17.632812 12.886719 17.664062 C 12.96875 17.707031 13.011719 17.769531 13.011719 17.84375 Z M 16.515625 14.972656 C 16.511719 14.917969 16.550781 14.847656 16.589844 14.800781 C 16.617188 14.765625 16.644531 14.738281 16.667969 14.71875 C 16.734375 14.664062 16.785156 14.683594 16.804688 14.703125 C 16.839844 14.726562 16.875 14.789062 16.765625 14.933594 C 16.738281 14.96875 16.710938 14.996094 16.6875 15.015625 C 16.640625 15.054688 16.601562 15.054688 16.578125 15.046875 C 16.566406 15.042969 16.554688 15.039062 16.550781 15.035156 C 16.53125 15.015625 16.519531 14.996094 16.515625 14.972656 Z M 13.296875 18.242188 C 13.261719 18.265625 13.230469 18.289062 13.199219 18.300781 C 13.15625 18.316406 13.121094 18.316406 13.101562 18.308594 C 13.082031 18.300781 13.074219 18.289062 13.066406 18.277344 C 13.046875 18.257812 13.027344 18.207031 13.085938 18.140625 C 13.105469 18.117188 13.136719 18.089844 13.167969 18.0625 C 13.199219 18.039062 13.234375 18.019531 13.265625 18.007812 C 13.34375 17.972656 13.382812 18.007812 13.398438 18.03125 C 13.421875 18.066406 13.441406 18.136719 13.296875 18.242188 Z M 20.851562 13.132812 C 20.828125 12.1875 20.550781 11.476562 20.460938 11.269531 L 20.867188 10.015625 C 20.910156 9.882812 20.890625 9.746094 20.8125 9.632812 C 20.734375 9.515625 20.613281 9.445312 20.476562 9.4375 C 20.027344 9.40625 19.34375 9.316406 19.335938 9.316406 C 19.292969 9.3125 19.253906 9.34375 19.25 9.382812 L 18.988281 11.296875 C 18.984375 11.296875 18.980469 11.300781 18.980469 11.300781 C 18.976562 11.304688 18.976562 11.308594 18.972656 11.3125 C 18.957031 11.339844 17.257812 13.894531 14.941406 15.109375 C 12.925781 16.167969 10.695312 15.621094 9.5 15.324219 C 9.328125 15.28125 9.175781 15.242188 9.050781 15.21875 C 9.023438 15.214844 8.992188 15.210938 8.964844 15.203125 C 8.960938 15.199219 8.957031 15.195312 8.953125 15.191406 C 8.796875 15.074219 8.433594 14.820312 8.257812 14.921875 C 8.101562 14.957031 8.023438 15.140625 7.984375 15.25 C 7.941406 15.367188 7.898438 15.59375 7.980469 15.671875 C 7.988281 15.683594 8.003906 15.699219 8.019531 15.71875 C 8.070312 15.777344 8.140625 15.859375 8.234375 15.929688 L 8.535156 16.335938 C 9.203125 17.507812 10.234375 18.328125 11.546875 18.742188 C 11.835938 18.832031 12.136719 18.90625 12.453125 18.953125 C 13.578125 19.136719 14.804688 19.046875 16 18.695312 C 17.1875 18.34375 18.253906 17.761719 19.097656 17.003906 C 20.59375 15.667969 20.875 14.160156 20.851562 13.132812 Z M 19.398438 9.484375 C 19.589844 9.507812 20.109375 9.570312 20.472656 9.597656 C 20.5625 9.601562 20.636719 9.648438 20.691406 9.722656 C 20.742188 9.796875 20.753906 9.890625 20.726562 9.976562 L 20.332031 11.195312 C 20.273438 11.222656 20.136719 11.28125 19.980469 11.3125 C 20.1875 10.605469 20.207031 10.132812 20.207031 10.121094 C 20.207031 10.082031 20.171875 10.042969 20.128906 10.042969 C 20.089844 10.042969 20.050781 10.078125 20.050781 10.117188 C 20.050781 10.125 20.03125 10.617188 19.808594 11.335938 L 19.804688 11.332031 C 19.59375 11.34375 19.289062 11.292969 19.148438 11.269531 Z M 9.019531 15.367188 C 9.140625 15.390625 9.289062 15.429688 9.460938 15.472656 C 10.679688 15.773438 12.941406 16.332031 15.015625 15.246094 C 17.289062 14.058594 18.972656 11.597656 19.097656 11.410156 C 19.214844 11.429688 19.523438 11.488281 19.761719 11.484375 C 19.550781 12.117188 19.1875 12.902344 18.566406 13.699219 C 16.972656 15.738281 13.585938 18.710938 8.871094 15.71875 C 8.917969 15.59375 8.949219 15.457031 8.964844 15.359375 C 8.984375 15.363281 9 15.367188 9.019531 15.367188 Z M 8.140625 15.617188 C 8.121094 15.597656 8.109375 15.582031 8.09375 15.570312 C 8.078125 15.527344 8.09375 15.34375 8.175781 15.191406 C 8.210938 15.121094 8.257812 15.078125 8.300781 15.070312 C 8.3125 15.066406 8.324219 15.0625 8.335938 15.054688 C 8.378906 15.03125 8.59375 15.125 8.820312 15.292969 C 8.785156 15.542969 8.683594 15.878906 8.554688 15.886719 C 8.378906 15.898438 8.21875 15.714844 8.140625 15.617188 Z M 18.992188 16.890625 C 17.3125 18.398438 14.695312 19.167969 12.472656 18.804688 C 11.285156 18.609375 9.660156 18.007812 8.664062 16.253906 C 8.660156 16.246094 8.660156 16.246094 8.660156 16.242188 L 8.503906 16.03125 C 8.523438 16.035156 8.542969 16.035156 8.566406 16.035156 C 8.667969 16.027344 8.746094 15.957031 8.804688 15.859375 C 9.484375 16.289062 10.164062 16.609375 10.835938 16.824219 C 12.34375 17.300781 13.828125 17.222656 15.261719 16.589844 C 16.820312 15.898438 17.984375 14.6875 18.6875 13.789062 C 19.339844 12.953125 19.710938 12.128906 19.921875 11.472656 C 20.085938 11.445312 20.238281 11.394531 20.332031 11.355469 C 20.425781 11.578125 20.675781 12.265625 20.695312 13.140625 C 20.722656 14.140625 20.441406 15.59375 18.992188 16.890625 Z M 19.355469 14.4375 C 19.328125 14.554688 19.230469 14.636719 19.132812 14.613281 C 19.128906 14.609375 19.125 14.609375 19.121094 14.609375 C 19.027344 14.578125 18.976562 14.476562 19.003906 14.359375 C 19.027344 14.242188 19.125 14.160156 19.222656 14.183594 C 19.324219 14.207031 19.378906 14.316406 19.355469 14.4375 Z M 15.152344 17.390625 C 15.175781 17.4375 15.175781 17.492188 15.15625 17.546875 C 15.132812 17.589844 15.097656 17.628906 15.050781 17.65625 C 14.988281 17.695312 14.921875 17.703125 14.867188 17.683594 C 14.828125 17.671875 14.792969 17.644531 14.773438 17.613281 C 14.75 17.566406 14.746094 17.511719 14.769531 17.457031 C 14.789062 17.414062 14.828125 17.371094 14.875 17.34375 C 14.976562 17.28125 15.101562 17.300781 15.152344 17.390625 Z M 15.152344 17.390625 " fill-opacity="1" fill-rule="nonzero"/></g></g></g><g fill="#000000" fill-opacity="1"><g transform="translate(8.905157, 9.316922)"><g><path d="M 0.453125 -0.398438 C 0.5 -0.441406 0.542969 -0.492188 0.585938 -0.546875 C 0.691406 -0.703125 0.757812 -0.859375 0.777344 -1.007812 C 0.804688 -1.144531 0.792969 -1.273438 0.742188 -1.394531 C 0.703125 -1.488281 0.65625 -1.570312 0.589844 -1.640625 C 0.574219 -1.65625 0.558594 -1.675781 0.542969 -1.683594 C 0.449219 -1.765625 0.347656 -1.832031 0.242188 -1.867188 L 0.230469 -1.875 C 0.0820312 -1.921875 -0.101562 -1.925781 -0.292969 -1.890625 C -0.257812 -2.042969 -0.246094 -2.179688 -0.269531 -2.300781 L -0.277344 -2.3125 C -0.300781 -2.417969 -0.351562 -2.515625 -0.414062 -2.59375 C -0.421875 -2.613281 -0.441406 -2.628906 -0.457031 -2.644531 C -0.511719 -2.703125 -0.585938 -2.753906 -0.667969 -2.785156 C -0.773438 -2.832031 -0.894531 -2.839844 -1.03125 -2.820312 C -1.167969 -2.796875 -1.324219 -2.734375 -1.484375 -2.636719 C -1.542969 -2.597656 -1.59375 -2.558594 -1.640625 -2.511719 C -1.691406 -2.464844 -1.730469 -2.417969 -1.765625 -2.367188 C -1.792969 -2.316406 -1.8125 -2.265625 -1.808594 -2.21875 C -1.8125 -2.175781 -1.800781 -2.128906 -1.773438 -2.097656 L -1.734375 -2.058594 L -1.675781 -1.996094 C -1.65625 -1.972656 -1.636719 -1.945312 -1.609375 -1.917969 L -1.4375 -1.734375 C -1.402344 -1.695312 -1.367188 -1.664062 -1.332031 -1.628906 L -1.316406 -1.613281 C -1.21875 -1.503906 -1.117188 -1.40625 -1.019531 -1.300781 C -0.972656 -1.25 -0.910156 -1.191406 -0.847656 -1.125 L -0.828125 -1.105469 C -0.757812 -1.03125 -0.679688 -0.953125 -0.605469 -0.871094 C -0.527344 -0.792969 -0.457031 -0.714844 -0.386719 -0.636719 C -0.363281 -0.613281 -0.335938 -0.585938 -0.3125 -0.550781 C -0.273438 -0.503906 -0.234375 -0.460938 -0.195312 -0.417969 L -0.148438 -0.367188 C -0.0820312 -0.296875 -0.0117188 -0.253906 0.0507812 -0.234375 C 0.128906 -0.207031 0.21875 -0.203125 0.277344 -0.261719 L 0.300781 -0.28125 C 0.351562 -0.3125 0.402344 -0.347656 0.453125 -0.398438 Z M -0.757812 -1.800781 C -0.769531 -1.808594 -0.78125 -1.828125 -0.792969 -1.839844 L -0.796875 -1.84375 C -0.800781 -1.851562 -0.816406 -1.863281 -0.820312 -1.875 L -0.839844 -1.898438 C -0.890625 -1.953125 -0.949219 -2.019531 -1.003906 -2.078125 C -1.078125 -2.15625 -1.167969 -2.234375 -1.242188 -2.308594 L -1.261719 -2.332031 C -1.273438 -2.34375 -1.28125 -2.359375 -1.285156 -2.367188 C -1.300781 -2.390625 -1.296875 -2.402344 -1.292969 -2.417969 C -1.285156 -2.421875 -1.285156 -2.425781 -1.285156 -2.425781 C -1.265625 -2.445312 -1.242188 -2.457031 -1.207031 -2.476562 C -1.027344 -2.546875 -0.859375 -2.53125 -0.734375 -2.425781 L -0.695312 -2.386719 C -0.660156 -2.347656 -0.636719 -2.3125 -0.613281 -2.261719 C -0.566406 -2.15625 -0.550781 -2.035156 -0.574219 -1.898438 C -0.589844 -1.84375 -0.601562 -1.808594 -0.609375 -1.789062 C -0.640625 -1.773438 -0.667969 -1.757812 -0.691406 -1.742188 L -0.710938 -1.753906 C -0.730469 -1.769531 -0.742188 -1.785156 -0.757812 -1.800781 Z M 0.214844 -0.785156 L 0.199219 -0.804688 C 0.113281 -0.894531 0.0351562 -0.992188 -0.0507812 -1.082031 C -0.117188 -1.152344 -0.183594 -1.214844 -0.246094 -1.28125 L -0.265625 -1.304688 C -0.277344 -1.3125 -0.292969 -1.328125 -0.300781 -1.335938 L -0.300781 -1.339844 C -0.3125 -1.351562 -0.335938 -1.367188 -0.347656 -1.382812 C -0.367188 -1.402344 -0.382812 -1.417969 -0.394531 -1.4375 C -0.40625 -1.453125 -0.417969 -1.488281 -0.398438 -1.511719 L -0.394531 -1.515625 C -0.386719 -1.523438 -0.351562 -1.554688 -0.222656 -1.578125 C -0.0664062 -1.597656 0.0703125 -1.574219 0.179688 -1.515625 C 0.234375 -1.488281 0.277344 -1.457031 0.320312 -1.414062 L 0.359375 -1.371094 C 0.46875 -1.222656 0.472656 -1.03125 0.382812 -0.835938 C 0.363281 -0.792969 0.347656 -0.769531 0.324219 -0.75 C 0.324219 -0.75 0.320312 -0.75 0.3125 -0.742188 C 0.296875 -0.734375 0.277344 -0.734375 0.261719 -0.746094 C 0.25 -0.753906 0.226562 -0.773438 0.214844 -0.785156 Z M 0.214844 -0.785156 "/></g></g></g><g fill="#000000" fill-opacity="1"><g transform="translate(10.153745, 8.127512)"><g><path d="M 0.84375 -0.484375 C 0.949219 -0.542969 1.027344 -0.617188 1.078125 -0.707031 C 1.144531 -0.820312 1.183594 -0.960938 1.1875 -1.113281 C 1.191406 -1.246094 1.171875 -1.394531 1.128906 -1.550781 L 1.128906 -1.554688 C 1.050781 -1.789062 0.957031 -2.011719 0.84375 -2.210938 C 0.761719 -2.359375 0.660156 -2.503906 0.539062 -2.652344 C 0.453125 -2.757812 0.363281 -2.851562 0.269531 -2.929688 C 0.15625 -3.019531 0.0390625 -3.082031 -0.078125 -3.117188 C -0.207031 -3.152344 -0.339844 -3.136719 -0.488281 -3.074219 C -0.515625 -3.0625 -0.546875 -3.046875 -0.574219 -3.03125 C -0.671875 -2.976562 -0.753906 -2.910156 -0.808594 -2.828125 C -0.886719 -2.726562 -0.929688 -2.605469 -0.945312 -2.453125 L -0.945312 -2.449219 C -0.957031 -2.253906 -0.921875 -2.058594 -0.839844 -1.839844 C -0.789062 -1.691406 -0.71875 -1.542969 -0.632812 -1.394531 C -0.601562 -1.347656 -0.570312 -1.296875 -0.535156 -1.242188 L -0.53125 -1.234375 C -0.40625 -1.039062 -0.277344 -0.878906 -0.144531 -0.75 C 0.0429688 -0.5625 0.210938 -0.449219 0.375 -0.40625 C 0.480469 -0.375 0.589844 -0.382812 0.703125 -0.425781 C 0.75 -0.4375 0.800781 -0.457031 0.84375 -0.484375 Z M -0.179688 -1.675781 C -0.203125 -1.71875 -0.230469 -1.761719 -0.25 -1.808594 C -0.351562 -2.007812 -0.417969 -2.179688 -0.453125 -2.328125 C -0.480469 -2.476562 -0.460938 -2.628906 -0.40625 -2.726562 C -0.386719 -2.757812 -0.363281 -2.78125 -0.335938 -2.796875 C -0.316406 -2.808594 -0.289062 -2.820312 -0.257812 -2.824219 C -0.15625 -2.832031 -0.0429688 -2.785156 0.078125 -2.671875 C 0.191406 -2.574219 0.308594 -2.425781 0.425781 -2.234375 C 0.460938 -2.1875 0.488281 -2.136719 0.515625 -2.089844 C 0.582031 -1.972656 0.648438 -1.851562 0.707031 -1.71875 C 0.769531 -1.582031 0.832031 -1.425781 0.863281 -1.316406 L 0.871094 -1.253906 C 0.886719 -1.15625 0.878906 -1.0625 0.855469 -0.976562 C 0.835938 -0.90625 0.804688 -0.859375 0.757812 -0.832031 C 0.753906 -0.832031 0.75 -0.828125 0.746094 -0.832031 L 0.734375 -0.824219 C 0.679688 -0.800781 0.597656 -0.820312 0.492188 -0.886719 C 0.359375 -0.96875 0.226562 -1.097656 0.09375 -1.265625 C -0.0078125 -1.398438 -0.0976562 -1.535156 -0.179688 -1.675781 Z M -0.179688 -1.675781 "/></g></g></g><g fill="#000000" fill-opacity="1"><g transform="translate(11.98294, 7.108127)"><g><path d="M 0.367188 -0.101562 L 0.410156 -0.113281 C 0.480469 -0.132812 0.53125 -0.171875 0.554688 -0.226562 C 0.582031 -0.289062 0.574219 -0.472656 0.53125 -0.625 L 0.414062 -1.046875 C 0.402344 -1.085938 0.386719 -1.125 0.378906 -1.164062 L 0.40625 -1.179688 L 0.480469 -1.078125 L 0.546875 -0.992188 L 0.597656 -0.917969 C 0.691406 -0.785156 0.753906 -0.683594 0.855469 -0.574219 C 0.964844 -0.453125 1.0625 -0.382812 1.160156 -0.367188 C 1.246094 -0.359375 1.382812 -0.355469 1.484375 -0.464844 L 1.5 -0.484375 C 1.53125 -0.515625 1.589844 -0.570312 1.519531 -0.667969 C 1.453125 -0.761719 1.417969 -0.746094 1.386719 -0.730469 C 1.34375 -0.695312 1.296875 -0.726562 1.246094 -0.769531 C 1.207031 -0.796875 1.167969 -0.839844 1.132812 -0.882812 C 1.101562 -0.929688 1.070312 -0.96875 1.050781 -1.007812 C 1.03125 -1.046875 0.964844 -1.152344 0.90625 -1.238281 C 0.890625 -1.269531 0.859375 -1.292969 0.839844 -1.324219 L 0.75 -1.460938 C 0.890625 -1.617188 0.988281 -1.789062 1.027344 -1.953125 L 1.027344 -1.964844 C 1.054688 -2.089844 1.050781 -2.21875 1.027344 -2.351562 C 1.027344 -2.375 1.019531 -2.398438 1.011719 -2.421875 C 0.984375 -2.523438 0.933594 -2.617188 0.867188 -2.699219 C 0.78125 -2.8125 0.664062 -2.898438 0.519531 -2.953125 C 0.371094 -3.015625 0.183594 -3.035156 -0.0234375 -3.027344 C -0.101562 -3.019531 -0.171875 -3.007812 -0.242188 -2.988281 C -0.316406 -2.96875 -0.378906 -2.941406 -0.433594 -2.90625 C -0.488281 -2.871094 -0.53125 -2.828125 -0.554688 -2.78125 C -0.574219 -2.734375 -0.589844 -2.679688 -0.574219 -2.625 L -0.550781 -2.53125 C -0.542969 -2.503906 -0.539062 -2.472656 -0.53125 -2.4375 L -0.464844 -2.195312 C -0.449219 -2.148438 -0.433594 -2.101562 -0.417969 -2.050781 L -0.414062 -2.027344 C -0.375 -1.890625 -0.332031 -1.757812 -0.296875 -1.621094 C -0.277344 -1.554688 -0.25 -1.472656 -0.226562 -1.386719 L -0.21875 -1.359375 C -0.191406 -1.257812 -0.15625 -1.15625 -0.128906 -1.050781 C -0.0976562 -0.945312 -0.0703125 -0.84375 -0.0429688 -0.738281 C -0.0351562 -0.707031 -0.0273438 -0.671875 -0.015625 -0.628906 C -0.00390625 -0.574219 0.0078125 -0.511719 0.0234375 -0.457031 L 0.0429688 -0.394531 C 0.0664062 -0.296875 0.105469 -0.230469 0.152344 -0.179688 C 0.210938 -0.125 0.289062 -0.0820312 0.367188 -0.101562 Z M 0.0585938 -2.285156 L 0.0585938 -2.289062 L 0.0078125 -2.496094 L -0.0078125 -2.550781 L -0.03125 -2.621094 C -0.03125 -2.636719 -0.0195312 -2.648438 -0.00390625 -2.660156 C 0.00390625 -2.664062 0.0078125 -2.667969 0.0078125 -2.667969 C 0.0390625 -2.675781 0.0664062 -2.675781 0.125 -2.679688 C 0.367188 -2.65625 0.550781 -2.539062 0.625 -2.359375 L 0.644531 -2.292969 C 0.660156 -2.230469 0.667969 -2.175781 0.664062 -2.105469 C 0.652344 -1.972656 0.597656 -1.828125 0.480469 -1.691406 C 0.378906 -1.589844 0.332031 -1.570312 0.316406 -1.566406 L 0.3125 -1.566406 C 0.289062 -1.558594 0.269531 -1.574219 0.257812 -1.589844 L 0.199219 -1.804688 C 0.183594 -1.859375 0.167969 -1.90625 0.152344 -1.957031 L 0.109375 -2.128906 C 0.09375 -2.179688 0.0703125 -2.230469 0.0585938 -2.285156 Z M 0.0585938 -2.285156 "/></g></g></g><g fill="#000000" fill-opacity="1"><g transform="translate(13.850152, 6.605294)"><g><path d="M 0.949219 -0.0351562 C 1.089844 -0.0390625 1.230469 -0.09375 1.359375 -0.199219 L 1.363281 -0.199219 C 1.558594 -0.371094 1.617188 -0.65625 1.632812 -0.773438 C 1.640625 -0.808594 1.640625 -0.847656 1.644531 -0.90625 L 1.640625 -0.917969 C 1.640625 -0.96875 1.632812 -1.011719 1.609375 -1.050781 C 1.578125 -1.097656 1.53125 -1.125 1.472656 -1.121094 L 1.46875 -1.121094 C 1.335938 -1.097656 1.316406 -0.964844 1.304688 -0.832031 C 1.285156 -0.667969 1.253906 -0.519531 1.125 -0.429688 C 1.089844 -0.414062 1.058594 -0.402344 1.03125 -0.402344 C 0.996094 -0.402344 0.960938 -0.410156 0.929688 -0.433594 C 0.804688 -0.539062 0.734375 -0.761719 0.703125 -0.886719 C 0.671875 -0.996094 0.648438 -1.140625 0.628906 -1.3125 C 0.613281 -1.402344 0.605469 -1.5 0.597656 -1.613281 C 0.597656 -1.695312 0.597656 -1.773438 0.597656 -1.851562 C 0.605469 -2.050781 0.636719 -2.214844 0.679688 -2.34375 C 0.734375 -2.480469 0.8125 -2.578125 0.90625 -2.625 L 0.9375 -2.636719 L 0.960938 -2.644531 L 0.964844 -2.644531 C 0.980469 -2.652344 1 -2.65625 1.015625 -2.65625 C 1.050781 -2.660156 1.074219 -2.648438 1.105469 -2.628906 L 1.140625 -2.589844 C 1.167969 -2.550781 1.195312 -2.492188 1.214844 -2.425781 C 1.253906 -2.289062 1.308594 -2.140625 1.441406 -2.125 L 1.445312 -2.125 C 1.476562 -2.125 1.539062 -2.136719 1.558594 -2.199219 C 1.570312 -2.238281 1.578125 -2.277344 1.574219 -2.316406 L 1.574219 -2.328125 C 1.574219 -2.375 1.570312 -2.410156 1.558594 -2.441406 C 1.507812 -2.65625 1.425781 -2.804688 1.316406 -2.886719 C 1.222656 -2.957031 1.089844 -2.996094 0.921875 -2.988281 C 0.890625 -2.988281 0.859375 -2.988281 0.816406 -2.980469 C 0.660156 -2.953125 0.527344 -2.882812 0.421875 -2.785156 C 0.324219 -2.691406 0.25 -2.570312 0.203125 -2.421875 C 0.152344 -2.273438 0.117188 -2.121094 0.105469 -1.980469 C 0.0898438 -1.847656 0.0859375 -1.683594 0.0898438 -1.496094 L 0.0898438 -1.449219 C 0.0976562 -1.277344 0.117188 -1.105469 0.152344 -0.910156 C 0.191406 -0.699219 0.257812 -0.519531 0.34375 -0.378906 C 0.441406 -0.222656 0.5625 -0.117188 0.707031 -0.0664062 C 0.78125 -0.0429688 0.867188 -0.03125 0.949219 -0.0351562 Z M 0.949219 -0.0351562 "/></g></g></g><g fill="#000000" fill-opacity="1"><g transform="translate(15.743523, 6.562246)"><g><path d="M 0.90625 0.167969 C 0.992188 0.183594 1.070312 0.195312 1.136719 0.203125 C 1.246094 0.214844 1.320312 0.195312 1.367188 0.148438 L 1.371094 0.144531 C 1.390625 0.113281 1.40625 0.0898438 1.410156 0.0625 C 1.417969 0.0351562 1.410156 0.00390625 1.402344 -0.0234375 C 1.402344 -0.0273438 1.398438 -0.0273438 1.398438 -0.0273438 C 1.378906 -0.0859375 1.335938 -0.125 1.261719 -0.140625 L 1.257812 -0.140625 L 1.15625 -0.152344 C 1.117188 -0.15625 1.082031 -0.160156 1.039062 -0.167969 C 1 -0.175781 0.964844 -0.183594 0.925781 -0.195312 C 0.824219 -0.238281 0.773438 -0.347656 0.78125 -0.511719 C 0.78125 -0.523438 0.78125 -0.53125 0.78125 -0.542969 C 0.789062 -0.609375 0.820312 -0.914062 0.824219 -0.945312 L 0.847656 -1.046875 C 0.859375 -1.109375 0.9375 -1.097656 1.003906 -1.085938 L 1.171875 -1.054688 C 1.199219 -1.046875 1.222656 -1.042969 1.246094 -1.039062 L 1.273438 -1.03125 C 1.382812 -1.011719 1.429688 -1.078125 1.457031 -1.125 C 1.46875 -1.140625 1.472656 -1.160156 1.472656 -1.171875 C 1.484375 -1.222656 1.476562 -1.265625 1.445312 -1.3125 L 1.441406 -1.316406 C 1.417969 -1.355469 1.367188 -1.367188 1.324219 -1.375 L 1.171875 -1.402344 C 1.160156 -1.40625 1.148438 -1.40625 1.136719 -1.40625 C 1.109375 -1.414062 1.085938 -1.417969 1.0625 -1.417969 L 1.019531 -1.425781 C 0.988281 -1.429688 0.972656 -1.4375 0.957031 -1.449219 L 0.957031 -1.453125 C 0.945312 -1.460938 0.9375 -1.484375 0.949219 -1.5625 C 0.957031 -1.582031 0.960938 -1.59375 0.964844 -1.613281 C 0.976562 -1.632812 0.976562 -1.652344 0.980469 -1.664062 L 0.980469 -1.667969 C 1.015625 -1.832031 1.0625 -1.996094 1.097656 -2.164062 L 1.101562 -2.199219 C 1.121094 -2.289062 1.160156 -2.34375 1.199219 -2.355469 C 1.238281 -2.363281 1.277344 -2.363281 1.328125 -2.351562 C 1.34375 -2.351562 1.363281 -2.34375 1.378906 -2.339844 L 1.519531 -2.3125 C 1.625 -2.292969 1.691406 -2.3125 1.738281 -2.347656 C 1.777344 -2.375 1.796875 -2.402344 1.804688 -2.4375 C 1.804688 -2.457031 1.808594 -2.46875 1.804688 -2.488281 C 1.796875 -2.65625 1.46875 -2.691406 1.304688 -2.71875 L 1.042969 -2.769531 C 0.988281 -2.78125 0.945312 -2.785156 0.90625 -2.785156 C 0.835938 -2.785156 0.78125 -2.761719 0.734375 -2.703125 C 0.695312 -2.65625 0.660156 -2.578125 0.636719 -2.457031 L 0.625 -2.40625 L 0.554688 -2.113281 C 0.496094 -1.859375 0.457031 -1.585938 0.40625 -1.316406 L 0.394531 -1.289062 C 0.34375 -1.027344 0.277344 -0.78125 0.273438 -0.550781 C 0.265625 -0.445312 0.261719 -0.320312 0.292969 -0.210938 C 0.328125 -0.101562 0.386719 -0.015625 0.480469 0.0429688 L 0.484375 0.0429688 C 0.570312 0.0859375 0.671875 0.121094 0.800781 0.144531 C 0.835938 0.15625 0.875 0.164062 0.90625 0.167969 Z M 0.90625 0.167969 "/></g></g></g><g fill="#000000" fill-opacity="1"><g transform="translate(17.427128, 6.906639)"><g><path d="M 0.765625 0.304688 L 0.835938 0.335938 C 0.867188 0.347656 0.910156 0.363281 0.953125 0.375 C 1.007812 0.394531 1.0625 0.398438 1.117188 0.386719 L 1.121094 0.390625 C 1.167969 0.375 1.203125 0.347656 1.222656 0.296875 L 1.234375 0.265625 C 1.246094 0.199219 1.226562 0.148438 1.175781 0.105469 C 1.144531 0.0859375 1.109375 0.0664062 1.066406 0.0507812 L 1.003906 0.0273438 C 0.972656 0.0117188 0.941406 -0.00390625 0.917969 -0.0195312 C 0.875 -0.0664062 0.863281 -0.144531 0.875 -0.257812 C 0.890625 -0.363281 0.929688 -0.480469 0.96875 -0.597656 L 0.980469 -0.628906 C 1.039062 -0.796875 1.101562 -0.957031 1.164062 -1.113281 C 1.253906 -1.335938 1.351562 -1.566406 1.46875 -1.8125 C 1.480469 -1.832031 1.585938 -2.039062 1.617188 -2.113281 C 1.644531 -2.179688 1.65625 -2.246094 1.648438 -2.308594 C 1.644531 -2.382812 1.601562 -2.4375 1.53125 -2.484375 L 1.527344 -2.488281 L 1.515625 -2.496094 C 1.496094 -2.507812 1.484375 -2.511719 1.46875 -2.519531 C 1.40625 -2.542969 1.355469 -2.550781 1.3125 -2.53125 C 1.195312 -2.480469 1.074219 -2.199219 0.953125 -1.941406 C 0.820312 -1.640625 0.710938 -1.382812 0.621094 -1.15625 L 0.609375 -1.132812 C 0.507812 -0.878906 0.4375 -0.644531 0.394531 -0.429688 C 0.347656 -0.214844 0.359375 -0.0507812 0.417969 0.0546875 C 0.46875 0.152344 0.585938 0.234375 0.765625 0.304688 Z M 0.765625 0.304688 "/></g></g></g><g fill="#000000" fill-opacity="1"><g transform="translate(18.788669, 7.470418)"><g><path d="M 0.695312 0.4375 L 0.761719 0.480469 C 0.792969 0.5 0.828125 0.523438 0.867188 0.542969 C 0.917969 0.570312 0.972656 0.585938 1.027344 0.582031 L 1.03125 0.585938 C 1.078125 0.582031 1.121094 0.558594 1.148438 0.515625 L 1.164062 0.484375 C 1.1875 0.421875 1.179688 0.371094 1.136719 0.316406 C 1.109375 0.289062 1.078125 0.269531 1.039062 0.242188 L 0.984375 0.207031 C 0.953125 0.1875 0.925781 0.167969 0.90625 0.144531 C 0.871094 0.09375 0.875 0.0117188 0.90625 -0.09375 C 0.941406 -0.195312 1 -0.304688 1.0625 -0.410156 L 1.082031 -0.441406 C 1.167969 -0.59375 1.253906 -0.742188 1.34375 -0.882812 C 1.472656 -1.085938 1.613281 -1.292969 1.773438 -1.515625 C 1.785156 -1.535156 1.925781 -1.714844 1.976562 -1.785156 C 2.015625 -1.847656 2.035156 -1.90625 2.042969 -1.972656 C 2.046875 -2.042969 2.019531 -2.105469 1.957031 -2.167969 L 1.953125 -2.167969 L 1.945312 -2.179688 C 1.925781 -2.195312 1.914062 -2.203125 1.898438 -2.210938 C 1.84375 -2.246094 1.792969 -2.261719 1.75 -2.25 C 1.625 -2.222656 1.453125 -1.96875 1.289062 -1.734375 C 1.105469 -1.464844 0.949219 -1.230469 0.820312 -1.023438 L 0.804688 -1.003906 C 0.660156 -0.773438 0.546875 -0.554688 0.46875 -0.351562 C 0.382812 -0.148438 0.363281 0.0117188 0.402344 0.128906 C 0.433594 0.234375 0.53125 0.335938 0.695312 0.4375 Z M 0.695312 0.4375 "/></g></g></g><g fill="#000000" fill-opacity="1"><g transform="translate(20.019694, 8.252619)"><g><path d="M 0.667969 0.632812 C 0.730469 0.695312 0.792969 0.746094 0.84375 0.789062 C 0.929688 0.855469 1 0.878906 1.070312 0.867188 C 1.105469 0.851562 1.132812 0.839844 1.148438 0.820312 C 1.167969 0.800781 1.183594 0.769531 1.1875 0.742188 C 1.191406 0.738281 1.1875 0.738281 1.1875 0.738281 C 1.207031 0.675781 1.1875 0.621094 1.136719 0.570312 L 1.132812 0.566406 L 1.054688 0.503906 C 1.023438 0.476562 0.996094 0.453125 0.964844 0.421875 C 0.933594 0.394531 0.910156 0.371094 0.882812 0.339844 C 0.820312 0.246094 0.839844 0.128906 0.933594 -0.00390625 C 0.941406 -0.015625 0.945312 -0.0234375 0.953125 -0.03125 C 0.992188 -0.0820312 1.183594 -0.320312 1.207031 -0.34375 L 1.28125 -0.417969 C 1.324219 -0.464844 1.386719 -0.410156 1.433594 -0.367188 L 1.558594 -0.25 C 1.574219 -0.226562 1.59375 -0.207031 1.609375 -0.195312 L 1.632812 -0.171875 C 1.710938 -0.0976562 1.785156 -0.125 1.835938 -0.152344 C 1.851562 -0.160156 1.867188 -0.171875 1.875 -0.183594 C 1.910156 -0.21875 1.929688 -0.257812 1.925781 -0.316406 L 1.925781 -0.320312 C 1.925781 -0.363281 1.890625 -0.40625 1.859375 -0.433594 L 1.746094 -0.539062 C 1.738281 -0.550781 1.726562 -0.554688 1.71875 -0.5625 C 1.699219 -0.582031 1.683594 -0.597656 1.664062 -0.609375 L 1.632812 -0.640625 C 1.609375 -0.664062 1.597656 -0.675781 1.59375 -0.691406 L 1.59375 -0.699219 C 1.589844 -0.710938 1.59375 -0.738281 1.648438 -0.796875 C 1.664062 -0.804688 1.675781 -0.816406 1.6875 -0.828125 C 1.707031 -0.839844 1.71875 -0.851562 1.730469 -0.863281 L 1.730469 -0.867188 C 1.851562 -0.984375 1.976562 -1.097656 2.097656 -1.21875 L 2.121094 -1.246094 C 2.1875 -1.308594 2.246094 -1.335938 2.285156 -1.324219 C 2.324219 -1.308594 2.355469 -1.289062 2.394531 -1.253906 C 2.40625 -1.238281 2.417969 -1.222656 2.429688 -1.214844 L 2.535156 -1.113281 C 2.609375 -1.042969 2.675781 -1.019531 2.734375 -1.023438 C 2.78125 -1.023438 2.8125 -1.039062 2.839844 -1.066406 C 2.851562 -1.078125 2.859375 -1.085938 2.867188 -1.105469 C 2.949219 -1.25 2.695312 -1.457031 2.574219 -1.574219 L 2.382812 -1.757812 C 2.339844 -1.792969 2.308594 -1.820312 2.277344 -1.839844 C 2.21875 -1.882812 2.160156 -1.894531 2.085938 -1.871094 C 2.027344 -1.851562 1.957031 -1.800781 1.871094 -1.714844 L 1.835938 -1.679688 L 1.613281 -1.472656 C 1.425781 -1.292969 1.246094 -1.082031 1.054688 -0.886719 L 1.035156 -0.867188 C 0.847656 -0.675781 0.660156 -0.503906 0.527344 -0.3125 C 0.464844 -0.226562 0.394531 -0.125 0.359375 -0.0195312 C 0.328125 0.09375 0.332031 0.195312 0.382812 0.296875 L 0.382812 0.300781 C 0.429688 0.382812 0.496094 0.464844 0.59375 0.558594 C 0.617188 0.585938 0.644531 0.613281 0.667969 0.632812 Z M 0.667969 0.632812 "/></g></g></g><g fill="#000000" fill-opacity="1"><g transform="translate(4.588603, 17.738976)"><g><path d="M 0.234375 0.554688 C 0.261719 0.613281 0.292969 0.671875 0.332031 0.730469 C 0.445312 0.878906 0.574219 0.988281 0.710938 1.054688 C 0.828125 1.125 0.957031 1.15625 1.085938 1.144531 C 1.1875 1.140625 1.28125 1.121094 1.367188 1.082031 C 1.386719 1.070312 1.410156 1.0625 1.425781 1.050781 C 1.53125 0.988281 1.625 0.914062 1.691406 0.820312 L 1.703125 0.8125 C 1.796875 0.691406 1.859375 0.515625 1.886719 0.324219 C 2.019531 0.40625 2.148438 0.460938 2.265625 0.476562 L 2.28125 0.472656 C 2.386719 0.484375 2.496094 0.46875 2.59375 0.433594 C 2.609375 0.429688 2.632812 0.417969 2.652344 0.410156 C 2.726562 0.375 2.796875 0.320312 2.855469 0.253906 C 2.929688 0.164062 2.980469 0.0546875 3 -0.078125 C 3.023438 -0.21875 3.015625 -0.386719 2.972656 -0.566406 C 2.953125 -0.636719 2.929688 -0.699219 2.902344 -0.757812 C 2.875 -0.820312 2.84375 -0.875 2.804688 -0.921875 C 2.765625 -0.960938 2.726562 -0.996094 2.679688 -1.011719 C 2.640625 -1.023438 2.59375 -1.03125 2.554688 -1.011719 L 2.503906 -0.988281 L 2.425781 -0.953125 C 2.394531 -0.945312 2.363281 -0.933594 2.328125 -0.917969 L 2.101562 -0.8125 C 2.054688 -0.789062 2.011719 -0.765625 1.964844 -0.746094 L 1.945312 -0.734375 C 1.816406 -0.675781 1.6875 -0.613281 1.558594 -0.550781 C 1.496094 -0.523438 1.417969 -0.484375 1.339844 -0.445312 L 1.3125 -0.433594 C 1.21875 -0.390625 1.117188 -0.339844 1.019531 -0.292969 C 0.921875 -0.25 0.824219 -0.203125 0.726562 -0.164062 C 0.695312 -0.148438 0.660156 -0.132812 0.621094 -0.121094 C 0.566406 -0.0976562 0.511719 -0.0742188 0.457031 -0.0507812 L 0.394531 -0.0234375 C 0.308594 0.015625 0.242188 0.0664062 0.203125 0.121094 C 0.15625 0.1875 0.125 0.269531 0.160156 0.347656 L 0.171875 0.375 C 0.183594 0.433594 0.203125 0.492188 0.234375 0.554688 Z M 1.945312 -0.144531 C 1.960938 -0.152344 1.980469 -0.15625 1.996094 -0.164062 L 2 -0.167969 C 2.011719 -0.171875 2.027344 -0.179688 2.039062 -0.179688 L 2.066406 -0.191406 C 2.136719 -0.226562 2.214844 -0.257812 2.289062 -0.292969 C 2.386719 -0.339844 2.488281 -0.398438 2.585938 -0.441406 L 2.609375 -0.453125 C 2.628906 -0.460938 2.640625 -0.464844 2.652344 -0.464844 C 2.679688 -0.472656 2.691406 -0.464844 2.703125 -0.457031 C 2.707031 -0.449219 2.710938 -0.445312 2.710938 -0.445312 C 2.722656 -0.425781 2.726562 -0.398438 2.730469 -0.355469 C 2.742188 -0.164062 2.671875 -0.0078125 2.535156 0.0742188 L 2.484375 0.0976562 C 2.4375 0.121094 2.394531 0.132812 2.339844 0.136719 C 2.222656 0.152344 2.105469 0.125 1.980469 0.0585938 C 1.933594 0.0273438 1.90625 0.00390625 1.890625 -0.0117188 C 1.886719 -0.046875 1.878906 -0.0742188 1.871094 -0.0976562 L 1.890625 -0.117188 C 1.910156 -0.128906 1.925781 -0.136719 1.945312 -0.144531 Z M 0.675781 0.453125 L 0.699219 0.441406 C 0.8125 0.390625 0.929688 0.347656 1.042969 0.296875 C 1.128906 0.257812 1.210938 0.214844 1.292969 0.175781 L 1.324219 0.164062 C 1.332031 0.15625 1.351562 0.144531 1.359375 0.140625 L 1.363281 0.140625 C 1.382812 0.132812 1.402344 0.117188 1.421875 0.109375 C 1.445312 0.0976562 1.464844 0.0898438 1.488281 0.0820312 C 1.507812 0.078125 1.542969 0.078125 1.5625 0.105469 L 1.5625 0.109375 C 1.566406 0.117188 1.582031 0.164062 1.566406 0.289062 C 1.539062 0.445312 1.46875 0.566406 1.382812 0.652344 C 1.335938 0.699219 1.292969 0.726562 1.238281 0.75 L 1.183594 0.777344 C 1.011719 0.832031 0.828125 0.777344 0.667969 0.628906 C 0.636719 0.597656 0.617188 0.574219 0.605469 0.546875 C 0.605469 0.546875 0.609375 0.542969 0.601562 0.53125 C 0.605469 0.515625 0.605469 0.496094 0.625 0.484375 C 0.636719 0.476562 0.660156 0.460938 0.675781 0.453125 Z M 0.675781 0.453125 "/></g></g></g><g fill="#000000" fill-opacity="1"><g transform="translate(5.595314, 19.780438)"><g><path d="M 0.230469 0.300781 C 0.285156 0.371094 0.355469 0.414062 0.433594 0.421875 C 0.5 0.425781 0.574219 0.402344 0.65625 0.355469 C 0.773438 0.285156 0.886719 0.222656 0.996094 0.160156 L 1.433594 0.613281 C 1.332031 0.714844 1.210938 0.832031 1.0625 0.964844 C 1.023438 1.007812 0.996094 1.050781 0.980469 1.097656 C 0.964844 1.144531 0.972656 1.1875 1.003906 1.226562 L 1.027344 1.253906 C 1.097656 1.308594 1.171875 1.316406 1.25 1.273438 C 1.289062 1.257812 1.320312 1.238281 1.355469 1.210938 C 1.378906 1.191406 1.394531 1.179688 1.414062 1.160156 L 1.507812 1.070312 C 1.785156 0.808594 2.125 0.480469 2.40625 0.15625 C 2.75 -0.234375 2.929688 -0.53125 2.957031 -0.753906 C 2.960938 -0.871094 2.941406 -0.953125 2.890625 -1.019531 C 2.878906 -1.03125 2.867188 -1.046875 2.855469 -1.058594 C 2.78125 -1.128906 2.683594 -1.152344 2.546875 -1.132812 C 2.289062 -1.074219 1.949219 -0.9375 1.496094 -0.707031 C 1.117188 -0.519531 0.726562 -0.296875 0.359375 -0.0859375 C 0.335938 -0.0742188 0.3125 -0.0585938 0.296875 -0.0429688 C 0.246094 -0.0078125 0.214844 0.03125 0.195312 0.0742188 C 0.15625 0.160156 0.191406 0.242188 0.230469 0.300781 Z M 1.308594 -0.0078125 C 1.699219 -0.21875 2.21875 -0.476562 2.519531 -0.621094 L 2.527344 -0.617188 C 2.523438 -0.609375 2.519531 -0.597656 2.503906 -0.570312 C 2.371094 -0.347656 1.941406 0.0976562 1.683594 0.363281 L 1.667969 0.378906 Z M 1.308594 -0.0078125 "/></g></g></g><g fill="#000000" fill-opacity="1"><g transform="translate(7.262672, 21.818205)"><g><path d="M 0.300781 0.242188 L 0.300781 0.246094 C 0.433594 0.351562 0.5625 0.34375 0.683594 0.230469 C 0.710938 0.203125 0.742188 0.175781 0.769531 0.136719 C 0.785156 0.121094 0.800781 0.101562 0.8125 0.078125 C 0.984375 -0.148438 1.335938 -0.59375 1.5625 -0.871094 L 1.648438 -0.980469 C 1.558594 -0.707031 1.445312 -0.359375 1.429688 -0.308594 C 1.394531 -0.171875 1.347656 -0.0195312 1.285156 0.148438 L 1.285156 0.152344 L 1.277344 0.175781 C 1.277344 0.175781 1.277344 0.175781 1.277344 0.183594 L 1.09375 0.667969 C 1.042969 0.800781 1.039062 0.875 1.191406 0.964844 L 1.246094 1.007812 C 1.316406 1.066406 1.4375 0.949219 1.472656 0.925781 C 1.546875 0.867188 1.609375 0.78125 1.683594 0.695312 C 1.796875 0.5625 1.921875 0.414062 2.054688 0.25 L 2.179688 0.0976562 C 2.320312 -0.078125 2.472656 -0.285156 2.617188 -0.488281 C 2.65625 -0.535156 2.695312 -0.589844 2.730469 -0.640625 C 2.765625 -0.6875 2.875 -0.824219 2.914062 -0.875 L 2.972656 -0.945312 C 2.992188 -0.972656 3.011719 -1 3.035156 -1.027344 C 3.066406 -1.078125 3.089844 -1.121094 3.09375 -1.160156 C 3.097656 -1.214844 3.082031 -1.257812 3.039062 -1.289062 C 2.902344 -1.402344 2.8125 -1.359375 2.757812 -1.296875 C 2.746094 -1.285156 2.734375 -1.273438 2.71875 -1.253906 C 2.710938 -1.242188 2.703125 -1.226562 2.6875 -1.210938 L 2.683594 -1.203125 C 2.539062 -1.027344 2.371094 -0.726562 2.230469 -0.554688 L 2.230469 -0.550781 C 2.117188 -0.414062 2.007812 -0.285156 1.773438 0.00390625 L 1.765625 0.015625 C 1.738281 0.046875 1.6875 0.117188 1.660156 0.144531 C 1.832031 -0.398438 2.089844 -1.128906 2.121094 -1.234375 L 2.136719 -1.296875 C 2.148438 -1.324219 2.164062 -1.359375 2.175781 -1.394531 L 2.183594 -1.417969 C 2.25 -1.617188 2.324219 -1.84375 2.148438 -1.996094 C 2.039062 -2.082031 1.917969 -2.074219 1.796875 -1.96875 C 1.761719 -1.933594 1.726562 -1.898438 1.699219 -1.863281 L 1.507812 -1.628906 L 1.234375 -1.285156 C 1.128906 -1.152344 0.847656 -0.796875 0.726562 -0.648438 C 0.636719 -0.535156 0.542969 -0.417969 0.449219 -0.3125 C 0.433594 -0.296875 0.417969 -0.277344 0.402344 -0.257812 C 0.382812 -0.238281 0.359375 -0.214844 0.339844 -0.1875 C 0.320312 -0.164062 0.300781 -0.140625 0.28125 -0.109375 C 0.191406 0.0234375 0.191406 0.152344 0.300781 0.242188 Z M 0.300781 0.242188 "/></g></g></g><g fill="#000000" fill-opacity="1"><g transform="translate(9.33565, 23.394544)"><g><path d="M 0.339844 0.164062 C 0.425781 0.203125 0.503906 0.210938 0.578125 0.179688 C 0.636719 0.152344 0.695312 0.0976562 0.746094 0.015625 C 0.816406 -0.0976562 0.890625 -0.207031 0.960938 -0.3125 L 1.554688 -0.105469 C 1.511719 0.03125 1.453125 0.191406 1.386719 0.375 C 1.367188 0.429688 1.363281 0.480469 1.371094 0.535156 C 1.378906 0.582031 1.40625 0.613281 1.453125 0.636719 L 1.484375 0.652344 C 1.570312 0.664062 1.644531 0.640625 1.695312 0.566406 C 1.71875 0.535156 1.738281 0.503906 1.757812 0.464844 C 1.769531 0.4375 1.777344 0.417969 1.789062 0.390625 L 1.828125 0.269531 C 1.957031 -0.0898438 2.113281 -0.535156 2.214844 -0.957031 C 2.34375 -1.460938 2.367188 -1.804688 2.292969 -2.019531 C 2.242188 -2.121094 2.183594 -2.183594 2.109375 -2.222656 C 2.097656 -2.226562 2.082031 -2.234375 2.0625 -2.238281 C 1.964844 -2.269531 1.867188 -2.246094 1.753906 -2.164062 C 1.550781 -2 1.3125 -1.722656 1.007812 -1.308594 C 0.757812 -0.96875 0.511719 -0.597656 0.28125 -0.242188 C 0.265625 -0.214844 0.253906 -0.195312 0.246094 -0.175781 C 0.21875 -0.117188 0.207031 -0.0703125 0.207031 -0.0234375 C 0.210938 0.0742188 0.28125 0.128906 0.339844 0.164062 Z M 1.164062 -0.601562 C 1.414062 -0.96875 1.757812 -1.433594 1.960938 -1.699219 L 1.96875 -1.699219 C 1.96875 -1.691406 1.972656 -1.679688 1.96875 -1.648438 C 1.953125 -1.386719 1.773438 -0.796875 1.664062 -0.441406 L 1.660156 -0.421875 Z M 1.164062 -0.601562 "/></g></g></g><g fill="#000000" fill-opacity="1"><g transform="translate(11.747062, 24.451852)"><g><path d="M 0.378906 0.0820312 L 0.382812 0.0820312 C 0.546875 0.117188 0.660156 0.0507812 0.714844 -0.105469 C 0.726562 -0.144531 0.738281 -0.183594 0.75 -0.226562 C 0.753906 -0.25 0.757812 -0.273438 0.761719 -0.300781 C 0.808594 -0.582031 0.917969 -1.136719 0.992188 -1.488281 L 1.023438 -1.621094 C 1.066406 -1.335938 1.125 -0.976562 1.132812 -0.925781 C 1.164062 -0.789062 1.191406 -0.628906 1.214844 -0.453125 L 1.210938 -0.449219 L 1.21875 -0.425781 C 1.21875 -0.421875 1.21875 -0.421875 1.222656 -0.417969 L 1.277344 0.0976562 C 1.292969 0.238281 1.324219 0.308594 1.5 0.320312 L 1.566406 0.332031 C 1.65625 0.351562 1.710938 0.191406 1.730469 0.15625 C 1.773438 0.0664062 1.789062 -0.0351562 1.816406 -0.148438 C 1.859375 -0.316406 1.902344 -0.503906 1.945312 -0.710938 L 1.988281 -0.902344 C 2.035156 -1.125 2.074219 -1.378906 2.109375 -1.625 C 2.125 -1.6875 2.132812 -1.75 2.144531 -1.8125 C 2.152344 -1.871094 2.183594 -2.042969 2.195312 -2.101562 L 2.214844 -2.195312 C 2.222656 -2.226562 2.230469 -2.257812 2.234375 -2.296875 C 2.242188 -2.351562 2.242188 -2.402344 2.226562 -2.4375 C 2.207031 -2.492188 2.175781 -2.519531 2.121094 -2.53125 C 1.949219 -2.566406 1.886719 -2.488281 1.867188 -2.410156 C 1.859375 -2.394531 1.855469 -2.375 1.851562 -2.355469 C 1.847656 -2.339844 1.847656 -2.320312 1.84375 -2.300781 L 1.84375 -2.292969 C 1.796875 -2.066406 1.78125 -1.726562 1.734375 -1.507812 L 1.734375 -1.503906 C 1.699219 -1.328125 1.660156 -1.167969 1.582031 -0.804688 L 1.578125 -0.789062 C 1.570312 -0.75 1.554688 -0.664062 1.542969 -0.625 C 1.453125 -1.1875 1.351562 -1.953125 1.328125 -2.0625 L 1.316406 -2.125 C 1.3125 -2.15625 1.308594 -2.195312 1.304688 -2.230469 L 1.296875 -2.253906 C 1.269531 -2.464844 1.234375 -2.699219 1.007812 -2.753906 C 0.871094 -2.78125 0.765625 -2.71875 0.707031 -2.570312 C 0.6875 -2.523438 0.675781 -2.472656 0.664062 -2.429688 L 0.601562 -2.136719 L 0.515625 -1.707031 C 0.480469 -1.539062 0.394531 -1.097656 0.351562 -0.90625 C 0.324219 -0.765625 0.292969 -0.621094 0.257812 -0.480469 C 0.25 -0.460938 0.246094 -0.4375 0.242188 -0.414062 C 0.230469 -0.386719 0.222656 -0.355469 0.21875 -0.324219 C 0.210938 -0.292969 0.203125 -0.261719 0.199219 -0.226562 C 0.179688 -0.0664062 0.238281 0.0507812 0.378906 0.0820312 Z M 0.378906 0.0820312 "/></g></g></g><g fill="#000000" fill-opacity="1"><g transform="translate(14.310002, 24.91364)"><g><path d="M 0.378906 -0.0117188 C 0.46875 -0.0117188 0.546875 -0.0429688 0.59375 -0.101562 C 0.636719 -0.15625 0.664062 -0.230469 0.671875 -0.324219 C 0.683594 -0.457031 0.699219 -0.585938 0.714844 -0.714844 L 1.335938 -0.800781 C 1.359375 -0.660156 1.382812 -0.492188 1.40625 -0.296875 C 1.414062 -0.238281 1.433594 -0.191406 1.464844 -0.148438 C 1.496094 -0.109375 1.53125 -0.0898438 1.582031 -0.09375 L 1.617188 -0.09375 C 1.703125 -0.121094 1.753906 -0.175781 1.765625 -0.265625 C 1.773438 -0.304688 1.777344 -0.34375 1.773438 -0.386719 C 1.773438 -0.414062 1.773438 -0.4375 1.769531 -0.464844 L 1.75 -0.59375 C 1.703125 -0.96875 1.636719 -1.4375 1.539062 -1.859375 C 1.425781 -2.367188 1.289062 -2.683594 1.125 -2.839844 C 1.035156 -2.910156 0.953125 -2.941406 0.871094 -2.9375 C 0.855469 -2.9375 0.835938 -2.9375 0.820312 -2.933594 C 0.71875 -2.914062 0.640625 -2.847656 0.578125 -2.726562 C 0.472656 -2.484375 0.382812 -2.128906 0.304688 -1.625 C 0.234375 -1.207031 0.183594 -0.761719 0.140625 -0.34375 C 0.136719 -0.3125 0.136719 -0.289062 0.140625 -0.265625 C 0.140625 -0.203125 0.152344 -0.15625 0.175781 -0.113281 C 0.222656 -0.03125 0.308594 -0.0117188 0.378906 -0.0117188 Z M 0.761719 -1.066406 C 0.820312 -1.503906 0.914062 -2.074219 0.976562 -2.40625 L 0.980469 -2.410156 C 0.984375 -2.402344 0.992188 -2.390625 1.003906 -2.363281 C 1.109375 -2.125 1.21875 -1.515625 1.28125 -1.148438 L 1.285156 -1.128906 Z M 0.761719 -1.066406 "/></g></g></g><g fill="#000000" fill-opacity="1"><g transform="translate(16.887432, 24.742642)"><g/></g></g><g fill="#000000" fill-opacity="1"><g transform="translate(18.614884, 24.300934)"><g><path d="M 0.359375 -0.148438 L 0.375 -0.15625 C 0.476562 -0.207031 0.53125 -0.277344 0.53125 -0.375 C 0.53125 -0.460938 0.515625 -0.535156 0.484375 -0.605469 L 0.472656 -0.640625 C 0.425781 -0.742188 0.390625 -0.828125 0.363281 -0.894531 L 0.359375 -0.898438 C 0.34375 -0.925781 0.328125 -0.96875 0.3125 -1.007812 C 0.296875 -1.042969 0.277344 -1.078125 0.261719 -1.113281 L 0.207031 -1.246094 C 0.203125 -1.261719 0.191406 -1.289062 0.175781 -1.316406 L 0.148438 -1.386719 C 0.113281 -1.464844 0.117188 -1.496094 0.121094 -1.5 C 0.140625 -1.527344 0.171875 -1.550781 0.21875 -1.570312 L 0.238281 -1.578125 C 0.253906 -1.582031 0.269531 -1.589844 0.292969 -1.597656 C 0.320312 -1.601562 0.34375 -1.613281 0.363281 -1.621094 C 0.410156 -1.640625 0.445312 -1.660156 0.484375 -1.683594 C 0.550781 -1.726562 0.566406 -1.800781 0.53125 -1.878906 L 0.527344 -1.894531 C 0.488281 -1.957031 0.4375 -1.988281 0.375 -1.980469 C 0.335938 -1.976562 0.300781 -1.96875 0.257812 -1.953125 C 0.25 -1.949219 0.230469 -1.941406 0.214844 -1.929688 L 0.191406 -1.917969 C 0.175781 -1.914062 0.160156 -1.90625 0.136719 -1.890625 L 0.0390625 -1.847656 C 0.0351562 -1.851562 0.03125 -1.851562 0.03125 -1.851562 C 0.0078125 -1.839844 -0.015625 -1.847656 -0.0390625 -1.859375 C -0.0507812 -1.878906 -0.0703125 -1.921875 -0.09375 -1.972656 L -0.195312 -2.21875 C -0.203125 -2.242188 -0.214844 -2.265625 -0.226562 -2.289062 L -0.296875 -2.457031 C -0.320312 -2.515625 -0.335938 -2.566406 -0.335938 -2.597656 C -0.332031 -2.625 -0.308594 -2.652344 -0.265625 -2.671875 L -0.261719 -2.675781 C -0.234375 -2.691406 -0.207031 -2.699219 -0.179688 -2.714844 C -0.15625 -2.722656 -0.128906 -2.734375 -0.101562 -2.742188 C -0.0742188 -2.75 -0.0546875 -2.757812 -0.0351562 -2.765625 L -0.03125 -2.765625 C 0.015625 -2.785156 0.0546875 -2.816406 0.0742188 -2.855469 C 0.09375 -2.898438 0.0976562 -2.9375 0.078125 -2.988281 L 0.0664062 -3.011719 C 0.0664062 -3.015625 0.0664062 -3.019531 0.0585938 -3.019531 C 0.0273438 -3.074219 -0.03125 -3.105469 -0.0898438 -3.097656 L -0.09375 -3.097656 C -0.125 -3.089844 -0.160156 -3.085938 -0.191406 -3.070312 C -0.207031 -3.066406 -0.222656 -3.058594 -0.238281 -3.046875 L -0.273438 -3.03125 C -0.324219 -3.011719 -0.382812 -2.988281 -0.453125 -2.960938 C -0.515625 -2.941406 -0.570312 -2.917969 -0.621094 -2.894531 C -0.691406 -2.867188 -0.753906 -2.835938 -0.808594 -2.8125 C -0.804688 -2.808594 -0.808594 -2.808594 -0.8125 -2.804688 C -0.882812 -2.75 -0.90625 -2.675781 -0.890625 -2.582031 C -0.875 -2.515625 -0.863281 -2.460938 -0.839844 -2.40625 C -0.824219 -2.367188 -0.769531 -2.234375 -0.671875 -2.015625 C -0.570312 -1.769531 -0.421875 -1.414062 -0.230469 -0.957031 L -0.0507812 -0.515625 L -0.0273438 -0.457031 C -0.0195312 -0.425781 -0.0117188 -0.40625 0 -0.378906 C 0.0117188 -0.347656 0.0273438 -0.3125 0.046875 -0.277344 C 0.0742188 -0.222656 0.117188 -0.175781 0.167969 -0.144531 C 0.21875 -0.113281 0.28125 -0.117188 0.359375 -0.148438 Z M 0.359375 -0.148438 "/></g></g></g><g fill="#000000" fill-opacity="1"><g transform="translate(20.432133, 23.501814)"><g><path d="M 0.316406 -0.214844 L 0.351562 -0.238281 C 0.414062 -0.277344 0.449219 -0.328125 0.457031 -0.390625 C 0.460938 -0.460938 0.398438 -0.628906 0.308594 -0.761719 L 0.0625 -1.125 C 0.0429688 -1.15625 0.015625 -1.191406 -0.0078125 -1.222656 L 0.015625 -1.25 L 0.117188 -1.175781 L 0.207031 -1.113281 L 0.277344 -1.0625 C 0.410156 -0.960938 0.5 -0.886719 0.632812 -0.8125 C 0.773438 -0.734375 0.886719 -0.699219 0.984375 -0.714844 C 1.070312 -0.734375 1.199219 -0.773438 1.261719 -0.910156 L 1.269531 -0.929688 C 1.289062 -0.972656 1.332031 -1.042969 1.230469 -1.113281 C 1.140625 -1.183594 1.109375 -1.15625 1.089844 -1.128906 C 1.058594 -1.082031 1.003906 -1.097656 0.941406 -1.121094 C 0.894531 -1.136719 0.84375 -1.167969 0.796875 -1.195312 C 0.753906 -1.226562 0.710938 -1.257812 0.679688 -1.289062 C 0.648438 -1.320312 0.550781 -1.398438 0.46875 -1.460938 C 0.445312 -1.484375 0.410156 -1.496094 0.378906 -1.519531 L 0.25 -1.621094 C 0.335938 -1.816406 0.375 -2.011719 0.359375 -2.175781 L 0.355469 -2.191406 C 0.34375 -2.316406 0.296875 -2.4375 0.234375 -2.558594 C 0.226562 -2.578125 0.210938 -2.597656 0.195312 -2.621094 C 0.140625 -2.703125 0.0585938 -2.777344 -0.0273438 -2.835938 C -0.144531 -2.917969 -0.28125 -2.960938 -0.4375 -2.964844 C -0.597656 -2.980469 -0.78125 -2.9375 -0.976562 -2.867188 C -1.046875 -2.835938 -1.109375 -2.800781 -1.171875 -2.757812 C -1.234375 -2.714844 -1.289062 -2.671875 -1.328125 -2.621094 C -1.367188 -2.570312 -1.394531 -2.515625 -1.402344 -2.464844 C -1.410156 -2.414062 -1.40625 -2.355469 -1.375 -2.3125 L -1.335938 -2.257812 L -1.320312 -2.230469 C -1.300781 -2.207031 -1.292969 -2.175781 -1.273438 -2.148438 L -1.132812 -1.9375 C -1.101562 -1.894531 -1.074219 -1.859375 -1.042969 -1.8125 L -1.03125 -1.796875 C -0.953125 -1.675781 -0.867188 -1.5625 -0.792969 -1.449219 C -0.75 -1.386719 -0.699219 -1.320312 -0.648438 -1.242188 L -0.636719 -1.222656 C -0.578125 -1.136719 -0.511719 -1.046875 -0.453125 -0.957031 C -0.390625 -0.867188 -0.332031 -0.777344 -0.273438 -0.683594 C -0.257812 -0.660156 -0.238281 -0.632812 -0.214844 -0.59375 C -0.1875 -0.542969 -0.152344 -0.488281 -0.121094 -0.441406 L -0.0859375 -0.386719 C -0.03125 -0.304688 0.0273438 -0.25 0.0898438 -0.21875 C 0.160156 -0.183594 0.246094 -0.167969 0.316406 -0.214844 Z M -0.664062 -2.1875 L -0.664062 -2.191406 L -0.777344 -2.371094 L -0.808594 -2.417969 L -0.855469 -2.476562 C -0.859375 -2.496094 -0.851562 -2.507812 -0.839844 -2.523438 C -0.835938 -2.527344 -0.835938 -2.535156 -0.835938 -2.535156 C -0.808594 -2.550781 -0.777344 -2.5625 -0.726562 -2.582031 C -0.488281 -2.636719 -0.28125 -2.582031 -0.148438 -2.4375 L -0.113281 -2.378906 C -0.0742188 -2.324219 -0.0546875 -2.273438 -0.0351562 -2.207031 C -0.00390625 -2.074219 -0.0078125 -1.921875 -0.078125 -1.757812 C -0.140625 -1.628906 -0.179688 -1.597656 -0.191406 -1.585938 L -0.195312 -1.585938 C -0.214844 -1.570312 -0.238281 -1.578125 -0.253906 -1.589844 L -0.382812 -1.777344 C -0.410156 -1.820312 -0.441406 -1.863281 -0.472656 -1.90625 L -0.570312 -2.054688 C -0.597656 -2.101562 -0.636719 -2.140625 -0.664062 -2.1875 Z M -0.664062 -2.1875 "/></g></g></g><g fill="#000000" fill-opacity="1"><g transform="translate(22.444808, 22.047258)"><g><path d="M 0.582031 -0.527344 C 0.613281 -0.5625 0.636719 -0.597656 0.652344 -0.628906 C 0.9375 -1.199219 0.28125 -1.863281 -0.125 -2.246094 L -0.238281 -2.351562 C -0.339844 -2.449219 -0.441406 -2.535156 -0.527344 -2.617188 L -0.53125 -2.621094 C -0.601562 -2.6875 -0.671875 -2.75 -0.746094 -2.820312 L -0.828125 -2.898438 C -0.84375 -2.914062 -0.871094 -2.9375 -0.894531 -2.957031 C -1.046875 -3.089844 -1.132812 -3.039062 -1.175781 -2.996094 L -1.175781 -2.992188 C -1.246094 -2.917969 -1.25 -2.851562 -1.207031 -2.792969 C -1.179688 -2.742188 -1.152344 -2.707031 -1.121094 -2.675781 L -1.097656 -2.65625 C -1.003906 -2.566406 -0.898438 -2.472656 -0.800781 -2.378906 C -0.550781 -2.144531 -0.308594 -1.910156 -0.0664062 -1.667969 C 0.0664062 -1.527344 0.191406 -1.390625 0.316406 -1.214844 C 0.414062 -1.082031 0.367188 -0.9375 0.367188 -0.9375 L 0.363281 -0.933594 C 0.277344 -0.84375 0.0859375 -0.964844 -0.386719 -1.324219 C -0.410156 -1.339844 -0.429688 -1.363281 -0.449219 -1.378906 C -0.546875 -1.464844 -0.632812 -1.542969 -0.695312 -1.605469 L -0.699219 -1.605469 C -0.738281 -1.640625 -0.777344 -1.675781 -0.8125 -1.707031 L -1.136719 -2.019531 C -1.15625 -2.035156 -1.179688 -2.058594 -1.203125 -2.085938 L -1.207031 -2.089844 C -1.242188 -2.121094 -1.273438 -2.164062 -1.3125 -2.203125 L -1.375 -2.261719 C -1.449219 -2.332031 -1.523438 -2.367188 -1.589844 -2.382812 C -1.675781 -2.402344 -1.757812 -2.382812 -1.820312 -2.316406 L -1.820312 -2.3125 C -1.894531 -2.238281 -1.917969 -2.152344 -1.882812 -2.0625 L -1.882812 -2.058594 C -1.847656 -1.984375 -1.804688 -1.921875 -1.746094 -1.863281 L -1.597656 -1.726562 C -1.511719 -1.644531 -1.425781 -1.554688 -1.335938 -1.464844 C -1.191406 -1.332031 -1.019531 -1.179688 -0.816406 -1.011719 C -0.734375 -0.941406 -0.4375 -0.699219 -0.0976562 -0.535156 C 0.0507812 -0.460938 0.199219 -0.421875 0.324219 -0.421875 C 0.433594 -0.417969 0.511719 -0.457031 0.582031 -0.527344 Z M 0.582031 -0.527344 "/></g></g></g><g fill="#000000" fill-opacity="1"><g transform="translate(23.965989, 20.313286)"><g><path d="M 0.210938 -0.316406 L 0.238281 -0.355469 C 0.277344 -0.414062 0.292969 -0.476562 0.273438 -0.535156 C 0.25 -0.597656 0.128906 -0.730469 -0.00390625 -0.820312 C -0.265625 -0.996094 -0.53125 -1.171875 -0.789062 -1.34375 L -1.027344 -1.503906 C -1.171875 -1.597656 -1.3125 -1.6875 -1.449219 -1.78125 L -1.621094 -1.902344 L -1.671875 -1.9375 C -1.78125 -2 -1.847656 -2.058594 -1.996094 -2.054688 C -2.058594 -2.046875 -2.109375 -2.011719 -2.148438 -1.949219 L -2.171875 -1.914062 C -2.210938 -1.855469 -2.207031 -1.789062 -2.1875 -1.726562 C -2.175781 -1.6875 -2.148438 -1.648438 -2.113281 -1.609375 C -2.078125 -1.574219 -2.042969 -1.542969 -1.996094 -1.511719 L -1.785156 -1.371094 C -1.746094 -1.34375 -1.707031 -1.316406 -1.65625 -1.289062 L -1.640625 -1.277344 C -1.519531 -1.199219 -1.398438 -1.121094 -1.285156 -1.042969 C -1.222656 -1 -1.152344 -0.957031 -1.078125 -0.910156 L -1.054688 -0.894531 C -0.964844 -0.835938 -0.875 -0.777344 -0.78125 -0.714844 C -0.691406 -0.65625 -0.605469 -0.597656 -0.515625 -0.53125 C -0.492188 -0.515625 -0.457031 -0.496094 -0.425781 -0.46875 C -0.378906 -0.433594 -0.332031 -0.394531 -0.277344 -0.363281 L -0.226562 -0.328125 C -0.144531 -0.273438 -0.0703125 -0.242188 0 -0.238281 C 0.0820312 -0.230469 0.164062 -0.25 0.210938 -0.316406 Z M 0.210938 -0.316406 "/></g></g></g><g fill="#000000" fill-opacity="1"><g transform="translate(24.746541, 19.108134)"><g><path d="M 0.300781 -0.660156 L 0.320312 -0.699219 C 0.351562 -0.765625 0.355469 -0.828125 0.332031 -0.882812 L 0.328125 -0.882812 C 0.296875 -0.941406 0.257812 -0.996094 0.195312 -1.023438 L 0.191406 -1.023438 C 0.148438 -1.042969 0.105469 -1.078125 0.0585938 -1.097656 L 0.0234375 -1.117188 C -0.253906 -1.242188 -0.53125 -1.363281 -0.804688 -1.488281 L -1.058594 -1.605469 C -1.226562 -1.683594 -1.394531 -1.75 -1.558594 -1.832031 L -1.816406 -1.953125 C -1.835938 -1.960938 -1.847656 -1.972656 -1.839844 -2.007812 L -1.828125 -2.03125 C -1.808594 -2.082031 -1.792969 -2.125 -1.78125 -2.175781 C -1.773438 -2.230469 -1.773438 -2.273438 -1.792969 -2.3125 C -1.796875 -2.324219 -1.804688 -2.335938 -1.808594 -2.347656 C -1.820312 -2.363281 -1.835938 -2.382812 -1.855469 -2.390625 L -1.898438 -2.410156 C -1.976562 -2.445312 -2.039062 -2.425781 -2.074219 -2.398438 C -2.125 -2.363281 -2.164062 -2.308594 -2.191406 -2.25 L -2.378906 -1.832031 C -2.386719 -1.816406 -2.394531 -1.796875 -2.40625 -1.777344 C -2.433594 -1.738281 -2.445312 -1.710938 -2.460938 -1.675781 C -2.488281 -1.617188 -2.507812 -1.558594 -2.527344 -1.496094 C -2.554688 -1.394531 -2.53125 -1.304688 -2.449219 -1.246094 L -2.425781 -1.234375 C -2.417969 -1.226562 -2.410156 -1.222656 -2.398438 -1.21875 L -2.367188 -1.203125 C -2.273438 -1.179688 -2.226562 -1.214844 -2.203125 -1.25 C -2.191406 -1.265625 -2.175781 -1.289062 -2.164062 -1.316406 C -2.15625 -1.335938 -2.144531 -1.359375 -2.140625 -1.378906 L -2.136719 -1.382812 C -2.125 -1.40625 -2.101562 -1.460938 -2.089844 -1.480469 C -2.074219 -1.503906 -2.074219 -1.503906 -1.898438 -1.421875 L -1.777344 -1.367188 C -1.757812 -1.355469 -1.746094 -1.347656 -1.734375 -1.34375 L -0.996094 -1.003906 C -0.90625 -0.964844 -0.808594 -0.921875 -0.710938 -0.878906 C -0.617188 -0.835938 -0.523438 -0.792969 -0.429688 -0.746094 C -0.402344 -0.734375 -0.367188 -0.71875 -0.332031 -0.699219 C -0.28125 -0.667969 -0.230469 -0.640625 -0.179688 -0.617188 L -0.121094 -0.59375 C -0.0351562 -0.554688 0.0429688 -0.539062 0.109375 -0.542969 C 0.1875 -0.550781 0.253906 -0.589844 0.300781 -0.660156 Z M 0.300781 -0.660156 "/></g></g></g><g fill="#000000" fill-opacity="1"><g transform="translate(2.786576, 14.485988)"><g><path d="M 0.667969 0 C 0.730469 0 0.789062 -0.00390625 0.835938 -0.00390625 C 0.917969 -0.0117188 0.96875 -0.0351562 0.996094 -0.078125 C 1.007812 -0.101562 1.015625 -0.125 1.015625 -0.144531 C 1.015625 -0.164062 1.007812 -0.183594 0.996094 -0.203125 C 0.996094 -0.207031 0.992188 -0.207031 0.992188 -0.207031 C 0.972656 -0.246094 0.9375 -0.265625 0.882812 -0.265625 L 0.878906 -0.265625 L 0.804688 -0.261719 C 0.777344 -0.257812 0.75 -0.257812 0.71875 -0.257812 C 0.691406 -0.257812 0.664062 -0.257812 0.632812 -0.261719 C 0.554688 -0.28125 0.503906 -0.351562 0.488281 -0.46875 C 0.488281 -0.476562 0.484375 -0.484375 0.484375 -0.492188 C 0.480469 -0.539062 0.460938 -0.761719 0.460938 -0.785156 L 0.464844 -0.859375 C 0.464844 -0.90625 0.523438 -0.910156 0.570312 -0.910156 L 0.695312 -0.910156 C 0.714844 -0.90625 0.734375 -0.90625 0.75 -0.90625 L 0.773438 -0.90625 C 0.851562 -0.90625 0.878906 -0.960938 0.890625 -0.996094 C 0.894531 -1.007812 0.894531 -1.023438 0.894531 -1.035156 C 0.894531 -1.070312 0.886719 -1.097656 0.855469 -1.128906 L 0.855469 -1.132812 C 0.832031 -1.15625 0.792969 -1.15625 0.761719 -1.15625 L 0.648438 -1.15625 C 0.640625 -1.15625 0.632812 -1.15625 0.625 -1.15625 C 0.601562 -1.15625 0.585938 -1.15625 0.570312 -1.152344 L 0.539062 -1.152344 C 0.515625 -1.152344 0.503906 -1.15625 0.492188 -1.160156 L 0.488281 -1.164062 C 0.480469 -1.167969 0.46875 -1.183594 0.46875 -1.242188 C 0.472656 -1.253906 0.472656 -1.265625 0.472656 -1.277344 C 0.476562 -1.296875 0.476562 -1.308594 0.476562 -1.320312 C 0.480469 -1.441406 0.492188 -1.566406 0.496094 -1.6875 L 0.496094 -1.714844 C 0.496094 -1.78125 0.515625 -1.828125 0.542969 -1.839844 C 0.566406 -1.851562 0.597656 -1.855469 0.632812 -1.855469 C 0.648438 -1.855469 0.660156 -1.851562 0.671875 -1.851562 L 0.777344 -1.851562 C 0.855469 -1.851562 0.898438 -1.875 0.925781 -1.90625 C 0.953125 -1.929688 0.960938 -1.953125 0.960938 -1.980469 C 0.960938 -1.992188 0.960938 -2 0.957031 -2.015625 C 0.925781 -2.132812 0.691406 -2.113281 0.566406 -2.113281 L 0.375 -2.113281 C 0.335938 -2.113281 0.304688 -2.113281 0.277344 -2.105469 C 0.226562 -2.097656 0.191406 -2.074219 0.164062 -2.027344 C 0.144531 -1.988281 0.128906 -1.925781 0.125 -1.835938 L 0.125 -1.800781 L 0.113281 -1.582031 C 0.105469 -1.394531 0.117188 -1.191406 0.113281 -0.992188 L 0.109375 -0.972656 C 0.109375 -0.78125 0.09375 -0.59375 0.121094 -0.429688 C 0.128906 -0.351562 0.144531 -0.265625 0.179688 -0.191406 C 0.21875 -0.117188 0.273438 -0.0625 0.347656 -0.0351562 L 0.351562 -0.0351562 C 0.417969 -0.0117188 0.496094 -0.00390625 0.59375 -0.00390625 C 0.617188 0 0.644531 0 0.667969 0 Z M 0.667969 0 "/></g></g></g><g fill="#000000" fill-opacity="1"><g transform="translate(3.930732, 14.485988)"><g><path d="M 0.4375 0 L 0.480469 0 C 0.5625 0 0.636719 -0.0117188 0.699219 -0.0273438 C 0.894531 -0.0820312 1.035156 -0.382812 1.007812 -0.53125 C 0.996094 -0.738281 0.878906 -0.902344 0.765625 -1.042969 C 0.707031 -1.105469 0.660156 -1.179688 0.613281 -1.261719 L 0.609375 -1.261719 C 0.570312 -1.320312 0.535156 -1.386719 0.5 -1.476562 C 0.472656 -1.539062 0.46875 -1.605469 0.46875 -1.675781 C 0.46875 -1.746094 0.476562 -1.734375 0.511719 -1.789062 C 0.589844 -1.878906 0.664062 -1.824219 0.738281 -1.769531 C 0.777344 -1.738281 0.8125 -1.71875 0.84375 -1.710938 C 0.855469 -1.703125 0.863281 -1.703125 0.871094 -1.703125 C 0.902344 -1.703125 0.929688 -1.722656 0.953125 -1.753906 C 0.960938 -1.769531 0.96875 -1.785156 0.96875 -1.808594 C 0.96875 -1.828125 0.964844 -1.851562 0.953125 -1.867188 C 0.925781 -1.941406 0.863281 -2 0.816406 -2.03125 C 0.730469 -2.085938 0.636719 -2.117188 0.542969 -2.117188 C 0.519531 -2.117188 0.484375 -2.113281 0.460938 -2.105469 C 0.34375 -2.078125 0.246094 -2.019531 0.175781 -1.917969 C 0.125 -1.855469 0.101562 -1.773438 0.09375 -1.679688 C 0.078125 -1.449219 0.242188 -1.171875 0.457031 -0.863281 L 0.535156 -0.746094 L 0.539062 -0.746094 C 0.585938 -0.683594 0.617188 -0.617188 0.632812 -0.550781 C 0.636719 -0.519531 0.640625 -0.5 0.636719 -0.476562 C 0.636719 -0.363281 0.527344 -0.238281 0.441406 -0.238281 L 0.433594 -0.238281 C 0.394531 -0.238281 0.351562 -0.265625 0.300781 -0.308594 L 0.246094 -0.355469 C 0.226562 -0.367188 0.203125 -0.371094 0.179688 -0.371094 C 0.175781 -0.371094 0.171875 -0.371094 0.164062 -0.371094 C 0.125 -0.363281 0.109375 -0.324219 0.0976562 -0.3125 L 0.09375 -0.308594 C 0.0859375 -0.289062 0.078125 -0.265625 0.078125 -0.246094 C 0.078125 -0.207031 0.0859375 -0.175781 0.109375 -0.152344 C 0.136719 -0.109375 0.175781 -0.078125 0.222656 -0.0546875 C 0.296875 -0.015625 0.355469 0 0.4375 0 Z M 0.4375 0 "/></g></g></g><g fill="#000000" fill-opacity="1"><g transform="translate(5.045821, 14.485988)"><g><path d="M 0.527344 0 L 0.558594 0 C 0.609375 0 0.652344 -0.015625 0.683594 -0.046875 L 0.683594 -0.0507812 C 0.710938 -0.0859375 0.734375 -0.128906 0.734375 -0.179688 L 0.734375 -0.183594 C 0.734375 -0.214844 0.742188 -0.257812 0.742188 -0.292969 L 0.742188 -0.324219 C 0.742188 -0.542969 0.738281 -0.765625 0.738281 -0.980469 L 0.738281 -1.183594 C 0.738281 -1.320312 0.734375 -1.449219 0.738281 -1.582031 L 0.738281 -1.789062 C 0.738281 -1.804688 0.742188 -1.816406 0.769531 -1.820312 L 0.789062 -1.820312 C 0.828125 -1.820312 0.863281 -1.828125 0.898438 -1.832031 C 0.9375 -1.84375 0.964844 -1.859375 0.984375 -1.882812 C 0.992188 -1.886719 0.996094 -1.894531 1 -1.902344 C 1.007812 -1.917969 1.015625 -1.933594 1.015625 -1.949219 L 1.015625 -1.980469 C 1.015625 -2.042969 0.984375 -2.078125 0.957031 -2.09375 C 0.917969 -2.113281 0.871094 -2.125 0.820312 -2.125 L 0.492188 -2.121094 C 0.476562 -2.121094 0.460938 -2.121094 0.445312 -2.125 C 0.414062 -2.128906 0.390625 -2.128906 0.363281 -2.128906 C 0.316406 -2.128906 0.273438 -2.125 0.226562 -2.121094 C 0.148438 -2.105469 0.09375 -2.0625 0.0820312 -1.992188 L 0.0820312 -1.972656 C 0.078125 -1.964844 0.078125 -1.957031 0.078125 -1.949219 L 0.078125 -1.925781 C 0.09375 -1.859375 0.128906 -1.835938 0.160156 -1.832031 C 0.171875 -1.828125 0.191406 -1.828125 0.214844 -1.828125 C 0.230469 -1.828125 0.25 -1.828125 0.265625 -1.828125 C 0.285156 -1.828125 0.332031 -1.828125 0.347656 -1.828125 C 0.363281 -1.824219 0.363281 -1.824219 0.363281 -1.679688 L 0.363281 -1.585938 C 0.363281 -1.570312 0.363281 -1.558594 0.363281 -1.550781 L 0.363281 -0.960938 C 0.363281 -0.886719 0.363281 -0.8125 0.363281 -0.734375 C 0.363281 -0.65625 0.363281 -0.585938 0.363281 -0.507812 C 0.363281 -0.484375 0.363281 -0.460938 0.359375 -0.429688 C 0.355469 -0.386719 0.355469 -0.347656 0.355469 -0.304688 L 0.355469 -0.257812 C 0.355469 -0.191406 0.367188 -0.136719 0.390625 -0.09375 C 0.421875 -0.0429688 0.464844 -0.0117188 0.527344 0 Z M 0.527344 0 "/></g></g></g><g fill="#000000" fill-opacity="1"><g transform="translate(6.166195, 14.485988)"><g><path d="M 0.402344 0 C 0.453125 0 0.503906 -0.0078125 0.554688 -0.0273438 C 0.699219 -0.078125 0.816406 -0.160156 0.910156 -0.269531 C 0.996094 -0.371094 1.058594 -0.496094 1.09375 -0.644531 C 1.125 -0.761719 1.140625 -0.875 1.140625 -0.992188 C 1.140625 -1.019531 1.140625 -1.050781 1.136719 -1.074219 C 1.128906 -1.226562 1.105469 -1.363281 1.0625 -1.492188 L 1.058594 -1.507812 C 1 -1.683594 0.886719 -1.851562 0.746094 -1.984375 C 0.632812 -2.097656 0.535156 -2.128906 0.460938 -2.144531 C 0.382812 -2.160156 0.191406 -2.152344 0.152344 -2.082031 C 0.125 -2.039062 0.105469 -1.972656 0.105469 -1.890625 C 0.105469 -1.875 0.109375 -1.863281 0.109375 -1.847656 L 0.109375 -1.839844 C 0.109375 -1.566406 0.113281 -1.285156 0.113281 -1.007812 L 0.113281 -0.628906 C 0.113281 -0.59375 0.113281 -0.558594 0.109375 -0.519531 C 0.109375 -0.460938 0.109375 -0.414062 0.109375 -0.363281 L 0.109375 -0.292969 C 0.109375 -0.230469 0.125 -0.175781 0.152344 -0.132812 C 0.175781 -0.0859375 0.210938 -0.0546875 0.253906 -0.03125 C 0.296875 -0.0117188 0.347656 0 0.402344 0 Z M 0.484375 -0.429688 L 0.484375 -0.46875 C 0.484375 -0.65625 0.492188 -0.847656 0.492188 -1.035156 C 0.492188 -1.167969 0.488281 -1.308594 0.488281 -1.445312 L 0.488281 -1.492188 C 0.488281 -1.511719 0.484375 -1.539062 0.484375 -1.5625 L 0.484375 -1.566406 C 0.484375 -1.59375 0.484375 -1.621094 0.484375 -1.65625 C 0.484375 -1.691406 0.484375 -1.726562 0.484375 -1.757812 C 0.488281 -1.792969 0.5 -1.839844 0.527344 -1.847656 L 0.53125 -1.847656 C 0.542969 -1.847656 0.578125 -1.839844 0.671875 -1.742188 C 0.777344 -1.601562 0.84375 -1.441406 0.878906 -1.261719 C 0.894531 -1.175781 0.902344 -1.09375 0.902344 -1.007812 C 0.902344 -0.976562 0.902344 -0.953125 0.902344 -0.917969 C 0.886719 -0.648438 0.78125 -0.4375 0.613281 -0.320312 C 0.574219 -0.296875 0.550781 -0.285156 0.527344 -0.285156 C 0.527344 -0.285156 0.523438 -0.289062 0.519531 -0.289062 C 0.503906 -0.300781 0.496094 -0.320312 0.488281 -0.347656 C 0.484375 -0.371094 0.484375 -0.402344 0.484375 -0.429688 Z M 0.484375 -0.429688 "/></g></g></g><g fill="#000000" fill-opacity="1"><g transform="translate(22.548959, 14.145083)"><g><path d="M 0.28125 0.00390625 C 0.332031 0.0195312 0.378906 0 0.425781 0 L 0.558594 -0.00390625 C 0.582031 -0.00390625 0.605469 -0.00390625 0.625 -0.00390625 C 0.648438 -0.00390625 0.675781 -0.00390625 0.695312 -0.00390625 C 0.714844 -0.00390625 0.742188 -0.00390625 0.769531 -0.0078125 C 0.878906 -0.00390625 0.953125 -0.00390625 0.996094 -0.0117188 L 1 -0.0195312 C 1.0625 -0.03125 1.09375 -0.0664062 1.113281 -0.109375 C 1.113281 -0.121094 1.117188 -0.136719 1.117188 -0.148438 C 1.113281 -0.175781 1.105469 -0.214844 1.050781 -0.246094 C 1.050781 -0.25 1.050781 -0.25 1.046875 -0.25 C 1.015625 -0.261719 0.984375 -0.269531 0.945312 -0.269531 L 0.929688 -0.269531 C 0.878906 -0.269531 0.828125 -0.269531 0.78125 -0.265625 L 0.703125 -0.261719 C 0.679688 -0.257812 0.660156 -0.257812 0.640625 -0.257812 L 0.621094 -0.257812 C 0.59375 -0.257812 0.570312 -0.265625 0.554688 -0.265625 C 0.558594 -0.339844 0.589844 -0.398438 0.625 -0.460938 L 0.632812 -0.472656 L 0.730469 -0.632812 C 0.78125 -0.699219 0.824219 -0.773438 0.878906 -0.855469 C 0.925781 -0.933594 1.082031 -1.230469 1.132812 -1.539062 C 1.140625 -1.582031 1.136719 -1.621094 1.132812 -1.667969 C 1.132812 -1.753906 1.109375 -1.835938 1.078125 -1.902344 C 1.078125 -1.902344 1.078125 -1.90625 1.074219 -1.90625 C 1.023438 -1.988281 0.953125 -2.039062 0.871094 -2.074219 C 0.800781 -2.09375 0.730469 -2.113281 0.660156 -2.113281 C 0.640625 -2.113281 0.617188 -2.113281 0.59375 -2.113281 C 0.503906 -2.105469 0.421875 -2.089844 0.355469 -2.070312 C 0.285156 -2.046875 0.1875 -1.988281 0.132812 -1.914062 C 0.109375 -1.882812 0.101562 -1.851562 0.105469 -1.816406 C 0.105469 -1.804688 0.105469 -1.785156 0.109375 -1.773438 C 0.125 -1.726562 0.15625 -1.703125 0.191406 -1.703125 L 0.199219 -1.703125 C 0.226562 -1.703125 0.253906 -1.703125 0.28125 -1.71875 L 0.285156 -1.71875 C 0.316406 -1.734375 0.339844 -1.746094 0.359375 -1.761719 C 0.398438 -1.789062 0.433594 -1.816406 0.476562 -1.835938 C 0.503906 -1.847656 0.535156 -1.859375 0.566406 -1.855469 L 0.597656 -1.851562 C 0.65625 -1.839844 0.746094 -1.8125 0.746094 -1.71875 L 0.746094 -1.714844 C 0.746094 -1.703125 0.75 -1.6875 0.753906 -1.671875 C 0.753906 -1.605469 0.742188 -1.527344 0.714844 -1.441406 C 0.632812 -1.21875 0.503906 -1.007812 0.460938 -0.925781 L 0.453125 -0.90625 C 0.453125 -0.902344 0.453125 -0.902344 0.453125 -0.902344 C 0.429688 -0.863281 0.402344 -0.820312 0.371094 -0.777344 C 0.242188 -0.601562 0.160156 -0.433594 0.152344 -0.199219 C 0.15625 -0.191406 0.148438 -0.152344 0.171875 -0.078125 C 0.183594 -0.0390625 0.210938 -0.0234375 0.242188 -0.0117188 C 0.25 -0.00390625 0.257812 -0.00390625 0.265625 -0.00390625 Z M 0.28125 0.00390625 "/></g></g></g><g fill="#000000" fill-opacity="1"><g transform="translate(23.685138, 14.145083)"><g><path d="M 0.628906 0.0234375 L 0.671875 0.0234375 C 0.707031 0.0234375 0.742188 0.0195312 0.78125 0.015625 C 1 -0.03125 1.148438 -0.214844 1.214844 -0.539062 C 1.238281 -0.675781 1.257812 -0.8125 1.261719 -0.945312 L 1.261719 -1.03125 C 1.261719 -1.140625 1.253906 -1.222656 1.246094 -1.292969 C 1.222656 -1.617188 1.140625 -1.808594 1.082031 -1.914062 C 1.023438 -2.015625 0.941406 -2.078125 0.839844 -2.117188 C 0.835938 -2.117188 0.835938 -2.117188 0.835938 -2.121094 C 0.789062 -2.132812 0.738281 -2.136719 0.679688 -2.136719 C 0.621094 -2.136719 0.5625 -2.128906 0.511719 -2.109375 C 0.414062 -2.0625 0.332031 -1.984375 0.269531 -1.875 L 0.265625 -1.875 C 0.179688 -1.710938 0.125 -1.523438 0.109375 -1.304688 C 0.109375 -1.226562 0.105469 -1.144531 0.105469 -1.074219 C 0.105469 -0.957031 0.113281 -0.835938 0.128906 -0.710938 C 0.160156 -0.445312 0.230469 -0.242188 0.347656 -0.117188 C 0.410156 -0.0351562 0.503906 0.0117188 0.628906 0.0234375 Z M 0.507812 -1.136719 C 0.507812 -1.355469 0.527344 -1.53125 0.574219 -1.679688 C 0.597656 -1.746094 0.632812 -1.800781 0.675781 -1.847656 C 0.703125 -1.875 0.734375 -1.886719 0.765625 -1.886719 C 0.773438 -1.886719 0.785156 -1.886719 0.789062 -1.882812 C 0.828125 -1.875 0.867188 -1.832031 0.902344 -1.75 C 0.960938 -1.589844 0.992188 -1.375 0.996094 -1.105469 L 0.996094 -1.019531 C 0.996094 -0.792969 0.976562 -0.601562 0.929688 -0.445312 C 0.921875 -0.410156 0.886719 -0.324219 0.820312 -0.273438 C 0.800781 -0.257812 0.785156 -0.246094 0.765625 -0.246094 C 0.761719 -0.246094 0.75 -0.253906 0.742188 -0.257812 C 0.683594 -0.277344 0.640625 -0.324219 0.617188 -0.394531 C 0.554688 -0.558594 0.519531 -0.769531 0.511719 -1.035156 C 0.507812 -1.070312 0.507812 -1.105469 0.507812 -1.136719 Z M 0.507812 -1.136719 "/></g></g></g><g fill="#000000" fill-opacity="1"><g transform="translate(24.916442, 14.145083)"><g><path d="M 0.28125 0.00390625 C 0.332031 0.0195312 0.378906 0 0.425781 0 L 0.558594 -0.00390625 C 0.582031 -0.00390625 0.605469 -0.00390625 0.625 -0.00390625 C 0.648438 -0.00390625 0.675781 -0.00390625 0.695312 -0.00390625 C 0.714844 -0.00390625 0.742188 -0.00390625 0.769531 -0.0078125 C 0.878906 -0.00390625 0.953125 -0.00390625 0.996094 -0.0117188 L 1 -0.0195312 C 1.0625 -0.03125 1.09375 -0.0664062 1.113281 -0.109375 C 1.113281 -0.121094 1.117188 -0.136719 1.117188 -0.148438 C 1.113281 -0.175781 1.105469 -0.214844 1.050781 -0.246094 C 1.050781 -0.25 1.050781 -0.25 1.046875 -0.25 C 1.015625 -0.261719 0.984375 -0.269531 0.945312 -0.269531 L 0.929688 -0.269531 C 0.878906 -0.269531 0.828125 -0.269531 0.78125 -0.265625 L 0.703125 -0.261719 C 0.679688 -0.257812 0.660156 -0.257812 0.640625 -0.257812 L 0.621094 -0.257812 C 0.59375 -0.257812 0.570312 -0.265625 0.554688 -0.265625 C 0.558594 -0.339844 0.589844 -0.398438 0.625 -0.460938 L 0.632812 -0.472656 L 0.730469 -0.632812 C 0.78125 -0.699219 0.824219 -0.773438 0.878906 -0.855469 C 0.925781 -0.933594 1.082031 -1.230469 1.132812 -1.539062 C 1.140625 -1.582031 1.136719 -1.621094 1.132812 -1.667969 C 1.132812 -1.753906 1.109375 -1.835938 1.078125 -1.902344 C 1.078125 -1.902344 1.078125 -1.90625 1.074219 -1.90625 C 1.023438 -1.988281 0.953125 -2.039062 0.871094 -2.074219 C 0.800781 -2.09375 0.730469 -2.113281 0.660156 -2.113281 C 0.640625 -2.113281 0.617188 -2.113281 0.59375 -2.113281 C 0.503906 -2.105469 0.421875 -2.089844 0.355469 -2.070312 C 0.285156 -2.046875 0.1875 -1.988281 0.132812 -1.914062 C 0.109375 -1.882812 0.101562 -1.851562 0.105469 -1.816406 C 0.105469 -1.804688 0.105469 -1.785156 0.109375 -1.773438 C 0.125 -1.726562 0.15625 -1.703125 0.191406 -1.703125 L 0.199219 -1.703125 C 0.226562 -1.703125 0.253906 -1.703125 0.28125 -1.71875 L 0.285156 -1.71875 C 0.316406 -1.734375 0.339844 -1.746094 0.359375 -1.761719 C 0.398438 -1.789062 0.433594 -1.816406 0.476562 -1.835938 C 0.503906 -1.847656 0.535156 -1.859375 0.566406 -1.855469 L 0.597656 -1.851562 C 0.65625 -1.839844 0.746094 -1.8125 0.746094 -1.71875 L 0.746094 -1.714844 C 0.746094 -1.703125 0.75 -1.6875 0.753906 -1.671875 C 0.753906 -1.605469 0.742188 -1.527344 0.714844 -1.441406 C 0.632812 -1.21875 0.503906 -1.007812 0.460938 -0.925781 L 0.453125 -0.90625 C 0.453125 -0.902344 0.453125 -0.902344 0.453125 -0.902344 C 0.429688 -0.863281 0.402344 -0.820312 0.371094 -0.777344 C 0.242188 -0.601562 0.160156 -0.433594 0.152344 -0.199219 C 0.15625 -0.191406 0.148438 -0.152344 0.171875 -0.078125 C 0.183594 -0.0390625 0.210938 -0.0234375 0.242188 -0.0117188 C 0.25 -0.00390625 0.257812 -0.00390625 0.265625 -0.00390625 Z M 0.28125 0.00390625 "/></g></g></g><g fill="#000000" fill-opacity="1"><g transform="translate(26.052621, 14.145083)"><g><path d="M 0.578125 0.0273438 C 0.625 0.0273438 0.675781 0.0234375 0.742188 0.0117188 C 0.886719 -0.0195312 0.992188 -0.0898438 1.054688 -0.199219 C 1.097656 -0.273438 1.125 -0.355469 1.125 -0.445312 C 1.125 -0.480469 1.117188 -0.523438 1.105469 -0.578125 C 1.054688 -0.773438 0.945312 -0.921875 0.757812 -1.070312 C 0.722656 -1.097656 0.722656 -1.113281 0.722656 -1.113281 L 0.722656 -1.117188 C 0.730469 -1.132812 0.75 -1.15625 0.78125 -1.171875 L 0.785156 -1.175781 C 0.789062 -1.175781 0.789062 -1.179688 0.792969 -1.179688 C 0.804688 -1.183594 0.8125 -1.1875 0.820312 -1.195312 C 0.980469 -1.3125 1.085938 -1.464844 1.109375 -1.621094 L 1.109375 -1.625 L 1.113281 -1.632812 C 1.117188 -1.65625 1.121094 -1.671875 1.121094 -1.6875 C 1.121094 -1.757812 1.097656 -1.828125 1.0625 -1.898438 C 0.996094 -2.003906 0.910156 -2.074219 0.808594 -2.105469 C 0.738281 -2.128906 0.667969 -2.136719 0.585938 -2.136719 C 0.550781 -2.136719 0.519531 -2.132812 0.488281 -2.128906 C 0.40625 -2.121094 0.324219 -2.09375 0.257812 -2.054688 C 0.179688 -2.011719 0.125 -1.949219 0.09375 -1.875 C 0.0859375 -1.851562 0.0820312 -1.832031 0.0820312 -1.808594 C 0.0820312 -1.777344 0.0898438 -1.753906 0.105469 -1.734375 C 0.117188 -1.722656 0.136719 -1.71875 0.164062 -1.71875 C 0.1875 -1.71875 0.207031 -1.722656 0.242188 -1.734375 L 0.242188 -1.738281 L 0.261719 -1.746094 L 0.265625 -1.746094 C 0.289062 -1.765625 0.324219 -1.78125 0.351562 -1.808594 C 0.402344 -1.84375 0.441406 -1.863281 0.480469 -1.878906 L 0.484375 -1.878906 C 0.496094 -1.882812 0.503906 -1.882812 0.519531 -1.882812 C 0.550781 -1.882812 0.589844 -1.871094 0.625 -1.851562 C 0.675781 -1.820312 0.707031 -1.78125 0.722656 -1.734375 C 0.722656 -1.71875 0.722656 -1.703125 0.722656 -1.691406 C 0.722656 -1.65625 0.714844 -1.613281 0.699219 -1.582031 C 0.605469 -1.4375 0.5 -1.367188 0.417969 -1.328125 C 0.351562 -1.292969 0.304688 -1.261719 0.277344 -1.214844 L 0.273438 -1.214844 C 0.261719 -1.1875 0.253906 -1.164062 0.253906 -1.140625 C 0.253906 -1.121094 0.257812 -1.097656 0.273438 -1.074219 C 0.3125 -0.988281 0.417969 -0.90625 0.472656 -0.863281 L 0.5 -0.84375 C 0.503906 -0.84375 0.511719 -0.835938 0.511719 -0.835938 C 0.625 -0.734375 0.691406 -0.640625 0.722656 -0.539062 L 0.730469 -0.519531 C 0.734375 -0.496094 0.738281 -0.472656 0.738281 -0.453125 C 0.738281 -0.40625 0.722656 -0.359375 0.695312 -0.316406 C 0.648438 -0.253906 0.601562 -0.226562 0.535156 -0.226562 C 0.527344 -0.226562 0.523438 -0.226562 0.519531 -0.226562 L 0.511719 -0.226562 C 0.4375 -0.234375 0.367188 -0.273438 0.304688 -0.324219 L 0.289062 -0.347656 C 0.265625 -0.371094 0.242188 -0.390625 0.21875 -0.40625 C 0.207031 -0.410156 0.191406 -0.417969 0.179688 -0.417969 C 0.160156 -0.417969 0.136719 -0.410156 0.117188 -0.394531 L 0.113281 -0.394531 C 0.0703125 -0.371094 0.0546875 -0.34375 0.0546875 -0.304688 C 0.0546875 -0.300781 0.0546875 -0.292969 0.0546875 -0.285156 C 0.0625 -0.253906 0.0742188 -0.21875 0.101562 -0.191406 C 0.183594 -0.0898438 0.28125 -0.0273438 0.394531 0.00390625 C 0.449219 0.0234375 0.511719 0.0273438 0.578125 0.0273438 Z M 0.578125 0.0273438 "/></g></g></g></svg>