<svg xmlns="http://www.w3.org/2000/svg" xmlns:xlink="http://www.w3.org/1999/xlink" width="40" zoomAndPan="magnify" viewBox="0 0 30 30.000001" height="40" preserveAspectRatio="xMidYMid meet" version="1.0"><defs><filter x="0%" y="0%" width="100%" height="100%" id="9541124a01"><feColorMatrix values="0 0 0 0 1 0 0 0 0 1 0 0 0 0 1 0 0 0 1 0" color-interpolation-filters="sRGB"/></filter><g/><clipPath id="a035b941ba"><path d="M 0.484375 0 L 29.515625 0 L 29.515625 29.03125 L 0.484375 29.03125 Z M 0.484375 0 " clip-rule="nonzero"/></clipPath><clipPath id="d5160d021c"><path d="M 12 1.144531 L 18 1.144531 L 18 5 L 12 5 Z M 12 1.144531 " clip-rule="nonzero"/></clipPath><clipPath id="d1cffeb17c"><path d="M 12 1.144531 L 18 1.144531 L 18 5 L 12 5 Z M 12 1.144531 " clip-rule="nonzero"/></clipPath><clipPath id="4dcd83a4f3"><path d="M 3.863281 13 L 6 13 L 6 15 L 3.863281 15 Z M 3.863281 13 " clip-rule="nonzero"/></clipPath><clipPath id="333596b197"><path d="M 13.414062 20.339844 L 16.542969 20.339844 L 16.542969 22.191406 L 13.414062 22.191406 Z M 13.414062 20.339844 " clip-rule="nonzero"/></clipPath><clipPath id="4796c6b989"><path d="M 24.003906 13.84375 L 26.121094 13.84375 L 26.121094 14.914062 L 24.003906 14.914062 Z M 24.003906 13.84375 " clip-rule="nonzero"/></clipPath><clipPath id="a6373d0ea3"><path d="M 12 1.144531 L 18 1.144531 L 18 5 L 12 5 Z M 12 1.144531 " clip-rule="nonzero"/></clipPath><mask id="8bd3e1d10d"><g filter="url(#9541124a01)"><rect x="-3" width="36" fill="#000000" y="-3" height="36.000001" fill-opacity="0.25"/></g></mask><clipPath id="a1a93f110b"><path d="M 5 0.902344 L 7 0.902344 L 7 11.0625 L 5 11.0625 Z M 5 0.902344 " clip-rule="nonzero"/></clipPath><clipPath id="b6941c762e"><path d="M 0.847656 5 L 11.007812 5 L 11.007812 7 L 0.847656 7 Z M 0.847656 5 " clip-rule="nonzero"/></clipPath><clipPath id="8abdedb81b"><path d="M 0.847656 6 L 11.007812 6 L 11.007812 7 L 0.847656 7 Z M 0.847656 6 " clip-rule="nonzero"/></clipPath><clipPath id="27f2af63c5"><path d="M 0.847656 5 L 11.007812 5 L 11.007812 7 L 0.847656 7 Z M 0.847656 5 " clip-rule="nonzero"/></clipPath><clipPath id="ab7628e2d6"><path d="M 5 0.902344 L 7 0.902344 L 7 11.0625 L 5 11.0625 Z M 5 0.902344 " clip-rule="nonzero"/></clipPath><clipPath id="3d11510d5c"><rect x="0" width="12" y="0" height="12"/></clipPath></defs><g clip-path="url(#a035b941ba)"><path fill="#ffffff" d="M 0.484375 0 L 29.515625 0 L 29.515625 29.03125 L 0.484375 29.03125 Z M 0.484375 0 " fill-opacity="1" fill-rule="nonzero"/><path fill="#000000" d="M 0.484375 0 L 29.515625 0 L 29.515625 29.03125 L 0.484375 29.03125 Z M 0.484375 0 " fill-opacity="1" fill-rule="nonzero"/></g><g clip-path="url(#d5160d021c)"><path fill="#dbbe67" d="M 16.351562 4.59375 C 16.292969 4.59375 16.246094 4.550781 16.246094 4.492188 C 16.246094 4.433594 16.292969 4.386719 16.351562 4.386719 C 16.410156 4.386719 16.457031 4.433594 16.457031 4.492188 C 16.457031 4.550781 16.410156 4.59375 16.351562 4.59375 Z M 15.878906 4.59375 C 15.820312 4.59375 15.773438 4.550781 15.773438 4.492188 C 15.773438 4.433594 15.820312 4.386719 15.878906 4.386719 C 15.9375 4.386719 15.984375 4.433594 15.984375 4.492188 C 15.984375 4.550781 15.9375 4.59375 15.878906 4.59375 Z M 15.40625 4.59375 C 15.347656 4.59375 15.300781 4.550781 15.300781 4.492188 C 15.300781 4.433594 15.347656 4.386719 15.40625 4.386719 C 15.460938 4.386719 15.511719 4.433594 15.511719 4.492188 C 15.511719 4.550781 15.460938 4.59375 15.40625 4.59375 Z M 14.9375 4.59375 C 14.882812 4.589844 14.839844 4.546875 14.839844 4.492188 C 14.839844 4.433594 14.882812 4.390625 14.9375 4.386719 C 14.992188 4.390625 15.039062 4.433594 15.039062 4.492188 C 15.039062 4.546875 14.992188 4.589844 14.9375 4.59375 Z M 14.472656 4.59375 C 14.414062 4.59375 14.367188 4.550781 14.367188 4.492188 C 14.367188 4.433594 14.414062 4.386719 14.472656 4.386719 C 14.53125 4.386719 14.578125 4.433594 14.578125 4.492188 C 14.578125 4.550781 14.53125 4.59375 14.472656 4.59375 Z M 14 4.59375 C 13.941406 4.59375 13.894531 4.550781 13.894531 4.492188 C 13.894531 4.433594 13.941406 4.386719 14 4.386719 C 14.058594 4.386719 14.105469 4.433594 14.105469 4.492188 C 14.105469 4.550781 14.058594 4.59375 14 4.59375 Z M 13.527344 4.59375 C 13.46875 4.59375 13.421875 4.550781 13.421875 4.492188 C 13.421875 4.433594 13.46875 4.386719 13.527344 4.386719 C 13.585938 4.386719 13.632812 4.433594 13.632812 4.492188 C 13.632812 4.550781 13.585938 4.59375 13.527344 4.59375 Z M 16.199219 3.070312 C 16.167969 3.171875 16.175781 3.28125 16.214844 3.382812 C 16.277344 3.550781 16.351562 3.859375 16.089844 4.039062 C 15.722656 4.292969 15.363281 3.964844 15.292969 3.589844 C 15.226562 3.207031 15.316406 2.929688 15.617188 2.839844 C 15.917969 2.746094 14.933594 1.144531 14.933594 1.144531 C 14.933594 1.144531 13.960938 2.746094 14.261719 2.839844 C 14.5625 2.929688 14.652344 3.207031 14.582031 3.589844 C 14.515625 3.964844 14.15625 4.292969 13.789062 4.039062 C 13.527344 3.859375 13.597656 3.550781 13.664062 3.382812 C 13.703125 3.28125 13.710938 3.171875 13.675781 3.070312 C 13.425781 2.285156 12.253906 2.296875 12.253906 2.296875 C 13.394531 3.878906 13.382812 4.777344 13.382812 4.777344 L 16.496094 4.777344 C 16.496094 4.777344 16.480469 3.878906 17.625 2.296875 C 17.625 2.296875 16.453125 2.285156 16.199219 3.070312 " fill-opacity="1" fill-rule="nonzero"/></g><path fill="#dbbe67" d="M 16.316406 4.996094 L 13.5625 4.996094 C 13.46875 4.996094 13.394531 5.070312 13.394531 5.164062 C 13.394531 5.257812 13.46875 5.332031 13.5625 5.332031 L 16.316406 5.332031 C 16.40625 5.332031 16.484375 5.257812 16.484375 5.164062 C 16.484375 5.070312 16.40625 4.996094 16.316406 4.996094 " fill-opacity="1" fill-rule="nonzero"/><g clip-path="url(#d1cffeb17c)"><path fill="#dbbe67" d="M 16.351562 4.59375 C 16.292969 4.59375 16.246094 4.550781 16.246094 4.492188 C 16.246094 4.433594 16.292969 4.386719 16.351562 4.386719 C 16.410156 4.386719 16.457031 4.433594 16.457031 4.492188 C 16.457031 4.550781 16.410156 4.59375 16.351562 4.59375 Z M 15.878906 4.59375 C 15.820312 4.59375 15.773438 4.550781 15.773438 4.492188 C 15.773438 4.433594 15.820312 4.386719 15.878906 4.386719 C 15.9375 4.386719 15.984375 4.433594 15.984375 4.492188 C 15.984375 4.550781 15.9375 4.59375 15.878906 4.59375 Z M 15.40625 4.59375 C 15.347656 4.59375 15.300781 4.550781 15.300781 4.492188 C 15.300781 4.433594 15.347656 4.386719 15.40625 4.386719 C 15.460938 4.386719 15.511719 4.433594 15.511719 4.492188 C 15.511719 4.550781 15.460938 4.59375 15.40625 4.59375 Z M 14.9375 4.59375 C 14.882812 4.589844 14.839844 4.546875 14.839844 4.492188 C 14.839844 4.433594 14.882812 4.390625 14.9375 4.386719 C 14.992188 4.390625 15.039062 4.433594 15.039062 4.492188 C 15.039062 4.546875 14.992188 4.589844 14.9375 4.59375 Z M 14.472656 4.59375 C 14.414062 4.59375 14.367188 4.550781 14.367188 4.492188 C 14.367188 4.433594 14.414062 4.386719 14.472656 4.386719 C 14.53125 4.386719 14.578125 4.433594 14.578125 4.492188 C 14.578125 4.550781 14.53125 4.59375 14.472656 4.59375 Z M 14 4.59375 C 13.941406 4.59375 13.894531 4.550781 13.894531 4.492188 C 13.894531 4.433594 13.941406 4.386719 14 4.386719 C 14.058594 4.386719 14.105469 4.433594 14.105469 4.492188 C 14.105469 4.550781 14.058594 4.59375 14 4.59375 Z M 13.527344 4.59375 C 13.46875 4.59375 13.421875 4.550781 13.421875 4.492188 C 13.421875 4.433594 13.46875 4.386719 13.527344 4.386719 C 13.585938 4.386719 13.632812 4.433594 13.632812 4.492188 C 13.632812 4.550781 13.585938 4.59375 13.527344 4.59375 Z M 16.199219 3.070312 C 16.167969 3.171875 16.175781 3.28125 16.214844 3.382812 C 16.277344 3.550781 16.351562 3.859375 16.089844 4.039062 C 15.722656 4.292969 15.363281 3.964844 15.292969 3.589844 C 15.226562 3.207031 15.316406 2.929688 15.617188 2.839844 C 15.917969 2.746094 14.933594 1.144531 14.933594 1.144531 C 14.933594 1.144531 13.960938 2.746094 14.261719 2.839844 C 14.5625 2.929688 14.652344 3.207031 14.582031 3.589844 C 14.515625 3.964844 14.15625 4.292969 13.789062 4.039062 C 13.527344 3.859375 13.597656 3.550781 13.664062 3.382812 C 13.703125 3.28125 13.710938 3.171875 13.675781 3.070312 C 13.425781 2.285156 12.253906 2.296875 12.253906 2.296875 C 13.394531 3.878906 13.382812 4.777344 13.382812 4.777344 L 16.496094 4.777344 C 16.496094 4.777344 16.480469 3.878906 17.625 2.296875 C 17.625 2.296875 16.453125 2.285156 16.199219 3.070312 " fill-opacity="1" fill-rule="nonzero"/></g><path fill="#dbbe67" d="M 16.316406 4.996094 L 13.5625 4.996094 C 13.46875 4.996094 13.394531 5.070312 13.394531 5.164062 C 13.394531 5.257812 13.46875 5.332031 13.5625 5.332031 L 16.316406 5.332031 C 16.40625 5.332031 16.484375 5.257812 16.484375 5.164062 C 16.484375 5.070312 16.40625 4.996094 16.316406 4.996094 " fill-opacity="1" fill-rule="nonzero"/><path fill="#dbbe67" d="M 15.25 5.824219 C 15.132812 5.675781 14.921875 5.652344 14.773438 5.769531 C 14.628906 5.886719 14.605469 6.097656 14.71875 6.246094 C 14.835938 6.390625 15.050781 6.414062 15.195312 6.296875 C 15.339844 6.179688 15.367188 5.96875 15.25 5.824219 " fill-opacity="1" fill-rule="nonzero"/><path fill="#dbbe67" d="M 13.578125 6.003906 C 13.527344 6.046875 13.519531 6.109375 13.519531 6.175781 C 13.515625 6.230469 13.449219 6.230469 13.429688 6.1875 C 13.398438 6.113281 13.414062 6.023438 13.46875 5.964844 C 13.503906 5.925781 13.597656 5.871094 13.640625 5.925781 C 13.664062 5.953125 13.59375 5.988281 13.578125 6.003906 Z M 13.59375 5.808594 C 13.410156 5.808594 13.257812 5.960938 13.257812 6.148438 C 13.257812 6.332031 13.410156 6.484375 13.59375 6.484375 C 13.78125 6.484375 13.933594 6.332031 13.933594 6.148438 C 13.933594 5.960938 13.78125 5.808594 13.59375 5.808594 " fill-opacity="1" fill-rule="nonzero"/><path fill="#dbbe67" d="M 12.34375 6.371094 C 12.3125 6.414062 12.269531 6.4375 12.242188 6.480469 C 12.210938 6.527344 12.199219 6.582031 12.1875 6.636719 C 12.179688 6.671875 12.117188 6.675781 12.109375 6.636719 C 12.097656 6.558594 12.109375 6.488281 12.15625 6.421875 C 12.191406 6.371094 12.257812 6.320312 12.324219 6.332031 C 12.34375 6.332031 12.355469 6.359375 12.34375 6.371094 Z M 12.367188 6.230469 C 12.1875 6.1875 12.003906 6.296875 11.957031 6.476562 C 11.910156 6.65625 12.019531 6.839844 12.199219 6.886719 C 12.382812 6.933594 12.566406 6.824219 12.613281 6.644531 C 12.65625 6.460938 12.546875 6.277344 12.367188 6.230469 " fill-opacity="1" fill-rule="nonzero"/><path fill="#dbbe67" d="M 11.128906 7.027344 C 11.09375 7.0625 11.050781 7.082031 11.023438 7.125 C 10.996094 7.167969 10.988281 7.226562 10.988281 7.273438 C 10.992188 7.320312 10.929688 7.320312 10.917969 7.285156 C 10.886719 7.207031 10.898438 7.136719 10.941406 7.070312 C 10.976562 7.015625 11.046875 6.960938 11.113281 6.976562 C 11.136719 6.984375 11.144531 7.011719 11.128906 7.027344 Z M 11.097656 6.898438 C 10.910156 6.898438 10.757812 7.046875 10.757812 7.234375 C 10.757812 7.421875 10.910156 7.574219 11.097656 7.574219 C 11.285156 7.574219 11.4375 7.421875 11.4375 7.234375 C 11.4375 7.046875 11.285156 6.898438 11.097656 6.898438 " fill-opacity="1" fill-rule="nonzero"/><path fill="#dbbe67" d="M 10.136719 7.875 C 10.097656 7.902344 10.054688 7.910156 10.023438 7.949219 C 9.992188 7.984375 9.980469 8.03125 9.96875 8.074219 C 9.957031 8.117188 9.886719 8.121094 9.878906 8.074219 C 9.867188 7.996094 9.890625 7.925781 9.945312 7.871094 C 9.992188 7.824219 10.074219 7.792969 10.136719 7.828125 C 10.152344 7.839844 10.152344 7.863281 10.136719 7.875 Z M 10.085938 7.695312 C 9.898438 7.695312 9.746094 7.847656 9.746094 8.035156 C 9.746094 8.21875 9.898438 8.371094 10.085938 8.371094 C 10.273438 8.371094 10.425781 8.21875 10.425781 8.035156 C 10.425781 7.847656 10.273438 7.695312 10.085938 7.695312 " fill-opacity="1" fill-rule="nonzero"/><path fill="#dbbe67" d="M 9.261719 8.789062 C 9.199219 8.832031 9.148438 8.863281 9.140625 8.949219 C 9.136719 8.984375 9.085938 9 9.074219 8.957031 C 9.058594 8.890625 9.074219 8.828125 9.128906 8.78125 C 9.164062 8.75 9.21875 8.71875 9.261719 8.742188 C 9.285156 8.75 9.277344 8.777344 9.261719 8.789062 Z M 9.28125 8.644531 C 9.097656 8.644531 8.945312 8.796875 8.945312 8.980469 C 8.945312 9.167969 9.097656 9.320312 9.28125 9.320312 C 9.46875 9.320312 9.621094 9.167969 9.621094 8.980469 C 9.621094 8.796875 9.46875 8.644531 9.28125 8.644531 " fill-opacity="1" fill-rule="nonzero"/><path fill="#dbbe67" d="M 8.585938 9.964844 C 8.558594 9.992188 8.527344 10.007812 8.503906 10.042969 C 8.484375 10.074219 8.46875 10.117188 8.460938 10.15625 C 8.453125 10.191406 8.402344 10.179688 8.398438 10.148438 C 8.386719 10.046875 8.457031 9.921875 8.574219 9.925781 C 8.589844 9.929688 8.601562 9.953125 8.585938 9.964844 Z M 8.605469 9.828125 C 8.421875 9.828125 8.269531 9.976562 8.269531 10.164062 C 8.269531 10.351562 8.421875 10.503906 8.605469 10.503906 C 8.792969 10.503906 8.945312 10.351562 8.945312 10.164062 C 8.945312 9.976562 8.792969 9.828125 8.605469 9.828125 " fill-opacity="1" fill-rule="nonzero"/><path fill="#dbbe67" d="M 8.191406 11.386719 C 8.167969 11.425781 8.125 11.445312 8.101562 11.484375 C 8.078125 11.527344 8.074219 11.578125 8.066406 11.621094 C 8.054688 11.667969 7.996094 11.660156 7.980469 11.621094 C 7.957031 11.558594 7.96875 11.488281 8.007812 11.433594 C 8.042969 11.386719 8.105469 11.332031 8.164062 11.339844 C 8.1875 11.34375 8.207031 11.367188 8.191406 11.386719 Z M 8.179688 11.257812 C 7.996094 11.257812 7.84375 11.40625 7.84375 11.59375 C 7.84375 11.78125 7.996094 11.933594 8.179688 11.933594 C 8.367188 11.933594 8.519531 11.78125 8.519531 11.59375 C 8.519531 11.40625 8.367188 11.257812 8.179688 11.257812 " fill-opacity="1" fill-rule="nonzero"/><path fill="#dbbe67" d="M 8.070312 12.796875 C 8.03125 12.816406 7.996094 12.824219 7.96875 12.855469 C 7.941406 12.890625 7.933594 12.933594 7.921875 12.972656 C 7.910156 13.011719 7.851562 13.011719 7.84375 12.972656 C 7.816406 12.851562 7.914062 12.675781 8.0625 12.730469 C 8.085938 12.742188 8.101562 12.78125 8.070312 12.796875 Z M 8.050781 12.617188 C 7.863281 12.617188 7.710938 12.765625 7.710938 12.953125 C 7.710938 13.140625 7.863281 13.292969 8.050781 13.292969 C 8.234375 13.292969 8.386719 13.140625 8.386719 12.953125 C 8.386719 12.765625 8.234375 12.617188 8.050781 12.617188 " fill-opacity="1" fill-rule="nonzero"/><path fill="#dbbe67" d="M 8.070312 7.953125 C 7.964844 8.332031 7.738281 8.660156 7.660156 9.042969 C 7.65625 9.058594 7.628906 9.054688 7.632812 9.039062 C 7.644531 8.714844 7.789062 8.425781 7.894531 8.125 C 8.027344 7.742188 8.070312 6.898438 8.082031 6.945312 C 8.160156 7.28125 8.160156 7.617188 8.070312 7.953125 Z M 7.257812 14.523438 C 7.277344 14.527344 6.527344 14.371094 6.058594 13.816406 C 5.414062 13.054688 5.269531 12.488281 5.292969 12.53125 C 5.71875 13.3125 6.390625 14.207031 7.257812 14.523438 Z M 6.621094 8.851562 C 6.621094 9.625 6.332031 10.332031 6.21875 11.089844 C 6.105469 11.867188 6.390625 12.609375 6.832031 13.238281 C 6.84375 13.25 6.820312 13.269531 6.808594 13.257812 C 6.367188 12.742188 6.085938 12.0625 6.0625 11.382812 C 6.03125 10.519531 6.621094 8.789062 6.621094 8.851562 Z M 6.769531 10.328125 C 6.507812 11.933594 6.800781 12.453125 6.792969 12.445312 C 6.164062 11.59375 6.78125 10.269531 6.769531 10.328125 Z M 12.398438 4.582031 C 12.203125 3.878906 11.398438 3.835938 10.921875 4.285156 C 10.644531 4.546875 10.460938 4.871094 10.332031 5.222656 C 10.175781 4.820312 9.777344 4.554688 9.292969 4.734375 C 9.007812 4.839844 8.738281 5.097656 8.664062 5.398438 C 8.617188 5.574219 8.648438 5.777344 8.757812 5.917969 C 8.816406 6.015625 8.921875 6.082031 9.046875 6.082031 C 9.230469 6.082031 9.382812 5.929688 9.382812 5.746094 C 9.382812 5.558594 9.230469 5.40625 9.046875 5.40625 C 9.003906 5.40625 8.960938 5.414062 8.921875 5.429688 C 8.96875 5.253906 9.105469 5.101562 9.304688 5 C 9.730469 4.78125 10.132812 5.085938 10.160156 5.53125 C 10.207031 6.230469 9.59375 6.972656 9.125 7.417969 C 8.808594 7.71875 8.484375 8.046875 8.199219 8.40625 C 8.40625 8.101562 8.53125 7.703125 8.476562 7.335938 C 8.449219 7.15625 8.382812 6.980469 8.25 6.855469 C 8.191406 6.800781 8.128906 6.757812 8.070312 6.699219 C 8.027344 6.65625 7.863281 6.558594 7.84375 6.515625 C 8.125 7.179688 7.785156 8.023438 7.5625 8.667969 C 7.453125 8.972656 7.328125 9.269531 7.183594 9.558594 C 7.164062 9.597656 7.140625 9.636719 7.117188 9.675781 C 7.183594 9.1875 7.136719 8.679688 6.984375 8.210938 C 6.90625 7.972656 6.804688 7.742188 6.671875 7.53125 C 6.617188 7.433594 6.5625 7.339844 6.507812 7.246094 C 6.464844 7.175781 6.328125 7.070312 6.308594 7 C 6.332031 7.082031 6.351562 7.164062 6.367188 7.246094 C 6.527344 8.105469 6.15625 9.019531 5.925781 9.832031 C 5.6875 10.660156 5.46875 11.574219 5.820312 12.402344 C 5.746094 12.402344 5.550781 12.171875 5.496094 12.121094 C 5.390625 12.019531 5.289062 11.90625 5.214844 11.78125 C 5.039062 11.496094 5.015625 11.253906 4.988281 10.921875 C 4.738281 11.324219 4.773438 11.933594 4.871094 12.378906 C 4.972656 12.847656 5.191406 13.296875 5.5 13.664062 C 5.796875 14.015625 6.175781 14.261719 6.558594 14.5 C 6.722656 14.601562 6.871094 14.707031 7.019531 14.820312 C 6.789062 14.753906 6.546875 14.730469 6.292969 14.765625 C 5.519531 14.886719 5.011719 15.621094 5.050781 16.386719 C 5.09375 17.15625 5.636719 17.851562 6.480469 17.644531 C 7.210938 17.464844 7.4375 16.308594 6.679688 16.125 C 6.671875 16.125 6.660156 16.125 6.652344 16.125 C 6.632812 16.121094 6.617188 16.121094 6.597656 16.121094 C 6.410156 16.121094 6.257812 16.269531 6.257812 16.457031 C 6.257812 16.644531 6.410156 16.796875 6.597656 16.796875 C 6.738281 16.796875 6.859375 16.707031 6.910156 16.585938 C 7 16.875 6.859375 17.21875 6.539062 17.359375 C 6.050781 17.578125 5.558594 17.296875 5.390625 16.824219 C 5.09375 15.984375 5.585938 15.003906 6.535156 14.996094 C 7.273438 14.992188 7.941406 15.597656 8.4375 16.085938 C 8.972656 16.605469 9.472656 17.136719 10.066406 17.585938 C 10.117188 17.625 10.15625 17.648438 10.214844 17.628906 C 9.46875 16.679688 8.898438 16.09375 8.652344 15.773438 C 8.183594 15.164062 7.878906 14.558594 7.621094 13.832031 C 7.234375 12.757812 7.121094 11.5625 7.414062 10.449219 C 7.542969 9.964844 7.75 9.5 8.042969 9.074219 C 8.316406 8.667969 8.589844 8.269531 8.941406 7.933594 C 9.472656 7.417969 10.085938 6.84375 10.320312 6.113281 C 10.351562 6.007812 10.375 5.902344 10.394531 5.792969 C 10.539062 5.238281 10.820312 4.613281 11.242188 4.347656 C 11.621094 4.109375 12.101562 4.253906 12.175781 4.726562 C 12.210938 4.945312 12.164062 5.148438 12.050781 5.289062 C 12.042969 5.25 12.023438 5.210938 12 5.175781 C 11.890625 5.027344 11.679688 4.992188 11.527344 5.101562 C 11.375 5.210938 11.34375 5.421875 11.453125 5.574219 C 11.523438 5.671875 11.640625 5.71875 11.753906 5.710938 C 11.933594 5.714844 12.113281 5.621094 12.230469 5.480469 C 12.429688 5.246094 12.480469 4.875 12.398438 4.582031 " fill-opacity="1" fill-rule="nonzero"/><path fill="#dbbe67" d="M 21.917969 6.945312 C 21.929688 6.898438 21.972656 7.742188 22.105469 8.125 C 22.210938 8.425781 22.355469 8.714844 22.371094 9.039062 C 22.371094 9.054688 22.34375 9.058594 22.339844 9.042969 C 22.261719 8.660156 22.035156 8.332031 21.933594 7.953125 C 21.839844 7.617188 21.839844 7.28125 21.917969 6.945312 Z M 24.707031 12.53125 C 24.730469 12.488281 24.585938 13.054688 23.941406 13.816406 C 23.472656 14.371094 22.722656 14.527344 22.742188 14.523438 C 23.609375 14.207031 24.28125 13.3125 24.707031 12.53125 Z M 23.941406 11.382812 C 23.914062 12.0625 23.632812 12.742188 23.191406 13.257812 C 23.179688 13.269531 23.15625 13.25 23.167969 13.238281 C 23.609375 12.609375 23.894531 11.867188 23.78125 11.089844 C 23.667969 10.332031 23.378906 9.625 23.378906 8.851562 C 23.378906 8.789062 23.96875 10.519531 23.941406 11.382812 Z M 23.207031 12.445312 C 23.199219 12.453125 23.492188 11.933594 23.230469 10.328125 C 23.21875 10.269531 23.839844 11.59375 23.207031 12.445312 Z M 17.769531 5.480469 C 17.886719 5.621094 18.070312 5.714844 18.246094 5.710938 C 18.359375 5.71875 18.476562 5.671875 18.550781 5.574219 C 18.660156 5.421875 18.625 5.210938 18.472656 5.101562 C 18.324219 4.992188 18.109375 5.027344 18 5.175781 C 17.976562 5.210938 17.960938 5.25 17.949219 5.289062 C 17.835938 5.148438 17.789062 4.945312 17.824219 4.726562 C 17.898438 4.253906 18.378906 4.109375 18.757812 4.347656 C 19.183594 4.613281 19.460938 5.238281 19.605469 5.792969 C 19.625 5.902344 19.648438 6.007812 19.679688 6.109375 C 19.914062 6.84375 20.527344 7.417969 21.0625 7.933594 C 21.414062 8.269531 21.683594 8.667969 21.957031 9.074219 C 22.25 9.5 22.457031 9.964844 22.585938 10.449219 C 22.878906 11.5625 22.765625 12.757812 22.378906 13.832031 C 22.121094 14.558594 21.816406 15.164062 21.347656 15.773438 C 21.101562 16.09375 20.53125 16.679688 19.785156 17.628906 C 19.84375 17.648438 19.886719 17.625 19.933594 17.585938 C 20.527344 17.136719 21.027344 16.605469 21.5625 16.085938 C 22.058594 15.597656 22.726562 14.992188 23.464844 14.996094 C 24.414062 15.003906 24.90625 15.984375 24.609375 16.824219 C 24.441406 17.296875 23.949219 17.578125 23.460938 17.359375 C 23.140625 17.21875 23 16.875 23.089844 16.585938 C 23.140625 16.707031 23.261719 16.796875 23.402344 16.796875 C 23.589844 16.796875 23.742188 16.644531 23.742188 16.457031 C 23.742188 16.269531 23.589844 16.121094 23.402344 16.121094 C 23.382812 16.121094 23.367188 16.121094 23.347656 16.125 C 23.339844 16.125 23.332031 16.125 23.324219 16.125 C 22.5625 16.308594 22.789062 17.464844 23.523438 17.644531 C 24.363281 17.851562 24.90625 17.15625 24.949219 16.386719 C 24.988281 15.621094 24.480469 14.886719 23.707031 14.765625 C 23.453125 14.730469 23.210938 14.753906 22.980469 14.820312 C 23.128906 14.707031 23.277344 14.601562 23.441406 14.5 C 23.824219 14.261719 24.207031 14.015625 24.5 13.664062 C 24.808594 13.296875 25.027344 12.847656 25.128906 12.378906 C 25.226562 11.933594 25.261719 11.324219 25.011719 10.921875 C 24.984375 11.253906 24.960938 11.496094 24.789062 11.78125 C 24.710938 11.90625 24.609375 12.019531 24.503906 12.121094 C 24.449219 12.171875 24.253906 12.402344 24.179688 12.402344 C 24.53125 11.574219 24.3125 10.660156 24.074219 9.832031 C 23.84375 9.019531 23.472656 8.105469 23.632812 7.246094 C 23.648438 7.164062 23.667969 7.082031 23.691406 7 C 23.671875 7.070312 23.535156 7.175781 23.492188 7.246094 C 23.4375 7.339844 23.382812 7.433594 23.328125 7.53125 C 23.195312 7.742188 23.09375 7.972656 23.015625 8.210938 C 22.863281 8.679688 22.816406 9.1875 22.882812 9.675781 C 22.859375 9.636719 22.835938 9.597656 22.816406 9.558594 C 22.671875 9.269531 22.546875 8.972656 22.4375 8.667969 C 22.214844 8.023438 21.878906 7.179688 22.15625 6.515625 C 22.136719 6.558594 21.972656 6.65625 21.929688 6.699219 C 21.871094 6.757812 21.808594 6.800781 21.75 6.855469 C 21.617188 6.980469 21.550781 7.15625 21.523438 7.335938 C 21.46875 7.703125 21.59375 8.101562 21.800781 8.40625 C 21.515625 8.046875 21.191406 7.71875 20.875 7.417969 C 20.40625 6.972656 19.792969 6.230469 19.839844 5.53125 C 19.867188 5.085938 20.269531 4.78125 20.695312 5 C 20.894531 5.101562 21.03125 5.253906 21.078125 5.429688 C 21.039062 5.414062 21 5.40625 20.953125 5.40625 C 20.769531 5.40625 20.617188 5.558594 20.617188 5.746094 C 20.617188 5.929688 20.769531 6.082031 20.953125 6.082031 C 21.078125 6.082031 21.183594 6.015625 21.242188 5.917969 C 21.351562 5.777344 21.382812 5.574219 21.335938 5.398438 C 21.261719 5.097656 20.992188 4.839844 20.707031 4.734375 C 20.222656 4.554688 19.824219 4.820312 19.667969 5.222656 C 19.539062 4.871094 19.355469 4.546875 19.078125 4.285156 C 18.601562 3.835938 17.796875 3.878906 17.601562 4.582031 C 17.519531 4.875 17.570312 5.246094 17.769531 5.480469 " fill-opacity="1" fill-rule="nonzero"/><path fill="#dbbe67" d="M 8.171875 7.179688 C 8.167969 7.148438 8.140625 7.136719 8.117188 7.140625 C 8.148438 7.375 8.144531 7.609375 8.09375 7.84375 C 8.101562 7.839844 8.113281 7.835938 8.117188 7.824219 C 8.230469 7.652344 8.195312 7.371094 8.171875 7.179688 " fill-opacity="1" fill-rule="nonzero"/><path fill="#dbbe67" d="M 8.707031 6.992188 C 8.707031 6.910156 8.773438 6.839844 8.855469 6.839844 C 8.941406 6.839844 9.007812 6.910156 9.007812 6.992188 C 9.007812 7.074219 8.941406 7.144531 8.855469 7.144531 C 8.773438 7.144531 8.707031 7.074219 8.707031 6.992188 " fill-opacity="1" fill-rule="nonzero"/><path fill="#dbbe67" d="M 6.09375 15.5625 C 6.09375 15.476562 6.164062 15.410156 6.246094 15.410156 C 6.328125 15.410156 6.398438 15.476562 6.398438 15.5625 C 6.398438 15.644531 6.328125 15.710938 6.246094 15.710938 C 6.164062 15.710938 6.09375 15.644531 6.09375 15.5625 " fill-opacity="1" fill-rule="nonzero"/><path fill="#dbbe67" d="M 5.617188 16.128906 C 5.617188 16.046875 5.683594 15.976562 5.765625 15.976562 C 5.851562 15.976562 5.917969 16.046875 5.917969 16.128906 C 5.917969 16.210938 5.851562 16.28125 5.765625 16.28125 C 5.683594 16.28125 5.617188 16.210938 5.617188 16.128906 " fill-opacity="1" fill-rule="nonzero"/><path fill="#dbbe67" d="M 5.820312 16.933594 C 5.820312 16.851562 5.886719 16.78125 5.972656 16.78125 C 6.054688 16.78125 6.121094 16.851562 6.121094 16.933594 C 6.121094 17.015625 6.054688 17.085938 5.972656 17.085938 C 5.886719 17.085938 5.820312 17.015625 5.820312 16.933594 " fill-opacity="1" fill-rule="nonzero"/><path fill="#dbbe67" d="M 6.910156 15.5625 C 6.910156 15.476562 6.980469 15.410156 7.0625 15.410156 C 7.144531 15.410156 7.214844 15.476562 7.214844 15.5625 C 7.214844 15.644531 7.144531 15.710938 7.0625 15.710938 C 6.980469 15.710938 6.910156 15.644531 6.910156 15.5625 " fill-opacity="1" fill-rule="nonzero"/><path fill="#dbbe67" d="M 7.5625 16.128906 C 7.5625 16.046875 7.628906 15.976562 7.710938 15.976562 C 7.796875 15.976562 7.863281 16.046875 7.863281 16.128906 C 7.863281 16.210938 7.796875 16.28125 7.710938 16.28125 C 7.628906 16.28125 7.5625 16.210938 7.5625 16.128906 " fill-opacity="1" fill-rule="nonzero"/><path fill="#dbbe67" d="M 8.046875 16.691406 C 8.046875 16.605469 8.113281 16.539062 8.195312 16.539062 C 8.28125 16.539062 8.347656 16.605469 8.347656 16.691406 C 8.347656 16.773438 8.28125 16.839844 8.195312 16.839844 C 8.113281 16.839844 8.046875 16.773438 8.046875 16.691406 " fill-opacity="1" fill-rule="nonzero"/><path fill="#dbbe67" d="M 8.707031 17.234375 C 8.707031 17.152344 8.773438 17.085938 8.855469 17.085938 C 8.941406 17.085938 9.007812 17.152344 9.007812 17.234375 C 9.007812 17.320312 8.941406 17.386719 8.855469 17.386719 C 8.773438 17.386719 8.707031 17.320312 8.707031 17.234375 " fill-opacity="1" fill-rule="nonzero"/><path fill="#dbbe67" d="M 9.175781 6.484375 C 9.175781 6.402344 9.242188 6.335938 9.328125 6.335938 C 9.410156 6.335938 9.476562 6.402344 9.476562 6.484375 C 9.476562 6.570312 9.410156 6.636719 9.328125 6.636719 C 9.242188 6.636719 9.175781 6.570312 9.175781 6.484375 " fill-opacity="1" fill-rule="nonzero"/><g clip-path="url(#4dcd83a4f3)"><path fill="#dbbe67" d="M 5.972656 14.390625 C 5.980469 14.417969 5.398438 15.011719 4.796875 14.898438 C 4.195312 14.785156 4.375 14.035156 3.867188 13.921875 C 3.867188 13.921875 4.386719 13.667969 4.921875 14.183594 C 5.375 14.621094 5.972656 14.390625 5.972656 14.390625 " fill-opacity="1" fill-rule="nonzero"/></g><g clip-path="url(#333596b197)"><path fill="#dbbe67" d="M 14.984375 21.957031 C 14.308594 20.71875 14.984375 20.699219 14.984375 20.699219 C 14.984375 20.699219 15.660156 20.71875 14.984375 21.957031 Z M 16.035156 21.1875 C 15.921875 20.96875 15.828125 20.730469 15.65625 20.558594 C 15.480469 20.386719 15.183594 20.273438 14.984375 20.417969 C 14.785156 20.273438 14.492188 20.386719 14.316406 20.558594 C 14.140625 20.730469 14.046875 20.96875 13.9375 21.1875 C 13.824219 21.40625 13.667969 21.628906 13.4375 21.707031 C 13.753906 21.824219 14.128906 21.765625 14.398438 21.554688 C 14.507812 21.914062 14.714844 22.175781 14.984375 22.429688 C 15.257812 22.175781 15.464844 21.914062 15.570312 21.554688 C 15.839844 21.765625 16.214844 21.824219 16.535156 21.707031 C 16.300781 21.628906 16.148438 21.40625 16.035156 21.1875 " fill-opacity="1" fill-rule="nonzero"/></g><path fill="#dbbe67" d="M 10.117188 18.976562 C 8.261719 18.492188 7.203125 19.574219 7.230469 19.53125 C 7.71875 18.769531 8.914062 18.617188 9.730469 18.707031 C 10.996094 18.851562 12.136719 19.527344 13.425781 19.511719 C 13.511719 19.507812 13.304688 19.808594 10.117188 18.976562 Z M 11.113281 19.785156 C 10.074219 19.710938 9.472656 20.257812 9.488281 20.242188 C 10.265625 19.21875 11.328125 19.695312 12.636719 19.835938 C 12.710938 19.84375 12.304688 19.871094 11.113281 19.785156 Z M 8.167969 18.285156 C 8.839844 17.972656 9.660156 18.121094 10.34375 18.320312 C 10.410156 18.339844 9.578125 18.289062 9.203125 18.269531 C 8.859375 18.253906 8.136719 18.300781 8.167969 18.285156 Z M 15.386719 17.6875 C 15.148438 17.371094 14.78125 17.175781 14.382812 17.152344 C 14.097656 17.136719 13.609375 17.230469 13.496094 17.617188 C 13.484375 17.648438 13.480469 17.707031 13.484375 17.765625 C 13.484375 17.769531 13.484375 17.773438 13.484375 17.78125 C 13.484375 17.964844 13.632812 18.117188 13.820312 18.117188 C 14.007812 18.117188 14.160156 17.964844 14.160156 17.78125 C 14.160156 17.59375 14.007812 17.441406 13.820312 17.441406 C 13.804688 17.441406 13.789062 17.445312 13.773438 17.445312 C 14.070312 17.191406 14.65625 17.289062 14.910156 17.554688 C 15.058594 17.710938 15.128906 17.988281 15.113281 18.203125 C 15.09375 18.457031 14.953125 18.679688 14.769531 18.851562 C 14.316406 19.277344 13.78125 19.339844 13.1875 19.226562 C 12.222656 19.039062 11.386719 18.492188 10.503906 18.089844 C 10.144531 17.929688 9.765625 17.769531 9.371094 17.722656 C 8.960938 17.675781 8.53125 17.746094 8.132812 17.839844 C 7.761719 17.925781 7.398438 18.058594 7.070312 18.257812 C 6.796875 18.425781 6.359375 18.738281 6.300781 19.078125 C 6.78125 18.832031 7.355469 18.601562 7.90625 18.601562 C 7.703125 18.605469 7.375 18.875 7.214844 18.992188 C 6.996094 19.15625 6.800781 19.34375 6.625 19.554688 C 6.289062 19.964844 5.953125 20.503906 5.964844 21.054688 C 5.960938 20.976562 6.808594 20.105469 8.585938 19.65625 C 8.761719 19.613281 8.941406 19.601562 9.125 19.589844 C 9.246094 19.585938 9.550781 19.644531 9.652344 19.589844 C 9.324219 19.773438 9.054688 20.046875 8.890625 20.386719 C 8.722656 20.738281 8.597656 21.335938 8.851562 21.679688 C 9.003906 21.390625 9.132812 21.078125 9.382812 20.859375 C 9.59375 20.675781 9.851562 20.558594 10.121094 20.484375 C 10.667969 20.332031 11.242188 20.34375 11.804688 20.34375 C 12.832031 20.351562 14.003906 20.445312 14.886719 19.820312 C 15.546875 19.347656 15.917969 18.394531 15.386719 17.6875 " fill-opacity="1" fill-rule="nonzero"/><path fill="#dbbe67" d="M 13.839844 20.660156 C 13.839844 20.660156 13.089844 20.511719 12.257812 21.136719 C 11.640625 21.59375 11.003906 21.421875 11.003906 21.421875 C 11.003906 21.421875 12.035156 22.203125 12.808594 21.503906 C 13.546875 20.835938 13.839844 20.660156 13.839844 20.660156 " fill-opacity="1" fill-rule="nonzero"/><path fill="#dbbe67" d="M 16.351562 5.925781 C 16.394531 5.871094 16.488281 5.925781 16.523438 5.964844 C 16.578125 6.023438 16.59375 6.113281 16.5625 6.1875 C 16.542969 6.230469 16.472656 6.230469 16.472656 6.175781 C 16.472656 6.109375 16.464844 6.046875 16.414062 6.003906 C 16.398438 5.988281 16.328125 5.953125 16.351562 5.925781 Z M 16.058594 6.148438 C 16.058594 6.332031 16.207031 6.484375 16.394531 6.484375 C 16.582031 6.484375 16.734375 6.332031 16.734375 6.148438 C 16.734375 5.960938 16.582031 5.808594 16.394531 5.808594 C 16.207031 5.808594 16.058594 5.960938 16.058594 6.148438 " fill-opacity="1" fill-rule="nonzero"/><path fill="#dbbe67" d="M 17.664062 6.332031 C 17.730469 6.320312 17.796875 6.371094 17.835938 6.421875 C 17.882812 6.488281 17.890625 6.558594 17.878906 6.636719 C 17.875 6.675781 17.8125 6.671875 17.804688 6.636719 C 17.792969 6.582031 17.777344 6.527344 17.75 6.480469 C 17.722656 6.4375 17.675781 6.414062 17.648438 6.371094 C 17.636719 6.359375 17.648438 6.332031 17.664062 6.332031 Z M 17.378906 6.644531 C 17.425781 6.824219 17.609375 6.933594 17.789062 6.886719 C 17.96875 6.839844 18.082031 6.65625 18.035156 6.476562 C 17.988281 6.296875 17.804688 6.1875 17.625 6.230469 C 17.441406 6.277344 17.332031 6.460938 17.378906 6.644531 " fill-opacity="1" fill-rule="nonzero"/><path fill="#dbbe67" d="M 18.875 6.976562 C 18.941406 6.960938 19.011719 7.015625 19.046875 7.070312 C 19.09375 7.136719 19.101562 7.207031 19.074219 7.285156 C 19.0625 7.320312 19 7.320312 19 7.273438 C 19.003906 7.226562 18.992188 7.167969 18.96875 7.125 C 18.941406 7.082031 18.898438 7.0625 18.863281 7.027344 C 18.847656 7.011719 18.855469 6.984375 18.875 6.976562 Z M 18.554688 7.234375 C 18.554688 7.421875 18.707031 7.574219 18.894531 7.574219 C 19.082031 7.574219 19.230469 7.421875 19.230469 7.234375 C 19.230469 7.046875 19.082031 6.898438 18.894531 6.898438 C 18.707031 6.898438 18.554688 7.046875 18.554688 7.234375 " fill-opacity="1" fill-rule="nonzero"/><path fill="#dbbe67" d="M 19.855469 7.828125 C 19.917969 7.792969 19.996094 7.824219 20.042969 7.871094 C 20.101562 7.925781 20.121094 7.996094 20.109375 8.074219 C 20.101562 8.121094 20.03125 8.117188 20.023438 8.074219 C 20.011719 8.03125 19.996094 7.984375 19.964844 7.949219 C 19.933594 7.910156 19.894531 7.902344 19.855469 7.875 C 19.839844 7.863281 19.835938 7.839844 19.855469 7.828125 Z M 19.566406 8.035156 C 19.566406 8.21875 19.71875 8.371094 19.90625 8.371094 C 20.089844 8.371094 20.242188 8.21875 20.242188 8.035156 C 20.242188 7.847656 20.089844 7.695312 19.90625 7.695312 C 19.71875 7.695312 19.566406 7.847656 19.566406 8.035156 " fill-opacity="1" fill-rule="nonzero"/><path fill="#dbbe67" d="M 20.726562 8.742188 C 20.773438 8.71875 20.828125 8.75 20.859375 8.78125 C 20.914062 8.828125 20.933594 8.890625 20.914062 8.957031 C 20.90625 9 20.851562 8.984375 20.851562 8.949219 C 20.839844 8.863281 20.792969 8.832031 20.726562 8.789062 C 20.710938 8.777344 20.707031 8.75 20.726562 8.742188 Z M 20.371094 8.980469 C 20.371094 9.167969 20.519531 9.320312 20.707031 9.320312 C 20.894531 9.320312 21.046875 9.167969 21.046875 8.980469 C 21.046875 8.796875 20.894531 8.644531 20.707031 8.644531 C 20.519531 8.644531 20.371094 8.796875 20.371094 8.980469 " fill-opacity="1" fill-rule="nonzero"/><path fill="#dbbe67" d="M 21.417969 9.925781 C 21.535156 9.921875 21.601562 10.046875 21.589844 10.148438 C 21.585938 10.179688 21.535156 10.191406 21.527344 10.15625 C 21.523438 10.117188 21.507812 10.074219 21.484375 10.042969 C 21.464844 10.007812 21.429688 9.992188 21.402344 9.964844 C 21.386719 9.953125 21.398438 9.929688 21.417969 9.925781 Z M 21.046875 10.164062 C 21.046875 10.351562 21.195312 10.503906 21.382812 10.503906 C 21.570312 10.503906 21.722656 10.351562 21.722656 10.164062 C 21.722656 9.976562 21.570312 9.828125 21.382812 9.828125 C 21.195312 9.828125 21.046875 9.976562 21.046875 10.164062 " fill-opacity="1" fill-rule="nonzero"/><path fill="#dbbe67" d="M 21.828125 11.339844 C 21.886719 11.332031 21.949219 11.386719 21.980469 11.433594 C 22.019531 11.488281 22.035156 11.558594 22.007812 11.621094 C 21.996094 11.660156 21.933594 11.667969 21.925781 11.621094 C 21.917969 11.578125 21.914062 11.527344 21.890625 11.484375 C 21.863281 11.445312 21.824219 11.425781 21.800781 11.386719 C 21.785156 11.367188 21.804688 11.34375 21.828125 11.339844 Z M 21.472656 11.59375 C 21.472656 11.78125 21.625 11.933594 21.808594 11.933594 C 21.996094 11.933594 22.148438 11.78125 22.148438 11.59375 C 22.148438 11.40625 21.996094 11.257812 21.808594 11.257812 C 21.625 11.257812 21.472656 11.40625 21.472656 11.59375 " fill-opacity="1" fill-rule="nonzero"/><path fill="#dbbe67" d="M 21.929688 12.730469 C 22.074219 12.675781 22.175781 12.851562 22.148438 12.972656 C 22.136719 13.011719 22.082031 13.011719 22.070312 12.972656 C 22.058594 12.933594 22.050781 12.890625 22.023438 12.855469 C 21.996094 12.824219 21.957031 12.816406 21.921875 12.796875 C 21.890625 12.78125 21.90625 12.742188 21.929688 12.730469 Z M 21.601562 12.953125 C 21.601562 13.140625 21.753906 13.292969 21.941406 13.292969 C 22.128906 13.292969 22.28125 13.140625 22.28125 12.953125 C 22.28125 12.765625 22.128906 12.617188 21.941406 12.617188 C 21.753906 12.617188 21.601562 12.765625 21.601562 12.953125 " fill-opacity="1" fill-rule="nonzero"/><path fill="#dbbe67" d="M 21.285156 6.992188 C 21.285156 6.910156 21.21875 6.839844 21.132812 6.839844 C 21.050781 6.839844 20.984375 6.910156 20.984375 6.992188 C 20.984375 7.074219 21.050781 7.144531 21.132812 7.144531 C 21.21875 7.144531 21.285156 7.074219 21.285156 6.992188 " fill-opacity="1" fill-rule="nonzero"/><path fill="#dbbe67" d="M 23.894531 15.5625 C 23.894531 15.476562 23.828125 15.410156 23.746094 15.410156 C 23.660156 15.410156 23.59375 15.476562 23.59375 15.5625 C 23.59375 15.644531 23.660156 15.710938 23.746094 15.710938 C 23.828125 15.710938 23.894531 15.644531 23.894531 15.5625 " fill-opacity="1" fill-rule="nonzero"/><path fill="#dbbe67" d="M 24.375 16.128906 C 24.375 16.046875 24.308594 15.976562 24.222656 15.976562 C 24.140625 15.976562 24.074219 16.046875 24.074219 16.128906 C 24.074219 16.210938 24.140625 16.28125 24.222656 16.28125 C 24.308594 16.28125 24.375 16.210938 24.375 16.128906 " fill-opacity="1" fill-rule="nonzero"/><path fill="#dbbe67" d="M 24.171875 16.933594 C 24.171875 16.851562 24.101562 16.78125 24.019531 16.78125 C 23.9375 16.78125 23.867188 16.851562 23.867188 16.933594 C 23.867188 17.015625 23.9375 17.085938 24.019531 17.085938 C 24.101562 17.085938 24.171875 17.015625 24.171875 16.933594 " fill-opacity="1" fill-rule="nonzero"/><path fill="#dbbe67" d="M 23.078125 15.5625 C 23.078125 15.476562 23.011719 15.410156 22.929688 15.410156 C 22.84375 15.410156 22.777344 15.476562 22.777344 15.5625 C 22.777344 15.644531 22.84375 15.710938 22.929688 15.710938 C 23.011719 15.710938 23.078125 15.644531 23.078125 15.5625 " fill-opacity="1" fill-rule="nonzero"/><path fill="#dbbe67" d="M 22.429688 16.128906 C 22.429688 16.046875 22.363281 15.976562 22.28125 15.976562 C 22.195312 15.976562 22.128906 16.046875 22.128906 16.128906 C 22.128906 16.210938 22.195312 16.28125 22.28125 16.28125 C 22.363281 16.28125 22.429688 16.210938 22.429688 16.128906 " fill-opacity="1" fill-rule="nonzero"/><path fill="#dbbe67" d="M 21.945312 16.691406 C 21.945312 16.605469 21.878906 16.539062 21.792969 16.539062 C 21.710938 16.539062 21.644531 16.605469 21.644531 16.691406 C 21.644531 16.773438 21.710938 16.839844 21.792969 16.839844 C 21.878906 16.839844 21.945312 16.773438 21.945312 16.691406 " fill-opacity="1" fill-rule="nonzero"/><path fill="#dbbe67" d="M 21.285156 17.234375 C 21.285156 17.152344 21.21875 17.085938 21.132812 17.085938 C 21.050781 17.085938 20.984375 17.152344 20.984375 17.234375 C 20.984375 17.320312 21.050781 17.386719 21.132812 17.386719 C 21.21875 17.386719 21.285156 17.320312 21.285156 17.234375 " fill-opacity="1" fill-rule="nonzero"/><path fill="#dbbe67" d="M 20.816406 6.484375 C 20.816406 6.402344 20.746094 6.335938 20.664062 6.335938 C 20.582031 6.335938 20.511719 6.402344 20.511719 6.484375 C 20.511719 6.570312 20.582031 6.636719 20.664062 6.636719 C 20.746094 6.636719 20.816406 6.570312 20.816406 6.484375 " fill-opacity="1" fill-rule="nonzero"/><g clip-path="url(#4796c6b989)"><path fill="#dbbe67" d="M 24.019531 14.390625 C 24.011719 14.417969 24.59375 15.011719 25.191406 14.898438 C 25.792969 14.785156 25.617188 14.035156 26.121094 13.921875 C 26.121094 13.921875 25.605469 13.667969 25.070312 14.183594 C 24.617188 14.621094 24.019531 14.390625 24.019531 14.390625 " fill-opacity="1" fill-rule="nonzero"/></g><path fill="#dbbe67" d="M 16.511719 19.511719 C 17.804688 19.527344 18.941406 18.851562 20.207031 18.707031 C 21.027344 18.617188 22.222656 18.769531 22.707031 19.53125 C 22.734375 19.574219 21.679688 18.492188 19.824219 18.976562 C 16.632812 19.808594 16.429688 19.507812 16.511719 19.511719 Z M 17.300781 19.835938 C 18.609375 19.695312 19.675781 19.21875 20.453125 20.242188 C 20.464844 20.257812 19.863281 19.710938 18.828125 19.785156 C 17.636719 19.871094 17.230469 19.84375 17.300781 19.835938 Z M 20.734375 18.269531 C 20.363281 18.289062 19.53125 18.339844 19.597656 18.320312 C 20.277344 18.121094 21.097656 17.972656 21.769531 18.285156 C 21.800781 18.300781 21.082031 18.253906 20.734375 18.269531 Z M 15.050781 19.820312 C 15.9375 20.445312 17.109375 20.351562 18.136719 20.34375 C 18.699219 20.34375 19.273438 20.332031 19.820312 20.484375 C 20.085938 20.558594 20.347656 20.675781 20.558594 20.859375 C 20.804688 21.078125 20.933594 21.390625 21.089844 21.679688 C 21.339844 21.335938 21.214844 20.738281 21.046875 20.386719 C 20.882812 20.046875 20.613281 19.773438 20.289062 19.589844 C 20.386719 19.644531 20.695312 19.585938 20.816406 19.589844 C 20.996094 19.601562 21.179688 19.613281 21.351562 19.65625 C 23.132812 20.105469 23.976562 20.976562 23.976562 21.054688 C 23.984375 20.503906 23.652344 19.964844 23.3125 19.554688 C 23.140625 19.34375 22.941406 19.15625 22.722656 18.992188 C 22.566406 18.875 22.238281 18.605469 22.035156 18.601562 C 22.582031 18.601562 23.15625 18.832031 23.636719 19.078125 C 23.578125 18.738281 23.140625 18.425781 22.867188 18.257812 C 22.542969 18.058594 22.175781 17.925781 21.804688 17.839844 C 21.40625 17.746094 20.976562 17.675781 20.570312 17.722656 C 20.171875 17.769531 19.796875 17.929688 19.433594 18.089844 C 18.550781 18.492188 17.71875 19.039062 16.75 19.226562 C 16.160156 19.339844 15.625 19.277344 15.167969 18.851562 C 14.984375 18.679688 14.84375 18.457031 14.824219 18.203125 C 14.808594 17.988281 14.878906 17.710938 15.027344 17.554688 C 15.28125 17.289062 15.867188 17.191406 16.164062 17.445312 C 16.148438 17.445312 16.132812 17.441406 16.117188 17.441406 C 15.933594 17.441406 15.78125 17.59375 15.78125 17.78125 C 15.78125 17.964844 15.933594 18.117188 16.117188 18.117188 C 16.304688 18.117188 16.457031 17.964844 16.457031 17.78125 C 16.457031 17.773438 16.457031 17.769531 16.453125 17.765625 C 16.457031 17.707031 16.453125 17.648438 16.445312 17.617188 C 16.328125 17.230469 15.839844 17.136719 15.554688 17.152344 C 15.15625 17.175781 14.792969 17.371094 14.550781 17.6875 C 14.019531 18.394531 14.394531 19.347656 15.050781 19.820312 " fill-opacity="1" fill-rule="nonzero"/><path fill="#dbbe67" d="M 16.152344 20.660156 C 16.152344 20.660156 16.902344 20.511719 17.734375 21.136719 C 18.347656 21.59375 18.984375 21.421875 18.984375 21.421875 C 18.984375 21.421875 17.953125 22.203125 17.179688 21.503906 C 16.441406 20.835938 16.152344 20.660156 16.152344 20.660156 " fill-opacity="1" fill-rule="nonzero"/><path fill="#dbbe67" d="M 14.96875 6.777344 C 11.566406 6.777344 8.792969 9.546875 8.792969 12.953125 C 8.792969 16.046875 11.082031 18.617188 14.050781 19.058594 C 14.058594 19.0625 14.066406 19.0625 14.070312 19.0625 C 14.105469 19.0625 14.136719 19.035156 14.136719 19 C 14.136719 18.96875 14.109375 18.941406 14.078125 18.9375 C 11.171875 18.5 8.917969 15.980469 8.917969 12.953125 C 8.917969 9.617188 11.632812 6.902344 14.96875 6.902344 C 18.304688 6.902344 21.019531 9.617188 21.019531 12.953125 C 21.019531 16 18.785156 18.519531 15.855469 18.9375 C 15.8125 18.9375 15.785156 18.964844 15.785156 19 C 15.785156 19.035156 15.8125 19.0625 15.847656 19.0625 C 18.84375 18.640625 21.144531 16.0625 21.144531 12.953125 C 21.144531 9.546875 18.375 6.777344 14.96875 6.777344 " fill-opacity="1" fill-rule="nonzero"/><g clip-path="url(#a6373d0ea3)"><path fill="#dbbe67" d="M 16.351562 4.59375 C 16.292969 4.59375 16.246094 4.550781 16.246094 4.492188 C 16.246094 4.433594 16.292969 4.386719 16.351562 4.386719 C 16.410156 4.386719 16.457031 4.433594 16.457031 4.492188 C 16.457031 4.550781 16.410156 4.59375 16.351562 4.59375 Z M 15.878906 4.59375 C 15.820312 4.59375 15.773438 4.550781 15.773438 4.492188 C 15.773438 4.433594 15.820312 4.386719 15.878906 4.386719 C 15.9375 4.386719 15.984375 4.433594 15.984375 4.492188 C 15.984375 4.550781 15.9375 4.59375 15.878906 4.59375 Z M 15.40625 4.59375 C 15.347656 4.59375 15.300781 4.550781 15.300781 4.492188 C 15.300781 4.433594 15.347656 4.386719 15.40625 4.386719 C 15.460938 4.386719 15.511719 4.433594 15.511719 4.492188 C 15.511719 4.550781 15.460938 4.59375 15.40625 4.59375 Z M 14.9375 4.59375 C 14.882812 4.589844 14.839844 4.546875 14.839844 4.492188 C 14.839844 4.433594 14.882812 4.390625 14.9375 4.386719 C 14.992188 4.390625 15.039062 4.433594 15.039062 4.492188 C 15.039062 4.546875 14.992188 4.589844 14.9375 4.59375 Z M 14.472656 4.59375 C 14.414062 4.59375 14.367188 4.550781 14.367188 4.492188 C 14.367188 4.433594 14.414062 4.386719 14.472656 4.386719 C 14.53125 4.386719 14.578125 4.433594 14.578125 4.492188 C 14.578125 4.550781 14.53125 4.59375 14.472656 4.59375 Z M 14 4.59375 C 13.941406 4.59375 13.894531 4.550781 13.894531 4.492188 C 13.894531 4.433594 13.941406 4.386719 14 4.386719 C 14.058594 4.386719 14.105469 4.433594 14.105469 4.492188 C 14.105469 4.550781 14.058594 4.59375 14 4.59375 Z M 13.527344 4.59375 C 13.46875 4.59375 13.421875 4.550781 13.421875 4.492188 C 13.421875 4.433594 13.46875 4.386719 13.527344 4.386719 C 13.585938 4.386719 13.632812 4.433594 13.632812 4.492188 C 13.632812 4.550781 13.585938 4.59375 13.527344 4.59375 Z M 16.199219 3.070312 C 16.167969 3.171875 16.175781 3.28125 16.214844 3.382812 C 16.277344 3.550781 16.351562 3.859375 16.089844 4.039062 C 15.722656 4.292969 15.363281 3.964844 15.292969 3.589844 C 15.226562 3.207031 15.316406 2.929688 15.617188 2.839844 C 15.917969 2.746094 14.933594 1.144531 14.933594 1.144531 C 14.933594 1.144531 13.960938 2.746094 14.261719 2.839844 C 14.5625 2.929688 14.652344 3.207031 14.582031 3.589844 C 14.515625 3.964844 14.15625 4.292969 13.789062 4.039062 C 13.527344 3.859375 13.597656 3.550781 13.664062 3.382812 C 13.703125 3.28125 13.710938 3.171875 13.675781 3.070312 C 13.425781 2.285156 12.253906 2.296875 12.253906 2.296875 C 13.394531 3.878906 13.382812 4.777344 13.382812 4.777344 L 16.496094 4.777344 C 16.496094 4.777344 16.480469 3.878906 17.625 2.296875 C 17.625 2.296875 16.453125 2.285156 16.199219 3.070312 " fill-opacity="1" fill-rule="nonzero"/></g><path fill="#dbbe67" d="M 16.316406 4.996094 L 13.5625 4.996094 C 13.46875 4.996094 13.394531 5.070312 13.394531 5.164062 C 13.394531 5.257812 13.46875 5.332031 13.5625 5.332031 L 16.316406 5.332031 C 16.40625 5.332031 16.484375 5.257812 16.484375 5.164062 C 16.484375 5.070312 16.40625 4.996094 16.316406 4.996094 " fill-opacity="1" fill-rule="nonzero"/><g mask="url(#8bd3e1d10d)"><g transform="matrix(1, 0, 0, 1, 9, 7)"><g clip-path="url(#3d11510d5c)"><g clip-path="url(#a1a93f110b)"><path fill="#dbbe67" d="M 5.996094 11.199219 C 5.972656 11.199219 5.953125 11.179688 5.953125 11.15625 L 5.953125 0.941406 C 5.953125 0.921875 5.972656 0.902344 5.996094 0.902344 C 6.019531 0.902344 6.035156 0.921875 6.035156 0.941406 L 6.035156 11.15625 C 6.035156 11.179688 6.019531 11.199219 5.996094 11.199219 Z M 5.996094 11.199219 " fill-opacity="1" fill-rule="nonzero"/><path fill="#dbbe67" d="M 6.882812 11.121094 C 6.863281 11.121094 6.847656 11.105469 6.84375 11.085938 L 5.070312 1.027344 C 5.066406 1.003906 5.078125 0.984375 5.101562 0.980469 C 5.125 0.976562 5.144531 0.992188 5.148438 1.011719 L 6.921875 11.074219 C 6.925781 11.09375 6.910156 11.117188 6.890625 11.121094 C 6.886719 11.121094 6.886719 11.121094 6.882812 11.121094 Z M 6.882812 11.121094 " fill-opacity="1" fill-rule="nonzero"/><path fill="#dbbe67" d="M 6.882812 11.121094 C 6.863281 11.121094 6.847656 11.105469 6.84375 11.085938 L 5.070312 1.027344 C 5.066406 1.003906 5.078125 0.984375 5.101562 0.980469 C 5.125 0.976562 5.144531 0.992188 5.148438 1.011719 L 6.921875 11.074219 C 6.925781 11.09375 6.910156 11.117188 6.890625 11.121094 C 6.886719 11.121094 6.886719 11.121094 6.882812 11.121094 Z M 6.882812 11.121094 " fill-opacity="1" fill-rule="nonzero"/></g><path fill="#dbbe67" d="M 7.742188 10.890625 C 7.726562 10.890625 7.710938 10.878906 7.703125 10.863281 L 4.210938 1.265625 C 4.203125 1.242188 4.214844 1.21875 4.234375 1.210938 C 4.257812 1.203125 4.28125 1.214844 4.289062 1.238281 L 7.78125 10.835938 C 7.789062 10.855469 7.777344 10.878906 7.757812 10.886719 C 7.753906 10.890625 7.746094 10.890625 7.742188 10.890625 Z M 7.742188 10.890625 " fill-opacity="1" fill-rule="nonzero"/><path fill="#dbbe67" d="M 7.742188 10.890625 C 7.726562 10.890625 7.710938 10.878906 7.703125 10.863281 L 4.210938 1.265625 C 4.203125 1.242188 4.214844 1.21875 4.234375 1.210938 C 4.257812 1.203125 4.28125 1.214844 4.289062 1.238281 L 7.78125 10.835938 C 7.789062 10.855469 7.777344 10.878906 7.757812 10.886719 C 7.753906 10.890625 7.746094 10.890625 7.742188 10.890625 Z M 7.742188 10.890625 " fill-opacity="1" fill-rule="nonzero"/><path fill="#dbbe67" d="M 8.550781 10.515625 C 8.535156 10.515625 8.523438 10.507812 8.515625 10.492188 L 3.40625 1.648438 C 3.394531 1.628906 3.402344 1.601562 3.421875 1.589844 C 3.441406 1.582031 3.464844 1.585938 3.476562 1.605469 L 8.585938 10.453125 C 8.597656 10.472656 8.589844 10.496094 8.570312 10.507812 C 8.5625 10.511719 8.554688 10.515625 8.550781 10.515625 Z M 8.550781 10.515625 " fill-opacity="1" fill-rule="nonzero"/><path fill="#dbbe67" d="M 8.550781 10.515625 C 8.535156 10.515625 8.523438 10.507812 8.515625 10.492188 L 3.40625 1.648438 C 3.394531 1.628906 3.402344 1.601562 3.421875 1.589844 C 3.441406 1.582031 3.464844 1.585938 3.476562 1.605469 L 8.585938 10.453125 C 8.597656 10.472656 8.589844 10.496094 8.570312 10.507812 C 8.5625 10.511719 8.554688 10.515625 8.550781 10.515625 Z M 8.550781 10.515625 " fill-opacity="1" fill-rule="nonzero"/><path fill="#dbbe67" d="M 9.277344 10.003906 C 9.265625 10.003906 9.253906 10 9.246094 9.988281 L 2.679688 2.164062 C 2.667969 2.144531 2.667969 2.121094 2.6875 2.105469 C 2.703125 2.089844 2.730469 2.09375 2.742188 2.109375 L 9.308594 9.9375 C 9.324219 9.953125 9.324219 9.980469 9.304688 9.996094 C 9.296875 10 9.289062 10.003906 9.277344 10.003906 Z M 9.277344 10.003906 " fill-opacity="1" fill-rule="nonzero"/><path fill="#dbbe67" d="M 9.277344 10.003906 C 9.265625 10.003906 9.253906 10 9.246094 9.988281 L 2.679688 2.164062 C 2.667969 2.144531 2.667969 2.121094 2.6875 2.105469 C 2.703125 2.089844 2.730469 2.09375 2.742188 2.109375 L 9.308594 9.9375 C 9.324219 9.953125 9.324219 9.980469 9.304688 9.996094 C 9.296875 10 9.289062 10.003906 9.277344 10.003906 Z M 9.277344 10.003906 " fill-opacity="1" fill-rule="nonzero"/><path fill="#dbbe67" d="M 9.910156 9.375 C 9.898438 9.375 9.890625 9.371094 9.882812 9.363281 L 2.058594 2.796875 C 2.039062 2.785156 2.039062 2.757812 2.050781 2.742188 C 2.066406 2.722656 2.09375 2.722656 2.109375 2.734375 L 9.933594 9.300781 C 9.953125 9.316406 9.953125 9.34375 9.941406 9.359375 C 9.933594 9.371094 9.921875 9.375 9.910156 9.375 Z M 9.910156 9.375 " fill-opacity="1" fill-rule="nonzero"/><path fill="#dbbe67" d="M 9.910156 9.375 C 9.898438 9.375 9.890625 9.371094 9.882812 9.363281 L 2.058594 2.796875 C 2.039062 2.785156 2.039062 2.757812 2.050781 2.742188 C 2.066406 2.722656 2.09375 2.722656 2.109375 2.734375 L 9.933594 9.300781 C 9.953125 9.316406 9.953125 9.34375 9.941406 9.359375 C 9.933594 9.371094 9.921875 9.375 9.910156 9.375 Z M 9.910156 9.375 " fill-opacity="1" fill-rule="nonzero"/><path fill="#dbbe67" d="M 10.417969 8.644531 C 10.414062 8.644531 10.40625 8.644531 10.398438 8.640625 L 1.550781 3.53125 C 1.53125 3.519531 1.527344 3.496094 1.535156 3.476562 C 1.546875 3.457031 1.574219 3.449219 1.59375 3.460938 L 10.441406 8.570312 C 10.460938 8.578125 10.464844 8.605469 10.453125 8.625 C 10.445312 8.636719 10.433594 8.644531 10.417969 8.644531 Z M 10.417969 8.644531 " fill-opacity="1" fill-rule="nonzero"/><path fill="#dbbe67" d="M 10.417969 8.644531 C 10.414062 8.644531 10.40625 8.644531 10.398438 8.640625 L 1.550781 3.53125 C 1.53125 3.519531 1.527344 3.496094 1.535156 3.476562 C 1.546875 3.457031 1.574219 3.449219 1.59375 3.460938 L 10.441406 8.570312 C 10.460938 8.578125 10.464844 8.605469 10.453125 8.625 C 10.445312 8.636719 10.433594 8.644531 10.417969 8.644531 Z M 10.417969 8.644531 " fill-opacity="1" fill-rule="nonzero"/><path fill="#dbbe67" d="M 10.796875 7.839844 C 10.789062 7.839844 10.785156 7.835938 10.78125 7.835938 L 1.183594 4.339844 C 1.160156 4.332031 1.148438 4.308594 1.15625 4.289062 C 1.164062 4.269531 1.1875 4.257812 1.210938 4.265625 L 10.808594 7.757812 C 10.832031 7.765625 10.839844 7.789062 10.832031 7.8125 C 10.828125 7.828125 10.8125 7.839844 10.796875 7.839844 Z M 10.796875 7.839844 " fill-opacity="1" fill-rule="nonzero"/><path fill="#dbbe67" d="M 10.796875 7.839844 C 10.789062 7.839844 10.785156 7.835938 10.78125 7.835938 L 1.183594 4.339844 C 1.160156 4.332031 1.148438 4.308594 1.15625 4.289062 C 1.164062 4.269531 1.1875 4.257812 1.210938 4.265625 L 10.808594 7.757812 C 10.832031 7.765625 10.839844 7.789062 10.832031 7.8125 C 10.828125 7.828125 10.8125 7.839844 10.796875 7.839844 Z M 10.796875 7.839844 " fill-opacity="1" fill-rule="nonzero"/><g clip-path="url(#b6941c762e)"><path fill="#dbbe67" d="M 11.027344 6.976562 C 11.023438 6.976562 11.019531 6.976562 11.019531 6.976562 L 0.957031 5.203125 C 0.9375 5.199219 0.921875 5.179688 0.925781 5.15625 C 0.929688 5.132812 0.949219 5.117188 0.972656 5.121094 L 11.03125 6.898438 C 11.054688 6.902344 11.070312 6.921875 11.066406 6.945312 C 11.0625 6.964844 11.046875 6.976562 11.027344 6.976562 Z M 11.027344 6.976562 " fill-opacity="1" fill-rule="nonzero"/><path fill="#dbbe67" d="M 11.027344 6.976562 C 11.023438 6.976562 11.019531 6.976562 11.019531 6.976562 L 0.957031 5.203125 C 0.9375 5.199219 0.921875 5.179688 0.925781 5.15625 C 0.929688 5.132812 0.949219 5.117188 0.972656 5.121094 L 11.03125 6.898438 C 11.054688 6.902344 11.070312 6.921875 11.066406 6.945312 C 11.0625 6.964844 11.046875 6.976562 11.027344 6.976562 Z M 11.027344 6.976562 " fill-opacity="1" fill-rule="nonzero"/></g><g clip-path="url(#8abdedb81b)"><path fill="#dbbe67" d="M 11.101562 6.089844 L 0.886719 6.089844 C 0.867188 6.089844 0.847656 6.074219 0.847656 6.050781 C 0.847656 6.027344 0.867188 6.007812 0.886719 6.007812 L 11.101562 6.007812 C 11.125 6.007812 11.144531 6.027344 11.144531 6.050781 C 11.144531 6.074219 11.125 6.089844 11.101562 6.089844 Z M 11.101562 6.089844 " fill-opacity="1" fill-rule="nonzero"/><path fill="#dbbe67" d="M 11.101562 6.089844 L 0.886719 6.089844 C 0.867188 6.089844 0.847656 6.074219 0.847656 6.050781 C 0.847656 6.027344 0.867188 6.007812 0.886719 6.007812 L 11.101562 6.007812 C 11.125 6.007812 11.144531 6.027344 11.144531 6.050781 C 11.144531 6.074219 11.125 6.089844 11.101562 6.089844 Z M 11.101562 6.089844 " fill-opacity="1" fill-rule="nonzero"/></g><g clip-path="url(#27f2af63c5)"><path fill="#dbbe67" d="M 0.964844 6.976562 C 0.945312 6.976562 0.929688 6.964844 0.925781 6.945312 C 0.921875 6.921875 0.9375 6.902344 0.957031 6.898438 L 11.019531 5.121094 C 11.039062 5.117188 11.0625 5.132812 11.066406 5.15625 C 11.070312 5.179688 11.054688 5.199219 11.03125 5.203125 L 0.972656 6.976562 C 0.96875 6.976562 0.96875 6.976562 0.964844 6.976562 Z M 0.964844 6.976562 " fill-opacity="1" fill-rule="nonzero"/><path fill="#dbbe67" d="M 0.964844 6.976562 C 0.945312 6.976562 0.929688 6.964844 0.925781 6.945312 C 0.921875 6.921875 0.9375 6.902344 0.957031 6.898438 L 11.019531 5.121094 C 11.039062 5.117188 11.0625 5.132812 11.066406 5.15625 C 11.070312 5.179688 11.054688 5.199219 11.03125 5.203125 L 0.972656 6.976562 C 0.96875 6.976562 0.96875 6.976562 0.964844 6.976562 Z M 0.964844 6.976562 " fill-opacity="1" fill-rule="nonzero"/></g><path fill="#dbbe67" d="M 1.195312 7.839844 C 1.179688 7.839844 1.164062 7.828125 1.15625 7.8125 C 1.148438 7.789062 1.160156 7.765625 1.183594 7.757812 L 10.78125 4.265625 C 10.800781 4.257812 10.824219 4.269531 10.832031 4.289062 C 10.839844 4.308594 10.832031 4.332031 10.808594 4.339844 L 1.210938 7.835938 C 1.207031 7.835938 1.199219 7.839844 1.195312 7.839844 Z M 1.195312 7.839844 " fill-opacity="1" fill-rule="nonzero"/><path fill="#dbbe67" d="M 1.195312 7.839844 C 1.179688 7.839844 1.164062 7.828125 1.15625 7.8125 C 1.148438 7.789062 1.160156 7.765625 1.183594 7.757812 L 10.78125 4.265625 C 10.800781 4.257812 10.824219 4.269531 10.832031 4.289062 C 10.839844 4.308594 10.832031 4.332031 10.808594 4.339844 L 1.210938 7.835938 C 1.207031 7.835938 1.199219 7.839844 1.195312 7.839844 Z M 1.195312 7.839844 " fill-opacity="1" fill-rule="nonzero"/><path fill="#dbbe67" d="M 1.574219 8.644531 C 1.558594 8.644531 1.542969 8.636719 1.535156 8.625 C 1.527344 8.605469 1.53125 8.578125 1.550781 8.570312 L 10.398438 3.460938 C 10.417969 3.449219 10.441406 3.457031 10.453125 3.476562 C 10.464844 3.496094 10.460938 3.519531 10.441406 3.53125 L 1.59375 8.640625 C 1.585938 8.644531 1.578125 8.644531 1.574219 8.644531 Z M 1.574219 8.644531 " fill-opacity="1" fill-rule="nonzero"/><path fill="#dbbe67" d="M 1.574219 8.644531 C 1.558594 8.644531 1.542969 8.636719 1.535156 8.625 C 1.527344 8.605469 1.53125 8.578125 1.550781 8.570312 L 10.398438 3.460938 C 10.417969 3.449219 10.441406 3.457031 10.453125 3.476562 C 10.464844 3.496094 10.460938 3.519531 10.441406 3.53125 L 1.59375 8.640625 C 1.585938 8.644531 1.578125 8.644531 1.574219 8.644531 Z M 1.574219 8.644531 " fill-opacity="1" fill-rule="nonzero"/><path fill="#dbbe67" d="M 2.082031 9.375 C 2.070312 9.375 2.058594 9.371094 2.050781 9.359375 C 2.039062 9.34375 2.039062 9.316406 2.058594 9.300781 L 9.882812 2.734375 C 9.898438 2.722656 9.925781 2.722656 9.941406 2.742188 C 9.953125 2.757812 9.953125 2.785156 9.933594 2.796875 L 2.109375 9.363281 C 2.101562 9.371094 2.09375 9.375 2.082031 9.375 Z M 2.082031 9.375 " fill-opacity="1" fill-rule="nonzero"/><path fill="#dbbe67" d="M 2.082031 9.375 C 2.070312 9.375 2.058594 9.371094 2.050781 9.359375 C 2.039062 9.34375 2.039062 9.316406 2.058594 9.300781 L 9.882812 2.734375 C 9.898438 2.722656 9.925781 2.722656 9.941406 2.742188 C 9.953125 2.757812 9.953125 2.785156 9.933594 2.796875 L 2.109375 9.363281 C 2.101562 9.371094 2.09375 9.375 2.082031 9.375 Z M 2.082031 9.375 " fill-opacity="1" fill-rule="nonzero"/><path fill="#dbbe67" d="M 2.710938 10.003906 C 2.703125 10.003906 2.695312 10 2.6875 9.996094 C 2.667969 9.980469 2.667969 9.953125 2.679688 9.9375 L 9.246094 2.109375 C 9.261719 2.09375 9.289062 2.089844 9.304688 2.105469 C 9.324219 2.121094 9.324219 2.144531 9.308594 2.164062 L 2.742188 9.988281 C 2.734375 10 2.722656 10.003906 2.710938 10.003906 Z M 2.710938 10.003906 " fill-opacity="1" fill-rule="nonzero"/><path fill="#dbbe67" d="M 2.710938 10.003906 C 2.703125 10.003906 2.695312 10 2.6875 9.996094 C 2.667969 9.980469 2.667969 9.953125 2.679688 9.9375 L 9.246094 2.109375 C 9.261719 2.09375 9.289062 2.089844 9.304688 2.105469 C 9.324219 2.121094 9.324219 2.144531 9.308594 2.164062 L 2.742188 9.988281 C 2.734375 10 2.722656 10.003906 2.710938 10.003906 Z M 2.710938 10.003906 " fill-opacity="1" fill-rule="nonzero"/><path fill="#dbbe67" d="M 3.441406 10.515625 C 3.433594 10.515625 3.429688 10.511719 3.421875 10.507812 C 3.402344 10.496094 3.394531 10.472656 3.40625 10.453125 L 8.515625 1.605469 C 8.527344 1.585938 8.550781 1.582031 8.570312 1.589844 C 8.589844 1.601562 8.597656 1.628906 8.585938 1.648438 L 3.476562 10.492188 C 3.46875 10.507812 3.457031 10.515625 3.441406 10.515625 Z M 3.441406 10.515625 " fill-opacity="1" fill-rule="nonzero"/><path fill="#dbbe67" d="M 3.441406 10.515625 C 3.433594 10.515625 3.429688 10.511719 3.421875 10.507812 C 3.402344 10.496094 3.394531 10.472656 3.40625 10.453125 L 8.515625 1.605469 C 8.527344 1.585938 8.550781 1.582031 8.570312 1.589844 C 8.589844 1.601562 8.597656 1.628906 8.585938 1.648438 L 3.476562 10.492188 C 3.46875 10.507812 3.457031 10.515625 3.441406 10.515625 Z M 3.441406 10.515625 " fill-opacity="1" fill-rule="nonzero"/><path fill="#dbbe67" d="M 4.25 10.890625 C 4.246094 10.890625 4.238281 10.890625 4.234375 10.886719 C 4.214844 10.878906 4.203125 10.855469 4.210938 10.835938 L 7.703125 1.238281 C 7.710938 1.214844 7.734375 1.203125 7.757812 1.210938 C 7.777344 1.21875 7.789062 1.242188 7.78125 1.265625 L 4.289062 10.863281 C 4.28125 10.878906 4.265625 10.890625 4.25 10.890625 Z M 4.25 10.890625 " fill-opacity="1" fill-rule="nonzero"/><path fill="#dbbe67" d="M 4.25 10.890625 C 4.246094 10.890625 4.238281 10.890625 4.234375 10.886719 C 4.214844 10.878906 4.203125 10.855469 4.210938 10.835938 L 7.703125 1.238281 C 7.710938 1.214844 7.734375 1.203125 7.757812 1.210938 C 7.777344 1.21875 7.789062 1.242188 7.78125 1.265625 L 4.289062 10.863281 C 4.28125 10.878906 4.265625 10.890625 4.25 10.890625 Z M 4.25 10.890625 " fill-opacity="1" fill-rule="nonzero"/><g clip-path="url(#ab7628e2d6)"><path fill="#dbbe67" d="M 5.109375 11.121094 C 5.105469 11.121094 5.105469 11.121094 5.101562 11.121094 C 5.078125 11.117188 5.066406 11.09375 5.070312 11.074219 L 6.84375 1.011719 C 6.847656 0.992188 6.867188 0.976562 6.890625 0.980469 C 6.910156 0.984375 6.925781 1.003906 6.921875 1.027344 L 5.148438 11.085938 C 5.144531 11.105469 5.128906 11.121094 5.109375 11.121094 Z M 5.109375 11.121094 " fill-opacity="1" fill-rule="nonzero"/></g></g></g></g><g fill="#ffffff" fill-opacity="1"><g transform="translate(12.712341, 15.513798)"><g><path d="M 0.390625 -0.734375 C 0.390625 -1.109375 0.472656 -1.429688 0.640625 -1.703125 L 0.71875 -1.703125 C 0.707031 -1.660156 0.703125 -1.617188 0.703125 -1.578125 C 0.703125 -1.210938 0.832031 -0.894531 1.09375 -0.625 C 1.351562 -0.351562 1.710938 -0.21875 2.171875 -0.21875 C 2.523438 -0.21875 2.796875 -0.300781 2.984375 -0.46875 C 3.179688 -0.644531 3.28125 -0.859375 3.28125 -1.109375 C 3.28125 -1.265625 3.234375 -1.398438 3.140625 -1.515625 C 3.046875 -1.640625 2.882812 -1.773438 2.65625 -1.921875 L 1.28125 -2.84375 C 0.769531 -3.1875 0.515625 -3.609375 0.515625 -4.109375 C 0.515625 -4.160156 0.519531 -4.210938 0.53125 -4.265625 C 0.5625 -4.679688 0.722656 -5.015625 1.015625 -5.265625 C 1.304688 -5.515625 1.695312 -5.640625 2.1875 -5.640625 C 2.476562 -5.640625 2.835938 -5.613281 3.265625 -5.5625 L 3.765625 -5.5625 L 3.65625 -4.40625 L 3.578125 -4.40625 C 3.578125 -4.675781 3.472656 -4.894531 3.265625 -5.0625 C 3.066406 -5.226562 2.800781 -5.3125 2.46875 -5.3125 C 2.050781 -5.3125 1.753906 -5.1875 1.578125 -4.9375 C 1.484375 -4.8125 1.4375 -4.6875 1.4375 -4.5625 C 1.4375 -4.445312 1.457031 -4.347656 1.5 -4.265625 C 1.570312 -4.128906 1.734375 -3.976562 1.984375 -3.8125 L 3.5 -2.84375 C 3.96875 -2.53125 4.203125 -2.125 4.203125 -1.625 C 4.203125 -1.0625 4.007812 -0.628906 3.625 -0.328125 C 3.25 -0.0351562 2.742188 0.109375 2.109375 0.109375 C 1.753906 0.109375 1.425781 0.0664062 1.125 -0.015625 C 0.820312 -0.109375 0.597656 -0.226562 0.453125 -0.375 C 0.410156 -0.46875 0.390625 -0.585938 0.390625 -0.734375 Z M 0.390625 -0.734375 "/></g></g></g><g fill="#ffffff" fill-opacity="1"><g transform="translate(3.702003, 25.43999)"><g><path d="M 0.125 -0.21875 C 0.125 -0.332031 0.144531 -0.429688 0.1875 -0.515625 L 0.21875 -0.515625 C 0.21875 -0.503906 0.21875 -0.492188 0.21875 -0.484375 C 0.21875 -0.367188 0.253906 -0.269531 0.328125 -0.1875 C 0.410156 -0.101562 0.519531 -0.0625 0.65625 -0.0625 C 0.769531 -0.0625 0.851562 -0.0859375 0.90625 -0.140625 C 0.96875 -0.191406 1 -0.257812 1 -0.34375 C 1 -0.382812 0.984375 -0.421875 0.953125 -0.453125 C 0.921875 -0.492188 0.875 -0.539062 0.8125 -0.59375 L 0.390625 -0.859375 C 0.234375 -0.960938 0.15625 -1.09375 0.15625 -1.25 C 0.15625 -1.257812 0.15625 -1.273438 0.15625 -1.296875 C 0.164062 -1.421875 0.210938 -1.519531 0.296875 -1.59375 C 0.390625 -1.675781 0.515625 -1.71875 0.671875 -1.71875 C 0.753906 -1.71875 0.863281 -1.707031 1 -1.6875 L 1.140625 -1.6875 L 1.109375 -1.34375 L 1.09375 -1.34375 C 1.09375 -1.425781 1.0625 -1.488281 1 -1.53125 C 0.9375 -1.582031 0.851562 -1.609375 0.75 -1.609375 C 0.625 -1.609375 0.535156 -1.570312 0.484375 -1.5 C 0.453125 -1.46875 0.4375 -1.429688 0.4375 -1.390625 C 0.4375 -1.347656 0.441406 -1.316406 0.453125 -1.296875 C 0.472656 -1.253906 0.523438 -1.207031 0.609375 -1.15625 L 1.0625 -0.859375 C 1.207031 -0.765625 1.28125 -0.644531 1.28125 -0.5 C 1.28125 -0.320312 1.222656 -0.1875 1.109375 -0.09375 C 0.992188 -0.0078125 0.835938 0.03125 0.640625 0.03125 C 0.535156 0.03125 0.4375 0.0195312 0.34375 0 C 0.25 -0.03125 0.179688 -0.0664062 0.140625 -0.109375 C 0.128906 -0.140625 0.125 -0.175781 0.125 -0.21875 Z M 0.125 -0.21875 "/></g></g></g><g fill="#ffffff" fill-opacity="1"><g transform="translate(5.341838, 25.43999)"><g><path d="M 1.78125 -0.03125 L 1.796875 -0.03125 L 1.796875 0 L 1.03125 0 L 1.03125 -0.03125 L 1.046875 -0.03125 C 1.085938 -0.03125 1.113281 -0.0390625 1.125 -0.0625 C 1.144531 -0.0820312 1.15625 -0.0976562 1.15625 -0.109375 C 1.15625 -0.128906 1.148438 -0.148438 1.140625 -0.171875 L 1.015625 -0.46875 L 0.453125 -0.46875 L 0.328125 -0.171875 C 0.328125 -0.148438 0.328125 -0.128906 0.328125 -0.109375 C 0.328125 -0.0976562 0.332031 -0.0820312 0.34375 -0.0625 C 0.363281 -0.0390625 0.390625 -0.03125 0.421875 -0.03125 L 0.453125 -0.03125 L 0.453125 0 L -0.0625 0 L -0.0625 -0.03125 L -0.046875 -0.03125 C -0.00390625 -0.03125 0.03125 -0.0390625 0.0625 -0.0625 C 0.101562 -0.0820312 0.132812 -0.113281 0.15625 -0.15625 L 0.71875 -1.421875 C 0.789062 -1.578125 0.828125 -1.679688 0.828125 -1.734375 L 0.859375 -1.734375 L 1.5625 -0.15625 C 1.59375 -0.113281 1.625 -0.0820312 1.65625 -0.0625 C 1.695312 -0.0390625 1.738281 -0.03125 1.78125 -0.03125 Z M 0.5 -0.578125 L 0.984375 -0.578125 L 0.75 -1.171875 Z M 0.5 -0.578125 "/></g></g></g><g fill="#ffffff" fill-opacity="1"><g transform="translate(7.314439, 25.43999)"><g><path d="M 0.125 -0.03125 C 0.164062 -0.03125 0.203125 -0.0390625 0.234375 -0.0625 C 0.265625 -0.09375 0.28125 -0.128906 0.28125 -0.171875 L 0.28125 -1.515625 C 0.28125 -1.554688 0.265625 -1.585938 0.234375 -1.609375 C 0.203125 -1.640625 0.164062 -1.65625 0.125 -1.65625 L 0.09375 -1.65625 L 0.09375 -1.6875 L 0.828125 -1.6875 L 0.828125 -1.65625 L 0.796875 -1.65625 C 0.753906 -1.65625 0.71875 -1.640625 0.6875 -1.609375 C 0.65625 -1.585938 0.640625 -1.554688 0.640625 -1.515625 L 0.640625 -0.109375 L 0.96875 -0.109375 C 1.082031 -0.109375 1.175781 -0.140625 1.25 -0.203125 C 1.332031 -0.273438 1.394531 -0.367188 1.4375 -0.484375 L 1.453125 -0.484375 L 1.34375 0 L 0.09375 0 L 0.09375 -0.03125 Z M 0.125 -0.03125 "/></g></g></g><g fill="#ffffff" fill-opacity="1"><g transform="translate(9.045906, 25.43999)"><g><path d="M 0.640625 -1.578125 L 0.640625 -0.875 L 0.96875 -0.875 C 1.019531 -0.882812 1.066406 -0.90625 1.109375 -0.9375 C 1.148438 -0.976562 1.171875 -1.03125 1.171875 -1.09375 L 1.171875 -1.109375 L 1.1875 -1.109375 L 1.1875 -0.546875 L 1.171875 -0.546875 L 1.171875 -0.578125 C 1.171875 -0.628906 1.148438 -0.675781 1.109375 -0.71875 C 1.078125 -0.757812 1.03125 -0.78125 0.96875 -0.78125 L 0.640625 -0.78125 L 0.640625 -0.171875 C 0.640625 -0.128906 0.65625 -0.09375 0.6875 -0.0625 C 0.71875 -0.0390625 0.753906 -0.03125 0.796875 -0.03125 L 0.828125 -0.03125 L 0.828125 0 L 0.09375 0 L 0.09375 -0.03125 L 0.125 -0.03125 C 0.164062 -0.03125 0.203125 -0.0390625 0.234375 -0.0625 C 0.265625 -0.09375 0.28125 -0.128906 0.28125 -0.171875 L 0.28125 -1.515625 C 0.28125 -1.566406 0.253906 -1.609375 0.203125 -1.640625 C 0.179688 -1.648438 0.15625 -1.65625 0.125 -1.65625 L 0.09375 -1.65625 L 0.09375 -1.6875 L 1.015625 -1.6875 C 1.066406 -1.6875 1.125 -1.691406 1.1875 -1.703125 C 1.25 -1.710938 1.289062 -1.722656 1.3125 -1.734375 L 1.3125 -1.328125 L 1.28125 -1.328125 L 1.28125 -1.34375 C 1.28125 -1.414062 1.257812 -1.472656 1.21875 -1.515625 C 1.1875 -1.554688 1.132812 -1.578125 1.0625 -1.578125 Z M 0.640625 -1.578125 "/></g></g></g><g fill="#ffffff" fill-opacity="1"><g transform="translate(10.726733, 25.43999)"><g><path d="M 0.375 -1.484375 C 0.539062 -1.640625 0.769531 -1.71875 1.0625 -1.71875 C 1.351562 -1.71875 1.582031 -1.640625 1.75 -1.484375 C 1.925781 -1.328125 2.015625 -1.113281 2.015625 -0.84375 C 2.015625 -0.570312 1.925781 -0.359375 1.75 -0.203125 C 1.582031 -0.046875 1.351562 0.03125 1.0625 0.03125 C 0.769531 0.03125 0.539062 -0.046875 0.375 -0.203125 C 0.207031 -0.359375 0.125 -0.570312 0.125 -0.84375 C 0.125 -1.113281 0.207031 -1.328125 0.375 -1.484375 Z M 0.65625 -0.265625 C 0.757812 -0.128906 0.894531 -0.0625 1.0625 -0.0625 C 1.226562 -0.0625 1.359375 -0.128906 1.453125 -0.265625 C 1.554688 -0.410156 1.609375 -0.601562 1.609375 -0.84375 C 1.609375 -1.082031 1.554688 -1.269531 1.453125 -1.40625 C 1.359375 -1.539062 1.226562 -1.609375 1.0625 -1.609375 C 0.894531 -1.609375 0.757812 -1.539062 0.65625 -1.40625 C 0.5625 -1.269531 0.515625 -1.082031 0.515625 -0.84375 C 0.515625 -0.601562 0.5625 -0.410156 0.65625 -0.265625 Z M 0.65625 -0.265625 "/></g></g></g><g fill="#ffffff" fill-opacity="1"><g transform="translate(13.089972, 25.43999)"><g><path d="M 0.765625 -1.578125 L 0.65625 -1.578125 L 0.65625 -0.171875 C 0.65625 -0.128906 0.671875 -0.09375 0.703125 -0.0625 C 0.734375 -0.0390625 0.769531 -0.03125 0.8125 -0.03125 L 0.84375 -0.03125 L 0.84375 0 L 0.109375 0 L 0.109375 -0.03125 L 0.140625 -0.03125 C 0.191406 -0.03125 0.234375 -0.0507812 0.265625 -0.09375 C 0.285156 -0.113281 0.296875 -0.140625 0.296875 -0.171875 L 0.296875 -1.515625 C 0.296875 -1.554688 0.28125 -1.585938 0.25 -1.609375 C 0.21875 -1.640625 0.179688 -1.65625 0.140625 -1.65625 L 0.109375 -1.65625 L 0.109375 -1.6875 L 0.9375 -1.6875 C 1.09375 -1.6875 1.222656 -1.648438 1.328125 -1.578125 C 1.378906 -1.546875 1.421875 -1.5 1.453125 -1.4375 C 1.484375 -1.382812 1.5 -1.304688 1.5 -1.203125 C 1.5 -1.109375 1.460938 -1.015625 1.390625 -0.921875 C 1.328125 -0.835938 1.234375 -0.785156 1.109375 -0.765625 C 1.203125 -0.742188 1.285156 -0.675781 1.359375 -0.5625 C 1.523438 -0.28125 1.65625 -0.113281 1.75 -0.0625 C 1.789062 -0.0390625 1.84375 -0.03125 1.90625 -0.03125 L 1.90625 0 L 1.65625 0 C 1.519531 0 1.40625 -0.015625 1.3125 -0.046875 C 1.21875 -0.0859375 1.144531 -0.15625 1.09375 -0.25 C 1.0625 -0.300781 0.992188 -0.4375 0.890625 -0.65625 C 0.847656 -0.757812 0.796875 -0.816406 0.734375 -0.828125 L 0.734375 -0.84375 L 0.8125 -0.84375 C 0.882812 -0.84375 0.945312 -0.863281 1 -0.90625 C 1.050781 -0.957031 1.085938 -1.03125 1.109375 -1.125 C 1.117188 -1.15625 1.125 -1.179688 1.125 -1.203125 C 1.125 -1.335938 1.097656 -1.429688 1.046875 -1.484375 C 0.992188 -1.546875 0.925781 -1.578125 0.84375 -1.578125 C 0.820312 -1.578125 0.796875 -1.578125 0.765625 -1.578125 Z M 0.765625 -1.578125 "/></g></g></g><g fill="#ffffff" fill-opacity="1"><g transform="translate(15.137325, 25.43999)"><g><path d="M 0.96875 -1.6875 C 1.257812 -1.6875 1.484375 -1.609375 1.640625 -1.453125 C 1.804688 -1.304688 1.890625 -1.101562 1.890625 -0.84375 C 1.890625 -0.582031 1.804688 -0.375 1.640625 -0.21875 C 1.484375 -0.0703125 1.257812 0 0.96875 0 L 0.09375 0 L 0.09375 -0.03125 L 0.125 -0.03125 C 0.164062 -0.03125 0.203125 -0.0390625 0.234375 -0.0625 C 0.265625 -0.09375 0.28125 -0.128906 0.28125 -0.171875 L 0.28125 -1.515625 C 0.28125 -1.554688 0.265625 -1.585938 0.234375 -1.609375 C 0.203125 -1.640625 0.164062 -1.65625 0.125 -1.65625 L 0.09375 -1.65625 L 0.09375 -1.6875 Z M 0.9375 -0.109375 C 1.050781 -0.109375 1.148438 -0.132812 1.234375 -0.1875 C 1.328125 -0.25 1.394531 -0.332031 1.4375 -0.4375 C 1.476562 -0.550781 1.5 -0.675781 1.5 -0.8125 C 1.5 -0.945312 1.484375 -1.054688 1.453125 -1.140625 C 1.429688 -1.234375 1.398438 -1.316406 1.359375 -1.390625 C 1.253906 -1.515625 1.113281 -1.578125 0.9375 -1.578125 L 0.640625 -1.578125 L 0.640625 -0.109375 Z M 0.9375 -0.109375 "/></g></g></g><g fill="#ffffff" fill-opacity="1"><g transform="translate(17.379996, 25.43999)"><g/></g></g><g fill="#ffffff" fill-opacity="1"><g transform="translate(18.228909, 25.43999)"><g><path d="M 2.046875 0 C 1.859375 0.0078125 1.738281 0.015625 1.6875 0.015625 C 1.550781 -0.015625 1.445312 -0.0507812 1.375 -0.09375 C 1.25 -0.0078125 1.09375 0.03125 0.90625 0.03125 C 0.632812 0.03125 0.414062 -0.0234375 0.25 -0.140625 C 0.195312 -0.179688 0.148438 -0.234375 0.109375 -0.296875 C 0.078125 -0.367188 0.0625 -0.4375 0.0625 -0.5 C 0.0625 -0.570312 0.0703125 -0.632812 0.09375 -0.6875 C 0.113281 -0.738281 0.144531 -0.78125 0.1875 -0.8125 C 0.25 -0.875 0.328125 -0.921875 0.421875 -0.953125 C 0.347656 -1.066406 0.3125 -1.171875 0.3125 -1.265625 C 0.3125 -1.367188 0.335938 -1.457031 0.390625 -1.53125 C 0.503906 -1.65625 0.671875 -1.71875 0.890625 -1.71875 C 0.992188 -1.71875 1.085938 -1.703125 1.171875 -1.671875 C 1.265625 -1.640625 1.332031 -1.597656 1.375 -1.546875 L 1.28125 -1.203125 L 1.265625 -1.203125 C 1.265625 -1.316406 1.238281 -1.410156 1.1875 -1.484375 C 1.132812 -1.566406 1.0625 -1.609375 0.96875 -1.609375 C 0.882812 -1.609375 0.816406 -1.582031 0.765625 -1.53125 C 0.710938 -1.476562 0.6875 -1.410156 0.6875 -1.328125 C 0.6875 -1.242188 0.71875 -1.160156 0.78125 -1.078125 C 0.84375 -1.003906 0.960938 -0.890625 1.140625 -0.734375 C 1.316406 -0.578125 1.421875 -0.484375 1.453125 -0.453125 C 1.472656 -0.515625 1.484375 -0.578125 1.484375 -0.640625 C 1.484375 -0.710938 1.46875 -0.78125 1.4375 -0.84375 C 1.40625 -0.914062 1.359375 -0.953125 1.296875 -0.953125 L 1.265625 -0.953125 L 1.265625 -0.984375 L 1.828125 -0.984375 L 1.828125 -0.953125 L 1.796875 -0.953125 C 1.796875 -0.953125 1.789062 -0.953125 1.78125 -0.953125 C 1.75 -0.953125 1.726562 -0.941406 1.71875 -0.921875 C 1.707031 -0.898438 1.703125 -0.867188 1.703125 -0.828125 L 1.703125 -0.796875 C 1.703125 -0.609375 1.671875 -0.453125 1.609375 -0.328125 C 1.703125 -0.234375 1.78125 -0.160156 1.84375 -0.109375 C 1.914062 -0.0664062 1.984375 -0.0390625 2.046875 -0.03125 Z M 1 -0.078125 C 1.101562 -0.078125 1.191406 -0.101562 1.265625 -0.15625 C 1.140625 -0.257812 1 -0.378906 0.84375 -0.515625 C 0.6875 -0.648438 0.578125 -0.753906 0.515625 -0.828125 C 0.460938 -0.765625 0.4375 -0.6875 0.4375 -0.59375 C 0.4375 -0.425781 0.492188 -0.296875 0.609375 -0.203125 C 0.722656 -0.117188 0.851562 -0.078125 1 -0.078125 Z M 1 -0.078125 "/></g></g></g><g fill="#ffffff" fill-opacity="1"><g transform="translate(20.420942, 25.43999)"><g/></g></g><g fill="#ffffff" fill-opacity="1"><g transform="translate(21.269854, 25.43999)"><g><path d="M 1.09375 0.03125 C 0.789062 0.03125 0.550781 -0.046875 0.375 -0.203125 C 0.195312 -0.359375 0.109375 -0.570312 0.109375 -0.84375 C 0.109375 -1.113281 0.195312 -1.328125 0.375 -1.484375 C 0.550781 -1.640625 0.789062 -1.71875 1.09375 -1.71875 C 1.320312 -1.71875 1.519531 -1.675781 1.6875 -1.59375 L 1.6875 -1.171875 L 1.671875 -1.171875 C 1.585938 -1.460938 1.398438 -1.609375 1.109375 -1.609375 C 0.921875 -1.609375 0.769531 -1.539062 0.65625 -1.40625 C 0.550781 -1.269531 0.5 -1.082031 0.5 -0.84375 C 0.5 -0.613281 0.550781 -0.425781 0.65625 -0.28125 C 0.757812 -0.144531 0.898438 -0.0703125 1.078125 -0.0625 C 1.265625 -0.0625 1.410156 -0.109375 1.515625 -0.203125 C 1.609375 -0.296875 1.675781 -0.460938 1.71875 -0.703125 L 1.734375 -0.703125 L 1.765625 -0.28125 C 1.628906 -0.0703125 1.40625 0.03125 1.09375 0.03125 Z M 1.09375 0.03125 "/></g></g></g><g fill="#ffffff" fill-opacity="1"><g transform="translate(23.396781, 25.43999)"><g><path d="M 0.375 -1.484375 C 0.539062 -1.640625 0.769531 -1.71875 1.0625 -1.71875 C 1.351562 -1.71875 1.582031 -1.640625 1.75 -1.484375 C 1.925781 -1.328125 2.015625 -1.113281 2.015625 -0.84375 C 2.015625 -0.570312 1.925781 -0.359375 1.75 -0.203125 C 1.582031 -0.046875 1.351562 0.03125 1.0625 0.03125 C 0.769531 0.03125 0.539062 -0.046875 0.375 -0.203125 C 0.207031 -0.359375 0.125 -0.570312 0.125 -0.84375 C 0.125 -1.113281 0.207031 -1.328125 0.375 -1.484375 Z M 0.65625 -0.265625 C 0.757812 -0.128906 0.894531 -0.0625 1.0625 -0.0625 C 1.226562 -0.0625 1.359375 -0.128906 1.453125 -0.265625 C 1.554688 -0.410156 1.609375 -0.601562 1.609375 -0.84375 C 1.609375 -1.082031 1.554688 -1.269531 1.453125 -1.40625 C 1.359375 -1.539062 1.226562 -1.609375 1.0625 -1.609375 C 0.894531 -1.609375 0.757812 -1.539062 0.65625 -1.40625 C 0.5625 -1.269531 0.515625 -1.082031 0.515625 -0.84375 C 0.515625 -0.601562 0.5625 -0.410156 0.65625 -0.265625 Z M 0.65625 -0.265625 "/></g></g></g><g fill="#ffffff" fill-opacity="1"><g transform="translate(25.76002, 25.43999)"><g><path d="M 0.390625 -0.015625 C 0.359375 0.015625 0.316406 0.03125 0.265625 0.03125 C 0.210938 0.03125 0.171875 0.015625 0.140625 -0.015625 C 0.109375 -0.0546875 0.09375 -0.0976562 0.09375 -0.140625 C 0.09375 -0.191406 0.109375 -0.234375 0.140625 -0.265625 C 0.171875 -0.304688 0.210938 -0.328125 0.265625 -0.328125 C 0.316406 -0.328125 0.359375 -0.304688 0.390625 -0.265625 C 0.421875 -0.234375 0.4375 -0.191406 0.4375 -0.140625 C 0.4375 -0.0976562 0.421875 -0.0546875 0.390625 -0.015625 Z M 0.390625 -0.015625 "/></g></g></g><g fill="#dbbe67" fill-opacity="1"><g transform="translate(7.386316, 27.540853)"><g><path d="M 0.75 0 L 0.546875 -0.28125 C 0.523438 -0.28125 0.503906 -0.28125 0.484375 -0.28125 L 0.265625 -0.28125 L 0.265625 0 L 0.140625 0 L 0.140625 -0.90625 L 0.484375 -0.90625 C 0.609375 -0.90625 0.703125 -0.875 0.765625 -0.8125 C 0.835938 -0.757812 0.875 -0.6875 0.875 -0.59375 C 0.875 -0.519531 0.851562 -0.457031 0.8125 -0.40625 C 0.78125 -0.363281 0.734375 -0.332031 0.671875 -0.3125 L 0.890625 0 Z M 0.484375 -0.390625 C 0.566406 -0.390625 0.628906 -0.40625 0.671875 -0.4375 C 0.710938 -0.476562 0.734375 -0.53125 0.734375 -0.59375 C 0.734375 -0.65625 0.710938 -0.703125 0.671875 -0.734375 C 0.628906 -0.773438 0.566406 -0.796875 0.484375 -0.796875 L 0.265625 -0.796875 L 0.265625 -0.390625 Z M 0.484375 -0.390625 "/></g></g></g><g fill="#dbbe67" fill-opacity="1"><g transform="translate(8.809603, 27.540853)"><g><path d="M 0.546875 0.015625 C 0.453125 0.015625 0.367188 -0.00390625 0.296875 -0.046875 C 0.222656 -0.0859375 0.164062 -0.144531 0.125 -0.21875 C 0.0820312 -0.289062 0.0625 -0.367188 0.0625 -0.453125 C 0.0625 -0.535156 0.0820312 -0.613281 0.125 -0.6875 C 0.164062 -0.757812 0.222656 -0.816406 0.296875 -0.859375 C 0.367188 -0.898438 0.453125 -0.921875 0.546875 -0.921875 C 0.640625 -0.921875 0.722656 -0.898438 0.796875 -0.859375 C 0.867188 -0.816406 0.925781 -0.757812 0.96875 -0.6875 C 1.007812 -0.625 1.03125 -0.546875 1.03125 -0.453125 C 1.03125 -0.367188 1.007812 -0.289062 0.96875 -0.21875 C 0.925781 -0.144531 0.867188 -0.0859375 0.796875 -0.046875 C 0.722656 -0.00390625 0.640625 0.015625 0.546875 0.015625 Z M 0.546875 -0.109375 C 0.609375 -0.109375 0.664062 -0.125 0.71875 -0.15625 C 0.78125 -0.1875 0.820312 -0.226562 0.84375 -0.28125 C 0.875 -0.332031 0.890625 -0.390625 0.890625 -0.453125 C 0.890625 -0.515625 0.875 -0.570312 0.84375 -0.625 C 0.820312 -0.6875 0.78125 -0.726562 0.71875 -0.75 C 0.664062 -0.78125 0.609375 -0.796875 0.546875 -0.796875 C 0.484375 -0.796875 0.421875 -0.78125 0.359375 -0.75 C 0.304688 -0.726562 0.265625 -0.6875 0.234375 -0.625 C 0.203125 -0.570312 0.1875 -0.515625 0.1875 -0.453125 C 0.1875 -0.390625 0.203125 -0.332031 0.234375 -0.28125 C 0.265625 -0.226562 0.304688 -0.1875 0.359375 -0.15625 C 0.421875 -0.125 0.484375 -0.109375 0.546875 -0.109375 Z M 0.546875 -0.109375 "/></g></g></g><g fill="#dbbe67" fill-opacity="1"><g transform="translate(10.379341, 27.540853)"><g><path d="M 0.484375 -0.3125 L 0.484375 0 L 0.359375 0 L 0.359375 -0.3125 L 0 -0.90625 L 0.140625 -0.90625 L 0.421875 -0.421875 L 0.71875 -0.90625 L 0.84375 -0.90625 Z M 0.484375 -0.3125 "/></g></g></g><g fill="#dbbe67" fill-opacity="1"><g transform="translate(11.698948, 27.540853)"><g><path d="M 0.71875 -0.234375 L 0.234375 -0.234375 L 0.125 0 L 0 0 L 0.40625 -0.90625 L 0.53125 -0.90625 L 0.953125 0 L 0.8125 0 Z M 0.671875 -0.328125 L 0.46875 -0.78125 L 0.28125 -0.328125 Z M 0.671875 -0.328125 "/></g></g></g><g fill="#dbbe67" fill-opacity="1"><g transform="translate(13.128716, 27.540853)"><g><path d="M 0.140625 -0.90625 L 0.265625 -0.90625 L 0.265625 -0.109375 L 0.75 -0.109375 L 0.75 0 L 0.140625 0 Z M 0.140625 -0.90625 "/></g></g></g><g fill="#dbbe67" fill-opacity="1"><g transform="translate(14.379633, 27.540853)"><g/></g></g><g fill="#dbbe67" fill-opacity="1"><g transform="translate(15.209346, 27.540853)"><g><path d="M 0.546875 0.015625 C 0.453125 0.015625 0.367188 -0.00390625 0.296875 -0.046875 C 0.222656 -0.0859375 0.164062 -0.144531 0.125 -0.21875 C 0.0820312 -0.289062 0.0625 -0.367188 0.0625 -0.453125 C 0.0625 -0.546875 0.0820312 -0.625 0.125 -0.6875 C 0.164062 -0.757812 0.222656 -0.816406 0.296875 -0.859375 C 0.367188 -0.898438 0.453125 -0.921875 0.546875 -0.921875 C 0.617188 -0.921875 0.679688 -0.90625 0.734375 -0.875 C 0.796875 -0.851562 0.847656 -0.820312 0.890625 -0.78125 L 0.796875 -0.6875 C 0.734375 -0.757812 0.648438 -0.796875 0.546875 -0.796875 C 0.484375 -0.796875 0.421875 -0.78125 0.359375 -0.75 C 0.304688 -0.726562 0.265625 -0.6875 0.234375 -0.625 C 0.203125 -0.570312 0.1875 -0.515625 0.1875 -0.453125 C 0.1875 -0.390625 0.203125 -0.332031 0.234375 -0.28125 C 0.265625 -0.226562 0.304688 -0.1875 0.359375 -0.15625 C 0.421875 -0.125 0.484375 -0.109375 0.546875 -0.109375 C 0.648438 -0.109375 0.734375 -0.144531 0.796875 -0.21875 L 0.890625 -0.125 C 0.847656 -0.0820312 0.796875 -0.046875 0.734375 -0.015625 C 0.671875 0.00390625 0.609375 0.015625 0.546875 0.015625 Z M 0.546875 0.015625 "/></g></g></g><g fill="#dbbe67" fill-opacity="1"><g transform="translate(16.627449, 27.540853)"><g><path d="M 0.75 0 L 0.546875 -0.28125 C 0.523438 -0.28125 0.503906 -0.28125 0.484375 -0.28125 L 0.265625 -0.28125 L 0.265625 0 L 0.140625 0 L 0.140625 -0.90625 L 0.484375 -0.90625 C 0.609375 -0.90625 0.703125 -0.875 0.765625 -0.8125 C 0.835938 -0.757812 0.875 -0.6875 0.875 -0.59375 C 0.875 -0.519531 0.851562 -0.457031 0.8125 -0.40625 C 0.78125 -0.363281 0.734375 -0.332031 0.671875 -0.3125 L 0.890625 0 Z M 0.484375 -0.390625 C 0.566406 -0.390625 0.628906 -0.40625 0.671875 -0.4375 C 0.710938 -0.476562 0.734375 -0.53125 0.734375 -0.59375 C 0.734375 -0.65625 0.710938 -0.703125 0.671875 -0.734375 C 0.628906 -0.773438 0.566406 -0.796875 0.484375 -0.796875 L 0.265625 -0.796875 L 0.265625 -0.390625 Z M 0.484375 -0.390625 "/></g></g></g><g fill="#dbbe67" fill-opacity="1"><g transform="translate(18.050737, 27.540853)"><g><path d="M 0.546875 0.015625 C 0.453125 0.015625 0.367188 -0.00390625 0.296875 -0.046875 C 0.222656 -0.0859375 0.164062 -0.144531 0.125 -0.21875 C 0.0820312 -0.289062 0.0625 -0.367188 0.0625 -0.453125 C 0.0625 -0.535156 0.0820312 -0.613281 0.125 -0.6875 C 0.164062 -0.757812 0.222656 -0.816406 0.296875 -0.859375 C 0.367188 -0.898438 0.453125 -0.921875 0.546875 -0.921875 C 0.640625 -0.921875 0.722656 -0.898438 0.796875 -0.859375 C 0.867188 -0.816406 0.925781 -0.757812 0.96875 -0.6875 C 1.007812 -0.625 1.03125 -0.546875 1.03125 -0.453125 C 1.03125 -0.367188 1.007812 -0.289062 0.96875 -0.21875 C 0.925781 -0.144531 0.867188 -0.0859375 0.796875 -0.046875 C 0.722656 -0.00390625 0.640625 0.015625 0.546875 0.015625 Z M 0.546875 -0.109375 C 0.609375 -0.109375 0.664062 -0.125 0.71875 -0.15625 C 0.78125 -0.1875 0.820312 -0.226562 0.84375 -0.28125 C 0.875 -0.332031 0.890625 -0.390625 0.890625 -0.453125 C 0.890625 -0.515625 0.875 -0.570312 0.84375 -0.625 C 0.820312 -0.6875 0.78125 -0.726562 0.71875 -0.75 C 0.664062 -0.78125 0.609375 -0.796875 0.546875 -0.796875 C 0.484375 -0.796875 0.421875 -0.78125 0.359375 -0.75 C 0.304688 -0.726562 0.265625 -0.6875 0.234375 -0.625 C 0.203125 -0.570312 0.1875 -0.515625 0.1875 -0.453125 C 0.1875 -0.390625 0.203125 -0.332031 0.234375 -0.28125 C 0.265625 -0.226562 0.304688 -0.1875 0.359375 -0.15625 C 0.421875 -0.125 0.484375 -0.109375 0.546875 -0.109375 Z M 0.546875 -0.109375 "/></g></g></g><g fill="#dbbe67" fill-opacity="1"><g transform="translate(19.620475, 27.540853)"><g><path d="M 1.421875 -0.90625 L 1.109375 0 L 0.984375 0 L 0.734375 -0.71875 L 0.484375 0 L 0.34375 0 L 0.046875 -0.90625 L 0.171875 -0.90625 L 0.421875 -0.171875 L 0.671875 -0.90625 L 0.796875 -0.90625 L 1.046875 -0.171875 L 1.296875 -0.90625 Z M 1.421875 -0.90625 "/></g></g></g><g fill="#dbbe67" fill-opacity="1"><g transform="translate(21.560872, 27.540853)"><g><path d="M 0.921875 -0.90625 L 0.921875 0 L 0.8125 0 L 0.265625 -0.671875 L 0.265625 0 L 0.140625 0 L 0.140625 -0.90625 L 0.25 -0.90625 L 0.78125 -0.234375 L 0.78125 -0.90625 Z M 0.921875 -0.90625 "/></g></g></g></svg>