<svg xmlns="http://www.w3.org/2000/svg" xmlns:xlink="http://www.w3.org/1999/xlink" width="40" zoomAndPan="magnify" viewBox="0 0 30 30.000001" height="40" preserveAspectRatio="xMidYMid meet" version="1.0"><defs><filter x="0%" y="0%" width="100%" height="100%" id="4c824150f9"><feColorMatrix values="0 0 0 0 1 0 0 0 0 1 0 0 0 0 1 0 0 0 1 0" color-interpolation-filters="sRGB"/></filter><g/><clipPath id="aad054599b"><path d="M 0.484375 0 L 29.515625 0 L 29.515625 29.03125 L 0.484375 29.03125 Z M 0.484375 0 " clip-rule="nonzero"/></clipPath><clipPath id="4db4e2e6b1"><path d="M 3 10.054688 L 27 10.054688 L 27 27.476562 L 3 27.476562 Z M 3 10.054688 " clip-rule="nonzero"/></clipPath><clipPath id="54262dbcdf"><path d="M 10.386719 2 L 15 2 L 15 7 L 10.386719 7 Z M 10.386719 2 " clip-rule="nonzero"/></clipPath><clipPath id="8d93e6f45d"><path d="M 14 2 L 19.820312 2 L 19.820312 7 L 14 7 Z M 14 2 " clip-rule="nonzero"/></clipPath><clipPath id="91352860ba"><path d="M 10.386719 3 L 12 3 L 12 5 L 10.386719 5 Z M 10.386719 3 " clip-rule="nonzero"/></clipPath><clipPath id="2edefb9d98"><path d="M 18 3 L 19.820312 3 L 19.820312 5 L 18 5 Z M 18 3 " clip-rule="nonzero"/></clipPath><clipPath id="dac9d7d20b"><path d="M 14 1.59375 L 16 1.59375 L 16 3 L 14 3 Z M 14 1.59375 " clip-rule="nonzero"/></clipPath><clipPath id="0647f64ae9"><path d="M 11 6 L 19 6 L 19 7.402344 L 11 7.402344 Z M 11 6 " clip-rule="nonzero"/></clipPath><clipPath id="1e96c2fd9b"><path d="M 11 6 L 15 6 L 15 7.402344 L 11 7.402344 Z M 11 6 " clip-rule="nonzero"/></clipPath><mask id="840d7cad54"><g filter="url(#4c824150f9)"><rect x="-3" width="36" fill="#000000" y="-3" height="36.000001" fill-opacity="0.19"/></g></mask><clipPath id="ecebc71a22"><path d="M 8 0.371094 L 10 0.371094 L 10 6 L 8 6 Z M 8 0.371094 " clip-rule="nonzero"/></clipPath><clipPath id="78377f9aa8"><path d="M 9 0.371094 L 12 0.371094 L 12 6 L 9 6 Z M 9 0.371094 " clip-rule="nonzero"/></clipPath><clipPath id="baa63b0140"><path d="M 8 11 L 10 11 L 10 16.15625 L 8 16.15625 Z M 8 11 " clip-rule="nonzero"/></clipPath><clipPath id="cebb096a0c"><path d="M 1.160156 9 L 7 9 L 7 11 L 1.160156 11 Z M 1.160156 9 " clip-rule="nonzero"/></clipPath><clipPath id="fbdeedd4e4"><path d="M 1.160156 8 L 6 8 L 6 9 L 1.160156 9 Z M 1.160156 8 " clip-rule="nonzero"/></clipPath><clipPath id="12bc60152a"><path d="M 1.160156 5 L 7 5 L 7 8 L 1.160156 8 Z M 1.160156 5 " clip-rule="nonzero"/></clipPath><clipPath id="ae9aadbf31"><path d="M 6 0.371094 L 9 0.371094 L 9 6 L 6 6 Z M 6 0.371094 " clip-rule="nonzero"/></clipPath><clipPath id="8fb332ce50"><rect x="0" width="18" y="0" height="17"/></clipPath><clipPath id="ea8326bbf2"><path d="M 7.269531 6.507812 L 9.445312 6.507812 L 9.445312 8.683594 L 7.269531 8.683594 Z M 7.269531 6.507812 " clip-rule="nonzero"/></clipPath><clipPath id="53f223228a"><path d="M 20.292969 6.507812 L 22.46875 6.507812 L 22.46875 8.683594 L 20.292969 8.683594 Z M 20.292969 6.507812 " clip-rule="nonzero"/></clipPath><clipPath id="4de57d69f8"><path d="M 10.269531 21.070312 L 12.445312 21.070312 L 12.445312 23.25 L 10.269531 23.25 Z M 10.269531 21.070312 " clip-rule="nonzero"/></clipPath><clipPath id="56ef6a5dfc"><path d="M 13.722656 21.070312 L 15.898438 21.070312 L 15.898438 23.25 L 13.722656 23.25 Z M 13.722656 21.070312 " clip-rule="nonzero"/></clipPath><clipPath id="7ad1608e5a"><path d="M 17.121094 21.070312 L 19.296875 21.070312 L 19.296875 23.25 L 17.121094 23.25 Z M 17.121094 21.070312 " clip-rule="nonzero"/></clipPath></defs><g clip-path="url(#aad054599b)"><path fill="#ffffff" d="M 0.484375 0 L 29.515625 0 L 29.515625 29.03125 L 0.484375 29.03125 Z M 0.484375 0 " fill-opacity="1" fill-rule="nonzero"/><path fill="#000000" d="M 0.484375 0 L 29.515625 0 L 29.515625 29.03125 L 0.484375 29.03125 Z M 0.484375 0 " fill-opacity="1" fill-rule="nonzero"/></g><g clip-path="url(#4db4e2e6b1)"><path fill="#e1be64" d="M 6.617188 21.535156 L 6.726562 21.71875 C 5.492188 21.386719 4.28125 20.84375 3.109375 20.113281 C 3.457031 22.171875 5 22.539062 6.507812 21.90625 C 6.609375 21.863281 6.714844 21.859375 6.832031 21.878906 C 7.070312 22.242188 7.332031 22.597656 7.617188 22.933594 C 6.117188 22.859375 4.597656 22.515625 3.074219 21.925781 C 3.875 24.082031 5.621094 24.164062 7.121094 23.167969 C 7.292969 23.054688 7.5 23.0625 7.753906 23.089844 C 8.90625 24.414062 10.421875 25.507812 12.292969 26.238281 C 12.785156 26.429688 13.402344 26.621094 14.070312 26.789062 C 13.824219 26.824219 13.578125 26.847656 13.339844 26.875 C 12.726562 26.929688 12.402344 27.125 12.070312 27.425781 C 12.96875 27.367188 14.007812 27.210938 15.003906 27.003906 C 15.996094 27.210938 17.035156 27.367188 17.933594 27.425781 C 17.601562 27.125 17.28125 26.929688 16.664062 26.875 C 16.425781 26.847656 16.179688 26.824219 15.933594 26.789062 C 16.601562 26.621094 17.214844 26.429688 17.710938 26.238281 C 19.582031 25.507812 21.097656 24.414062 22.253906 23.089844 C 22.503906 23.0625 22.714844 23.054688 22.882812 23.167969 C 24.382812 24.164062 26.128906 24.082031 26.929688 21.925781 C 25.410156 22.515625 23.886719 22.859375 22.386719 22.933594 C 22.671875 22.597656 22.933594 22.242188 23.171875 21.878906 C 23.285156 21.859375 23.394531 21.863281 23.496094 21.90625 C 25.003906 22.539062 26.546875 22.171875 26.894531 20.113281 C 25.722656 20.84375 24.511719 21.386719 23.277344 21.71875 L 23.386719 21.535156 C 23.589844 21.207031 23.765625 20.859375 23.933594 20.503906 C 24 20.480469 24.070312 20.472656 24.136719 20.484375 C 25.746094 20.707031 27.132812 19.957031 26.9375 17.894531 C 26.042969 18.847656 25.074219 19.648438 24.03125 20.269531 C 24.253906 19.75 24.4375 19.203125 24.582031 18.640625 C 26.050781 18.574219 27.160156 17.679688 26.652344 15.867188 C 26.070312 16.769531 25.414062 17.570312 24.675781 18.253906 C 24.792969 17.742188 24.875 17.222656 24.925781 16.695312 C 26.25 16.335938 27.078125 15.292969 26.25 13.742188 C 25.90625 14.660156 25.480469 15.503906 24.964844 16.257812 C 24.992188 15.753906 25 15.246094 24.96875 14.742188 C 25.980469 14.097656 26.398438 13.011719 25.316406 11.914062 C 25.261719 12.699219 25.132812 13.453125 24.925781 14.164062 C 24.863281 13.582031 24.761719 13.011719 24.617188 12.453125 C 25.21875 11.777344 25.300781 10.898438 24.285156 10.316406 C 24.398438 10.859375 24.457031 11.394531 24.460938 11.917969 L 24.503906 12.046875 C 24.289062 11.34375 24 10.671875 23.640625 10.054688 C 25.066406 13.71875 25.21875 17.929688 23.132812 21.386719 C 21.949219 23.347656 20.101562 24.933594 17.605469 25.902344 C 16.847656 26.199219 15.945312 26.453125 15.003906 26.632812 C 14.058594 26.453125 13.15625 26.199219 12.398438 25.902344 C 9.902344 24.933594 8.054688 23.347656 6.871094 21.386719 C 4.785156 17.929688 4.9375 13.71875 6.363281 10.054688 C 6 10.671875 5.714844 11.34375 5.5 12.046875 L 5.542969 11.917969 C 5.542969 11.394531 5.605469 10.859375 5.71875 10.316406 C 4.699219 10.898438 4.785156 11.777344 5.386719 12.453125 C 5.242188 13.011719 5.140625 13.582031 5.082031 14.164062 C 4.871094 13.453125 4.742188 12.699219 4.6875 11.914062 C 3.605469 13.011719 4.023438 14.097656 5.035156 14.742188 C 5.007812 15.246094 5.007812 15.753906 5.039062 16.257812 C 4.527344 15.503906 4.09375 14.660156 3.753906 13.742188 C 2.929688 15.292969 3.753906 16.335938 5.078125 16.695312 C 5.128906 17.222656 5.210938 17.742188 5.328125 18.253906 C 4.59375 17.570312 3.933594 16.769531 3.351562 15.867188 C 2.839844 17.679688 3.953125 18.574219 5.421875 18.640625 C 5.566406 19.203125 5.75 19.75 5.972656 20.269531 C 4.929688 19.648438 3.957031 18.847656 3.066406 17.894531 C 2.871094 19.957031 4.257812 20.707031 5.863281 20.484375 C 5.933594 20.472656 6.003906 20.480469 6.070312 20.503906 C 6.234375 20.859375 6.417969 21.207031 6.617188 21.535156 Z M 6.617188 21.535156 " fill-opacity="1" fill-rule="evenodd"/></g><g clip-path="url(#54262dbcdf)"><path fill="#e1be64" d="M 14.996094 2.148438 L 14.996094 6.375 L 11.738281 6.375 C 11.738281 6.375 11.5625 5.546875 10.796875 4.3125 C 10.796875 4.3125 11.625 5.496094 12.246094 5.320312 C 12.863281 5.140625 12.308594 2.980469 12.308594 2.980469 C 12.308594 2.980469 14.148438 6.960938 14.996094 2.148438 " fill-opacity="1" fill-rule="nonzero"/></g><g clip-path="url(#8d93e6f45d)"><path fill="#e1be64" d="M 14.996094 2.148438 L 14.996094 6.375 L 18.253906 6.375 C 18.253906 6.375 18.433594 5.546875 19.199219 4.3125 C 19.199219 4.3125 18.367188 5.496094 17.75 5.320312 C 17.128906 5.140625 17.683594 2.980469 17.683594 2.980469 C 17.683594 2.980469 15.847656 6.960938 14.996094 2.148438 " fill-opacity="1" fill-rule="nonzero"/></g><g clip-path="url(#91352860ba)"><path fill="#e1be64" d="M 11.199219 4.3125 C 11.199219 4.089844 11.019531 3.910156 10.796875 3.910156 C 10.574219 3.910156 10.394531 4.089844 10.394531 4.3125 C 10.394531 4.535156 10.574219 4.714844 10.796875 4.714844 C 11.019531 4.714844 11.199219 4.535156 11.199219 4.3125 " fill-opacity="1" fill-rule="nonzero"/></g><path fill="#e1be64" d="M 12.707031 3.003906 C 12.707031 2.78125 12.527344 2.601562 12.304688 2.601562 C 12.082031 2.601562 11.902344 2.78125 11.902344 3.003906 C 11.902344 3.226562 12.082031 3.40625 12.304688 3.40625 C 12.527344 3.40625 12.707031 3.226562 12.707031 3.003906 " fill-opacity="1" fill-rule="nonzero"/><g clip-path="url(#2edefb9d98)"><path fill="#e1be64" d="M 18.796875 4.3125 C 18.796875 4.089844 18.976562 3.910156 19.199219 3.910156 C 19.421875 3.910156 19.601562 4.089844 19.601562 4.3125 C 19.601562 4.535156 19.421875 4.714844 19.199219 4.714844 C 18.976562 4.714844 18.796875 4.535156 18.796875 4.3125 " fill-opacity="1" fill-rule="nonzero"/></g><path fill="#e1be64" d="M 17.265625 3.003906 C 17.265625 2.78125 17.449219 2.601562 17.667969 2.601562 C 17.890625 2.601562 18.070312 2.78125 18.070312 3.003906 C 18.070312 3.226562 17.890625 3.40625 17.667969 3.40625 C 17.449219 3.40625 17.265625 3.226562 17.265625 3.003906 " fill-opacity="1" fill-rule="nonzero"/><g clip-path="url(#dac9d7d20b)"><path fill="#e1be64" d="M 15.550781 2.148438 C 15.550781 1.84375 15.300781 1.59375 14.996094 1.59375 C 14.691406 1.59375 14.441406 1.84375 14.441406 2.148438 C 14.441406 2.453125 14.691406 2.703125 14.996094 2.703125 C 15.300781 2.703125 15.550781 2.453125 15.550781 2.148438 " fill-opacity="1" fill-rule="nonzero"/><path fill="#e1be64" d="M 15.003906 1.59375 C 14.699219 1.59375 14.453125 1.84375 14.453125 2.148438 C 14.453125 2.453125 14.699219 2.703125 15.003906 2.703125 " fill-opacity="1" fill-rule="nonzero"/></g><g clip-path="url(#0647f64ae9)"><path fill="#e1be64" d="M 18.253906 7.234375 L 11.738281 7.234375 L 11.738281 6.660156 L 18.253906 6.660156 L 18.253906 7.234375 " fill-opacity="1" fill-rule="nonzero"/></g><g clip-path="url(#1e96c2fd9b)"><path fill="#e1be64" d="M 14.996094 7.234375 L 11.738281 7.234375 L 11.738281 6.660156 L 14.996094 6.660156 L 14.996094 7.234375 " fill-opacity="1" fill-rule="nonzero"/></g><g mask="url(#840d7cad54)"><g transform="matrix(1, 0, 0, 1, 6, 8)"><g clip-path="url(#8fb332ce50)"><path fill="#ffffff" d="M 9.433594 5.222656 C 9.484375 4.601562 9.574219 3.988281 9.652344 3.46875 C 9.738281 2.949219 9.84375 2.335938 9.984375 1.730469 L 10.054688 1.742188 C 10.003906 2.363281 9.914062 2.976562 9.832031 3.496094 C 9.75 4.015625 9.644531 4.625 9.5 5.234375 L 9.433594 5.222656 " fill-opacity="1" fill-rule="nonzero"/><path fill="#ffffff" d="M 10.332031 5.503906 C 10.570312 4.929688 10.847656 4.371094 11.082031 3.902344 C 11.324219 3.433594 11.613281 2.886719 11.9375 2.351562 L 12 2.382812 C 11.757812 2.960938 11.484375 3.515625 11.246094 3.984375 C 11.007812 4.453125 10.71875 5.003906 10.390625 5.535156 L 10.332031 5.503906 " fill-opacity="1" fill-rule="nonzero"/><path fill="#ffffff" d="M 11.097656 6.050781 C 11.507812 5.574219 11.9375 5.128906 12.308594 4.757812 C 12.683594 4.386719 13.128906 3.953125 13.601562 3.546875 L 13.648438 3.597656 C 13.242188 4.070312 12.808594 4.515625 12.4375 4.886719 C 12.066406 5.257812 11.621094 5.691406 11.148438 6.097656 L 11.097656 6.050781 " fill-opacity="1" fill-rule="nonzero"/><path fill="#ffffff" d="M 11.660156 6.804688 C 12.195312 6.480469 12.742188 6.191406 13.210938 5.949219 C 13.679688 5.714844 14.238281 5.4375 14.8125 5.199219 L 14.84375 5.257812 C 14.3125 5.582031 13.761719 5.871094 13.292969 6.113281 C 12.824219 6.351562 12.269531 6.625 11.691406 6.867188 L 11.660156 6.804688 " fill-opacity="1" fill-rule="nonzero"/><path fill="#ffffff" d="M 11.960938 7.695312 C 12.570312 7.550781 13.183594 7.445312 13.699219 7.363281 C 14.21875 7.28125 14.835938 7.195312 15.457031 7.144531 L 15.46875 7.210938 C 14.859375 7.355469 14.246094 7.460938 13.730469 7.542969 C 13.210938 7.625 12.59375 7.714844 11.972656 7.765625 L 11.960938 7.695312 " fill-opacity="1" fill-rule="nonzero"/><path fill="#ffffff" d="M 15.457031 9.257812 C 14.835938 9.207031 14.21875 9.117188 13.699219 9.039062 C 13.183594 8.953125 12.570312 8.847656 11.960938 8.703125 L 11.972656 8.636719 C 12.59375 8.6875 13.210938 8.777344 13.730469 8.859375 C 14.246094 8.941406 14.859375 9.046875 15.46875 9.191406 L 15.457031 9.257812 " fill-opacity="1" fill-rule="nonzero"/><path fill="#ffffff" d="M 14.8125 11.203125 C 14.238281 10.960938 13.679688 10.6875 13.210938 10.449219 C 12.742188 10.210938 12.195312 9.921875 11.660156 9.597656 L 11.691406 9.535156 C 12.269531 9.777344 12.824219 10.050781 13.292969 10.289062 C 13.761719 10.527344 14.3125 10.816406 14.84375 11.140625 L 14.8125 11.203125 " fill-opacity="1" fill-rule="nonzero"/><path fill="#ffffff" d="M 13.601562 12.855469 C 13.128906 12.445312 12.683594 12.015625 12.308594 11.644531 C 11.9375 11.269531 11.507812 10.828125 11.097656 10.351562 L 11.148438 10.304688 C 11.621094 10.710938 12.066406 11.144531 12.4375 11.515625 C 12.808594 11.886719 13.242188 12.332031 13.648438 12.804688 L 13.601562 12.855469 " fill-opacity="1" fill-rule="nonzero"/><path fill="#ffffff" d="M 11.9375 14.050781 C 11.613281 13.515625 11.324219 12.964844 11.082031 12.5 C 10.847656 12.03125 10.570312 11.472656 10.332031 10.898438 L 10.390625 10.867188 C 10.71875 11.398438 11.007812 11.949219 11.246094 12.414062 C 11.484375 12.886719 11.757812 13.441406 12 14.019531 L 11.9375 14.050781 " fill-opacity="1" fill-rule="nonzero"/><path fill="#ffffff" d="M 9.984375 14.671875 C 9.84375 14.066406 9.738281 13.453125 9.652344 12.933594 C 9.574219 12.414062 9.484375 11.800781 9.433594 11.175781 L 9.5 11.167969 C 9.644531 11.773438 9.75 12.386719 9.832031 12.90625 C 9.914062 13.425781 10.003906 14.039062 10.054688 14.660156 L 9.984375 14.671875 " fill-opacity="1" fill-rule="nonzero"/><path fill="#ffffff" d="M 7.9375 14.660156 C 7.988281 14.039062 8.078125 13.425781 8.160156 12.90625 C 8.242188 12.386719 8.347656 11.773438 8.492188 11.167969 L 8.558594 11.175781 C 8.507812 11.800781 8.417969 12.414062 8.339844 12.933594 C 8.253906 13.453125 8.148438 14.066406 8.003906 14.671875 L 7.9375 14.660156 " fill-opacity="1" fill-rule="nonzero"/><path fill="#ffffff" d="M 5.992188 14.019531 C 6.234375 13.441406 6.507812 12.886719 6.746094 12.417969 C 6.984375 11.949219 7.273438 11.398438 7.601562 10.867188 L 7.660156 10.898438 C 7.421875 11.472656 7.144531 12.03125 6.910156 12.5 C 6.667969 12.964844 6.378906 13.515625 6.054688 14.050781 L 5.992188 14.019531 " fill-opacity="1" fill-rule="nonzero"/><path fill="#ffffff" d="M 4.34375 12.804688 C 4.75 12.332031 5.183594 11.886719 5.554688 11.515625 C 5.925781 11.144531 6.371094 10.710938 6.84375 10.304688 L 6.894531 10.351562 C 6.484375 10.828125 6.050781 11.269531 5.683594 11.644531 C 5.308594 12.015625 4.863281 12.445312 4.390625 12.855469 L 4.34375 12.804688 " fill-opacity="1" fill-rule="nonzero"/><path fill="#ffffff" d="M 3.148438 11.140625 C 3.679688 10.816406 4.230469 10.527344 4.699219 10.289062 C 5.167969 10.050781 5.722656 9.777344 6.300781 9.535156 L 6.332031 9.597656 C 5.796875 9.921875 5.246094 10.210938 4.78125 10.449219 C 4.3125 10.6875 3.753906 10.960938 3.179688 11.203125 L 3.148438 11.140625 " fill-opacity="1" fill-rule="nonzero"/><path fill="#ffffff" d="M 2.523438 9.191406 C 3.132812 9.046875 3.746094 8.941406 4.261719 8.859375 C 4.78125 8.777344 5.394531 8.6875 6.019531 8.636719 L 6.03125 8.703125 C 5.421875 8.847656 4.808594 8.953125 4.292969 9.039062 C 3.773438 9.117188 3.15625 9.207031 2.535156 9.257812 L 2.523438 9.191406 " fill-opacity="1" fill-rule="nonzero"/><path fill="#ffffff" d="M 6.019531 7.765625 C 5.398438 7.714844 4.78125 7.625 4.261719 7.542969 C 3.746094 7.460938 3.132812 7.355469 2.523438 7.210938 L 2.535156 7.144531 C 3.15625 7.195312 3.773438 7.28125 4.292969 7.363281 C 4.808594 7.445312 5.421875 7.550781 6.03125 7.695312 L 6.019531 7.765625 " fill-opacity="1" fill-rule="nonzero"/><path fill="#ffffff" d="M 6.300781 6.867188 C 5.722656 6.625 5.167969 6.351562 4.699219 6.113281 C 4.230469 5.871094 3.679688 5.582031 3.148438 5.257812 L 3.179688 5.199219 C 3.753906 5.4375 4.3125 5.714844 4.78125 5.949219 C 5.246094 6.191406 5.796875 6.480469 6.332031 6.804688 L 6.300781 6.867188 " fill-opacity="1" fill-rule="nonzero"/><path fill="#ffffff" d="M 6.84375 6.097656 C 6.371094 5.691406 5.925781 5.257812 5.554688 4.886719 C 5.183594 4.515625 4.75 4.070312 4.34375 3.597656 L 4.390625 3.546875 C 4.863281 3.953125 5.308594 4.386719 5.683594 4.757812 C 6.050781 5.128906 6.484375 5.574219 6.894531 6.050781 L 6.84375 6.097656 " fill-opacity="1" fill-rule="nonzero"/><path fill="#ffffff" d="M 7.601562 5.535156 C 7.273438 5.003906 6.984375 4.453125 6.746094 3.984375 C 6.507812 3.515625 6.234375 2.957031 5.992188 2.382812 L 6.054688 2.351562 C 6.378906 2.886719 6.667969 3.433594 6.910156 3.902344 C 7.144531 4.371094 7.421875 4.929688 7.660156 5.503906 L 7.601562 5.535156 " fill-opacity="1" fill-rule="nonzero"/><path fill="#ffffff" d="M 8.492188 5.234375 C 8.347656 4.625 8.242188 4.015625 8.160156 3.496094 C 8.078125 2.976562 7.988281 2.363281 7.9375 1.742188 L 8.003906 1.730469 C 8.148438 2.335938 8.253906 2.949219 8.339844 3.46875 C 8.417969 3.988281 8.507812 4.601562 8.558594 5.222656 L 8.492188 5.234375 " fill-opacity="1" fill-rule="nonzero"/><g clip-path="url(#ecebc71a22)"><path fill="#ffffff" d="M 8.960938 5.191406 C 8.953125 5.0625 8.949219 4.925781 8.941406 4.796875 C 8.941406 4.726562 8.9375 4.660156 8.933594 4.589844 L 8.917969 3.988281 C 8.90625 3.574219 8.90625 3.152344 8.90625 2.78125 C 8.90625 2.386719 8.90625 1.980469 8.917969 1.574219 L 8.933594 0.972656 C 8.9375 0.902344 8.941406 0.835938 8.941406 0.765625 C 8.949219 0.636719 8.953125 0.503906 8.960938 0.371094 L 9.03125 0.371094 C 9.039062 0.5 9.042969 0.636719 9.050781 0.765625 C 9.050781 0.835938 9.054688 0.902344 9.058594 0.972656 L 9.074219 1.574219 C 9.085938 1.976562 9.085938 2.386719 9.085938 2.78125 C 9.085938 3.152344 9.085938 3.574219 9.074219 3.988281 L 9.058594 4.589844 C 9.054688 4.660156 9.050781 4.726562 9.050781 4.796875 C 9.042969 4.925781 9.039062 5.0625 9.03125 5.191406 L 8.960938 5.191406 " fill-opacity="1" fill-rule="nonzero"/></g><g clip-path="url(#78377f9aa8)"><path fill="#ffffff" d="M 9.894531 5.328125 C 9.925781 5.199219 9.960938 5.074219 9.996094 4.949219 C 10.015625 4.882812 10.035156 4.8125 10.054688 4.746094 L 10.222656 4.167969 C 10.339844 3.773438 10.46875 3.371094 10.585938 3.019531 C 10.707031 2.644531 10.835938 2.257812 10.96875 1.875 L 11.171875 1.308594 C 11.195312 1.242188 11.21875 1.179688 11.242188 1.113281 C 11.289062 0.992188 11.335938 0.867188 11.382812 0.742188 L 11.449219 0.765625 C 11.414062 0.890625 11.378906 1.019531 11.34375 1.144531 C 11.324219 1.210938 11.308594 1.277344 11.289062 1.347656 L 11.117188 1.925781 C 11.003906 2.308594 10.878906 2.699219 10.757812 3.074219 C 10.640625 3.429688 10.507812 3.828125 10.371094 4.214844 L 10.171875 4.785156 C 10.144531 4.851562 10.121094 4.914062 10.097656 4.980469 C 10.054688 5.101562 10.007812 5.226562 9.957031 5.351562 L 9.894531 5.328125 " fill-opacity="1" fill-rule="nonzero"/></g><path fill="#ffffff" d="M 10.738281 5.746094 C 10.808594 5.636719 10.882812 5.523438 10.953125 5.417969 C 10.992188 5.359375 11.03125 5.300781 11.070312 5.242188 L 11.410156 4.746094 C 11.644531 4.40625 11.890625 4.0625 12.109375 3.761719 C 12.339844 3.445312 12.582031 3.113281 12.828125 2.796875 L 13.195312 2.316406 C 13.238281 2.261719 13.28125 2.207031 13.324219 2.152344 C 13.402344 2.050781 13.488281 1.945312 13.570312 1.84375 L 13.625 1.886719 C 13.554688 1.996094 13.480469 2.109375 13.410156 2.214844 C 13.371094 2.273438 13.332031 2.332031 13.292969 2.390625 L 12.953125 2.886719 C 12.722656 3.21875 12.484375 3.550781 12.253906 3.871094 C 12.035156 4.171875 11.785156 4.511719 11.535156 4.835938 L 11.167969 5.316406 C 11.125 5.371094 11.082031 5.425781 11.039062 5.480469 C 10.957031 5.582031 10.875 5.683594 10.792969 5.785156 L 10.738281 5.746094 " fill-opacity="1" fill-rule="nonzero"/><path fill="#ffffff" d="M 11.410156 6.40625 C 11.511719 6.320312 11.617188 6.238281 11.71875 6.15625 C 11.773438 6.113281 11.828125 6.070312 11.882812 6.027344 L 12.359375 5.660156 C 12.6875 5.410156 13.027344 5.160156 13.328125 4.941406 C 13.648438 4.710938 13.976562 4.472656 14.308594 4.242188 L 14.804688 3.902344 C 14.863281 3.863281 14.921875 3.824219 14.980469 3.789062 C 15.089844 3.714844 15.199219 3.640625 15.3125 3.570312 L 15.351562 3.625 C 15.25 3.710938 15.144531 3.792969 15.042969 3.875 C 14.988281 3.917969 14.933594 3.960938 14.878906 4.003906 L 14.402344 4.371094 C 14.082031 4.613281 13.753906 4.855469 13.433594 5.089844 C 13.132812 5.304688 12.789062 5.554688 12.453125 5.785156 L 11.953125 6.128906 C 11.894531 6.167969 11.835938 6.207031 11.78125 6.242188 C 11.671875 6.316406 11.5625 6.390625 11.449219 6.460938 L 11.410156 6.40625 " fill-opacity="1" fill-rule="nonzero"/><path fill="#ffffff" d="M 11.847656 7.238281 C 11.96875 7.191406 12.09375 7.144531 12.214844 7.097656 C 12.28125 7.074219 12.347656 7.050781 12.410156 7.027344 L 12.980469 6.824219 C 13.367188 6.6875 13.769531 6.554688 14.121094 6.4375 C 14.496094 6.320312 14.886719 6.195312 15.273438 6.078125 L 15.851562 5.910156 C 15.917969 5.890625 15.984375 5.871094 16.050781 5.851562 C 16.175781 5.816406 16.304688 5.78125 16.433594 5.75 L 16.453125 5.8125 C 16.332031 5.863281 16.207031 5.910156 16.082031 5.953125 C 16.019531 5.976562 15.953125 6 15.890625 6.027344 L 15.320312 6.226562 C 14.941406 6.363281 14.554688 6.488281 14.179688 6.613281 C 13.824219 6.726562 13.425781 6.855469 13.027344 6.972656 L 12.449219 7.144531 C 12.382812 7.164062 12.316406 7.179688 12.25 7.199219 C 12.125 7.234375 11.996094 7.269531 11.867188 7.304688 L 11.847656 7.238281 " fill-opacity="1" fill-rule="nonzero"/><path fill="#ffffff" d="M 14.414062 8.292969 C 14.042969 8.289062 13.621094 8.289062 13.210938 8.277344 L 12.609375 8.261719 C 12.539062 8.257812 12.46875 8.257812 12.398438 8.253906 C 12.269531 8.25 12.136719 8.242188 12.003906 8.234375 L 12.003906 8.167969 C 12.136719 8.15625 12.269531 8.152344 12.398438 8.148438 C 12.46875 8.144531 12.539062 8.140625 12.609375 8.136719 L 13.210938 8.121094 C 13.621094 8.113281 14.042969 8.109375 14.414062 8.109375 C 14.808594 8.109375 15.21875 8.113281 15.621094 8.121094 L 16.222656 8.140625 C 16.292969 8.140625 16.363281 8.144531 16.433594 8.148438 C 16.5625 8.152344 16.695312 8.15625 16.828125 8.167969 L 16.828125 8.234375 C 16.695312 8.242188 16.5625 8.25 16.433594 8.253906 C 16.363281 8.257812 16.292969 8.257812 16.222656 8.261719 L 15.621094 8.277344 C 15.21875 8.289062 14.808594 8.289062 14.414062 8.292969 " fill-opacity="1" fill-rule="nonzero"/><path fill="#ffffff" d="M 16.433594 10.652344 C 16.304688 10.621094 16.175781 10.585938 16.050781 10.550781 C 15.984375 10.53125 15.917969 10.511719 15.851562 10.492188 L 15.273438 10.320312 C 14.886719 10.207031 14.496094 10.082031 14.121094 9.960938 C 13.769531 9.847656 13.367188 9.714844 12.980469 9.578125 L 12.410156 9.375 C 12.347656 9.351562 12.28125 9.328125 12.214844 9.300781 C 12.09375 9.257812 11.96875 9.210938 11.847656 9.164062 L 11.867188 9.097656 C 11.996094 9.128906 12.125 9.167969 12.25 9.203125 C 12.316406 9.21875 12.382812 9.238281 12.449219 9.257812 L 13.027344 9.429688 C 13.425781 9.546875 13.824219 9.675781 14.179688 9.789062 C 14.554688 9.910156 14.941406 10.039062 15.320312 10.175781 L 15.886719 10.375 C 15.953125 10.398438 16.019531 10.425781 16.085938 10.449219 C 16.207031 10.492188 16.332031 10.539062 16.453125 10.589844 L 16.433594 10.652344 " fill-opacity="1" fill-rule="nonzero"/><path fill="#ffffff" d="M 15.3125 12.832031 C 15.199219 12.761719 15.089844 12.6875 14.980469 12.613281 C 14.921875 12.574219 14.863281 12.539062 14.808594 12.5 L 14.308594 12.15625 C 13.976562 11.929688 13.648438 11.691406 13.328125 11.460938 C 13.027344 11.242188 12.6875 10.992188 12.359375 10.742188 L 11.882812 10.375 C 11.828125 10.332031 11.773438 10.285156 11.71875 10.242188 C 11.617188 10.164062 11.511719 10.082031 11.410156 9.996094 L 11.449219 9.941406 C 11.5625 10.011719 11.671875 10.085938 11.78125 10.15625 C 11.839844 10.195312 11.894531 10.234375 11.953125 10.273438 L 12.453125 10.613281 C 12.792969 10.847656 13.132812 11.09375 13.433594 11.3125 C 13.753906 11.546875 14.082031 11.785156 14.402344 12.03125 L 14.878906 12.398438 C 14.933594 12.441406 14.988281 12.484375 15.042969 12.527344 C 15.144531 12.609375 15.25 12.691406 15.351562 12.777344 L 15.3125 12.832031 " fill-opacity="1" fill-rule="nonzero"/><path fill="#ffffff" d="M 13.570312 14.554688 C 13.488281 14.453125 13.402344 14.347656 13.324219 14.246094 C 13.28125 14.191406 13.238281 14.140625 13.195312 14.085938 L 12.828125 13.605469 C 12.582031 13.285156 12.339844 12.957031 12.109375 12.640625 C 11.890625 12.335938 11.644531 11.996094 11.410156 11.65625 L 11.070312 11.160156 C 11.03125 11.101562 10.992188 11.042969 10.953125 10.984375 C 10.882812 10.878906 10.808594 10.765625 10.738281 10.65625 L 10.792969 10.613281 C 10.875 10.714844 10.957031 10.820312 11.039062 10.921875 C 11.082031 10.976562 11.125 11.03125 11.167969 11.085938 L 11.535156 11.5625 C 11.785156 11.890625 12.035156 12.230469 12.253906 12.53125 C 12.484375 12.851562 12.722656 13.183594 12.953125 13.515625 L 13.292969 14.011719 C 13.332031 14.070312 13.371094 14.128906 13.410156 14.183594 C 13.480469 14.292969 13.554688 14.402344 13.625 14.515625 L 13.570312 14.554688 " fill-opacity="1" fill-rule="nonzero"/><path fill="#ffffff" d="M 11.382812 15.660156 C 11.335938 15.535156 11.289062 15.410156 11.242188 15.289062 C 11.21875 15.222656 11.195312 15.160156 11.171875 15.09375 L 10.96875 14.523438 C 10.835938 14.144531 10.707031 13.757812 10.585938 13.382812 C 10.46875 13.03125 10.339844 12.628906 10.222656 12.234375 L 10.054688 11.65625 C 10.035156 11.585938 10.015625 11.519531 9.996094 11.453125 C 9.960938 11.328125 9.925781 11.199219 9.894531 11.074219 L 9.957031 11.050781 C 10.007812 11.175781 10.054688 11.300781 10.097656 11.421875 C 10.121094 11.484375 10.144531 11.550781 10.171875 11.617188 L 10.371094 12.183594 C 10.511719 12.574219 10.640625 12.972656 10.757812 13.328125 C 10.878906 13.703125 11.003906 14.089844 11.117188 14.476562 L 11.289062 15.054688 C 11.308594 15.121094 11.324219 15.1875 11.34375 15.257812 C 11.378906 15.378906 11.414062 15.507812 11.449219 15.636719 L 11.382812 15.660156 " fill-opacity="1" fill-rule="nonzero"/><g clip-path="url(#baa63b0140)"><path fill="#ffffff" d="M 8.960938 16.03125 C 8.953125 15.898438 8.949219 15.765625 8.941406 15.636719 C 8.941406 15.566406 8.9375 15.496094 8.933594 15.429688 L 8.917969 14.824219 C 8.90625 14.421875 8.90625 14.015625 8.90625 13.621094 C 8.90625 13.25 8.90625 12.828125 8.917969 12.414062 L 8.933594 11.8125 C 8.9375 11.742188 8.941406 11.671875 8.941406 11.601562 C 8.949219 11.472656 8.953125 11.339844 8.960938 11.210938 L 9.03125 11.210938 C 9.039062 11.339844 9.042969 11.472656 9.050781 11.605469 C 9.050781 11.671875 9.054688 11.742188 9.058594 11.8125 L 9.074219 12.414062 C 9.085938 12.828125 9.085938 13.25 9.085938 13.621094 C 9.085938 14.015625 9.085938 14.421875 9.074219 14.824219 L 9.058594 15.429688 C 9.054688 15.496094 9.050781 15.566406 9.050781 15.636719 C 9.042969 15.765625 9.039062 15.898438 9.03125 16.03125 L 8.960938 16.03125 " fill-opacity="1" fill-rule="nonzero"/></g><path fill="#ffffff" d="M 6.542969 15.636719 C 6.578125 15.507812 6.613281 15.378906 6.648438 15.253906 C 6.667969 15.1875 6.683594 15.121094 6.703125 15.054688 L 6.875 14.476562 C 6.988281 14.089844 7.113281 13.703125 7.234375 13.328125 C 7.351562 12.972656 7.480469 12.574219 7.621094 12.183594 L 7.820312 11.617188 C 7.84375 11.550781 7.871094 11.484375 7.894531 11.421875 C 7.9375 11.300781 7.984375 11.175781 8.035156 11.050781 L 8.097656 11.074219 C 8.066406 11.199219 8.03125 11.328125 7.996094 11.453125 C 7.976562 11.519531 7.957031 11.585938 7.9375 11.65625 L 7.769531 12.234375 C 7.648438 12.628906 7.523438 13.03125 7.40625 13.382812 C 7.285156 13.757812 7.15625 14.144531 7.023438 14.523438 L 6.820312 15.09375 C 6.796875 15.160156 6.773438 15.222656 6.75 15.289062 C 6.703125 15.410156 6.65625 15.535156 6.609375 15.660156 L 6.542969 15.636719 " fill-opacity="1" fill-rule="nonzero"/><path fill="#ffffff" d="M 4.367188 14.515625 C 4.4375 14.402344 4.511719 14.292969 4.582031 14.183594 C 4.621094 14.125 4.660156 14.070312 4.699219 14.011719 L 5.039062 13.515625 C 5.269531 13.183594 5.507812 12.851562 5.738281 12.53125 C 5.957031 12.230469 6.203125 11.890625 6.457031 11.5625 L 6.824219 11.085938 C 6.867188 11.03125 6.910156 10.976562 6.953125 10.921875 C 7.03125 10.820312 7.117188 10.714844 7.199219 10.613281 L 7.253906 10.65625 C 7.183594 10.765625 7.109375 10.878906 7.039062 10.984375 C 7 11.042969 6.960938 11.101562 6.921875 11.160156 L 6.582031 11.65625 C 6.347656 11.996094 6.101562 12.335938 5.882812 12.640625 C 5.652344 12.957031 5.410156 13.285156 5.164062 13.605469 L 4.796875 14.082031 C 4.753906 14.136719 4.710938 14.191406 4.667969 14.246094 C 4.589844 14.347656 4.503906 14.453125 4.421875 14.554688 L 4.367188 14.515625 " fill-opacity="1" fill-rule="nonzero"/><path fill="#ffffff" d="M 2.640625 12.777344 C 2.742188 12.691406 2.847656 12.609375 2.949219 12.527344 C 3.003906 12.484375 3.058594 12.441406 3.113281 12.398438 L 3.589844 12.03125 C 3.910156 11.785156 4.238281 11.546875 4.558594 11.3125 C 4.859375 11.09375 5.199219 10.847656 5.539062 10.613281 L 6.039062 10.273438 C 6.097656 10.234375 6.152344 10.195312 6.210938 10.15625 C 6.320312 10.085938 6.429688 10.011719 6.542969 9.941406 L 6.582031 9.996094 C 6.480469 10.082031 6.375 10.164062 6.273438 10.242188 C 6.21875 10.285156 6.164062 10.328125 6.109375 10.375 L 5.632812 10.742188 C 5.304688 10.992188 4.964844 11.242188 4.664062 11.460938 C 4.34375 11.691406 4.015625 11.929688 3.683594 12.15625 L 3.1875 12.5 C 3.128906 12.539062 3.070312 12.574219 3.011719 12.613281 C 2.902344 12.6875 2.792969 12.761719 2.679688 12.832031 L 2.640625 12.777344 " fill-opacity="1" fill-rule="nonzero"/><g clip-path="url(#cebb096a0c)"><path fill="#ffffff" d="M 1.539062 10.589844 C 1.660156 10.539062 1.785156 10.492188 1.90625 10.449219 C 1.972656 10.425781 2.039062 10.398438 2.101562 10.375 L 2.671875 10.175781 C 3.050781 10.039062 3.4375 9.910156 3.8125 9.789062 C 4.167969 9.675781 4.566406 9.546875 4.964844 9.429688 L 5.542969 9.257812 C 5.609375 9.238281 5.675781 9.21875 5.742188 9.203125 C 5.867188 9.167969 5.996094 9.128906 6.125 9.097656 L 6.144531 9.164062 C 6.023438 9.210938 5.898438 9.257812 5.777344 9.304688 C 5.710938 9.328125 5.644531 9.351562 5.582031 9.375 L 5.011719 9.578125 C 4.625 9.714844 4.222656 9.847656 3.871094 9.960938 C 3.496094 10.082031 3.105469 10.207031 2.71875 10.320312 L 2.140625 10.492188 C 2.074219 10.511719 2.007812 10.53125 1.941406 10.550781 C 1.816406 10.585938 1.6875 10.621094 1.558594 10.652344 L 1.539062 10.589844 " fill-opacity="1" fill-rule="nonzero"/></g><g clip-path="url(#fbdeedd4e4)"><path fill="#ffffff" d="M 3.578125 8.292969 C 3.183594 8.289062 2.773438 8.289062 2.371094 8.277344 L 1.769531 8.261719 C 1.699219 8.257812 1.628906 8.257812 1.558594 8.253906 C 1.429688 8.25 1.296875 8.242188 1.164062 8.234375 L 1.164062 8.167969 C 1.296875 8.15625 1.429688 8.152344 1.558594 8.148438 C 1.628906 8.144531 1.699219 8.140625 1.769531 8.140625 L 2.371094 8.121094 C 2.773438 8.113281 3.183594 8.109375 3.578125 8.109375 C 3.949219 8.109375 4.371094 8.113281 4.78125 8.121094 L 5.382812 8.136719 C 5.453125 8.140625 5.523438 8.144531 5.59375 8.148438 C 5.722656 8.152344 5.855469 8.15625 5.988281 8.167969 L 5.988281 8.234375 C 5.855469 8.242188 5.722656 8.25 5.59375 8.253906 C 5.523438 8.257812 5.453125 8.257812 5.382812 8.261719 L 4.78125 8.277344 C 4.371094 8.289062 3.949219 8.289062 3.578125 8.292969 " fill-opacity="1" fill-rule="nonzero"/></g><g clip-path="url(#12bc60152a)"><path fill="#ffffff" d="M 6.125 7.304688 C 5.996094 7.269531 5.867188 7.234375 5.742188 7.199219 C 5.675781 7.179688 5.609375 7.164062 5.542969 7.144531 L 4.964844 6.972656 C 4.570312 6.855469 4.167969 6.726562 3.8125 6.613281 C 3.4375 6.488281 3.050781 6.363281 2.671875 6.226562 L 2.105469 6.027344 C 2.039062 6 1.972656 5.976562 1.90625 5.953125 C 1.785156 5.910156 1.660156 5.863281 1.539062 5.8125 L 1.558594 5.75 C 1.6875 5.78125 1.816406 5.816406 1.941406 5.851562 C 2.007812 5.871094 2.074219 5.890625 2.140625 5.910156 L 2.71875 6.078125 C 3.105469 6.195312 3.496094 6.320312 3.871094 6.4375 C 4.222656 6.554688 4.625 6.6875 5.011719 6.824219 L 5.578125 7.027344 C 5.644531 7.050781 5.710938 7.074219 5.777344 7.097656 C 5.898438 7.144531 6.023438 7.191406 6.144531 7.238281 L 6.125 7.304688 " fill-opacity="1" fill-rule="nonzero"/></g><path fill="#ffffff" d="M 6.542969 6.460938 C 6.429688 6.390625 6.320312 6.316406 6.210938 6.242188 C 6.152344 6.207031 6.097656 6.167969 6.039062 6.128906 L 5.539062 5.785156 C 5.199219 5.554688 4.859375 5.304688 4.558594 5.089844 C 4.238281 4.855469 3.910156 4.617188 3.589844 4.371094 L 3.113281 4.003906 C 3.058594 3.960938 3.003906 3.914062 2.949219 3.871094 C 2.847656 3.792969 2.742188 3.710938 2.640625 3.625 L 2.679688 3.570312 C 2.792969 3.640625 2.902344 3.714844 3.011719 3.789062 C 3.070312 3.824219 3.128906 3.863281 3.183594 3.902344 L 3.683594 4.242188 C 4.015625 4.472656 4.34375 4.710938 4.664062 4.941406 C 4.964844 5.160156 5.304688 5.410156 5.632812 5.660156 L 6.109375 6.027344 C 6.164062 6.070312 6.21875 6.113281 6.273438 6.15625 C 6.375 6.238281 6.480469 6.320312 6.582031 6.40625 L 6.542969 6.460938 " fill-opacity="1" fill-rule="nonzero"/><path fill="#ffffff" d="M 7.199219 5.785156 C 7.117188 5.683594 7.03125 5.582031 6.953125 5.480469 C 6.910156 5.425781 6.867188 5.371094 6.824219 5.316406 L 6.457031 4.835938 C 6.203125 4.507812 5.957031 4.167969 5.738281 3.871094 C 5.507812 3.550781 5.265625 3.21875 5.039062 2.886719 L 4.699219 2.390625 C 4.660156 2.332031 4.621094 2.273438 4.582031 2.21875 C 4.511719 2.109375 4.4375 1.996094 4.367188 1.886719 L 4.421875 1.84375 C 4.503906 1.949219 4.589844 2.050781 4.667969 2.152344 C 4.710938 2.207031 4.753906 2.261719 4.796875 2.316406 L 5.164062 2.796875 C 5.410156 3.113281 5.652344 3.445312 5.882812 3.761719 C 6.101562 4.0625 6.347656 4.40625 6.582031 4.746094 L 6.921875 5.242188 C 6.960938 5.300781 7 5.359375 7.039062 5.417969 C 7.109375 5.523438 7.183594 5.636719 7.253906 5.746094 L 7.199219 5.785156 " fill-opacity="1" fill-rule="nonzero"/><g clip-path="url(#ae9aadbf31)"><path fill="#ffffff" d="M 8.035156 5.351562 C 7.984375 5.226562 7.9375 5.101562 7.894531 4.980469 C 7.871094 4.914062 7.84375 4.851562 7.820312 4.785156 L 7.621094 4.214844 C 7.480469 3.828125 7.351562 3.425781 7.234375 3.074219 C 7.113281 2.699219 6.988281 2.3125 6.875 1.925781 L 6.703125 1.347656 C 6.683594 1.277344 6.667969 1.210938 6.648438 1.144531 C 6.613281 1.019531 6.578125 0.890625 6.542969 0.765625 L 6.609375 0.742188 C 6.65625 0.867188 6.703125 0.992188 6.75 1.113281 C 6.773438 1.179688 6.796875 1.242188 6.820312 1.308594 L 7.023438 1.875 C 7.15625 2.257812 7.285156 2.644531 7.40625 3.019531 C 7.523438 3.371094 7.648438 3.773438 7.769531 4.167969 L 7.9375 4.746094 C 7.957031 4.8125 7.976562 4.882812 7.996094 4.949219 C 8.03125 5.074219 8.066406 5.199219 8.097656 5.328125 L 8.035156 5.351562 " fill-opacity="1" fill-rule="nonzero"/></g></g></g></g><g clip-path="url(#ea8326bbf2)"><path fill="#e1be64" d="M 8.507812 8.328125 L 9.277344 8.886719 L 8.984375 7.984375 L 9.75 7.4375 L 8.808594 7.4375 L 8.507812 6.507812 L 8.210938 7.4375 L 7.269531 7.4375 L 8.035156 7.984375 L 7.742188 8.886719 Z M 8.507812 8.328125 " fill-opacity="1" fill-rule="nonzero"/></g><g fill="#ffffff" fill-opacity="1"><g transform="translate(10.773631, 18.466863)"><g><path d="M 3.59375 -7.421875 L 3.109375 -7.421875 C 3.097656 -7.421875 3.085938 -7.421875 3.078125 -7.421875 L 3.078125 -0.828125 C 3.085938 -0.628906 3.160156 -0.457031 3.296875 -0.3125 C 3.429688 -0.175781 3.597656 -0.109375 3.796875 -0.109375 L 3.953125 -0.109375 L 3.953125 0 L 0.515625 0 L 0.515625 -0.109375 L 0.65625 -0.109375 C 0.925781 -0.109375 1.132812 -0.226562 1.28125 -0.46875 C 1.34375 -0.570312 1.375 -0.6875 1.375 -0.8125 L 1.375 -7.09375 C 1.375 -7.289062 1.300781 -7.457031 1.15625 -7.59375 C 1.019531 -7.738281 0.851562 -7.8125 0.65625 -7.8125 L 0.515625 -7.8125 L 0.515625 -7.921875 L 4.390625 -7.921875 C 5.117188 -7.921875 5.738281 -7.757812 6.25 -7.4375 C 6.5 -7.28125 6.695312 -7.0625 6.84375 -6.78125 C 7 -6.5 7.078125 -6.128906 7.078125 -5.671875 C 7.078125 -5.210938 6.914062 -4.769531 6.59375 -4.34375 C 6.28125 -3.925781 5.820312 -3.6875 5.21875 -3.625 C 5.65625 -3.488281 6.039062 -3.160156 6.375 -2.640625 C 7.195312 -1.328125 7.800781 -0.550781 8.1875 -0.3125 C 8.382812 -0.1875 8.628906 -0.117188 8.921875 -0.109375 L 8.921875 0 L 7.8125 0 C 7.15625 0 6.609375 -0.0820312 6.171875 -0.25 C 5.742188 -0.425781 5.40625 -0.734375 5.15625 -1.171875 C 5.007812 -1.421875 4.695312 -2.066406 4.21875 -3.109375 C 4.007812 -3.566406 3.753906 -3.820312 3.453125 -3.875 L 3.453125 -3.984375 L 3.796875 -3.984375 C 4.140625 -3.984375 4.441406 -4.082031 4.703125 -4.28125 C 4.960938 -4.488281 5.132812 -4.820312 5.21875 -5.28125 C 5.25 -5.4375 5.265625 -5.5625 5.265625 -5.65625 C 5.265625 -6.269531 5.140625 -6.710938 4.890625 -6.984375 C 4.648438 -7.265625 4.332031 -7.410156 3.9375 -7.421875 C 3.863281 -7.421875 3.75 -7.421875 3.59375 -7.421875 Z M 3.59375 -7.421875 "/></g></g></g><g clip-path="url(#53f223228a)"><path fill="#e1be64" d="M 21.53125 8.328125 L 22.300781 8.886719 L 22.007812 7.984375 L 22.773438 7.4375 L 21.832031 7.4375 L 21.53125 6.507812 L 21.234375 7.4375 L 20.292969 7.4375 L 21.058594 7.984375 L 20.765625 8.886719 Z M 21.53125 8.328125 " fill-opacity="1" fill-rule="nonzero"/></g><g clip-path="url(#4de57d69f8)"><path fill="#e1be64" d="M 11.511719 22.894531 L 12.277344 23.453125 L 11.984375 22.550781 L 12.753906 22.003906 L 11.8125 22.003906 L 11.511719 21.070312 L 11.210938 22.003906 L 10.269531 22.003906 L 11.035156 22.550781 L 10.742188 23.453125 Z M 11.511719 22.894531 " fill-opacity="1" fill-rule="nonzero"/></g><g clip-path="url(#56ef6a5dfc)"><path fill="#e1be64" d="M 14.964844 22.894531 L 15.730469 23.453125 L 15.4375 22.550781 L 16.207031 22.003906 L 15.265625 22.003906 L 14.964844 21.070312 L 14.664062 22.003906 L 13.722656 22.003906 L 14.492188 22.550781 L 14.199219 23.453125 Z M 14.964844 22.894531 " fill-opacity="1" fill-rule="nonzero"/></g><g clip-path="url(#7ad1608e5a)"><path fill="#e1be64" d="M 18.363281 22.894531 L 19.128906 23.453125 L 18.835938 22.550781 L 19.601562 22.003906 L 18.660156 22.003906 L 18.363281 21.070312 L 18.0625 22.003906 L 17.121094 22.003906 L 17.886719 22.550781 L 17.59375 23.453125 Z M 18.363281 22.894531 " fill-opacity="1" fill-rule="nonzero"/></g></svg>