<svg xmlns="http://www.w3.org/2000/svg" xmlns:xlink="http://www.w3.org/1999/xlink" width="40" zoomAndPan="magnify" viewBox="0 0 30 30.000001" height="40" preserveAspectRatio="xMidYMid meet" version="1.0"><defs><clipPath id="2e8769f186"><path d="M 0.484375 0 L 29.515625 0 L 29.515625 29.03125 L 0.484375 29.03125 Z M 0.484375 0 " clip-rule="nonzero"/></clipPath><clipPath id="be3f262434"><path d="M 3.960938 0 L 25.734375 0 L 25.734375 29.03125 L 3.960938 29.03125 Z M 3.960938 0 " clip-rule="nonzero"/></clipPath></defs><g clip-path="url(#2e8769f186)"><path fill="#ffffff" d="M 0.484375 0 L 29.515625 0 L 29.515625 29.03125 L 0.484375 29.03125 Z M 0.484375 0 " fill-opacity="1" fill-rule="nonzero"/><path fill="#010101" d="M 0.484375 0 L 29.515625 0 L 29.515625 29.03125 L 0.484375 29.03125 Z M 0.484375 0 " fill-opacity="1" fill-rule="nonzero"/></g><g clip-path="url(#be3f262434)"><path fill="#010101" d="M 24.308594 15.992188 C 24.28125 15.941406 24.261719 15.917969 24.261719 15.917969 L 24.285156 15.921875 C 24.402344 15.394531 24.410156 14.867188 24.304688 14.339844 C 24.824219 14.226562 25.296875 14.015625 25.734375 13.710938 C 25.269531 13.527344 24.839844 13.277344 24.449219 12.957031 C 24.078125 12.640625 23.746094 12.285156 23.445312 11.898438 L 24.414062 12.191406 L 23.378906 10.265625 C 23.015625 9.796875 22.570312 9.4375 22.039062 9.1875 L 21.855469 9.109375 L 21.832031 9.101562 C 22.039062 8.902344 22.386719 8.628906 22.960938 8.316406 C 22.085938 7.785156 21.105469 7.804688 20.558594 7.871094 C 20.4375 7.882812 20.316406 7.90625 20.199219 7.933594 C 20.15625 7.941406 20.132812 7.949219 20.132812 7.949219 C 20.15625 7.855469 20.167969 7.761719 20.171875 7.667969 L 20.175781 7.542969 L 20.292969 7.09375 L 21.179688 5.035156 L 20.921875 4.636719 L 21.46875 4.359375 L 22.933594 0.953125 L 17.46875 3.28125 L 15.539062 0.421875 L 14.847656 -0.867188 L 14.15625 0.421875 L 12.226562 3.28125 L 6.757812 0.957031 L 8.226562 4.363281 L 8.773438 4.636719 L 8.519531 5.035156 L 9.40625 7.09375 L 9.523438 7.542969 L 9.527344 7.667969 C 9.53125 7.765625 9.542969 7.855469 9.566406 7.949219 C 9.566406 7.949219 9.542969 7.941406 9.5 7.933594 C 9.378906 7.90625 9.261719 7.886719 9.140625 7.871094 C 8.59375 7.804688 7.613281 7.789062 6.734375 8.316406 C 7.308594 8.632812 7.65625 8.902344 7.867188 9.101562 L 7.84375 9.109375 L 7.65625 9.1875 C 7.128906 9.4375 6.683594 9.796875 6.320312 10.265625 L 5.285156 12.195312 L 6.253906 11.898438 C 5.953125 12.285156 5.617188 12.640625 5.25 12.957031 C 4.855469 13.277344 4.429688 13.527344 3.960938 13.710938 C 4.394531 14.015625 4.871094 14.226562 5.386719 14.339844 C 5.285156 14.867188 5.289062 15.394531 5.410156 15.921875 L 5.429688 15.917969 C 5.429688 15.917969 5.414062 15.941406 5.386719 15.992188 C 5.085938 16.519531 4.886719 17.1875 4.796875 18.003906 C 4.683594 18.753906 4.632812 19.714844 4.734375 20.902344 C 5.011719 20.660156 5.226562 20.46875 5.386719 20.324219 C 5.378906 20.363281 5.371094 20.40625 5.363281 20.449219 C 5.34375 20.527344 5.066406 21.761719 4.734375 22.988281 C 5.210938 22.707031 5.664062 22.386719 6.085938 22.027344 C 6.082031 22.128906 6.078125 22.226562 6.082031 22.328125 C 6.101562 24.011719 7.082031 25.078125 7.121094 25.125 L 7.375 25.394531 L 7.601562 25.636719 L 8.238281 26.320312 C 8.238281 26.320312 8.386719 27.945312 10.148438 29.472656 L 10.230469 28.820312 C 10.449219 29.113281 10.734375 29.46875 10.921875 29.621094 C 10.925781 29.605469 10.96875 28.464844 11.015625 28.292969 C 11.234375 28.753906 11.722656 29.417969 12.796875 29.800781 C 12.738281 29.566406 12.691406 29.363281 12.65625 29.199219 C 12.824219 29.375 13.03125 29.589844 13.21875 29.773438 C 13.332031 29.898438 13.457031 30.011719 13.589844 30.113281 C 13.613281 30.128906 13.628906 30.144531 13.648438 30.152344 C 13.617188 29.828125 13.597656 29.613281 13.585938 29.472656 C 13.65625 29.53125 13.730469 29.585938 13.8125 29.640625 C 14.003906 29.886719 14.328125 30.171875 14.847656 30.308594 C 15.367188 30.171875 15.691406 29.886719 15.882812 29.640625 C 15.964844 29.585938 16.039062 29.53125 16.109375 29.472656 C 16.097656 29.613281 16.078125 29.828125 16.046875 30.152344 C 16.0625 30.140625 16.082031 30.128906 16.105469 30.113281 C 16.238281 30.011719 16.363281 29.898438 16.476562 29.773438 C 16.664062 29.589844 16.875 29.375 17.039062 29.199219 C 17 29.363281 16.953125 29.566406 16.898438 29.800781 C 17.972656 29.417969 18.460938 28.75 18.679688 28.292969 C 18.722656 28.464844 18.769531 29.605469 18.773438 29.621094 C 18.960938 29.46875 19.246094 29.113281 19.464844 28.820312 L 19.546875 29.472656 C 21.304688 27.945312 21.457031 26.320312 21.457031 26.320312 L 22.09375 25.636719 L 22.320312 25.394531 L 22.570312 25.125 C 22.613281 25.078125 23.589844 24.011719 23.613281 22.328125 C 23.613281 22.226562 23.613281 22.128906 23.609375 22.027344 C 23.898438 22.28125 24.335938 22.613281 24.960938 22.988281 C 24.628906 21.761719 24.351562 20.527344 24.332031 20.449219 C 24.324219 20.40625 24.316406 20.363281 24.308594 20.324219 C 24.46875 20.46875 24.683594 20.660156 24.960938 20.902344 C 25.0625 19.714844 25.011719 18.753906 24.898438 18.003906 C 24.808594 17.1875 24.609375 16.519531 24.308594 15.992188 Z M 24.308594 15.992188 " fill-opacity="1" fill-rule="nonzero"/></g><path fill="#dfaf67" d="M 8.753906 11.75 C 8.746094 11.785156 8.53125 12.957031 7.351562 13.757812 C 6.152344 14.570312 6.214844 15.695312 6.214844 15.695312 C 6.214844 15.695312 5.828125 14.246094 6.945312 13.09375 C 6.296875 13.582031 5.46875 13.882812 5.441406 13.894531 C 5.484375 13.863281 6.8125 12.851562 7.414062 11.613281 C 7.414062 11.613281 7.550781 12.4375 7.375 13.15625 C 8.351562 12.703125 8.742188 11.777344 8.753906 11.75 Z M 8.753906 11.75 " fill-opacity="1" fill-rule="nonzero"/><path fill="#dfaf67" d="M 12.371094 28.488281 C 12.339844 28.476562 11.324219 28.113281 11.347656 25.773438 C 11.375 23.398438 10.71875 22.640625 10.71875 22.640625 C 11.378906 25.410156 10.210938 28.050781 10.175781 28.121094 C 10.1875 28.050781 10.546875 25.382812 9.558594 23.535156 C 9.832031 24.875 9.203125 25.71875 9.453125 27.351562 C 8.675781 26.179688 9.160156 23.410156 8.648438 22.167969 C 8.792969 23.855469 8.214844 25.597656 8.214844 25.597656 C 8.214844 25.597656 8.214844 23.035156 7.566406 21.421875 C 7.140625 22.949219 7.710938 24.488281 7.726562 24.53125 C 7.699219 24.503906 6.769531 23.472656 6.9375 21.886719 C 7.109375 20.277344 6.859375 19.183594 6.859375 19.183594 C 6.859375 19.183594 6.816406 20.035156 6.105469 20.96875 C 6.621094 18.78125 6.121094 17.917969 6.121094 17.917969 C 5.699219 18.933594 5.578125 19.570312 5.578125 19.570312 C 5.441406 15.601562 7.183594 15.613281 7.183594 15.613281 C 7.183594 15.613281 6.371094 16.773438 6.546875 17.917969 C 7.441406 15.628906 9.3125 15.355469 9.371094 15.347656 C 8.386719 16.050781 8.007812 16.871094 7.984375 16.921875 C 8.015625 16.878906 8.460938 16.265625 9.429688 15.808594 C 8.125 16.851562 8.144531 18.3125 8.144531 18.3125 L 8.148438 18.308594 C 8.195312 18.238281 8.683594 17.488281 9.394531 16.917969 L 9.398438 16.914062 C 8.226562 18.355469 8.402344 20.027344 8.402344 20.027344 C 8.402344 20.027344 8.742188 18.660156 9.410156 17.828125 C 8.699219 19.589844 9.285156 21.441406 9.296875 21.480469 C 9.296875 21.480469 9.300781 21.207031 9.34375 20.828125 C 9.34375 20.824219 9.34375 20.820312 9.34375 20.816406 C 9.410156 20.222656 9.5625 19.363281 9.929688 18.839844 C 9.527344 21.121094 10.464844 22.753906 10.464844 22.753906 C 10.464844 22.753906 10.464844 21.425781 10.136719 20.375 C 11.832031 22.402344 11.609375 25.355469 11.609375 25.355469 C 11.609375 25.355469 11.742188 24.871094 11.953125 24.503906 C 11.449219 27.464844 12.339844 28.457031 12.371094 28.488281 Z M 12.371094 28.488281 " fill-opacity="1" fill-rule="nonzero"/><path fill="#dfaf67" d="M 10.09375 10.894531 C 10.09375 10.894531 9.234375 10.644531 8.359375 10.828125 C 8.761719 10.929688 8.878906 11.011719 8.878906 11.011719 C 8.878906 11.011719 8.027344 10.988281 7.914062 12.148438 C 7.429688 10.964844 7.699219 10.5625 7.699219 10.5625 L 6.984375 10.78125 C 6.984375 10.78125 7.972656 9.4375 9.402344 9.851562 C 9.402344 9.851562 8.964844 8.980469 8.089844 8.773438 C 9.546875 8.488281 10.867188 9.09375 10.09375 10.894531 Z M 10.09375 10.894531 " fill-opacity="1" fill-rule="nonzero"/><path fill="#dfaf67" d="M 13.097656 15.261719 C 13.074219 15.277344 12.574219 15.566406 12.128906 15.453125 C 11.683594 15.34375 11.390625 14.734375 11.382812 14.714844 L 12.195312 14.976562 L 12.195312 15.269531 L 12.21875 15.246094 L 12.425781 15.050781 Z M 13.097656 15.261719 " fill-opacity="1" fill-rule="nonzero"/><path fill="#dfaf67" d="M 13.007812 27.070312 C 12.988281 27.476562 13.050781 27.871094 13.191406 28.253906 C 13.253906 28.417969 13.332031 28.574219 13.425781 28.722656 C 12.980469 28.425781 12.75 27.960938 12.632812 27.507812 C 12.527344 27.082031 12.496094 26.644531 12.535156 26.207031 C 12.617188 27.078125 12.816406 27.4375 12.816406 27.4375 C 12.816406 27.4375 12.773438 26.769531 12.90625 26.320312 C 13.046875 26.933594 13.671875 27.910156 13.691406 27.941406 C 13.589844 27.539062 13.695312 26.980469 13.695312 26.980469 C 13.695312 26.980469 13.699219 27.027344 13.710938 27.113281 C 13.8125 27.753906 14.003906 28.363281 14.289062 28.941406 C 13.234375 28.199219 13.019531 27.136719 13.007812 27.074219 C 13.007812 27.074219 13.007812 27.070312 13.007812 27.070312 Z M 13.007812 27.070312 " fill-opacity="1" fill-rule="nonzero"/><path fill="#dfaf67" d="M 13.097656 8.207031 C 13.40625 8.367188 13.648438 8.605469 13.816406 8.917969 C 13.796875 8.910156 13.199219 8.589844 12.238281 8.371094 C 12.847656 8.996094 13.140625 9.429688 13.140625 9.429688 C 13.140625 9.429688 12.277344 8.824219 11.328125 8.578125 C 10.382812 8.335938 10.359375 7.636719 10.359375 7.636719 C 10.359375 7.636719 10.835938 8.03125 11.871094 7.976562 L 11.410156 7.699219 C 11.410156 7.699219 12.941406 7.5 13.855469 7.953125 C 13.4375 7.527344 13.332031 7.351562 13.324219 7.34375 C 13.359375 7.351562 14.785156 7.785156 14.8125 9.296875 C 14.8125 9.300781 14.109375 8.222656 13.097656 8.207031 Z M 13.097656 8.207031 " fill-opacity="1" fill-rule="nonzero"/><path fill="#ffffff" d="M 15.363281 18.3125 C 15.550781 18.15625 15.761719 18.125 15.984375 18.222656 C 15.984375 18.222656 15.890625 17.863281 15.417969 17.925781 C 14.949219 17.988281 14.8125 17.960938 14.8125 17.960938 C 14.8125 17.960938 14.675781 17.988281 14.203125 17.925781 C 13.734375 17.863281 13.636719 18.222656 13.636719 18.222656 C 13.863281 18.125 14.074219 18.15625 14.261719 18.3125 C 14.578125 18.558594 14.8125 18.542969 14.8125 18.542969 C 14.8125 18.542969 15.046875 18.558594 15.363281 18.3125 Z M 15.363281 18.3125 " fill-opacity="1" fill-rule="nonzero"/><path fill="#ffffff" d="M 15.773438 21.421875 L 15.703125 21.113281 L 15.671875 21.246094 C 15.300781 21.195312 14.8125 21.246094 14.8125 21.246094 C 14.8125 21.246094 14.324219 21.195312 13.953125 21.246094 L 13.921875 21.113281 L 13.847656 21.421875 C 13.839844 21.414062 13.683594 21.261719 13.742188 20.90625 C 13.742188 20.90625 13.988281 21.003906 14.8125 20.914062 C 15.640625 21.003906 15.886719 20.90625 15.886719 20.90625 C 15.941406 21.269531 15.773438 21.421875 15.773438 21.421875 Z M 15.773438 21.421875 " fill-opacity="1" fill-rule="nonzero"/><path fill="#dfaf67" d="M 15.855469 26.300781 C 16.179688 25.789062 16.0625 25.074219 16.0625 25.074219 C 16.0625 25.074219 15.960938 26.589844 14.8125 26.589844 C 13.667969 26.589844 13.566406 25.074219 13.566406 25.074219 C 13.566406 25.074219 13.449219 25.789062 13.773438 26.300781 C 11.671875 25.605469 12.464844 23.648438 12.464844 23.648438 C 12.464844 23.648438 12.585938 24.304688 13.144531 24.128906 C 12.707031 23.441406 12.894531 22.574219 12.894531 22.574219 C 13.199219 23.238281 13.578125 23.601562 13.804688 23.773438 C 14.402344 23.492188 14.8125 23.539062 14.8125 23.539062 C 14.8125 23.539062 15.226562 23.492188 15.824219 23.773438 C 16.050781 23.601562 16.429688 23.238281 16.734375 22.574219 C 16.734375 22.574219 16.921875 23.441406 16.484375 24.128906 C 17.042969 24.304688 17.164062 23.648438 17.164062 23.648438 C 17.164062 23.648438 17.953125 25.605469 15.855469 26.300781 Z M 15.855469 26.300781 " fill-opacity="1" fill-rule="nonzero"/><path fill="#ffffff" d="M 22.148438 15.113281 C 21.074219 14.070312 21.195312 11.863281 18.746094 11.925781 C 19.246094 12.269531 19.492188 12.96875 19.507812 13.019531 C 19.46875 12.960938 18.675781 11.863281 17.234375 11.757812 L 17.203125 11.71875 C 16.796875 11.238281 16.214844 11.257812 15.726562 11.425781 C 15.773438 11.269531 15.953125 10.929688 16.585938 10.671875 C 17.449219 10.324219 17.636719 10.105469 17.636719 10.105469 C 17.636719 10.105469 17.785156 10.730469 16.746094 11.226562 C 16.746094 11.226562 17.949219 11.378906 18.644531 10.84375 C 18.394531 11.300781 17.867188 11.582031 17.253906 11.542969 C 17.253906 11.542969 20.128906 12.523438 18.921875 9.714844 C 19.058594 10.441406 18.125 10.703125 18.101562 10.710938 C 18.128906 10.691406 18.800781 10.1875 17.976562 8.917969 C 17.828125 9.773438 15.863281 9.761719 15.359375 11.226562 C 15.296875 10.144531 16.203125 9.179688 16.203125 9.179688 C 16.203125 9.179688 15.117188 9.476562 14.8125 10.644531 C 14.507812 9.476562 13.425781 9.179688 13.425781 9.179688 C 13.425781 9.179688 14.332031 10.148438 14.265625 11.230469 C 13.761719 9.765625 11.800781 9.777344 11.648438 8.925781 C 10.824219 10.191406 11.5 10.695312 11.527344 10.714844 C 11.5 10.707031 10.566406 10.445312 10.707031 9.71875 C 9.515625 12.492188 12.300781 11.574219 12.371094 11.550781 C 11.757812 11.585938 11.230469 11.304688 10.980469 10.847656 C 11.675781 11.382812 12.878906 11.230469 12.878906 11.230469 C 11.839844 10.734375 11.988281 10.109375 11.988281 10.109375 C 11.988281 10.109375 12.179688 10.328125 13.039062 10.679688 C 13.675781 10.9375 13.851562 11.273438 13.902344 11.433594 C 13.410156 11.261719 12.828125 11.246094 12.425781 11.722656 L 12.390625 11.761719 C 10.949219 11.867188 10.160156 12.964844 10.117188 13.023438 C 10.132812 12.972656 10.378906 12.273438 10.878906 11.933594 C 8.433594 11.871094 8.554688 14.074219 7.476562 15.117188 C 8.9375 14.703125 9.867188 12.980469 9.929688 12.863281 C 9.902344 12.933594 9.636719 13.597656 9.609375 14.304688 C 10.125 13.285156 10.910156 12.925781 11.347656 12.804688 C 10.957031 13.152344 10.597656 13.449219 10.3125 13.765625 C 10.214844 14.027344 10.121094 14.753906 10.328125 14.996094 C 10.351562 15.023438 10.378906 15.046875 10.414062 15.058594 C 10.726562 15.191406 11.148438 15.019531 11.148438 15.019531 C 11.148438 15.019531 11.078125 14.546875 10.6875 14.457031 C 10.910156 14.3125 11.347656 14.140625 12.308594 14.734375 C 13.269531 15.328125 13.914062 14.898438 14.101562 14.640625 C 14.289062 14.378906 14.335938 13.957031 14.335938 13.957031 C 14.429688 14.183594 14.480469 14.421875 14.488281 14.664062 C 13.441406 15.378906 13.480469 16.179688 13.480469 16.179688 C 13.480469 16.179688 13.449219 15.972656 13.269531 15.707031 C 12.960938 15.96875 12.96875 16.492188 13.007812 16.785156 L 13.011719 16.804688 C 13.007812 16.796875 13.007812 16.789062 13.003906 16.78125 C 12.910156 16.484375 12.804688 16.003906 12.9375 15.683594 C 12.945312 15.664062 12.957031 15.640625 12.96875 15.617188 C 12.929688 15.632812 12.882812 15.640625 12.839844 15.652344 C 12.375 15.742188 11.808594 15.640625 11.808594 15.640625 L 11.917969 15.804688 C 11.550781 15.640625 11.226562 15.234375 11.226562 15.234375 C 11.226562 15.234375 9.871094 16.085938 9.933594 16.710938 C 9.996094 17.335938 10.46875 17.863281 10.46875 17.863281 C 10.46875 17.863281 10.457031 17.746094 10.421875 17.363281 C 10.660156 17.902344 10.84375 18.480469 10.855469 18.515625 C 10.953125 18.230469 11.035156 17.941406 11.101562 17.648438 C 11.179688 17.277344 11.03125 16.390625 11.03125 16.390625 C 11.03125 16.390625 11.441406 17.109375 12.132812 17.0625 C 11.683594 17.261719 11.269531 17.96875 11.269531 17.96875 C 11.269531 17.96875 11.296875 17.992188 12.550781 18.378906 L 12.523438 18.375 C 12.292969 18.347656 11.226562 18.164062 11.226562 18.164062 L 11.410156 18.824219 L 13.066406 19.316406 C 12.5 19.324219 11.464844 19.214844 11.464844 19.214844 L 11.671875 19.574219 L 13.371094 19.917969 C 12.804688 19.976562 12.238281 19.980469 11.671875 19.929688 C 11.929688 20.144531 12.203125 20.332031 12.492188 20.5 C 12.441406 20.832031 12.390625 21.753906 13.195312 22.425781 C 13.1875 21.609375 13.332031 21.015625 13.441406 20.691406 C 13.988281 20.625 14.699219 20.382812 14.621094 19.753906 C 14.523438 18.984375 13.839844 19 13.15625 18.667969 C 12.46875 18.332031 12.832031 17.511719 12.832031 17.511719 C 12.839844 17.535156 13 18.015625 13.144531 18.027344 C 13.292969 18.039062 13.558594 17.929688 13.761719 17.351562 C 14.082031 17.761719 14.808594 17.648438 14.808594 17.648438 C 14.808594 17.648438 15.539062 17.757812 15.859375 17.351562 C 16.0625 17.929688 16.324219 18.039062 16.472656 18.027344 C 16.625 18.015625 16.789062 17.511719 16.789062 17.511719 C 16.789062 17.511719 17.15625 18.328125 16.46875 18.664062 C 15.785156 18.996094 15.097656 18.980469 15.003906 19.75 C 14.921875 20.378906 15.636719 20.621094 16.183594 20.6875 C 16.289062 21.011719 16.433594 21.605469 16.429688 22.421875 C 17.234375 21.75 17.183594 20.824219 17.132812 20.496094 C 17.421875 20.328125 17.695312 20.136719 17.953125 19.925781 C 17.386719 19.976562 16.820312 19.972656 16.253906 19.914062 L 17.953125 19.570312 L 18.160156 19.210938 C 18.160156 19.210938 17.128906 19.324219 16.5625 19.3125 L 18.21875 18.824219 L 18.398438 18.164062 C 18.398438 18.164062 17.226562 18.367188 17.074219 18.375 C 18.328125 17.988281 18.355469 17.96875 18.355469 17.96875 C 18.355469 17.96875 17.941406 17.261719 17.492188 17.0625 C 18.183594 17.109375 18.59375 16.390625 18.59375 16.390625 C 18.59375 16.390625 18.445312 17.277344 18.523438 17.644531 C 18.589844 17.941406 18.671875 18.230469 18.769531 18.515625 C 18.769531 18.515625 18.960938 17.914062 19.203125 17.359375 C 19.167969 17.742188 19.15625 17.859375 19.15625 17.859375 C 19.15625 17.859375 19.628906 17.332031 19.691406 16.707031 C 19.75 16.082031 18.398438 15.230469 18.398438 15.230469 C 18.398438 15.230469 18.074219 15.640625 17.710938 15.804688 L 17.816406 15.636719 C 17.816406 15.636719 17.136719 15.757812 16.65625 15.613281 C 16.839844 15.941406 16.714844 16.484375 16.617188 16.800781 C 16.65625 16.507812 16.671875 15.96875 16.359375 15.699219 C 16.175781 15.964844 16.144531 16.171875 16.144531 16.171875 C 16.144531 16.171875 16.183594 15.371094 15.140625 14.65625 C 15.148438 14.410156 15.199219 14.175781 15.292969 13.949219 C 15.292969 13.949219 15.335938 14.371094 15.523438 14.632812 C 15.710938 14.890625 16.359375 15.316406 17.316406 14.722656 C 18.277344 14.132812 18.714844 14.304688 18.9375 14.449219 C 18.546875 14.539062 18.476562 15.011719 18.476562 15.011719 C 18.476562 15.011719 18.898438 15.183594 19.214844 15.050781 C 19.527344 14.921875 19.421875 14.046875 19.316406 13.753906 C 19.03125 13.441406 18.667969 13.140625 18.28125 12.796875 C 18.714844 12.917969 19.5 13.277344 20.015625 14.296875 C 19.988281 13.585938 19.722656 12.925781 19.695312 12.855469 C 19.757812 12.976562 20.6875 14.699219 22.148438 15.113281 Z M 14.8125 13.800781 C 14.8125 13.800781 14.316406 13.191406 14.214844 12.753906 C 14.394531 13.035156 14.8125 13.207031 14.8125 13.207031 C 14.8125 13.207031 15.230469 13.035156 15.410156 12.753906 C 15.308594 13.191406 14.8125 13.800781 14.8125 13.800781 Z M 14.8125 13.800781 " fill-opacity="1" fill-rule="nonzero"/><path fill="#dfaf67" d="M 22.25 13.15625 C 21.257812 12.699219 20.871094 11.75 20.871094 11.75 C 20.871094 11.75 21.074219 12.949219 22.273438 13.761719 C 23.46875 14.574219 23.410156 15.695312 23.410156 15.695312 C 23.410156 15.695312 23.796875 14.25 22.679688 13.09375 C 23.339844 13.59375 24.179688 13.894531 24.179688 13.894531 C 24.179688 13.894531 22.820312 12.875 22.210938 11.617188 C 22.210938 11.613281 22.074219 12.4375 22.25 13.15625 Z M 22.25 13.15625 " fill-opacity="1" fill-rule="nonzero"/><path fill="#dfaf67" d="M 22.441406 15.613281 C 22.441406 15.613281 23.253906 16.773438 23.078125 17.917969 C 22.167969 15.589844 20.253906 15.347656 20.253906 15.347656 C 21.265625 16.070312 21.640625 16.925781 21.640625 16.925781 C 21.640625 16.925781 21.199219 16.28125 20.191406 15.808594 C 21.496094 16.851562 21.476562 18.3125 21.476562 18.3125 C 21.476562 18.3125 20.972656 17.511719 20.222656 16.914062 C 21.394531 18.355469 21.21875 20.027344 21.21875 20.027344 C 21.21875 20.027344 20.878906 18.660156 20.210938 17.828125 C 20.929688 19.605469 20.324219 21.480469 20.324219 21.480469 C 20.324219 21.480469 20.292969 19.703125 19.691406 18.839844 C 20.09375 21.121094 19.15625 22.753906 19.15625 22.753906 C 19.15625 22.753906 19.15625 21.425781 19.484375 20.371094 C 17.789062 22.402344 18.011719 25.355469 18.011719 25.355469 C 18.011719 25.355469 17.878906 24.871094 17.667969 24.503906 C 18.183594 27.515625 17.253906 28.488281 17.253906 28.488281 C 17.253906 28.488281 18.300781 28.148438 18.273438 25.773438 C 18.25 23.398438 18.90625 22.640625 18.90625 22.640625 C 18.234375 25.449219 19.449219 28.125 19.449219 28.125 C 19.449219 28.125 19.066406 25.410156 20.066406 23.535156 C 19.789062 24.875 20.421875 25.71875 20.171875 27.355469 C 20.949219 26.179688 20.460938 23.410156 20.976562 22.167969 C 20.832031 23.855469 21.410156 25.597656 21.410156 25.597656 C 21.410156 25.597656 21.410156 23.035156 22.058594 21.421875 C 22.492188 22.96875 21.898438 24.53125 21.898438 24.53125 C 21.898438 24.53125 22.859375 23.492188 22.6875 21.886719 C 22.515625 20.277344 22.769531 19.1875 22.769531 19.1875 C 22.769531 19.1875 22.808594 20.035156 23.519531 20.96875 C 23.003906 18.78125 23.503906 17.917969 23.503906 17.917969 C 23.925781 18.933594 24.046875 19.570312 24.046875 19.570312 C 24.183594 15.605469 22.441406 15.613281 22.441406 15.613281 Z M 22.441406 15.613281 " fill-opacity="1" fill-rule="nonzero"/><path fill="#dfaf67" d="M 21.265625 10.828125 C 20.859375 10.929688 20.75 11.011719 20.75 11.011719 C 20.75 11.011719 21.601562 10.988281 21.710938 12.148438 C 22.191406 10.964844 21.925781 10.5625 21.925781 10.5625 L 22.640625 10.78125 C 22.640625 10.78125 21.648438 9.4375 20.222656 9.851562 C 20.222656 9.851562 20.660156 8.980469 21.53125 8.773438 C 20.078125 8.488281 18.757812 9.09375 19.527344 10.894531 C 19.527344 10.894531 20.390625 10.644531 21.265625 10.828125 Z M 21.265625 10.828125 " fill-opacity="1" fill-rule="nonzero"/><path fill="#ffffff" d="M 15.695312 23.234375 C 15.160156 23.152344 14.8125 23.195312 14.8125 23.195312 C 14.8125 23.195312 14.460938 23.148438 13.925781 23.234375 C 13.742188 22.960938 13.761719 22.742188 13.761719 22.742188 L 14.003906 22.933594 C 14.234375 22.910156 14.8125 22.90625 14.8125 22.90625 C 14.8125 22.90625 15.386719 22.910156 15.621094 22.933594 L 15.859375 22.742188 C 15.859375 22.742188 15.882812 22.960938 15.695312 23.234375 Z M 15.695312 23.234375 " fill-opacity="1" fill-rule="nonzero"/><path fill="#dfaf67" d="M 17.199219 15.050781 L 16.527344 15.261719 C 16.527344 15.261719 17.039062 15.570312 17.496094 15.457031 C 17.953125 15.34375 18.242188 14.714844 18.242188 14.714844 L 17.429688 14.976562 L 17.429688 15.269531 Z M 17.199219 15.050781 " fill-opacity="1" fill-rule="nonzero"/><path fill="#dfaf67" d="M 16.808594 27.4375 C 16.808594 27.4375 16.851562 26.769531 16.71875 26.316406 C 16.574219 26.941406 15.933594 27.941406 15.933594 27.941406 C 16.035156 27.539062 15.933594 26.980469 15.933594 26.980469 C 15.839844 27.667969 15.644531 28.320312 15.335938 28.941406 C 16.425781 28.171875 16.621094 27.070312 16.621094 27.070312 C 16.621094 27.070312 16.691406 27.96875 16.199219 28.722656 C 17.308594 27.988281 17.089844 26.203125 17.089844 26.203125 C 17.007812 27.078125 16.808594 27.4375 16.808594 27.4375 Z M 16.808594 27.4375 " fill-opacity="1" fill-rule="nonzero"/><path fill="#dfaf67" d="M 16.527344 8.207031 C 16.007812 8.484375 15.808594 8.917969 15.808594 8.917969 C 15.808594 8.917969 16.410156 8.59375 17.386719 8.371094 C 16.777344 8.996094 16.484375 9.429688 16.484375 9.429688 C 16.484375 9.429688 17.34375 8.824219 18.292969 8.578125 C 19.242188 8.335938 19.265625 7.636719 19.265625 7.636719 C 19.265625 7.636719 18.789062 8.03125 17.753906 7.976562 L 18.210938 7.699219 C 18.210938 7.699219 16.683594 7.5 15.769531 7.953125 C 16.199219 7.511719 16.300781 7.339844 16.300781 7.339844 C 16.300781 7.339844 14.835938 7.765625 14.8125 9.296875 C 14.8125 9.300781 15.515625 8.222656 16.527344 8.207031 Z M 16.527344 8.207031 " fill-opacity="1" fill-rule="nonzero"/><path fill="#dfaf67" d="M 21.257812 2.5625 L 18.355469 3.800781 L 18.976562 5.203125 L 17.351562 5.96875 L 15.417969 4.921875 L 16.660156 3.6875 L 14.8125 0.957031 L 12.96875 3.6875 L 14.210938 4.921875 L 12.273438 5.96875 L 10.648438 5.203125 L 11.269531 3.800781 L 8.367188 2.5625 L 8.867188 3.730469 L 9.988281 4.296875 L 9.464844 5.117188 L 10.355469 7.1875 L 10.410156 7.1875 C 11.535156 6.585938 13.09375 6.214844 14.8125 6.214844 C 16.53125 6.214844 18.085938 6.585938 19.214844 7.1875 L 19.269531 7.1875 L 20.160156 5.117188 L 19.636719 4.296875 L 20.757812 3.730469 Z M 14.15625 3.371094 L 14.8125 2.4375 L 15.46875 3.371094 L 14.8125 3.921875 Z M 14.15625 3.371094 " fill-opacity="1" fill-rule="nonzero"/><path fill="#ba8238" d="M 10.175781 28.121094 C 10.1875 28.050781 10.546875 25.382812 9.558594 23.535156 C 9.832031 24.875 9.203125 25.71875 9.453125 27.355469 C 8.675781 26.179688 9.160156 23.410156 8.648438 22.167969 C 8.792969 23.855469 8.214844 25.597656 8.214844 25.597656 C 8.214844 25.597656 8.214844 23.035156 7.566406 21.421875 C 7.140625 22.949219 7.710938 24.488281 7.726562 24.53125 C 7.699219 24.503906 6.769531 23.472656 6.9375 21.886719 C 7.109375 20.28125 6.859375 19.1875 6.859375 19.1875 C 6.859375 19.1875 6.816406 20.035156 6.105469 20.96875 C 6.621094 18.78125 6.121094 17.917969 6.121094 17.917969 C 5.699219 18.933594 5.578125 19.570312 5.578125 19.570312 C 5.441406 15.605469 7.183594 15.613281 7.183594 15.613281 C 7.183594 15.613281 6.183594 15.894531 5.90625 17.773438 C 6.035156 17.597656 6.136719 17.40625 6.207031 17.195312 C 6.207031 17.195312 6.722656 18.816406 6.464844 19.933594 C 6.652344 19.453125 6.78125 18.957031 6.851562 18.445312 C 6.851562 18.445312 7.5625 19.613281 7.285156 21.203125 C 7.4375 20.914062 7.539062 20.605469 7.582031 20.277344 C 7.582031 20.277344 8.527344 22.0625 8.320312 23.945312 C 8.585938 22.855469 8.449219 21.421875 8.449219 21.421875 C 8.449219 21.421875 9.230469 22.121094 9.15625 24.191406 C 9.328125 23.644531 9.40625 23.082031 9.382812 22.507812 C 9.382812 22.507812 10.6875 24.25 10.507812 26.148438 C 10.855469 25.519531 10.871094 23.589844 10.71875 22.640625 C 11.378906 25.410156 10.210938 28.050781 10.175781 28.121094 Z M 10.175781 28.121094 " fill-opacity="1" fill-rule="nonzero"/><path fill="#ba8238" d="M 8.148438 18.3125 C 8.097656 18.121094 8.136719 17.570312 8.296875 16.890625 C 7.832031 17.261719 7.472656 17.828125 7.472656 17.828125 C 7.761719 15.933594 9.320312 15.363281 9.371094 15.347656 C 8.386719 16.050781 8.007812 16.871094 7.984375 16.921875 C 8.015625 16.878906 8.460938 16.265625 9.429688 15.808594 C 8.125 16.851562 8.148438 18.3125 8.148438 18.3125 Z M 8.148438 18.3125 " fill-opacity="1" fill-rule="nonzero"/><path fill="#af7127" d="M 9.296875 21.480469 C 9.296875 21.480469 9.300781 21.207031 9.34375 20.828125 C 9.316406 21.214844 9.296875 21.480469 9.296875 21.480469 Z M 9.296875 21.480469 " fill-opacity="1" fill-rule="nonzero"/><path fill="#ba8238" d="M 9.296875 21.480469 C 9.28125 21.457031 8.816406 20.765625 8.796875 19.617188 C 8.542969 20.179688 8.335938 21.089844 8.335938 21.089844 C 7.710938 18.527344 9.3125 16.996094 9.394531 16.917969 L 9.398438 16.914062 C 8.230469 18.355469 8.40625 20.027344 8.40625 20.027344 C 8.40625 20.027344 8.742188 18.660156 9.410156 17.828125 C 8.699219 19.589844 9.285156 21.441406 9.296875 21.480469 Z M 9.296875 21.480469 " fill-opacity="1" fill-rule="nonzero"/><path fill="#ba8238" d="M 15.855469 26.300781 C 16.179688 25.789062 16.0625 25.074219 16.0625 25.074219 C 16.0625 25.074219 15.960938 26.589844 14.8125 26.589844 C 13.667969 26.589844 13.566406 25.074219 13.566406 25.074219 C 13.566406 25.074219 13.449219 25.789062 13.773438 26.300781 C 11.671875 25.605469 12.464844 23.648438 12.464844 23.648438 C 12.464844 23.648438 12.421875 25.097656 13.316406 25.804688 C 13.269531 24.683594 13.488281 24.128906 13.488281 24.128906 C 13.488281 24.128906 13.460938 25.332031 14.8125 25.332031 C 16.167969 25.332031 16.140625 24.128906 16.140625 24.128906 C 16.140625 24.128906 16.359375 24.683594 16.3125 25.804688 C 17.207031 25.097656 17.160156 23.648438 17.160156 23.648438 C 17.160156 23.648438 17.953125 25.605469 15.855469 26.300781 Z M 15.855469 26.300781 " fill-opacity="1" fill-rule="nonzero"/><path fill="#010101" d="M 14.8125 23.050781 L 14.8125 23.195312 C 14.8125 23.195312 14.460938 23.148438 13.925781 23.234375 C 13.742188 22.960938 13.765625 22.742188 13.765625 22.742188 C 13.765625 22.742188 13.859375 22.996094 13.996094 23.101562 C 14.097656 23.042969 14.8125 23.050781 14.8125 23.050781 Z M 14.8125 23.050781 " fill-opacity="0.3" fill-rule="nonzero"/><path fill="#010101" d="M 14.8125 20.914062 L 14.8125 21.027344 C 14.8125 21.027344 14.183594 21.074219 13.847656 21.011719 C 13.808594 21.28125 13.847656 21.410156 13.847656 21.421875 C 13.839844 21.414062 13.683594 21.261719 13.742188 20.902344 C 13.738281 20.902344 13.988281 21.003906 14.8125 20.914062 Z M 14.8125 20.914062 " fill-opacity="0.3" fill-rule="nonzero"/><path fill="#010101" d="M 13.1875 22.421875 C 12.386719 21.75 12.4375 20.828125 12.488281 20.496094 C 12.199219 20.332031 11.925781 20.140625 11.667969 19.925781 C 12.234375 19.976562 12.800781 19.972656 13.367188 19.914062 L 11.667969 19.570312 L 11.460938 19.210938 C 11.460938 19.210938 12.496094 19.320312 13.0625 19.3125 L 11.40625 18.824219 L 11.222656 18.160156 C 11.222656 18.160156 12.285156 18.34375 12.519531 18.371094 L 11.457031 18.417969 L 11.929688 18.726562 L 13.757812 19.375 L 12.3125 19.492188 L 13.933594 19.867188 C 13.933594 19.867188 13.71875 20.003906 12.796875 20.328125 C 12.390625 21.523438 13.152344 22.378906 13.1875 22.421875 Z M 13.1875 22.421875 " fill-opacity="0.3" fill-rule="nonzero"/><path fill="#010101" d="M 12.714844 16.023438 C 12.625 15.996094 12.042969 15.796875 12.042969 15.796875 C 12.042969 15.796875 12.058594 15.875 12.183594 16.152344 C 11.839844 15.941406 11.519531 15.695312 11.222656 15.414062 C 11.222656 15.414062 10.628906 15.804688 10.386719 16.210938 C 10.140625 16.613281 10.34375 17.097656 10.34375 17.097656 L 10.421875 16.722656 C 10.71875 17.40625 10.84375 18.46875 10.851562 18.515625 C 10.839844 18.476562 10.65625 17.898438 10.417969 17.359375 C 10.453125 17.746094 10.464844 17.859375 10.464844 17.859375 C 10.464844 17.859375 9.992188 17.335938 9.929688 16.710938 C 9.871094 16.085938 11.222656 15.230469 11.222656 15.230469 C 11.222656 15.230469 11.546875 15.640625 11.914062 15.804688 L 11.804688 15.636719 C 11.804688 15.636719 12.488281 15.757812 12.964844 15.613281 C 12.785156 15.933594 12.902344 16.457031 13 16.773438 C 12.972656 16.746094 12.828125 16.570312 12.714844 16.023438 Z M 12.714844 16.023438 " fill-opacity="0.3" fill-rule="nonzero"/><path fill="#010101" d="M 14.8125 17.371094 L 14.8125 17.648438 C 14.8125 17.648438 14.085938 17.757812 13.761719 17.351562 C 13.558594 17.929688 13.296875 18.039062 13.148438 18.027344 C 13 18.015625 12.839844 17.539062 12.832031 17.511719 C 12.839844 17.53125 13.007812 17.824219 13.289062 17.746094 C 13.578125 17.667969 13.726562 16.683594 13.726562 16.683594 C 13.726562 16.683594 13.929688 17.3125 14.8125 17.371094 Z M 14.8125 17.371094 " fill-opacity="0.3" fill-rule="nonzero"/><path fill="#ba8238" d="M 11.382812 14.714844 L 12.191406 14.976562 L 12.191406 15.234375 C 11.886719 15.074219 11.402344 14.730469 11.382812 14.71875 Z M 11.382812 14.714844 " fill-opacity="1" fill-rule="nonzero"/><path fill="#ba8238" d="M 13.097656 15.261719 C 13.074219 15.265625 12.605469 15.367188 12.371094 15.308594 C 12.320312 15.292969 12.269531 15.269531 12.21875 15.246094 L 12.425781 15.046875 L 13.09375 15.261719 Z M 13.097656 15.261719 " fill-opacity="1" fill-rule="nonzero"/><path fill="#ba8238" d="M 12.835938 15.644531 C 12.878906 15.636719 12.925781 15.625 12.964844 15.613281 C 12.953125 15.636719 12.941406 15.65625 12.933594 15.679688 Z M 12.835938 15.644531 " fill-opacity="1" fill-rule="nonzero"/><path fill="#010101" d="M 14.332031 13.949219 C 14.332031 13.949219 14.285156 14.371094 14.097656 14.632812 C 13.910156 14.894531 13.261719 15.320312 12.304688 14.726562 C 11.347656 14.132812 10.910156 14.304688 10.683594 14.449219 C 11.074219 14.539062 11.148438 15.011719 11.148438 15.011719 C 11.148438 15.011719 10.726562 15.183594 10.410156 15.054688 C 10.378906 15.039062 10.347656 15.019531 10.324219 14.992188 L 10.324219 14.988281 C 10.324219 14.988281 10.300781 14.242188 10.617188 13.800781 C 10.933594 13.355469 12.132812 12.839844 12.132812 12.839844 C 12.136719 13.144531 12.214844 13.425781 12.359375 13.6875 C 12.503906 13.949219 12.699219 14.164062 12.949219 14.324219 C 12.566406 14.242188 12.210938 14.09375 11.878906 13.878906 C 12.511719 14.746094 13.757812 15.242188 14.332031 13.949219 Z M 14.332031 13.949219 " fill-opacity="0.3" fill-rule="nonzero"/><path fill="#010101" d="M 12.386719 11.757812 C 11.757812 11.902344 10.742188 12.394531 9.890625 13.421875 C 9.882812 13.019531 10.128906 12.320312 10.136719 12.300781 C 10.121094 12.308594 9.628906 12.589844 8.96875 13.652344 C 8.308594 14.71875 7.5 15.097656 7.476562 15.113281 C 8.550781 14.070312 8.429688 11.867188 10.878906 11.929688 C 10.378906 12.269531 10.132812 12.96875 10.117188 13.019531 C 10.15625 12.960938 10.949219 11.859375 12.386719 11.757812 Z M 12.386719 11.757812 " fill-opacity="0.3" fill-rule="nonzero"/><path fill="#010101" d="M 11.523438 10.710938 C 11.523438 10.710938 11.183594 10.730469 10.683594 10.5 C 10.617188 11.003906 10.867188 11.265625 10.867188 11.265625 C 11.1875 11.761719 12.320312 11.554688 12.371094 11.542969 C 12.296875 11.566406 9.511719 12.484375 10.703125 9.714844 C 10.5625 10.441406 11.496094 10.703125 11.523438 10.710938 Z M 11.523438 10.710938 " fill-opacity="0.3" fill-rule="nonzero"/><path fill="#010101" d="M 14.261719 11.226562 C 14.242188 11.191406 13.90625 10.628906 12.898438 10.171875 C 11.863281 9.699219 11.710938 9.414062 11.710938 9.414062 C 11.363281 9.9375 11.523438 10.710938 11.523438 10.710938 C 11.496094 10.691406 10.824219 10.1875 11.648438 8.917969 C 11.796875 9.773438 13.757812 9.761719 14.261719 11.226562 Z M 14.261719 11.226562 " fill-opacity="0.3" fill-rule="nonzero"/><path fill="#010101" d="M 13.972656 9.65625 C 14.417969 10.421875 14.265625 11.226562 14.265625 11.226562 C 14.328125 10.144531 13.421875 9.179688 13.421875 9.179688 C 13.421875 9.179688 14.507812 9.472656 14.8125 10.640625 C 14.8125 10.640625 14.8125 10.640625 14.8125 10.644531 C 14.796875 10.617188 14.417969 9.917969 13.972656 9.65625 Z M 13.972656 9.65625 " fill-opacity="0.3" fill-rule="nonzero"/><path fill="#ba8238" d="M 13.191406 28.253906 C 13.253906 28.417969 13.332031 28.574219 13.425781 28.722656 C 12.980469 28.425781 12.75 27.960938 12.632812 27.507812 C 12.769531 27.703125 13.011719 28.03125 13.191406 28.253906 Z M 13.191406 28.253906 " fill-opacity="1" fill-rule="nonzero"/><path fill="#ba8238" d="M 14.289062 28.941406 C 13.234375 28.199219 13.019531 27.136719 13.007812 27.074219 C 13.007812 27.074219 13.007812 27.070312 13.007812 27.070312 C 13.007812 27.070312 13.34375 27.878906 13.933594 28.421875 C 13.835938 27.988281 13.761719 27.550781 13.710938 27.109375 C 13.8125 27.75 14.003906 28.359375 14.289062 28.941406 Z M 14.289062 28.941406 " fill-opacity="1" fill-rule="nonzero"/><path fill="#ba8238" d="M 6.214844 15.695312 C 6.214844 15.695312 5.828125 14.246094 6.945312 13.09375 C 6.296875 13.582031 5.46875 13.882812 5.441406 13.894531 C 5.484375 13.863281 6.8125 12.851562 7.414062 11.613281 C 7.234375 13.109375 7.046875 13.480469 7.046875 13.480469 L 7.472656 13.394531 C 6.011719 14.070312 6.214844 15.695312 6.214844 15.695312 Z M 6.214844 15.695312 " fill-opacity="1" fill-rule="nonzero"/><path fill="#ba8238" d="M 9.695312 10.492188 C 8.394531 10.234375 7.796875 10.945312 7.796875 10.945312 C 7.960938 10.941406 8.121094 10.960938 8.277344 10.996094 C 7.765625 11.25 7.90625 12.105469 7.914062 12.144531 C 7.429688 10.964844 7.699219 10.5625 7.699219 10.5625 L 6.984375 10.78125 C 6.984375 10.78125 7.972656 9.4375 9.402344 9.851562 C 9.402344 9.851562 8.964844 8.980469 8.089844 8.773438 C 9.425781 8.601562 9.9375 9.578125 9.695312 10.492188 Z M 9.695312 10.492188 " fill-opacity="1" fill-rule="nonzero"/><path fill="#ba8238" d="M 11.460938 8.121094 L 12.203125 8.605469 L 11.441406 8.355469 C 10.683594 8.109375 10.359375 7.636719 10.359375 7.636719 C 10.359375 7.636719 10.835938 8.03125 11.871094 7.976562 L 11.410156 7.699219 C 11.410156 7.699219 12.332031 7.804688 13.007812 8.386719 C 12.421875 8.085938 11.460938 8.121094 11.460938 8.121094 Z M 11.460938 8.121094 " fill-opacity="1" fill-rule="nonzero"/><path fill="#ba8238" d="M 19.445312 28.121094 C 19.433594 28.050781 19.078125 25.386719 20.0625 23.535156 C 19.785156 24.875 20.417969 25.71875 20.167969 27.355469 C 20.945312 26.179688 20.457031 23.410156 20.972656 22.167969 C 20.828125 23.855469 21.40625 25.597656 21.40625 25.597656 C 21.40625 25.597656 21.40625 23.035156 22.054688 21.421875 C 22.480469 22.949219 21.910156 24.488281 21.894531 24.53125 C 21.921875 24.503906 22.851562 23.472656 22.683594 21.886719 C 22.511719 20.28125 22.761719 19.1875 22.761719 19.1875 C 22.761719 19.1875 22.804688 20.035156 23.515625 20.96875 C 23 18.78125 23.5 17.917969 23.5 17.917969 C 23.921875 18.933594 24.042969 19.570312 24.042969 19.570312 C 24.179688 15.605469 22.4375 15.613281 22.4375 15.613281 C 22.4375 15.613281 23.4375 15.894531 23.714844 17.773438 C 23.585938 17.597656 23.484375 17.40625 23.414062 17.195312 C 23.414062 17.195312 22.898438 18.816406 23.160156 19.933594 C 22.96875 19.453125 22.839844 18.957031 22.769531 18.445312 C 22.769531 18.445312 22.058594 19.613281 22.339844 21.203125 C 22.183594 20.914062 22.085938 20.605469 22.039062 20.277344 C 22.039062 20.277344 21.09375 22.0625 21.304688 23.945312 C 21.035156 22.855469 21.175781 21.421875 21.175781 21.421875 C 21.175781 21.421875 20.390625 22.121094 20.46875 24.191406 C 20.292969 23.644531 20.21875 23.082031 20.238281 22.507812 C 20.238281 22.507812 18.9375 24.25 19.117188 26.148438 C 18.769531 25.519531 18.753906 23.589844 18.90625 22.640625 C 18.242188 25.410156 19.410156 28.050781 19.445312 28.121094 Z M 19.445312 28.121094 " fill-opacity="1" fill-rule="nonzero"/><path fill="#ba8238" d="M 21.472656 18.3125 C 21.519531 18.121094 21.484375 17.570312 21.324219 16.890625 C 21.789062 17.261719 22.148438 17.828125 22.148438 17.828125 C 21.859375 15.933594 20.300781 15.363281 20.25 15.347656 C 21.234375 16.050781 21.613281 16.871094 21.636719 16.921875 C 21.605469 16.878906 21.160156 16.265625 20.191406 15.808594 C 21.492188 16.851562 21.472656 18.3125 21.472656 18.3125 Z M 21.472656 18.3125 " fill-opacity="1" fill-rule="nonzero"/><path fill="#af7127" d="M 20.324219 21.480469 C 20.324219 21.480469 20.320312 21.207031 20.277344 20.828125 C 20.304688 21.214844 20.324219 21.480469 20.324219 21.480469 Z M 20.324219 21.480469 " fill-opacity="1" fill-rule="nonzero"/><path fill="#ba8238" d="M 20.324219 21.480469 C 20.339844 21.457031 20.804688 20.765625 20.824219 19.617188 C 21.078125 20.179688 21.285156 21.089844 21.285156 21.089844 C 21.910156 18.527344 20.308594 16.996094 20.222656 16.917969 L 20.222656 16.914062 C 21.390625 18.355469 21.214844 20.027344 21.214844 20.027344 C 21.214844 20.027344 20.878906 18.660156 20.210938 17.828125 C 20.921875 19.589844 20.335938 21.441406 20.324219 21.480469 Z M 20.324219 21.480469 " fill-opacity="1" fill-rule="nonzero"/><path fill="#ba8238" d="M 13.769531 26.300781 C 13.445312 25.789062 13.5625 25.074219 13.5625 25.074219 C 13.5625 25.074219 13.664062 26.589844 14.808594 26.589844 C 15.957031 26.589844 16.054688 25.074219 16.054688 25.074219 C 16.054688 25.074219 16.171875 25.789062 15.847656 26.300781 C 17.949219 25.605469 17.15625 23.648438 17.15625 23.648438 C 17.15625 23.648438 17.203125 25.097656 16.308594 25.804688 C 16.355469 24.683594 16.132812 24.128906 16.132812 24.128906 C 16.132812 24.128906 16.160156 25.332031 14.808594 25.332031 C 13.457031 25.332031 13.484375 24.128906 13.484375 24.128906 C 13.484375 24.128906 13.265625 24.683594 13.308594 25.804688 C 12.414062 25.097656 12.460938 23.648438 12.460938 23.648438 C 12.460938 23.648438 11.667969 25.605469 13.769531 26.300781 Z M 13.769531 26.300781 " fill-opacity="1" fill-rule="nonzero"/><path fill="#010101" d="M 14.808594 23.050781 L 14.808594 23.195312 C 14.808594 23.195312 15.160156 23.148438 15.691406 23.234375 C 15.878906 22.960938 15.855469 22.742188 15.855469 22.742188 C 15.855469 22.742188 15.761719 22.996094 15.625 23.101562 C 15.523438 23.042969 14.808594 23.050781 14.808594 23.050781 Z M 14.808594 23.050781 " fill-opacity="0.3" fill-rule="nonzero"/><path fill="#010101" d="M 14.808594 20.914062 L 14.808594 21.027344 C 14.808594 21.027344 15.4375 21.074219 15.773438 21.011719 C 15.8125 21.28125 15.773438 21.410156 15.773438 21.421875 C 15.78125 21.414062 15.9375 21.261719 15.878906 20.902344 C 15.882812 20.902344 15.632812 21.003906 14.808594 20.914062 Z M 14.808594 20.914062 " fill-opacity="0.3" fill-rule="nonzero"/><path fill="#ba8238" d="M 16.429688 22.421875 C 17.234375 21.75 17.183594 20.828125 17.132812 20.496094 C 17.421875 20.332031 17.695312 20.140625 17.949219 19.925781 C 17.382812 19.976562 16.820312 19.972656 16.253906 19.914062 L 17.949219 19.570312 L 18.160156 19.210938 C 18.160156 19.210938 17.121094 19.320312 16.558594 19.3125 L 18.214844 18.824219 L 18.398438 18.160156 C 18.398438 18.160156 17.332031 18.34375 17.101562 18.371094 L 17.097656 18.371094 L 18.160156 18.417969 L 17.6875 18.726562 L 15.859375 19.375 L 17.304688 19.492188 L 15.683594 19.867188 C 15.683594 19.867188 15.898438 20.003906 16.820312 20.328125 C 17.230469 21.523438 16.46875 22.378906 16.429688 22.421875 Z M 16.429688 22.421875 " fill-opacity="1" fill-rule="nonzero"/><path fill="#ba8238" d="M 16.90625 16.023438 C 16.996094 15.996094 17.578125 15.796875 17.578125 15.796875 C 17.578125 15.796875 17.5625 15.875 17.4375 16.152344 C 17.78125 15.941406 18.101562 15.695312 18.398438 15.414062 C 18.398438 15.414062 18.988281 15.804688 19.234375 16.210938 C 19.480469 16.613281 19.277344 17.097656 19.277344 17.097656 L 19.199219 16.722656 C 18.902344 17.40625 18.773438 18.46875 18.769531 18.515625 C 18.78125 18.476562 18.964844 17.898438 19.203125 17.359375 C 19.167969 17.746094 19.15625 17.859375 19.15625 17.859375 C 19.15625 17.859375 19.628906 17.335938 19.691406 16.710938 C 19.75 16.085938 18.398438 15.230469 18.398438 15.230469 C 18.398438 15.230469 18.074219 15.640625 17.707031 15.804688 L 17.816406 15.636719 C 17.816406 15.636719 17.132812 15.757812 16.65625 15.613281 C 16.835938 15.933594 16.71875 16.457031 16.621094 16.773438 C 16.648438 16.746094 16.792969 16.570312 16.90625 16.023438 Z M 16.90625 16.023438 " fill-opacity="1" fill-rule="nonzero"/><path fill="#010101" d="M 14.808594 17.371094 L 14.808594 17.648438 C 14.808594 17.648438 15.535156 17.757812 15.859375 17.355469 C 16.0625 17.929688 16.324219 18.039062 16.472656 18.03125 C 16.621094 18.019531 16.78125 17.539062 16.789062 17.515625 C 16.777344 17.53125 16.613281 17.828125 16.332031 17.75 C 16.042969 17.667969 15.894531 16.683594 15.894531 16.683594 C 15.894531 16.683594 15.691406 17.3125 14.808594 17.371094 Z M 14.808594 17.371094 " fill-opacity="0.3" fill-rule="nonzero"/><path fill="#ba8238" d="M 18.242188 14.714844 L 17.429688 14.976562 L 17.429688 15.234375 C 17.738281 15.074219 18.222656 14.730469 18.242188 14.71875 Z M 18.242188 14.714844 " fill-opacity="1" fill-rule="nonzero"/><path fill="#ba8238" d="M 16.523438 15.261719 C 16.546875 15.265625 17.011719 15.367188 17.25 15.308594 C 17.300781 15.292969 17.351562 15.269531 17.402344 15.246094 L 17.195312 15.046875 Z M 16.523438 15.261719 " fill-opacity="1" fill-rule="nonzero"/><path fill="#ba8238" d="M 16.785156 15.644531 C 16.742188 15.636719 16.695312 15.625 16.65625 15.613281 C 16.667969 15.636719 16.675781 15.65625 16.6875 15.679688 Z M 16.785156 15.644531 " fill-opacity="1" fill-rule="nonzero"/><path fill="#ba8238" d="M 15.289062 13.949219 C 15.289062 13.949219 15.335938 14.371094 15.523438 14.632812 C 15.710938 14.894531 16.359375 15.320312 17.316406 14.726562 C 18.273438 14.132812 18.710938 14.304688 18.9375 14.449219 C 18.546875 14.539062 18.472656 15.011719 18.472656 15.011719 C 18.472656 15.011719 18.894531 15.183594 19.210938 15.054688 C 19.242188 15.039062 19.273438 15.019531 19.292969 14.992188 L 19.296875 14.988281 C 19.296875 14.988281 19.320312 14.242188 19.003906 13.796875 C 18.6875 13.355469 17.488281 12.839844 17.488281 12.839844 C 17.476562 13.484375 17.203125 13.980469 16.671875 14.320312 C 17.054688 14.238281 17.410156 14.09375 17.742188 13.878906 C 17.109375 14.746094 15.863281 15.242188 15.289062 13.949219 Z M 15.289062 13.949219 " fill-opacity="1" fill-rule="nonzero"/><path fill="#ba8238" d="M 17.230469 11.757812 C 17.863281 11.902344 18.878906 12.394531 19.730469 13.421875 C 19.738281 13.019531 19.492188 12.320312 19.484375 12.300781 C 19.5 12.308594 19.992188 12.589844 20.652344 13.652344 C 21.3125 14.71875 22.121094 15.097656 22.144531 15.109375 C 21.070312 14.070312 21.191406 11.863281 18.742188 11.925781 C 19.242188 12.269531 19.488281 12.96875 19.503906 13.015625 C 19.464844 12.960938 18.671875 11.859375 17.230469 11.757812 Z M 17.230469 11.757812 " fill-opacity="1" fill-rule="nonzero"/><path fill="#ba8238" d="M 18.097656 10.710938 C 18.097656 10.710938 18.4375 10.730469 18.9375 10.5 C 19.003906 11.003906 18.753906 11.265625 18.753906 11.265625 C 18.433594 11.761719 17.300781 11.554688 17.25 11.542969 C 17.324219 11.566406 20.109375 12.484375 18.917969 9.714844 C 19.054688 10.441406 18.121094 10.703125 18.097656 10.710938 Z M 18.097656 10.710938 " fill-opacity="1" fill-rule="nonzero"/><path fill="#ba8238" d="M 15.355469 11.226562 C 15.378906 11.191406 15.714844 10.628906 16.722656 10.171875 C 17.757812 9.699219 17.910156 9.414062 17.910156 9.414062 C 18.257812 9.9375 18.097656 10.710938 18.097656 10.710938 C 18.125 10.691406 18.796875 10.1875 17.972656 8.917969 C 17.824219 9.773438 15.863281 9.761719 15.355469 11.226562 Z M 15.355469 11.226562 " fill-opacity="1" fill-rule="nonzero"/><path fill="#ba8238" d="M 15.648438 9.65625 C 15.199219 10.421875 15.355469 11.226562 15.355469 11.226562 C 15.289062 10.144531 16.199219 9.179688 16.199219 9.179688 C 16.199219 9.179688 15.113281 9.472656 14.808594 10.640625 C 14.808594 10.640625 14.808594 10.640625 14.808594 10.644531 C 14.824219 10.617188 15.203125 9.917969 15.648438 9.65625 Z M 15.648438 9.65625 " fill-opacity="1" fill-rule="nonzero"/><path fill="#ba8238" d="M 16.429688 28.253906 C 16.367188 28.417969 16.289062 28.574219 16.195312 28.722656 C 16.640625 28.425781 16.871094 27.960938 16.988281 27.507812 C 16.847656 27.703125 16.609375 28.03125 16.429688 28.253906 Z M 16.429688 28.253906 " fill-opacity="1" fill-rule="nonzero"/><path fill="#ba8238" d="M 15.332031 28.941406 C 16.386719 28.199219 16.601562 27.136719 16.613281 27.074219 C 16.613281 27.074219 16.613281 27.070312 16.613281 27.070312 C 16.613281 27.070312 16.277344 27.878906 15.6875 28.421875 C 15.785156 27.988281 15.859375 27.550781 15.910156 27.109375 C 15.808594 27.75 15.617188 28.359375 15.332031 28.941406 Z M 15.332031 28.941406 " fill-opacity="1" fill-rule="nonzero"/><path fill="#ba8238" d="M 23.40625 15.695312 C 23.40625 15.695312 23.792969 14.246094 22.675781 13.09375 C 23.324219 13.582031 24.152344 13.882812 24.179688 13.894531 C 24.136719 13.863281 22.808594 12.851562 22.207031 11.613281 C 22.386719 13.109375 22.574219 13.480469 22.574219 13.480469 L 22.148438 13.394531 C 23.609375 14.070312 23.40625 15.695312 23.40625 15.695312 Z M 23.40625 15.695312 " fill-opacity="1" fill-rule="nonzero"/><path fill="#ba8238" d="M 19.925781 10.492188 C 21.226562 10.234375 21.824219 10.945312 21.824219 10.945312 C 21.660156 10.941406 21.5 10.960938 21.34375 10.996094 C 21.859375 11.25 21.71875 12.105469 21.710938 12.144531 C 22.191406 10.964844 21.921875 10.566406 21.921875 10.566406 L 22.640625 10.78125 C 22.640625 10.78125 21.648438 9.4375 20.21875 9.851562 C 20.21875 9.851562 20.65625 8.980469 21.53125 8.773438 C 20.195312 8.601562 19.683594 9.578125 19.925781 10.492188 Z M 19.925781 10.492188 " fill-opacity="1" fill-rule="nonzero"/><path fill="#ba8238" d="M 18.160156 8.121094 L 17.421875 8.605469 L 18.179688 8.355469 C 18.941406 8.109375 19.265625 7.636719 19.265625 7.636719 C 19.265625 7.636719 18.785156 8.03125 17.753906 7.976562 L 18.210938 7.699219 C 18.210938 7.699219 17.285156 7.804688 16.613281 8.386719 C 17.199219 8.085938 18.160156 8.121094 18.160156 8.121094 Z M 18.160156 8.121094 " fill-opacity="1" fill-rule="nonzero"/><path fill="#ba8238" d="M 14.8125 4.292969 L 14.8125 5.703125 C 11.492188 5.964844 10.355469 7.1875 10.355469 7.1875 L 9.464844 5.117188 L 9.988281 4.296875 L 8.867188 3.730469 L 8.367188 2.5625 L 10.792969 3.921875 L 10.324219 5.371094 L 12.273438 5.96875 L 14.210938 4.921875 L 12.96875 3.6875 L 14.8125 0.957031 L 14.8125 2.148438 L 13.835938 3.453125 Z M 14.8125 4.292969 " fill-opacity="1" fill-rule="nonzero"/><path fill="#ba8238" d="M 20.757812 3.730469 L 19.636719 4.296875 L 20.160156 5.117188 L 19.269531 7.1875 L 19.214844 7.1875 L 19.851562 5.191406 L 19.300781 4.136719 L 20.507812 3.527344 L 21.257812 2.5625 Z M 20.757812 3.730469 " fill-opacity="1" fill-rule="nonzero"/></svg>