<svg xmlns="http://www.w3.org/2000/svg" xmlns:xlink="http://www.w3.org/1999/xlink" width="40" zoomAndPan="magnify" viewBox="0 0 30 30.000001" height="40" preserveAspectRatio="xMidYMid meet" version="1.0"><defs><g/><clipPath id="5f7cffd322"><path d="M 0.484375 0 L 29.515625 0 L 29.515625 29.03125 L 0.484375 29.03125 Z M 0.484375 0 " clip-rule="nonzero"/></clipPath><clipPath id="4d53e15243"><path d="M 1.457031 0.972656 L 28.542969 0.972656 L 28.542969 28.058594 L 1.457031 28.058594 Z M 1.457031 0.972656 " clip-rule="nonzero"/></clipPath><clipPath id="0965fbb3a0"><path d="M 15 0.972656 C 7.519531 0.972656 1.457031 7.035156 1.457031 14.515625 C 1.457031 21.996094 7.519531 28.058594 15 28.058594 C 22.480469 28.058594 28.542969 21.996094 28.542969 14.515625 C 28.542969 7.035156 22.480469 0.972656 15 0.972656 Z M 15 0.972656 " clip-rule="nonzero"/></clipPath><clipPath id="3ec36eeebd"><path d="M 1.457031 0.972656 L 28.3125 0.972656 L 28.3125 27.828125 L 1.457031 27.828125 Z M 1.457031 0.972656 " clip-rule="nonzero"/></clipPath><clipPath id="4d77a30875"><path d="M 15 0.972656 C 7.519531 0.972656 1.457031 7.035156 1.457031 14.515625 C 1.457031 21.992188 7.519531 28.054688 15 28.054688 C 22.476562 28.054688 28.539062 21.992188 28.539062 14.515625 C 28.539062 7.035156 22.476562 0.972656 15 0.972656 Z M 15 0.972656 " clip-rule="nonzero"/></clipPath><clipPath id="89e50bf144"><path d="M 2.882812 2.398438 L 27.117188 2.398438 L 27.117188 26.632812 L 2.882812 26.632812 Z M 2.882812 2.398438 " clip-rule="nonzero"/></clipPath><clipPath id="00c46f310e"><path d="M 15 2.398438 C 8.308594 2.398438 2.882812 7.824219 2.882812 14.515625 C 2.882812 21.207031 8.308594 26.632812 15 26.632812 C 21.691406 26.632812 27.117188 21.207031 27.117188 14.515625 C 27.117188 7.824219 21.691406 2.398438 15 2.398438 Z M 15 2.398438 " clip-rule="nonzero"/></clipPath><clipPath id="5ace0ed78b"><path d="M 6.316406 5.832031 L 23.683594 5.832031 L 23.683594 23.199219 L 6.316406 23.199219 Z M 6.316406 5.832031 " clip-rule="nonzero"/></clipPath><clipPath id="dacad3c73c"><path d="M 15 5.832031 C 10.203125 5.832031 6.316406 9.71875 6.316406 14.515625 C 6.316406 19.3125 10.203125 23.199219 15 23.199219 C 19.796875 23.199219 23.683594 19.3125 23.683594 14.515625 C 23.683594 9.71875 19.796875 5.832031 15 5.832031 Z M 15 5.832031 " clip-rule="nonzero"/></clipPath><clipPath id="b50490da2e"><path d="M 6.316406 5.832031 L 23.679688 5.832031 L 23.679688 23.195312 L 6.316406 23.195312 Z M 6.316406 5.832031 " clip-rule="nonzero"/></clipPath><clipPath id="731ff82a7c"><path d="M 14.996094 5.832031 C 10.203125 5.832031 6.316406 9.71875 6.316406 14.515625 C 6.316406 19.308594 10.203125 23.195312 14.996094 23.195312 C 19.792969 23.195312 23.679688 19.308594 23.679688 14.515625 C 23.679688 9.71875 19.792969 5.832031 14.996094 5.832031 Z M 14.996094 5.832031 " clip-rule="nonzero"/></clipPath><clipPath id="ba6362be49"><path d="M 7.691406 7.207031 L 22.308594 7.207031 L 22.308594 21.824219 L 7.691406 21.824219 Z M 7.691406 7.207031 " clip-rule="nonzero"/></clipPath><clipPath id="b07149b859"><path d="M 15 7.207031 C 10.964844 7.207031 7.691406 10.480469 7.691406 14.515625 C 7.691406 18.554688 10.964844 21.824219 15 21.824219 C 19.035156 21.824219 22.308594 18.554688 22.308594 14.515625 C 22.308594 10.480469 19.035156 7.207031 15 7.207031 Z M 15 7.207031 " clip-rule="nonzero"/></clipPath><clipPath id="cfb13afd45"><path d="M 10.324219 7.910156 L 19.667969 7.910156 L 19.667969 20.972656 L 10.324219 20.972656 Z M 10.324219 7.910156 " clip-rule="nonzero"/></clipPath><clipPath id="4c1c5eaa76"><path d="M 11 7.910156 L 19 7.910156 L 19 12 L 11 12 Z M 11 7.910156 " clip-rule="nonzero"/></clipPath><clipPath id="6aa107998b"><path d="M 3.128906 12.714844 L 7.046875 12.714844 L 7.046875 16.316406 L 3.128906 16.316406 Z M 3.128906 12.714844 " clip-rule="nonzero"/></clipPath><clipPath id="0eabc43073"><path d="M 22.960938 12.714844 L 26.882812 12.714844 L 26.882812 16.316406 L 22.960938 16.316406 Z M 22.960938 12.714844 " clip-rule="nonzero"/></clipPath></defs><g clip-path="url(#5f7cffd322)"><path fill="#ffffff" d="M 0.484375 0 L 29.515625 0 L 29.515625 29.03125 L 0.484375 29.03125 Z M 0.484375 0 " fill-opacity="1" fill-rule="nonzero"/><path fill="#ffffff" d="M 0.484375 0 L 29.515625 0 L 29.515625 29.03125 L 0.484375 29.03125 Z M 0.484375 0 " fill-opacity="1" fill-rule="nonzero"/></g><g clip-path="url(#4d53e15243)"><g clip-path="url(#0965fbb3a0)"><path fill="#ffffff" d="M 1.457031 0.972656 L 28.542969 0.972656 L 28.542969 28.058594 L 1.457031 28.058594 Z M 1.457031 0.972656 " fill-opacity="1" fill-rule="nonzero"/></g></g><g clip-path="url(#3ec36eeebd)"><g clip-path="url(#4d77a30875)"><path stroke-linecap="butt" transform="matrix(0.725806, 0, 0, 0.725806, 1.457492, 0.973623)" fill="none" stroke-linejoin="miter" d="M 18.658567 -0.00133222 C 8.352143 -0.00133222 -0.000634439 8.351446 -0.000634439 18.657869 C -0.000634439 28.958911 8.352143 37.311689 18.658567 37.311689 C 28.959609 37.311689 37.312387 28.958911 37.312387 18.657869 C 37.312387 8.351446 28.959609 -0.00133222 18.658567 -0.00133222 Z M 18.658567 -0.00133222 " stroke="#000000" stroke-width="2" stroke-opacity="1" stroke-miterlimit="4"/></g></g><g clip-path="url(#89e50bf144)"><g clip-path="url(#00c46f310e)"><path fill="#ffffff" d="M 2.882812 2.398438 L 27.117188 2.398438 L 27.117188 26.632812 L 2.882812 26.632812 Z M 2.882812 2.398438 " fill-opacity="1" fill-rule="nonzero"/></g></g><g clip-path="url(#5ace0ed78b)"><g clip-path="url(#dacad3c73c)"><path fill="#ffffff" d="M 6.316406 5.832031 L 23.683594 5.832031 L 23.683594 23.199219 L 6.316406 23.199219 Z M 6.316406 5.832031 " fill-opacity="1" fill-rule="nonzero"/></g></g><g clip-path="url(#b50490da2e)"><g clip-path="url(#731ff82a7c)"><path stroke-linecap="butt" transform="matrix(0.725806, 0, 0, 0.725806, 6.316469, 5.8326)" fill="none" stroke-linejoin="miter" d="M 11.958595 -0.000783864 C 5.354949 -0.000783864 -0.0000860864 5.354251 -0.0000860864 11.96328 C -0.0000860864 18.566926 5.354949 23.921961 11.958595 23.921961 C 18.567624 23.921961 23.922659 18.566926 23.922659 11.96328 C 23.922659 5.354251 18.567624 -0.000783864 11.958595 -0.000783864 Z M 11.958595 -0.000783864 " stroke="#000000" stroke-width="2" stroke-opacity="1" stroke-miterlimit="4"/></g></g><g clip-path="url(#ba6362be49)"><g clip-path="url(#b07149b859)"><path fill="#ffffff" d="M 7.691406 7.207031 L 22.308594 7.207031 L 22.308594 21.824219 L 7.691406 21.824219 Z M 7.691406 7.207031 " fill-opacity="1" fill-rule="nonzero"/></g></g><g clip-path="url(#cfb13afd45)"><path fill="#000000" d="M 10.300781 14.523438 C 10.316406 14.480469 10.335938 14.441406 10.359375 14.402344 C 10.519531 14.078125 10.652344 13.742188 10.925781 13.445312 C 10.816406 13.445312 10.742188 13.449219 10.671875 13.445312 C 10.640625 13.445312 10.597656 13.464844 10.582031 13.421875 C 10.570312 13.390625 10.605469 13.371094 10.625 13.351562 C 10.835938 13.109375 11.046875 12.863281 11.269531 12.625 C 11.339844 12.546875 11.355469 12.480469 11.335938 12.378906 C 11.269531 12.050781 11.238281 11.71875 11.324219 11.390625 C 11.429688 10.992188 11.753906 10.753906 12.144531 10.792969 C 12.210938 10.800781 12.273438 10.816406 12.351562 10.828125 C 12.34375 10.816406 12.339844 10.804688 12.332031 10.796875 C 12.316406 10.761719 12.304688 10.738281 12.289062 10.710938 C 12.097656 10.402344 11.910156 10.09375 11.722656 9.785156 C 11.703125 9.75 11.65625 9.710938 11.679688 9.675781 C 11.707031 9.632812 11.757812 9.664062 11.792969 9.671875 C 11.933594 9.695312 12.070312 9.730469 12.210938 9.753906 C 12.304688 9.769531 12.351562 9.804688 12.371094 9.90625 C 12.414062 10.101562 12.589844 10.21875 12.753906 10.179688 C 12.875 10.148438 12.953125 10.078125 12.96875 9.949219 C 12.992188 9.78125 12.925781 9.648438 12.777344 9.582031 C 12.691406 9.542969 12.664062 9.492188 12.664062 9.398438 C 12.671875 9.160156 12.667969 8.917969 12.664062 8.675781 C 12.660156 8.570312 12.691406 8.539062 12.792969 8.585938 C 13.058594 8.699219 13.320312 8.808594 13.585938 8.917969 C 13.667969 8.949219 13.710938 8.988281 13.683594 9.085938 C 13.664062 9.140625 13.671875 9.210938 13.679688 9.269531 C 13.707031 9.476562 13.886719 9.617188 14.09375 9.597656 C 14.28125 9.578125 14.394531 9.433594 14.398438 9.21875 C 14.398438 9.105469 14.363281 9.003906 14.28125 8.925781 C 14.222656 8.867188 14.230469 8.828125 14.28125 8.769531 C 14.492188 8.511719 14.703125 8.253906 14.914062 7.996094 C 14.972656 7.921875 15.015625 7.917969 15.078125 7.992188 C 15.269531 8.234375 15.460938 8.472656 15.660156 8.707031 C 15.742188 8.800781 15.773438 8.863281 15.671875 8.972656 C 15.558594 9.101562 15.566406 9.265625 15.640625 9.417969 C 15.699219 9.550781 15.8125 9.605469 15.957031 9.597656 C 16.199219 9.589844 16.355469 9.367188 16.308594 9.085938 C 16.289062 8.988281 16.320312 8.953125 16.402344 8.917969 C 16.667969 8.8125 16.929688 8.699219 17.195312 8.585938 C 17.320312 8.535156 17.351562 8.554688 17.335938 8.679688 C 17.3125 8.894531 17.324219 9.105469 17.324219 9.316406 C 17.328125 9.445312 17.320312 9.542969 17.175781 9.601562 C 17.046875 9.65625 16.996094 9.8125 17.023438 9.957031 C 17.046875 10.078125 17.121094 10.15625 17.242188 10.179688 C 17.410156 10.21875 17.582031 10.089844 17.625 9.886719 C 17.640625 9.808594 17.671875 9.773438 17.75 9.761719 C 17.910156 9.734375 18.066406 9.695312 18.226562 9.667969 C 18.253906 9.660156 18.289062 9.640625 18.308594 9.667969 C 18.335938 9.703125 18.300781 9.730469 18.285156 9.753906 C 18.128906 10.007812 17.972656 10.257812 17.820312 10.507812 C 17.757812 10.609375 17.695312 10.710938 17.625 10.832031 C 17.667969 10.824219 17.6875 10.820312 17.707031 10.816406 C 17.734375 10.8125 17.765625 10.808594 17.792969 10.804688 C 18.25 10.746094 18.566406 10.972656 18.679688 11.445312 C 18.738281 11.703125 18.738281 11.972656 18.675781 12.222656 C 18.617188 12.453125 18.6875 12.605469 18.84375 12.761719 C 19.03125 12.949219 19.199219 13.160156 19.371094 13.359375 C 19.390625 13.378906 19.414062 13.394531 19.40625 13.421875 C 19.394531 13.460938 19.359375 13.445312 19.332031 13.445312 C 19.253906 13.449219 19.175781 13.445312 19.0625 13.445312 C 19.402344 13.8125 19.546875 14.25 19.757812 14.664062 C 19.722656 14.667969 19.714844 14.671875 19.707031 14.671875 C 19.652344 14.652344 19.597656 14.632812 19.542969 14.613281 C 19.507812 14.601562 19.46875 14.570312 19.4375 14.59375 C 19.402344 14.621094 19.433594 14.664062 19.441406 14.699219 C 19.582031 15.246094 19.476562 15.789062 19.417969 16.332031 C 19.414062 16.398438 19.382812 16.402344 19.34375 16.355469 C 19.296875 16.300781 19.253906 16.246094 19.210938 16.191406 C 19.183594 16.160156 19.167969 16.101562 19.121094 16.121094 C 19.074219 16.136719 19.097656 16.195312 19.097656 16.234375 C 19.101562 16.6875 19.039062 17.132812 18.878906 17.554688 C 18.71875 17.96875 18.535156 18.375 18.363281 18.785156 C 18.355469 18.804688 18.347656 18.824219 18.304688 18.816406 C 18.277344 18.628906 18.253906 18.441406 18.226562 18.25 C 17.835938 19.089844 17.179688 19.710938 16.570312 20.363281 C 16.558594 20.359375 16.546875 20.351562 16.535156 20.347656 C 16.558594 20.222656 16.578125 20.097656 16.597656 19.992188 C 16.359375 20.21875 16.117188 20.453125 15.875 20.683594 C 15.851562 20.707031 15.832031 20.746094 15.792969 20.730469 C 15.753906 20.71875 15.765625 20.675781 15.761719 20.644531 C 15.757812 20.601562 15.773438 20.554688 15.742188 20.511719 C 15.691406 20.523438 15.671875 20.566406 15.644531 20.601562 C 15.492188 20.785156 15.308594 20.921875 15.113281 21.050781 C 15.035156 21.101562 14.96875 21.109375 14.886719 21.058594 C 14.699219 20.933594 14.519531 20.800781 14.371094 20.628906 C 14.335938 20.585938 14.308594 20.535156 14.253906 20.511719 C 14.21875 20.558594 14.234375 20.601562 14.226562 20.640625 C 14.222656 20.671875 14.238281 20.714844 14.203125 20.730469 C 14.15625 20.75 14.136719 20.707031 14.109375 20.679688 C 14.003906 20.578125 13.902344 20.46875 13.792969 20.363281 C 13.660156 20.234375 13.519531 20.109375 13.390625 19.988281 C 13.398438 20.101562 13.457031 20.226562 13.445312 20.390625 C 12.816406 19.714844 12.164062 19.097656 11.777344 18.261719 C 11.746094 18.429688 11.726562 18.585938 11.707031 18.742188 C 11.703125 18.773438 11.714844 18.820312 11.675781 18.828125 C 11.628906 18.835938 11.628906 18.777344 11.617188 18.75 C 11.503906 18.492188 11.398438 18.234375 11.285156 17.980469 C 11.113281 17.609375 10.988281 17.222656 10.933594 16.816406 C 10.90625 16.613281 10.890625 16.410156 10.894531 16.207031 C 10.894531 16.175781 10.90625 16.128906 10.867188 16.117188 C 10.828125 16.109375 10.816406 16.152344 10.792969 16.175781 C 10.75 16.230469 10.707031 16.289062 10.664062 16.34375 C 10.644531 16.363281 10.632812 16.398438 10.59375 16.382812 C 10.566406 16.375 10.574219 16.34375 10.570312 16.316406 C 10.558594 16.214844 10.546875 16.113281 10.535156 16.007812 C 10.484375 15.589844 10.4375 15.175781 10.535156 14.757812 C 10.550781 14.703125 10.597656 14.632812 10.546875 14.59375 C 10.511719 14.5625 10.449219 14.621094 10.398438 14.632812 C 10.355469 14.640625 10.304688 14.691406 10.269531 14.660156 C 10.230469 14.617188 10.28125 14.566406 10.300781 14.523438 Z M 11.433594 17.433594 C 11.445312 17.46875 11.460938 17.503906 11.484375 17.539062 C 11.5625 17.210938 11.59375 16.867188 11.730469 16.546875 C 11.769531 17.601562 12.1875 18.492188 12.890625 19.257812 C 12.832031 18.945312 12.769531 18.628906 12.710938 18.3125 C 12.71875 18.308594 12.730469 18.304688 12.738281 18.300781 C 13.027344 18.925781 13.402344 19.488281 13.910156 20 C 13.933594 19.660156 13.953125 19.351562 13.972656 19.035156 C 14.035156 19.0625 14.023438 19.113281 14.03125 19.148438 C 14.136719 19.617188 14.320312 20.050781 14.640625 20.417969 C 14.707031 20.496094 14.792969 20.558594 14.867188 20.632812 C 14.953125 20.71875 15.023438 20.714844 15.121094 20.636719 C 15.464844 20.359375 15.675781 19.996094 15.828125 19.597656 C 15.890625 19.4375 15.9375 19.273438 15.964844 19.105469 C 15.96875 19.082031 15.96875 19.054688 16.019531 19.035156 C 16.039062 19.347656 16.058594 19.65625 16.078125 20 C 16.582031 19.492188 16.960938 18.929688 17.25 18.304688 C 17.257812 18.308594 17.269531 18.3125 17.28125 18.316406 C 17.21875 18.628906 17.160156 18.941406 17.097656 19.257812 C 17.292969 19.140625 17.738281 18.46875 17.929688 18.007812 C 18.125 17.542969 18.242188 17.058594 18.257812 16.542969 C 18.394531 16.871094 18.433594 17.21875 18.496094 17.585938 C 18.625 17.269531 18.691406 16.972656 18.726562 16.667969 C 18.78125 16.203125 18.746094 15.738281 18.671875 15.277344 C 18.640625 15.097656 18.550781 14.949219 18.453125 14.804688 C 18.359375 14.664062 18.257812 14.527344 18.117188 14.378906 C 18.238281 14.921875 18.238281 15.433594 18.121094 15.949219 C 18.074219 15.714844 18.082031 15.480469 18.023438 15.25 C 18.03125 15.742188 17.820312 16.167969 17.585938 16.582031 C 17.386719 16.9375 17.242188 17.3125 17.214844 17.722656 C 17.214844 17.742188 17.214844 17.765625 17.179688 17.773438 C 17.148438 17.671875 17.144531 17.566406 17.140625 17.460938 C 17.125 17.039062 17.242188 16.636719 17.367188 16.242188 C 17.492188 15.835938 17.507812 15.433594 17.355469 15.03125 C 17.304688 14.898438 17.097656 14.847656 16.996094 14.949219 C 16.96875 14.976562 16.972656 15.011719 16.980469 15.042969 C 17.007812 15.148438 17.039062 15.253906 17.058594 15.359375 C 17.074219 15.4375 17.117188 15.445312 17.183594 15.425781 C 17.246094 15.40625 17.308594 15.375 17.375 15.386719 C 17.386719 15.4375 17.359375 15.472656 17.335938 15.507812 C 17.199219 15.75 17.085938 16.003906 16.925781 16.234375 C 16.902344 16.269531 16.894531 16.308594 16.90625 16.351562 C 17.101562 17.023438 16.957031 17.660156 16.703125 18.285156 C 16.617188 18.492188 16.515625 18.6875 16.386719 18.875 C 16.503906 18.390625 16.605469 17.910156 16.578125 17.414062 C 16.539062 17.398438 16.539062 17.421875 16.539062 17.433594 C 16.480469 17.847656 16.253906 18.171875 15.992188 18.480469 C 15.808594 18.691406 15.621094 18.894531 15.453125 19.117188 C 15.253906 19.382812 15.105469 19.667969 15.03125 19.988281 C 15.027344 20.011719 15.027344 20.039062 15 20.050781 C 14.972656 20.050781 14.96875 20.03125 14.964844 20.011719 C 14.871094 19.554688 14.613281 19.191406 14.320312 18.84375 C 14.132812 18.628906 13.933594 18.421875 13.769531 18.183594 C 13.605469 17.949219 13.480469 17.699219 13.433594 17.410156 C 13.375 17.910156 13.492188 18.390625 13.605469 18.875 C 13.519531 18.785156 13.472656 18.671875 13.421875 18.566406 C 13.167969 18.058594 12.992188 17.53125 12.996094 16.957031 C 12.996094 16.769531 13.015625 16.582031 13.070312 16.402344 C 13.097656 16.320312 13.078125 16.265625 13.035156 16.195312 C 12.882812 15.933594 12.742188 15.667969 12.59375 15.398438 C 12.675781 15.367188 12.726562 15.398438 12.78125 15.417969 C 12.875 15.449219 12.917969 15.417969 12.9375 15.324219 C 12.957031 15.234375 12.980469 15.144531 13.007812 15.058594 C 13.027344 14.984375 13.007812 14.9375 12.925781 14.921875 C 12.886719 14.917969 12.84375 14.910156 12.804688 14.898438 C 12.71875 14.878906 12.675781 14.914062 12.644531 14.992188 C 12.480469 15.414062 12.492188 15.835938 12.628906 16.261719 C 12.753906 16.644531 12.859375 17.027344 12.851562 17.433594 C 12.847656 17.546875 12.832031 17.660156 12.824219 17.773438 C 12.808594 17.773438 12.796875 17.777344 12.785156 17.777344 C 12.777344 17.703125 12.769531 17.628906 12.757812 17.554688 C 12.703125 17.164062 12.539062 16.8125 12.347656 16.476562 C 12.132812 16.101562 11.972656 15.714844 11.972656 15.253906 C 11.921875 15.382812 11.925781 15.5 11.910156 15.613281 C 11.894531 15.730469 11.898438 15.851562 11.875 15.96875 C 11.765625 15.457031 11.75 14.945312 11.863281 14.421875 C 11.8125 14.425781 11.796875 14.460938 11.777344 14.488281 C 11.667969 14.621094 11.570312 14.757812 11.476562 14.902344 C 11.394531 15.027344 11.339844 15.15625 11.316406 15.300781 C 11.195312 16.023438 11.199219 16.734375 11.433594 17.433594 Z M 15.394531 12.128906 C 15.308594 12.238281 15.1875 12.320312 15.078125 12.40625 C 15.015625 12.453125 14.964844 12.449219 14.910156 12.40625 C 14.796875 12.316406 14.683594 12.234375 14.59375 12.125 C 14.539062 12.0625 14.496094 12.054688 14.421875 12.09375 C 14.21875 12.210938 14.007812 12.324219 13.789062 12.414062 C 13.699219 12.453125 13.609375 12.484375 13.519531 12.511719 C 13.125 12.621094 12.859375 12.945312 12.832031 13.351562 C 12.820312 13.476562 12.761719 13.582031 12.71875 13.691406 C 12.664062 13.84375 12.597656 13.992188 12.546875 14.148438 C 12.480469 14.347656 12.535156 14.449219 12.742188 14.496094 C 12.925781 14.542969 13.117188 14.566406 13.296875 14.636719 C 13.328125 14.652344 13.359375 14.660156 13.386719 14.675781 C 13.515625 14.746094 13.648438 14.875 13.742188 14.613281 C 13.707031 14.800781 13.632812 14.945312 13.546875 15.082031 C 13.496094 15.160156 13.519531 15.210938 13.589844 15.257812 C 13.683594 15.316406 13.792969 15.316406 13.898438 15.351562 C 13.761719 15.40625 13.625 15.402344 13.492188 15.339844 C 13.457031 15.328125 13.417969 15.28125 13.386719 15.335938 C 13.359375 15.382812 13.382812 15.425781 13.417969 15.460938 C 13.492188 15.527344 13.582031 15.535156 13.675781 15.539062 C 13.777344 15.542969 13.878906 15.519531 13.988281 15.5 C 13.886719 15.621094 13.59375 15.679688 13.410156 15.628906 C 13.371094 15.617188 13.3125 15.535156 13.28125 15.625 C 13.253906 15.695312 13.277344 15.769531 13.355469 15.800781 C 13.496094 15.863281 13.644531 15.84375 13.785156 15.816406 C 13.871094 15.800781 13.949219 15.769531 14.042969 15.742188 C 13.945312 15.867188 13.71875 15.949219 13.375 15.980469 C 13.4375 16.097656 13.542969 16.144531 13.652344 16.171875 C 14.0625 16.273438 14.402344 16.132812 14.714844 15.875 C 14.75 15.84375 14.765625 15.800781 14.765625 15.753906 C 14.761719 15.6875 14.761719 15.621094 14.761719 15.554688 C 14.761719 15.363281 14.691406 15.230469 14.496094 15.167969 C 14.347656 15.121094 14.214844 15.042969 14.097656 14.941406 C 13.992188 14.851562 13.992188 14.746094 14.089844 14.667969 C 14.144531 14.625 14.191406 14.589844 14.238281 14.679688 C 14.277344 14.757812 14.355469 14.746094 14.425781 14.726562 C 14.804688 14.628906 15.179688 14.628906 15.558594 14.726562 C 15.625 14.742188 15.695312 14.757812 15.742188 14.691406 C 15.78125 14.644531 15.804688 14.59375 15.878906 14.648438 C 15.945312 14.699219 15.992188 14.757812 15.960938 14.851562 C 15.945312 14.898438 15.910156 14.933594 15.867188 14.964844 C 15.75 15.054688 15.617188 15.128906 15.476562 15.175781 C 15.320312 15.226562 15.246094 15.332031 15.234375 15.488281 C 15.230469 15.582031 15.230469 15.671875 15.226562 15.761719 C 15.226562 15.808594 15.242188 15.84375 15.273438 15.871094 C 15.585938 16.128906 15.925781 16.269531 16.335938 16.171875 C 16.445312 16.144531 16.542969 16.09375 16.628906 15.96875 C 16.363281 15.992188 16.152344 15.894531 15.929688 15.765625 C 15.984375 15.734375 16.015625 15.761719 16.046875 15.773438 C 16.195312 15.828125 16.351562 15.847656 16.511719 15.835938 C 16.574219 15.832031 16.636719 15.8125 16.683594 15.769531 C 16.726562 15.726562 16.726562 15.664062 16.707031 15.617188 C 16.679688 15.554688 16.636719 15.609375 16.601562 15.621094 C 16.382812 15.683594 16.1875 15.625 15.996094 15.507812 C 16.105469 15.519531 16.210938 15.535156 16.320312 15.539062 C 16.414062 15.542969 16.503906 15.53125 16.574219 15.457031 C 16.605469 15.425781 16.644531 15.386719 16.613281 15.339844 C 16.578125 15.277344 16.535156 15.324219 16.496094 15.34375 C 16.363281 15.40625 16.226562 15.402344 16.085938 15.34375 C 16.164062 15.328125 16.242188 15.316406 16.320312 15.292969 C 16.472656 15.25 16.5 15.179688 16.421875 15.042969 C 16.351562 14.917969 16.277344 14.792969 16.246094 14.648438 C 16.261719 14.648438 16.273438 14.644531 16.273438 14.648438 C 16.347656 14.769531 16.417969 14.792969 16.554688 14.707031 C 16.714844 14.601562 16.914062 14.5625 17.109375 14.53125 C 17.476562 14.46875 17.53125 14.371094 17.402344 14.023438 C 17.335938 13.855469 17.269531 13.691406 17.203125 13.527344 C 17.179688 13.46875 17.167969 13.410156 17.160156 13.347656 C 17.121094 12.957031 16.921875 12.675781 16.558594 12.546875 C 16.214844 12.425781 15.890625 12.277344 15.574219 12.097656 C 15.5 12.058594 15.449219 12.058594 15.394531 12.128906 Z M 14.753906 17.714844 C 15.019531 17.746094 15.285156 17.742188 15.535156 17.632812 C 15.695312 17.5625 15.824219 17.449219 15.917969 17.304688 C 15.941406 17.265625 15.945312 17.199219 16 17.207031 C 16.046875 17.214844 16.050781 17.277344 16.070312 17.320312 C 16.074219 17.328125 16.082031 17.339844 16.085938 17.351562 C 16.265625 17.203125 16.355469 16.800781 16.265625 16.589844 C 16.238281 16.535156 16.195312 16.523438 16.144531 16.519531 C 15.945312 16.496094 15.757812 16.433594 15.578125 16.335938 C 15.183594 16.117188 14.785156 16.125 14.390625 16.347656 C 14.226562 16.4375 14.050781 16.496094 13.863281 16.515625 C 13.773438 16.523438 13.722656 16.5625 13.710938 16.652344 C 13.671875 16.910156 13.71875 17.144531 13.894531 17.367188 C 13.984375 17.179688 13.984375 17.179688 14.09375 17.332031 C 14.253906 17.558594 14.480469 17.683594 14.753906 17.714844 Z M 14.308594 17.996094 C 14.550781 18.527344 14.878906 19 14.996094 19.566406 C 15.113281 19 15.441406 18.527344 15.683594 17.988281 C 15.550781 18.035156 15.441406 18.070312 15.328125 18.089844 C 15.273438 18.097656 15.261719 18.148438 15.246094 18.191406 C 15.179688 18.382812 15.109375 18.574219 15.039062 18.765625 C 15.03125 18.789062 15.03125 18.832031 14.996094 18.832031 C 14.957031 18.832031 14.957031 18.789062 14.949219 18.765625 C 14.882812 18.582031 14.816406 18.398438 14.753906 18.210938 C 14.730469 18.132812 14.691406 18.085938 14.601562 18.074219 C 14.511719 18.058594 14.425781 18.027344 14.308594 17.996094 Z M 10.839844 15.554688 C 10.941406 15.445312 11.03125 15.359375 11.070312 15.234375 C 11.308594 14.449219 11.753906 13.796875 12.367188 13.257812 C 12.425781 13.207031 12.460938 13.148438 12.480469 13.070312 C 12.515625 12.90625 12.597656 12.761719 12.707031 12.609375 C 12.558594 12.628906 12.453125 12.71875 12.324219 12.746094 C 12.492188 12.507812 12.71875 12.34375 13.003906 12.199219 C 12.671875 12.234375 12.390625 12.328125 12.105469 12.433594 C 12.097656 12.375 12.140625 12.363281 12.164062 12.34375 C 12.628906 12.003906 13.128906 11.753906 13.707031 11.679688 C 13.890625 11.65625 14.070312 11.65625 14.253906 11.679688 C 14.292969 11.6875 14.34375 11.710938 14.367188 11.667969 C 14.386719 11.625 14.347656 11.597656 14.320312 11.570312 C 14.316406 11.566406 14.316406 11.566406 14.3125 11.5625 C 14.15625 11.375 13.960938 11.332031 13.730469 11.421875 C 13.699219 11.433594 13.667969 11.464844 13.613281 11.449219 C 13.730469 11.28125 13.878906 11.179688 14.082031 11.164062 C 14.363281 11.140625 14.59375 11.261719 14.808594 11.417969 C 14.996094 11.554688 14.992188 11.554688 15.179688 11.421875 C 15.398438 11.261719 15.632812 11.140625 15.917969 11.164062 C 16.117188 11.183594 16.257812 11.285156 16.382812 11.449219 C 16.3125 11.464844 16.28125 11.425781 16.238281 11.414062 C 16.019531 11.332031 15.808594 11.390625 15.667969 11.570312 C 15.664062 11.574219 15.65625 11.582031 15.652344 11.589844 C 15.636719 11.613281 15.605469 11.636719 15.621094 11.664062 C 15.636719 11.703125 15.679688 11.6875 15.710938 11.683594 C 16.53125 11.585938 17.222656 11.898438 17.863281 12.371094 C 17.875 12.378906 17.882812 12.394531 17.890625 12.417969 C 17.601562 12.332031 17.316406 12.234375 16.980469 12.199219 C 17.265625 12.34375 17.5 12.503906 17.667969 12.742188 C 17.539062 12.71875 17.433594 12.632812 17.28125 12.605469 C 17.40625 12.78125 17.488281 12.953125 17.535156 13.144531 C 17.546875 13.195312 17.589844 13.226562 17.628906 13.257812 C 18.238281 13.800781 18.683594 14.449219 18.921875 15.234375 C 18.957031 15.359375 19.054688 15.4375 19.148438 15.5625 C 19.195312 14.949219 19.078125 14.421875 18.714844 13.949219 L 19.058594 14.070312 C 18.847656 13.632812 18.492188 13.347656 18.09375 13.09375 L 18.6875 13.09375 C 18.5625 12.953125 18.464844 12.839844 18.355469 12.734375 C 18.273438 12.65625 18.25 12.582031 18.277344 12.472656 C 18.34375 12.222656 18.371094 11.964844 18.363281 11.707031 C 18.359375 11.609375 18.34375 11.515625 18.3125 11.425781 C 18.230469 11.179688 18.03125 11.074219 17.78125 11.148438 C 17.566406 11.210938 17.390625 11.347656 17.238281 11.511719 C 17.210938 11.539062 17.1875 11.558594 17.164062 11.570312 C 17.148438 11.574219 17.132812 11.574219 17.113281 11.570312 C 17.09375 11.5625 17.070312 11.542969 17.042969 11.511719 C 16.925781 11.382812 16.796875 11.265625 16.664062 11.148438 C 16.417969 10.941406 16.144531 10.839844 15.816406 10.8125 C 15.488281 10.78125 15.300781 10.933594 15.136719 11.167969 C 15.097656 11.222656 15.070312 11.285156 15.039062 11.34375 C 15.027344 11.363281 15.027344 11.394531 14.996094 11.394531 C 14.964844 11.394531 14.960938 11.363281 14.949219 11.34375 C 14.867188 11.171875 14.769531 11.015625 14.609375 10.902344 C 14.515625 10.835938 14.417969 10.808594 14.300781 10.800781 C 13.871094 10.769531 13.535156 10.949219 13.234375 11.230469 C 13.140625 11.316406 13.042969 11.402344 12.960938 11.5 C 12.929688 11.535156 12.898438 11.558594 12.871094 11.570312 C 12.832031 11.578125 12.792969 11.5625 12.742188 11.503906 C 12.601562 11.351562 12.4375 11.226562 12.234375 11.15625 C 11.972656 11.066406 11.761719 11.171875 11.675781 11.433594 C 11.648438 11.523438 11.632812 11.609375 11.628906 11.703125 C 11.617188 11.976562 11.648438 12.242188 11.71875 12.503906 C 11.742188 12.585938 11.730469 12.640625 11.664062 12.703125 C 11.546875 12.816406 11.441406 12.941406 11.304688 13.085938 L 11.890625 13.085938 C 11.898438 13.09375 11.902344 13.105469 11.910156 13.117188 C 11.5 13.347656 11.140625 13.628906 10.898438 14.082031 C 11.042969 14.03125 11.15625 13.992188 11.269531 13.953125 C 10.914062 14.421875 10.800781 14.949219 10.839844 15.554688 Z M 10.839844 15.554688 " fill-opacity="1" fill-rule="nonzero"/></g><path fill="#000000" d="M 11.800781 11.59375 C 11.832031 11.59375 11.835938 11.5625 11.847656 11.542969 C 11.957031 11.371094 12.054688 11.359375 12.207031 11.5 C 12.28125 11.566406 12.339844 11.648438 12.394531 11.730469 C 12.4375 11.796875 12.472656 11.796875 12.535156 11.753906 C 12.75 11.609375 12.75 11.613281 12.546875 11.457031 C 12.429688 11.363281 12.300781 11.285156 12.152344 11.253906 C 11.941406 11.210938 11.773438 11.375 11.800781 11.59375 Z M 11.800781 11.59375 " fill-opacity="1" fill-rule="nonzero"/><path fill="#000000" d="M 18.199219 11.628906 C 18.1875 11.316406 18.015625 11.1875 17.761719 11.277344 C 17.59375 11.332031 17.457031 11.441406 17.324219 11.554688 C 17.277344 11.59375 17.273438 11.628906 17.328125 11.660156 C 17.328125 11.664062 17.332031 11.667969 17.335938 11.667969 C 17.519531 11.820312 17.519531 11.820312 17.667969 11.628906 C 17.714844 11.566406 17.765625 11.507812 17.832031 11.460938 C 17.960938 11.371094 18.035156 11.382812 18.121094 11.511719 C 18.140625 11.539062 18.160156 11.570312 18.199219 11.628906 Z M 18.199219 11.628906 " fill-opacity="1" fill-rule="nonzero"/><path fill="#000000" d="M 13.613281 11.449219 C 13.667969 11.464844 13.699219 11.433594 13.730469 11.421875 C 13.960938 11.332031 14.15625 11.375 14.3125 11.5625 C 14.316406 11.566406 14.316406 11.566406 14.320312 11.566406 L 15.667969 11.566406 C 15.808594 11.390625 16.019531 11.332031 16.238281 11.414062 C 16.277344 11.425781 16.3125 11.464844 16.382812 11.449219 C 16.257812 11.285156 16.117188 11.183594 15.917969 11.164062 C 15.632812 11.140625 15.398438 11.261719 15.179688 11.417969 C 14.992188 11.554688 14.996094 11.554688 14.808594 11.417969 C 14.59375 11.261719 14.363281 11.140625 14.082031 11.164062 C 13.878906 11.179688 13.730469 11.28125 13.613281 11.449219 Z M 13.613281 11.449219 " fill-opacity="1" fill-rule="nonzero"/><path fill="#000000" d="M 14.28125 13.875 C 14.304688 13.660156 14.363281 13.453125 14.425781 13.226562 C 14.367188 13.25 14.347656 13.292969 14.3125 13.320312 C 14.273438 13.355469 14.246094 13.367188 14.199219 13.316406 C 14.046875 13.136719 13.90625 13.109375 13.691406 13.207031 C 13.566406 13.261719 13.4375 13.359375 13.378906 13.457031 C 13.492188 13.390625 13.570312 13.457031 13.652344 13.511719 C 13.765625 13.589844 13.898438 13.609375 14.03125 13.585938 C 14.117188 13.570312 14.152344 13.605469 14.179688 13.675781 C 14.207031 13.742188 14.230469 13.808594 14.257812 13.875 C 14.265625 13.875 14.273438 13.875 14.28125 13.875 Z M 14.28125 13.875 " fill-opacity="1" fill-rule="nonzero"/><path fill="#000000" d="M 15.566406 13.226562 C 15.628906 13.449219 15.683594 13.660156 15.726562 13.878906 C 15.761719 13.800781 15.792969 13.722656 15.824219 13.644531 C 15.847656 13.59375 15.882812 13.574219 15.941406 13.585938 C 16.105469 13.613281 16.257812 13.582031 16.390625 13.476562 C 16.457031 13.421875 16.527344 13.417969 16.609375 13.457031 C 16.460938 13.148438 16.003906 13.070312 15.792969 13.3125 C 15.746094 13.363281 15.71875 13.359375 15.671875 13.316406 C 15.644531 13.289062 15.625 13.246094 15.566406 13.226562 Z M 15.566406 13.226562 " fill-opacity="1" fill-rule="nonzero"/><g clip-path="url(#4c1c5eaa76)"><path fill="#000000" d="M 11.722656 9.785156 C 11.910156 10.09375 12.097656 10.402344 12.289062 10.710938 C 12.304688 10.738281 12.316406 10.765625 12.332031 10.796875 L 12.871094 11.566406 C 12.902344 11.558594 12.929688 11.535156 12.960938 11.5 C 13.042969 11.402344 13.140625 11.316406 13.234375 11.230469 C 13.535156 10.949219 13.871094 10.769531 14.300781 10.800781 C 14.417969 10.808594 14.515625 10.835938 14.609375 10.902344 C 14.769531 11.015625 14.867188 11.171875 14.949219 11.34375 C 14.960938 11.363281 14.964844 11.394531 14.996094 11.394531 C 15.027344 11.394531 15.027344 11.363281 15.039062 11.34375 C 15.070312 11.285156 15.097656 11.222656 15.136719 11.167969 C 15.300781 10.933594 15.488281 10.78125 15.816406 10.8125 C 16.144531 10.839844 16.417969 10.9375 16.664062 11.148438 C 16.796875 11.265625 16.925781 11.382812 17.042969 11.511719 C 17.070312 11.542969 17.09375 11.5625 17.113281 11.566406 L 17.164062 11.566406 L 17.792969 10.804688 C 17.765625 10.808594 17.734375 10.8125 17.707031 10.816406 C 17.6875 10.820312 17.667969 10.824219 17.625 10.832031 C 17.695312 10.710938 17.757812 10.609375 17.820312 10.507812 C 17.972656 10.257812 18.128906 10.007812 18.285156 9.753906 C 18.300781 9.730469 18.339844 9.703125 18.308594 9.667969 C 18.289062 9.640625 18.253906 9.660156 18.226562 9.667969 C 18.066406 9.699219 17.910156 9.734375 17.75 9.761719 C 17.671875 9.773438 17.640625 9.808594 17.625 9.886719 C 17.582031 10.089844 17.410156 10.21875 17.242188 10.183594 C 17.121094 10.15625 17.046875 10.078125 17.023438 9.957031 C 16.996094 9.8125 17.046875 9.65625 17.175781 9.605469 C 17.324219 9.542969 17.328125 9.445312 17.324219 9.316406 C 17.324219 9.105469 17.3125 8.894531 17.335938 8.683594 C 17.351562 8.554688 17.320312 8.535156 17.195312 8.585938 C 16.929688 8.699219 16.667969 8.8125 16.402344 8.917969 C 16.320312 8.953125 16.289062 8.992188 16.308594 9.085938 C 16.355469 9.367188 16.199219 9.589844 15.957031 9.597656 C 15.8125 9.605469 15.699219 9.550781 15.640625 9.421875 C 15.566406 9.269531 15.558594 9.101562 15.671875 8.972656 C 15.773438 8.863281 15.742188 8.800781 15.660156 8.707031 C 15.460938 8.472656 15.269531 8.234375 15.078125 7.996094 C 15.015625 7.917969 14.972656 7.921875 14.914062 7.996094 C 14.703125 8.253906 14.496094 8.511719 14.28125 8.769531 C 14.234375 8.828125 14.222656 8.867188 14.28125 8.925781 C 14.367188 9.003906 14.398438 9.105469 14.398438 9.21875 C 14.394531 9.433594 14.28125 9.578125 14.097656 9.597656 C 13.886719 9.617188 13.707031 9.480469 13.679688 9.269531 C 13.671875 9.210938 13.664062 9.140625 13.683594 9.085938 C 13.710938 8.988281 13.667969 8.949219 13.585938 8.917969 C 13.324219 8.808594 13.058594 8.699219 12.792969 8.585938 C 12.691406 8.539062 12.664062 8.570312 12.664062 8.675781 C 12.667969 8.917969 12.671875 9.160156 12.667969 9.398438 C 12.664062 9.492188 12.691406 9.542969 12.777344 9.582031 C 12.929688 9.648438 12.992188 9.785156 12.96875 9.949219 C 12.953125 10.078125 12.875 10.148438 12.753906 10.179688 C 12.589844 10.21875 12.414062 10.101562 12.371094 9.90625 C 12.351562 9.804688 12.304688 9.769531 12.210938 9.753906 C 12.070312 9.734375 11.933594 9.699219 11.792969 9.671875 C 11.757812 9.667969 11.707031 9.632812 11.679688 9.675781 C 11.65625 9.710938 11.703125 9.75 11.722656 9.785156 Z M 11.722656 9.785156 " fill-opacity="1" fill-rule="nonzero"/></g><g clip-path="url(#6aa107998b)"><path fill="#000000" d="M 3.128906 12.714844 L 7.039062 12.714844 L 7.039062 16.316406 L 3.128906 16.316406 Z M 3.128906 12.714844 " fill-opacity="1" fill-rule="nonzero"/></g><g clip-path="url(#0eabc43073)"><path fill="#000000" d="M 22.960938 12.714844 L 26.875 12.714844 L 26.875 16.316406 L 22.960938 16.316406 Z M 22.960938 12.714844 " fill-opacity="1" fill-rule="nonzero"/></g><g fill="#000000" fill-opacity="1"><g transform="translate(5.894341, 11.716764)"><g><path d="M 0.296875 -0.84375 L -0.390625 -0.640625 L 0.15625 -0.4375 L 0.03125 -0.109375 L -1.21875 -0.5625 L -1.09375 -0.890625 L -0.546875 -0.6875 L -0.953125 -1.296875 L -0.8125 -1.6875 L -0.359375 -1.015625 L 0.453125 -1.25 Z M 0.296875 -0.84375 "/></g></g></g><g fill="#000000" fill-opacity="1"><g transform="translate(6.335938, 10.50391)"><g><path d="M -0.71875 -0.890625 L -0.53125 -0.78125 L -0.34375 -1.15625 L -0.078125 -1.03125 L -0.265625 -0.65625 L -0.0625 -0.546875 L 0.15625 -0.984375 L 0.421875 -0.859375 L 0.046875 -0.09375 L -1.140625 -0.6875 L -0.765625 -1.453125 L -0.5 -1.328125 Z M -0.71875 -0.890625 "/></g></g></g><g fill="#000000" fill-opacity="1"><g transform="translate(6.780251, 9.631556)"><g><path d="M -0.890625 -1.09375 L 0.25 -0.40625 L 0.0625 -0.09375 L -1.078125 -0.78125 Z M -0.890625 -1.09375 "/></g></g></g><g fill="#000000" fill-opacity="1"><g transform="translate(7.041868, 9.171857)"><g><path d="M -0.4375 -1.671875 L -0.1875 -1.5 L -0.390625 -1.21875 L 0.4375 -0.609375 L 0.21875 -0.296875 L -0.609375 -0.90625 L -0.8125 -0.640625 L -1.0625 -0.8125 Z M -0.4375 -1.671875 "/></g></g></g><g fill="#000000" fill-opacity="1"><g transform="translate(7.655125, 8.306824)"><g><path d="M -0.09375 -1.84375 L 0.875 -0.9375 L 0.625 -0.671875 L 0.234375 -1.03125 L -0.0625 -0.703125 L 0.328125 -0.34375 L 0.078125 -0.078125 L -0.890625 -0.984375 L -0.640625 -1.25 L -0.28125 -0.90625 L 0.015625 -1.234375 L -0.34375 -1.578125 Z M -0.09375 -1.84375 "/></g></g></g><g fill="#000000" fill-opacity="1"><g transform="translate(8.559766, 7.348011)"><g><path d="M 0.484375 -0.375 C 0.367188 -0.269531 0.25 -0.210938 0.125 -0.203125 C 0 -0.203125 -0.113281 -0.253906 -0.21875 -0.359375 L 0.078125 -0.59375 C 0.117188 -0.570312 0.15625 -0.5625 0.1875 -0.5625 C 0.21875 -0.5625 0.25 -0.570312 0.28125 -0.59375 C 0.3125 -0.613281 0.328125 -0.632812 0.328125 -0.65625 C 0.335938 -0.6875 0.332031 -0.71875 0.3125 -0.75 C 0.28125 -0.78125 0.242188 -0.789062 0.203125 -0.78125 C 0.160156 -0.769531 0.0976562 -0.742188 0.015625 -0.703125 C -0.0664062 -0.679688 -0.132812 -0.660156 -0.1875 -0.640625 C -0.25 -0.628906 -0.3125 -0.628906 -0.375 -0.640625 C -0.4375 -0.660156 -0.492188 -0.703125 -0.546875 -0.765625 C -0.597656 -0.828125 -0.625 -0.894531 -0.625 -0.96875 C -0.632812 -1.050781 -0.617188 -1.125 -0.578125 -1.1875 C -0.546875 -1.257812 -0.492188 -1.328125 -0.421875 -1.390625 C -0.304688 -1.484375 -0.1875 -1.535156 -0.0625 -1.546875 C 0.0507812 -1.554688 0.148438 -1.507812 0.234375 -1.40625 L -0.0625 -1.15625 C -0.09375 -1.175781 -0.125 -1.1875 -0.15625 -1.1875 C -0.1875 -1.195312 -0.210938 -1.191406 -0.234375 -1.171875 C -0.265625 -1.148438 -0.28125 -1.125 -0.28125 -1.09375 C -0.28125 -1.070312 -0.269531 -1.050781 -0.25 -1.03125 C -0.238281 -1.019531 -0.21875 -1.007812 -0.1875 -1 C -0.164062 -0.988281 -0.140625 -0.988281 -0.109375 -1 C -0.078125 -1.019531 -0.03125 -1.035156 0.03125 -1.046875 C 0.101562 -1.078125 0.171875 -1.097656 0.234375 -1.109375 C 0.304688 -1.128906 0.367188 -1.128906 0.421875 -1.109375 C 0.484375 -1.097656 0.535156 -1.066406 0.578125 -1.015625 C 0.640625 -0.953125 0.675781 -0.882812 0.6875 -0.8125 C 0.695312 -0.738281 0.679688 -0.660156 0.640625 -0.578125 C 0.609375 -0.503906 0.554688 -0.4375 0.484375 -0.375 Z M 0.484375 -0.375 "/></g></g></g><g fill="#000000" fill-opacity="1"><g transform="translate(9.40342, 6.649131)"><g><path d="M 0.203125 -1.703125 L 0.359375 -1.453125 L 0.0625 -1.265625 L 0.625 -0.40625 L 0.3125 -0.203125 L -0.25 -1.0625 L -0.53125 -0.875 L -0.6875 -1.125 Z M 0.203125 -1.703125 "/></g></g></g><g fill="#000000" fill-opacity="1"><g transform="translate(10.282926, 6.060188)"><g><path d="M 0.65625 -0.296875 C 0.550781 -0.242188 0.441406 -0.21875 0.328125 -0.21875 C 0.210938 -0.226562 0.101562 -0.269531 0 -0.34375 C -0.09375 -0.414062 -0.171875 -0.515625 -0.234375 -0.640625 C -0.285156 -0.753906 -0.304688 -0.867188 -0.296875 -0.984375 C -0.285156 -1.097656 -0.242188 -1.203125 -0.171875 -1.296875 C -0.109375 -1.398438 -0.0234375 -1.476562 0.078125 -1.53125 C 0.191406 -1.582031 0.304688 -1.601562 0.421875 -1.59375 C 0.546875 -1.59375 0.65625 -1.554688 0.75 -1.484375 C 0.851562 -1.421875 0.929688 -1.332031 0.984375 -1.21875 C 1.046875 -1.09375 1.070312 -0.96875 1.0625 -0.84375 C 1.050781 -0.726562 1.007812 -0.617188 0.9375 -0.515625 C 0.863281 -0.421875 0.769531 -0.347656 0.65625 -0.296875 Z M 0.515625 -0.609375 C 0.609375 -0.648438 0.664062 -0.710938 0.6875 -0.796875 C 0.707031 -0.878906 0.691406 -0.96875 0.640625 -1.0625 C 0.597656 -1.15625 0.539062 -1.210938 0.46875 -1.234375 C 0.394531 -1.265625 0.3125 -1.257812 0.21875 -1.21875 C 0.132812 -1.175781 0.0820312 -1.117188 0.0625 -1.046875 C 0.0390625 -0.972656 0.0507812 -0.890625 0.09375 -0.796875 C 0.144531 -0.703125 0.207031 -0.632812 0.28125 -0.59375 C 0.351562 -0.5625 0.429688 -0.566406 0.515625 -0.609375 Z M 0.515625 -0.609375 "/></g></g></g><g fill="#000000" fill-opacity="1"><g transform="translate(11.537107, 5.456886)"><g><path d="M 1.265625 -0.390625 L 0.921875 -0.28125 L 0.234375 -0.84375 L 0.453125 -0.140625 L 0.109375 -0.03125 L -0.28125 -1.296875 L 0.0625 -1.40625 L 0.75 -0.828125 L 0.53125 -1.546875 L 0.875 -1.65625 Z M 1.265625 -0.390625 "/></g></g></g><g fill="#000000" fill-opacity="1"><g transform="translate(12.860428, 5.069288)"><g/></g></g><g fill="#000000" fill-opacity="1"><g transform="translate(13.168746, 4.989399)"><g><path d="M 0.796875 -1.453125 L 0.84375 -1.15625 L 0.328125 -1.078125 L 0.359375 -0.84375 L 0.734375 -0.90625 L 0.765625 -0.640625 L 0.390625 -0.578125 L 0.46875 -0.0625 L 0.109375 -0.015625 L -0.078125 -1.328125 Z M 0.796875 -1.453125 "/></g></g></g><g fill="#000000" fill-opacity="1"><g transform="translate(14.136713, 4.834012)"><g><path d="M 0.734375 0 C 0.609375 0 0.492188 -0.0234375 0.390625 -0.078125 C 0.285156 -0.128906 0.203125 -0.207031 0.140625 -0.3125 C 0.0859375 -0.414062 0.0546875 -0.535156 0.046875 -0.671875 C 0.046875 -0.796875 0.0703125 -0.910156 0.125 -1.015625 C 0.1875 -1.117188 0.269531 -1.203125 0.375 -1.265625 C 0.476562 -1.328125 0.59375 -1.359375 0.71875 -1.359375 C 0.84375 -1.359375 0.957031 -1.328125 1.0625 -1.265625 C 1.164062 -1.210938 1.25 -1.132812 1.3125 -1.03125 C 1.375 -0.925781 1.40625 -0.8125 1.40625 -0.6875 C 1.414062 -0.550781 1.390625 -0.429688 1.328125 -0.328125 C 1.265625 -0.222656 1.179688 -0.140625 1.078125 -0.078125 C 0.972656 -0.0234375 0.859375 0 0.734375 0 Z M 0.734375 -0.34375 C 0.828125 -0.34375 0.898438 -0.375 0.953125 -0.4375 C 1.003906 -0.5 1.03125 -0.582031 1.03125 -0.6875 C 1.03125 -0.789062 1 -0.867188 0.9375 -0.921875 C 0.882812 -0.984375 0.8125 -1.015625 0.71875 -1.015625 C 0.625 -1.015625 0.550781 -0.984375 0.5 -0.921875 C 0.445312 -0.859375 0.421875 -0.773438 0.421875 -0.671875 C 0.421875 -0.566406 0.445312 -0.484375 0.5 -0.421875 C 0.5625 -0.367188 0.640625 -0.34375 0.734375 -0.34375 Z M 0.734375 -0.34375 "/></g></g></g><g fill="#000000" fill-opacity="1"><g transform="translate(15.527296, 4.806726)"><g><path d="M 0.734375 0.109375 C 0.609375 0.0976562 0.492188 0.0546875 0.390625 -0.015625 C 0.296875 -0.0859375 0.226562 -0.175781 0.1875 -0.28125 C 0.144531 -0.394531 0.132812 -0.519531 0.15625 -0.65625 C 0.164062 -0.78125 0.207031 -0.890625 0.28125 -0.984375 C 0.351562 -1.078125 0.441406 -1.144531 0.546875 -1.1875 C 0.660156 -1.226562 0.78125 -1.242188 0.90625 -1.234375 C 1.019531 -1.210938 1.125 -1.164062 1.21875 -1.09375 C 1.320312 -1.03125 1.394531 -0.941406 1.4375 -0.828125 C 1.488281 -0.722656 1.507812 -0.609375 1.5 -0.484375 C 1.476562 -0.347656 1.425781 -0.234375 1.34375 -0.140625 C 1.269531 -0.046875 1.175781 0.0195312 1.0625 0.0625 C 0.957031 0.113281 0.847656 0.128906 0.734375 0.109375 Z M 0.78125 -0.234375 C 0.875 -0.222656 0.945312 -0.242188 1 -0.296875 C 1.0625 -0.347656 1.101562 -0.425781 1.125 -0.53125 C 1.132812 -0.632812 1.113281 -0.71875 1.0625 -0.78125 C 1.019531 -0.84375 0.953125 -0.878906 0.859375 -0.890625 C 0.765625 -0.898438 0.6875 -0.878906 0.625 -0.828125 C 0.570312 -0.785156 0.539062 -0.710938 0.53125 -0.609375 C 0.507812 -0.503906 0.519531 -0.414062 0.5625 -0.34375 C 0.613281 -0.28125 0.6875 -0.242188 0.78125 -0.234375 Z M 0.78125 -0.234375 "/></g></g></g><g fill="#000000" fill-opacity="1"><g transform="translate(16.91317, 4.996458)"><g><path d="M 1.40625 -1 L 1.328125 -0.71875 L 0.984375 -0.8125 L 0.71875 0.1875 L 0.359375 0.09375 L 0.625 -0.90625 L 0.296875 -0.984375 L 0.375 -1.265625 Z M 1.40625 -1 "/></g></g></g><g fill="#000000" fill-opacity="1"><g transform="translate(17.942492, 5.263848)"><g><path d="M 1.140625 -0.265625 C 1.203125 -0.234375 1.238281 -0.175781 1.25 -0.09375 C 1.269531 -0.0195312 1.269531 0.0507812 1.25 0.125 C 1.195312 0.226562 1.125 0.289062 1.03125 0.3125 C 0.945312 0.34375 0.835938 0.332031 0.703125 0.28125 L 0.09375 0.046875 L 0.59375 -1.1875 L 1.1875 -0.96875 C 1.3125 -0.914062 1.394531 -0.84375 1.4375 -0.75 C 1.488281 -0.664062 1.492188 -0.570312 1.453125 -0.46875 C 1.421875 -0.394531 1.375 -0.34375 1.3125 -0.3125 C 1.257812 -0.28125 1.203125 -0.265625 1.140625 -0.265625 Z M 0.734375 -0.5625 L 0.90625 -0.484375 C 0.988281 -0.453125 1.046875 -0.472656 1.078125 -0.546875 C 1.097656 -0.617188 1.066406 -0.671875 0.984375 -0.703125 L 0.8125 -0.78125 Z M 0.75 -0.03125 C 0.832031 0.0078125 0.890625 0 0.921875 -0.0625 C 0.929688 -0.101562 0.929688 -0.140625 0.921875 -0.171875 C 0.910156 -0.203125 0.882812 -0.226562 0.84375 -0.25 L 0.640625 -0.328125 L 0.546875 -0.109375 Z M 0.75 -0.03125 "/></g></g></g><g fill="#000000" fill-opacity="1"><g transform="translate(19.043352, 5.692828)"><g><path d="M 0.921875 0.265625 L 0.515625 0.046875 L 0.359375 0.203125 L 0.015625 0 L 1.09375 -0.90625 L 1.453125 -0.703125 L 1.21875 0.6875 L 0.890625 0.5 Z M 0.984375 -0.015625 L 1.0625 -0.453125 L 0.734375 -0.15625 Z M 0.984375 -0.015625 "/></g></g></g><g fill="#000000" fill-opacity="1"><g transform="translate(20.21057, 6.363127)"><g><path d="M 0.546875 0.046875 L 0.890625 0.296875 L 0.71875 0.53125 L 0.09375 0.0625 L 0.875 -1.015625 L 1.15625 -0.796875 Z M 0.546875 0.046875 "/></g></g></g><g fill="#000000" fill-opacity="1"><g transform="translate(20.912413, 6.871497)"><g><path d="M 0.546875 0.09375 L 0.859375 0.375 L 0.671875 0.59375 L 0.078125 0.078125 L 0.953125 -0.921875 L 1.234375 -0.6875 Z M 0.546875 0.09375 "/></g></g></g><g fill="#000000" fill-opacity="1"><g transform="translate(21.569299, 7.459489)"><g/></g></g><g fill="#000000" fill-opacity="1"><g transform="translate(21.806041, 7.659356)"><g><path d="M 0.546875 -0.375 C 0.648438 -0.457031 0.753906 -0.507812 0.859375 -0.53125 C 0.972656 -0.5625 1.082031 -0.554688 1.1875 -0.515625 C 1.289062 -0.484375 1.390625 -0.414062 1.484375 -0.3125 C 1.585938 -0.175781 1.640625 -0.0390625 1.640625 0.09375 C 1.648438 0.238281 1.609375 0.375 1.515625 0.5 L 1.25 0.1875 C 1.28125 0.132812 1.289062 0.0820312 1.28125 0.03125 C 1.28125 -0.0078125 1.265625 -0.0507812 1.234375 -0.09375 C 1.171875 -0.164062 1.097656 -0.195312 1.015625 -0.1875 C 0.941406 -0.1875 0.863281 -0.15625 0.78125 -0.09375 C 0.707031 -0.03125 0.660156 0.0351562 0.640625 0.109375 C 0.628906 0.191406 0.65625 0.269531 0.71875 0.34375 C 0.75 0.382812 0.785156 0.410156 0.828125 0.421875 C 0.878906 0.429688 0.929688 0.429688 0.984375 0.421875 L 1.25 0.734375 C 1.09375 0.804688 0.945312 0.828125 0.8125 0.796875 C 0.675781 0.773438 0.554688 0.695312 0.453125 0.5625 C 0.359375 0.457031 0.300781 0.347656 0.28125 0.234375 C 0.269531 0.128906 0.285156 0.0234375 0.328125 -0.078125 C 0.378906 -0.191406 0.453125 -0.289062 0.546875 -0.375 Z M 0.546875 -0.375 "/></g></g></g><g fill="#000000" fill-opacity="1"><g transform="translate(22.665574, 8.702302)"><g><path d="M 0.484375 0.234375 L 0.71875 0.59375 L 0.484375 0.75 L 0.0625 0.09375 L 1.171875 -0.640625 L 1.359375 -0.34375 Z M 0.484375 0.234375 "/></g></g></g><g fill="#000000" fill-opacity="1"><g transform="translate(23.148029, 9.409919)"><g><path d="M 1.40625 -0.171875 L 0.71875 0.171875 C 0.65625 0.203125 0.609375 0.238281 0.578125 0.28125 C 0.554688 0.332031 0.5625 0.390625 0.59375 0.453125 C 0.625 0.515625 0.664062 0.550781 0.71875 0.5625 C 0.769531 0.570312 0.828125 0.5625 0.890625 0.53125 L 1.578125 0.1875 L 1.75 0.5 L 1.0625 0.84375 C 0.945312 0.894531 0.835938 0.921875 0.734375 0.921875 C 0.628906 0.921875 0.535156 0.882812 0.453125 0.8125 C 0.378906 0.75 0.320312 0.671875 0.28125 0.578125 C 0.226562 0.492188 0.203125 0.40625 0.203125 0.3125 C 0.203125 0.21875 0.226562 0.125 0.28125 0.03125 C 0.34375 -0.0507812 0.429688 -0.117188 0.546875 -0.171875 L 1.234375 -0.515625 Z M 1.40625 -0.171875 "/></g></g></g><g fill="#000000" fill-opacity="1"><g transform="translate(23.718775, 10.532828)"><g><path d="M 0.953125 0.6875 C 0.972656 0.75 0.957031 0.8125 0.90625 0.875 C 0.863281 0.945312 0.8125 0.992188 0.75 1.015625 C 0.632812 1.054688 0.535156 1.046875 0.453125 0.984375 C 0.367188 0.929688 0.300781 0.84375 0.25 0.71875 L 0.03125 0.109375 L 1.28125 -0.328125 L 1.5 0.25 C 1.539062 0.382812 1.546875 0.5 1.515625 0.59375 C 1.484375 0.6875 1.414062 0.75 1.3125 0.78125 C 1.238281 0.8125 1.164062 0.8125 1.09375 0.78125 C 1.03125 0.757812 0.984375 0.726562 0.953125 0.6875 Z M 0.90625 0.171875 L 0.96875 0.359375 C 1 0.441406 1.050781 0.472656 1.125 0.453125 C 1.195312 0.421875 1.21875 0.363281 1.1875 0.28125 L 1.125 0.09375 Z M 0.515625 0.546875 C 0.546875 0.640625 0.597656 0.671875 0.671875 0.640625 C 0.703125 0.628906 0.722656 0.609375 0.734375 0.578125 C 0.742188 0.546875 0.742188 0.507812 0.734375 0.46875 L 0.65625 0.265625 L 0.4375 0.34375 Z M 0.515625 0.546875 "/></g></g></g><g fill="#000000" fill-opacity="1"><g transform="translate(4.925758, 18.041786)"><g><path d="M 1.625 0.5625 L 1.34375 0.671875 L 1.234375 0.34375 L 0.265625 0.703125 L 0.125 0.34375 L 1.09375 -0.015625 L 0.984375 -0.328125 L 1.265625 -0.4375 Z M 1.625 0.5625 "/></g></g></g><g fill="#000000" fill-opacity="1"><g transform="translate(5.340927, 19.171487)"><g><path d="M 0.328125 0.65625 C 0.265625 0.539062 0.234375 0.421875 0.234375 0.296875 C 0.242188 0.179688 0.28125 0.078125 0.34375 -0.015625 C 0.414062 -0.109375 0.507812 -0.1875 0.625 -0.25 C 0.738281 -0.3125 0.851562 -0.34375 0.96875 -0.34375 C 1.082031 -0.34375 1.1875 -0.304688 1.28125 -0.234375 C 1.382812 -0.171875 1.46875 -0.0820312 1.53125 0.03125 C 1.59375 0.132812 1.617188 0.242188 1.609375 0.359375 C 1.609375 0.484375 1.578125 0.59375 1.515625 0.6875 C 1.460938 0.789062 1.378906 0.875 1.265625 0.9375 C 1.148438 1 1.03125 1.023438 0.90625 1.015625 C 0.78125 1.015625 0.664062 0.976562 0.5625 0.90625 C 0.46875 0.84375 0.390625 0.757812 0.328125 0.65625 Z M 0.640625 0.5 C 0.679688 0.570312 0.738281 0.617188 0.8125 0.640625 C 0.894531 0.671875 0.984375 0.660156 1.078125 0.609375 C 1.171875 0.554688 1.226562 0.488281 1.25 0.40625 C 1.28125 0.332031 1.273438 0.257812 1.234375 0.1875 C 1.191406 0.101562 1.128906 0.0507812 1.046875 0.03125 C 0.972656 0.0078125 0.890625 0.0234375 0.796875 0.078125 C 0.703125 0.128906 0.640625 0.191406 0.609375 0.265625 C 0.585938 0.335938 0.597656 0.414062 0.640625 0.5 Z M 0.640625 0.5 "/></g></g></g><g fill="#000000" fill-opacity="1"><g transform="translate(6.075179, 20.54002)"><g><path d="M 1.28125 0.234375 C 1.289062 0.210938 1.296875 0.175781 1.296875 0.125 C 1.296875 0.0820312 1.28125 0.0390625 1.25 0 C 1.1875 -0.0703125 1.113281 -0.109375 1.03125 -0.109375 C 0.957031 -0.117188 0.878906 -0.09375 0.796875 -0.03125 C 0.710938 0.03125 0.660156 0.0976562 0.640625 0.171875 C 0.617188 0.253906 0.640625 0.34375 0.703125 0.4375 C 0.773438 0.53125 0.878906 0.570312 1.015625 0.5625 L 0.78125 0.265625 L 1 0.109375 L 1.40625 0.65625 L 1.109375 0.859375 C 1.046875 0.878906 0.972656 0.882812 0.890625 0.875 C 0.816406 0.875 0.734375 0.847656 0.640625 0.796875 C 0.554688 0.753906 0.484375 0.691406 0.421875 0.609375 C 0.335938 0.492188 0.289062 0.378906 0.28125 0.265625 C 0.269531 0.148438 0.285156 0.0390625 0.328125 -0.0625 C 0.378906 -0.175781 0.457031 -0.269531 0.5625 -0.34375 C 0.664062 -0.414062 0.78125 -0.457031 0.90625 -0.46875 C 1.03125 -0.488281 1.140625 -0.472656 1.234375 -0.421875 C 1.335938 -0.378906 1.429688 -0.300781 1.515625 -0.1875 C 1.609375 -0.0507812 1.65625 0.0820312 1.65625 0.21875 C 1.664062 0.351562 1.617188 0.460938 1.515625 0.546875 Z M 1.28125 0.234375 "/></g></g></g><g fill="#000000" fill-opacity="1"><g transform="translate(6.963423, 21.727934)"><g><path d="M 1.078125 -0.359375 L 0.921875 -0.21875 L 1.203125 0.09375 L 1 0.296875 L 0.71875 -0.015625 L 0.546875 0.140625 L 0.875 0.5 L 0.65625 0.703125 L 0.078125 0.078125 L 1.046875 -0.828125 L 1.625 -0.203125 L 1.40625 0 Z M 1.078125 -0.359375 "/></g></g></g><g fill="#000000" fill-opacity="1"><g transform="translate(7.705942, 22.519096)"><g><path d="M 1.6875 -0.28125 L 1.5 -0.0625 L 1.234375 -0.296875 L 0.5625 0.484375 L 0.28125 0.25 L 0.953125 -0.53125 L 0.703125 -0.765625 L 0.890625 -0.984375 Z M 1.6875 -0.28125 "/></g></g></g><g fill="#000000" fill-opacity="1"><g transform="translate(8.61406, 23.304824)"><g><path d="M 1.796875 -0.40625 L 1.0625 0.703125 L 0.765625 0.515625 L 1.0625 0.078125 L 0.6875 -0.171875 L 0.390625 0.265625 L 0.09375 0.0625 L 0.828125 -1.046875 L 1.125 -0.84375 L 0.84375 -0.421875 L 1.21875 -0.171875 L 1.5 -0.59375 Z M 1.796875 -0.40625 "/></g></g></g><g fill="#000000" fill-opacity="1"><g transform="translate(9.836827, 24.095867)"><g><path d="M 0.890625 -0.71875 L 0.78125 -0.53125 L 1.15625 -0.328125 L 1.03125 -0.0625 L 0.65625 -0.265625 L 0.5625 -0.0625 L 1 0.15625 L 0.859375 0.421875 L 0.09375 0.046875 L 0.6875 -1.140625 L 1.453125 -0.765625 L 1.328125 -0.5 Z M 0.890625 -0.71875 "/></g></g></g><g fill="#000000" fill-opacity="1"><g transform="translate(10.80911, 24.585029)"><g><path d="M 0.734375 0.265625 L 0.65625 -0.28125 L 0.609375 -0.296875 L 0.4375 0.15625 L 0.109375 0.03125 L 0.5625 -1.21875 L 1.09375 -1.015625 C 1.195312 -0.972656 1.273438 -0.921875 1.328125 -0.859375 C 1.390625 -0.804688 1.421875 -0.738281 1.421875 -0.65625 C 1.429688 -0.582031 1.425781 -0.507812 1.40625 -0.4375 C 1.375 -0.351562 1.320312 -0.285156 1.25 -0.234375 C 1.1875 -0.191406 1.109375 -0.171875 1.015625 -0.171875 L 1.109375 0.40625 Z M 0.6875 -0.53125 L 0.859375 -0.46875 C 0.910156 -0.445312 0.953125 -0.441406 0.984375 -0.453125 C 1.015625 -0.472656 1.035156 -0.503906 1.046875 -0.546875 C 1.066406 -0.578125 1.066406 -0.609375 1.046875 -0.640625 C 1.035156 -0.679688 1.003906 -0.710938 0.953125 -0.734375 L 0.78125 -0.796875 Z M 0.6875 -0.53125 "/></g></g></g><g fill="#000000" fill-opacity="1"><g transform="translate(12.016743, 25.007103)"><g/></g></g><g fill="#000000" fill-opacity="1"><g transform="translate(12.416269, 25.164871)"><g><path d="M 2.15625 -1.015625 L 1.625 0.25 L 1.171875 0.1875 L 1.125 -0.640625 L 0.8125 0.125 L 0.375 0.0625 L 0.25 -1.3125 L 0.65625 -1.25 L 0.671875 -0.328125 L 1 -1.1875 L 1.40625 -1.125 L 1.46875 -0.203125 L 1.75 -1.078125 Z M 2.15625 -1.015625 "/></g></g></g><g fill="#000000" fill-opacity="1"><g transform="translate(14.493204, 25.441842)"><g><path d="M 0.46875 -1.03125 L 0.46875 -0.8125 L 0.890625 -0.8125 L 0.890625 -0.53125 L 0.46875 -0.53125 L 0.46875 -0.296875 L 0.953125 -0.296875 L 0.953125 0 L 0.109375 0 L 0.109375 -1.328125 L 0.953125 -1.328125 L 0.953125 -1.03125 Z M 0.46875 -1.03125 "/></g></g></g><g fill="#000000" fill-opacity="1"><g transform="translate(15.555496, 25.431099)"><g/></g></g><g fill="#000000" fill-opacity="1"><g transform="translate(15.963842, 25.424838)"><g><path d="M 0.890625 -0.359375 L 0.4375 -0.296875 L 0.40625 -0.0625 L 0.015625 0 L 0.296875 -1.390625 L 0.703125 -1.453125 L 1.390625 -0.21875 L 1 -0.15625 Z M 0.75 -0.625 L 0.546875 -1.015625 L 0.484375 -0.59375 Z M 0.75 -0.625 "/></g></g></g><g fill="#000000" fill-opacity="1"><g transform="translate(17.430172, 25.184351)"><g><path d="M 0.75 -0.21875 L 0.359375 -0.609375 L 0.3125 -0.609375 L 0.453125 -0.140625 L 0.109375 -0.03125 L -0.265625 -1.3125 L 0.28125 -1.46875 C 0.382812 -1.5 0.472656 -1.503906 0.546875 -1.484375 C 0.628906 -1.472656 0.695312 -1.4375 0.75 -1.375 C 0.8125 -1.320312 0.851562 -1.257812 0.875 -1.1875 C 0.894531 -1.101562 0.890625 -1.023438 0.859375 -0.953125 C 0.835938 -0.878906 0.789062 -0.8125 0.71875 -0.75 L 1.140625 -0.34375 Z M 0.25 -0.84375 L 0.421875 -0.890625 C 0.472656 -0.898438 0.503906 -0.921875 0.515625 -0.953125 C 0.523438 -0.984375 0.523438 -1.019531 0.515625 -1.0625 C 0.503906 -1.101562 0.484375 -1.128906 0.453125 -1.140625 C 0.429688 -1.160156 0.394531 -1.164062 0.34375 -1.15625 L 0.171875 -1.109375 Z M 0.25 -0.84375 "/></g></g></g><g fill="#000000" fill-opacity="1"><g transform="translate(18.673023, 24.806975)"><g><path d="M 0.03125 -1.140625 L 0.125 -0.9375 L 0.5 -1.09375 L 0.609375 -0.828125 L 0.234375 -0.671875 L 0.328125 -0.453125 L 0.765625 -0.640625 L 0.875 -0.375 L 0.09375 -0.046875 L -0.421875 -1.265625 L 0.359375 -1.59375 L 0.46875 -1.328125 Z M 0.03125 -1.140625 "/></g></g></g><g fill="#000000" fill-opacity="1"><g transform="translate(19.646355, 24.381295)"><g/></g></g><g fill="#000000" fill-opacity="1"><g transform="translate(20.009391, 24.21248)"><g><path d="M 0.53125 -0.296875 C 0.40625 -0.210938 0.273438 -0.175781 0.140625 -0.1875 C 0.015625 -0.207031 -0.0820312 -0.269531 -0.15625 -0.375 L 0.1875 -0.578125 C 0.21875 -0.554688 0.242188 -0.539062 0.265625 -0.53125 C 0.296875 -0.519531 0.328125 -0.523438 0.359375 -0.546875 C 0.390625 -0.554688 0.40625 -0.570312 0.40625 -0.59375 C 0.414062 -0.625 0.414062 -0.65625 0.40625 -0.6875 C 0.375 -0.71875 0.335938 -0.734375 0.296875 -0.734375 C 0.253906 -0.734375 0.195312 -0.722656 0.125 -0.703125 C 0.0390625 -0.679688 -0.03125 -0.664062 -0.09375 -0.65625 C -0.15625 -0.65625 -0.21875 -0.664062 -0.28125 -0.6875 C -0.34375 -0.707031 -0.394531 -0.753906 -0.4375 -0.828125 C -0.476562 -0.898438 -0.492188 -0.972656 -0.484375 -1.046875 C -0.472656 -1.128906 -0.445312 -1.203125 -0.40625 -1.265625 C -0.363281 -1.335938 -0.300781 -1.398438 -0.21875 -1.453125 C -0.0820312 -1.523438 0.0390625 -1.554688 0.15625 -1.546875 C 0.28125 -1.535156 0.375 -1.472656 0.4375 -1.359375 L 0.109375 -1.15625 C 0.078125 -1.175781 0.046875 -1.1875 0.015625 -1.1875 C -0.015625 -1.195312 -0.0390625 -1.195312 -0.0625 -1.1875 C -0.09375 -1.164062 -0.109375 -1.144531 -0.109375 -1.125 C -0.109375 -1.113281 -0.101562 -1.09375 -0.09375 -1.0625 C -0.0820312 -1.039062 -0.0664062 -1.023438 -0.046875 -1.015625 C -0.0234375 -1.003906 0 -1 0.03125 -1 C 0.0703125 -1.007812 0.125 -1.023438 0.1875 -1.046875 C 0.257812 -1.054688 0.328125 -1.066406 0.390625 -1.078125 C 0.460938 -1.085938 0.523438 -1.078125 0.578125 -1.046875 C 0.640625 -1.015625 0.691406 -0.96875 0.734375 -0.90625 C 0.773438 -0.832031 0.796875 -0.757812 0.796875 -0.6875 C 0.796875 -0.625 0.769531 -0.554688 0.71875 -0.484375 C 0.675781 -0.410156 0.613281 -0.347656 0.53125 -0.296875 Z M 0.53125 -0.296875 "/></g></g></g><g fill="#000000" fill-opacity="1"><g transform="translate(21.053287, 23.574632)"><g><path d="M 0.046875 -1.71875 L 0.234375 -1.484375 L -0.03125 -1.265625 L 0.59375 -0.453125 L 0.296875 -0.234375 L -0.328125 -1.046875 L -0.59375 -0.828125 L -0.78125 -1.0625 Z M 0.046875 -1.71875 "/></g></g></g><g fill="#000000" fill-opacity="1"><g transform="translate(21.99824, 22.841521)"><g><path d="M 0.5625 -0.546875 L 0.03125 -0.703125 L -0.015625 -0.671875 L 0.328125 -0.328125 L 0.078125 -0.078125 L -0.859375 -1.03125 L -0.453125 -1.4375 C -0.378906 -1.507812 -0.300781 -1.554688 -0.21875 -1.578125 C -0.144531 -1.609375 -0.0703125 -1.609375 0 -1.578125 C 0.0703125 -1.554688 0.140625 -1.519531 0.203125 -1.46875 C 0.265625 -1.40625 0.300781 -1.332031 0.3125 -1.25 C 0.332031 -1.164062 0.320312 -1.082031 0.28125 -1 L 0.84375 -0.828125 Z M -0.1875 -0.859375 L -0.046875 -0.984375 C -0.00390625 -1.023438 0.0078125 -1.0625 0 -1.09375 C 0 -1.125 -0.015625 -1.15625 -0.046875 -1.1875 C -0.078125 -1.21875 -0.109375 -1.234375 -0.140625 -1.234375 C -0.171875 -1.234375 -0.207031 -1.210938 -0.25 -1.171875 L -0.390625 -1.046875 Z M -0.1875 -0.859375 "/></g></g></g><g fill="#000000" fill-opacity="1"><g transform="translate(22.936233, 21.922787)"><g><path d="M 0.46875 -0.5625 C 0.382812 -0.46875 0.285156 -0.394531 0.171875 -0.34375 C 0.0664062 -0.300781 -0.0390625 -0.285156 -0.15625 -0.296875 C -0.28125 -0.316406 -0.394531 -0.367188 -0.5 -0.453125 C -0.59375 -0.535156 -0.660156 -0.628906 -0.703125 -0.734375 C -0.753906 -0.847656 -0.769531 -0.960938 -0.75 -1.078125 C -0.738281 -1.203125 -0.691406 -1.3125 -0.609375 -1.40625 C -0.535156 -1.507812 -0.441406 -1.582031 -0.328125 -1.625 C -0.222656 -1.664062 -0.109375 -1.679688 0.015625 -1.671875 C 0.140625 -1.660156 0.25 -1.613281 0.34375 -1.53125 C 0.445312 -1.445312 0.519531 -1.347656 0.5625 -1.234375 C 0.601562 -1.117188 0.613281 -1.003906 0.59375 -0.890625 C 0.582031 -0.773438 0.539062 -0.664062 0.46875 -0.5625 Z M 0.1875 -0.78125 C 0.238281 -0.851562 0.257812 -0.929688 0.25 -1.015625 C 0.238281 -1.097656 0.191406 -1.171875 0.109375 -1.234375 C 0.0234375 -1.296875 -0.0546875 -1.320312 -0.140625 -1.3125 C -0.222656 -1.300781 -0.289062 -1.257812 -0.34375 -1.1875 C -0.40625 -1.113281 -0.425781 -1.035156 -0.40625 -0.953125 C -0.394531 -0.878906 -0.347656 -0.8125 -0.265625 -0.75 C -0.179688 -0.6875 -0.0976562 -0.65625 -0.015625 -0.65625 C 0.0546875 -0.664062 0.125 -0.707031 0.1875 -0.78125 Z M 0.1875 -0.78125 "/></g></g></g><g fill="#000000" fill-opacity="1"><g transform="translate(23.881233, 20.689776)"><g><path d="M 0.65625 -1.15625 L 0.46875 -0.84375 L -0.40625 -0.765625 L 0.234375 -0.40625 L 0.046875 -0.09375 L -1.109375 -0.75 L -0.921875 -1.0625 L -0.03125 -1.125 L -0.6875 -1.5 L -0.5 -1.8125 Z M 0.65625 -1.15625 "/></g></g></g><g fill="#000000" fill-opacity="1"><g transform="translate(24.61817, 19.3707)"><g><path d="M -0.484375 -1.21875 C -0.523438 -1.207031 -0.5625 -1.1875 -0.59375 -1.15625 C -0.625 -1.125 -0.648438 -1.085938 -0.671875 -1.046875 C -0.703125 -0.953125 -0.695312 -0.867188 -0.65625 -0.796875 C -0.613281 -0.734375 -0.546875 -0.679688 -0.453125 -0.640625 C -0.359375 -0.609375 -0.269531 -0.601562 -0.1875 -0.625 C -0.113281 -0.65625 -0.0546875 -0.722656 -0.015625 -0.828125 C 0.0234375 -0.941406 0.00390625 -1.046875 -0.078125 -1.140625 L -0.203125 -0.796875 L -0.453125 -0.890625 L -0.203125 -1.53125 L 0.140625 -1.40625 C 0.179688 -1.351562 0.21875 -1.289062 0.25 -1.21875 C 0.289062 -1.15625 0.316406 -1.070312 0.328125 -0.96875 C 0.335938 -0.875 0.320312 -0.78125 0.28125 -0.6875 C 0.226562 -0.5625 0.15625 -0.460938 0.0625 -0.390625 C -0.0195312 -0.316406 -0.117188 -0.269531 -0.234375 -0.25 C -0.359375 -0.238281 -0.476562 -0.253906 -0.59375 -0.296875 C -0.71875 -0.347656 -0.816406 -0.414062 -0.890625 -0.5 C -0.972656 -0.59375 -1.019531 -0.695312 -1.03125 -0.8125 C -1.039062 -0.925781 -1.019531 -1.046875 -0.96875 -1.171875 C -0.90625 -1.328125 -0.816406 -1.4375 -0.703125 -1.5 C -0.585938 -1.570312 -0.46875 -1.597656 -0.34375 -1.578125 Z M -0.484375 -1.21875 "/></g></g></g><g fill="#ffffff" fill-opacity="1"><g transform="translate(4.095098, 14.226032)"><g><path d="M 0.109375 0 L 0.109375 -0.921875 L 0.6875 -0.921875 L 0.6875 -0.78125 L 0.265625 -0.78125 L 0.265625 -0.546875 L 0.625 -0.546875 L 0.625 -0.40625 L 0.265625 -0.40625 L 0.265625 -0.140625 L 0.6875 -0.140625 L 0.6875 0 Z M 0.109375 0 "/></g></g></g><g fill="#ffffff" fill-opacity="1"><g transform="translate(4.856604, 14.226032)"><g><path d="M 0.75 -0.265625 C 0.75 -0.210938 0.738281 -0.164062 0.71875 -0.125 C 0.695312 -0.09375 0.671875 -0.0664062 0.640625 -0.046875 C 0.609375 -0.0234375 0.570312 -0.0078125 0.53125 0 C 0.488281 0.0078125 0.445312 0.015625 0.40625 0.015625 C 0.351562 0.015625 0.304688 0.0078125 0.265625 0 C 0.234375 -0.0078125 0.203125 -0.0195312 0.171875 -0.03125 C 0.148438 -0.0507812 0.128906 -0.0703125 0.109375 -0.09375 C 0.0859375 -0.113281 0.0664062 -0.132812 0.046875 -0.15625 L 0.171875 -0.25 C 0.179688 -0.226562 0.191406 -0.207031 0.203125 -0.1875 C 0.222656 -0.175781 0.238281 -0.164062 0.25 -0.15625 C 0.269531 -0.144531 0.289062 -0.132812 0.3125 -0.125 C 0.34375 -0.125 0.375 -0.125 0.40625 -0.125 C 0.425781 -0.125 0.445312 -0.125 0.46875 -0.125 C 0.488281 -0.125 0.507812 -0.128906 0.53125 -0.140625 C 0.550781 -0.148438 0.566406 -0.164062 0.578125 -0.1875 C 0.585938 -0.207031 0.59375 -0.226562 0.59375 -0.25 C 0.59375 -0.269531 0.585938 -0.285156 0.578125 -0.296875 C 0.566406 -0.316406 0.550781 -0.332031 0.53125 -0.34375 C 0.519531 -0.351562 0.5 -0.359375 0.46875 -0.359375 C 0.445312 -0.367188 0.425781 -0.378906 0.40625 -0.390625 C 0.351562 -0.398438 0.304688 -0.410156 0.265625 -0.421875 C 0.234375 -0.441406 0.203125 -0.457031 0.171875 -0.46875 C 0.140625 -0.488281 0.113281 -0.515625 0.09375 -0.546875 C 0.0820312 -0.578125 0.078125 -0.617188 0.078125 -0.671875 C 0.078125 -0.710938 0.0820312 -0.75 0.09375 -0.78125 C 0.101562 -0.8125 0.125 -0.835938 0.15625 -0.859375 C 0.1875 -0.890625 0.21875 -0.910156 0.25 -0.921875 C 0.289062 -0.929688 0.34375 -0.9375 0.40625 -0.9375 C 0.4375 -0.9375 0.46875 -0.929688 0.5 -0.921875 C 0.539062 -0.921875 0.570312 -0.910156 0.59375 -0.890625 C 0.625 -0.878906 0.648438 -0.863281 0.671875 -0.84375 C 0.691406 -0.820312 0.707031 -0.796875 0.71875 -0.765625 L 0.609375 -0.6875 C 0.578125 -0.71875 0.546875 -0.742188 0.515625 -0.765625 C 0.484375 -0.785156 0.441406 -0.796875 0.390625 -0.796875 C 0.347656 -0.796875 0.3125 -0.785156 0.28125 -0.765625 C 0.25 -0.742188 0.234375 -0.710938 0.234375 -0.671875 C 0.234375 -0.660156 0.234375 -0.644531 0.234375 -0.625 C 0.242188 -0.613281 0.257812 -0.601562 0.28125 -0.59375 C 0.300781 -0.582031 0.320312 -0.570312 0.34375 -0.5625 C 0.375 -0.5625 0.40625 -0.554688 0.4375 -0.546875 C 0.46875 -0.535156 0.492188 -0.523438 0.515625 -0.515625 C 0.546875 -0.515625 0.570312 -0.507812 0.59375 -0.5 C 0.613281 -0.488281 0.632812 -0.472656 0.65625 -0.453125 C 0.675781 -0.441406 0.691406 -0.425781 0.703125 -0.40625 C 0.710938 -0.394531 0.722656 -0.375 0.734375 -0.34375 C 0.742188 -0.320312 0.75 -0.296875 0.75 -0.265625 Z M 0.75 -0.265625 "/></g></g></g><g fill="#ffffff" fill-opacity="1"><g transform="translate(4.056514, 15.751219)"><g><path d="M 0.46875 -0.78125 L 0.46875 0 L 0.3125 0 L 0.3125 -0.78125 L 0.03125 -0.78125 L 0.03125 -0.921875 L 0.765625 -0.921875 L 0.765625 -0.78125 Z M 0.46875 -0.78125 "/></g></g></g><g fill="#ffffff" fill-opacity="1"><g transform="translate(4.846469, 15.751219)"><g><path d="M 0.796875 -0.453125 C 0.796875 -0.367188 0.785156 -0.296875 0.765625 -0.234375 C 0.742188 -0.171875 0.710938 -0.125 0.671875 -0.09375 C 0.640625 -0.0625 0.597656 -0.0351562 0.546875 -0.015625 C 0.492188 -0.00390625 0.429688 0 0.359375 0 L 0.109375 0 L 0.109375 -0.921875 L 0.359375 -0.921875 C 0.429688 -0.921875 0.492188 -0.910156 0.546875 -0.890625 C 0.597656 -0.878906 0.640625 -0.851562 0.671875 -0.8125 C 0.710938 -0.78125 0.742188 -0.734375 0.765625 -0.671875 C 0.785156 -0.617188 0.796875 -0.546875 0.796875 -0.453125 Z M 0.640625 -0.453125 C 0.640625 -0.515625 0.632812 -0.566406 0.625 -0.609375 C 0.613281 -0.648438 0.59375 -0.679688 0.5625 -0.703125 C 0.539062 -0.734375 0.507812 -0.753906 0.46875 -0.765625 C 0.4375 -0.773438 0.394531 -0.78125 0.34375 -0.78125 L 0.25 -0.78125 L 0.25 -0.140625 L 0.34375 -0.140625 C 0.394531 -0.140625 0.4375 -0.144531 0.46875 -0.15625 C 0.507812 -0.164062 0.539062 -0.179688 0.5625 -0.203125 C 0.59375 -0.234375 0.613281 -0.269531 0.625 -0.3125 C 0.632812 -0.351562 0.640625 -0.398438 0.640625 -0.453125 Z M 0.640625 -0.453125 "/></g></g></g><g fill="#ffffff" fill-opacity="1"><g transform="translate(24.299652, 14.226032)"><g><path d="M 0.078125 0 L 0.078125 -0.140625 C 0.109375 -0.171875 0.140625 -0.203125 0.171875 -0.234375 C 0.210938 -0.265625 0.25 -0.296875 0.28125 -0.328125 C 0.320312 -0.359375 0.351562 -0.382812 0.375 -0.40625 C 0.40625 -0.4375 0.429688 -0.46875 0.453125 -0.5 C 0.460938 -0.507812 0.472656 -0.519531 0.484375 -0.53125 C 0.492188 -0.550781 0.5 -0.566406 0.5 -0.578125 C 0.507812 -0.597656 0.515625 -0.613281 0.515625 -0.625 C 0.523438 -0.644531 0.53125 -0.660156 0.53125 -0.671875 C 0.53125 -0.691406 0.523438 -0.707031 0.515625 -0.71875 C 0.503906 -0.738281 0.492188 -0.753906 0.484375 -0.765625 C 0.472656 -0.773438 0.457031 -0.78125 0.4375 -0.78125 C 0.425781 -0.789062 0.410156 -0.796875 0.390625 -0.796875 C 0.359375 -0.796875 0.332031 -0.789062 0.3125 -0.78125 C 0.300781 -0.78125 0.285156 -0.773438 0.265625 -0.765625 C 0.253906 -0.753906 0.242188 -0.742188 0.234375 -0.734375 C 0.222656 -0.722656 0.210938 -0.710938 0.203125 -0.703125 L 0.078125 -0.78125 C 0.0859375 -0.800781 0.101562 -0.820312 0.125 -0.84375 C 0.144531 -0.863281 0.164062 -0.878906 0.1875 -0.890625 C 0.21875 -0.898438 0.25 -0.910156 0.28125 -0.921875 C 0.3125 -0.929688 0.347656 -0.9375 0.390625 -0.9375 C 0.429688 -0.9375 0.46875 -0.929688 0.5 -0.921875 C 0.539062 -0.910156 0.570312 -0.894531 0.59375 -0.875 C 0.625 -0.851562 0.644531 -0.828125 0.65625 -0.796875 C 0.675781 -0.765625 0.6875 -0.726562 0.6875 -0.6875 C 0.6875 -0.65625 0.679688 -0.625 0.671875 -0.59375 C 0.671875 -0.570312 0.664062 -0.550781 0.65625 -0.53125 C 0.644531 -0.507812 0.632812 -0.488281 0.625 -0.46875 C 0.613281 -0.457031 0.601562 -0.441406 0.59375 -0.421875 C 0.570312 -0.398438 0.546875 -0.375 0.515625 -0.34375 C 0.492188 -0.320312 0.46875 -0.300781 0.4375 -0.28125 C 0.414062 -0.257812 0.390625 -0.234375 0.359375 -0.203125 C 0.328125 -0.179688 0.300781 -0.160156 0.28125 -0.140625 L 0.71875 -0.140625 L 0.71875 0 Z M 0.078125 0 "/></g></g></g><g fill="#ffffff" fill-opacity="1"><g transform="translate(25.09093, 14.226032)"><g><path d="M 0.765625 -0.453125 C 0.765625 -0.367188 0.757812 -0.296875 0.75 -0.234375 C 0.738281 -0.179688 0.71875 -0.132812 0.6875 -0.09375 C 0.65625 -0.0507812 0.617188 -0.0195312 0.578125 0 C 0.535156 0.0078125 0.484375 0.015625 0.421875 0.015625 C 0.359375 0.015625 0.304688 0.0078125 0.265625 0 C 0.222656 -0.0195312 0.1875 -0.0507812 0.15625 -0.09375 C 0.125 -0.132812 0.101562 -0.179688 0.09375 -0.234375 C 0.0820312 -0.296875 0.078125 -0.367188 0.078125 -0.453125 C 0.078125 -0.535156 0.0820312 -0.609375 0.09375 -0.671875 C 0.101562 -0.734375 0.125 -0.78125 0.15625 -0.8125 C 0.1875 -0.851562 0.222656 -0.882812 0.265625 -0.90625 C 0.304688 -0.925781 0.359375 -0.9375 0.421875 -0.9375 C 0.484375 -0.9375 0.535156 -0.925781 0.578125 -0.90625 C 0.617188 -0.882812 0.65625 -0.851562 0.6875 -0.8125 C 0.71875 -0.78125 0.738281 -0.734375 0.75 -0.671875 C 0.757812 -0.609375 0.765625 -0.535156 0.765625 -0.453125 Z M 0.609375 -0.453125 C 0.609375 -0.578125 0.59375 -0.664062 0.5625 -0.71875 C 0.53125 -0.769531 0.484375 -0.796875 0.421875 -0.796875 C 0.359375 -0.796875 0.3125 -0.769531 0.28125 -0.71875 C 0.25 -0.664062 0.234375 -0.578125 0.234375 -0.453125 C 0.234375 -0.335938 0.25 -0.25 0.28125 -0.1875 C 0.3125 -0.132812 0.359375 -0.109375 0.421875 -0.109375 C 0.484375 -0.109375 0.53125 -0.132812 0.5625 -0.1875 C 0.59375 -0.25 0.609375 -0.335938 0.609375 -0.453125 Z M 0.609375 -0.453125 "/></g></g></g><g fill="#ffffff" fill-opacity="1"><g transform="translate(24.299652, 15.751219)"><g><path d="M 0.078125 0 L 0.078125 -0.140625 C 0.109375 -0.171875 0.140625 -0.203125 0.171875 -0.234375 C 0.210938 -0.265625 0.25 -0.296875 0.28125 -0.328125 C 0.320312 -0.359375 0.351562 -0.382812 0.375 -0.40625 C 0.40625 -0.4375 0.429688 -0.46875 0.453125 -0.5 C 0.460938 -0.507812 0.472656 -0.519531 0.484375 -0.53125 C 0.492188 -0.550781 0.5 -0.566406 0.5 -0.578125 C 0.507812 -0.597656 0.515625 -0.613281 0.515625 -0.625 C 0.523438 -0.644531 0.53125 -0.660156 0.53125 -0.671875 C 0.53125 -0.691406 0.523438 -0.707031 0.515625 -0.71875 C 0.503906 -0.738281 0.492188 -0.753906 0.484375 -0.765625 C 0.472656 -0.773438 0.457031 -0.78125 0.4375 -0.78125 C 0.425781 -0.789062 0.410156 -0.796875 0.390625 -0.796875 C 0.359375 -0.796875 0.332031 -0.789062 0.3125 -0.78125 C 0.300781 -0.78125 0.285156 -0.773438 0.265625 -0.765625 C 0.253906 -0.753906 0.242188 -0.742188 0.234375 -0.734375 C 0.222656 -0.722656 0.210938 -0.710938 0.203125 -0.703125 L 0.078125 -0.78125 C 0.0859375 -0.800781 0.101562 -0.820312 0.125 -0.84375 C 0.144531 -0.863281 0.164062 -0.878906 0.1875 -0.890625 C 0.21875 -0.898438 0.25 -0.910156 0.28125 -0.921875 C 0.3125 -0.929688 0.347656 -0.9375 0.390625 -0.9375 C 0.429688 -0.9375 0.46875 -0.929688 0.5 -0.921875 C 0.539062 -0.910156 0.570312 -0.894531 0.59375 -0.875 C 0.625 -0.851562 0.644531 -0.828125 0.65625 -0.796875 C 0.675781 -0.765625 0.6875 -0.726562 0.6875 -0.6875 C 0.6875 -0.65625 0.679688 -0.625 0.671875 -0.59375 C 0.671875 -0.570312 0.664062 -0.550781 0.65625 -0.53125 C 0.644531 -0.507812 0.632812 -0.488281 0.625 -0.46875 C 0.613281 -0.457031 0.601562 -0.441406 0.59375 -0.421875 C 0.570312 -0.398438 0.546875 -0.375 0.515625 -0.34375 C 0.492188 -0.320312 0.46875 -0.300781 0.4375 -0.28125 C 0.414062 -0.257812 0.390625 -0.234375 0.359375 -0.203125 C 0.328125 -0.179688 0.300781 -0.160156 0.28125 -0.140625 L 0.71875 -0.140625 L 0.71875 0 Z M 0.078125 0 "/></g></g></g><g fill="#ffffff" fill-opacity="1"><g transform="translate(25.09093, 15.751219)"><g><path d="M 0.765625 -0.453125 C 0.765625 -0.367188 0.757812 -0.296875 0.75 -0.234375 C 0.738281 -0.179688 0.71875 -0.132812 0.6875 -0.09375 C 0.65625 -0.0507812 0.617188 -0.0195312 0.578125 0 C 0.535156 0.0078125 0.484375 0.015625 0.421875 0.015625 C 0.359375 0.015625 0.304688 0.0078125 0.265625 0 C 0.222656 -0.0195312 0.1875 -0.0507812 0.15625 -0.09375 C 0.125 -0.132812 0.101562 -0.179688 0.09375 -0.234375 C 0.0820312 -0.296875 0.078125 -0.367188 0.078125 -0.453125 C 0.078125 -0.535156 0.0820312 -0.609375 0.09375 -0.671875 C 0.101562 -0.734375 0.125 -0.78125 0.15625 -0.8125 C 0.1875 -0.851562 0.222656 -0.882812 0.265625 -0.90625 C 0.304688 -0.925781 0.359375 -0.9375 0.421875 -0.9375 C 0.484375 -0.9375 0.535156 -0.925781 0.578125 -0.90625 C 0.617188 -0.882812 0.65625 -0.851562 0.6875 -0.8125 C 0.71875 -0.78125 0.738281 -0.734375 0.75 -0.671875 C 0.757812 -0.609375 0.765625 -0.535156 0.765625 -0.453125 Z M 0.609375 -0.453125 C 0.609375 -0.578125 0.59375 -0.664062 0.5625 -0.71875 C 0.53125 -0.769531 0.484375 -0.796875 0.421875 -0.796875 C 0.359375 -0.796875 0.3125 -0.769531 0.28125 -0.71875 C 0.25 -0.664062 0.234375 -0.578125 0.234375 -0.453125 C 0.234375 -0.335938 0.25 -0.25 0.28125 -0.1875 C 0.3125 -0.132812 0.359375 -0.109375 0.421875 -0.109375 C 0.484375 -0.109375 0.53125 -0.132812 0.5625 -0.1875 C 0.59375 -0.25 0.609375 -0.335938 0.609375 -0.453125 Z M 0.609375 -0.453125 "/></g></g></g></svg>