<svg xmlns="http://www.w3.org/2000/svg" xmlns:xlink="http://www.w3.org/1999/xlink" width="40" zoomAndPan="magnify" viewBox="0 0 30 30.000001" height="40" preserveAspectRatio="xMidYMid meet" version="1.0"><defs><g/><clipPath id="e4dbba4333"><path d="M 0.484375 0 L 29.515625 0 L 29.515625 29.03125 L 0.484375 29.03125 Z M 0.484375 0 " clip-rule="nonzero"/></clipPath><clipPath id="56e488ef38"><path d="M 0.484375 0 L 29.515625 0 L 29.515625 29.03125 L 0.484375 29.03125 Z M 0.484375 0 " clip-rule="nonzero"/></clipPath><clipPath id="972bd60ee8"><path d="M 15 0 C 6.984375 0 0.484375 6.5 0.484375 14.515625 C 0.484375 22.53125 6.984375 29.03125 15 29.03125 C 23.015625 29.03125 29.515625 22.53125 29.515625 14.515625 C 29.515625 6.5 23.015625 0 15 0 Z M 15 0 " clip-rule="nonzero"/></clipPath><clipPath id="5f4a6b3ddb"><path d="M 14 0.734375 L 28.867188 0.734375 L 28.867188 22 L 14 22 Z M 14 0.734375 " clip-rule="nonzero"/></clipPath><clipPath id="74c258ad0f"><path d="M 1.285156 0.734375 L 15 0.734375 L 15 22 L 1.285156 22 Z M 1.285156 0.734375 " clip-rule="nonzero"/></clipPath><clipPath id="0f85fffacd"><path d="M 3 16 L 27 16 L 27 28.226562 L 3 28.226562 Z M 3 16 " clip-rule="nonzero"/></clipPath><clipPath id="d517e38bd6"><path d="M 6.222656 5.738281 L 23.777344 5.738281 L 23.777344 23.292969 L 6.222656 23.292969 Z M 6.222656 5.738281 " clip-rule="nonzero"/></clipPath><clipPath id="3330f68d67"><path d="M 15 5.738281 C 10.152344 5.738281 6.222656 9.667969 6.222656 14.515625 C 6.222656 19.363281 10.152344 23.292969 15 23.292969 C 19.847656 23.292969 23.777344 19.363281 23.777344 14.515625 C 23.777344 9.667969 19.847656 5.738281 15 5.738281 Z M 15 5.738281 " clip-rule="nonzero"/></clipPath><clipPath id="586c0daac3"><path d="M 6.636719 6.152344 L 23.363281 6.152344 L 23.363281 22.878906 L 6.636719 22.878906 Z M 6.636719 6.152344 " clip-rule="nonzero"/></clipPath><clipPath id="e8949e172c"><path d="M 15 6.152344 C 10.382812 6.152344 6.636719 9.898438 6.636719 14.515625 C 6.636719 19.132812 10.382812 22.878906 15 22.878906 C 19.617188 22.878906 23.363281 19.132812 23.363281 14.515625 C 23.363281 9.898438 19.617188 6.152344 15 6.152344 Z M 15 6.152344 " clip-rule="nonzero"/></clipPath><clipPath id="e9ab197bfe"><path d="M 9.4375 8.613281 L 20.324219 8.613281 L 20.324219 21.679688 L 9.4375 21.679688 Z M 9.4375 8.613281 " clip-rule="nonzero"/></clipPath></defs><g clip-path="url(#e4dbba4333)"><path fill="#ffffff" d="M 0.484375 0 L 29.515625 0 L 29.515625 29.03125 L 0.484375 29.03125 Z M 0.484375 0 " fill-opacity="1" fill-rule="nonzero"/><path fill="#ffffff" d="M 0.484375 0 L 29.515625 0 L 29.515625 29.03125 L 0.484375 29.03125 Z M 0.484375 0 " fill-opacity="1" fill-rule="nonzero"/></g><g clip-path="url(#56e488ef38)"><g clip-path="url(#972bd60ee8)"><path fill="#ffffff" d="M 0.484375 0 L 29.515625 0 L 29.515625 29.03125 L 0.484375 29.03125 Z M 0.484375 0 " fill-opacity="1" fill-rule="nonzero"/></g></g><g clip-path="url(#5f4a6b3ddb)"><path fill="#960013" d="M 26.851562 21.492188 L 19.082031 16.914062 C 19.144531 16.808594 19.203125 16.699219 19.257812 16.585938 C 19.574219 15.953125 19.753906 15.238281 19.753906 14.480469 C 19.753906 11.871094 17.640625 9.753906 15.03125 9.753906 C 15.023438 9.753906 15.015625 9.757812 15.011719 9.757812 C 14.996094 9.757812 14.984375 9.757812 14.972656 9.757812 L 14.972656 0.738281 C 14.984375 0.738281 14.996094 0.738281 15.011719 0.738281 C 15.015625 0.738281 15.023438 0.734375 15.03125 0.734375 C 22.621094 0.734375 28.773438 6.890625 28.773438 14.480469 C 28.773438 16.675781 28.261719 18.746094 27.347656 20.585938 C 27.191406 20.894531 27.027344 21.199219 26.851562 21.492188 Z M 26.851562 21.492188 " fill-opacity="1" fill-rule="nonzero"/></g><g clip-path="url(#74c258ad0f)"><path fill="#960013" d="M 10.304688 14.480469 C 10.304688 15.277344 10.5 16.027344 10.847656 16.683594 C 10.882812 16.75 10.921875 16.816406 10.957031 16.878906 L 3.1875 21.460938 C 3.070312 21.265625 2.960938 21.066406 2.855469 20.863281 C 1.851562 18.957031 1.285156 16.785156 1.285156 14.480469 C 1.285156 6.910156 7.40625 0.769531 14.972656 0.738281 L 14.972656 9.757812 C 12.386719 9.789062 10.304688 11.890625 10.304688 14.480469 Z M 10.304688 14.480469 " fill-opacity="1" fill-rule="nonzero"/></g><g clip-path="url(#0f85fffacd)"><path fill="#ffffff" d="M 15.03125 19.207031 C 16.75 19.207031 18.253906 18.285156 19.082031 16.914062 L 26.851562 21.492188 C 24.457031 25.523438 20.058594 28.226562 15.03125 28.226562 C 9.984375 28.226562 5.578125 25.507812 3.1875 21.460938 L 10.957031 16.878906 C 11.78125 18.273438 13.296875 19.207031 15.03125 19.207031 Z M 15.03125 19.207031 " fill-opacity="1" fill-rule="nonzero"/></g><g clip-path="url(#d517e38bd6)"><g clip-path="url(#3330f68d67)"><path fill="#ffffff" d="M 6.222656 5.738281 L 23.777344 5.738281 L 23.777344 23.292969 L 6.222656 23.292969 Z M 6.222656 5.738281 " fill-opacity="1" fill-rule="nonzero"/></g></g><g clip-path="url(#586c0daac3)"><g clip-path="url(#e8949e172c)"><path fill="#ffffff" d="M 6.636719 6.152344 L 23.363281 6.152344 L 23.363281 22.878906 L 6.636719 22.878906 Z M 6.636719 6.152344 " fill-opacity="1" fill-rule="nonzero"/></g></g><g clip-path="url(#e9ab197bfe)"><path fill="#000000" d="M 20.144531 12.585938 C 19.976562 12.667969 19.769531 12.679688 19.582031 12.640625 C 19.472656 12.617188 19.363281 12.613281 19.253906 12.585938 C 19.148438 12.566406 19.046875 12.523438 18.9375 12.507812 C 18.863281 12.484375 18.785156 12.484375 18.710938 12.464844 C 18.726562 12.425781 18.738281 12.386719 18.746094 12.34375 C 18.890625 12.34375 19.5 12.425781 19.964844 12.167969 C 20.066406 12.109375 20.125 12.003906 20.203125 11.917969 C 20.296875 11.753906 20.324219 11.457031 20.210938 11.308594 C 20.132812 11.210938 20.121094 11.082031 19.992188 11.144531 C 19.953125 11.179688 19.921875 11.222656 19.878906 11.257812 C 19.648438 11.441406 19.242188 11.5625 19.136719 11.589844 C 18.570312 11.707031 18.730469 11.691406 18.570312 11.648438 C 18.605469 11.605469 18.636719 11.558594 18.664062 11.507812 C 18.753906 11.46875 19.390625 11.253906 19.65625 10.921875 C 19.898438 10.664062 19.96875 10.394531 19.914062 10.167969 C 19.898438 10.097656 19.898438 10.023438 19.855469 9.964844 C 19.777344 9.859375 19.707031 9.71875 19.574219 9.757812 C 19.5625 9.773438 19.328125 10.148438 19.238281 10.199219 C 18.980469 10.460938 18.527344 10.699219 18.378906 10.832031 C 18.257812 10.792969 18.304688 10.800781 18.15625 10.816406 C 18.246094 10.738281 18.34375 10.675781 18.429688 10.59375 C 18.519531 10.515625 18.59375 10.421875 18.675781 10.339844 C 18.835938 10.199219 18.914062 10.058594 18.972656 9.988281 C 19.542969 9.210938 18.9375 8.621094 18.566406 8.898438 C 18.640625 9.257812 18.359375 9.519531 18.191406 9.710938 C 18.128906 9.769531 18.070312 9.832031 18.003906 9.886719 C 17.824219 10.082031 16.96875 10.554688 17.066406 11.132812 C 17.09375 11.335938 17.1875 11.511719 17.476562 11.675781 C 17.480469 11.679688 17.480469 11.6875 17.480469 11.691406 C 17.265625 11.964844 17.328125 12.167969 17.34375 12.265625 C 16.703125 11.992188 16.132812 12.445312 16.03125 12.503906 C 15.992188 12.433594 15.9375 12.265625 15.695312 12.207031 C 15.703125 12.066406 15.761719 11.933594 15.757812 11.789062 C 15.867188 11.867188 15.84375 11.882812 16.058594 11.957031 C 16.09375 11.96875 16.128906 11.957031 16.167969 11.949219 C 16.140625 11.886719 16.054688 11.84375 16.035156 11.617188 C 15.984375 11.449219 16.023438 11.449219 15.984375 11.050781 C 15.960938 10.925781 15.964844 10.792969 15.929688 10.667969 C 15.917969 10.601562 15.890625 10.539062 15.890625 10.472656 C 15.945312 10.496094 16 10.53125 16.054688 10.550781 C 16.121094 10.558594 16.195312 10.539062 16.238281 10.480469 C 16.015625 10.296875 15.898438 9.800781 15.617188 9.484375 C 15.964844 9.382812 16.035156 9.15625 15.945312 9.046875 C 15.71875 9.523438 14.925781 8.617188 14.136719 9.128906 C 14.089844 9.160156 14.058594 9.210938 14.03125 9.261719 C 13.960938 9.246094 13.898438 9.289062 13.847656 9.335938 C 13.832031 9.359375 13.828125 9.398438 13.804688 9.414062 C 13.757812 9.445312 13.695312 9.4375 13.652344 9.476562 C 13.472656 9.625 13.472656 9.65625 13.4375 9.921875 C 13.453125 10.019531 13.476562 10.121094 13.523438 10.214844 C 13.59375 10.035156 13.648438 10.011719 13.761719 9.992188 C 13.867188 9.984375 13.957031 10.046875 14.039062 10.105469 C 14.164062 10.109375 14.183594 10.035156 14.46875 10.316406 C 14.507812 10.351562 14.527344 10.398438 14.546875 10.449219 C 13.882812 10.273438 13.410156 10.679688 13.035156 10.222656 C 13 10.261719 13.011719 10.320312 13.011719 10.367188 C 13 10.464844 13.15625 10.660156 13.167969 10.6875 C 13.574219 11.09375 14.070312 10.648438 14.480469 10.726562 C 14.402344 10.769531 14.117188 10.804688 14.074219 11 C 14.191406 10.988281 14.308594 11.007812 14.421875 11.011719 C 14.472656 11.019531 14.519531 11.046875 14.566406 11.066406 C 14.652344 11.105469 14.675781 11.210938 14.691406 11.300781 C 14.722656 11.457031 14.484375 11.601562 14.351562 11.683594 C 14.351562 11.691406 14.355469 11.707031 14.355469 11.714844 C 14.410156 11.738281 14.464844 11.757812 14.519531 11.769531 C 14.546875 11.765625 14.570312 11.753906 14.59375 11.75 C 14.515625 11.847656 14.414062 11.929688 14.359375 12.042969 C 14.339844 12.085938 14.324219 12.132812 14.300781 12.175781 C 14.292969 12.175781 14.277344 12.175781 14.273438 12.179688 C 14.273438 12.164062 14.277344 12.152344 14.277344 12.140625 C 14.230469 12.15625 14.175781 12.15625 14.132812 12.175781 C 13.9375 12.269531 13.847656 12.417969 13.789062 12.484375 C 13.398438 12.4375 13.121094 12.035156 12.550781 12.277344 C 12.496094 12.300781 12.445312 12.339844 12.390625 12.367188 C 12.433594 12.015625 12.351562 11.851562 12.203125 11.652344 C 12.398438 11.570312 12.515625 11.507812 12.625 11.335938 C 12.722656 11.164062 12.734375 10.925781 12.585938 10.628906 C 12.398438 10.292969 12.085938 10.25 11.613281 9.8125 C 11.421875 9.644531 11.1875 9.34375 11.207031 9.035156 C 11.207031 8.992188 11.242188 8.945312 11.210938 8.910156 C 11.121094 8.820312 10.972656 8.800781 10.863281 8.871094 C 10.605469 8.992188 10.582031 9.25 10.570312 9.3125 C 10.550781 9.398438 10.582031 9.484375 10.585938 9.570312 C 10.597656 9.910156 10.984375 10.332031 11.007812 10.363281 C 11.089844 10.429688 11.15625 10.511719 11.242188 10.578125 C 11.320312 10.652344 11.527344 10.777344 11.5625 10.804688 C 11.578125 10.816406 11.574219 10.839844 11.578125 10.855469 C 11.535156 10.871094 11.492188 10.886719 11.449219 10.90625 C 11.207031 10.746094 11.121094 10.757812 10.585938 10.332031 C 10.210938 9.976562 10.257812 9.75 10.140625 9.761719 C 10.078125 9.75 10.039062 9.800781 9.996094 9.835938 C 9.957031 9.871094 9.949219 9.925781 9.917969 9.96875 C 9.835938 10.105469 9.832031 10.273438 9.851562 10.425781 C 10.003906 11.132812 10.640625 11.28125 11.109375 11.554688 C 11.101562 11.601562 11.105469 11.644531 11.117188 11.691406 C 10.902344 11.65625 10.6875 11.605469 10.476562 11.558594 C 10.292969 11.535156 10.023438 11.460938 9.847656 11.320312 C 9.71875 11.183594 9.773438 11.191406 9.675781 11.1875 C 9.636719 11.21875 9.613281 11.269531 9.585938 11.3125 C 9.4375 11.738281 9.570312 11.914062 9.734375 12.097656 C 10.074219 12.425781 10.652344 12.316406 11.066406 12.34375 C 11.039062 12.382812 11.027344 12.425781 11.015625 12.476562 C 10.808594 12.519531 10.597656 12.542969 10.390625 12.601562 C 10.078125 12.660156 9.933594 12.746094 9.660156 12.605469 C 9.582031 12.597656 9.511719 12.726562 9.523438 12.894531 C 9.535156 13.050781 9.515625 13.078125 9.679688 13.308594 C 9.75 13.402344 9.957031 13.472656 9.992188 13.480469 C 10.398438 13.476562 10.566406 13.390625 10.820312 13.28125 C 10.925781 13.222656 11.042969 13.1875 11.15625 13.136719 C 11.1875 13.144531 11.207031 13.171875 11.230469 13.1875 C 10.824219 13.433594 10.511719 13.789062 9.988281 14.046875 C 9.796875 14.140625 9.625 14.113281 9.585938 14.113281 C 9.59375 14.179688 9.605469 14.246094 9.613281 14.3125 C 9.65625 14.464844 9.773438 14.613281 9.921875 14.691406 C 10.550781 15.035156 11.4375 13.835938 11.636719 13.699219 C 11.675781 13.671875 11.707031 13.621094 11.757812 13.617188 C 11.734375 13.664062 11.699219 13.703125 11.664062 13.738281 C 11.191406 14.394531 11.289062 14.308594 11.109375 14.558594 C 11.027344 14.695312 10.863281 14.972656 10.785156 15.070312 C 10.734375 15.15625 10.308594 15.679688 10.007812 15.839844 C 9.96875 15.878906 9.910156 15.882812 9.863281 15.90625 C 9.8125 15.933594 9.898438 16.1875 10.0625 16.28125 C 10.160156 16.34375 10.445312 16.386719 10.515625 16.367188 C 10.667969 16.316406 10.78125 16.355469 11.191406 15.910156 C 11.363281 15.679688 11.175781 16.054688 11.742188 15.050781 C 11.742188 15.050781 11.941406 14.652344 12.007812 14.539062 C 12.171875 14.1875 12.1875 14.246094 12.324219 13.914062 C 12.339844 13.914062 12.355469 13.914062 12.367188 13.914062 C 12.335938 14.023438 12.304688 14.128906 12.265625 14.234375 C 12.046875 15.042969 11.855469 15.976562 11.566406 16.398438 C 11.410156 16.644531 11.429688 16.542969 11.347656 16.699219 C 11.371094 16.75 11.40625 16.796875 11.457031 16.816406 C 11.707031 16.90625 11.777344 16.890625 12.050781 16.75 C 12.113281 16.722656 12.152344 16.660156 12.207031 16.621094 C 12.269531 16.570312 12.3125 16.5 12.359375 16.4375 C 12.480469 16.320312 12.539062 16.152344 12.617188 16.003906 C 12.660156 15.882812 12.804688 15.347656 12.84375 15.101562 C 12.851562 15.050781 12.851562 14.996094 12.867188 14.945312 C 12.886719 14.863281 12.886719 14.777344 12.902344 14.691406 C 12.910156 14.589844 12.933594 14.488281 12.953125 14.386719 C 12.96875 14.328125 12.960938 14.265625 12.976562 14.207031 C 12.996094 14.109375 12.996094 14.011719 13.003906 13.910156 C 13.027344 13.886719 13.0625 13.875 13.089844 13.859375 C 13.015625 14.902344 13.109375 15.335938 12.96875 15.589844 C 12.953125 15.605469 12.964844 15.632812 12.980469 15.648438 C 13.3125 15.703125 13.710938 15.417969 13.738281 14.886719 C 13.738281 14.785156 13.765625 14.683594 13.753906 14.582031 C 13.734375 14.371094 13.714844 14.011719 13.746094 13.804688 C 13.746094 13.804688 13.84375 14.289062 13.890625 14.460938 C 13.921875 14.648438 13.988281 14.832031 14.015625 15.019531 C 13.632812 15.515625 13.511719 16.058594 12.890625 16.800781 C 12.921875 16.855469 12.988281 16.855469 13.039062 16.886719 C 12.867188 17.179688 12.078125 17.898438 12 17.917969 C 11.742188 17.832031 11.605469 17.691406 11.554688 17.589844 C 11.527344 17.539062 11.492188 17.304688 11.222656 17.308594 C 11.167969 17.3125 11.125 17.339844 11.085938 17.371094 C 11.046875 17.378906 11.003906 17.371094 10.964844 17.390625 C 10.867188 17.429688 10.765625 17.476562 10.6875 17.558594 C 10.628906 17.644531 10.574219 17.746094 10.582031 17.855469 C 10.640625 17.8125 10.699219 17.769531 10.765625 17.738281 C 10.824219 17.734375 10.886719 17.726562 10.941406 17.742188 C 10.984375 17.765625 10.992188 17.816406 11.015625 17.855469 C 11.046875 17.921875 11.125 17.9375 11.183594 17.960938 C 11.242188 17.984375 11.304688 17.910156 11.355469 17.957031 C 11.433594 18.03125 11.507812 18.105469 11.605469 18.148438 C 11.519531 18.175781 11.429688 18.179688 11.339844 18.195312 C 11.054688 18.25 11.050781 18.136719 10.949219 18.109375 C 10.644531 18.046875 10.707031 18.261719 10.585938 18.308594 C 10.59375 18.316406 10.605469 18.324219 10.613281 18.328125 C 10.605469 18.335938 10.597656 18.34375 10.585938 18.347656 C 10.582031 18.339844 10.574219 18.332031 10.566406 18.324219 C 10.347656 18.511719 10.351562 18.835938 10.421875 18.949219 C 10.464844 18.875 10.519531 18.808594 10.574219 18.742188 C 10.605469 18.703125 10.648438 18.679688 10.6875 18.65625 C 10.734375 18.699219 10.769531 18.773438 10.839844 18.769531 C 10.941406 18.769531 11.035156 18.699219 11.078125 18.605469 C 11.117188 18.59375 11.164062 18.601562 11.203125 18.597656 C 11.34375 18.601562 11.480469 18.558594 11.617188 18.535156 C 11.550781 18.617188 11.457031 18.667969 11.367188 18.714844 C 11.324219 18.734375 11.089844 18.742188 11.023438 18.882812 C 11.007812 18.921875 10.84375 19.164062 10.925781 19.445312 C 10.96875 19.597656 10.957031 19.625 11.121094 19.765625 C 11.160156 19.714844 11.101562 19.667969 11.113281 19.617188 C 11.128906 19.507812 11.101562 19.5 11.195312 19.332031 C 11.210938 19.324219 11.335938 19.421875 11.464844 19.3125 C 11.53125 19.269531 11.527344 19.179688 11.554688 19.113281 C 11.660156 19 11.664062 19.054688 11.800781 18.882812 C 11.832031 18.84375 11.871094 18.816406 11.902344 18.777344 C 12.085938 18.542969 12.074219 18.539062 12.136719 18.480469 C 12.222656 18.5625 12.316406 18.644531 12.429688 18.679688 C 12.453125 18.6875 12.484375 18.6875 12.492188 18.71875 C 12.542969 18.882812 12.664062 18.929688 12.78125 18.878906 C 12.835938 19.003906 12.832031 19.152344 12.804688 19.214844 C 12.800781 19.230469 12.792969 19.265625 12.816406 19.261719 C 13.074219 19.089844 13.113281 18.714844 13.007812 18.503906 C 12.972656 18.464844 12.933594 18.425781 12.890625 18.402344 C 12.808594 18.375 12.570312 18.40625 12.441406 18.207031 C 12.542969 18.117188 13.4375 17.242188 13.4375 17.242188 C 13.472656 17.328125 13.503906 17.417969 13.570312 17.484375 C 13.582031 17.496094 13.613281 17.492188 13.613281 17.472656 C 13.699219 17.023438 14.019531 16.742188 14.316406 16.261719 C 14.410156 16.484375 14.554688 17.78125 14.476562 18.152344 C 14.414062 18.375 14.429688 18.332031 14.328125 18.449219 C 14.1875 18.601562 13.875 18.558594 13.878906 18.320312 C 13.882812 18.246094 13.910156 18.179688 13.933594 18.113281 C 13.859375 18.109375 13.847656 18.085938 13.75 18.152344 C 13.570312 18.289062 13.457031 18.464844 13.511719 18.6875 C 13.476562 18.710938 13.433594 18.722656 13.402344 18.757812 C 13.328125 18.945312 13.441406 19.0625 13.507812 19.167969 C 13.640625 19.371094 13.855469 19.410156 13.886719 19.421875 C 13.835938 19.453125 13.554688 19.472656 13.4375 19.445312 C 13.050781 19.375 12.464844 19.519531 12.238281 19.933594 C 12.15625 20.066406 12.125 20.3125 12.136719 20.398438 C 12.15625 20.519531 12.214844 20.632812 12.289062 20.730469 C 12.324219 20.75 12.359375 20.765625 12.394531 20.785156 C 12.28125 20.515625 12.398438 20.382812 12.464844 20.269531 C 12.507812 20.214844 12.574219 20.179688 12.625 20.132812 C 12.652344 20.105469 12.683594 20.089844 12.71875 20.085938 C 12.722656 20.132812 12.710938 20.183594 12.726562 20.226562 C 12.761719 20.34375 12.933594 20.421875 13.054688 20.410156 C 13.128906 20.417969 13.320312 20.457031 13.660156 20.328125 C 14.210938 20.140625 14.296875 19.945312 14.390625 19.863281 C 14.359375 20 14.203125 20.238281 14.121094 20.351562 C 14.0625 20.460938 13.96875 20.542969 13.867188 20.613281 C 13.882812 20.644531 13.890625 20.683594 13.921875 20.699219 C 14.207031 20.890625 14.367188 20.714844 14.484375 20.648438 C 14.476562 20.796875 14.414062 20.976562 14.699219 21.480469 C 14.75 21.546875 14.789062 21.621094 14.851562 21.679688 C 14.96875 21.5625 15.117188 21.226562 15.152344 21.0625 C 15.207031 20.863281 15.1875 20.664062 15.183594 20.613281 C 15.289062 20.671875 15.398438 20.757812 15.527344 20.746094 C 15.609375 20.738281 15.710938 20.726562 15.765625 20.648438 C 15.464844 20.3125 15.339844 20.066406 15.285156 19.898438 C 15.347656 19.941406 15.394531 20.007812 15.449219 20.058594 C 15.503906 20.109375 15.566406 20.148438 15.621094 20.195312 C 15.929688 20.394531 16.144531 20.4375 16.46875 20.417969 C 16.542969 20.40625 16.621094 20.40625 16.6875 20.371094 C 16.789062 20.316406 16.914062 20.261719 16.902344 20.089844 C 17.191406 20.089844 17.300781 20.335938 17.355469 20.429688 C 17.425781 20.53125 17.417969 20.660156 17.421875 20.78125 C 17.550781 20.738281 17.683594 20.109375 17.394531 19.820312 C 17.34375 19.769531 17.304688 19.707031 17.242188 19.671875 C 17.171875 19.628906 17.113281 19.570312 17.03125 19.546875 C 16.683594 19.398438 16.207031 19.492188 15.902344 19.402344 C 15.992188 19.367188 16.167969 19.332031 16.304688 19.148438 C 16.339844 19.085938 16.378906 19.023438 16.390625 18.953125 C 16.410156 18.863281 16.398438 18.761719 16.339844 18.691406 C 16.3125 18.65625 16.257812 18.660156 16.21875 18.65625 C 16.28125 18.523438 16.179688 18.285156 15.988281 18.183594 C 15.921875 18.152344 15.71875 18.105469 15.710938 18.179688 C 15.726562 18.238281 15.789062 18.277344 15.785156 18.34375 C 15.792969 18.417969 15.738281 18.472656 15.679688 18.503906 C 15.617188 18.527344 15.546875 18.507812 15.480469 18.492188 C 15.285156 18.453125 15.210938 18.046875 15.230469 17.851562 C 15.234375 17.785156 15.226562 17.71875 15.234375 17.652344 C 15.269531 17.328125 15.347656 17.011719 15.382812 16.691406 C 15.402344 16.578125 15.425781 16.464844 15.460938 16.359375 C 15.515625 16.425781 15.554688 16.503906 15.609375 16.570312 C 15.75 16.75 15.898438 16.921875 16.019531 17.113281 C 16.085938 17.21875 16.121094 17.347656 16.214844 17.429688 C 16.257812 17.351562 16.289062 17.265625 16.304688 17.179688 C 16.363281 17.238281 16.40625 17.3125 16.46875 17.371094 C 16.695312 17.609375 16.304688 17.242188 17.28125 18.195312 C 17.179688 18.421875 16.929688 18.378906 16.765625 18.460938 C 16.601562 18.574219 16.621094 18.898438 16.726562 19.089844 C 16.757812 19.152344 16.8125 19.1875 16.855469 19.238281 C 16.871094 19.257812 16.898438 19.253906 16.921875 19.253906 C 16.914062 19.15625 16.855469 19.09375 16.921875 18.886719 C 16.96875 18.921875 17.023438 18.945312 17.082031 18.960938 C 17.21875 18.929688 17.207031 18.925781 17.257812 18.871094 C 17.296875 18.832031 17.296875 18.773438 17.3125 18.722656 C 17.492188 18.625 17.429688 18.65625 17.582031 18.515625 C 17.78125 18.871094 17.984375 19.050781 18.089844 19.152344 C 18.113281 19.433594 18.335938 19.488281 18.453125 19.402344 C 18.570312 19.636719 18.5 19.777344 18.492188 19.90625 C 18.507812 19.902344 18.523438 19.898438 18.53125 19.882812 C 18.613281 19.785156 18.894531 19.578125 18.734375 19.074219 C 18.75 18.894531 18.609375 18.785156 18.441406 18.785156 C 18.367188 18.773438 18.285156 18.746094 18.234375 18.683594 C 18.191406 18.628906 18.136719 18.585938 18.089844 18.535156 C 18.132812 18.539062 18.175781 18.550781 18.214844 18.566406 C 18.289062 18.589844 18.367188 18.589844 18.441406 18.613281 C 18.519531 18.632812 18.601562 18.625 18.679688 18.625 C 18.714844 18.675781 18.734375 18.742188 18.792969 18.765625 C 18.867188 18.804688 18.960938 18.789062 19.023438 18.730469 C 19.058594 18.707031 19.070312 18.652344 19.113281 18.640625 C 19.308594 18.679688 19.410156 18.945312 19.425781 18.972656 C 19.453125 18.859375 19.449219 18.738281 19.421875 18.621094 C 19.375 18.34375 19.203125 18.304688 19.175781 18.28125 C 19.160156 18.246094 19.171875 18.078125 18.988281 18.066406 C 18.851562 18.054688 18.753906 18.320312 18.183594 18.140625 C 18.285156 18.078125 18.398438 18.023438 18.476562 17.925781 C 18.566406 17.953125 18.675781 17.988281 18.757812 17.925781 C 18.828125 17.878906 18.835938 17.785156 18.828125 17.710938 C 19.03125 17.617188 19.050781 17.796875 19.136719 17.785156 C 19.132812 17.671875 19.085938 17.558594 19.019531 17.46875 C 18.925781 17.375 18.785156 17.347656 18.660156 17.355469 C 18.621094 17.359375 18.492188 17.265625 18.390625 17.339844 C 18.199219 17.480469 18.210938 17.625 18.109375 17.722656 C 18 17.824219 17.863281 17.921875 17.710938 17.921875 C 17.449219 17.757812 16.871094 17.113281 16.738281 16.921875 C 16.796875 16.882812 16.863281 16.847656 16.933594 16.828125 C 16.855469 16.679688 16.570312 16.417969 16.441406 16.144531 C 16.007812 15.359375 16.148438 15.5625 15.980469 15.238281 C 15.933594 15.144531 15.875 15.054688 15.835938 14.957031 C 15.828125 14.851562 16.050781 13.964844 16.050781 13.957031 C 16.058594 13.976562 16.070312 14.304688 16.054688 14.441406 C 16.035156 14.890625 16.085938 14.785156 16.089844 14.9375 C 16.101562 15.160156 16.253906 15.480469 16.414062 15.636719 C 16.546875 15.796875 16.800781 15.847656 16.875 15.824219 C 16.84375 15.675781 16.808594 15.523438 16.796875 15.367188 C 16.792969 15.132812 16.757812 14.902344 16.765625 14.671875 C 16.757812 14.503906 16.78125 14.339844 16.761719 14.175781 C 16.761719 14.089844 16.753906 14 16.75 13.914062 C 16.761719 13.914062 16.777344 13.914062 16.792969 13.917969 C 16.882812 14.113281 16.871094 14.597656 16.972656 15.328125 C 17.023438 15.613281 17.179688 16.238281 17.351562 16.46875 C 17.496094 16.699219 17.648438 16.894531 18.050781 16.933594 C 18.082031 16.9375 18.109375 16.917969 18.140625 16.90625 C 18.171875 16.894531 18.210938 16.894531 18.234375 16.863281 C 18.269531 16.820312 18.3125 16.773438 18.320312 16.710938 C 18.199219 16.601562 17.976562 16.171875 17.90625 15.742188 C 17.894531 15.695312 17.785156 15.222656 17.785156 15.214844 C 17.679688 14.464844 17.492188 14.070312 17.464844 13.921875 C 17.820312 14.355469 18.21875 15.902344 18.894531 16.253906 C 19.347656 16.527344 19.714844 16.332031 19.777344 15.953125 C 19.675781 15.886719 19.664062 15.949219 19.414062 15.707031 C 19.207031 15.511719 18.835938 14.898438 18.808594 14.847656 C 18.683594 14.722656 18.363281 13.972656 18.132812 13.699219 C 18.097656 13.65625 18.0625 13.617188 18.050781 13.5625 C 18.1875 13.613281 18.796875 14.382812 18.945312 14.5 C 19.066406 14.597656 19.253906 14.800781 19.628906 14.847656 C 20.109375 14.808594 20.242188 14.347656 20.105469 14.164062 C 20.023438 14.121094 19.941406 14.171875 19.726562 14.085938 C 19.261719 13.804688 19.308594 13.757812 19.074219 13.597656 C 18.984375 13.542969 18.746094 13.328125 18.664062 13.285156 C 18.574219 13.21875 18.476562 13.164062 18.390625 13.09375 C 18.507812 13.054688 18.597656 13.132812 18.734375 13.175781 C 18.742188 13.179688 19.339844 13.484375 19.582031 13.464844 C 20.027344 13.429688 20.296875 13.304688 20.285156 12.820312 C 20.273438 12.726562 20.210938 12.644531 20.144531 12.585938 Z M 20.144531 12.585938 " fill-opacity="1" fill-rule="nonzero"/></g><g fill="#ffffff" fill-opacity="1"><g transform="translate(6.755863, 8.197445)"><g><path d="M 0.203125 -1.828125 C 0.429688 -1.972656 0.644531 -1.953125 0.84375 -1.765625 C 0.96875 -1.640625 1.023438 -1.503906 1.015625 -1.359375 C 1.015625 -1.210938 0.96875 -1.078125 0.875 -0.953125 C 0.84375 -0.898438 0.785156 -0.828125 0.703125 -0.734375 L 0.1875 -0.1875 L -1.3125 -1.609375 L -0.8125 -2.140625 C -0.726562 -2.222656 -0.660156 -2.285156 -0.609375 -2.328125 C -0.484375 -2.429688 -0.359375 -2.484375 -0.234375 -2.484375 C -0.109375 -2.492188 0.00390625 -2.445312 0.109375 -2.34375 C 0.253906 -2.207031 0.285156 -2.035156 0.203125 -1.828125 Z M -0.796875 -1.671875 L -0.421875 -1.328125 L -0.21875 -1.5625 C -0.175781 -1.59375 -0.140625 -1.628906 -0.109375 -1.671875 C -0.0234375 -1.796875 -0.0351562 -1.90625 -0.140625 -2 C -0.242188 -2.101562 -0.359375 -2.101562 -0.484375 -2 C -0.523438 -1.96875 -0.5625 -1.929688 -0.59375 -1.890625 Z M 0.578125 -1.0625 C 0.609375 -1.125 0.625 -1.191406 0.625 -1.265625 C 0.632812 -1.335938 0.609375 -1.40625 0.546875 -1.46875 C 0.410156 -1.59375 0.285156 -1.585938 0.171875 -1.453125 C 0.117188 -1.429688 0.078125 -1.398438 0.046875 -1.359375 L -0.1875 -1.109375 L 0.234375 -0.703125 L 0.46875 -0.96875 C 0.519531 -1.019531 0.554688 -1.050781 0.578125 -1.0625 Z M 0.578125 -1.0625 "/></g></g></g><g fill="#ffffff" fill-opacity="1"><g transform="translate(8.441274, 6.47297)"><g><path d="M -0.140625 -2.390625 C 0.128906 -2.554688 0.390625 -2.609375 0.640625 -2.546875 C 0.898438 -2.484375 1.117188 -2.316406 1.296875 -2.046875 C 1.460938 -1.773438 1.523438 -1.503906 1.484375 -1.234375 C 1.441406 -0.960938 1.285156 -0.742188 1.015625 -0.578125 C 0.753906 -0.410156 0.488281 -0.363281 0.21875 -0.4375 C -0.0390625 -0.507812 -0.253906 -0.679688 -0.421875 -0.953125 C -0.597656 -1.222656 -0.660156 -1.488281 -0.609375 -1.75 C -0.554688 -2.007812 -0.398438 -2.222656 -0.140625 -2.390625 Z M 0.359375 -0.78125 C 0.523438 -0.726562 0.6875 -0.75 0.84375 -0.84375 C 1 -0.9375 1.082031 -1.066406 1.09375 -1.234375 C 1.113281 -1.410156 1.0625 -1.601562 0.9375 -1.8125 C 0.800781 -2.007812 0.648438 -2.132812 0.484375 -2.1875 C 0.328125 -2.25 0.171875 -2.234375 0.015625 -2.140625 C -0.140625 -2.046875 -0.222656 -1.910156 -0.234375 -1.734375 C -0.253906 -1.566406 -0.195312 -1.378906 -0.0625 -1.171875 C 0.0625 -0.972656 0.203125 -0.84375 0.359375 -0.78125 Z M 0.359375 -0.78125 "/></g></g></g><g fill="#ffffff" fill-opacity="1"><g transform="translate(10.78713, 5.075709)"><g><path d="M 1.5 -1.03125 C 1.601562 -0.8125 1.707031 -0.664062 1.8125 -0.59375 L 1.375 -0.453125 C 1.289062 -0.566406 1.21875 -0.703125 1.15625 -0.859375 C 1.050781 -1.066406 0.921875 -1.15625 0.765625 -1.125 C 0.722656 -1.101562 0.671875 -1.082031 0.609375 -1.0625 L 0.375 -0.984375 L 0.640625 -0.203125 L 0.25 -0.078125 L -0.390625 -2.03125 L 0.328125 -2.265625 C 0.429688 -2.304688 0.523438 -2.332031 0.609375 -2.34375 C 0.773438 -2.382812 0.914062 -2.375 1.03125 -2.3125 C 1.15625 -2.257812 1.242188 -2.15625 1.296875 -2 C 1.335938 -1.875 1.335938 -1.757812 1.296875 -1.65625 C 1.253906 -1.5625 1.175781 -1.476562 1.0625 -1.40625 C 1.25 -1.382812 1.394531 -1.257812 1.5 -1.03125 Z M 0.28125 -1.28125 L 0.5625 -1.375 C 0.632812 -1.40625 0.679688 -1.425781 0.703125 -1.4375 C 0.890625 -1.507812 0.953125 -1.628906 0.890625 -1.796875 C 0.859375 -1.890625 0.816406 -1.953125 0.765625 -1.984375 C 0.710938 -2.015625 0.640625 -2.019531 0.546875 -2 C 0.503906 -1.988281 0.453125 -1.972656 0.390625 -1.953125 L 0.09375 -1.84375 Z M 0.28125 -1.28125 "/></g></g></g><g fill="#ffffff" fill-opacity="1"><g transform="translate(13.086817, 4.363049)"><g><path d="M 1 -2.1875 C 1.257812 -2.207031 1.46875 -2.15625 1.625 -2.03125 C 1.789062 -1.914062 1.890625 -1.753906 1.921875 -1.546875 L 1.9375 -1.515625 L 1.515625 -1.484375 L 1.515625 -1.515625 C 1.441406 -1.785156 1.269531 -1.910156 1 -1.890625 C 0.832031 -1.867188 0.703125 -1.785156 0.609375 -1.640625 C 0.523438 -1.503906 0.492188 -1.320312 0.515625 -1.09375 C 0.535156 -0.84375 0.597656 -0.648438 0.703125 -0.515625 C 0.816406 -0.390625 0.957031 -0.335938 1.125 -0.359375 C 1.25 -0.367188 1.347656 -0.410156 1.421875 -0.484375 C 1.503906 -0.566406 1.550781 -0.675781 1.5625 -0.8125 L 1.5625 -0.84375 L 1.96875 -0.875 L 1.984375 -0.84375 C 1.972656 -0.613281 1.890625 -0.425781 1.734375 -0.28125 C 1.585938 -0.144531 1.382812 -0.0664062 1.125 -0.046875 C 0.832031 -0.015625 0.585938 -0.0859375 0.390625 -0.265625 C 0.203125 -0.453125 0.0976562 -0.707031 0.078125 -1.03125 C 0.046875 -1.363281 0.117188 -1.632812 0.296875 -1.84375 C 0.472656 -2.050781 0.707031 -2.164062 1 -2.1875 Z M 1 -2.1875 "/></g></g></g><g fill="#ffffff" fill-opacity="1"><g transform="translate(15.684194, 4.231681)"><g><path d="M 1.78125 -0.046875 L 1.734375 0.28125 L 0.265625 0.046875 L 0.59375 -1.984375 L 2.03125 -1.765625 L 1.96875 -1.453125 L 0.921875 -1.609375 L 0.84375 -1.0625 L 1.8125 -0.921875 L 1.765625 -0.609375 L 0.796875 -0.75 L 0.703125 -0.21875 Z M 1.78125 -0.046875 "/></g></g></g><g fill="#ffffff" fill-opacity="1"><g transform="translate(17.9581, 4.646708)"><g><path d="M 1.75 0.328125 L 1.625 0.640625 L 0.25 0.09375 L 1.015625 -1.828125 L 1.390625 -1.671875 L 0.75 -0.0625 Z M 1.75 0.328125 "/></g></g></g><g fill="#ffffff" fill-opacity="1"><g transform="translate(20.055289, 5.534311)"><g><path d="M 1.640625 0.703125 L 1.453125 0.984375 L 0.21875 0.15625 L 1.375 -1.546875 L 1.71875 -1.328125 L 0.75 0.09375 Z M 1.640625 0.703125 "/></g></g></g><g fill="#ffffff" fill-opacity="1"><g transform="translate(21.909535, 6.85419)"><g><path d="M 1.4375 1.0625 L 1.203125 1.28125 L 0.1875 0.1875 L 1.6875 -1.21875 L 2.671875 -0.15625 L 2.4375 0.0625 L 1.71875 -0.703125 L 1.3125 -0.328125 L 1.984375 0.390625 L 1.765625 0.609375 L 1.09375 -0.109375 L 0.6875 0.265625 Z M 1.4375 1.0625 "/></g></g></g><g fill="#000000" fill-opacity="1"><g transform="translate(5.75732, 21.980054)"><g><path d="M 1.265625 -0.40625 L 0.96875 -0.15625 L 1.375 0.34375 L 1.1875 0.484375 L 0.78125 -0.015625 L 0.3125 0.375 L 0.125 0.140625 L 1.25 -0.78125 L 1.90625 0.015625 L 1.734375 0.15625 Z M 1.265625 -0.40625 "/></g></g></g><g fill="#000000" fill-opacity="1"><g transform="translate(6.790016, 23.211651)"><g><path d="M 1.609375 -0.5625 C 1.765625 -0.414062 1.847656 -0.25 1.859375 -0.0625 C 1.867188 0.125 1.796875 0.304688 1.640625 0.484375 C 1.492188 0.648438 1.320312 0.738281 1.125 0.75 C 0.9375 0.769531 0.757812 0.707031 0.59375 0.5625 C 0.4375 0.414062 0.351562 0.25 0.34375 0.0625 C 0.34375 -0.125 0.414062 -0.300781 0.5625 -0.46875 C 0.71875 -0.644531 0.882812 -0.738281 1.0625 -0.75 C 1.25 -0.769531 1.429688 -0.707031 1.609375 -0.5625 Z M 0.59375 0.09375 C 0.59375 0.21875 0.640625 0.320312 0.734375 0.40625 C 0.835938 0.488281 0.945312 0.519531 1.0625 0.5 C 1.175781 0.476562 1.289062 0.398438 1.40625 0.265625 C 1.519531 0.140625 1.582031 0.0195312 1.59375 -0.09375 C 1.601562 -0.21875 1.5625 -0.320312 1.46875 -0.40625 C 1.363281 -0.488281 1.25 -0.519531 1.125 -0.5 C 1.007812 -0.476562 0.894531 -0.398438 0.78125 -0.265625 C 0.664062 -0.140625 0.601562 -0.0195312 0.59375 0.09375 Z M 0.59375 0.09375 "/></g></g></g><g fill="#000000" fill-opacity="1"><g transform="translate(8.292615, 24.501114)"><g><path d="M 1.484375 -0.828125 C 1.671875 -0.710938 1.78125 -0.5625 1.8125 -0.375 C 1.851562 -0.195312 1.816406 -0.0078125 1.703125 0.1875 C 1.578125 0.382812 1.421875 0.507812 1.234375 0.5625 C 1.054688 0.613281 0.875 0.582031 0.6875 0.46875 C 0.5 0.351562 0.382812 0.203125 0.34375 0.015625 C 0.3125 -0.171875 0.359375 -0.363281 0.484375 -0.5625 C 0.597656 -0.757812 0.742188 -0.882812 0.921875 -0.9375 C 1.097656 -0.988281 1.285156 -0.953125 1.484375 -0.828125 Z M 0.609375 0 C 0.617188 0.113281 0.675781 0.203125 0.78125 0.265625 C 0.894531 0.335938 1.007812 0.347656 1.125 0.296875 C 1.238281 0.253906 1.34375 0.160156 1.4375 0.015625 C 1.519531 -0.128906 1.550781 -0.257812 1.53125 -0.375 C 1.519531 -0.488281 1.460938 -0.578125 1.359375 -0.640625 C 1.242188 -0.710938 1.128906 -0.726562 1.015625 -0.6875 C 0.910156 -0.644531 0.8125 -0.550781 0.71875 -0.40625 C 0.632812 -0.257812 0.597656 -0.125 0.609375 0 Z M 0.609375 0 "/></g></g></g><g fill="#000000" fill-opacity="1"><g transform="translate(9.990035, 25.499367)"><g><path d="M 1.703125 -0.625 L 1.234375 -0.828125 L 0.765625 0.3125 L 0.5 0.203125 L 0.96875 -0.9375 L 0.515625 -1.125 L 0.609375 -1.328125 L 1.796875 -0.828125 Z M 1.703125 -0.625 "/></g></g></g><g fill="#000000" fill-opacity="1"><g transform="translate(11.536335, 26.114436)"><g><path d="M 1.1875 -0.515625 C 1.363281 -0.429688 1.429688 -0.296875 1.390625 -0.109375 C 1.359375 0.00390625 1.289062 0.0859375 1.1875 0.140625 C 1.09375 0.203125 0.992188 0.222656 0.890625 0.203125 C 0.835938 0.203125 0.773438 0.191406 0.703125 0.171875 L 0.1875 0.046875 L 0.53125 -1.359375 L 1.03125 -1.234375 C 1.101562 -1.210938 1.160156 -1.195312 1.203125 -1.1875 C 1.328125 -1.132812 1.410156 -1.070312 1.453125 -1 C 1.503906 -0.925781 1.519531 -0.835938 1.5 -0.734375 C 1.457031 -0.585938 1.351562 -0.515625 1.1875 -0.515625 Z M 0.765625 -1.09375 L 0.671875 -0.71875 L 0.890625 -0.65625 C 0.921875 -0.644531 0.945312 -0.640625 0.96875 -0.640625 C 1.082031 -0.628906 1.148438 -0.675781 1.171875 -0.78125 C 1.203125 -0.882812 1.164062 -0.957031 1.0625 -1 C 1.039062 -1.007812 1.007812 -1.019531 0.96875 -1.03125 Z M 0.859375 -0.03125 C 0.910156 -0.0195312 0.957031 -0.0234375 1 -0.046875 C 1.039062 -0.0664062 1.070312 -0.109375 1.09375 -0.171875 C 1.113281 -0.285156 1.066406 -0.367188 0.953125 -0.421875 C 0.921875 -0.429688 0.890625 -0.441406 0.859375 -0.453125 L 0.625 -0.515625 L 0.53125 -0.125 L 0.78125 -0.0625 C 0.8125 -0.0507812 0.835938 -0.0390625 0.859375 -0.03125 Z M 0.859375 -0.03125 "/></g></g></g><g fill="#000000" fill-opacity="1"><g transform="translate(13.230142, 26.509266)"><g><path d="M 1.03125 -0.34375 L 0.53125 -0.390625 L 0.34375 0.03125 L 0.03125 0 L 0.6875 -1.40625 L 1.046875 -1.375 L 1.4375 0.125 L 1.125 0.09375 Z M 0.84375 -1.140625 L 0.625 -0.625 L 0.96875 -0.59375 Z M 0.84375 -1.140625 "/></g></g></g><g fill="#000000" fill-opacity="1"><g transform="translate(15.000523, 26.637031)"><g><path d="M 1.21875 -0.328125 L 1.234375 -0.078125 L 0.1875 -0.015625 L 0.109375 -1.46875 L 0.40625 -1.484375 L 0.46875 -0.28125 Z M 1.21875 -0.328125 "/></g></g></g><g fill="#000000" fill-opacity="1"><g transform="translate(16.615101, 26.51724)"><g><path d="M 1.15625 -0.5 L 1.203125 -0.25 L 0.1875 -0.03125 L -0.109375 -1.453125 L 0.171875 -1.515625 L 0.421875 -0.34375 Z M 1.15625 -0.5 "/></g></g></g><g fill="#000000" fill-opacity="1"><g transform="translate(18.165234, 26.163368)"><g/></g></g><g fill="#000000" fill-opacity="1"><g transform="translate(18.874271, 25.955259)"><g><path d="M 0.15625 -1.6875 C 0.320312 -1.757812 0.472656 -1.773438 0.609375 -1.734375 C 0.742188 -1.691406 0.847656 -1.609375 0.921875 -1.484375 L 0.921875 -1.46875 L 0.671875 -1.359375 L 0.65625 -1.359375 C 0.539062 -1.515625 0.398438 -1.554688 0.234375 -1.484375 C 0.117188 -1.429688 0.0507812 -1.347656 0.03125 -1.234375 C 0.0078125 -1.128906 0.03125 -1 0.09375 -0.84375 C 0.164062 -0.675781 0.25 -0.5625 0.34375 -0.5 C 0.445312 -0.445312 0.550781 -0.445312 0.65625 -0.5 C 0.738281 -0.53125 0.796875 -0.582031 0.828125 -0.65625 C 0.859375 -0.726562 0.867188 -0.804688 0.859375 -0.890625 L 0.84375 -0.90625 L 1.109375 -1.03125 L 1.125 -1.015625 C 1.164062 -0.867188 1.148438 -0.726562 1.078125 -0.59375 C 1.015625 -0.457031 0.90625 -0.359375 0.75 -0.296875 C 0.550781 -0.203125 0.363281 -0.191406 0.1875 -0.265625 C 0.0195312 -0.347656 -0.109375 -0.492188 -0.203125 -0.703125 C -0.285156 -0.910156 -0.296875 -1.101562 -0.234375 -1.28125 C -0.171875 -1.46875 -0.0390625 -1.601562 0.15625 -1.6875 Z M 0.15625 -1.6875 "/></g></g></g><g fill="#000000" fill-opacity="1"><g transform="translate(20.56688, 25.169876)"><g><path d="M 0.90625 -0.859375 L 1.046875 -0.65625 L 0.15625 -0.09375 L -0.625 -1.3125 L -0.375 -1.484375 L 0.265625 -0.46875 Z M 0.90625 -0.859375 "/></g></g></g><g fill="#000000" fill-opacity="1"><g transform="translate(21.927557, 24.27895)"><g><path d="M 0.078125 -2 L 0.640625 -1.359375 C 0.691406 -1.296875 0.722656 -1.242188 0.734375 -1.203125 C 0.828125 -1.109375 0.863281 -0.992188 0.84375 -0.859375 C 0.820312 -0.734375 0.738281 -0.601562 0.59375 -0.46875 C 0.445312 -0.34375 0.3125 -0.28125 0.1875 -0.28125 C 0.0625 -0.289062 -0.0507812 -0.335938 -0.15625 -0.421875 C -0.175781 -0.453125 -0.210938 -0.5 -0.265625 -0.5625 L -0.828125 -1.203125 L -0.609375 -1.390625 L -0.03125 -0.71875 C 0.0078125 -0.675781 0.0390625 -0.65625 0.0625 -0.65625 C 0.113281 -0.59375 0.171875 -0.554688 0.234375 -0.546875 C 0.304688 -0.546875 0.378906 -0.578125 0.453125 -0.640625 C 0.523438 -0.703125 0.5625 -0.769531 0.5625 -0.84375 C 0.570312 -0.914062 0.554688 -0.984375 0.515625 -1.046875 C 0.503906 -1.054688 0.476562 -1.082031 0.4375 -1.125 L -0.140625 -1.796875 Z M 0.078125 -2 "/></g></g></g><g fill="#000000" fill-opacity="1"><g transform="translate(23.287084, 23.046103)"><g><path d="M 0.0625 -1.296875 C 0.21875 -1.410156 0.363281 -1.410156 0.5 -1.296875 C 0.601562 -1.210938 0.65625 -1.113281 0.65625 -1 C 0.65625 -0.894531 0.628906 -0.800781 0.578125 -0.71875 C 0.554688 -0.664062 0.515625 -0.609375 0.453125 -0.546875 L 0.125 -0.140625 L -0.984375 -1.078125 L -0.65625 -1.484375 C -0.601562 -1.546875 -0.5625 -1.59375 -0.53125 -1.625 C -0.445312 -1.695312 -0.359375 -1.738281 -0.265625 -1.75 C -0.179688 -1.757812 -0.0976562 -1.726562 -0.015625 -1.65625 C 0.0976562 -1.5625 0.125 -1.441406 0.0625 -1.296875 Z M -0.640625 -1.171875 L -0.34375 -0.921875 L -0.203125 -1.09375 C -0.179688 -1.113281 -0.160156 -1.132812 -0.140625 -1.15625 C -0.0976562 -1.257812 -0.113281 -1.34375 -0.1875 -1.40625 C -0.269531 -1.46875 -0.347656 -1.460938 -0.421875 -1.390625 C -0.453125 -1.378906 -0.484375 -1.359375 -0.515625 -1.328125 Z M 0.34375 -0.796875 C 0.375 -0.835938 0.390625 -0.878906 0.390625 -0.921875 C 0.390625 -0.972656 0.363281 -1.019531 0.3125 -1.0625 C 0.226562 -1.132812 0.140625 -1.128906 0.046875 -1.046875 C 0.015625 -1.015625 -0.0078125 -0.984375 -0.03125 -0.953125 L -0.171875 -0.78125 L 0.125 -0.53125 L 0.28125 -0.71875 C 0.3125 -0.75 0.332031 -0.773438 0.34375 -0.796875 Z M 0.34375 -0.796875 "/></g></g></g><g fill="#ffffff" fill-opacity="1"><g transform="translate(2.518573, 15.188879)"><g><path d="M 0.5 -0.203125 L 1.03125 -0.203125 L 1.03125 0 L 0.109375 0 L 0.109375 -0.125 L 0.53125 -0.53125 C 0.625 -0.625 0.6875 -0.695312 0.71875 -0.75 C 0.75 -0.800781 0.765625 -0.851562 0.765625 -0.90625 C 0.765625 -0.96875 0.75 -1.015625 0.71875 -1.046875 C 0.6875 -1.078125 0.644531 -1.09375 0.59375 -1.09375 C 0.53125 -1.09375 0.484375 -1.070312 0.453125 -1.03125 C 0.421875 -1 0.398438 -0.945312 0.390625 -0.875 L 0.390625 -0.859375 L 0.140625 -0.859375 L 0.140625 -0.875 C 0.148438 -1.007812 0.195312 -1.109375 0.28125 -1.171875 C 0.363281 -1.242188 0.472656 -1.28125 0.609375 -1.28125 C 0.742188 -1.28125 0.847656 -1.25 0.921875 -1.1875 C 0.992188 -1.125 1.03125 -1.035156 1.03125 -0.921875 C 1.03125 -0.847656 1.007812 -0.773438 0.96875 -0.703125 C 0.925781 -0.628906 0.847656 -0.535156 0.734375 -0.421875 Z M 0.5 -0.203125 "/></g></g></g><g fill="#ffffff" fill-opacity="1"><g transform="translate(3.74808, 15.188879)"><g><path d="M 0.578125 -1.28125 C 0.898438 -1.28125 1.0625 -1.0625 1.0625 -0.625 C 1.0625 -0.1875 0.898438 0.03125 0.578125 0.03125 C 0.242188 0.03125 0.078125 -0.1875 0.078125 -0.625 C 0.078125 -1.0625 0.242188 -1.28125 0.578125 -1.28125 Z M 0.390625 -0.265625 C 0.429688 -0.191406 0.488281 -0.15625 0.5625 -0.15625 C 0.644531 -0.15625 0.703125 -0.191406 0.734375 -0.265625 C 0.773438 -0.347656 0.796875 -0.46875 0.796875 -0.625 C 0.796875 -0.789062 0.773438 -0.910156 0.734375 -0.984375 C 0.703125 -1.054688 0.648438 -1.09375 0.578125 -1.09375 C 0.492188 -1.09375 0.429688 -1.054688 0.390625 -0.984375 C 0.359375 -0.910156 0.34375 -0.789062 0.34375 -0.625 C 0.34375 -0.46875 0.359375 -0.347656 0.390625 -0.265625 Z M 0.390625 -0.265625 "/></g></g></g><g fill="#ffffff" fill-opacity="1"><g transform="translate(25.086641, 15.188879)"><g><path d="M 0.5 -0.203125 L 1.03125 -0.203125 L 1.03125 0 L 0.109375 0 L 0.109375 -0.125 L 0.53125 -0.53125 C 0.625 -0.625 0.6875 -0.695312 0.71875 -0.75 C 0.75 -0.800781 0.765625 -0.851562 0.765625 -0.90625 C 0.765625 -0.96875 0.75 -1.015625 0.71875 -1.046875 C 0.6875 -1.078125 0.644531 -1.09375 0.59375 -1.09375 C 0.53125 -1.09375 0.484375 -1.070312 0.453125 -1.03125 C 0.421875 -1 0.398438 -0.945312 0.390625 -0.875 L 0.390625 -0.859375 L 0.140625 -0.859375 L 0.140625 -0.875 C 0.148438 -1.007812 0.195312 -1.109375 0.28125 -1.171875 C 0.363281 -1.242188 0.472656 -1.28125 0.609375 -1.28125 C 0.742188 -1.28125 0.847656 -1.25 0.921875 -1.1875 C 0.992188 -1.125 1.03125 -1.035156 1.03125 -0.921875 C 1.03125 -0.847656 1.007812 -0.773438 0.96875 -0.703125 C 0.925781 -0.628906 0.847656 -0.535156 0.734375 -0.421875 Z M 0.5 -0.203125 "/></g></g></g><g fill="#ffffff" fill-opacity="1"><g transform="translate(26.316149, 15.188879)"><g><path d="M 0.578125 -1.28125 C 0.898438 -1.28125 1.0625 -1.0625 1.0625 -0.625 C 1.0625 -0.1875 0.898438 0.03125 0.578125 0.03125 C 0.242188 0.03125 0.078125 -0.1875 0.078125 -0.625 C 0.078125 -1.0625 0.242188 -1.28125 0.578125 -1.28125 Z M 0.390625 -0.265625 C 0.429688 -0.191406 0.488281 -0.15625 0.5625 -0.15625 C 0.644531 -0.15625 0.703125 -0.191406 0.734375 -0.265625 C 0.773438 -0.347656 0.796875 -0.46875 0.796875 -0.625 C 0.796875 -0.789062 0.773438 -0.910156 0.734375 -0.984375 C 0.703125 -1.054688 0.648438 -1.09375 0.578125 -1.09375 C 0.492188 -1.09375 0.429688 -1.054688 0.390625 -0.984375 C 0.359375 -0.910156 0.34375 -0.789062 0.34375 -0.625 C 0.34375 -0.46875 0.359375 -0.347656 0.390625 -0.265625 Z M 0.390625 -0.265625 "/></g></g></g></svg>