<svg xmlns="http://www.w3.org/2000/svg" xmlns:xlink="http://www.w3.org/1999/xlink" width="40" zoomAndPan="magnify" viewBox="0 0 30 30.000001" height="40" preserveAspectRatio="xMidYMid meet" version="1.0"><defs><g/><clipPath id="025385ca2d"><path d="M 0.484375 0 L 29.515625 0 L 29.515625 29.03125 L 0.484375 29.03125 Z M 0.484375 0 " clip-rule="nonzero"/></clipPath><clipPath id="b421a510c2"><path d="M 0.484375 0 L 29.515625 0 L 29.515625 29.03125 L 0.484375 29.03125 Z M 0.484375 0 " clip-rule="nonzero"/></clipPath><clipPath id="ddf8dd0e18"><path d="M 15 0 C 6.984375 0 0.484375 6.5 0.484375 14.515625 C 0.484375 22.53125 6.984375 29.03125 15 29.03125 C 23.015625 29.03125 29.515625 22.53125 29.515625 14.515625 C 29.515625 6.5 23.015625 0 15 0 Z M 15 0 " clip-rule="nonzero"/></clipPath><clipPath id="73325b85e5"><path d="M 4.972656 4.488281 L 25.027344 4.488281 L 25.027344 24.542969 L 4.972656 24.542969 Z M 4.972656 4.488281 " clip-rule="nonzero"/></clipPath><clipPath id="b13e966ebe"><path d="M 15 4.488281 C 9.460938 4.488281 4.972656 8.976562 4.972656 14.515625 C 4.972656 20.054688 9.460938 24.542969 15 24.542969 C 20.539062 24.542969 25.027344 20.054688 25.027344 14.515625 C 25.027344 8.976562 20.539062 4.488281 15 4.488281 Z M 15 4.488281 " clip-rule="nonzero"/></clipPath><clipPath id="b55db12465"><path d="M 0.859375 14.515625 L 29.167969 14.515625 L 29.167969 28.304688 L 0.859375 28.304688 Z M 0.859375 14.515625 " clip-rule="nonzero"/></clipPath><clipPath id="62335e5d01"><path d="M 1.875 10.527344 L 4.585938 10.527344 L 4.585938 13.105469 L 1.875 13.105469 Z M 1.875 10.527344 " clip-rule="nonzero"/></clipPath><clipPath id="82e4f95919"><path d="M 3.226562 10.527344 L 3.546875 11.511719 L 4.582031 11.511719 L 3.746094 12.121094 L 4.0625 13.105469 L 3.226562 12.496094 L 2.390625 13.105469 L 2.710938 12.121094 L 1.875 11.511719 L 2.910156 11.511719 Z M 3.226562 10.527344 " clip-rule="nonzero"/></clipPath><clipPath id="d7bd6240e4"><path d="M 25.417969 10.527344 L 28.128906 10.527344 L 28.128906 13.105469 L 25.417969 13.105469 Z M 25.417969 10.527344 " clip-rule="nonzero"/></clipPath><clipPath id="c323e657c6"><path d="M 26.773438 10.527344 L 27.089844 11.511719 L 28.125 11.511719 L 27.289062 12.121094 L 27.609375 13.105469 L 26.773438 12.496094 L 25.9375 13.105469 L 26.253906 12.121094 L 25.417969 11.511719 L 26.453125 11.511719 Z M 26.773438 10.527344 " clip-rule="nonzero"/></clipPath><clipPath id="2a71949db2"><path d="M 14.160156 7.511719 L 15.84375 7.511719 L 15.84375 9.113281 L 14.160156 9.113281 Z M 14.160156 7.511719 " clip-rule="nonzero"/></clipPath><clipPath id="768db75b60"><path d="M 15 7.511719 L 15.199219 8.125 L 15.839844 8.125 L 15.320312 8.5 L 15.519531 9.113281 L 15 8.734375 L 14.480469 9.113281 L 14.679688 8.5 L 14.160156 8.125 L 14.800781 8.125 Z M 15 7.511719 " clip-rule="nonzero"/></clipPath><clipPath id="9b62744e8d"><path d="M 9.753906 9.355469 L 19.914062 9.355469 L 19.914062 21.695312 L 9.753906 21.695312 Z M 9.753906 9.355469 " clip-rule="nonzero"/></clipPath></defs><g clip-path="url(#025385ca2d)"><path fill="#ffffff" d="M 0.484375 0 L 29.515625 0 L 29.515625 29.03125 L 0.484375 29.03125 Z M 0.484375 0 " fill-opacity="1" fill-rule="nonzero"/><path fill="#ffffff" d="M 0.484375 0 L 29.515625 0 L 29.515625 29.03125 L 0.484375 29.03125 Z M 0.484375 0 " fill-opacity="1" fill-rule="nonzero"/></g><g clip-path="url(#b421a510c2)"><g clip-path="url(#ddf8dd0e18)"><path fill="#ff3131" d="M 0.484375 0 L 29.515625 0 L 29.515625 29.03125 L 0.484375 29.03125 Z M 0.484375 0 " fill-opacity="1" fill-rule="nonzero"/></g></g><g clip-path="url(#73325b85e5)"><g clip-path="url(#b13e966ebe)"><path fill="#233752" d="M 4.972656 4.488281 L 25.027344 4.488281 L 25.027344 24.542969 L 4.972656 24.542969 Z M 4.972656 4.488281 " fill-opacity="1" fill-rule="nonzero"/></g></g><g clip-path="url(#b55db12465)"><path fill="#233752" d="M 24.914062 14.515625 C 24.914062 19.980469 20.472656 24.421875 15.007812 24.421875 C 9.542969 24.421875 5.101562 19.980469 5.101562 14.515625 L 0.878906 14.515625 C 0.878906 22.320312 7.203125 28.648438 15.007812 28.648438 C 22.8125 28.648438 29.113281 22.320312 29.113281 14.515625 Z M 24.914062 14.515625 " fill-opacity="1" fill-rule="nonzero"/></g><path stroke-linecap="butt" transform="matrix(0.725806, 0.000000000000000524, -0.000000000000000524, 0.725806, 1.380247, 15.524002)" fill="none" stroke-linejoin="miter" d="M -0.0018477 0.499743 L 4.922632 0.499743 " stroke="#ff3131" stroke-width="1" stroke-opacity="1" stroke-miterlimit="4"/><path stroke-linecap="butt" transform="matrix(0.725806, 0.000000000000001047, -0.000000000000001047, 0.725806, 1.857395, 17.966454)" fill="none" stroke-linejoin="miter" d="M -0.00265434 0.498302 L 4.927207 0.498302 " stroke="#ff3131" stroke-width="1" stroke-opacity="1" stroke-miterlimit="4"/><path stroke-linecap="butt" transform="matrix(0.725806, 0.000000000000000524, -0.000000000000000524, 0.725806, 25.045224, 15.443845)" fill="none" stroke-linejoin="miter" d="M 0.00227406 0.502543 L 4.926753 0.502543 " stroke="#ff3131" stroke-width="1" stroke-opacity="1" stroke-miterlimit="4"/><path stroke-linecap="butt" transform="matrix(0.725806, 0.000000000000002094, -0.000000000000002094, 0.725806, 24.568077, 17.88629)" fill="none" stroke-linejoin="miter" d="M -0.00230255 0.501112 L 4.927559 0.501112 " stroke="#ff3131" stroke-width="1" stroke-opacity="1" stroke-miterlimit="4"/><g clip-path="url(#62335e5d01)"><g clip-path="url(#82e4f95919)"><path fill="#ffffff" d="M 1.875 10.527344 L 4.585938 10.527344 L 4.585938 13.105469 L 1.875 13.105469 Z M 1.875 10.527344 " fill-opacity="1" fill-rule="nonzero"/></g></g><g clip-path="url(#d7bd6240e4)"><g clip-path="url(#c323e657c6)"><path fill="#ffffff" d="M 25.417969 10.527344 L 28.128906 10.527344 L 28.128906 13.105469 L 25.417969 13.105469 Z M 25.417969 10.527344 " fill-opacity="1" fill-rule="nonzero"/></g></g><g fill="#ffffff" fill-opacity="1"><g transform="translate(5.283821, 9.796001)"><g><path d="M 1.015625 -1.640625 L -0.1875 -1.578125 L -0.0625 -1.09375 L 0.46875 -0.765625 L 0.125 -0.21875 L -2.046875 -1.5625 L -1.703125 -2.109375 L -0.765625 -1.53125 L -1.1875 -2.9375 L -0.796875 -3.578125 L -0.390625 -2.21875 L 1.40625 -2.28125 Z M 1.015625 -1.640625 "/></g></g></g><g fill="#ffffff" fill-opacity="1"><g transform="translate(6.921014, 7.25764)"><g><path d="M 0.28125 -3.015625 L -0.703125 -2.09375 L -0.375 -1.734375 L 0.515625 -2.5625 L 0.875 -2.1875 L -0.015625 -1.359375 L 0.328125 -0.984375 L 1.34375 -1.9375 L 1.6875 -1.5625 L 0.1875 -0.171875 L -1.546875 -2.046875 L -0.078125 -3.40625 Z M 0.28125 -3.015625 "/></g></g></g><g fill="#ffffff" fill-opacity="1"><g transform="translate(9.074418, 5.411791)"><g><path d="M 0.78125 -0.46875 L 0.21875 -0.125 L -1.09375 -2.3125 L -0.53125 -2.65625 Z M 0.78125 -0.46875 "/></g></g></g><g fill="#ffffff" fill-opacity="1"><g transform="translate(10.411078, 4.596883)"><g><path d="M 1.390625 -2.640625 L 0.671875 -2.390625 L 1.359375 -0.484375 L 0.734375 -0.265625 L 0.046875 -2.171875 L -0.65625 -1.921875 L -0.828125 -2.421875 L 1.21875 -3.140625 Z M 1.390625 -2.640625 "/></g></g></g><g fill="#ffffff" fill-opacity="1"><g transform="translate(12.801833, 3.74401)"><g><path d="M 2.609375 -0.1875 L 1.953125 -0.140625 L 1.875 -1.125 L 0.828125 -1.046875 L 0.90625 -0.0625 L 0.25 -0.015625 L 0.0625 -2.5625 L 0.71875 -2.609375 L 0.796875 -1.5625 L 1.84375 -1.640625 L 1.765625 -2.6875 L 2.421875 -2.734375 Z M 2.609375 -0.1875 "/></g></g></g><g fill="#ffffff" fill-opacity="1"><g transform="translate(15.956282, 3.58415)"><g><path d="M 1.703125 -2.28125 C 2.085938 -2.207031 2.398438 -2.050781 2.640625 -1.8125 L 2.3125 -1.359375 C 2.195312 -1.460938 2.066406 -1.550781 1.921875 -1.625 C 1.785156 -1.695312 1.664062 -1.742188 1.5625 -1.765625 C 1.382812 -1.804688 1.285156 -1.773438 1.265625 -1.671875 C 1.242188 -1.585938 1.269531 -1.507812 1.34375 -1.4375 C 1.425781 -1.375 1.53125 -1.3125 1.65625 -1.25 C 1.78125 -1.1875 1.898438 -1.113281 2.015625 -1.03125 C 2.140625 -0.957031 2.234375 -0.859375 2.296875 -0.734375 C 2.367188 -0.617188 2.382812 -0.472656 2.34375 -0.296875 C 2.300781 -0.0664062 2.171875 0.09375 1.953125 0.1875 C 1.742188 0.289062 1.492188 0.316406 1.203125 0.265625 C 0.992188 0.210938 0.796875 0.128906 0.609375 0.015625 C 0.429688 -0.0859375 0.273438 -0.21875 0.140625 -0.375 L 0.484375 -0.8125 C 0.578125 -0.675781 0.703125 -0.550781 0.859375 -0.4375 C 1.023438 -0.332031 1.171875 -0.265625 1.296875 -0.234375 C 1.398438 -0.222656 1.484375 -0.226562 1.546875 -0.25 C 1.617188 -0.269531 1.660156 -0.316406 1.671875 -0.390625 C 1.679688 -0.460938 1.65625 -0.53125 1.59375 -0.59375 C 1.539062 -0.65625 1.46875 -0.707031 1.375 -0.75 C 1.289062 -0.800781 1.195312 -0.851562 1.09375 -0.90625 C 0.988281 -0.96875 0.890625 -1.03125 0.796875 -1.09375 C 0.703125 -1.15625 0.632812 -1.238281 0.59375 -1.34375 C 0.550781 -1.457031 0.546875 -1.585938 0.578125 -1.734375 C 0.617188 -1.953125 0.742188 -2.113281 0.953125 -2.21875 C 1.160156 -2.320312 1.410156 -2.34375 1.703125 -2.28125 Z M 1.703125 -2.28125 "/></g></g></g><g fill="#ffffff" fill-opacity="1"><g transform="translate(18.573281, 4.159029)"><g><path d="M 2.859375 -0.875 L 2.171875 -1.203125 L 1.296875 0.625 L 0.703125 0.328125 L 1.578125 -1.5 L 0.90625 -1.8125 L 1.125 -2.28125 L 3.078125 -1.34375 Z M 2.859375 -0.875 "/></g></g></g><g fill="#ffffff" fill-opacity="1"><g transform="translate(20.865025, 5.243745)"><g><path d="M 2.78125 -0.96875 C 3.082031 -0.707031 3.25 -0.398438 3.28125 -0.046875 C 3.320312 0.304688 3.222656 0.617188 2.984375 0.890625 C 2.734375 1.171875 2.425781 1.320312 2.0625 1.34375 C 1.707031 1.363281 1.378906 1.242188 1.078125 0.984375 C 0.785156 0.734375 0.625 0.425781 0.59375 0.0625 C 0.5625 -0.300781 0.671875 -0.625 0.921875 -0.90625 C 1.160156 -1.175781 1.453125 -1.316406 1.796875 -1.328125 C 2.148438 -1.347656 2.476562 -1.226562 2.78125 -0.96875 Z M 2.4375 -0.5625 C 2.289062 -0.695312 2.113281 -0.753906 1.90625 -0.734375 C 1.707031 -0.722656 1.535156 -0.632812 1.390625 -0.46875 C 1.253906 -0.3125 1.191406 -0.132812 1.203125 0.0625 C 1.222656 0.269531 1.304688 0.4375 1.453125 0.5625 C 1.597656 0.695312 1.769531 0.753906 1.96875 0.734375 C 2.164062 0.710938 2.332031 0.617188 2.46875 0.453125 C 2.613281 0.296875 2.679688 0.117188 2.671875 -0.078125 C 2.660156 -0.273438 2.582031 -0.4375 2.4375 -0.5625 Z M 2.4375 -0.5625 "/></g></g></g><g fill="#ffffff" fill-opacity="1"><g transform="translate(23.252154, 7.376534)"><g><path d="M 1.390625 2.21875 L 1.078125 1.71875 L 1.78125 -0.09375 L 0.453125 0.734375 L 0.125 0.21875 L 2.28125 -1.125 L 2.59375 -0.640625 L 1.890625 1.1875 L 3.21875 0.359375 L 3.546875 0.875 Z M 1.390625 2.21875 "/></g></g></g><g clip-path="url(#2a71949db2)"><g clip-path="url(#768db75b60)"><path fill="#ff3131" d="M 14.160156 7.511719 L 15.84375 7.511719 L 15.84375 9.113281 L 14.160156 9.113281 Z M 14.160156 7.511719 " fill-opacity="1" fill-rule="nonzero"/></g></g><g clip-path="url(#9b62744e8d)"><path fill="#ffbd59" d="M 20.066406 13.050781 C 19.902344 13.128906 19.703125 13.140625 19.523438 13.101562 C 19.417969 13.078125 19.3125 13.078125 19.210938 13.050781 C 19.105469 13.035156 19.007812 12.992188 18.902344 12.976562 C 18.832031 12.957031 18.757812 12.957031 18.6875 12.9375 C 18.699219 12.902344 18.710938 12.863281 18.71875 12.828125 C 18.859375 12.824219 19.445312 12.902344 19.894531 12.664062 C 19.988281 12.605469 20.046875 12.511719 20.121094 12.429688 C 20.210938 12.277344 20.242188 12 20.128906 11.859375 C 20.054688 11.769531 20.042969 11.652344 19.921875 11.710938 C 19.878906 11.742188 19.851562 11.785156 19.8125 11.8125 C 19.585938 11.984375 19.195312 12.097656 19.097656 12.121094 C 18.550781 12.230469 18.707031 12.21875 18.546875 12.175781 C 18.585938 12.136719 18.617188 12.09375 18.640625 12.046875 C 18.726562 12.011719 19.339844 11.808594 19.59375 11.5 C 19.828125 11.261719 19.894531 11.011719 19.84375 10.800781 C 19.828125 10.734375 19.832031 10.664062 19.785156 10.609375 C 19.710938 10.515625 19.644531 10.382812 19.515625 10.417969 C 19.503906 10.433594 19.28125 10.78125 19.191406 10.832031 C 18.945312 11.070312 18.507812 11.296875 18.363281 11.417969 C 18.25 11.382812 18.292969 11.390625 18.152344 11.40625 C 18.238281 11.332031 18.332031 11.269531 18.414062 11.195312 C 18.5 11.125 18.570312 11.039062 18.652344 10.960938 C 18.804688 10.828125 18.878906 10.699219 18.9375 10.632812 C 19.488281 9.90625 18.902344 9.359375 18.546875 9.617188 C 18.617188 9.953125 18.347656 10.199219 18.183594 10.375 C 18.125 10.429688 18.066406 10.488281 18.007812 10.539062 C 17.828125 10.71875 17.007812 11.160156 17.105469 11.699219 C 17.125 11.886719 17.21875 12.050781 17.496094 12.207031 C 17.5 12.207031 17.5 12.214844 17.503906 12.21875 C 17.292969 12.472656 17.355469 12.664062 17.371094 12.75 C 16.75 12.5 16.203125 12.921875 16.105469 12.976562 C 16.070312 12.910156 16.015625 12.753906 15.78125 12.699219 C 15.789062 12.566406 15.84375 12.441406 15.84375 12.308594 C 15.949219 12.378906 15.925781 12.394531 16.128906 12.464844 C 16.164062 12.476562 16.199219 12.464844 16.234375 12.460938 C 16.210938 12.398438 16.128906 12.363281 16.109375 12.148438 C 16.058594 11.992188 16.097656 11.992188 16.058594 11.625 C 16.039062 11.503906 16.039062 11.382812 16.007812 11.265625 C 15.996094 11.203125 15.96875 11.144531 15.96875 11.082031 C 16.023438 11.105469 16.074219 11.136719 16.128906 11.15625 C 16.191406 11.164062 16.265625 11.144531 16.304688 11.089844 C 16.089844 10.921875 15.976562 10.460938 15.707031 10.164062 C 16.039062 10.070312 16.109375 9.859375 16.019531 9.757812 C 15.804688 10.203125 15.042969 9.355469 14.28125 9.832031 C 14.234375 9.863281 14.203125 9.910156 14.179688 9.957031 C 14.109375 9.941406 14.050781 9.980469 14.003906 10.027344 C 13.988281 10.050781 13.984375 10.082031 13.960938 10.097656 C 13.914062 10.125 13.855469 10.121094 13.816406 10.15625 C 13.640625 10.296875 13.640625 10.324219 13.605469 10.570312 C 13.621094 10.664062 13.644531 10.757812 13.691406 10.84375 C 13.757812 10.675781 13.8125 10.652344 13.921875 10.636719 C 14.019531 10.628906 14.109375 10.6875 14.1875 10.742188 C 14.304688 10.746094 14.324219 10.675781 14.601562 10.9375 C 14.636719 10.972656 14.65625 11.015625 14.675781 11.0625 C 14.035156 10.898438 13.582031 11.277344 13.21875 10.851562 C 13.183594 10.890625 13.199219 10.941406 13.195312 10.988281 C 13.1875 11.078125 13.335938 11.257812 13.347656 11.28125 C 13.738281 11.664062 14.214844 11.25 14.609375 11.320312 C 14.539062 11.363281 14.261719 11.390625 14.222656 11.574219 C 14.332031 11.566406 14.445312 11.582031 14.558594 11.585938 C 14.605469 11.59375 14.648438 11.617188 14.695312 11.636719 C 14.777344 11.675781 14.800781 11.773438 14.8125 11.855469 C 14.847656 12 14.613281 12.132812 14.488281 12.210938 C 14.488281 12.21875 14.492188 12.230469 14.492188 12.238281 C 14.542969 12.261719 14.59375 12.28125 14.652344 12.292969 C 14.675781 12.285156 14.695312 12.277344 14.71875 12.273438 C 14.648438 12.363281 14.550781 12.4375 14.496094 12.546875 C 14.476562 12.585938 14.460938 12.628906 14.4375 12.667969 C 14.429688 12.667969 14.417969 12.671875 14.410156 12.671875 C 14.414062 12.660156 14.414062 12.648438 14.414062 12.636719 C 14.371094 12.648438 14.320312 12.652344 14.277344 12.671875 C 14.085938 12.757812 14.003906 12.894531 13.945312 12.957031 C 13.570312 12.910156 13.304688 12.539062 12.753906 12.761719 C 12.699219 12.785156 12.652344 12.820312 12.601562 12.847656 C 12.640625 12.519531 12.558594 12.367188 12.417969 12.179688 C 12.609375 12.105469 12.71875 12.046875 12.824219 11.890625 C 12.917969 11.726562 12.929688 11.503906 12.785156 11.230469 C 12.605469 10.917969 12.304688 10.878906 11.847656 10.472656 C 11.664062 10.3125 11.441406 10.03125 11.460938 9.746094 C 11.460938 9.707031 11.492188 9.664062 11.464844 9.628906 C 11.378906 9.542969 11.230469 9.527344 11.128906 9.59375 C 10.878906 9.707031 10.859375 9.945312 10.847656 10.003906 C 10.828125 10.085938 10.859375 10.164062 10.863281 10.242188 C 10.871094 10.5625 11.246094 10.953125 11.265625 10.984375 C 11.347656 11.042969 11.410156 11.121094 11.492188 11.179688 C 11.570312 11.25 11.769531 11.367188 11.800781 11.394531 C 11.816406 11.402344 11.8125 11.425781 11.816406 11.441406 C 11.773438 11.453125 11.734375 11.46875 11.695312 11.488281 C 11.460938 11.339844 11.375 11.351562 10.859375 10.953125 C 10.5 10.621094 10.546875 10.410156 10.429688 10.425781 C 10.375 10.410156 10.335938 10.460938 10.296875 10.492188 C 10.253906 10.523438 10.246094 10.578125 10.21875 10.617188 C 10.136719 10.742188 10.136719 10.898438 10.15625 11.039062 C 10.300781 11.699219 10.914062 11.835938 11.367188 12.089844 C 11.359375 12.132812 11.359375 12.175781 11.375 12.21875 C 11.164062 12.183594 10.960938 12.140625 10.753906 12.09375 C 10.578125 12.074219 10.320312 12.003906 10.152344 11.875 C 10.027344 11.746094 10.078125 11.75 9.984375 11.75 C 9.945312 11.777344 9.925781 11.824219 9.898438 11.867188 C 9.757812 12.261719 9.882812 12.425781 10.042969 12.597656 C 10.367188 12.902344 10.925781 12.800781 11.324219 12.824219 C 11.300781 12.859375 11.285156 12.902344 11.277344 12.949219 C 11.078125 12.988281 10.871094 13.007812 10.675781 13.0625 C 10.371094 13.117188 10.234375 13.199219 9.96875 13.070312 C 9.894531 13.058594 9.828125 13.179688 9.835938 13.339844 C 9.851562 13.484375 9.832031 13.507812 9.988281 13.722656 C 10.054688 13.8125 10.257812 13.878906 10.289062 13.882812 C 10.679688 13.878906 10.839844 13.800781 11.085938 13.699219 C 11.1875 13.644531 11.304688 13.613281 11.410156 13.5625 C 11.4375 13.570312 11.460938 13.597656 11.484375 13.613281 C 11.089844 13.839844 10.789062 14.171875 10.285156 14.410156 C 10.101562 14.496094 9.9375 14.472656 9.898438 14.472656 C 9.90625 14.535156 9.917969 14.597656 9.925781 14.65625 C 9.964844 14.796875 10.078125 14.9375 10.222656 15.011719 C 10.828125 15.332031 11.683594 14.214844 11.875 14.085938 C 11.910156 14.058594 11.9375 14.011719 11.988281 14.011719 C 11.964844 14.054688 11.933594 14.089844 11.898438 14.125 C 11.441406 14.734375 11.535156 14.652344 11.363281 14.886719 C 11.285156 15.015625 11.128906 15.273438 11.050781 15.363281 C 11.003906 15.441406 10.59375 15.929688 10.304688 16.078125 C 10.265625 16.117188 10.210938 16.121094 10.167969 16.140625 C 10.117188 16.167969 10.199219 16.402344 10.359375 16.488281 C 10.453125 16.550781 10.726562 16.589844 10.792969 16.570312 C 10.941406 16.523438 11.050781 16.558594 11.445312 16.144531 C 11.609375 15.929688 11.425781 16.28125 11.976562 15.347656 C 11.976562 15.347656 12.167969 14.976562 12.230469 14.867188 C 12.386719 14.542969 12.402344 14.59375 12.535156 14.285156 C 12.550781 14.285156 12.5625 14.285156 12.578125 14.289062 C 12.546875 14.386719 12.515625 14.488281 12.480469 14.585938 C 12.269531 15.339844 12.085938 16.207031 11.804688 16.601562 C 11.65625 16.828125 11.671875 16.734375 11.597656 16.878906 C 11.617188 16.925781 11.652344 16.96875 11.699219 16.988281 C 11.941406 17.074219 12.011719 17.058594 12.273438 16.925781 C 12.332031 16.898438 12.371094 16.84375 12.421875 16.804688 C 12.484375 16.761719 12.523438 16.695312 12.570312 16.636719 C 12.6875 16.527344 12.742188 16.371094 12.816406 16.234375 C 12.859375 16.117188 13 15.621094 13.035156 15.390625 C 13.042969 15.34375 13.042969 15.292969 13.054688 15.246094 C 13.078125 15.167969 13.078125 15.089844 13.089844 15.011719 C 13.101562 14.914062 13.121094 14.820312 13.140625 14.726562 C 13.15625 14.671875 13.148438 14.613281 13.160156 14.558594 C 13.179688 14.46875 13.183594 14.375 13.1875 14.285156 C 13.210938 14.261719 13.246094 14.25 13.273438 14.234375 C 13.199219 15.207031 13.289062 15.609375 13.15625 15.84375 C 13.140625 15.863281 13.148438 15.886719 13.167969 15.898438 C 13.488281 15.953125 13.871094 15.6875 13.894531 15.191406 C 13.898438 15.097656 13.921875 15.003906 13.914062 14.90625 C 13.894531 14.710938 13.875 14.378906 13.90625 14.183594 C 13.90625 14.183594 14 14.636719 14.042969 14.796875 C 14.074219 14.972656 14.136719 15.140625 14.164062 15.316406 C 13.796875 15.777344 13.679688 16.285156 13.082031 16.972656 C 13.109375 17.023438 13.175781 17.023438 13.222656 17.050781 C 13.058594 17.328125 12.296875 17.996094 12.222656 18.011719 C 11.972656 17.933594 11.84375 17.804688 11.796875 17.707031 C 11.769531 17.660156 11.734375 17.441406 11.472656 17.445312 C 11.421875 17.449219 11.378906 17.472656 11.34375 17.507812 C 11.304688 17.511719 11.265625 17.507812 11.226562 17.523438 C 11.128906 17.558594 11.035156 17.601562 10.960938 17.679688 C 10.902344 17.757812 10.847656 17.851562 10.859375 17.953125 C 10.914062 17.914062 10.972656 17.875 11.035156 17.847656 C 11.089844 17.839844 11.148438 17.835938 11.207031 17.847656 C 11.242188 17.871094 11.253906 17.917969 11.277344 17.953125 C 11.304688 18.015625 11.378906 18.03125 11.4375 18.054688 C 11.492188 18.078125 11.554688 18.003906 11.605469 18.050781 C 11.675781 18.117188 11.75 18.1875 11.84375 18.226562 C 11.761719 18.253906 11.675781 18.257812 11.589844 18.269531 C 11.3125 18.320312 11.308594 18.214844 11.214844 18.191406 C 10.917969 18.136719 10.976562 18.335938 10.859375 18.375 C 10.871094 18.382812 10.878906 18.390625 10.886719 18.398438 C 10.878906 18.402344 10.871094 18.40625 10.863281 18.414062 C 10.855469 18.40625 10.847656 18.398438 10.839844 18.390625 C 10.632812 18.566406 10.636719 18.867188 10.703125 18.972656 C 10.746094 18.902344 10.796875 18.84375 10.847656 18.78125 C 10.878906 18.746094 10.917969 18.722656 10.960938 18.703125 C 11.003906 18.742188 11.039062 18.808594 11.105469 18.804688 C 11.203125 18.808594 11.292969 18.738281 11.335938 18.652344 C 11.375 18.640625 11.417969 18.648438 11.457031 18.644531 C 11.589844 18.652344 11.722656 18.609375 11.851562 18.585938 C 11.789062 18.664062 11.699219 18.710938 11.613281 18.753906 C 11.574219 18.773438 11.347656 18.78125 11.285156 18.910156 C 11.265625 18.949219 11.109375 19.171875 11.1875 19.433594 C 11.230469 19.578125 11.21875 19.601562 11.378906 19.730469 C 11.414062 19.6875 11.359375 19.640625 11.367188 19.59375 C 11.382812 19.496094 11.359375 19.484375 11.449219 19.328125 C 11.464844 19.320312 11.582031 19.414062 11.707031 19.308594 C 11.769531 19.269531 11.765625 19.1875 11.796875 19.125 C 11.898438 19.019531 11.898438 19.074219 12.03125 18.914062 C 12.058594 18.875 12.101562 18.847656 12.128906 18.8125 C 12.308594 18.597656 12.292969 18.589844 12.351562 18.535156 C 12.4375 18.613281 12.527344 18.691406 12.636719 18.722656 C 12.660156 18.730469 12.691406 18.730469 12.695312 18.757812 C 12.746094 18.910156 12.863281 18.957031 12.976562 18.90625 C 13.027344 19.023438 13.023438 19.164062 13 19.222656 C 12.992188 19.234375 12.984375 19.265625 13.007812 19.265625 C 13.257812 19.105469 13.292969 18.757812 13.195312 18.558594 C 13.160156 18.523438 13.125 18.488281 13.078125 18.464844 C 13.003906 18.4375 12.773438 18.46875 12.648438 18.285156 C 12.746094 18.195312 13.609375 17.382812 13.609375 17.382812 C 13.640625 17.460938 13.671875 17.550781 13.734375 17.609375 C 13.746094 17.621094 13.777344 17.617188 13.777344 17.597656 C 13.859375 17.183594 14.167969 16.921875 14.453125 16.472656 C 14.542969 16.679688 14.683594 17.886719 14.605469 18.234375 C 14.546875 18.4375 14.5625 18.398438 14.464844 18.507812 C 14.332031 18.652344 14.027344 18.609375 14.03125 18.386719 C 14.039062 18.320312 14.0625 18.257812 14.085938 18.195312 C 14.011719 18.191406 14.003906 18.171875 13.910156 18.234375 C 13.734375 18.359375 13.625 18.523438 13.679688 18.730469 C 13.644531 18.75 13.601562 18.761719 13.574219 18.792969 C 13.5 18.96875 13.609375 19.078125 13.675781 19.175781 C 13.800781 19.367188 14.007812 19.402344 14.042969 19.414062 C 13.992188 19.441406 13.722656 19.460938 13.609375 19.433594 C 13.238281 19.367188 12.667969 19.503906 12.453125 19.890625 C 12.375 20.015625 12.34375 20.242188 12.355469 20.320312 C 12.371094 20.4375 12.429688 20.539062 12.503906 20.628906 C 12.535156 20.652344 12.570312 20.664062 12.601562 20.683594 C 12.492188 20.433594 12.605469 20.308594 12.667969 20.203125 C 12.710938 20.148438 12.773438 20.117188 12.824219 20.074219 C 12.851562 20.050781 12.882812 20.035156 12.914062 20.03125 C 12.917969 20.074219 12.90625 20.121094 12.921875 20.164062 C 12.957031 20.269531 13.121094 20.34375 13.238281 20.332031 C 13.3125 20.34375 13.496094 20.375 13.820312 20.257812 C 14.351562 20.082031 14.433594 19.898438 14.527344 19.824219 C 14.492188 19.953125 14.34375 20.171875 14.265625 20.277344 C 14.210938 20.378906 14.117188 20.457031 14.023438 20.519531 C 14.035156 20.550781 14.042969 20.585938 14.074219 20.605469 C 14.347656 20.78125 14.5 20.617188 14.613281 20.554688 C 14.605469 20.695312 14.546875 20.859375 14.824219 21.328125 C 14.871094 21.390625 14.910156 21.460938 14.96875 21.515625 C 15.082031 21.402344 15.222656 21.09375 15.261719 20.9375 C 15.3125 20.753906 15.292969 20.570312 15.289062 20.519531 C 15.390625 20.578125 15.496094 20.65625 15.617188 20.648438 C 15.699219 20.636719 15.796875 20.628906 15.847656 20.554688 C 15.5625 20.242188 15.4375 20.011719 15.386719 19.855469 C 15.449219 19.894531 15.492188 19.957031 15.546875 20.003906 C 15.597656 20.054688 15.65625 20.089844 15.710938 20.132812 C 16.007812 20.320312 16.214844 20.359375 16.527344 20.339844 C 16.597656 20.332031 16.671875 20.328125 16.734375 20.296875 C 16.832031 20.246094 16.957031 20.195312 16.941406 20.03125 C 17.21875 20.035156 17.328125 20.265625 17.382812 20.347656 C 17.445312 20.445312 17.4375 20.566406 17.445312 20.675781 C 17.566406 20.640625 17.695312 20.054688 17.417969 19.78125 C 17.371094 19.734375 17.332031 19.679688 17.273438 19.644531 C 17.203125 19.605469 17.144531 19.550781 17.070312 19.53125 C 16.734375 19.390625 16.273438 19.480469 15.980469 19.394531 C 16.066406 19.363281 16.234375 19.332031 16.367188 19.160156 C 16.402344 19.101562 16.441406 19.042969 16.453125 18.976562 C 16.472656 18.894531 16.457031 18.800781 16.402344 18.734375 C 16.375 18.699219 16.324219 18.703125 16.285156 18.699219 C 16.347656 18.578125 16.246094 18.355469 16.0625 18.257812 C 16 18.230469 15.804688 18.1875 15.796875 18.257812 C 15.8125 18.3125 15.871094 18.347656 15.867188 18.410156 C 15.875 18.476562 15.824219 18.53125 15.765625 18.558594 C 15.703125 18.578125 15.636719 18.5625 15.578125 18.546875 C 15.386719 18.511719 15.316406 18.132812 15.332031 17.949219 C 15.339844 17.890625 15.328125 17.828125 15.339844 17.765625 C 15.371094 17.464844 15.445312 17.171875 15.480469 16.871094 C 15.5 16.765625 15.523438 16.664062 15.554688 16.5625 C 15.609375 16.625 15.648438 16.699219 15.699219 16.761719 C 15.835938 16.925781 15.976562 17.085938 16.09375 17.265625 C 16.15625 17.363281 16.191406 17.480469 16.28125 17.558594 C 16.320312 17.484375 16.351562 17.40625 16.367188 17.324219 C 16.425781 17.378906 16.46875 17.449219 16.527344 17.503906 C 16.746094 17.726562 16.367188 17.382812 17.308594 18.269531 C 17.210938 18.484375 16.96875 18.441406 16.8125 18.519531 C 16.65625 18.625 16.671875 18.925781 16.773438 19.105469 C 16.804688 19.160156 16.859375 19.195312 16.898438 19.242188 C 16.914062 19.261719 16.941406 19.257812 16.960938 19.257812 C 16.953125 19.167969 16.898438 19.109375 16.964844 18.914062 C 17.007812 18.949219 17.0625 18.96875 17.117188 18.984375 C 17.246094 18.953125 17.238281 18.953125 17.285156 18.898438 C 17.324219 18.863281 17.320312 18.808594 17.339844 18.761719 C 17.511719 18.671875 17.449219 18.699219 17.597656 18.570312 C 17.789062 18.902344 17.984375 19.070312 18.085938 19.160156 C 18.109375 19.425781 18.324219 19.476562 18.4375 19.394531 C 18.550781 19.613281 18.480469 19.746094 18.476562 19.863281 C 18.488281 19.859375 18.503906 19.855469 18.515625 19.84375 C 18.589844 19.75 18.863281 19.558594 18.707031 19.089844 C 18.722656 18.921875 18.589844 18.820312 18.425781 18.820312 C 18.351562 18.8125 18.277344 18.785156 18.226562 18.726562 C 18.1875 18.675781 18.132812 18.636719 18.085938 18.585938 C 18.128906 18.589844 18.167969 18.605469 18.207031 18.613281 C 18.277344 18.636719 18.351562 18.640625 18.425781 18.660156 C 18.5 18.679688 18.578125 18.671875 18.65625 18.671875 C 18.691406 18.71875 18.707031 18.78125 18.765625 18.804688 C 18.835938 18.839844 18.925781 18.824219 18.984375 18.769531 C 19.019531 18.746094 19.03125 18.695312 19.074219 18.683594 C 19.257812 18.722656 19.359375 18.96875 19.371094 18.996094 C 19.402344 18.890625 19.394531 18.777344 19.371094 18.667969 C 19.324219 18.410156 19.160156 18.375 19.132812 18.351562 C 19.117188 18.316406 19.128906 18.164062 18.953125 18.152344 C 18.820312 18.140625 18.726562 18.386719 18.179688 18.222656 C 18.277344 18.164062 18.382812 18.109375 18.460938 18.023438 C 18.546875 18.046875 18.652344 18.078125 18.730469 18.019531 C 18.796875 17.980469 18.804688 17.890625 18.800781 17.820312 C 18.996094 17.730469 19.011719 17.902344 19.097656 17.890625 C 19.089844 17.78125 19.046875 17.679688 18.980469 17.59375 C 18.890625 17.507812 18.757812 17.480469 18.636719 17.488281 C 18.597656 17.492188 18.476562 17.40625 18.375 17.476562 C 18.195312 17.605469 18.203125 17.742188 18.105469 17.832031 C 18 17.929688 17.871094 18.015625 17.722656 18.015625 C 17.472656 17.863281 16.914062 17.265625 16.785156 17.085938 C 16.84375 17.046875 16.90625 17.019531 16.972656 17 C 16.898438 16.859375 16.625 16.617188 16.5 16.363281 C 16.082031 15.632812 16.21875 15.820312 16.054688 15.519531 C 16.011719 15.433594 15.957031 15.347656 15.917969 15.257812 C 15.910156 15.160156 16.121094 14.335938 16.125 14.328125 C 16.132812 14.347656 16.144531 14.652344 16.128906 14.777344 C 16.109375 15.195312 16.160156 15.097656 16.160156 15.238281 C 16.175781 15.449219 16.320312 15.746094 16.472656 15.890625 C 16.601562 16.039062 16.847656 16.085938 16.917969 16.066406 C 16.886719 15.925781 16.851562 15.785156 16.839844 15.640625 C 16.839844 15.421875 16.804688 15.207031 16.8125 14.992188 C 16.804688 14.835938 16.824219 14.683594 16.808594 14.53125 C 16.808594 14.449219 16.800781 14.367188 16.796875 14.285156 C 16.808594 14.285156 16.824219 14.289062 16.839844 14.289062 C 16.925781 14.472656 16.914062 14.921875 17.011719 15.601562 C 17.058594 15.867188 17.210938 16.453125 17.375 16.664062 C 17.515625 16.878906 17.664062 17.058594 18.050781 17.09375 C 18.082031 17.101562 18.109375 17.082031 18.136719 17.070312 C 18.167969 17.058594 18.203125 17.058594 18.226562 17.03125 C 18.261719 16.992188 18.300781 16.949219 18.308594 16.890625 C 18.191406 16.789062 17.976562 16.386719 17.910156 15.988281 C 17.898438 15.945312 17.796875 15.503906 17.792969 15.496094 C 17.691406 14.800781 17.511719 14.433594 17.484375 14.292969 C 17.828125 14.699219 18.210938 16.136719 18.863281 16.464844 C 19.296875 16.71875 19.652344 16.539062 19.710938 16.183594 C 19.617188 16.121094 19.601562 16.179688 19.359375 15.953125 C 19.160156 15.773438 18.804688 15.203125 18.777344 15.15625 C 18.660156 15.039062 18.351562 14.339844 18.128906 14.085938 C 18.097656 14.046875 18.0625 14.007812 18.050781 13.960938 C 18.179688 14.007812 18.769531 14.722656 18.914062 14.832031 C 19.027344 14.921875 19.207031 15.113281 19.570312 15.15625 C 20.03125 15.117188 20.160156 14.691406 20.03125 14.519531 C 19.949219 14.480469 19.871094 14.527344 19.664062 14.445312 C 19.21875 14.1875 19.261719 14.140625 19.035156 13.992188 C 18.949219 13.941406 18.71875 13.742188 18.640625 13.699219 C 18.554688 13.640625 18.460938 13.589844 18.378906 13.523438 C 18.492188 13.488281 18.578125 13.558594 18.707031 13.601562 C 18.714844 13.601562 19.292969 13.886719 19.523438 13.871094 C 19.953125 13.835938 20.210938 13.71875 20.199219 13.269531 C 20.191406 13.179688 20.132812 13.105469 20.066406 13.050781 Z M 20.066406 13.050781 " fill-opacity="1" fill-rule="nonzero"/></g><g fill="#ffffff" fill-opacity="1"><g transform="translate(3.748504, 20.4114)"><g><path d="M 2.375 0.625 L 1.828125 -0.25 L 1.40625 0.015625 L 1.90625 0.8125 L 1.5625 1.03125 L 1.0625 0.234375 L 0.390625 0.640625 L 0.109375 0.1875 L 1.90625 -0.921875 L 2.734375 0.40625 Z M 2.375 0.625 "/></g></g></g><g fill="#ffffff" fill-opacity="1"><g transform="translate(4.815755, 22.152293)"><g><path d="M 2.390625 -0.515625 C 2.609375 -0.273438 2.71875 -0.0078125 2.71875 0.28125 C 2.71875 0.582031 2.601562 0.832031 2.375 1.03125 C 2.144531 1.238281 1.878906 1.332031 1.578125 1.3125 C 1.273438 1.289062 1.015625 1.15625 0.796875 0.90625 C 0.578125 0.664062 0.46875 0.394531 0.46875 0.09375 C 0.476562 -0.195312 0.597656 -0.445312 0.828125 -0.65625 C 1.054688 -0.851562 1.316406 -0.941406 1.609375 -0.921875 C 1.910156 -0.898438 2.171875 -0.765625 2.390625 -0.515625 Z M 2.046875 -0.21875 C 1.941406 -0.34375 1.804688 -0.40625 1.640625 -0.40625 C 1.484375 -0.414062 1.335938 -0.359375 1.203125 -0.234375 C 1.078125 -0.117188 1.003906 0.0195312 0.984375 0.1875 C 0.972656 0.351562 1.019531 0.5 1.125 0.625 C 1.238281 0.75 1.378906 0.804688 1.546875 0.796875 C 1.710938 0.796875 1.859375 0.734375 1.984375 0.609375 C 2.117188 0.492188 2.191406 0.359375 2.203125 0.203125 C 2.210938 0.046875 2.160156 -0.09375 2.046875 -0.21875 Z M 2.046875 -0.21875 "/></g></g></g><g fill="#ffffff" fill-opacity="1"><g transform="translate(6.637021, 24.11631)"><g><path d="M 2.21875 -1.015625 C 2.488281 -0.816406 2.65625 -0.570312 2.71875 -0.28125 C 2.78125 0 2.722656 0.265625 2.546875 0.515625 C 2.359375 0.765625 2.113281 0.910156 1.8125 0.953125 C 1.519531 1.003906 1.238281 0.929688 0.96875 0.734375 C 0.695312 0.546875 0.535156 0.300781 0.484375 0 C 0.429688 -0.289062 0.5 -0.5625 0.6875 -0.8125 C 0.863281 -1.0625 1.09375 -1.203125 1.375 -1.234375 C 1.664062 -1.273438 1.945312 -1.203125 2.21875 -1.015625 Z M 1.953125 -0.65625 C 1.816406 -0.75 1.671875 -0.78125 1.515625 -0.75 C 1.359375 -0.726562 1.226562 -0.644531 1.125 -0.5 C 1.019531 -0.351562 0.976562 -0.195312 1 -0.03125 C 1.019531 0.132812 1.097656 0.265625 1.234375 0.359375 C 1.367188 0.460938 1.515625 0.492188 1.671875 0.453125 C 1.835938 0.421875 1.972656 0.332031 2.078125 0.1875 C 2.179688 0.0390625 2.21875 -0.109375 2.1875 -0.265625 C 2.164062 -0.421875 2.085938 -0.550781 1.953125 -0.65625 Z M 1.953125 -0.65625 "/></g></g></g><g fill="#ffffff" fill-opacity="1"><g transform="translate(8.812744, 25.619859)"><g><path d="M 2.359375 -0.734375 L 1.78125 -1.015625 L 1.078125 0.5 L 0.59375 0.28125 L 1.296875 -1.234375 L 0.71875 -1.515625 L 0.90625 -1.90625 L 2.546875 -1.125 Z M 2.359375 -0.734375 "/></g></g></g><g fill="#ffffff" fill-opacity="1"><g transform="translate(10.669933, 26.484034)"><g><path d="M 0.765625 -1.96875 L 1.703125 -1.71875 C 1.941406 -1.65625 2.117188 -1.5625 2.234375 -1.4375 C 2.347656 -1.3125 2.378906 -1.164062 2.328125 -1 C 2.304688 -0.90625 2.253906 -0.820312 2.171875 -0.75 C 2.085938 -0.6875 1.984375 -0.660156 1.859375 -0.671875 C 1.984375 -0.597656 2.066406 -0.503906 2.109375 -0.390625 C 2.160156 -0.285156 2.171875 -0.164062 2.140625 -0.03125 C 2.085938 0.144531 1.976562 0.265625 1.8125 0.328125 C 1.644531 0.390625 1.441406 0.390625 1.203125 0.328125 L 0.21875 0.0625 Z M 1.15625 -1.4375 L 1.046875 -1.015625 L 1.453125 -0.90625 C 1.535156 -0.882812 1.601562 -0.890625 1.65625 -0.921875 C 1.71875 -0.953125 1.757812 -1 1.78125 -1.0625 C 1.800781 -1.125 1.789062 -1.175781 1.75 -1.21875 C 1.707031 -1.269531 1.644531 -1.304688 1.5625 -1.328125 Z M 0.953125 -0.640625 L 0.828125 -0.1875 L 1.234375 -0.078125 C 1.335938 -0.0546875 1.421875 -0.0625 1.484375 -0.09375 C 1.554688 -0.125 1.601562 -0.175781 1.625 -0.25 C 1.644531 -0.300781 1.628906 -0.351562 1.578125 -0.40625 C 1.535156 -0.46875 1.460938 -0.507812 1.359375 -0.53125 Z M 0.953125 -0.640625 "/></g></g></g><g fill="#ffffff" fill-opacity="1"><g transform="translate(12.97811, 27.093628)"><g><path d="M 1.640625 -0.28125 L 0.71875 -0.34375 L 0.53125 0.03125 L -0.015625 0 L 1.03125 -2.046875 L 1.59375 -2 L 2.34375 0.171875 L 1.765625 0.125 Z M 1.515625 -0.6875 L 1.265625 -1.5 L 0.90625 -0.734375 Z M 1.515625 -0.6875 "/></g></g></g><g fill="#ffffff" fill-opacity="1"><g transform="translate(15.500088, 27.225627)"><g><path d="M 0.703125 -0.53125 L 1.578125 -0.625 L 1.625 -0.171875 L 0.21875 -0.015625 L 0 -2.109375 L 0.53125 -2.171875 Z M 0.703125 -0.53125 "/></g></g></g><g fill="#ffffff" fill-opacity="1"><g transform="translate(17.349479, 27.020682)"><g><path d="M 0.625 -0.625 L 1.484375 -0.84375 L 1.59375 -0.40625 L 0.21875 -0.046875 L -0.296875 -2.09375 L 0.21875 -2.234375 Z M 0.625 -0.625 "/></g></g></g><g fill="#ffffff" fill-opacity="1"><g transform="translate(19.093653, 26.542537)"><g/></g></g><g fill="#ffffff" fill-opacity="1"><g transform="translate(19.896287, 26.281964)"><g><path d="M 0.109375 -2.4375 C 0.242188 -2.507812 0.390625 -2.550781 0.546875 -2.5625 C 0.710938 -2.570312 0.867188 -2.554688 1.015625 -2.515625 L 0.90625 -2.046875 C 0.800781 -2.085938 0.695312 -2.101562 0.59375 -2.09375 C 0.488281 -2.09375 0.394531 -2.070312 0.3125 -2.03125 C 0.15625 -1.957031 0.0546875 -1.84375 0.015625 -1.6875 C -0.0234375 -1.539062 -0.00390625 -1.382812 0.078125 -1.21875 C 0.160156 -1.0625 0.273438 -0.957031 0.421875 -0.90625 C 0.566406 -0.863281 0.71875 -0.878906 0.875 -0.953125 C 0.957031 -0.992188 1.03125 -1.050781 1.09375 -1.125 C 1.15625 -1.207031 1.203125 -1.300781 1.234375 -1.40625 L 1.65625 -1.25 C 1.613281 -1.101562 1.539062 -0.960938 1.4375 -0.828125 C 1.332031 -0.691406 1.210938 -0.585938 1.078125 -0.515625 C 0.785156 -0.367188 0.5 -0.335938 0.21875 -0.421875 C -0.0625 -0.515625 -0.273438 -0.695312 -0.421875 -0.96875 C -0.554688 -1.238281 -0.570312 -1.515625 -0.46875 -1.796875 C -0.375 -2.078125 -0.179688 -2.289062 0.109375 -2.4375 Z M 0.109375 -2.4375 "/></g></g></g><g fill="#ffffff" fill-opacity="1"><g transform="translate(21.908636, 25.213084)"><g><path d="M 0.34375 -0.8125 L 1.046875 -1.34375 L 1.3125 -0.984375 L 0.171875 -0.125 L -1.078125 -1.8125 L -0.640625 -2.140625 Z M 0.34375 -0.8125 "/></g></g></g><g fill="#ffffff" fill-opacity="1"><g transform="translate(23.43537, 24.091731)"><g><path d="M -0.078125 -2.984375 L 0.8125 -2.140625 C 1.007812 -1.953125 1.109375 -1.738281 1.109375 -1.5 C 1.109375 -1.257812 1.007812 -1.035156 0.8125 -0.828125 C 0.601562 -0.609375 0.378906 -0.488281 0.140625 -0.46875 C -0.0976562 -0.457031 -0.316406 -0.546875 -0.515625 -0.734375 L -1.40625 -1.578125 L -1.03125 -1.96875 L -0.140625 -1.125 C -0.0351562 -1.03125 0.0664062 -0.984375 0.171875 -0.984375 C 0.285156 -0.984375 0.390625 -1.035156 0.484375 -1.140625 C 0.566406 -1.222656 0.609375 -1.320312 0.609375 -1.4375 C 0.609375 -1.550781 0.554688 -1.65625 0.453125 -1.75 L -0.4375 -2.59375 Z M -0.078125 -2.984375 "/></g></g></g><g fill="#ffffff" fill-opacity="1"><g transform="translate(25.147911, 22.251372)"><g><path d="M -1.65625 -1.328125 L -1.140625 -2.15625 C -1.003906 -2.351562 -0.859375 -2.484375 -0.703125 -2.546875 C -0.554688 -2.617188 -0.410156 -2.609375 -0.265625 -2.515625 C -0.179688 -2.460938 -0.117188 -2.382812 -0.078125 -2.28125 C -0.0351562 -2.1875 -0.0351562 -2.085938 -0.078125 -1.984375 C 0.0234375 -2.078125 0.132812 -2.128906 0.25 -2.140625 C 0.375 -2.148438 0.5 -2.117188 0.625 -2.046875 C 0.769531 -1.953125 0.847656 -1.816406 0.859375 -1.640625 C 0.867188 -1.460938 0.804688 -1.265625 0.671875 -1.046875 L 0.125 -0.1875 Z M -1.03125 -1.546875 L -0.65625 -1.3125 L -0.4375 -1.671875 C -0.382812 -1.742188 -0.363281 -1.8125 -0.375 -1.875 C -0.382812 -1.9375 -0.414062 -1.984375 -0.46875 -2.015625 C -0.53125 -2.054688 -0.585938 -2.066406 -0.640625 -2.046875 C -0.703125 -2.023438 -0.757812 -1.976562 -0.8125 -1.90625 Z M -0.328125 -1.09375 L 0.0625 -0.84375 L 0.28125 -1.203125 C 0.34375 -1.296875 0.367188 -1.378906 0.359375 -1.453125 C 0.359375 -1.523438 0.328125 -1.582031 0.265625 -1.625 C 0.210938 -1.65625 0.148438 -1.65625 0.078125 -1.625 C 0.015625 -1.601562 -0.046875 -1.546875 -0.109375 -1.453125 Z M -0.328125 -1.09375 "/></g></g></g><g fill="#ffffff" fill-opacity="1"><g transform="translate(2.340295, 17.684679)"><g><path d="M 0.5 -1.25 C 0.550781 -1.25 0.597656 -1.238281 0.640625 -1.21875 C 0.691406 -1.195312 0.734375 -1.164062 0.765625 -1.125 C 0.804688 -1.09375 0.835938 -1.050781 0.859375 -1 C 0.878906 -0.957031 0.890625 -0.910156 0.890625 -0.859375 C 0.890625 -0.816406 0.878906 -0.769531 0.859375 -0.71875 C 0.835938 -0.675781 0.8125 -0.632812 0.78125 -0.59375 L 0.46875 -0.234375 L 0.875 -0.234375 L 0.875 0 L 0.078125 0 L 0.078125 -0.171875 C 0.171875 -0.273438 0.25 -0.363281 0.3125 -0.4375 C 0.34375 -0.476562 0.367188 -0.515625 0.390625 -0.546875 C 0.421875 -0.578125 0.445312 -0.609375 0.46875 -0.640625 C 0.5 -0.671875 0.519531 -0.691406 0.53125 -0.703125 C 0.550781 -0.722656 0.5625 -0.738281 0.5625 -0.75 C 0.582031 -0.769531 0.597656 -0.785156 0.609375 -0.796875 C 0.617188 -0.816406 0.625 -0.835938 0.625 -0.859375 C 0.625 -0.910156 0.609375 -0.945312 0.578125 -0.96875 C 0.546875 -1 0.515625 -1.015625 0.484375 -1.015625 C 0.460938 -1.015625 0.441406 -1.007812 0.421875 -1 C 0.398438 -0.988281 0.382812 -0.972656 0.375 -0.953125 C 0.363281 -0.941406 0.351562 -0.925781 0.34375 -0.90625 C 0.332031 -0.894531 0.328125 -0.878906 0.328125 -0.859375 L 0.109375 -0.859375 C 0.109375 -0.910156 0.117188 -0.957031 0.140625 -1 C 0.160156 -1.050781 0.1875 -1.09375 0.21875 -1.125 C 0.25 -1.164062 0.289062 -1.195312 0.34375 -1.21875 C 0.394531 -1.238281 0.445312 -1.25 0.5 -1.25 Z M 0.5 -1.25 "/></g></g></g><g fill="#ffffff" fill-opacity="1"><g transform="translate(3.312817, 17.684679)"><g><path d="M 0.546875 -1.25 C 0.617188 -1.25 0.679688 -1.234375 0.734375 -1.203125 C 0.796875 -1.179688 0.847656 -1.144531 0.890625 -1.09375 C 0.929688 -1.039062 0.960938 -0.976562 0.984375 -0.90625 C 1.003906 -0.84375 1.015625 -0.769531 1.015625 -0.6875 L 1.015625 -0.53125 C 1.015625 -0.445312 1.003906 -0.375 0.984375 -0.3125 C 0.960938 -0.25 0.929688 -0.191406 0.890625 -0.140625 C 0.847656 -0.0859375 0.796875 -0.046875 0.734375 -0.015625 C 0.679688 0.00390625 0.617188 0.015625 0.546875 0.015625 C 0.484375 0.015625 0.421875 0.00390625 0.359375 -0.015625 C 0.304688 -0.046875 0.253906 -0.0859375 0.203125 -0.140625 C 0.160156 -0.191406 0.128906 -0.25 0.109375 -0.3125 C 0.0859375 -0.382812 0.078125 -0.457031 0.078125 -0.53125 L 0.078125 -0.6875 C 0.078125 -0.769531 0.0859375 -0.84375 0.109375 -0.90625 C 0.128906 -0.976562 0.160156 -1.039062 0.203125 -1.09375 C 0.242188 -1.144531 0.289062 -1.179688 0.34375 -1.203125 C 0.40625 -1.234375 0.472656 -1.25 0.546875 -1.25 Z M 0.765625 -0.671875 C 0.765625 -0.785156 0.738281 -0.875 0.6875 -0.9375 C 0.65625 -0.976562 0.609375 -1 0.546875 -1 C 0.484375 -1 0.429688 -0.976562 0.390625 -0.9375 C 0.347656 -0.875 0.328125 -0.785156 0.328125 -0.671875 L 0.328125 -0.546875 C 0.328125 -0.492188 0.332031 -0.445312 0.34375 -0.40625 C 0.351562 -0.363281 0.375 -0.328125 0.40625 -0.296875 C 0.4375 -0.242188 0.484375 -0.21875 0.546875 -0.21875 C 0.578125 -0.21875 0.601562 -0.222656 0.625 -0.234375 C 0.65625 -0.253906 0.679688 -0.28125 0.703125 -0.3125 C 0.722656 -0.34375 0.738281 -0.375 0.75 -0.40625 C 0.757812 -0.445312 0.765625 -0.492188 0.765625 -0.546875 Z M 0.765625 -0.671875 "/></g></g></g><g fill="#ffffff" fill-opacity="1"><g transform="translate(25.676516, 17.604514)"><g><path d="M 0.5 -1.25 C 0.550781 -1.25 0.597656 -1.238281 0.640625 -1.21875 C 0.691406 -1.195312 0.734375 -1.164062 0.765625 -1.125 C 0.804688 -1.09375 0.835938 -1.050781 0.859375 -1 C 0.878906 -0.957031 0.890625 -0.910156 0.890625 -0.859375 C 0.890625 -0.816406 0.878906 -0.769531 0.859375 -0.71875 C 0.835938 -0.675781 0.8125 -0.632812 0.78125 -0.59375 L 0.46875 -0.234375 L 0.875 -0.234375 L 0.875 0 L 0.078125 0 L 0.078125 -0.171875 C 0.171875 -0.273438 0.25 -0.363281 0.3125 -0.4375 C 0.34375 -0.476562 0.367188 -0.515625 0.390625 -0.546875 C 0.421875 -0.578125 0.445312 -0.609375 0.46875 -0.640625 C 0.5 -0.671875 0.519531 -0.691406 0.53125 -0.703125 C 0.550781 -0.722656 0.5625 -0.738281 0.5625 -0.75 C 0.582031 -0.769531 0.597656 -0.785156 0.609375 -0.796875 C 0.617188 -0.816406 0.625 -0.835938 0.625 -0.859375 C 0.625 -0.910156 0.609375 -0.945312 0.578125 -0.96875 C 0.546875 -1 0.515625 -1.015625 0.484375 -1.015625 C 0.460938 -1.015625 0.441406 -1.007812 0.421875 -1 C 0.398438 -0.988281 0.382812 -0.972656 0.375 -0.953125 C 0.363281 -0.941406 0.351562 -0.925781 0.34375 -0.90625 C 0.332031 -0.894531 0.328125 -0.878906 0.328125 -0.859375 L 0.109375 -0.859375 C 0.109375 -0.910156 0.117188 -0.957031 0.140625 -1 C 0.160156 -1.050781 0.1875 -1.09375 0.21875 -1.125 C 0.25 -1.164062 0.289062 -1.195312 0.34375 -1.21875 C 0.394531 -1.238281 0.445312 -1.25 0.5 -1.25 Z M 0.5 -1.25 "/></g></g></g><g fill="#ffffff" fill-opacity="1"><g transform="translate(26.649038, 17.604514)"><g><path d="M 0.71875 -0.765625 C 0.769531 -0.722656 0.8125 -0.671875 0.84375 -0.609375 C 0.875 -0.546875 0.890625 -0.476562 0.890625 -0.40625 C 0.890625 -0.34375 0.878906 -0.285156 0.859375 -0.234375 C 0.835938 -0.179688 0.804688 -0.132812 0.765625 -0.09375 C 0.722656 -0.0625 0.675781 -0.0351562 0.625 -0.015625 C 0.570312 0.00390625 0.519531 0.015625 0.46875 0.015625 C 0.414062 0.015625 0.367188 0.0078125 0.328125 0 C 0.285156 -0.0078125 0.25 -0.0234375 0.21875 -0.046875 C 0.1875 -0.078125 0.15625 -0.109375 0.125 -0.140625 C 0.101562 -0.179688 0.0820312 -0.222656 0.0625 -0.265625 L 0.296875 -0.359375 C 0.304688 -0.316406 0.328125 -0.28125 0.359375 -0.25 C 0.390625 -0.226562 0.421875 -0.21875 0.453125 -0.21875 C 0.484375 -0.21875 0.507812 -0.222656 0.53125 -0.234375 C 0.550781 -0.242188 0.566406 -0.253906 0.578125 -0.265625 C 0.597656 -0.285156 0.609375 -0.304688 0.609375 -0.328125 C 0.617188 -0.347656 0.625 -0.375 0.625 -0.40625 C 0.625 -0.425781 0.617188 -0.445312 0.609375 -0.46875 C 0.609375 -0.488281 0.597656 -0.507812 0.578125 -0.53125 C 0.566406 -0.550781 0.550781 -0.566406 0.53125 -0.578125 C 0.507812 -0.585938 0.484375 -0.59375 0.453125 -0.59375 C 0.421875 -0.59375 0.394531 -0.582031 0.375 -0.5625 L 0.234375 -0.734375 L 0.4375 -0.984375 L 0.125 -0.984375 L 0.125 -1.234375 L 0.765625 -1.234375 L 0.765625 -1.109375 L 0.5625 -0.8125 C 0.625 -0.800781 0.675781 -0.785156 0.71875 -0.765625 Z M 0.71875 -0.765625 "/></g></g></g></svg>